<?xml version="1.0" encoding="UTF-8"?>
<svg id="_레이어_1" data-name="레이어_1" xmlns="http://www.w3.org/2000/svg" viewBox="0 0 1920 524">
  <defs>
    <style>
      .cls-1 {
        fill: #6439ff;
      }
    </style>
  </defs>
  <path d="M606.06,284.9c0,52.94-36.7,88.01-87.04,88.01-24.35,0-45.79-9.42-60.08-27.93v88.98h-31.18v-235.12h29.88v27.28c13.97-19.16,36.05-28.9,61.38-28.9,50.34,0,87.04,35.07,87.04,87.69ZM574.56,284.9c0-36.37-25.01-60.4-58.13-60.4s-57.81,24.03-57.81,60.4,25,60.73,57.81,60.73,58.13-24.03,58.13-60.73Z"/>
  <path d="M746.01,360.89c-9.42,8.12-23.71,12.02-37.67,12.02-34.75,0-54.56-19.16-54.56-53.91v-94.5h-29.23v-25.66h29.23v-37.67h31.18v37.67h49.36v25.66h-49.36v93.21c0,18.51,9.74,28.9,26.95,28.9,9.09,0,17.86-2.92,24.35-8.12l9.74,22.41Z"/>
  <path d="M784.55,199.31h31.18v171.65h-31.18v-171.65Z"/>
  <path d="M1160.06,271.91v99.05h-31.18v-95.48c0-33.77-16.24-50.34-44.49-50.34-31.18,0-51.64,19.81-51.64,57.16v88.66h-31.18v-95.48c0-33.77-16.24-50.34-44.49-50.34-31.18,0-51.64,19.81-51.64,57.16v88.66h-31.18v-172.12h29.88v25.66c12.34-17.54,33.45-27.28,59.43-27.28s48.39,10.39,59.75,31.83c12.99-19.48,37.03-31.83,66.25-31.83,41.89,0,70.47,24.03,70.47,74.69Z"/>
  <path d="M1217.14,198.84h31.18v172.12h-31.18v-172.12Z"/>
  <path d="M1435.74,345.3v25.66h-144.19v-20.14l101.65-126.33h-99.7v-25.66h139.65v20.46l-101.65,126.01h104.25Z"/>
  <path d="M1629.61,295.29h-139.65c3.89,30.2,28.25,50.34,62.35,50.34,20.13,0,37.02-6.82,49.69-20.78l17.21,20.14c-15.59,18.19-39.3,27.93-67.88,27.93-55.53,0-92.55-36.7-92.55-88.01s36.7-87.69,86.38-87.69,85.09,35.72,85.09,88.66c0,2.6-.32,6.5-.65,9.42ZM1489.97,272.88h110.42c-3.25-28.9-25.01-49.36-55.21-49.36s-51.96,20.14-55.21,49.36Z"/>
  <path d="M1766,197.21v30.2c-2.6-.32-4.87-.32-7.15-.32-33.45,0-54.23,20.46-54.23,58.13v85.74h-31.18v-172.12h29.88v28.9c11.04-20.14,32.48-30.53,62.68-30.53Z"/>
  <rect class="cls-1" x="783.55" y="124.65" width="33.18" height="33.18" transform="translate(334.23 -524.41) rotate(45)"/>
  <rect x="1216.14" y="124.65" width="33.18" height="33.18"/>
  <polygon points="391.4 370.32 290.11 142.42 255.29 142.42 154 370.32 188.82 370.32 272.7 181.59 324.22 297.51 254.99 297.54 240.45 329.18 337.89 329.14 338.09 328.71 356.58 370.32 391.4 370.32"/>
</svg>