<?xml version="1.0" encoding="UTF-8"?>
<svg id="_레이어_1" data-name="레이어_1" xmlns="http://www.w3.org/2000/svg" viewBox="0 0 1080 1080">
  <defs>
    <style>
      .cls-1 {
        fill: #6439ff;
      }

      .cls-2 {
        fill: #050c9c;
      }
    </style>
  </defs>
  <g>
    <polygon class="cls-2" points="807.87 219.94 770.47 182.54 605 348.01 605 114 552.11 114 552.11 400.9 552.11 442.04 561.97 451.9 575.91 451.9 605 422.81 807.87 219.94"/>
    <rect class="cls-2" x="567.24" y="360.74" width="337.9" height="52.89" transform="translate(-58.16 633.97) rotate(-45)"/>
    <polygon class="cls-2" points="487.17 451.9 501.12 451.9 510.97 442.04 510.97 400.9 510.97 114 458.09 114 458.09 348.01 292.61 182.54 255.22 219.94 458.09 422.81 487.17 451.9"/>
    <polygon class="cls-2" points="120.19 504.78 407.09 504.78 448.23 504.78 458.09 494.92 458.09 480.98 429 451.9 226.13 249.03 188.73 286.42 354.2 451.9 120.19 451.9 120.19 504.78"/>
    <rect class="cls-2" x="224.43" y="703.55" width="337.9" height="52.89" transform="translate(-400.97 491.97) rotate(-45)"/>
    <polygon class="cls-2" points="458.09 569.72 458.09 555.78 448.23 545.92 407.09 545.92 120.19 545.92 120.19 598.81 354.2 598.81 188.73 764.28 226.13 801.68 429 598.81 458.09 569.72"/>
  </g>
  <polygon class="cls-1" points="972 482.62 972 571.35 652.33 571.35 866.04 785.06 791.25 859.85 577.54 646.14 577.54 965.81 488.81 965.81 488.81 482.62 972 482.62"/>
</svg>