<svg width="180" height="250" viewBox="0 0 180 250" fill="none" xmlns="http://www.w3.org/2000/svg">
<rect width="180" height="250" rx="20" fill="white"/>
<g clip-path="url(#clip0_319_2392)">
<path d="M46.666 129C43.9048 129 41.666 126.761 41.666 124V64C41.666 61.238 43.9048 59 46.666 59H128.333V129H46.666Z" fill="#348FD9"/>
<path d="M41.666 54C41.666 51.238 43.9048 49 46.666 49H51.666V119H46.666C43.9048 119 41.666 121.238 41.666 124V54Z" fill="#4DB7E5"/>
<path d="M115.488 67.6776L107.5 75.6667L106.667 76.5L105 81.5L105.488 81.9883L100.488 86.9883L102.845 89.3442L107.845 84.3442L108.333 84.8333L113.333 83.1667L114.167 82.3333L122.155 74.3442L124.512 71.9883L128.333 68.1667V59H124.167L117.845 65.3216L115.488 67.6776Z" fill="#3086CD"/>
<path d="M119.986 92.265C119.981 92.0672 119.941 91.8727 119.868 91.6896C119.868 91.6782 119.855 91.6693 119.851 91.6579C119.794 91.5269 119.721 91.404 119.633 91.2917L106.3 74.625C105.984 74.2295 105.505 73.9992 104.999 74H78.332C77.8381 74.0024 77.3717 74.2238 77.0568 74.6047C77.0568 74.6144 77.0373 74.6161 77.0308 74.625L63.6974 91.2917C63.6104 91.404 63.5371 91.5277 63.4801 91.6579C63.4801 91.6693 63.4671 91.6782 63.4622 91.6896C63.3898 91.8727 63.3499 92.0672 63.3451 92.265C63.3451 92.2894 63.332 92.3097 63.332 92.3333V112.333C63.332 113.254 64.0783 114 64.9987 114H118.332C119.252 114 119.999 113.254 119.999 112.333V92.3333C119.999 92.3097 119.986 92.2894 119.986 92.265ZM104.199 77.3333L114.865 90.6667H92.467L85.3551 81.7783L81.8005 77.3333H104.199ZM78.332 78.3327L84.9084 86.5545L88.1969 90.6667H68.4671L78.332 78.3327ZM66.6654 94H89.9987V110.667H84.9987V99C84.9987 98.0788 84.2524 97.3333 83.332 97.3333H73.332C72.4116 97.3333 71.6654 98.0788 71.6654 99V110.667H66.6654V94ZM74.9987 110.667V100.667H81.6654V110.667H74.9987ZM116.665 110.667H93.332V94H116.665V110.667Z" fill="#4DB7E5"/>
<path d="M101.667 107.333H108.333C109.254 107.333 110 106.587 110 105.667V98.9999C110 98.0787 109.254 97.3333 108.333 97.3333H101.667C100.746 97.3333 100 98.0787 100 98.9999V105.667C100 106.587 100.746 107.333 101.667 107.333ZM103.333 100.667H106.667V104H103.333V100.667Z" fill="#4DB7E5"/>
<path d="M59.9993 114H56.666V119C56.666 119.92 57.4123 120.667 58.3327 120.667H63.3327V117.333H59.9993V114Z" fill="#4DB7E5"/>
<path d="M59.9993 67.3333H63.3327V64H58.3327C57.4123 64 56.666 64.7454 56.666 65.6667V70.6667H59.9993V67.3333Z" fill="#4DB7E5"/>
<path d="M106.666 76.5001L105.744 79.2646L109.806 84.3411L113.176 83.218L107.296 75.8694L106.666 76.5001Z" fill="#419BC2"/>
<path d="M101.667 75.6666L100 80.6666L103.333 83.9999L108.333 82.3333L109.167 81.4999L102.5 74.8333L101.667 75.6666Z" fill="#CCCCCA"/>
<path d="M102.5 74.8325L131.667 45.665L138.333 52.3325L109.167 81.4992L102.5 74.8325Z" fill="#803F37"/>
<path d="M110.488 66.8451L112.845 64.4883L119.513 71.1549L117.155 73.5117L110.488 66.8451Z" fill="#FFB531"/>
<path d="M95.4883 86.1541L100.488 81.1533L102.846 83.5101L97.8451 88.5109L95.4883 86.1541Z" fill="#CCCCCA"/>
<path d="M86.666 142.333H138.333V90.6667L86.666 142.333ZM128.333 132.333H111.666L128.333 115.667V132.333Z" fill="#FFB531"/>
<path d="M138.333 110.667L128.333 120.667V132.333H116.666L106.666 142.333H138.333V110.667Z" fill="#FFA912"/>
<path d="M126.666 69H129.999V92.3333H126.666V69Z" fill="black"/>
<path d="M40.2287 125.64C40.3027 125.96 40.4004 126.275 40.5216 126.581C40.5697 126.698 40.6437 126.799 40.6982 126.915C41.1816 127.986 41.9645 128.895 42.9517 129.533C43.195 129.686 43.4473 129.823 43.7085 129.945C43.8363 130.008 43.9535 130.091 44.0869 130.148C44.384 130.263 44.6891 130.357 45 130.428C45.1164 130.458 45.223 130.508 45.3418 130.532C45.778 130.62 46.2215 130.666 46.6667 130.667H91.6667V127.333H46.6667C46.4429 127.333 46.2191 127.31 46.0002 127.267C45.9196 127.249 45.8447 127.216 45.7666 127.195C45.6348 127.162 45.5054 127.122 45.3784 127.074C45.2645 127.02 45.153 126.959 45.0448 126.893C44.9699 126.85 44.8901 126.816 44.8185 126.769C44.6395 126.647 44.4718 126.508 44.318 126.354C44.165 126.201 44.0267 126.034 43.9046 125.855C43.842 125.759 43.7948 125.653 43.7386 125.551C43.6816 125.449 43.6369 125.384 43.5986 125.29C43.5433 125.15 43.4985 125.006 43.4652 124.859C43.4465 124.794 43.418 124.733 43.4049 124.665C43.2056 123.685 43.4562 122.667 44.0885 121.892C44.7201 121.117 45.6665 120.667 46.6667 120.667H51.6667C52.5871 120.667 53.3333 119.92 53.3333 119V60.6666H111.667V57.3333H53.3333V48.9999C53.3333 48.0787 52.5871 47.3333 51.6667 47.3333H46.6667C42.985 47.3333 40 50.3175 40 53.9999V124C40 124.448 40.0456 124.894 40.1351 125.333C40.1571 125.436 40.2018 125.535 40.2287 125.64ZM43.3333 63.9999V53.9999C43.3333 52.1583 44.8258 50.6666 46.6667 50.6666H50V117.333H46.6667C45.4956 117.331 44.3457 117.64 43.3333 118.228V63.9999Z" fill="black"/>
<path d="M96.6673 74H78.334C77.84 74.0024 77.3737 74.2238 77.0588 74.6047C77.0588 74.6144 77.0392 74.616 77.0327 74.625L63.6994 91.2917C63.6123 91.404 63.5391 91.5277 63.4821 91.6579C63.4821 91.6693 63.4691 91.6782 63.4642 91.6896C63.3918 91.8727 63.3519 92.0672 63.347 92.265C63.347 92.2894 63.334 92.3097 63.334 92.3333V112.333C63.334 113.254 64.0802 114 65.0007 114H108.334V110.667H93.334V94H116.667V104H120.001V92.3333C120.001 92.3097 119.988 92.2894 119.988 92.265C119.983 92.068 119.944 91.8743 119.87 91.6912C119.87 91.6766 119.854 91.666 119.849 91.653C119.794 91.5244 119.722 91.4032 119.635 91.2933L114.635 85.036L112.033 87.116L114.866 90.6667H92.4689L85.3571 81.7783L81.8024 77.3333H96.6673V74ZM81.6673 110.667H75.0007V100.667H81.6673V110.667ZM90.0007 110.667H85.0007V99C85.0007 98.0788 84.2544 97.3333 83.334 97.3333H73.334C72.4136 97.3333 71.6673 98.0788 71.6673 99V110.667H66.6673V94H90.0007V110.667ZM84.9103 86.5562L88.1989 90.6667H68.4691L78.334 78.3327L84.9103 86.5562Z" fill="black"/>
<path d="M101.667 97.3333C100.746 97.3333 100 98.0787 100 98.9999V105.667C100 106.587 100.746 107.333 101.667 107.333H108.333C109.254 107.333 110 106.587 110 105.667V98.9999C110 98.0787 109.254 97.3333 108.333 97.3333H101.667ZM106.667 104H103.333V100.667H106.667V104Z" fill="black"/>
<path d="M138.971 89.1263C138.349 88.8683 137.632 89.0115 137.155 89.4884L85.4881 141.155C85.012 141.631 84.8688 142.348 85.1268 142.971C85.3848 143.593 85.9927 143.999 86.6665 144H138.333C139.254 144 140 143.254 140 142.333V90.6668C140 89.9921 139.594 89.3842 138.971 89.1263ZM136.666 140.667H90.6899L136.666 94.6894V140.667Z" fill="black"/>
<path d="M110.127 132.971C110.385 133.594 110.993 134 111.667 134H128.333C129.254 134 130 133.254 130 132.333V115.667C130 114.992 129.594 114.385 128.971 114.127C128.349 113.869 127.632 114.011 127.155 114.488L110.488 131.155C110.011 131.631 109.869 132.348 110.127 132.971ZM126.667 119.689V130.667H115.69L126.667 119.689Z" fill="black"/>
<path d="M132.845 44.4883C132.194 43.8372 131.139 43.8372 130.488 44.4883L100.488 74.4883C100.306 74.6714 100.168 74.8944 100.086 75.1393L98.4196 80.1393C98.2202 80.7383 98.3757 81.3983 98.8216 81.8442L99.3099 82.3333L95.4883 86.155L97.8451 88.5109L101.667 84.6893L102.155 85.1776C102.467 85.4909 102.891 85.6659 103.333 85.6667C103.512 85.6659 103.69 85.6374 103.86 85.5812L108.86 83.9146C109.106 83.8324 109.329 83.6948 109.512 83.5109L139.512 53.5109C140.162 52.8607 140.162 51.8052 139.512 51.1549L132.845 44.4883ZM103.785 82.0933L101.908 80.2166L102.812 77.501L106.5 81.1883L103.785 82.0933ZM109.167 79.1432L104.857 74.8333L111.667 68.0226L115.977 72.3333L109.167 79.1432ZM118.333 69.9766L114.023 65.6667L131.667 48.0226L135.977 52.3333L118.333 69.9766Z" fill="black"/>
<path d="M56.666 114V119C56.666 119.92 57.4123 120.667 58.3327 120.667H63.3327V117.333H59.9993V114H56.666Z" fill="black"/>
<path d="M63.3327 64H58.3327C57.4123 64 56.666 64.7454 56.666 65.6667V70.6667H59.9993V67.3333H63.3327V64Z" fill="black"/>
</g>
<path d="M80.1221 186.639V198.328H77.8896V193.107H75.0244V191.262H77.8896V186.639H80.1221ZM75.165 187.816C75.165 192.105 72.4404 195.27 67.7646 196.729L66.8506 194.953C70.1641 193.916 72.2998 192.009 72.7217 189.645H67.6768V187.816H75.165ZM80.5264 200.543V202.336H69.5752V197.15H71.8604V200.543H80.5264ZM96.7861 194.496V196.271H90.5811V197.66H95.0107V202.6H92.7783V199.436H83.8135V197.66H88.3662V196.271H82.1963V194.496H96.7861ZM90.5811 186.639V188.08H95.3799V189.82H90.7568C91.0117 190.972 92.6377 192.009 96.1357 192.246L95.4502 193.916C92.5146 193.714 90.4756 192.87 89.4736 191.578C88.4629 192.87 86.4238 193.714 83.4971 193.916L82.8115 192.246C86.292 192.009 87.918 190.972 88.1904 189.82H83.6025V188.08H88.3662V186.639H90.5811ZM107.245 188.045V189.82H97.7529V188.045H101.392V186.533H103.624V188.045H107.245ZM102.499 190.33C104.819 190.33 106.437 191.525 106.437 193.283C106.437 195.041 104.819 196.236 102.499 196.236C100.179 196.236 98.5264 195.041 98.5264 193.283C98.5264 191.525 100.179 190.33 102.499 190.33ZM102.499 192.018C101.427 192.018 100.706 192.457 100.724 193.283C100.706 194.092 101.427 194.514 102.499 194.514C103.571 194.514 104.31 194.092 104.31 193.283C104.31 192.457 103.571 192.018 102.499 192.018ZM110.444 186.621V190.77H112.606V192.598H110.444V196.658H108.194V186.621H110.444ZM110.444 197.326V202.617H108.194V199.119H99.6689V197.326H110.444Z" fill="black"/>
<defs>
<clipPath id="clip0_319_2392">
<rect width="100" height="100" fill="white" transform="translate(40 44)"/>
</clipPath>
</defs>
</svg>
