<svg width="180" height="250" viewBox="0 0 180 250" fill="none" xmlns="http://www.w3.org/2000/svg">
<rect width="180" height="250" rx="20" fill="white"/>
<g clip-path="url(#clip0_319_2378)">
<path d="M137.999 78.0332L137.199 75.5834C136.882 74.6373 135.997 73.9995 134.999 73.9995C134.002 73.9995 133.116 74.6373 132.799 75.5834L132.499 76.4997L132.199 77.4335L132.016 77.9668C131.782 78.6496 131.665 78.9998 131.665 78.9998H119.999C119.999 78.9998 119.949 78.8335 119.832 78.4833L118.866 75.5834C118.549 74.6373 117.663 73.9995 116.666 73.9995C115.668 73.9995 114.782 74.6373 114.466 75.5834L114.166 76.4836L113.499 78.4833C113.387 78.8221 113.331 79.1768 113.332 79.5331V140.667C113.331 141.26 113.649 141.808 114.166 142.1C114.417 142.252 114.705 142.333 114.999 142.333H118.332C119.253 142.333 119.999 141.587 119.999 140.667V129H131.665V140.667C131.664 141.26 131.982 141.808 132.499 142.1C132.75 142.252 133.039 142.333 133.333 142.333H136.666C137.586 142.333 138.332 141.587 138.332 140.667V80.0832C138.331 79.3866 138.218 78.6946 137.999 78.0332ZM128.332 85.6664C128.613 85.6664 128.893 85.6999 129.166 85.7663C129.755 85.9281 130.291 86.2447 130.716 86.6834C131.323 87.3021 131.663 88.1337 131.665 88.9997V97.3332C131.669 98.8668 130.622 100.202 129.133 100.567H129.116C128.86 100.634 128.597 100.667 128.332 100.667H123.333C121.494 100.661 120.005 99.1719 119.999 97.3332V88.9997C120.005 87.161 121.494 85.6725 123.333 85.6664H128.332ZM128.332 122.333H123.333C121.494 122.328 120.005 120.839 119.999 119V110.666C120.013 108.883 121.417 107.42 123.199 107.333H128.332C130.171 107.338 131.66 108.828 131.665 110.666V119C131.66 120.839 130.171 122.328 128.332 122.333Z" fill="#CB4315"/>
<path d="M132.999 78.0332L132.499 76.4997L132.199 77.4335L132.016 77.9668C131.782 78.6496 131.665 78.9998 131.665 78.9998H114.999C114.999 78.9998 114.949 78.8335 114.833 78.4833L114.166 76.4836L113.499 78.4833C113.387 78.8221 113.331 79.1768 113.332 79.5331V140.667C113.331 141.26 113.649 141.808 114.166 142.1C114.682 141.808 115.001 141.26 114.999 140.667V129H131.665V140.667C131.664 141.26 131.982 141.808 132.499 142.1C133.016 141.808 133.334 141.26 133.333 140.667V80.0832C133.33 79.3866 133.218 78.6946 132.999 78.0332ZM128.332 122.333H118.332C116.494 122.328 115.004 120.839 114.999 119V110.666C115.013 108.883 116.417 107.42 118.199 107.333H128.332C130.171 107.338 131.66 108.828 131.665 110.666V119C131.66 120.839 130.171 122.328 128.332 122.333ZM129.133 100.567H129.116C128.86 100.634 128.597 100.667 128.332 100.667H118.332C116.494 100.661 115.004 99.1719 114.999 97.3332V88.9997C115.004 87.161 116.494 85.6725 118.332 85.6664H128.332C128.613 85.6664 128.893 85.6999 129.166 85.7663C129.755 85.9281 130.291 86.2447 130.716 86.6834C131.323 87.3021 131.663 88.1337 131.665 88.9997V97.3332C131.669 98.8668 130.622 100.202 129.133 100.567Z" fill="#FF5722"/>
<path d="M129.699 116.062C127.549 116.08 125.066 116.152 122.382 116.348C122.016 116.383 121.666 116.401 121.283 116.437C117.785 116.717 114.307 117.199 110.866 117.882C110.516 117.935 110.183 118.007 109.833 118.077C106.939 118.673 104.084 119.441 101.282 120.379C100.766 120.545 100.249 120.712 99.7495 120.895C97.1113 121.841 94.544 122.973 92.0659 124.283C91.8989 124.372 91.7325 124.462 91.5655 124.569C89.2583 125.818 87.0618 127.261 84.9988 128.883L71.6657 130.667H51.666C58.0106 127.038 64.7123 124.074 71.6657 121.821V121.75C71.6657 121.75 90.5492 113.833 129.699 116.062Z" fill="#607D80"/>
<path d="M83.5343 49.2002L80.9845 46.6497C80.3574 46.021 79.5059 45.667 78.6179 45.667H78.051C77.2293 45.6655 76.4374 45.9752 75.8339 46.5337C75.7767 46.5612 75.7256 46.6008 75.6844 46.6497L73.1346 49.2002C72.905 49.4664 72.7242 49.7709 72.6006 50.0997C71.637 52.4556 69.3459 53.996 66.8007 53.9998H60.2509C57.5585 53.9365 55.1873 52.21 54.3007 49.6663C54.2633 49.5748 54.2191 49.4855 54.168 49.4001L51.2345 46.7832C49.7315 45.4229 47.4854 45.2916 45.8344 46.4666C45.7009 46.5665 45.5674 46.6665 45.4346 46.7832L42.5011 49.4001C41.9632 50.2294 41.6741 51.1953 41.668 52.1833V142.333C41.668 143.254 42.4141 144 43.3342 144H55.0011V122.333C55.0064 120.495 56.4957 119.005 58.3344 119H68.3342C70.1729 119.005 71.6622 120.495 71.6675 122.333V144H85.0006V52.7333C84.9968 51.4081 84.4696 50.1386 83.5343 49.2002ZM71.6675 105.667C71.6622 107.506 70.1729 108.995 68.3342 109H58.3344C56.4957 108.995 55.0064 107.506 55.0011 105.667V95.667C55.0064 93.8283 56.4957 92.3391 58.3344 92.3329H68.3342C70.1729 92.3391 71.6622 93.8283 71.6675 95.667V105.667ZM71.6675 78.9998C71.6622 80.8385 70.1729 82.3278 68.3342 82.3331H58.3344C56.4957 82.3278 55.0064 80.8385 55.0011 78.9998V67.333C55.0064 65.495 56.4957 64.0058 58.3344 63.9997H68.3342C70.1729 64.0058 71.6622 65.495 71.6675 67.333V78.9998Z" fill="#E87C00"/>
<path d="M78.534 49.2002L75.9842 46.6497C75.943 46.6008 75.8919 46.5612 75.8339 46.5337C75.7767 46.5612 75.7256 46.6008 75.6844 46.6497L73.1346 49.2002C72.905 49.4664 72.7242 49.7708 72.6006 50.0997C71.637 52.4556 69.3459 53.996 66.8007 53.9998H55.2506C52.5582 53.9365 50.1877 52.21 49.3012 49.6663C49.263 49.5748 49.2188 49.4855 49.1677 49.4001L46.2342 46.7832C46.1006 46.6664 45.9679 46.5665 45.8344 46.4666C45.7009 46.5665 45.5674 46.6664 45.4346 46.7832L42.5011 49.4001C41.9632 50.2294 41.6741 51.1953 41.668 52.1833V142.333C41.668 143.254 42.4141 144 43.3342 144H50.0008V122.333C50.0061 120.495 51.4954 119.005 53.3341 119H68.3342C70.1729 119.005 71.6622 120.495 71.6675 122.333V144H80.0011V52.7333C79.9973 51.4081 79.4701 50.1386 78.534 49.2002ZM71.6675 105.667C71.6622 107.506 70.1729 108.995 68.3342 109H53.3341C51.4954 108.995 50.0061 107.506 50.0008 105.667V95.667C50.0061 93.8283 51.4954 92.339 53.3341 92.3329H68.3342C70.1729 92.339 71.6622 93.8283 71.6675 95.667V105.667ZM71.6675 78.9998C71.6622 80.8385 70.1729 82.3278 68.3342 82.3331H53.3341C51.4954 82.3278 50.0061 80.8385 50.0008 78.9998V67.3329C50.0061 65.495 51.4954 64.0058 53.3341 63.9997H68.3342C70.1729 64.0058 71.6622 65.495 71.6675 67.3329V78.9998Z" fill="#FFA601"/>
<path d="M68.3341 62.3335H58.3343C57.6331 62.3358 56.9396 62.4861 56.3011 62.7752H56.2858C56.2644 62.7836 56.2507 62.8019 56.2293 62.8103C54.4677 63.6274 53.3386 65.3914 53.334 67.333V78.9999C53.334 81.7617 55.5724 84.0002 58.3343 84.0002H68.3341C71.096 84.0002 73.3344 81.7617 73.3344 78.9999V67.333C73.3344 64.572 71.096 62.3335 68.3341 62.3335ZM56.6673 78.9999V68.5835C58.0673 72.402 59.4024 76.2137 60.6773 79.9269L60.9329 80.6669H58.3343C57.4134 80.6669 56.6673 79.9208 56.6673 78.9999ZM70.0012 78.9999C70.0012 79.9208 69.255 80.6669 68.3341 80.6669H64.4576L63.8343 78.845C62.3596 74.5436 60.8138 70.1101 59.1506 65.6668H68.3341C69.255 65.6668 70.0012 66.4129 70.0012 67.333V78.9999Z" fill="black"/>
<path d="M68.3341 90.6667H58.3343C55.5724 90.6667 53.334 92.9052 53.334 95.6671V105.667C53.334 108.428 55.5724 110.666 58.3343 110.666H68.3341C71.096 110.666 73.3344 108.428 73.3344 105.667V95.6671C73.3344 92.9052 71.096 90.6667 68.3341 90.6667ZM70.0012 105.667C70.0012 106.587 69.255 107.333 68.3341 107.333H58.3343C57.4134 107.333 56.6673 106.587 56.6673 105.667V95.6671C56.6673 94.7462 57.4134 94 58.3343 94H68.3341C69.255 94 70.0012 94.7462 70.0012 95.6671V105.667Z" fill="black"/>
<path d="M138.782 75.0547C138.237 73.4274 136.712 72.331 134.995 72.3333C133.279 72.3348 131.756 73.435 131.215 75.0631L130.47 77.3336H121.208L120.448 75.0547C119.903 73.4296 118.381 72.3341 116.667 72.3341C114.952 72.3341 113.43 73.4296 112.885 75.0547L111.917 77.9585C111.831 78.2232 111.767 78.4948 111.727 78.7702C111.701 78.845 111.681 78.922 111.667 78.9999C111.667 78.9999 111.667 79.1036 111.687 79.2768C111.687 79.3615 111.667 79.4431 111.667 79.5332V91.3335C111.407 94.3342 110.87 97.3043 110.063 100.207C107.962 107.635 106.04 109.775 99.9731 113.255C94.57 110 90.0969 103.01 86.6667 92.4284V52.7334C86.6721 50.9672 85.9701 49.2719 84.7166 48.0268L82.157 45.4664C81.2201 44.5249 79.9452 43.9962 78.6169 44H78.0501C76.7218 43.9962 75.4469 44.5249 74.51 45.4664L71.955 48.0215C71.5643 48.4403 71.2607 48.9332 71.0616 49.4703C70.3604 51.2022 68.6774 52.3351 66.8082 52.3336H60.2568C58.2503 52.2665 56.4955 50.9641 55.8501 49.0636C55.7738 48.863 55.6776 48.6715 55.5632 48.4899C55.4823 48.3671 55.3854 48.2557 55.2763 48.1565L52.3451 45.5404C50.0403 43.5537 46.6284 43.5537 44.3236 45.5404L41.3901 48.1565C41.2772 48.258 41.1787 48.3732 41.0963 48.4998C40.386 49.5977 40.0053 50.8756 40 52.1833V140.667C40 142.508 41.4923 144 43.3333 144H84.9997C85.0233 144 85.0416 143.989 85.063 143.987C85.2522 143.982 85.4384 143.944 85.6154 143.876C85.6978 143.834 85.7779 143.786 85.8534 143.731C85.945 143.686 86.0327 143.634 86.1151 143.574C87.6776 142.277 89.3507 141.121 91.1146 140.117C93.4714 138.73 95.9128 137.495 98.4251 136.419C98.6502 136.339 98.8966 136.235 99.0767 136.153C102.067 134.899 105.132 133.828 108.253 132.948C108.472 132.876 108.694 132.817 108.92 132.77C109.818 132.517 110.753 132.297 111.667 132.067V140.667C111.667 142.508 113.159 144 115 144H118.333C120.174 144 121.667 142.508 121.667 140.667V130.147C123.515 129.882 125.394 129.647 127.348 129.48C127.81 129.435 128.26 129.392 128.762 129.36C129.17 129.329 129.595 129.312 130 129.285V140.667C130 142.508 131.492 144 133.333 144H136.667C138.508 144 140 142.508 140 140.667V80.0832C140.001 79.2097 139.862 78.3414 139.588 77.5114L138.782 75.0547ZM131.715 125.844C131.698 125.844 131.683 125.834 131.666 125.834C131.65 125.834 131.608 125.85 131.576 125.852C131.212 125.87 130.85 125.897 130.487 125.918L131.047 120.317L133.528 125.773C132.921 125.793 132.318 125.813 131.715 125.844ZM110.393 128.927L111.133 122.29L114.667 127.943C113.213 128.243 111.782 128.573 110.393 128.927ZM99.9197 117.022C101.117 117.629 102.346 118.17 103.602 118.641C102.65 118.9 101.715 119.166 100.818 119.45C100.295 119.602 99.7717 119.77 99.2567 119.941H99.2483L99.2148 119.954C96.514 120.859 93.8765 121.946 91.3214 123.207C91.1146 123.31 90.9117 123.415 90.8087 123.48C89.3515 124.225 87.9752 125.02 86.6667 125.848V118.952C91.1452 118.831 95.5931 118.183 99.9197 117.022ZM126.723 96.935C126.608 97.3653 126.39 98.1016 126.12 99.0003H123.334C122.413 99.0003 121.667 98.2542 121.667 97.3333V88.9997C121.667 88.0796 122.413 87.3335 123.334 87.3335H128.333C128.525 87.3373 128.716 87.3746 128.895 87.4448C128.336 90.6438 127.611 93.8116 126.723 96.935ZM124.19 112.377C124.377 112.09 124.534 111.845 124.663 111.672C125.236 110.836 125.718 109.942 126.103 109.005H128.333C129.254 109.005 130 109.751 130 110.672V115.358H129.688C127.065 115.378 124.638 115.467 122.232 115.632L121.69 115.667C122.62 114.647 123.457 113.547 124.19 112.377ZM117.593 126.333L113.637 120C113.995 119.945 114.342 119.875 114.68 119.797C116.137 119.584 117.631 119.407 119.156 119.255L117.593 126.333ZM127.855 118.722L127.303 124.233L124.891 118.82C125.855 118.776 126.848 118.745 127.855 118.723V118.722ZM107.921 121L107.21 127.383L103.856 122.018C105.153 121.658 106.508 121.319 107.921 121ZM97.8232 124.027L97.1915 130.304L94.422 125.457C95.5252 124.957 96.6551 124.48 97.8232 124.032V124.027ZM86.6667 129.864C87.583 129.211 88.5603 128.578 89.5987 127.963C89.3164 130.848 88.9487 134.705 88.6816 137.698C87.9164 138.167 87.245 138.601 86.6667 138.997V129.864ZM92.8114 129.363L95.5 134.08C94.3617 134.604 93.2631 135.147 92.2034 135.702C92.4048 133.6 92.6215 131.334 92.8114 129.361V129.363ZM101.175 124.03L105.175 130.436C103.528 130.95 101.922 131.505 100.357 132.103L101.175 124.03ZM120.885 126.903L122.197 120.968L124.628 126.428C123.365 126.555 122.12 126.712 120.885 126.893V126.903ZM134 118.754C135.092 118.79 135.985 118.837 136.667 118.88V124.624L134 118.754ZM135.62 76.1037L136.425 78.5535C136.586 79.0472 136.667 79.5637 136.667 80.0832V115.539C135.817 115.487 134.688 115.433 133.333 115.4V110.666C133.333 107.905 131.095 105.667 128.333 105.667H127.424C128.797 101.87 129.923 97.8681 129.94 97.8101C130.971 94.1846 131.783 90.4996 132.371 86.7765C132.371 86.7567 132.371 86.7384 132.382 86.72C132.733 84.4282 132.986 82.2103 133.273 79.6285L133.304 79.3569L134.38 76.1114C134.488 75.868 134.729 75.7101 134.996 75.7078C135.262 75.7063 135.506 75.8611 135.617 76.1037H135.62ZM116.05 76.1037C116.157 75.8573 116.401 75.6979 116.67 75.6979C116.939 75.6979 117.182 75.8573 117.29 76.1037L118.408 79.4752C118.618 80.1801 119.265 80.6638 120 80.6669H129.803C129.667 81.8754 129.532 83.0183 129.387 84.1184C129.041 84.0414 128.688 84.0017 128.333 84.0002H123.334C120.572 84.0002 118.333 86.2386 118.333 88.9997V97.3333C118.333 100.095 120.572 102.334 123.334 102.334H125.055C124.555 103.81 124.013 105.333 123.485 106.653C123.473 106.679 123.465 106.701 123.456 106.725C123.08 107.756 122.592 108.742 122 109.667C121.834 109.894 121.631 110.196 121.396 110.56C119.972 113.12 117.715 115.117 115 116.218V79.5332C114.998 79.3554 115.026 79.1792 115.08 79.0098L116.05 76.1037ZM111.667 105.822V116.822C108.853 116.82 106.073 116.206 103.52 115.022C107.218 112.99 110.097 109.739 111.667 105.822ZM96.073 114.593C92.9617 115.127 89.8199 115.47 86.6667 115.622V101.645C88.7617 106.629 91.9813 111.06 96.073 114.593ZM70.0003 129H60.2949C63.3864 127.262 66.6357 125.822 70.0003 124.7V129ZM56.6664 132.333H70.0003V140.667H56.6664V132.333ZM56.6664 127.31V122.333C56.6664 121.413 57.4126 120.667 58.3334 120.667H68.3333C68.8399 120.672 69.3152 120.913 69.6204 121.317C65.0618 122.748 60.7085 124.762 56.6664 127.31ZM83.3334 140.667H73.3336V122.333C73.3336 119.572 71.0951 117.333 68.3333 117.333H58.3334C55.5716 117.333 53.3331 119.572 53.3331 122.333V140.667H43.3333V52.1833C43.3379 51.5844 43.4966 50.9977 43.7949 50.4781L46.5453 48.0268C47.5699 47.1319 49.0988 47.1319 50.1234 48.0268L52.7983 50.4133C53.9702 53.5291 56.9281 55.6127 60.2568 55.6669H66.8082C70.0301 55.6699 72.9315 53.7176 74.1415 50.7314C74.1911 50.6094 74.2468 50.4896 74.3086 50.3736L76.8584 47.8216C77.1742 47.5057 77.6038 47.3303 78.0501 47.3333H78.6169C79.061 47.3325 79.4867 47.5088 79.8003 47.8231L82.3599 50.3835C82.9855 51.0053 83.3357 51.8514 83.3334 52.7334V140.667ZM115 140.667V131.303C115.87 131.12 116.738 130.923 117.61 130.765L118.333 130.65V140.667H115ZM133.333 140.667V129.114C134.247 129.08 135.167 129.046 136.083 129.033H136.167H136.667V140.667H133.333Z" fill="black"/>
</g>
<path d="M71.9043 194.549V196.324H67.2988V199.031H73.5039V200.824H58.8613V199.031H65.0312V196.324H60.584V187.729H71.7812V189.521H62.8691V191.121H71.4121V192.879H62.8691V194.549H71.9043ZM87.1621 187.254V192.879H82.8203V194.408H89.0078V196.219H74.418V194.408H80.5703V192.879H76.2285V187.254H87.1621ZM78.4258 188.994V191.121H84.9648V188.994H78.4258ZM87.2324 197.396V202.617H85V199.154H76.0352V197.396H87.2324ZM97.1816 196.588C100.68 196.588 102.877 197.695 102.895 199.611C102.877 201.492 100.68 202.617 97.1816 202.617C93.7188 202.617 91.4863 201.492 91.4863 199.611C91.4863 197.695 93.7188 196.588 97.1816 196.588ZM97.1816 198.258C94.9844 198.258 93.7188 198.715 93.7188 199.611C93.7188 200.473 94.9844 200.912 97.1816 200.912C99.3789 200.912 100.662 200.473 100.662 199.611C100.662 198.715 99.3789 198.258 97.1816 198.258ZM102.807 187.342V188.643C102.807 189.908 102.807 191.279 102.35 192.932L100.152 192.721C100.504 191.271 100.548 190.189 100.574 189.1H91.6445V187.342H102.807ZM104.529 193.758V195.568H90.0098V193.758H95.459V190.963H97.6738V193.758H104.529ZM115.023 188.045V189.82H105.531V188.045H109.17V186.533H111.402V188.045H115.023ZM110.277 190.33C112.598 190.33 114.215 191.525 114.215 193.283C114.215 195.041 112.598 196.236 110.277 196.236C107.957 196.236 106.305 195.041 106.305 193.283C106.305 191.525 107.957 190.33 110.277 190.33ZM110.277 192.018C109.205 192.018 108.484 192.457 108.502 193.283C108.484 194.092 109.205 194.514 110.277 194.514C111.35 194.514 112.088 194.092 112.088 193.283C112.088 192.457 111.35 192.018 110.277 192.018ZM118.223 186.621V190.77H120.385V192.598H118.223V196.658H115.973V186.621H118.223ZM118.223 197.326V202.617H115.973V199.119H107.447V197.326H118.223Z" fill="black"/>
<defs>
<clipPath id="clip0_319_2378">
<rect width="100" height="100" fill="white" transform="translate(40 44)"/>
</clipPath>
</defs>
</svg>
