<svg width="180" height="250" viewBox="0 0 180 250" fill="none" xmlns="http://www.w3.org/2000/svg">
<rect width="180" height="250" rx="20" fill="white"/>
<path d="M50.415 192.686V194.514H48.1475V202.582H45.8975V186.621H48.1475V192.686H50.415ZM38.2686 188.15V196.816C40.3164 196.79 42.5137 196.597 44.8252 196.131L45.0537 197.994C42.3818 198.539 39.7803 198.68 37.4248 198.68H36.0361V188.15H38.2686ZM64.126 193.512V195.322H59.5205V198.996H65.7256V200.789H51.083V198.996H57.2529V195.322H52.7178V187.852H55.0205V193.512H64.126ZM80.0342 186.639V198.311H77.7842V186.639H80.0342ZM80.4561 200.543V202.336H69.3115V197.186H71.5791V200.543H80.4561ZM72.7744 189.064C72.7568 191.174 73.8818 193.248 76.5186 194.092L75.376 195.85C73.5742 195.252 72.3262 194.057 71.6143 192.527C70.9023 194.171 69.6191 195.489 67.7471 196.131L66.5869 194.355C69.2764 193.459 70.4365 191.227 70.4365 189.064V187.518H72.7744V189.064ZM96.8389 198.908V200.701H82.1963V198.908H88.3135V195.287H90.5459V198.908H96.8389ZM90.6162 188.678C90.6162 190.963 92.6729 193.371 96.3291 193.934L95.3799 195.797C92.5674 195.287 90.4756 193.784 89.4209 191.789C88.3662 193.775 86.292 195.296 83.4971 195.797L82.5479 193.934C86.1689 193.371 88.208 190.945 88.2256 188.678V187.535H90.6162V188.678ZM111.71 186.621V202.617H109.565V194.602H108.212V201.879H106.085V197.291L104.819 198.979C103.334 198.196 102.376 196.869 101.813 195.217C101.277 197.115 100.328 198.653 98.8076 199.559L97.4189 197.836C99.8447 196.465 100.671 193.635 100.671 190.576V190.066H97.9639V188.273H105.294V190.066H102.851V190.576C102.851 193.362 103.677 196.017 106.085 197.256V186.85H108.212V192.773H109.565V186.621H111.71ZM120.517 196.588C124.015 196.588 126.212 197.695 126.229 199.611C126.212 201.492 124.015 202.617 120.517 202.617C117.054 202.617 114.821 201.492 114.821 199.611C114.821 197.695 117.054 196.588 120.517 196.588ZM120.517 198.258C118.319 198.258 117.054 198.715 117.054 199.611C117.054 200.473 118.319 200.912 120.517 200.912C122.714 200.912 123.997 200.473 123.997 199.611C123.997 198.715 122.714 198.258 120.517 198.258ZM126.142 187.342V188.643C126.142 189.908 126.142 191.279 125.685 192.932L123.487 192.721C123.839 191.271 123.883 190.189 123.909 189.1H114.979V187.342H126.142ZM127.864 193.758V195.568H113.345V193.758H118.794V190.963H121.009V193.758H127.864ZM138.358 188.045V189.82H128.866V188.045H132.505V186.533H134.737V188.045H138.358ZM133.612 190.33C135.933 190.33 137.55 191.525 137.55 193.283C137.55 195.041 135.933 196.236 133.612 196.236C131.292 196.236 129.64 195.041 129.64 193.283C129.64 191.525 131.292 190.33 133.612 190.33ZM133.612 192.018C132.54 192.018 131.819 192.457 131.837 193.283C131.819 194.092 132.54 194.514 133.612 194.514C134.685 194.514 135.423 194.092 135.423 193.283C135.423 192.457 134.685 192.018 133.612 192.018ZM141.558 186.621V190.77H143.72V192.598H141.558V196.658H139.308V186.621H141.558ZM141.558 197.326V202.617H139.308V199.119H130.782V197.326H141.558Z" fill="black"/>
<path d="M84.3125 86.1875V87.75L81.1875 90.875H79.625L71.8125 83.0625L76.5 78.375L84.3125 86.1875Z" fill="#8796C4"/>
<path d="M68.6875 81.5V92.4375L70.25 94H73.375L74.9375 92.4375V81.5H68.6875Z" fill="#8796C4"/>
<path d="M62.4375 87.75L64 89.3125H68.6875L78.0625 79.9375V75.25L76.5 73.6875L62.4375 87.75Z" fill="#A7B3D9"/>
<path d="M51.5 70.5625H67.125L68.4189 71.873L57.7756 83.0881L51.5 76.8125V70.5625Z" fill="#56679C"/>
<path d="M47.0684 92.291L67.1254 70.5625L76.5004 73.6875L47.0684 105.384V92.291Z" fill="#6D7EB3"/>
<path d="M43.6875 97.125H53.0625V129.938H43.6875V97.125Z" fill="#6D7EB3"/>
<path d="M49.9375 103.375C53.3893 103.375 56.1875 100.577 56.1875 97.125C56.1875 93.6732 53.3893 90.875 49.9375 90.875C46.4857 90.875 43.6875 93.6732 43.6875 97.125C43.6875 100.577 46.4857 103.375 49.9375 103.375Z" fill="#A7B3D9"/>
<path d="M43.6875 129.938H93.6875V137.75H43.6875V129.938Z" fill="#6D7EB3"/>
<path d="M53.0625 115.875H81.1875V120.562L56.1875 129.938H53.0625V115.875Z" fill="#56679C"/>
<path d="M60.875 109.625H90.5625V115.875H60.875V109.625Z" fill="#A7B3D9"/>
<path d="M43.6875 70.5625H51.5V76.8125H43.6875V70.5625Z" fill="#8796C4"/>
<path d="M123.375 106.5L134.312 100.25V94L117.125 85.0715L112.438 87.75V100.25L123.375 106.5Z" fill="#5771E5"/>
<path d="M90.5625 87.75V100.25L101.5 106.5L112.438 100.25V87.75L101.5 81.5L90.5625 87.75Z" fill="#5771E5"/>
<path d="M112.438 125.25L123.375 119V106.5L112.438 100.25L101.5 106.5V119L112.438 125.25Z" fill="#5771E5"/>
<path d="M115.562 69C117.288 69 118.688 67.6009 118.688 65.875C118.688 64.1491 117.288 62.75 115.562 62.75C113.837 62.75 112.438 64.1491 112.438 65.875C112.438 67.6009 113.837 69 115.562 69Z" fill="#F7C04A"/>
<path d="M131.188 64.3125C132.913 64.3125 134.312 62.9134 134.312 61.1875C134.312 59.4616 132.913 58.0625 131.188 58.0625C129.462 58.0625 128.062 59.4616 128.062 61.1875C128.062 62.9134 129.462 64.3125 131.188 64.3125Z" fill="#F7C04A"/>
<path d="M131.188 83.0625C132.913 83.0625 134.312 81.6634 134.312 79.9375C134.312 78.2116 132.913 76.8125 131.188 76.8125C129.462 76.8125 128.062 78.2116 128.062 79.9375C128.062 81.6634 129.462 83.0625 131.188 83.0625Z" fill="#F7C04A"/>
<path d="M123.375 56.5C125.101 56.5 126.5 55.1009 126.5 53.375C126.5 51.6491 125.101 50.25 123.375 50.25C121.649 50.25 120.25 51.6491 120.25 53.375C120.25 55.1009 121.649 56.5 123.375 56.5Z" fill="#F7C04A"/>
<path d="M49.9375 98.6875C50.8004 98.6875 51.5 97.9879 51.5 97.125C51.5 96.2621 50.8004 95.5625 49.9375 95.5625C49.0746 95.5625 48.375 96.2621 48.375 97.125C48.375 97.9879 49.0746 98.6875 49.9375 98.6875Z" fill="black"/>
<path d="M93.6875 128.375H64.804L81.7361 122.025C82.034 121.914 82.2906 121.714 82.4718 121.452C82.6529 121.191 82.75 120.881 82.75 120.562V117.438H90.5625C90.9769 117.437 91.3743 117.273 91.6674 116.98C91.9604 116.687 92.125 116.289 92.125 115.875V109.625C92.125 109.211 91.9604 108.813 91.6674 108.52C91.3743 108.227 90.9769 108.063 90.5625 108.062H60.875C60.4606 108.063 60.0632 108.227 59.7702 108.52C59.4771 108.813 59.3125 109.211 59.3125 109.625V114.312H54.625V103.371C55.7176 102.554 56.5766 101.465 57.1158 100.213C57.6551 98.9597 57.8557 97.5872 57.6975 96.2325L63.0049 90.5168C63.2849 90.7483 63.6368 90.8749 64 90.875H67.125V92.4375C67.125 92.8519 67.2896 93.2494 67.5827 93.5424L69.1452 95.1049C69.4382 95.3979 69.8356 95.5625 70.25 95.5625H73.375C73.7894 95.5625 74.1868 95.3979 74.4798 95.1049L76.0423 93.5424C76.3354 93.2494 76.5 92.8519 76.5 92.4375V89.9598L78.5202 91.9799C78.8132 92.2729 79.2106 92.4375 79.625 92.4375H81.1875C81.6019 92.4375 81.9993 92.2729 82.2923 91.9799L85.4173 88.8549C85.7104 88.5619 85.875 88.1644 85.875 87.75V86.1875C85.875 85.7731 85.7104 85.3756 85.4173 85.0826L79.625 79.2902V75.25C79.625 74.8356 79.4604 74.4381 79.1673 74.1451L77.6048 72.5826L77.6031 72.5843C77.4323 72.4123 77.2238 72.2824 76.9941 72.2051L67.6191 69.0801C67.4596 69.0279 67.2928 69.0018 67.125 69.0029V69H43.6875C43.2731 69 42.8757 69.1646 42.5827 69.4577C42.2896 69.7507 42.125 70.1481 42.125 70.5625V76.8125C42.125 77.2269 42.2896 77.6243 42.5827 77.9173C42.8757 78.2104 43.2731 78.375 43.6875 78.375H50.8528L54.4586 81.9809L47.2518 89.7882C45.7496 90.3402 44.4528 91.3395 43.536 92.6513C42.6193 93.9632 42.1269 95.5246 42.125 97.125V137.75C42.125 138.164 42.2896 138.562 42.5827 138.855C42.8757 139.148 43.2731 139.312 43.6875 139.312H93.6875C94.1019 139.312 94.4993 139.148 94.7924 138.855C95.0854 138.562 95.25 138.164 95.25 137.75V129.938C95.25 129.523 95.0854 129.126 94.7924 128.833C94.4993 128.54 94.1019 128.375 93.6875 128.375ZM62.4375 111.188H89V114.312H62.4375V111.188ZM79.625 117.438V119.48L55.9044 128.375H54.625V117.438H79.625ZM51.5 128.375H45.25V103.371C46.1328 104.034 47.1463 104.503 48.2237 104.746C49.3011 104.989 50.4178 105.001 51.5 104.78V128.375ZM68.0403 87.75H65.5742L76.5 75.9837V79.2903L68.0403 87.75ZM73.375 91.7903L72.7278 92.4375H70.8972L70.25 91.7903V89.9598L73.375 86.8348V91.7903ZM82.75 87.1028L80.5403 89.3125H80.2722L75.5847 84.625L78.0625 82.1473L82.75 86.8347V87.1028ZM67.5885 72.364L73.7038 74.4024L56.5135 92.9152C55.4215 91.2125 53.7133 89.9982 51.7464 89.5262L67.5885 72.364ZM45.25 72.125H49.9375V75.25H45.25V72.125ZM53.0625 76.1652V72.125H63.5564L56.58 79.6827L53.0625 76.1652ZM49.9375 92.4375C50.8646 92.4375 51.7709 92.7124 52.5417 93.2275C53.3126 93.7426 53.9134 94.4746 54.2682 95.3312C54.623 96.1877 54.7158 97.1302 54.5349 98.0395C54.3541 98.9488 53.9076 99.784 53.2521 100.44C52.5965 101.095 51.7613 101.542 50.852 101.722C49.9427 101.903 49.0002 101.81 48.1437 101.456C47.2871 101.101 46.5551 100.5 46.04 99.7292C45.5249 98.9584 45.25 98.0521 45.25 97.125C45.2514 95.8822 45.7457 94.6908 46.6245 93.812C47.5033 92.9332 48.6947 92.4389 49.9375 92.4375ZM92.125 136.188H45.25V131.5H92.125V136.188Z" fill="black"/>
<path d="M124.938 76.1347L131.991 71.9024C132.223 71.7635 132.414 71.5671 132.547 71.3323C132.68 71.0975 132.75 70.8323 132.75 70.5625V65.6062C133.793 65.2376 134.671 64.5123 135.231 63.5586C135.79 62.6048 135.994 61.4839 135.807 60.3941C135.621 59.3043 135.054 58.3156 134.209 57.6029C133.363 56.8902 132.293 56.4993 131.188 56.4993C130.082 56.4993 129.012 56.8902 128.166 57.6029C127.321 58.3156 126.754 59.3043 126.568 60.3941C126.381 61.4839 126.585 62.6048 127.144 63.5586C127.704 64.5123 128.582 65.2376 129.625 65.6062V69.6779L124.938 72.4902V57.7937C125.98 57.4251 126.859 56.6998 127.418 55.7461C127.978 54.7923 128.182 53.6714 127.995 52.5816C127.808 51.4918 127.242 50.5031 126.396 49.7904C125.551 49.0777 124.481 48.6868 123.375 48.6868C122.269 48.6868 121.199 49.0777 120.354 49.7904C119.508 50.5031 118.942 51.4918 118.755 52.5816C118.568 53.6714 118.772 54.7923 119.332 55.7461C119.891 56.6998 120.77 57.4251 121.812 57.7937V78.7402L117.125 75.9278V70.2937C118.168 69.9251 119.046 69.1998 119.606 68.2461C120.165 67.2923 120.369 66.1714 120.182 65.0816C119.996 63.9918 119.429 63.0031 118.584 62.2904C117.738 61.5777 116.668 61.1868 115.562 61.1868C114.457 61.1868 113.387 61.5777 112.541 62.2904C111.696 63.0031 111.129 63.9918 110.943 65.0816C110.756 66.1714 110.96 67.2923 111.519 68.2461C112.079 69.1998 112.957 69.9251 114 70.2937V76.8125C114 77.0823 114.07 77.3475 114.203 77.5823C114.336 77.8171 114.527 78.0135 114.759 78.1524L121.812 82.3846V85.7457L117.845 83.6848C117.613 83.5644 117.355 83.5041 117.094 83.5093C116.832 83.5146 116.577 83.5852 116.35 83.7148L112.438 85.9503L102.275 80.1433C102.039 80.0085 101.772 79.9376 101.5 79.9376C101.228 79.9376 100.961 80.0085 100.725 80.1433L96.0373 82.8218L97.5877 85.5352L101.5 83.2996L110.875 88.6567V99.3431L101.5 104.7L92.125 99.3432V88.6567L94.4627 87.321L92.9123 84.6076L89.7873 86.3933C89.5481 86.53 89.3493 86.7274 89.2111 86.9657C89.0728 87.2039 89 87.4745 89 87.75V100.25C89 100.525 89.0728 100.796 89.2111 101.034C89.3493 101.273 89.5481 101.47 89.7873 101.607L99.9375 107.407V119C99.9375 119.275 100.01 119.546 100.149 119.784C100.287 120.023 100.486 120.22 100.725 120.357L111.662 126.607C111.898 126.742 112.166 126.812 112.438 126.812C112.709 126.812 112.977 126.742 113.213 126.607L124.15 120.357C124.389 120.22 124.588 120.023 124.726 119.784C124.865 119.546 124.938 119.275 124.938 119V107.407L135.088 101.607C135.327 101.47 135.526 101.273 135.664 101.034C135.802 100.796 135.875 100.525 135.875 100.25V94C135.875 93.7139 135.796 93.4333 135.648 93.1888C135.499 92.9443 135.287 92.7452 135.033 92.6133L132.75 91.4274V84.3562C133.793 83.9876 134.671 83.2623 135.231 82.3086C135.79 81.3548 135.994 80.2339 135.807 79.1441C135.621 78.0543 135.054 77.0656 134.209 76.3529C133.363 75.6402 132.293 75.2493 131.188 75.2493C130.082 75.2493 129.012 75.6402 128.166 76.3529C127.321 77.0656 126.754 78.0543 126.568 79.1441C126.381 80.2339 126.585 81.3548 127.144 82.3086C127.704 83.2623 128.582 83.9876 129.625 84.3562V89.8041L124.938 87.3691V76.1347ZM131.188 59.625C131.497 59.625 131.799 59.7166 132.056 59.8883C132.313 60.06 132.513 60.304 132.631 60.5895C132.749 60.875 132.78 61.1892 132.72 61.4923C132.66 61.7954 132.511 62.0738 132.292 62.2923C132.074 62.5109 131.795 62.6597 131.492 62.72C131.189 62.7802 130.875 62.7493 130.59 62.631C130.304 62.5128 130.06 62.3125 129.888 62.0556C129.717 61.7986 129.625 61.4965 129.625 61.1875C129.625 60.7732 129.79 60.3761 130.083 60.0831C130.376 59.7902 130.773 59.6255 131.188 59.625ZM115.562 64.3125C115.872 64.3125 116.174 64.4041 116.431 64.5758C116.688 64.7475 116.888 64.9915 117.006 65.277C117.124 65.5625 117.155 65.8767 117.095 66.1798C117.035 66.4829 116.886 66.7613 116.667 66.9798C116.449 67.1984 116.17 67.3472 115.867 67.4075C115.564 67.4677 115.25 67.4368 114.965 67.3185C114.679 67.2003 114.435 67 114.263 66.7431C114.092 66.4861 114 66.184 114 65.875C114 65.4607 114.165 65.0636 114.458 64.7706C114.751 64.4777 115.148 64.313 115.562 64.3125ZM131.188 78.375C131.497 78.375 131.799 78.4666 132.056 78.6383C132.313 78.81 132.513 79.054 132.631 79.3395C132.749 79.625 132.78 79.9392 132.72 80.2423C132.66 80.5454 132.511 80.8238 132.292 81.0423C132.074 81.2609 131.795 81.4097 131.492 81.47C131.189 81.5302 130.875 81.4993 130.59 81.381C130.304 81.2628 130.06 81.0625 129.888 80.8056C129.717 80.5486 129.625 80.2465 129.625 79.9375C129.625 79.5232 129.79 79.1261 130.083 78.8331C130.376 78.5402 130.773 78.3755 131.188 78.375ZM112.438 123.45L103.062 118.093V107.407L112.438 102.05L121.812 107.407V118.093L112.438 123.45ZM132.75 99.3432L123.375 104.7L114 99.3431V88.6567L117.161 86.8507L132.75 94.9491V99.3432ZM123.375 51.8125C123.684 51.8125 123.986 51.9041 124.243 52.0758C124.5 52.2475 124.7 52.4915 124.819 52.777C124.937 53.0625 124.968 53.3767 124.907 53.6798C124.847 53.9829 124.698 54.2613 124.48 54.4798C124.261 54.6984 123.983 54.8472 123.68 54.9075C123.377 54.9677 123.063 54.9368 122.777 54.8185C122.492 54.7003 122.248 54.5 122.076 54.2431C121.904 53.9861 121.812 53.684 121.812 53.375C121.813 52.9607 121.978 52.5636 122.271 52.2706C122.564 51.9777 122.961 51.813 123.375 51.8125Z" fill="black"/>
</svg>
