<svg width="180" height="250" viewBox="0 0 180 250" fill="none" xmlns="http://www.w3.org/2000/svg">
<rect width="180" height="250" rx="20" fill="white"/>
<path d="M72.3438 186.639V198.311H70.1113V192.58H67.4922V190.77H70.1113V186.639H72.3438ZM58.7734 194.707C61.4189 193.881 62.6143 191.798 62.623 189.75V189.504H59.4062V187.711H68.0898V189.504H64.9082V189.768C64.8994 191.622 66.042 193.6 68.582 194.426L67.4746 196.201C65.708 195.621 64.4863 194.461 63.792 193.028C63.0801 194.619 61.8057 195.911 59.916 196.535L58.7734 194.707ZM61.7266 202.336V197.291H63.9766V200.543H72.7305V202.336H61.7266ZM87.8652 186.621V202.617H85.5977V186.621H87.8652ZM74.4707 198.082C78.6016 196.131 80.4209 193.6 80.7812 190.049H75.332V188.291H83.0664C83.0576 193.143 81.3613 197.177 75.6484 199.875L74.4707 198.082ZM97.1816 196.588C100.68 196.588 102.877 197.695 102.895 199.611C102.877 201.501 100.68 202.626 97.1816 202.617C93.71 202.626 91.4775 201.501 91.4863 199.611C91.4775 197.695 93.71 196.588 97.1816 196.588ZM90.0098 195.568V193.758H95.459V190.963H97.6738V193.758H104.529V195.568H90.0098ZM91.6445 189.1V187.342H102.807V188.643C102.815 189.917 102.815 191.288 102.35 192.932L100.152 192.721C100.513 191.271 100.557 190.189 100.574 189.1H91.6445ZM93.7188 199.611C93.71 200.473 94.9756 200.912 97.1816 200.912C99.3877 200.912 100.662 200.473 100.662 199.611C100.662 198.724 99.3877 198.249 97.1816 198.258C94.9756 198.249 93.71 198.724 93.7188 199.611ZM115.023 188.045V189.82H105.531V188.045H109.17V186.533H111.402V188.045H115.023ZM106.305 193.283C106.305 191.525 107.957 190.339 110.277 190.33C112.606 190.339 114.215 191.525 114.215 193.283C114.215 195.041 112.606 196.228 110.277 196.236C107.957 196.228 106.305 195.041 106.305 193.283ZM107.447 199.119V197.326H118.223V202.617H115.973V199.119H107.447ZM108.502 193.283C108.493 194.101 109.205 194.522 110.277 194.514C111.358 194.522 112.088 194.101 112.088 193.283C112.088 192.457 111.358 192.018 110.277 192.018C109.205 192.018 108.493 192.457 108.502 193.283ZM115.973 196.658V186.621H118.223V190.77H120.385V192.598H118.223V196.658H115.973Z" fill="black"/>
<path d="M90 139.312C115.025 139.312 135.312 119.025 135.312 94C135.312 68.9746 115.025 48.6875 90 48.6875C64.9746 48.6875 44.6875 68.9746 44.6875 94C44.6875 119.025 64.9746 139.312 90 139.312Z" fill="#57A4FF"/>
<path d="M135.312 94C135.314 103.34 132.429 112.452 127.052 120.09C121.675 127.727 114.07 133.517 105.277 136.665C96.4832 139.814 86.9316 140.169 77.929 137.681C68.9263 135.193 60.9126 129.983 54.9844 122.766C63.6783 129.92 74.7242 133.581 85.9701 133.036C97.216 132.491 107.856 127.779 115.817 119.817C123.779 111.856 128.491 101.216 129.036 89.9701C129.581 78.7242 125.92 67.6783 118.766 58.9844C123.946 63.2304 128.117 68.5746 130.979 74.6303C133.841 80.6861 135.321 87.3021 135.312 94Z" fill="#2488FF"/>
<path d="M126.453 66.375C126.344 66.4687 126.25 66.5781 126.141 66.6562C124.951 67.7 123.409 68.2519 121.827 68.1996C120.246 68.1474 118.743 67.495 117.625 66.375L113.203 61.9531L122.047 53.125L126.453 57.5469C127.036 58.1247 127.499 58.8123 127.814 59.5699C128.13 60.3275 128.293 61.1402 128.293 61.9609C128.293 62.7817 128.13 63.5943 127.814 64.352C127.499 65.1096 127.036 65.7971 126.453 66.375Z" fill="#FFDAAA"/>
<path d="M108.75 87.75L90 125.25V100.25H71.25L90 62.75V87.75H108.75Z" fill="#FFDE55"/>
<path d="M66.7966 126.047L57.9528 134.875L53.5466 130.453C52.9637 129.875 52.5011 129.188 52.1853 128.43C51.8696 127.672 51.707 126.86 51.707 126.039C51.707 125.218 51.8696 124.406 52.1853 123.648C52.5011 122.89 52.9637 122.203 53.5466 121.625C53.656 121.531 53.7497 121.422 53.8591 121.344C55.0486 120.3 56.5908 119.748 58.1725 119.8C59.7542 119.853 61.2567 120.505 62.3747 121.625L66.7966 126.047Z" fill="#FFDAAA"/>
<path d="M110.079 86.9219C109.939 86.6967 109.743 86.5111 109.51 86.3826C109.278 86.2541 109.017 86.187 108.751 86.1875H91.5636V62.75C91.5616 62.4001 91.4421 62.0611 91.2244 61.7872C91.0068 61.5132 90.7034 61.3203 90.3631 61.2393C90.0227 61.1582 89.665 61.1938 89.3472 61.3402C89.0294 61.4866 88.77 61.7355 88.6105 62.0469L69.8605 99.5469C69.7406 99.7848 69.6836 100.049 69.6947 100.315C69.7059 100.582 69.7849 100.84 69.9242 101.067C70.0635 101.294 70.2586 101.482 70.4908 101.612C70.7231 101.743 70.9848 101.812 71.2511 101.813H88.4386V125.25C88.4398 125.601 88.5591 125.942 88.7773 126.216C88.9956 126.491 89.3001 126.685 89.6418 126.766C89.7591 126.797 89.8798 126.812 90.0011 126.813C90.2897 126.812 90.5723 126.731 90.8178 126.579C91.0633 126.428 91.2619 126.211 91.3918 125.953L110.142 88.4531C110.263 88.2137 110.32 87.9474 110.31 87.6794C110.299 87.4114 110.219 87.1506 110.079 86.9219ZM91.5636 118.625V100.25C91.5636 99.8356 91.399 99.4382 91.106 99.1452C90.813 98.8521 90.4155 98.6875 90.0011 98.6875H73.7824L88.4386 69.375V87.75C88.4386 88.1644 88.6032 88.5618 88.8963 88.8549C89.1893 89.1479 89.5867 89.3125 90.0011 89.3125H106.22L91.5636 118.625Z" fill="black"/>
<path d="M128.141 66.7812C129.328 65.2857 129.926 63.4062 129.819 61.4994C129.712 59.5926 128.909 57.7914 127.562 56.4375L123.141 52.0156C122.843 51.7334 122.449 51.576 122.039 51.576C121.629 51.576 121.235 51.7334 120.937 52.0156L119.828 53.125L115.406 48.7031L113.203 50.9063L117.625 55.3281L115.406 57.5469L110.984 53.125L108.781 55.3281L113.203 59.75L112.094 60.8594C111.803 61.1521 111.639 61.5481 111.639 61.9609C111.639 62.3737 111.803 62.7697 112.094 63.0625L116.516 67.4844C117.699 68.6779 119.24 69.452 120.905 69.6889C122.569 69.9258 124.265 69.6126 125.734 68.7969C130.972 76.1548 133.775 84.9681 133.75 94C133.744 101.179 131.972 108.247 128.591 114.58C125.211 120.914 120.325 126.319 114.364 130.32C108.402 134.321 101.549 136.795 94.4068 137.524C87.2646 138.253 80.0527 137.214 73.4062 134.5L72.2188 137.391C79.3399 140.3 87.0671 141.413 94.7199 140.633C102.373 139.853 109.716 137.202 116.104 132.916C122.491 128.629 127.726 122.838 131.349 116.052C134.971 109.265 136.869 101.692 136.875 94C136.903 84.2335 133.847 74.7076 128.141 66.7812ZM125.359 65.2812C124.474 66.1525 123.281 66.6407 122.039 66.6407C120.797 66.6407 119.604 66.1525 118.719 65.2812L115.406 61.9531L122.047 55.3281L125.359 58.6406C126.237 59.5226 126.73 60.7164 126.73 61.9609C126.73 63.2054 126.237 64.3993 125.359 65.2812Z" fill="black"/>
<path d="M90.0002 47.125C77.5729 47.1403 65.6589 52.0839 56.8715 60.8713C48.084 69.6588 43.1405 81.5727 43.1252 94C43.0968 103.767 46.1536 113.292 51.8596 121.219C50.6719 122.714 50.0747 124.594 50.1812 126.501C50.2878 128.407 51.0908 130.209 52.4377 131.563L56.8596 135.984C57.002 136.13 57.1723 136.245 57.3602 136.323C57.5482 136.4 57.7499 136.44 57.9533 136.438C58.1591 136.44 58.3632 136.401 58.5537 136.323C58.7442 136.245 58.9172 136.13 59.0627 135.984L60.1721 134.875L64.5939 139.297L66.7971 137.094L62.3752 132.672L64.5939 130.453L69.0158 134.875L71.2189 132.672L66.7971 128.25L67.9064 127.141C68.1975 126.848 68.3608 126.452 68.3608 126.039C68.3608 125.626 68.1975 125.23 67.9064 124.938L63.4846 120.516C62.294 119.334 60.7537 118.567 59.0928 118.331C57.4319 118.094 55.739 118.4 54.2658 119.203C49.0277 111.845 46.2247 103.032 46.2502 94C46.263 82.4008 50.8765 71.2802 59.0784 63.0783C67.2804 54.8763 78.4009 50.2629 90.0002 50.25C95.6922 50.2382 101.331 51.3478 106.594 53.5157L107.781 50.6094C102.138 48.2999 96.0978 47.1162 90.0002 47.125ZM54.6408 122.719C55.5264 121.848 56.7189 121.359 57.9611 121.359C59.2034 121.359 60.3959 121.848 61.2814 122.719L64.5939 126.047L57.9533 132.672L54.6408 129.359C53.7628 128.477 53.2699 127.284 53.2699 126.039C53.2699 124.795 53.7628 123.601 54.6408 122.719Z" fill="black"/>
</svg>
