<svg width="180" height="250" viewBox="0 0 180 250" fill="none" xmlns="http://www.w3.org/2000/svg">
<rect width="180" height="250" rx="20" fill="white"/>
<path d="M73.3438 186.639V198.311H71.1113V192.58H68.4922V190.77H71.1113V186.639H73.3438ZM59.7734 194.707C62.4189 193.881 63.6143 191.798 63.623 189.75V189.504H60.4062V187.711H69.0898V189.504H65.9082V189.768C65.8994 191.622 67.042 193.6 69.582 194.426L68.4746 196.201C66.708 195.621 65.4863 194.461 64.792 193.028C64.0801 194.619 62.8057 195.911 60.916 196.535L59.7734 194.707ZM62.7266 202.336V197.291H64.9766V200.543H73.7305V202.336H62.7266ZM81.3242 190.98C81.3154 193.415 82.6162 196.228 85.2441 197.449L83.9961 199.207C82.2119 198.39 80.9463 196.755 80.2256 194.839C79.5137 196.948 78.1953 198.741 76.3496 199.611L75.0488 197.836C77.7119 196.597 79.0566 193.626 79.0742 190.98V189.996H75.6816V188.168H84.541V189.996H81.3242V190.98ZM85.7891 202.617V186.621H88.0391V192.721H90.3945V194.602H88.0391V202.617H85.7891ZM98.1816 196.588C101.68 196.588 103.877 197.695 103.895 199.611C103.877 201.501 101.68 202.626 98.1816 202.617C94.71 202.626 92.4775 201.501 92.4863 199.611C92.4775 197.695 94.71 196.588 98.1816 196.588ZM91.0098 195.568V193.758H96.459V190.963H98.6738V193.758H105.529V195.568H91.0098ZM92.6445 189.1V187.342H103.807V188.643C103.815 189.917 103.815 191.288 103.35 192.932L101.152 192.721C101.513 191.271 101.557 190.189 101.574 189.1H92.6445ZM94.7188 199.611C94.71 200.473 95.9756 200.912 98.1816 200.912C100.388 200.912 101.662 200.473 101.662 199.611C101.662 198.724 100.388 198.249 98.1816 198.258C95.9756 198.249 94.71 198.724 94.7188 199.611ZM116.023 188.045V189.82H106.531V188.045H110.17V186.533H112.402V188.045H116.023ZM107.305 193.283C107.305 191.525 108.957 190.339 111.277 190.33C113.606 190.339 115.215 191.525 115.215 193.283C115.215 195.041 113.606 196.228 111.277 196.236C108.957 196.228 107.305 195.041 107.305 193.283ZM108.447 199.119V197.326H119.223V202.617H116.973V199.119H108.447ZM109.502 193.283C109.493 194.101 110.205 194.522 111.277 194.514C112.358 194.522 113.088 194.101 113.088 193.283C113.088 192.457 112.358 192.018 111.277 192.018C110.205 192.018 109.493 192.457 109.502 193.283ZM116.973 196.658V186.621H119.223V190.77H121.385V192.598H119.223V196.658H116.973Z" fill="black"/>
<path d="M133.75 47.125V59.625H115V53.375V47.125H133.75Z" fill="#E6E9ED"/>
<path d="M90 59.625V47.125H108.75V53.375V59.625H90Z" fill="#E6E9ED"/>
<path d="M43.125 137.75V125.25H46.25H52.5H58.75H61.875V137.75H58.75H52.5H46.25H43.125Z" fill="#E6E9ED"/>
<path d="M108.75 109.625V111.188C108.75 112.047 108.047 112.75 107.188 112.75H105.625H99.375H93.125H86.875H80.625H74.375H72.8125C71.9531 112.75 71.25 112.047 71.25 111.188V109.625V103.375V97.125V90.875V84.625V78.375V76.8125C71.25 75.9531 71.9531 75.25 72.8125 75.25H74.375H80.625H86.875H93.125H99.375H105.625H107.188C108.047 75.25 108.75 75.9531 108.75 76.8125V78.375V84.625V90.875V97.125V103.375V109.625Z" fill="#FCD770"/>
<path d="M99.375 87.75C101.101 87.75 102.5 86.3509 102.5 84.625C102.5 82.8991 101.101 81.5 99.375 81.5C97.6491 81.5 96.25 82.8991 96.25 84.625C96.25 86.3509 97.6491 87.75 99.375 87.75Z" fill="#FF826E"/>
<path d="M80.625 106.5C82.3509 106.5 83.75 105.101 83.75 103.375C83.75 101.649 82.3509 100.25 80.625 100.25C78.8991 100.25 77.5 101.649 77.5 103.375C77.5 105.101 78.8991 106.5 80.625 106.5Z" fill="#FF826E"/>
<path d="M83.75 134.625C85.4759 134.625 86.875 133.226 86.875 131.5C86.875 129.774 85.4759 128.375 83.75 128.375C82.0241 128.375 80.625 129.774 80.625 131.5C80.625 133.226 82.0241 134.625 83.75 134.625Z" fill="#FF826E"/>
<path d="M71.25 134.625C72.9759 134.625 74.375 133.226 74.375 131.5C74.375 129.774 72.9759 128.375 71.25 128.375C69.5241 128.375 68.125 129.774 68.125 131.5C68.125 133.226 69.5241 134.625 71.25 134.625Z" fill="#FF826E"/>
<path d="M46.25 115.875C47.9759 115.875 49.375 114.476 49.375 112.75C49.375 111.024 47.9759 109.625 46.25 109.625C44.5241 109.625 43.125 111.024 43.125 112.75C43.125 114.476 44.5241 115.875 46.25 115.875Z" fill="#FF826E"/>
<path d="M55.625 95.5625C57.3509 95.5625 58.75 94.1634 58.75 92.4375C58.75 90.7116 57.3509 89.3125 55.625 89.3125C53.8991 89.3125 52.5 90.7116 52.5 92.4375C52.5 94.1634 53.8991 95.5625 55.625 95.5625Z" fill="#FF826E"/>
<path d="M46.25 53.375C47.9759 53.375 49.375 51.9759 49.375 50.25C49.375 48.5241 47.9759 47.125 46.25 47.125C44.5241 47.125 43.125 48.5241 43.125 50.25C43.125 51.9759 44.5241 53.375 46.25 53.375Z" fill="#FF826E"/>
<path d="M80.625 56.5C82.3509 56.5 83.75 55.1009 83.75 53.375C83.75 51.6491 82.3509 50.25 80.625 50.25C78.8991 50.25 77.5 51.6491 77.5 53.375C77.5 55.1009 78.8991 56.5 80.625 56.5Z" fill="#FF826E"/>
<path d="M124.375 97.125C126.101 97.125 127.5 95.7259 127.5 94C127.5 92.2741 126.101 90.875 124.375 90.875C122.649 90.875 121.25 92.2741 121.25 94C121.25 95.7259 122.649 97.125 124.375 97.125Z" fill="#FF826E"/>
<path d="M133.75 87.75C135.476 87.75 136.875 86.3509 136.875 84.625C136.875 82.8991 135.476 81.5 133.75 81.5C132.024 81.5 130.625 82.8991 130.625 84.625C130.625 86.3509 132.024 87.75 133.75 87.75Z" fill="#FF826E"/>
<path d="M133.75 140.875C135.476 140.875 136.875 139.476 136.875 137.75C136.875 136.024 135.476 134.625 133.75 134.625C132.024 134.625 130.625 136.024 130.625 137.75C130.625 139.476 132.024 140.875 133.75 140.875Z" fill="#FF826E"/>
<path d="M99.375 79.9375C96.7906 79.9375 94.6875 82.0406 94.6875 84.625C94.6875 87.2094 96.7906 89.3125 99.375 89.3125C101.959 89.3125 104.062 87.2094 104.062 84.625C104.062 82.0406 101.959 79.9375 99.375 79.9375ZM99.375 86.1875C98.5125 86.1875 97.8125 85.4859 97.8125 84.625C97.8125 83.7641 98.5125 83.0625 99.375 83.0625C100.238 83.0625 100.938 83.7641 100.938 84.625C100.938 85.4859 100.238 86.1875 99.375 86.1875Z" fill="black"/>
<path d="M80.625 98.6875C78.0406 98.6875 75.9375 100.791 75.9375 103.375C75.9375 105.959 78.0406 108.062 80.625 108.062C83.2094 108.062 85.3125 105.959 85.3125 103.375C85.3125 100.791 83.2094 98.6875 80.625 98.6875ZM80.625 104.938C79.7625 104.938 79.0625 104.236 79.0625 103.375C79.0625 102.514 79.7625 101.812 80.625 101.812C81.4875 101.812 82.1875 102.514 82.1875 103.375C82.1875 104.236 81.4875 104.938 80.625 104.938Z" fill="black"/>
<path d="M71.25 126.812C68.6656 126.812 66.5625 128.916 66.5625 131.5C66.5625 134.084 68.6656 136.188 71.25 136.188C73.8344 136.188 75.9375 134.084 75.9375 131.5C75.9375 128.916 73.8344 126.812 71.25 126.812ZM71.25 133.062C70.3875 133.062 69.6875 132.361 69.6875 131.5C69.6875 130.639 70.3875 129.938 71.25 129.938C72.1125 129.938 72.8125 130.639 72.8125 131.5C72.8125 132.361 72.1125 133.062 71.25 133.062Z" fill="black"/>
<path d="M83.75 126.812C81.1656 126.812 79.0625 128.916 79.0625 131.5C79.0625 134.084 81.1656 136.188 83.75 136.188C86.3344 136.188 88.4375 134.084 88.4375 131.5C88.4375 128.916 86.3344 126.812 83.75 126.812ZM83.75 133.062C82.8875 133.062 82.1875 132.361 82.1875 131.5C82.1875 130.639 82.8875 129.938 83.75 129.938C84.6125 129.938 85.3125 130.639 85.3125 131.5C85.3125 132.361 84.6125 133.062 83.75 133.062Z" fill="black"/>
<path d="M97.8125 101.812H88.4375V104.938H100.938V92.4375H97.8125V101.812Z" fill="black"/>
<path d="M82.1875 86.1875H91.5625V83.0625H79.0625V95.5625H82.1875V86.1875Z" fill="black"/>
<path d="M91.5625 114.312V120.562H94.6875V114.312H97.8125V120.562H100.938V114.312H104.062V120.562H107.188V114.312C108.911 114.312 110.312 112.911 110.312 111.188H116.562V108.062H110.312V104.938H116.562V101.812H110.312V98.6875H116.562V95.5625H110.312V92.4375H116.562V89.3125H110.312V86.1875H116.562V83.0625H110.312V79.9375H116.562V76.8125H110.312C110.312 75.0891 108.911 73.6875 107.188 73.6875V67.4375H104.062V73.6875H100.938V67.4375H97.8125V73.6875H94.6875V67.4375H91.5625V73.6875H88.4375V67.4375H85.3125V73.6875H82.1875V67.4375H79.0625V73.6875H75.9375V67.4375H72.8125V73.6875C71.0891 73.6875 69.6875 75.0891 69.6875 76.8125H63.4375V79.9375H69.6875V83.0625H63.4375V86.1875H69.6875V89.3125H63.4375V92.4375H69.6875V95.5625H63.4375V98.6875H69.6875V101.812H63.4375V104.938H69.6875V108.062H63.4375V111.188H69.6875C69.6875 112.911 71.0891 114.312 72.8125 114.312V120.562H75.9375V114.312H79.0625V120.562H82.1875V114.312H85.3125V120.562H88.4375V114.312H91.5625ZM72.8125 76.8125H107.188L107.189 111.188H72.8125V76.8125Z" fill="black"/>
<path d="M54.0625 129.938H57.1875V133.062H54.0625V129.938Z" fill="black"/>
<path d="M47.8125 129.938H50.9375V133.062H47.8125V129.938Z" fill="black"/>
<path d="M125.938 51.8125H129.062V54.9375H125.938V51.8125Z" fill="black"/>
<path d="M119.688 51.8125H122.812V54.9375H119.688V51.8125Z" fill="black"/>
<path d="M110.312 54.9375H113.438V61.1875H135.312V45.5625H113.438V51.8125H110.312V45.5625H88.4375V61.1875H110.312V54.9375ZM116.562 48.6875H132.188V58.0625H116.562V48.6875ZM107.188 58.0625H91.5625V48.6875H107.188V58.0625Z" fill="black"/>
<path d="M94.6875 51.8125H97.8125V54.9375H94.6875V51.8125Z" fill="black"/>
<path d="M100.938 51.8125H104.062V54.9375H100.938V51.8125Z" fill="black"/>
<path d="M60.3125 120.562H57.1875V123.688H54.0625V120.562H50.9375V123.688H47.8125V120.562H44.6875V123.688H41.5625V139.312H44.6875V142.438H47.8125V139.312H50.9375V142.438H54.0625V139.312H57.1875V142.438H60.3125V139.312H63.4375V123.688H60.3125V120.562ZM60.3125 136.188H44.6875V126.812H60.3125V136.188Z" fill="black"/>
<path d="M133.75 133.062C131.166 133.062 129.062 135.166 129.062 137.75C129.062 140.334 131.166 142.438 133.75 142.438C136.334 142.438 138.438 140.334 138.438 137.75C138.438 135.166 136.334 133.062 133.75 133.062ZM133.75 139.312C132.888 139.312 132.188 138.611 132.188 137.75C132.188 136.889 132.888 136.188 133.75 136.188C134.613 136.188 135.312 136.889 135.312 137.75C135.312 138.611 134.613 139.312 133.75 139.312Z" fill="black"/>
<path d="M104.062 136.188H125.938V139.312H104.062V136.188Z" fill="black"/>
<path d="M132.188 95.5625V129.938H135.312V92.4375H128.775C128.128 90.6234 126.409 89.3125 124.375 89.3125C121.791 89.3125 119.688 91.4156 119.688 94C119.688 96.5844 121.791 98.6875 124.375 98.6875C126.409 98.6875 128.128 97.3766 128.775 95.5625H132.188ZM124.375 95.5625C123.513 95.5625 122.812 94.8609 122.812 94C122.812 93.1391 123.513 92.4375 124.375 92.4375C125.238 92.4375 125.938 93.1391 125.938 94C125.938 94.8609 125.238 95.5625 124.375 95.5625Z" fill="black"/>
<path d="M122.812 129.938H91.5625V133.062H125.938V101.812H122.812V129.938Z" fill="black"/>
<path d="M122.812 64.3125H125.938V86.1875H122.812V64.3125Z" fill="black"/>
<path d="M129.062 84.625C129.062 87.2094 131.166 89.3125 133.75 89.3125C136.334 89.3125 138.438 87.2094 138.438 84.625C138.438 82.0406 136.334 79.9375 133.75 79.9375C131.166 79.9375 129.062 82.0406 129.062 84.625ZM135.312 84.625C135.312 85.4859 134.613 86.1875 133.75 86.1875C132.888 86.1875 132.188 85.4859 132.188 84.625C132.188 83.7641 132.888 83.0625 133.75 83.0625C134.613 83.0625 135.312 83.7641 135.312 84.625Z" fill="black"/>
<path d="M132.188 64.3125H135.312V76.8125H132.188V64.3125Z" fill="black"/>
<path d="M46.25 117.438C48.8344 117.438 50.9375 115.334 50.9375 112.75C50.9375 110.166 48.8344 108.062 46.25 108.062C43.6656 108.062 41.5625 110.166 41.5625 112.75C41.5625 115.334 43.6656 117.438 46.25 117.438ZM46.25 111.188C47.1125 111.188 47.8125 111.889 47.8125 112.75C47.8125 113.611 47.1125 114.312 46.25 114.312C45.3875 114.312 44.6875 113.611 44.6875 112.75C44.6875 111.889 45.3875 111.188 46.25 111.188Z" fill="black"/>
<path d="M57.1875 76.8125H54.0625V81.5H44.6875V104.938H47.8125V84.625H57.1875V76.8125Z" fill="black"/>
<path d="M50.9375 92.4375C50.9375 95.0219 53.0406 97.125 55.625 97.125C58.2094 97.125 60.3125 95.0219 60.3125 92.4375C60.3125 89.8531 58.2094 87.75 55.625 87.75C53.0406 87.75 50.9375 89.8531 50.9375 92.4375ZM57.1875 92.4375C57.1875 93.2984 56.4875 94 55.625 94C54.7625 94 54.0625 93.2984 54.0625 92.4375C54.0625 91.5766 54.7625 90.875 55.625 90.875C56.4875 90.875 57.1875 91.5766 57.1875 92.4375Z" fill="black"/>
<path d="M54.0625 100.25H57.1875V115.875H54.0625V100.25Z" fill="black"/>
<path d="M46.25 54.9375C48.8344 54.9375 50.9375 52.8344 50.9375 50.25C50.9375 47.6656 48.8344 45.5625 46.25 45.5625C43.6656 45.5625 41.5625 47.6656 41.5625 50.25C41.5625 52.8344 43.6656 54.9375 46.25 54.9375ZM46.25 48.6875C47.1125 48.6875 47.8125 49.3891 47.8125 50.25C47.8125 51.1109 47.1125 51.8125 46.25 51.8125C45.3875 51.8125 44.6875 51.1109 44.6875 50.25C44.6875 49.3891 45.3875 48.6875 46.25 48.6875Z" fill="black"/>
<path d="M80.625 58.0625C83.2094 58.0625 85.3125 55.9594 85.3125 53.375C85.3125 50.7906 83.2094 48.6875 80.625 48.6875C78.0406 48.6875 75.9375 50.7906 75.9375 53.375C75.9375 55.9594 78.0406 58.0625 80.625 58.0625ZM80.625 51.8125C81.4875 51.8125 82.1875 52.5141 82.1875 53.375C82.1875 54.2359 81.4875 54.9375 80.625 54.9375C79.7625 54.9375 79.0625 54.2359 79.0625 53.375C79.0625 52.5141 79.7625 51.8125 80.625 51.8125Z" fill="black"/>
<path d="M63.4375 65.875H69.6875V54.9375H72.8125V51.8125H66.5625V62.75H60.3125V73.6875H63.4375V65.875Z" fill="black"/>
<path d="M47.8125 56.5H44.6875V69H54.0625V73.6875H57.1875V65.875H47.8125V56.5Z" fill="black"/>
</svg>
