<svg width="180" height="250" viewBox="0 0 180 250" fill="none" xmlns="http://www.w3.org/2000/svg">
<rect width="180" height="250" rx="20" fill="white"/>
<path d="M71.9043 193.775V195.551H67.2637V198.961H73.5039V200.789H58.8613V198.961H65.0312V195.551H60.584V187.746H71.7812V189.539H62.834V193.775H71.9043ZM80.6406 190.242C80.6318 193.178 81.9678 196.122 84.6836 197.273L83.3652 199.066C81.5371 198.24 80.2715 196.641 79.542 194.663C78.8213 196.825 77.5117 198.565 75.5605 199.453L74.207 197.59C77.002 196.412 78.3643 193.345 78.373 190.242V187.852H80.6406V190.242ZM85.5449 202.652V186.621H87.8125V202.652H85.5449ZM97.1816 196.588C100.68 196.588 102.877 197.695 102.895 199.611C102.877 201.501 100.68 202.626 97.1816 202.617C93.71 202.626 91.4775 201.501 91.4863 199.611C91.4775 197.695 93.71 196.588 97.1816 196.588ZM90.0098 195.568V193.758H95.459V190.963H97.6738V193.758H104.529V195.568H90.0098ZM91.6445 189.1V187.342H102.807V188.643C102.815 189.917 102.815 191.288 102.35 192.932L100.152 192.721C100.513 191.271 100.557 190.189 100.574 189.1H91.6445ZM93.7188 199.611C93.71 200.473 94.9756 200.912 97.1816 200.912C99.3877 200.912 100.662 200.473 100.662 199.611C100.662 198.724 99.3877 198.249 97.1816 198.258C94.9756 198.249 93.71 198.724 93.7188 199.611ZM115.023 188.045V189.82H105.531V188.045H109.17V186.533H111.402V188.045H115.023ZM106.305 193.283C106.305 191.525 107.957 190.339 110.277 190.33C112.606 190.339 114.215 191.525 114.215 193.283C114.215 195.041 112.606 196.228 110.277 196.236C107.957 196.228 106.305 195.041 106.305 193.283ZM107.447 199.119V197.326H118.223V202.617H115.973V199.119H107.447ZM108.502 193.283C108.493 194.101 109.205 194.522 110.277 194.514C111.358 194.522 112.088 194.101 112.088 193.283C112.088 192.457 111.358 192.018 110.277 192.018C109.205 192.018 108.493 192.457 108.502 193.283ZM115.973 196.658V186.621H118.223V190.77H120.385V192.598H118.223V196.658H115.973Z" fill="black"/>
<path d="M61.875 47.125H74.375V53.375H61.875V47.125Z" fill="#FFC729"/>
<path d="M77.5 53.375V62.75H58.75V53.375H61.875H74.375H77.5Z" fill="#FCD770"/>
<path d="M83.75 62.75V75.25H79.0625H57.1875H52.5V62.75H58.75H77.5H83.75Z" fill="#FFEAA7"/>
<path d="M52.5 91.4219V75.25H57.1875H79.0625H83.75V84.625H77.5V90.875V93.2813C75.8438 91.7813 73.6562 90.875 71.25 90.875H55.625C54.5312 90.875 53.4844 91.0625 52.5 91.4219Z" fill="#FFEAA7"/>
<path d="M121.25 53.375V69H102.5V56.5L105.625 55.9844L111.875 54.9375L118.125 53.8906L121.25 53.375Z" fill="#CCD1D9"/>
<path d="M124.375 69V102.031L115 103.375V114.828L108.75 106.5L102.5 114.828V90.875V84.625H99.375V69H102.5H121.25H124.375Z" fill="#E6E9ED"/>
<path d="M102.5 84.625V90.875H77.5V84.625H83.75H99.375H102.5Z" fill="#ECC19C"/>
<path d="M77.5 90.875H102.5V114.828L99.375 119V140.875H83.75V106.5V100.25H80.625C80.625 97.4844 79.4219 94.9844 77.5 93.2813V90.875Z" fill="#F0D0B4"/>
<path d="M136.875 140.875H118.125V119L115 114.828V103.375L124.375 102.031L136.875 100.25V140.875Z" fill="#ECC19C"/>
<path d="M115 114.828L118.125 119H99.375L102.5 114.828L108.75 106.5L115 114.828Z" fill="#FCD770"/>
<path d="M99.375 119H118.125V140.875H99.375V119Z" fill="#FFEAA7"/>
<path d="M80.625 100.25H46.25C46.25 96.1719 48.8594 92.6875 52.5 91.4219C53.4844 91.0625 54.5312 90.875 55.625 90.875H71.25C73.6562 90.875 75.8438 91.7813 77.5 93.2813C79.4219 94.9844 80.625 97.4844 80.625 100.25Z" fill="#AAB2BD"/>
<path d="M83.75 100.25V106.5H43.125V100.25H46.25H80.625H83.75Z" fill="#CCD1D9"/>
<path d="M43.125 106.5H83.75V140.875H43.125V106.5Z" fill="#E6E9ED"/>
<path d="M49.375 112.75H77.5V140.875H49.375V112.75Z" fill="#69D6F4"/>
<path d="M104.062 123.688H107.188V136.188H104.062V123.688Z" fill="black"/>
<path d="M110.312 123.688H113.438V136.188H110.312V123.688Z" fill="black"/>
<path d="M125.938 100.234V67.4375H122.812V51.5297L119.688 52.05V48.6875H116.562V52.5719L113.438 53.0922V45.5625H110.312V53.6141L107.188 54.1344V48.6875H104.062V54.6547L100.938 55.175V67.4375H97.8125V83.0625H85.3125V61.1875H79.0625V51.8125H75.9375V45.5625H60.3125V51.8125H57.1875V61.1875H50.9375V90.3828C47.7 91.9281 45.3422 95.0109 44.8125 98.6875H41.5625V142.438H138.438V98.4484L125.938 100.234ZM104.062 57.8234L119.688 55.2188V67.4375H104.062V57.8234ZM100.938 70.5625H122.812V100.681L113.438 102.02V110.147L108.75 103.897L104.062 110.147V83.0625H100.938V70.5625ZM100.938 89.3125H79.0625V86.1875H100.938V89.3125ZM100.938 120.562H116.562V139.312H100.938V120.562ZM102.5 117.438L108.75 109.105L115 117.438H102.5ZM63.4375 48.6875H72.8125V51.8125H63.4375V48.6875ZM60.3125 54.9375H75.9375V61.1875H60.3125V54.9375ZM54.0625 64.3125H82.1875V83.0625H75.9375V90.3828C74.5141 89.7047 72.9281 89.3125 71.25 89.3125H55.625C55.0938 89.3125 54.575 89.3641 54.0625 89.4375V64.3125ZM55.625 92.4375H71.25C75.0219 92.4375 78.1781 95.1266 78.9047 98.6875H47.9703C48.6969 95.1266 51.8531 92.4375 55.625 92.4375ZM82.1875 101.812V104.938H44.6875V101.812H82.1875ZM75.9375 129.938H69.6875V123.688H75.9375V129.938ZM66.5625 129.938H60.3125V123.688H66.5625V129.938ZM66.5625 133.062V139.312H60.3125V133.062H66.5625ZM69.6875 133.062H75.9375V139.312H69.6875V133.062ZM75.9375 120.562H69.6875V114.312H75.9375V120.562ZM66.5625 120.562H60.3125V114.312H66.5625V120.562ZM57.1875 120.562H50.9375V114.312H57.1875V120.562ZM50.9375 123.688H57.1875V129.938H50.9375V123.688ZM50.9375 133.062H57.1875V139.312H50.9375V133.062ZM79.0625 139.312V111.188H47.8125V139.312H44.6875V108.062H82.1875V139.312H79.0625ZM82.0625 98.6875C81.725 96.3406 80.6469 94.2297 79.0625 92.6109V92.4375H100.938V114.312L97.8125 118.48V139.312H85.3125V98.6875H82.0625ZM135.312 139.312H119.688V118.48L116.562 114.312V104.73L135.312 102.052V139.312Z" fill="black"/>
<path d="M88.4375 114.312H91.5625V117.438H88.4375V114.312Z" fill="black"/>
<path d="M88.4375 126.812H91.5625V129.938H88.4375V126.812Z" fill="black"/>
<path d="M88.4375 133.062H91.5625V136.188H88.4375V133.062Z" fill="black"/>
<path d="M88.4375 108.062H91.5625V111.188H88.4375V108.062Z" fill="black"/>
<path d="M88.4375 120.562H91.5625V123.688H88.4375V120.562Z" fill="black"/>
<path d="M88.4375 95.5625H91.5625V98.6875H88.4375V95.5625Z" fill="black"/>
<path d="M88.4375 101.812H91.5625V104.938H88.4375V101.812Z" fill="black"/>
<path d="M94.6875 108.062H97.8125V111.188H94.6875V108.062Z" fill="black"/>
<path d="M94.6875 101.812H97.8125V104.938H94.6875V101.812Z" fill="black"/>
<path d="M94.6875 95.5625H97.8125V98.6875H94.6875V95.5625Z" fill="black"/>
<path d="M129.062 133.062H132.188V136.188H129.062V133.062Z" fill="black"/>
<path d="M129.062 120.562H132.188V123.688H129.062V120.562Z" fill="black"/>
<path d="M129.062 114.312H132.188V117.438H129.062V114.312Z" fill="black"/>
<path d="M129.062 108.062H132.188V111.188H129.062V108.062Z" fill="black"/>
<path d="M129.062 126.812H132.188V129.938H129.062V126.812Z" fill="black"/>
<path d="M122.812 133.062H125.938V136.188H122.812V133.062Z" fill="black"/>
<path d="M122.812 126.812H125.938V129.938H122.812V126.812Z" fill="black"/>
<path d="M122.812 108.062H125.938V111.188H122.812V108.062Z" fill="black"/>
<path d="M122.812 120.562H125.938V123.688H122.812V120.562Z" fill="black"/>
<path d="M122.812 114.312H125.938V117.438H122.812V114.312Z" fill="black"/>
<path d="M69.6875 67.4375H72.8125V70.5625H69.6875V67.4375Z" fill="black"/>
<path d="M57.1875 67.4375H60.3125V70.5625H57.1875V67.4375Z" fill="black"/>
<path d="M63.4375 67.4375H66.5625V70.5625H63.4375V67.4375Z" fill="black"/>
<path d="M75.9375 67.4375H79.0625V70.5625H75.9375V67.4375Z" fill="black"/>
<path d="M57.1875 73.6875H60.3125V76.8125H57.1875V73.6875Z" fill="black"/>
<path d="M63.4375 73.6875H66.5625V76.8125H63.4375V73.6875Z" fill="black"/>
<path d="M75.9375 73.6875H79.0625V76.8125H75.9375V73.6875Z" fill="black"/>
<path d="M69.6875 73.6875H72.8125V76.8125H69.6875V73.6875Z" fill="black"/>
<path d="M57.1875 79.9375H60.3125V83.0625H57.1875V79.9375Z" fill="black"/>
<path d="M69.6875 79.9375H72.8125V83.0625H69.6875V79.9375Z" fill="black"/>
<path d="M63.4375 79.9375H66.5625V83.0625H63.4375V79.9375Z" fill="black"/>
<path d="M110.312 73.6875H113.438V76.8125H110.312V73.6875Z" fill="black"/>
<path d="M116.562 73.6875H119.688V76.8125H116.562V73.6875Z" fill="black"/>
<path d="M104.062 73.6875H107.188V76.8125H104.062V73.6875Z" fill="black"/>
<path d="M104.062 79.9375H107.188V83.0625H104.062V79.9375Z" fill="black"/>
<path d="M116.562 79.9375H119.688V83.0625H116.562V79.9375Z" fill="black"/>
<path d="M110.312 79.9375H113.438V83.0625H110.312V79.9375Z" fill="black"/>
<path d="M110.312 92.4375H113.438V95.5625H110.312V92.4375Z" fill="black"/>
<path d="M110.312 86.1875H113.438V89.3125H110.312V86.1875Z" fill="black"/>
<path d="M110.312 98.6875H113.438V101.812H110.312V98.6875Z" fill="black"/>
<path d="M116.562 86.1875H119.688V89.3125H116.562V86.1875Z" fill="black"/>
<path d="M116.562 92.4375H119.688V95.5625H116.562V92.4375Z" fill="black"/>
</svg>
