<svg width="180" height="250" viewBox="0 0 180 250" fill="none" xmlns="http://www.w3.org/2000/svg">
<rect width="180" height="250" rx="20" fill="white"/>
<path d="M66.2256 198.908V200.701H51.583V198.908H57.7002V195.287H59.9326V198.908H66.2256ZM51.9346 193.934C55.5557 193.371 57.5947 190.937 57.6123 188.678V187.535H60.0029V188.678C59.9941 190.963 62.0596 193.371 65.7158 193.934L64.7666 195.797C61.9541 195.287 59.8623 193.784 58.8076 191.789C57.7617 193.775 55.6787 195.296 52.8838 195.797L51.9346 193.934ZM74.5928 196.412C77.9238 196.412 79.9805 197.555 79.9893 199.506C79.9805 201.483 77.9238 202.635 74.5928 202.635C71.209 202.635 69.0996 201.483 69.1084 199.506C69.0996 197.555 71.209 196.412 74.5928 196.412ZM67.6143 195.146V187.623H69.8467V189.645H73.1162V187.623H75.3662V195.146H67.6143ZM69.8467 193.371H73.1162V191.385H69.8467V193.371ZM71.3584 199.506C71.3408 200.42 72.4922 200.895 74.5928 200.895C76.667 200.895 77.7744 200.42 77.7744 199.506C77.7744 198.592 76.667 198.161 74.5928 198.152C72.4922 198.161 71.3408 198.592 71.3584 199.506ZM77.5811 196.061V186.621H79.8311V190.33H81.9932V192.211H79.8311V196.061H77.5811ZM90.1494 196.412C93.4805 196.412 95.5371 197.555 95.5459 199.506C95.5371 201.483 93.4805 202.635 90.1494 202.635C86.7656 202.635 84.6562 201.483 84.665 199.506C84.6562 197.555 86.7656 196.412 90.1494 196.412ZM83.1709 195.146V187.623H85.4033V189.645H88.6729V187.623H90.9229V195.146H83.1709ZM85.4033 193.371H88.6729V191.385H85.4033V193.371ZM86.915 199.506C86.8975 200.42 88.0488 200.895 90.1494 200.895C92.2236 200.895 93.3311 200.42 93.3311 199.506C93.3311 198.592 92.2236 198.161 90.1494 198.152C88.0488 198.161 86.8975 198.592 86.915 199.506ZM93.1377 196.061V186.621H95.3877V190.33H97.5498V192.211H95.3877V196.061H93.1377ZM112.21 186.621V202.617H110.065V194.602H108.712V201.879H106.585V197.3L105.319 198.979C103.834 198.196 102.876 196.869 102.305 195.243C101.777 197.115 100.837 198.645 99.3076 199.559L97.9189 197.836C100.354 196.465 101.162 193.635 101.171 190.576V190.066H98.4639V188.273H105.794V190.066H103.351V190.576C103.351 193.362 104.177 196.017 106.585 197.265V186.85H108.712V192.773H110.065V186.621H112.21ZM123.302 188.045V189.82H113.81V188.045H117.448V186.533H119.681V188.045H123.302ZM114.583 193.283C114.583 191.525 116.235 190.339 118.556 190.33C120.885 190.339 122.493 191.525 122.493 193.283C122.493 195.041 120.885 196.228 118.556 196.236C116.235 196.228 114.583 195.041 114.583 193.283ZM115.726 199.119V197.326H126.501V202.617H124.251V199.119H115.726ZM116.78 193.283C116.771 194.101 117.483 194.522 118.556 194.514C119.637 194.522 120.366 194.101 120.366 193.283C120.366 192.457 119.637 192.018 118.556 192.018C117.483 192.018 116.771 192.457 116.78 193.283ZM124.251 196.658V186.621H126.501V190.77H128.663V192.598H126.501V196.658H124.251Z" fill="black"/>
<g clip-path="url(#clip0_319_2256)">
<path d="M129.063 86.1875C129.063 79.9375 121.25 75.25 121.25 75.25C120.703 79.9307 119.167 84.4414 116.742 88.4824C114.317 92.5234 111.061 96.0021 107.188 98.6875C104.063 95.5625 105.625 87.75 105.625 87.75C93.1254 92.4375 93.1254 103.375 93.1254 103.375V128.375C93.1254 128.375 88.4379 129.938 83.7504 125.25C83.7504 125.25 77.5004 133.062 83.7504 139.312L86.8754 142.438V144H140V70.5625H138.438C132.188 73.6875 129.063 86.1875 129.063 86.1875Z" fill="#FF9901"/>
<path d="M125.938 128.375C127.5 125.25 121.25 120.562 121.25 120.562C119.688 129.938 110.312 133.062 110.312 133.062C108.75 123.688 100.938 123.688 100.938 123.688C102.5 134.625 86.875 142.438 86.875 142.438V144H140V123.688H138.438L125.938 128.375Z" fill="#F9C87A"/>
<path d="M138.438 123.688L119.666 114.302L119.688 107.125L138.438 94H140V123.688H138.438Z" fill="#2290D3"/>
<path d="M60.3125 64.3125L60.1094 69L59.3438 86.125V86.1875H66.5625V81.5H68.125C69.7826 81.5 71.3723 80.8415 72.5444 79.6694C73.7165 78.4973 74.375 76.9076 74.375 75.25V64.3125H60.3125Z" fill="#F9C87A"/>
<path d="M80.625 119L66.5625 86.1875H40V144H75.9375V142.438L72.8125 119H80.625Z" fill="#D8531E"/>
<path d="M54.0625 106.5H70.7406L68.5078 98.6875H54.0625V106.5Z" fill="#F9C87A"/>
<path d="M49.3744 59.625C49.2739 55.9998 50.616 52.483 53.1061 49.8464C55.5962 47.2099 59.0307 45.6691 62.6557 45.5625C66.2806 45.6691 69.7152 47.2099 72.2052 49.8464C74.6953 52.483 76.0374 55.9998 75.9369 59.625" fill="#F26522"/>
<path d="M49.375 64.3125C49.5859 65.8669 49.6017 67.4417 49.4219 69C48.4688 78.5312 41.5625 87.75 41.5625 87.75L58.75 89.3125L59.3438 86.1875V86.1406L62.5625 69L63.4375 64.3125H49.375Z" fill="#F26522"/>
<path d="M74.1516 112.75H65C63.3439 112.755 61.7571 113.415 60.586 114.586C59.415 115.757 58.7549 117.344 58.75 119V133.062C58.75 133.891 58.4208 134.686 57.8347 135.272C57.2487 135.858 56.4538 136.188 55.625 136.188H40V142.438H55.625C58.1114 142.438 60.496 141.45 62.2541 139.692C64.0123 137.933 65 135.549 65 133.062V122.125C65 121.296 65.3292 120.501 65.9153 119.915C66.5013 119.329 67.2962 119 68.125 119H75.9375L74.1516 112.75Z" fill="#F9C87A"/>
<path d="M47.0312 89.3125C45.5808 89.3125 44.1898 89.8887 43.1643 90.9143C42.1387 91.9398 41.5625 93.3308 41.5625 94.7812V118.219C41.5625 119.669 42.1387 121.06 43.1643 122.086C44.1898 123.111 45.5808 123.688 47.0312 123.688C48.4817 123.688 49.8727 123.111 50.8982 122.086C51.9238 121.06 52.5 119.669 52.5 118.219V94.7812C52.5 93.3308 51.9238 91.9398 50.8982 90.9143C49.8727 89.8887 48.4817 89.3125 47.0312 89.3125Z" fill="#146FB4"/>
<path d="M41.5625 106.5H52.5V103.375H41.5625V106.5Z" fill="#055177"/>
<path d="M43.125 59.625H82.1875V64.3125H43.125V59.625Z" fill="#FF9901"/>
<path d="M83.75 109.625L78.3875 89.7375C78.1339 88.7236 77.5486 87.8235 76.7248 87.1803C75.901 86.537 74.8858 86.1876 73.8406 86.1875H66.5625L75.9375 119H96.25V109.625H83.75Z" fill="#F26522"/>
<path d="M100.938 108.062H119.688V112.75H100.938V108.062Z" fill="#F9C87A"/>
<path d="M100.938 112.75V108.062L96.25 109.625V119H105.625L110.312 112.75H100.938Z" fill="#D8531E"/>
<path opacity="0.2" d="M74.375 64.3125V69H49.4219C49.6017 67.4417 49.5859 65.8669 49.375 64.3125H74.375Z" fill="#055177"/>
<path d="M107.645 69.4579L106.082 71.0204C105.933 71.1645 105.814 71.3369 105.732 71.5276C105.65 71.7182 105.607 71.9232 105.606 72.1307C105.604 72.3382 105.643 72.5439 105.722 72.736C105.8 72.928 105.916 73.1024 106.063 73.2491C106.21 73.3958 106.384 73.5119 106.576 73.5904C106.768 73.669 106.974 73.7085 107.182 73.7067C107.389 73.7049 107.594 73.6618 107.785 73.5799C107.975 73.498 108.148 73.379 108.292 73.2298L109.854 71.6673C110.139 71.3726 110.296 70.9779 110.293 70.5682C110.289 70.1585 110.125 69.7666 109.835 69.4769C109.546 69.1872 109.154 69.0229 108.744 69.0193C108.334 69.0158 107.94 69.1733 107.645 69.4579Z" fill="black"/>
<path d="M126.395 63.2079L124.832 64.7704C124.683 64.9145 124.564 65.0869 124.482 65.2776C124.4 65.4682 124.357 65.6732 124.356 65.8807C124.354 66.0882 124.393 66.2939 124.472 66.486C124.55 66.678 124.666 66.8524 124.813 66.9991C124.96 67.1458 125.134 67.2619 125.326 67.3404C125.518 67.419 125.724 67.4585 125.932 67.4567C126.139 67.4549 126.344 67.4118 126.535 67.3299C126.725 67.248 126.898 67.129 127.042 66.9798L128.604 65.4173C128.889 65.1226 129.046 64.7279 129.043 64.3182C129.039 63.9085 128.875 63.5166 128.585 63.2269C128.296 62.9372 127.904 62.7729 127.494 62.7693C127.084 62.7658 126.69 62.9233 126.395 63.2079Z" fill="black"/>
<path d="M109.207 84.1673C109.5 84.4602 109.898 84.6248 110.312 84.6248C110.726 84.6248 111.124 84.4602 111.417 84.1673L112.979 82.6048C113.264 82.3101 113.421 81.9154 113.418 81.5057C113.414 81.096 113.25 80.7041 112.96 80.4144C112.671 80.1247 112.279 79.9604 111.869 79.9568C111.459 79.9533 111.065 80.1108 110.77 80.3954L109.207 81.9579C108.915 82.2509 108.75 82.6483 108.75 83.0626C108.75 83.4769 108.915 83.8743 109.207 84.1673Z" fill="black"/>
<path d="M75.9381 120.562H83.7506C84.165 120.562 84.5624 120.398 84.8554 120.105C85.1485 119.812 85.3131 119.414 85.3131 119C85.3131 118.586 85.1485 118.188 84.8554 117.895C84.5624 117.602 84.165 117.438 83.7506 117.438H77.1162L73.5443 104.938H80.8678L82.2412 110.033C82.3309 110.364 82.5273 110.657 82.8002 110.866C83.073 111.075 83.407 111.188 83.7506 111.188H94.6881V117.438H90.0006C89.5862 117.438 89.1887 117.602 88.8957 117.895C88.6027 118.188 88.4381 118.586 88.4381 119C88.4381 119.414 88.6027 119.812 88.8957 120.105C89.1887 120.398 89.5862 120.562 90.0006 120.562H105.626C105.868 120.562 106.107 120.506 106.324 120.398C106.541 120.289 106.73 120.132 106.876 119.938L111.094 114.312H119.688C120.102 114.312 120.5 114.148 120.793 113.855C121.086 113.562 121.251 113.164 121.251 112.75V108.062C121.251 107.648 121.086 107.251 120.793 106.958C120.5 106.665 120.102 106.5 119.688 106.5H100.938C100.926 106.5 100.915 106.5 100.902 106.5C100.746 106.501 100.591 106.525 100.443 106.573L95.999 108.062H84.9475L79.9037 89.3594C79.5675 88.0063 78.7877 86.8049 77.6889 85.9468C76.59 85.0886 75.2354 84.6233 73.8412 84.625H68.1256V83.0625C70.1968 83.06 72.1825 82.2361 73.6471 80.7715C75.1117 79.3069 75.9356 77.3212 75.9381 75.25V65.875H82.1881C82.6025 65.875 82.9999 65.7104 83.2929 65.4174C83.586 65.1243 83.7506 64.7269 83.7506 64.3125V59.625C83.7506 59.2106 83.586 58.8132 83.2929 58.5201C82.9999 58.2271 82.6025 58.0625 82.1881 58.0625H77.4256C77.15 54.303 75.4851 50.7805 72.7551 48.1811C70.0251 45.5816 66.4254 44.0912 62.6568 44C58.8883 44.0912 55.2886 45.5816 52.5586 48.1811C49.8286 50.7805 48.1637 54.303 47.8881 58.0625H43.1256C42.7112 58.0625 42.3137 58.2271 42.0207 58.5201C41.7277 58.8132 41.5631 59.2106 41.5631 59.625V64.3125C41.5631 64.7269 41.7277 65.1243 42.0207 65.4174C42.3137 65.7104 42.7112 65.875 43.1256 65.875H47.9334C48.0406 68.3716 47.7322 70.8686 47.0209 73.2641C46.9084 73.6629 46.9589 74.0901 47.1614 74.4517C47.3639 74.8133 47.7017 75.0797 48.1006 75.1922C48.4994 75.3047 48.9267 75.2542 49.2882 75.0517C49.6498 74.8492 49.9162 74.5114 50.0287 74.1125C50.816 71.4405 51.1658 68.6587 51.0646 65.875H61.5553L57.4771 87.6281L44.3443 86.4328C45.5349 84.5582 46.6093 82.6124 47.5615 80.6063C47.7387 80.2314 47.7597 79.8016 47.6199 79.4113C47.4801 79.021 47.191 78.7022 46.8162 78.525C46.4414 78.3478 46.0115 78.3268 45.6212 78.4666C45.2309 78.6064 44.9121 78.8955 44.7349 79.2703C43.4896 81.9116 42.0097 84.4358 40.3131 86.8125C40.1445 87.0351 40.0386 87.2988 40.0065 87.5762C39.9743 87.8535 40.0171 88.1345 40.1304 88.3897C40.2437 88.6449 40.4232 88.8652 40.6505 89.0274C40.8777 89.1897 41.1443 89.2882 41.4224 89.3125L42.5506 89.4156C41.7574 90.0677 41.1177 90.8866 40.677 91.8139C40.2362 92.7413 40.0053 93.7545 40.0006 94.7812V118.219C40.0006 120.084 40.7414 121.872 42.06 123.191C43.3786 124.509 45.167 125.25 47.0318 125.25C48.8966 125.25 50.6851 124.509 52.0037 123.191C53.3223 121.872 54.0631 120.084 54.0631 118.219V109.625H71.635L72.0818 111.188H65.0006C62.9293 111.19 60.9436 112.014 59.479 113.478C58.0145 114.943 57.1906 116.929 57.1881 119V133.062C57.1881 133.477 57.0235 133.874 56.7304 134.167C56.4374 134.46 56.04 134.625 55.6256 134.625H41.5631C41.1487 134.625 40.7512 134.79 40.4582 135.083C40.1652 135.376 40.0006 135.773 40.0006 136.188C40.0006 136.602 40.1652 136.999 40.4582 137.292C40.7512 137.585 41.1487 137.75 41.5631 137.75H55.6256C56.8688 137.75 58.0611 137.256 58.9401 136.377C59.8192 135.498 60.3131 134.306 60.3131 133.062V119C60.3131 117.757 60.8069 116.565 61.686 115.685C62.5651 114.806 63.7574 114.312 65.0006 114.312H72.9693L73.8615 117.438H68.1256C66.8824 117.438 65.6901 117.931 64.811 118.81C63.9319 119.69 63.4381 120.882 63.4381 122.125V133.062C63.4356 135.134 62.6117 137.119 61.1471 138.584C59.6825 140.049 57.6968 140.873 55.6256 140.875H41.5631C41.1487 140.875 40.7512 141.04 40.4582 141.333C40.1652 141.626 40.0006 142.023 40.0006 142.438C40.0006 142.852 40.1652 143.249 40.4582 143.542C40.7512 143.835 41.1487 144 41.5631 144H55.6256C58.5254 143.997 61.3054 142.843 63.3559 140.793C65.4064 138.742 66.5598 135.962 66.5631 133.062V122.125C66.5631 121.711 66.7277 121.313 67.0207 121.02C67.3137 120.727 67.7112 120.562 68.1256 120.562H71.4459L74.3896 142.644C74.4396 143.019 74.6242 143.363 74.909 143.613C75.1938 143.862 75.5595 144 75.9381 144C76.0081 144 76.078 143.995 76.1475 143.986C76.5581 143.931 76.9301 143.716 77.1818 143.386C77.4335 143.057 77.5442 142.642 77.4896 142.231L74.5975 120.562H75.9381ZM118.126 111.188H102.501V109.625H118.126V111.188ZM100.938 114.312H107.188L104.844 117.438H97.8131V110.752L99.3756 110.231V112.75C99.3756 113.164 99.5402 113.562 99.8332 113.855C100.126 114.148 100.524 114.312 100.938 114.312ZM72.6568 101.812L72.2099 100.25H79.6084L80.0303 101.812H72.6568ZM73.8459 87.75C74.5463 87.752 75.2257 87.9892 75.7751 88.4236C76.3245 88.858 76.712 89.4643 76.8756 90.1453L78.7615 97.125H71.3131L68.635 87.75H73.8459ZM62.6568 47.125C65.5958 47.2118 68.4011 48.3727 70.5419 50.3883C72.6826 52.4038 74.0104 55.1341 74.274 58.0625H51.0396C51.3032 55.1341 52.631 52.4038 54.7718 50.3883C56.9126 48.3727 59.7178 47.2118 62.6568 47.125ZM44.6881 61.1875H80.6256V62.75H44.6881V61.1875ZM72.8131 65.875V75.25C72.8131 76.4932 72.3192 77.6855 71.4401 78.5646C70.5611 79.4436 69.3688 79.9375 68.1256 79.9375H66.5631C66.1487 79.9375 65.7512 80.1021 65.4582 80.3951C65.1652 80.6882 65.0006 81.0856 65.0006 81.5V84.625H61.2193L63.5631 72.125H69.6881C70.1025 72.125 70.4999 71.9604 70.7929 71.6674C71.086 71.3743 71.2506 70.9769 71.2506 70.5625C71.2506 70.1481 71.086 69.7507 70.7929 69.4576C70.4999 69.1646 70.1025 69 69.6881 69H64.149L64.7349 65.875H72.8131ZM43.1256 103.375H50.9381V106.5H43.1256V103.375ZM43.1256 100.25V94.7812C43.1256 93.7452 43.5371 92.7517 44.2697 92.0191C45.0023 91.2865 45.9958 90.875 47.0318 90.875C48.0678 90.875 49.0614 91.2865 49.794 92.0191C50.5265 92.7517 50.9381 93.7452 50.9381 94.7812V100.25H43.1256ZM47.0318 122.125C45.9958 122.125 45.0023 121.713 44.2697 120.981C43.5371 120.248 43.1256 119.255 43.1256 118.219V109.625H50.9381V118.219C50.9381 118.732 50.837 119.24 50.6407 119.714C50.4444 120.188 50.1567 120.618 49.794 120.981C49.4312 121.344 49.0006 121.631 48.5267 121.828C48.0528 122.024 47.5448 122.125 47.0318 122.125ZM54.0631 106.5V98.6875H68.51L70.7428 106.5H54.0631ZM54.0631 95.5625V94.7812C54.056 93.1407 53.47 91.5554 52.4084 90.3047L58.6099 90.875H58.7521C59.1162 90.8747 59.4687 90.7473 59.7489 90.5149C60.029 90.2824 60.2192 89.9593 60.2865 89.6016L60.6334 87.75H65.385L67.6178 95.5625H54.0631Z" fill="black"/>
<path d="M139.717 93.1047C139.6 92.9365 139.45 92.7931 139.277 92.6828C139.104 92.5724 138.911 92.4972 138.709 92.4616C138.507 92.4259 138.299 92.4303 138.099 92.4747C137.899 92.5191 137.709 92.6026 137.541 92.7203L121.916 103.658C121.745 103.774 121.6 103.924 121.488 104.097C121.375 104.27 121.299 104.464 121.262 104.667C121.225 104.87 121.228 105.079 121.272 105.28C121.316 105.482 121.4 105.673 121.518 105.842C121.637 106.011 121.787 106.155 121.962 106.266C122.136 106.377 122.33 106.452 122.534 106.487C122.737 106.522 122.946 106.516 123.147 106.47C123.348 106.424 123.538 106.339 123.706 106.219L139.331 95.2812C139.5 95.1637 139.643 95.0142 139.754 94.8412C139.864 94.6682 139.939 94.4751 139.975 94.2729C140.011 94.0708 140.007 93.8636 139.963 93.6631C139.918 93.4627 139.835 93.2729 139.717 93.1047Z" fill="black"/>
<path d="M139.137 122.289L123.512 114.477C123.141 114.291 122.712 114.261 122.319 114.392C121.926 114.523 121.601 114.804 121.415 115.175C121.23 115.546 121.199 115.975 121.33 116.368C121.461 116.761 121.743 117.087 122.114 117.272L137.739 125.084C138.109 125.27 138.538 125.301 138.932 125.17C139.325 125.039 139.65 124.757 139.835 124.386C140.021 124.015 140.051 123.586 139.921 123.193C139.79 122.8 139.508 122.475 139.137 122.289Z" fill="black"/>
<path d="M133.75 109.625C133.75 109.211 133.585 108.813 133.292 108.52C132.999 108.227 132.602 108.062 132.188 108.062H129.062C128.648 108.062 128.251 108.227 127.958 108.52C127.665 108.813 127.5 109.211 127.5 109.625C127.5 110.039 127.665 110.437 127.958 110.73C128.251 111.023 128.648 111.188 129.062 111.188H132.188C132.602 111.188 132.999 111.023 133.292 110.73C133.585 110.437 133.75 110.039 133.75 109.625Z" fill="black"/>
<path d="M136.712 102.677C136.621 102.493 136.494 102.329 136.338 102.195C136.183 102.061 136.003 101.958 135.809 101.893C135.614 101.828 135.408 101.802 135.204 101.817C134.999 101.832 134.799 101.886 134.616 101.978L131.491 103.541C131.12 103.726 130.838 104.051 130.707 104.445C130.576 104.838 130.607 105.267 130.792 105.638C130.978 106.008 131.303 106.29 131.696 106.421C132.089 106.552 132.518 106.521 132.889 106.336L136.014 104.774C136.198 104.682 136.361 104.555 136.496 104.4C136.63 104.245 136.733 104.065 136.798 103.87C136.862 103.675 136.888 103.469 136.874 103.265C136.859 103.06 136.804 102.86 136.712 102.677Z" fill="black"/>
<path d="M130.133 115.794L134.82 117.356C135.015 117.421 135.221 117.447 135.426 117.433C135.631 117.418 135.831 117.363 136.015 117.271C136.198 117.179 136.362 117.052 136.497 116.897C136.631 116.742 136.734 116.561 136.799 116.366C136.864 116.172 136.89 115.966 136.875 115.761C136.861 115.556 136.806 115.356 136.714 115.172C136.622 114.988 136.495 114.824 136.34 114.69C136.184 114.555 136.004 114.453 135.809 114.388L131.122 112.825C130.927 112.76 130.721 112.734 130.516 112.749C130.311 112.763 130.111 112.818 129.927 112.91C129.743 113.002 129.58 113.129 129.445 113.285C129.31 113.44 129.208 113.62 129.143 113.815C129.078 114.01 129.052 114.216 129.066 114.421C129.081 114.626 129.136 114.826 129.228 115.009C129.32 115.193 129.447 115.357 129.602 115.492C129.757 115.626 129.938 115.729 130.133 115.794Z" fill="black"/>
<path d="M122.792 120.819C122.825 120.616 122.819 120.409 122.772 120.209C122.726 120.01 122.641 119.821 122.521 119.654C122.402 119.487 122.251 119.345 122.077 119.237C121.903 119.128 121.709 119.055 121.506 119.021C121.304 118.988 121.097 118.994 120.897 119.04C120.697 119.087 120.508 119.172 120.341 119.291C120.174 119.411 120.033 119.562 119.924 119.736C119.816 119.91 119.742 120.104 119.709 120.306C119.259 122.597 118.274 124.749 116.835 126.587C115.396 128.425 113.543 129.898 111.427 130.884C110.868 128.483 109.541 126.33 107.649 124.75C105.756 123.169 103.401 122.248 100.938 122.125C100.714 122.125 100.493 122.173 100.289 122.266C100.086 122.359 99.9042 122.495 99.7575 122.664C99.6108 122.833 99.5022 123.032 99.4391 123.247C99.3759 123.462 99.3597 123.688 99.3915 123.909C100.774 133.597 86.3212 140.967 86.1759 141.041C85.9923 141.133 85.8288 141.261 85.6945 141.416C85.5603 141.572 85.458 141.752 85.3935 141.947C85.329 142.142 85.3036 142.348 85.3187 142.553C85.3337 142.758 85.389 142.958 85.4814 143.141C85.5737 143.325 85.7013 143.489 85.8568 143.623C86.0124 143.757 86.1928 143.859 86.3879 143.924C86.583 143.988 86.7888 144.014 86.9938 143.999C87.1987 143.984 87.3986 143.928 87.5821 143.836C88.2212 143.516 102.367 136.314 102.617 125.536C104.648 126.12 107.876 127.902 108.779 133.319C108.816 133.541 108.901 133.753 109.028 133.939C109.155 134.125 109.32 134.282 109.513 134.398C109.706 134.515 109.922 134.588 110.146 134.613C110.37 134.638 110.596 134.615 110.81 134.544C111.226 134.405 121.095 131.006 122.792 120.819Z" fill="black"/>
<path d="M137.74 69.1642C133.567 71.2517 130.734 76.8204 129.132 80.9517C127.338 78.0979 124.918 75.6898 122.056 73.9095C121.83 73.772 121.573 73.6942 121.308 73.6833C121.044 73.6724 120.781 73.7287 120.545 73.8471C120.308 73.9654 120.106 74.1419 119.956 74.36C119.806 74.5781 119.714 74.8306 119.689 75.0939C119.328 78.7143 118.3 82.2367 116.657 85.4829C116.471 85.853 116.439 86.282 116.569 86.6755C116.699 87.069 116.98 87.3949 117.35 87.5814C117.567 87.6917 117.807 87.749 118.051 87.7485C118.341 87.7488 118.625 87.6686 118.871 87.5169C119.118 87.3651 119.318 87.1478 119.448 86.8892C120.862 84.0933 121.866 81.1086 122.429 78.0267C124.523 79.7204 127.501 82.7407 127.501 86.1876C127.502 86.5687 127.641 86.9365 127.894 87.2218C128.147 87.5071 128.495 87.6903 128.873 87.7367C129.251 87.7832 129.634 87.6898 129.948 87.4741C130.262 87.2585 130.487 86.9354 130.579 86.5657C131.4 83.2845 134.537 74.2595 139.137 71.9595C139.321 71.8677 139.484 71.7406 139.619 71.5855C139.753 71.4304 139.856 71.2504 139.921 71.0557C139.985 70.861 140.011 70.6554 139.997 70.4507C139.982 70.246 139.927 70.0462 139.835 69.8626C139.744 69.6791 139.617 69.5154 139.462 69.381C139.306 69.2465 139.126 69.144 138.932 69.0791C138.737 69.0143 138.531 68.9884 138.327 69.003C138.122 69.0176 137.922 69.0723 137.739 69.1642H137.74Z" fill="black"/>
<path d="M106.083 99.7921C106.333 100.042 106.66 100.2 107.011 100.24C107.362 100.28 107.716 100.2 108.016 100.012C110.711 98.1842 113.12 95.967 115.166 93.4328C115.429 93.1131 115.555 92.7017 115.516 92.2891C115.476 91.8765 115.274 91.4965 114.955 91.2328C114.635 90.969 114.224 90.843 113.811 90.8826C113.398 90.9222 113.018 91.124 112.755 91.4437C111.215 93.3149 109.473 95.0106 107.561 96.5C106.391 93.9843 106.848 89.6125 107.158 88.0625C107.212 87.7893 107.193 87.5065 107.101 87.2434C107.01 86.9802 106.85 86.7464 106.637 86.566C106.425 86.3856 106.168 86.2652 105.894 86.2173C105.62 86.1695 105.337 86.1958 105.077 86.2937C91.7187 91.2984 91.5625 102.884 91.5625 103.375C91.5625 103.789 91.7271 104.187 92.0201 104.48C92.3132 104.773 92.7106 104.937 93.125 104.937C93.5394 104.937 93.9368 104.773 94.2299 104.48C94.5229 104.187 94.6875 103.789 94.6875 103.375C94.8926 100.587 95.8382 97.9045 97.4267 95.6044C99.0152 93.3042 101.189 91.4697 103.723 90.2906C103.517 93.1531 103.692 97.4015 106.083 99.7921Z" fill="black"/>
<path d="M84.0631 127.613C85.3615 128.722 86.9066 129.505 88.5693 129.896C90.2321 130.286 91.9642 130.273 93.6209 129.858C93.9319 129.754 94.2022 129.555 94.3938 129.289C94.5853 129.023 94.6883 128.703 94.6881 128.375V123.687C94.6881 123.273 94.5235 122.876 94.2304 122.583C93.9374 122.29 93.54 122.125 93.1256 122.125C92.7112 122.125 92.3137 122.29 92.0207 122.583C91.7277 122.876 91.5631 123.273 91.5631 123.687V127.061C90.3005 127.09 89.0467 126.844 87.8885 126.341C86.7302 125.838 85.6953 125.088 84.8553 124.145C84.6999 123.99 84.5135 123.869 84.3083 123.79C84.103 123.712 83.8835 123.678 83.6641 123.69C83.4447 123.702 83.2303 123.76 83.0349 123.861C82.8395 123.961 82.6676 124.102 82.5303 124.273C80.0662 127.355 76.9193 134.692 82.6459 140.417C82.9406 140.702 83.3353 140.859 83.7449 140.856C84.1546 140.852 84.5465 140.688 84.8362 140.398C85.1259 140.108 85.2903 139.717 85.2938 139.307C85.2974 138.897 85.1399 138.503 84.8553 138.208C81.0506 134.402 82.7928 129.855 84.0631 127.613Z" fill="black"/>
<path d="M134.111 126.863C133.71 126.768 133.288 126.836 132.937 127.051C132.586 127.266 132.334 127.611 132.236 128.011C132.15 128.356 129.964 136.469 114.717 139.339C114.335 139.411 113.992 139.622 113.758 139.932C113.523 140.243 113.413 140.63 113.448 141.017C113.483 141.405 113.662 141.765 113.949 142.028C114.236 142.29 114.611 142.437 115 142.438C115.097 142.437 115.195 142.428 115.29 142.409C132.697 139.128 135.178 129.147 135.275 128.723C135.364 128.323 135.293 127.902 135.075 127.554C134.857 127.206 134.511 126.957 134.111 126.863Z" fill="black"/>
<path d="M124.637 91.5703C122.618 94.4353 120.122 96.9316 117.256 98.95C117.085 99.0639 116.939 99.2103 116.825 99.3808C116.71 99.5513 116.631 99.7427 116.591 99.9439C116.551 100.145 116.55 100.352 116.59 100.554C116.63 100.755 116.709 100.946 116.823 101.117C117.053 101.462 117.411 101.701 117.817 101.782C118.018 101.823 118.226 101.823 118.427 101.783C118.628 101.743 118.82 101.664 118.99 101.55C122.203 99.3087 124.994 96.5173 127.236 93.3047C127.354 93.1341 127.437 92.9416 127.48 92.7386C127.523 92.5356 127.525 92.3261 127.486 92.1223C127.447 91.9185 127.368 91.7245 127.253 91.5516C127.138 91.3787 126.99 91.2304 126.817 91.1153C126.645 91.0003 126.451 90.9207 126.247 90.8814C126.043 90.842 125.834 90.8437 125.631 90.8862C125.428 90.9286 125.235 91.0112 125.064 91.1289C124.893 91.2466 124.748 91.3972 124.636 91.5719L124.637 91.5703Z" fill="black"/>
<path d="M60.3125 51.8125H58.75C58.3356 51.8125 57.9382 51.9771 57.6451 52.2701C57.3521 52.5632 57.1875 52.9606 57.1875 53.375C57.1875 53.7894 57.3521 54.1868 57.6451 54.4799C57.9382 54.7729 58.3356 54.9375 58.75 54.9375H60.3125C60.7269 54.9375 61.1243 54.7729 61.4174 54.4799C61.7104 54.1868 61.875 53.7894 61.875 53.375C61.875 52.9606 61.7104 52.5632 61.4174 52.2701C61.1243 51.9771 60.7269 51.8125 60.3125 51.8125Z" fill="black"/>
<path d="M66.5625 51.8125H65C64.5856 51.8125 64.1882 51.9771 63.8951 52.2701C63.6021 52.5632 63.4375 52.9606 63.4375 53.375C63.4375 53.7894 63.6021 54.1868 63.8951 54.4799C64.1882 54.7729 64.5856 54.9375 65 54.9375H66.5625C66.9769 54.9375 67.3743 54.7729 67.6674 54.4799C67.9604 54.1868 68.125 53.7894 68.125 53.375C68.125 52.9606 67.9604 52.5632 67.6674 52.2701C67.3743 51.9771 66.9769 51.8125 66.5625 51.8125Z" fill="black"/>
</g>
<defs>
<clipPath id="clip0_319_2256">
<rect width="100" height="100" fill="white" transform="translate(40 44)"/>
</clipPath>
</defs>
</svg>
