<svg width="180" height="250" viewBox="0 0 180 250" fill="none" xmlns="http://www.w3.org/2000/svg">
<rect width="180" height="250" rx="20" fill="white"/>
<path d="M33.3984 189.639V201.311H31.166V195.58H28.5469V193.77H31.166V189.639H33.3984ZM19.8281 197.707C22.4736 196.881 23.6689 194.798 23.6777 192.75V192.504H20.4609V190.711H29.1445V192.504H25.9629V192.768C25.9541 194.622 27.0967 196.6 29.6367 197.426L28.5293 199.201C26.7627 198.621 25.541 197.461 24.8467 196.028C24.1348 197.619 22.8604 198.911 20.9707 199.535L19.8281 197.707ZM22.7812 205.336V200.291H25.0312V203.543H33.7852V205.336H22.7812ZM41.3789 192.363C41.3701 194.411 42.5303 196.397 45.123 197.232L43.9453 198.99C42.1963 198.401 40.9834 197.259 40.2891 195.8C39.5771 197.399 38.3027 198.656 36.457 199.289L35.209 197.514C37.9424 196.67 39.1113 194.525 39.1289 192.346V190.605H41.3789V192.363ZM37.7754 205.336V200.186H40.0605V203.543H48.7617V205.336H37.7754ZM45.9141 201.346V189.621H48.1641V194.244H50.3262V196.143H48.1641V201.346H45.9141ZM60.5215 191.045V192.82H51.0293V191.045H54.668V189.533H56.9004V191.045H60.5215ZM51.8027 196.283C51.8027 194.525 53.4551 193.339 55.7754 193.33C58.1045 193.339 59.7129 194.525 59.7129 196.283C59.7129 198.041 58.1045 199.228 55.7754 199.236C53.4551 199.228 51.8027 198.041 51.8027 196.283ZM52.9453 202.119V200.326H63.7207V205.617H61.4707V202.119H52.9453ZM54 196.283C53.9912 197.101 54.7031 197.522 55.7754 197.514C56.8564 197.522 57.5859 197.101 57.5859 196.283C57.5859 195.457 56.8564 195.018 55.7754 195.018C54.7031 195.018 53.9912 195.457 54 196.283ZM61.4707 199.658V189.621H63.7207V193.77H65.8828V195.598H63.7207V199.658H61.4707ZM74.4258 201.293C73.1074 201.293 72.0527 200.238 72.0527 198.92C72.0527 197.619 73.1074 196.564 74.4258 196.564C75.7266 196.564 76.7812 197.619 76.7812 198.92C76.7812 200.238 75.7266 201.293 74.4258 201.293ZM91.7227 190.412C91.7227 194.78 89.5957 197.707 84.375 199.289L83.5137 197.514C85.7109 196.89 87.1787 196.037 88.0928 194.991L83.8301 195.299L83.5137 193.541L89.042 193.365C89.1738 192.996 89.2617 192.609 89.3145 192.205H84.3223V190.412H91.7227ZM86.1328 205.441V199.465H96.7324V205.441H86.1328ZM88.3301 203.648H94.5176V201.24H88.3301V203.648ZM91.6172 195.439V193.611H94.5V189.639H96.7324V198.762H94.5V195.439H91.6172ZM112.148 190.359V192.152H110.039V195.686H112.008V197.479H100.213V195.686H102.199V192.152H100.125V190.359H112.148ZM98.7891 200.643V198.832H113.432V200.643H110.074V205.617H107.842V200.643H104.502V205.617H102.217V200.643H98.7891ZM104.449 195.686H107.824V192.152H104.449V195.686ZM127.863 189.621V205.652H125.648V197.074H122.836V195.264H125.648V189.621H127.863ZM115.102 202.031V190.957H122.572V192.768H117.334V195.422H121.992V197.18H117.334V200.203C119.558 200.186 121.333 200.106 123.311 199.799L123.539 201.592C121.201 201.943 119.109 202.022 116.367 202.031H115.102ZM137.127 199.588C140.625 199.588 142.822 200.695 142.84 202.611C142.822 204.501 140.625 205.626 137.127 205.617C133.655 205.626 131.423 204.501 131.432 202.611C131.423 200.695 133.655 199.588 137.127 199.588ZM129.955 198.568V196.758H135.404V193.963H137.619V196.758H144.475V198.568H129.955ZM131.59 192.1V190.342H142.752V191.643C142.761 192.917 142.761 194.288 142.295 195.932L140.098 195.721C140.458 194.271 140.502 193.189 140.52 192.1H131.59ZM133.664 202.611C133.655 203.473 134.921 203.912 137.127 203.912C139.333 203.912 140.607 203.473 140.607 202.611C140.607 201.724 139.333 201.249 137.127 201.258C134.921 201.249 133.655 201.724 133.664 202.611ZM154.969 191.045V192.82H145.477V191.045H149.115V189.533H151.348V191.045H154.969ZM146.25 196.283C146.25 194.525 147.902 193.339 150.223 193.33C152.552 193.339 154.16 194.525 154.16 196.283C154.16 198.041 152.552 199.228 150.223 199.236C147.902 199.228 146.25 198.041 146.25 196.283ZM147.393 202.119V200.326H158.168V205.617H155.918V202.119H147.393ZM148.447 196.283C148.438 197.101 149.15 197.522 150.223 197.514C151.304 197.522 152.033 197.101 152.033 196.283C152.033 195.457 151.304 195.018 150.223 195.018C149.15 195.018 148.438 195.457 148.447 196.283ZM155.918 199.658V189.621H158.168V193.77H160.33V195.598H158.168V199.658H155.918Z" fill="black"/>
<g clip-path="url(#clip0_319_2188)">
<path d="M133.582 124.309H46.4185C43.6837 124.309 41.4668 122.092 41.4668 119.358V111.723H138.534V119.358C138.534 122.092 136.317 124.309 133.582 124.309Z" fill="#D9E7EC"/>
<path d="M41.4668 111.723V61.3755C41.4668 58.6408 43.6837 56.4238 46.4185 56.4238H133.582C136.317 56.4238 138.534 58.6408 138.534 61.3755V111.723H41.4668Z" fill="#596C76"/>
<path d="M41.4668 111.723V61.3755C41.4668 58.6408 43.6837 56.4238 46.4185 56.4238H133.582C136.317 56.4238 138.534 58.6408 138.534 61.3755V111.723H41.4668Z" fill="#596C76"/>
<path d="M138.534 61.3749V111.723H134.623V61.3749C134.623 58.6413 132.405 56.4238 129.67 56.4238H133.581C136.316 56.4238 138.534 58.6413 138.534 61.3749Z" fill="#465A61"/>
<path d="M138.534 111.722V119.356C138.534 122.092 136.316 124.309 133.581 124.309H129.67C132.403 124.309 134.621 122.092 134.621 119.356V111.722H138.534Z" fill="#C5D3DD"/>
<path d="M99.4675 124.309H80.5321C80.5321 124.309 80.3549 135.449 78.9375 139.518H101.062C99.6445 135.449 99.4675 124.309 99.4675 124.309Z" fill="#C5D3DD"/>
<path d="M99.606 128.221H80.3926C80.5059 125.959 80.5315 124.31 80.5315 124.31H99.4671C99.4673 124.31 99.4927 125.959 99.606 128.221Z" fill="#C8EFFE"/>
<path d="M99.606 128.221H80.3926C80.5059 125.959 80.5315 124.31 80.5315 124.31H99.4671C99.4673 124.31 99.4927 125.959 99.606 128.221Z" fill="#B6C4CF"/>
<path d="M132.419 111.724H47.5801V65.3165C47.5801 64.1207 48.5496 63.1511 49.7454 63.1511H130.254C131.449 63.1511 132.419 64.1207 132.419 65.3165V111.724Z" fill="#82AEE3"/>
<path d="M132.419 65.3174V111.724H128.508V65.3174C128.508 64.1208 127.538 63.1509 126.344 63.1509H130.255C131.449 63.1509 132.419 64.1208 132.419 65.3174Z" fill="#528FD8"/>
<path d="M83.9375 66.3441V61.6023C83.9375 61.0499 84.3851 60.6023 84.9375 60.6023H88.2346C88.6959 60.6023 89.0924 60.2854 89.2061 59.8383C89.6057 58.2664 90.2284 56.7833 91.0375 55.4245C91.2728 55.0293 91.2149 54.5263 90.8896 54.201L88.5558 51.8672C88.1652 51.4766 88.1652 50.8436 88.5558 50.453L91.9088 47.1C92.2994 46.7094 92.9324 46.7094 93.323 47.1L95.6568 49.4338C95.9821 49.7591 96.4851 49.817 96.8804 49.5817C98.2393 48.7726 99.7222 48.1501 101.294 47.7503C101.741 47.6366 102.058 47.2401 102.058 46.7788V43.4817C102.058 42.9293 102.506 42.4817 103.058 42.4817H107.8C108.352 42.4817 108.8 42.9293 108.8 43.4817V46.7788C108.8 47.2401 109.117 47.6366 109.564 47.7503C111.136 48.1499 112.619 48.7724 113.978 49.5817C114.373 49.817 114.876 49.7591 115.201 49.4338L117.535 47.1C117.926 46.7094 118.559 46.7094 118.949 47.1L122.302 50.453C122.693 50.8436 122.693 51.4766 122.302 51.8672L119.969 54.201C119.643 54.5263 119.585 55.0293 119.821 55.4245C120.63 56.7835 121.252 58.2664 121.652 59.8383C121.766 60.2854 122.162 60.6023 122.624 60.6023H125.921C126.473 60.6023 126.921 61.0499 126.921 61.6023V66.3441C126.921 66.8965 126.473 67.3441 125.921 67.3441H122.624C122.162 67.3441 121.766 67.6611 121.652 68.1081C121.253 69.6801 120.63 71.1631 119.821 72.5219C119.585 72.9171 119.643 73.4201 119.969 73.7454L122.302 76.0792C122.693 76.4698 122.693 77.1029 122.302 77.4935L118.949 80.8464C118.559 81.237 117.926 81.237 117.535 80.8464L115.201 78.5126C114.876 78.1873 114.373 78.1295 113.978 78.3647C112.619 79.1738 111.136 79.7964 109.564 80.1961C109.117 80.3099 108.8 80.7063 108.8 81.1676V84.4647C108.8 85.0171 108.352 85.4647 107.8 85.4647H103.058C102.506 85.4647 102.058 85.0171 102.058 84.4647V81.1676C102.058 80.7063 101.741 80.3099 101.294 80.1961C99.7222 79.7966 98.2393 79.1738 96.8804 78.3647C96.4851 78.1293 95.9821 78.1873 95.6568 78.5126L93.323 80.8464C92.9324 81.237 92.2994 81.237 91.9088 80.8464L88.5558 77.4935C88.1652 77.1029 88.1652 76.4698 88.5558 76.0792L90.8896 73.7454C91.2149 73.4201 91.2728 72.9171 91.0375 72.5219C90.2284 71.1629 89.6059 69.6801 89.2061 68.1081C89.0924 67.6611 88.6959 67.3441 88.2346 67.3441H84.9375C84.3851 67.3441 83.9375 66.8965 83.9375 66.3441Z" fill="#8D9CA8"/>
<path d="M111.137 48.2351C111.058 48.5735 110.545 49.4786 110.346 49.7248C110.04 50.1031 109.53 50.2508 109.064 50.1113C107.296 49.5819 107.036 49.2814 106.25 48.9131C105.862 48.7318 105.6 48.36 105.6 47.9322V42.481H107.799C108.353 42.481 108.799 42.9292 108.799 43.4808V46.779C108.799 47.2392 109.117 47.6374 109.564 47.7509C110.1 47.8865 110.625 48.0479 111.137 48.2351Z" fill="#7A8C98"/>
<path d="M112.845 78.9797C112.067 79.3219 110.649 79.8928 109.74 80.149C109.681 80.1665 109.622 80.1802 109.564 80.1959C109.311 80.2603 109.102 80.4129 108.965 80.6183C108.92 80.6847 108.883 80.759 108.856 80.8373C108.836 80.8881 108.823 80.9428 108.813 80.9977C108.803 81.0525 108.799 81.1111 108.799 81.1679V84.4646C108.799 85.0062 108.369 85.4482 107.833 85.4639H105.1C105.313 85.2761 105.446 84.9984 105.446 84.6915V79.7328C105.446 79.2517 105.778 78.8373 106.243 78.7198C107.888 78.3013 109.429 77.8107 110.848 76.9678C111.261 76.7194 111.787 76.7819 112.127 77.1204L112.845 78.9797Z" fill="#7A8C98"/>
<path d="M119.968 54.2004C119.643 54.5271 119.583 55.029 119.82 55.4253C120.615 56.7598 121.229 58.2157 121.629 59.7593H119.075C118.593 59.7593 118.179 59.4287 118.059 58.9627C117.641 57.3194 116.992 55.77 116.145 54.3499C115.9 53.9376 115.96 53.4118 116.301 53.0712L117.944 51.4277C118.353 51.0194 118.353 50.3582 117.944 49.95L116.313 48.3208L117.534 47.1002C117.924 46.7098 118.558 46.7098 118.948 47.1002L122.302 50.4543C122.692 50.8447 122.692 51.476 122.302 51.8684L119.968 54.2004Z" fill="#7A8C98"/>
<path d="M126.92 61.6016V66.344C126.92 66.8958 126.474 67.3439 125.92 67.3439H122.624C122.162 67.3439 121.765 67.6606 121.652 68.1086C121.251 69.6802 120.63 71.164 119.821 72.5224C119.584 72.9167 119.644 73.4206 119.969 73.7453L122.303 76.0797C122.693 76.4701 122.693 77.1034 122.303 77.4938L118.949 80.8457C118.558 81.2361 117.925 81.2361 117.535 80.8457L115.997 79.3088L117.982 77.4029C118.39 76.9945 118.39 76.3333 117.982 75.9251L115.904 73.9075C115.564 73.5669 115.504 73.0411 115.749 72.6289C116.595 71.2087 118.37 67.0785 118.789 65.4374C118.908 64.9694 119.322 64.6386 119.805 64.6386H122.416C122.993 64.6386 123.546 64.1707 123.546 63.5929V60.6018H125.92C126.474 60.6018 126.92 61.05 126.92 61.6016Z" fill="#7A8C98"/>
<path d="M105.429 73.8748C110.897 73.8748 115.33 69.4418 115.33 63.9734C115.33 58.505 110.897 54.072 105.429 54.072C99.9603 54.072 95.5273 58.505 95.5273 63.9734C95.5273 69.4418 99.9603 73.8748 105.429 73.8748Z" fill="#596C76"/>
<path d="M115.331 63.9724C115.331 69.4415 110.898 73.8744 105.429 73.8744C103.09 73.8744 100.939 73.0629 99.2441 71.7059C100.204 72.0148 101.227 72.183 102.289 72.183C107.756 72.183 112.189 67.7503 112.189 62.2811C112.189 59.1544 110.74 56.3661 108.477 54.5515C112.454 55.8362 115.331 59.569 115.331 63.9724Z" fill="#465A61"/>
<path d="M105.429 68.4197C107.885 68.4197 109.876 66.429 109.876 63.9732C109.876 61.5174 107.885 59.5266 105.429 59.5266C102.973 59.5266 100.982 61.5174 100.982 63.9732C100.982 66.429 102.973 68.4197 105.429 68.4197Z" fill="#D9E7EC"/>
<path d="M109.875 63.9724C109.875 66.4283 107.885 68.4209 105.428 68.4209C103.649 68.4209 102.112 67.3748 101.402 65.8632C101.852 66.0176 102.337 66.1018 102.839 66.1018C105.295 66.1018 107.288 64.1113 107.288 61.6552C107.288 60.9788 107.138 60.3373 106.866 59.7644C108.616 60.3609 109.875 62.021 109.875 63.9724Z" fill="#C5D3DD"/>
<path d="M53.4727 90.6581V87.0267C53.4727 86.6036 53.8156 86.2609 54.2384 86.2609H56.7635C57.1167 86.2609 57.4204 86.0182 57.5075 85.6757C57.8135 84.4719 58.2903 83.3363 58.9101 82.2956C59.0902 81.9929 59.0459 81.6076 58.7969 81.3585L57.0097 79.5712C56.7105 79.2721 56.7105 78.7873 57.0097 78.4882L59.5775 75.9203C59.8767 75.6212 60.3614 75.6212 60.6606 75.9203L62.4479 77.7076C62.697 77.9567 63.0823 78.0011 63.385 77.8207C64.4256 77.2011 65.5613 76.7244 66.7651 76.4182C67.1076 76.331 67.3503 76.0276 67.3503 75.6741V73.149C67.3503 72.726 67.6932 72.3833 68.116 72.3833H71.7474C72.1704 72.3833 72.5132 72.7262 72.5132 73.149V75.6741C72.5132 76.0274 72.7558 76.331 73.0984 76.4182C74.3022 76.7242 75.4378 77.2009 76.4785 77.8207C76.7811 78.0009 77.1665 77.9565 77.4156 77.7076L79.2028 75.9203C79.502 75.6212 79.9868 75.6212 80.2859 75.9203L82.8538 78.4882C83.1529 78.7873 83.1529 79.2721 82.8538 79.5712L81.0665 81.3585C80.8174 81.6076 80.773 81.9929 80.9534 82.2956C81.573 83.3363 82.0497 84.4719 82.3559 85.6757C82.4431 86.0182 82.7465 86.2609 83.1 86.2609H85.625C86.0481 86.2609 86.3908 86.6038 86.3908 87.0267V90.6581C86.3908 91.0811 86.0479 91.4238 85.625 91.4238H83.1C82.7467 91.4238 82.4431 91.6665 82.3559 92.009C82.0499 93.2128 81.5732 94.3485 80.9534 95.3891C80.7732 95.6918 80.8176 96.0771 81.0665 96.3262L82.8538 98.1135C83.1529 98.4126 83.1529 98.8974 82.8538 99.1966L80.2859 101.764C79.9868 102.064 79.502 102.064 79.2028 101.764L77.4156 99.9772C77.1665 99.728 76.7811 99.6837 76.4785 99.864C75.4378 100.484 74.3022 100.96 73.0984 101.267C72.7558 101.354 72.5132 101.657 72.5132 102.011V104.536C72.5132 104.959 72.1702 105.301 71.7474 105.301H68.116C67.693 105.301 67.3503 104.959 67.3503 104.536V102.011C67.3503 101.658 67.1076 101.354 66.7651 101.267C65.5613 100.961 64.4256 100.484 63.385 99.8642C63.0823 99.6841 62.697 99.7284 62.4479 99.9773L60.6606 101.765C60.3614 102.064 59.8767 102.064 59.5775 101.765L57.0097 99.1967C56.7105 98.8976 56.7105 98.4128 57.0097 98.1137L58.7969 96.3264C59.0461 96.0773 59.0904 95.692 58.9101 95.3893C58.2905 94.3486 57.8137 93.213 57.5075 92.0092C57.4204 91.6667 57.1169 91.424 56.7635 91.424H54.2384C53.8154 91.4238 53.4727 91.0809 53.4727 90.6581Z" fill="#8D9CA8"/>
<path d="M74.1548 98.8048L74.9756 100.627C74.3734 100.888 73.7456 101.103 73.0985 101.267C72.7563 101.353 72.5138 101.656 72.5138 102.01V104.534C72.5138 104.959 72.1717 105.301 71.7473 105.301H69.2578C69.6803 105.301 70.0224 104.959 70.0224 104.534V100.502C70.0224 100.148 70.2649 99.8453 70.607 99.7591C71.8114 99.4522 72.178 99.3113 73.2182 98.6913C73.5213 98.5115 73.9064 98.5565 74.1548 98.8048Z" fill="#7A8C98"/>
<path d="M73.0991 76.4182C73.7463 76.5825 74.3741 76.7975 74.9763 77.0556L74.2246 78.8311C73.9763 79.0814 73.6007 79.1072 73.2879 78.9447C72.0096 78.2795 71.7122 78.252 70.3922 77.6342C70.0721 77.4843 69.8075 77.2432 69.8075 76.8911V73.1491C69.8075 72.7267 69.4654 72.3845 69.043 72.3845H71.748C72.1724 72.3845 72.5145 72.7267 72.5145 73.1491V75.6753C72.5143 76.027 72.7568 76.3301 73.0991 76.4182Z" fill="#7A8C98"/>
<path d="M80.0759 85.6748C79.6021 85.6748 79.1904 85.3638 79.045 84.9128C78.7476 83.9907 78.3488 83.1138 77.8629 82.2959C77.6809 81.9928 77.7261 81.6077 77.9742 81.3574L79.7615 79.5702C80.0606 79.271 80.0606 78.786 79.7615 78.4889L78.1972 76.9245L79.2023 75.9194C79.5014 75.6203 79.9864 75.6203 80.2855 75.9194L82.8528 78.4887C83.152 78.7859 83.152 79.2708 82.8528 79.57L81.0656 81.3572C80.8172 81.6075 80.7723 81.9926 80.952 82.2957C81.5718 83.336 82.049 84.472 82.3559 85.6746H80.0759V85.6748Z" fill="#7A8C98"/>
<path d="M82.7843 91.4902C82.575 91.586 82.4148 91.7737 82.356 92.0084C82.049 93.2128 81.5719 94.349 80.9521 95.3893C80.7721 95.6924 80.8173 96.0777 81.0656 96.3258L82.8529 98.1131C83.152 98.4122 83.152 98.8972 82.8529 99.1964L80.2856 101.764C79.9865 102.063 79.5015 102.063 79.2023 101.764L78.1992 100.761L79.7616 99.1964C80.0607 98.8972 80.0607 98.4122 79.7616 98.1131L77.9743 96.3258C77.7259 96.0775 77.681 95.6924 77.8629 95.3893C78.4808 94.349 78.9579 93.213 79.2649 92.0084C79.2828 91.9373 79.3102 91.8589 79.3456 91.7835C79.4311 91.6012 79.6203 91.4902 79.8215 91.4902H82.7843Z" fill="#7A8C98"/>
<path d="M86.3907 87.026V90.657C86.3907 91.0814 86.0486 91.4236 85.6242 91.4236H83.0999C83.0569 91.4236 83.0139 91.4275 82.9709 91.4353C82.9709 91.4353 83.2994 91.1744 83.2994 90.657V87.026C83.2994 86.7289 83.1292 86.3887 82.8828 86.2634C82.8828 86.2634 83.0647 86.2615 83.0999 86.2615H85.6242C86.0486 86.2615 86.3907 86.6038 86.3907 87.026Z" fill="#7A8C98"/>
<path d="M69.9331 95.1347C73.4083 95.1347 76.2255 92.3175 76.2255 88.8423C76.2255 85.367 73.4083 82.5498 69.9331 82.5498C66.4578 82.5498 63.6406 85.367 63.6406 88.8423C63.6406 92.3175 66.4578 95.1347 69.9331 95.1347Z" fill="#D9E7EC"/>
<path d="M76.2241 88.8427C76.2241 92.3173 73.4063 95.1351 69.9316 95.1351C67.8237 95.1351 65.9583 94.0987 64.8164 92.509C65.5966 92.8551 66.4608 93.0487 67.3702 93.0487C70.8468 93.0487 73.6625 90.2311 73.6625 86.7564C73.6625 85.3877 73.2263 84.1225 72.4854 83.0901C74.6871 84.0696 76.2241 86.2773 76.2241 88.8427Z" fill="#C5D3DD"/>
<path d="M93.3377 119.482C94.1478 119.482 94.8042 118.826 94.8042 118.016C94.8042 117.206 94.1477 116.549 93.3377 116.549H86.6617C85.8518 116.549 85.1953 117.206 85.1953 118.016C85.1953 118.826 85.8518 119.482 86.6617 119.482H93.3377Z" fill="black"/>
<path d="M133.582 54.9572H121.285L123.339 52.904C124.3 51.9421 124.3 50.3776 123.339 49.4157L119.986 46.0627C119.024 45.101 117.459 45.101 116.497 46.0627L114.419 48.1417C113.108 47.3961 111.714 46.8179 110.266 46.4193V43.4818C110.266 42.1218 109.159 41.0151 107.799 41.0151H103.057C101.697 41.0151 100.591 42.1216 100.591 43.4818V46.4191C99.1421 46.8177 97.7481 47.3959 96.4376 48.1417L94.3588 46.0627C93.3967 45.101 91.8326 45.101 90.8705 46.0627L87.5177 49.4157C86.556 50.3776 86.556 51.9421 87.5177 52.904L89.5713 54.9572H46.4183C42.8791 54.9572 40 57.8366 40 61.3757V119.358C40 122.897 42.8791 125.776 46.4183 125.776H60.0183C60.8282 125.776 61.4847 125.119 61.4847 124.309C61.4847 123.499 60.8282 122.843 60.0183 122.843H46.4183C44.4966 122.843 42.9331 121.279 42.9331 119.358V113.189H47.5807H137.067V119.358C137.067 121.279 135.504 122.843 133.582 122.843H66.9907C66.1808 122.843 65.5242 123.499 65.5242 124.309C65.5242 125.119 66.1808 125.776 66.9907 125.776H79.0285C78.9194 129.123 78.5857 134.914 77.8338 138.052H72.7515C71.9415 138.052 71.285 138.708 71.285 139.518C71.285 140.328 71.9415 140.985 72.7515 140.985H107.249C108.059 140.985 108.715 140.328 108.715 139.518C108.715 138.708 108.059 138.052 107.249 138.052H102.167C101.415 134.915 101.081 129.124 100.972 125.776H133.582C137.121 125.776 140 122.897 140 119.358V61.3757C140 57.8366 137.121 54.9572 133.582 54.9572ZM80.8345 138.052C81.6102 134.254 81.8769 128.46 81.9621 125.776H98.0379C98.1231 128.46 98.3898 134.254 99.1655 138.052H80.8345ZM91.9258 53.1639L89.9217 51.16L92.615 48.4669L94.6191 50.471C95.4179 51.2694 96.6557 51.4218 97.6297 50.8417C98.8881 50.0923 100.242 49.5306 101.655 49.1716C102.755 48.8914 103.524 47.9076 103.524 46.7789V43.9484H107.333V46.7789C107.333 47.9076 108.101 48.8916 109.202 49.1716C110.615 49.5308 111.969 50.0929 113.226 50.8413C114.201 51.422 115.439 51.2698 116.238 50.4708L118.242 48.4669L120.935 51.16L118.931 53.1643C118.133 53.9627 117.98 55.2007 118.56 56.1751C119.309 57.4325 119.871 58.7868 120.23 60.1994C120.51 61.3003 121.494 62.0692 122.623 62.0692H125.453V65.878H122.623C121.494 65.878 120.51 66.6468 120.23 67.7471C119.871 69.16 119.309 70.5141 118.56 71.772C117.98 72.7462 118.133 73.9845 118.931 74.7828L120.935 76.7868L118.242 79.4799L116.238 77.4757C115.439 76.6772 114.201 76.525 113.227 77.1049C111.969 77.854 110.615 78.416 109.202 78.7751C108.101 79.0549 107.333 80.0387 107.333 81.1677V83.9982H103.524V81.1677C103.524 80.0385 102.755 79.0545 101.654 78.7751C100.242 78.4158 98.8875 77.854 97.6295 77.1047C96.6555 76.5252 95.4177 76.6776 94.6187 77.4757L92.615 79.4799L89.9217 76.7868L91.9258 74.7828C92.7244 73.9841 92.8768 72.7459 92.2967 71.7718C91.5475 70.5139 90.9858 69.1598 90.6266 67.7473C90.347 66.6466 89.363 65.878 88.2338 65.878H85.4034V62.0692H88.2338C89.363 62.0692 90.347 61.3003 90.6266 60.1996C90.9858 58.7869 91.5475 57.4329 92.2965 56.1751C92.8766 55.2011 92.7244 53.9631 91.9258 53.1639ZM46.1141 65.3156V110.256H42.9331V61.3757C42.9331 59.454 44.4964 57.8905 46.4183 57.8905H88.268C88.1225 58.3008 87.99 58.7158 87.8743 59.1361H84.937C83.5768 59.1361 82.4705 60.2426 82.4705 61.6026V61.6839H49.746C47.7434 61.6837 46.1141 63.3128 46.1141 65.3156ZM130.953 110.256H49.0471V65.3156C49.0471 64.9303 49.3607 64.6167 49.746 64.6167H82.4703V66.3442C82.4703 67.7041 83.5768 68.8108 84.9368 68.8108H87.8741C88.2729 70.2597 88.8509 71.6534 89.5967 72.9637L87.5179 75.0425C86.5562 76.0044 86.5562 77.5689 87.5179 78.5309L90.8707 81.8838C91.8328 82.8455 93.3969 82.8455 94.359 81.8838L96.4378 79.805C97.7476 80.5507 99.1415 81.1288 100.591 81.5278V84.4652C100.591 85.8251 101.697 86.9316 103.057 86.9316H107.799C109.159 86.9316 110.266 85.8253 110.266 84.4652V81.5276C111.715 81.1288 113.109 80.5507 114.419 79.805L116.498 81.8838C117.46 82.8455 119.024 82.8455 119.986 81.8838L123.339 78.5309C124.301 77.5691 124.301 76.0044 123.339 75.0425L121.26 72.9637C122.005 71.654 122.584 70.2603 122.982 68.8108H125.92C127.28 68.8108 128.387 67.7043 128.387 66.3442V64.6167H130.254C130.64 64.6167 130.953 64.9303 130.953 65.3156V110.256H130.953ZM137.067 110.256H133.886V65.3156C133.886 63.3128 132.257 61.6837 130.254 61.6837H128.386V61.6024C128.386 60.2424 127.28 59.1359 125.92 59.1359H122.982C122.867 58.7156 122.734 58.3006 122.589 57.8903H133.582C135.504 57.8903 137.067 59.4538 137.067 61.3755V110.256Z" fill="black"/>
<path d="M105.429 75.341C111.697 75.341 116.797 70.2414 116.797 63.9732C116.797 57.7048 111.697 52.6052 105.429 52.6052C104.368 52.6052 103.318 52.7514 102.307 53.0394C101.528 53.2614 101.077 54.073 101.299 54.8519C101.521 55.6307 102.332 56.0819 103.111 55.8601C103.86 55.6463 104.64 55.5381 105.429 55.5381C110.079 55.5381 113.863 59.3221 113.863 63.973C113.863 68.624 110.079 72.4078 105.429 72.4078C100.777 72.4078 96.9936 68.624 96.9936 63.973C96.9936 62.2825 97.4915 60.6521 98.4334 59.2578C98.8868 58.5868 98.7103 57.6751 98.0391 57.2216C97.3682 56.7683 96.4563 56.9447 96.0029 57.6159C94.7321 59.4968 94.0605 61.6949 94.0605 63.9728C94.0605 70.2416 99.1601 75.341 105.429 75.341Z" fill="black"/>
<path d="M111.342 63.9733C111.342 60.7128 108.689 58.0603 105.429 58.0603C102.168 58.0603 99.5156 60.7128 99.5156 63.9733C99.5156 67.2338 102.168 69.8863 105.429 69.8863C108.689 69.8863 111.342 67.2338 111.342 63.9733ZM102.448 63.9733C102.448 62.3302 103.785 60.9934 105.428 60.9934C107.071 60.9934 108.408 62.3302 108.408 63.9733C108.408 65.6164 107.071 66.9532 105.428 66.9532C103.785 66.9532 102.448 65.6166 102.448 63.9733Z" fill="black"/>
<path d="M85.6241 84.7943H83.6336C83.3493 83.8316 82.9634 82.9008 82.4816 82.017L83.89 80.6084C84.3118 80.1867 84.5441 79.6262 84.5441 79.0298C84.5441 78.4337 84.312 77.8733 83.8902 77.4512L81.3225 74.8836C80.4522 74.0131 79.036 74.0129 78.1655 74.8836L76.7569 76.2922C75.873 75.8103 74.9423 75.4244 73.9794 75.1401V73.1497C73.9794 71.9187 72.978 70.9175 71.747 70.9175H68.1157C66.8849 70.9175 65.8833 71.9189 65.8833 73.1497V75.1401C64.9204 75.4242 63.9899 75.8103 63.1058 76.2922L61.6972 74.8836C60.8269 74.0131 59.4107 74.0133 58.5402 74.8836L55.9722 77.4516C55.1023 78.3221 55.1023 79.7383 55.9725 80.6084L57.3811 82.017C56.8993 82.9008 56.5134 83.8312 56.2289 84.7943H54.2382C53.0073 84.7943 52.0059 85.7959 52.0059 87.0267V90.6581C52.0059 91.8891 53.0073 92.8903 54.2382 92.8903H56.2287C56.5132 93.8535 56.8993 94.7846 57.3809 95.6678L55.972 97.0766C55.1021 97.947 55.1021 99.3632 55.9723 100.233L58.5398 102.801C58.9615 103.223 59.5223 103.455 60.1186 103.455C60.7151 103.455 61.2757 103.222 61.6972 102.801L63.1058 101.392C63.9899 101.874 64.9206 102.261 65.8833 102.545V104.535C65.8833 105.766 66.8847 106.767 68.1157 106.767H71.747C72.9778 106.767 73.9794 105.766 73.9794 104.535V102.545C74.9423 102.26 75.8728 101.875 76.7569 101.392L78.1651 102.801C78.5868 103.222 79.1476 103.455 79.7439 103.455C80.3404 103.455 80.901 103.222 81.3225 102.801L83.89 100.233C84.3118 99.8117 84.5441 99.2511 84.5441 98.6547C84.5441 98.0586 84.312 97.4982 83.8902 97.0762L82.4816 95.6678C82.9634 94.7838 83.3495 93.8533 83.6336 92.8903H85.6241C86.8549 92.8903 87.8564 91.8889 87.8564 90.6581V87.0267C87.8564 85.7957 86.8551 84.7943 85.6241 84.7943ZM84.9234 89.9572H83.0992C82.0775 89.9572 81.1871 90.6522 80.9339 91.6477C80.6669 92.6976 80.2494 93.7039 79.6925 94.639C79.1681 95.5201 79.3062 96.6404 80.029 97.3634L81.3207 98.6549L79.7439 100.232L78.4524 98.9402C77.7296 98.2173 76.6092 98.0791 75.728 98.6037C74.7928 99.1606 73.7866 99.5782 72.7365 99.8449C71.7414 100.098 71.0464 100.989 71.0464 102.01V103.834H68.8163V102.01C68.8163 100.988 68.1213 100.098 67.1258 99.8449C66.0761 99.5782 65.0699 99.1606 64.1349 98.6039C63.2535 98.0789 62.1331 98.2173 61.4105 98.94L60.1186 100.232L58.5418 98.6549L59.8337 97.3632C60.5561 96.6406 60.6944 95.5204 60.1698 94.6386C59.6131 93.7043 59.1956 92.698 58.9286 91.6479C58.6758 90.6526 57.7854 89.9572 56.7633 89.9572H54.9389V87.7272H56.7631C57.7852 87.7272 58.6756 87.0322 58.9283 86.0368C59.1954 84.9868 59.6129 83.9805 60.1698 83.0454C60.6942 82.1643 60.5561 81.0441 59.8333 80.3212L58.5414 79.0294L60.1182 77.4526L61.4099 78.7444C62.1327 79.4673 63.2531 79.6056 64.1343 79.0808C65.0695 78.524 66.0757 78.1064 67.1256 77.8395C68.1209 77.5865 68.8159 76.696 68.8159 75.6743V73.8501H71.046V75.6743C71.046 76.696 71.741 77.5865 72.7361 77.8395C73.786 78.1064 74.7924 78.524 75.7272 79.0806C76.6088 79.6058 77.7292 79.4671 78.4516 78.7445L79.7433 77.4526L81.3201 79.0294L80.0282 80.3214C79.3056 81.0443 79.1673 82.1647 79.6921 83.0456C80.249 83.9807 80.6666 84.9872 80.9335 86.037C81.1865 87.0322 82.0769 87.7272 83.0988 87.7272H84.923V89.9572H84.9234Z" fill="black"/>
<path d="M69.9309 81.083C65.6526 81.083 62.1719 84.5637 62.1719 88.8421C62.1719 93.1204 65.6526 96.6012 69.9309 96.6012C74.2093 96.6012 77.69 93.1204 77.69 88.8421C77.69 84.5637 74.2095 81.083 69.9309 81.083ZM69.9309 93.6681C67.2699 93.6681 65.1049 91.5033 65.1049 88.8421C65.1049 86.1808 67.2699 84.0161 69.9309 84.0161C72.592 84.0161 74.757 86.1808 74.757 88.8421C74.757 91.5033 72.5922 93.6681 69.9309 93.6681Z" fill="black"/>
</g>
<defs>
<clipPath id="clip0_319_2188">
<rect width="100" height="100" fill="white" transform="translate(40 41)"/>
</clipPath>
</defs>
</svg>
