<svg width="180" height="250" viewBox="0 0 180 250" fill="none" xmlns="http://www.w3.org/2000/svg">
<rect width="180" height="250" rx="20" fill="white"/>
<path d="M64.7676 189.363C64.7588 191.411 65.9189 193.397 68.5117 194.232L67.334 195.99C65.585 195.401 64.3721 194.259 63.6777 192.8C62.9658 194.399 61.6914 195.656 59.8457 196.289L58.5977 194.514C61.3311 193.67 62.5 191.525 62.5176 189.346V187.605H64.7676V189.363ZM61.1641 202.336V197.186H63.4492V200.543H72.1504V202.336H61.1641ZM69.3027 198.346V186.621H71.5527V191.244H73.7148V193.143H71.5527V198.346H69.3027ZM78.8828 187.307C80.9219 187.289 82.5479 188.458 82.9873 190.172H85.668V186.621H87.9004V195.217H85.668V191.965H82.9961C82.583 193.723 80.9395 194.918 78.8828 194.918C76.4219 194.918 74.6113 193.318 74.6289 191.086C74.6113 188.897 76.4219 187.289 78.8828 187.307ZM76.7559 191.086C76.7471 192.281 77.626 193.037 78.8828 193.037C80.0957 193.037 80.9658 192.281 80.9746 191.086C80.9658 189.891 80.0957 189.161 78.8828 189.17C77.626 189.161 76.7471 189.891 76.7559 191.086ZM77.2305 202.441V195.92H79.4453V197.467H85.668V195.92H87.9004V202.441H77.2305ZM79.4453 200.631H85.668V199.189H79.4453V200.631ZM97.1816 196.588C100.68 196.588 102.877 197.695 102.895 199.611C102.877 201.501 100.68 202.626 97.1816 202.617C93.71 202.626 91.4775 201.501 91.4863 199.611C91.4775 197.695 93.71 196.588 97.1816 196.588ZM90.0098 195.568V193.758H95.459V190.963H97.6738V193.758H104.529V195.568H90.0098ZM91.6445 189.1V187.342H102.807V188.643C102.815 189.917 102.815 191.288 102.35 192.932L100.152 192.721C100.513 191.271 100.557 190.189 100.574 189.1H91.6445ZM93.7188 199.611C93.71 200.473 94.9756 200.912 97.1816 200.912C99.3877 200.912 100.662 200.473 100.662 199.611C100.662 198.724 99.3877 198.249 97.1816 198.258C94.9756 198.249 93.71 198.724 93.7188 199.611ZM115.023 188.045V189.82H105.531V188.045H109.17V186.533H111.402V188.045H115.023ZM106.305 193.283C106.305 191.525 107.957 190.339 110.277 190.33C112.606 190.339 114.215 191.525 114.215 193.283C114.215 195.041 112.606 196.228 110.277 196.236C107.957 196.228 106.305 195.041 106.305 193.283ZM107.447 199.119V197.326H118.223V202.617H115.973V199.119H107.447ZM108.502 193.283C108.493 194.101 109.205 194.522 110.277 194.514C111.358 194.522 112.088 194.101 112.088 193.283C112.088 192.457 111.358 192.018 110.277 192.018C109.205 192.018 108.493 192.457 108.502 193.283ZM115.973 196.658V186.621H118.223V190.77H120.385V192.598H118.223V196.658H115.973Z" fill="black"/>
<g clip-path="url(#clip0_319_2175)">
<path d="M115.263 80.1431V84.6995C115.263 86.2962 114.137 87.6706 112.571 87.9837L104.22 89.654C103.638 91.7319 102.814 93.7075 101.777 95.5485L106.502 102.636C107.387 103.964 107.212 105.733 106.083 106.862L102.861 110.084C101.732 111.213 99.9637 111.388 98.6352 110.502L91.548 105.778C89.707 106.815 87.7316 107.639 85.6535 108.22L83.9832 116.571C83.6701 118.137 82.2955 119.264 80.699 119.264H76.1426C74.5459 119.264 73.1715 118.137 72.8584 116.571L71.1881 108.22C69.1102 107.639 67.1346 106.815 65.2936 105.778L58.2064 110.502C56.8779 111.388 55.1092 111.213 53.9803 110.084L50.7584 106.862C49.6295 105.733 49.4545 103.964 50.3398 102.636L55.0645 95.5485C54.0273 93.7075 53.2033 91.7321 52.6219 89.654L44.2705 87.9837C42.7051 87.6706 41.5781 86.296 41.5781 84.6995V80.1431C41.5781 78.5464 42.7051 77.172 44.2705 76.8589L52.6219 75.1886C53.2033 73.1106 54.0273 71.1351 55.0645 69.294L50.3408 62.2067C49.4551 60.8782 49.6303 59.1095 50.7594 57.9806L53.9813 54.7587C55.1102 53.6298 56.8789 53.4548 58.2074 54.3401L65.2945 59.0647C67.1355 58.0276 69.1109 57.2036 71.1891 56.6224L72.8594 48.271C73.1725 46.7056 74.5471 45.5786 76.1436 45.5786H80.7C82.2967 45.5786 83.6711 46.7056 83.9842 48.271L85.6545 56.6224C87.7324 57.2038 89.708 58.0278 91.549 59.0647L98.6361 54.3401C99.9646 53.4544 101.733 53.6296 102.862 54.7587L106.084 57.9806C107.213 59.1095 107.388 60.8782 106.503 62.2067L101.778 69.2938C102.815 71.1349 103.639 73.1105 104.221 75.1884L112.572 76.8587C114.137 77.172 115.263 78.5464 115.263 80.1431Z" fill="#BFBFBF"/>
<path d="M94.5914 82.4212C94.5914 91.3515 87.352 98.5909 78.4217 98.5909C69.4914 98.5909 62.252 91.3515 62.252 82.4212C62.252 73.4909 69.4914 66.2515 78.4217 66.2515C87.352 66.2515 94.5914 73.4909 94.5914 82.4212Z" fill="#E2E2E2"/>
<path d="M86.4625 82.4212C86.4625 86.862 82.8625 90.462 78.4217 90.462C73.9809 90.462 70.3809 86.862 70.3809 82.4212C70.3809 77.9804 73.9809 74.3804 78.4217 74.3804C82.8625 74.3804 86.4625 77.9804 86.4625 82.4212Z" fill="#6D6D6D"/>
<path d="M81.5797 82.4211C81.5797 86.0105 79.2273 89.0498 75.9803 90.0834C72.7334 89.0498 70.3809 86.0105 70.3809 82.4211C70.3809 78.8316 72.7332 75.7924 75.9803 74.7588C79.2273 75.7924 81.5797 78.8316 81.5797 82.4211Z" fill="#999999"/>
<path d="M138.422 116.713V119.708C138.422 120.757 137.681 121.66 136.653 121.866L131.164 122.963C130.782 124.329 130.241 125.627 129.559 126.837L132.664 131.494C133.246 132.367 133.131 133.529 132.389 134.271L130.272 136.388C129.53 137.13 128.368 137.245 127.495 136.663L122.837 133.558C121.628 134.24 120.329 134.781 118.964 135.164L117.866 140.652C117.661 141.681 116.757 142.421 115.708 142.421H112.714C111.665 142.421 110.762 141.68 110.555 140.652L109.458 135.164C108.092 134.782 106.794 134.24 105.584 133.558L100.927 136.663C100.054 137.245 98.8918 137.13 98.1498 136.388L96.0326 134.271C95.2908 133.529 95.1756 132.367 95.7576 131.494L98.8625 126.837C98.1811 125.627 97.6395 124.329 97.2574 122.963L91.7693 121.866C90.7404 121.66 90 120.757 90 119.708V116.713C90 115.664 90.7406 114.761 91.7693 114.555L97.2574 113.457C97.6395 112.092 98.1811 110.793 98.8625 109.584L95.7576 104.927C95.1758 104.054 95.2906 102.891 96.0326 102.149L98.1498 100.032C98.8916 99.2903 100.054 99.1751 100.927 99.7571L105.584 102.862C106.794 102.181 108.092 101.639 109.458 101.257L110.555 95.7688C110.761 94.7399 111.664 93.9995 112.714 93.9995H115.708C116.757 93.9995 117.66 94.7401 117.866 95.7688L118.964 101.257C120.329 101.639 121.628 102.181 122.837 102.862L127.495 99.7571C128.368 99.1753 129.53 99.2901 130.272 100.032L132.389 102.149C133.131 102.891 133.246 104.054 132.664 104.927L129.559 109.584C130.241 110.794 130.782 112.092 131.164 113.457L136.653 114.555C137.681 114.761 138.422 115.664 138.422 116.713Z" fill="#5D7EAC"/>
<path d="M126.316 118.21C126.316 124.896 120.896 130.316 114.211 130.316C107.525 130.316 102.105 124.896 102.105 118.21C102.105 111.525 107.525 106.105 114.211 106.105C120.896 106.105 126.316 111.525 126.316 118.21Z" fill="#ABC5FF"/>
<path d="M121.473 118.211C121.473 122.222 118.222 125.474 114.21 125.474C110.199 125.474 106.947 122.222 106.947 118.211C106.947 114.199 110.199 110.948 114.21 110.948C118.222 110.948 121.473 114.199 121.473 118.211Z" fill="#5D7EAC"/>
<path d="M116.632 118.211C116.632 121.373 114.61 124.062 111.789 125.059C108.969 124.062 106.947 121.373 106.947 118.211C106.947 115.048 108.969 112.36 111.789 111.362C114.61 112.36 116.632 115.048 116.632 118.211Z" fill="#809DED"/>
<path d="M64.6205 77.6713C64.0963 79.1951 63.8307 80.7932 63.8307 82.4209C63.8307 90.4662 70.376 97.0117 78.4215 97.0117C81.516 97.0117 84.4717 96.0557 86.9693 94.2473C87.6756 93.7359 88.6631 93.8937 89.1744 94.6002C89.6857 95.3066 89.5279 96.2938 88.8215 96.8053C85.7816 99.0064 82.1855 100.17 78.4217 100.17C68.6352 100.17 60.673 92.208 60.673 82.4213C60.673 80.4432 60.9967 78.4996 61.6348 76.6445C61.9186 75.8199 62.8166 75.3814 63.6414 75.6652C64.4656 75.9484 64.9039 76.8467 64.6205 77.6713ZM92.0975 91.1945C92.3279 91.3129 92.574 91.3689 92.8166 91.3689C93.39 91.3689 93.9434 91.0555 94.2229 90.5102C95.4963 88.0268 96.1695 85.2297 96.1695 82.4213C96.1695 72.6348 88.2076 64.6727 78.4209 64.6727C73.765 64.6727 69.3656 66.4621 66.0322 69.7117C65.4078 70.3203 65.3951 71.3201 66.0037 71.9443C66.6123 72.5686 67.6119 72.5816 68.2363 71.9729C70.9764 69.3018 74.5932 67.8305 78.4205 67.8305C86.4658 67.8305 93.0113 74.3758 93.0113 82.4213C93.0113 84.7639 92.4734 87.0006 91.4125 89.0693C91.015 89.8449 91.3215 90.7965 92.0975 91.1945ZM91.3252 105.954C90.9516 105.167 90.0096 104.831 89.2219 105.205C87.9402 105.813 86.5965 106.316 85.2281 106.699C84.6557 106.859 84.2219 107.327 84.1055 107.91L82.4352 116.261C82.2703 117.086 81.5402 117.684 80.6992 117.684H76.1428C75.3018 117.684 74.5719 117.086 74.4068 116.261L72.7365 107.91C72.6199 107.327 72.1859 106.859 71.6139 106.699C69.6807 106.158 67.815 105.385 66.0688 104.401C65.5506 104.109 64.9125 104.133 64.418 104.463L57.3309 109.188C56.6313 109.654 55.6918 109.561 55.0969 108.966L51.875 105.744C51.2803 105.15 51.1875 104.21 51.6537 103.51L56.3783 96.4232C56.7082 95.9285 56.7322 95.2906 56.4402 94.7725C55.4564 93.026 54.6834 91.1602 54.1426 89.2273C53.9824 88.6549 53.5146 88.2211 52.9316 88.1047L44.5805 86.4344C43.7559 86.2695 43.1572 85.5395 43.1572 84.6984V80.142C43.1572 79.301 43.7557 78.5711 44.5805 78.4061L52.9316 76.7357C53.5146 76.6191 53.9824 76.1852 54.1426 75.6131C54.6836 73.6799 55.4566 71.8143 56.4402 70.068C56.732 69.55 56.708 68.9119 56.3783 68.4172L51.6541 61.3309C51.1877 60.6311 51.2807 59.6918 51.8754 59.0969L55.0973 55.875C55.692 55.2803 56.6316 55.1875 57.3312 55.6537L64.4184 60.3783C64.9129 60.7082 65.5512 60.732 66.0691 60.4402C67.8154 59.4566 69.6811 58.6836 71.6143 58.1426C72.1867 57.9824 72.6205 57.5146 72.7369 56.9316L74.4072 48.5805C74.5721 47.7559 75.3021 47.1572 76.1432 47.1572H80.6996C81.5406 47.1572 82.2705 47.7557 82.4355 48.5805L84.1059 56.9316C84.2225 57.5146 84.6564 57.9824 85.2285 58.1426C87.1617 58.6836 89.0273 59.4566 90.7736 60.4402C91.2918 60.732 91.9299 60.708 92.4244 60.3783L99.5115 55.6537C100.211 55.1873 101.15 55.2805 101.746 55.875L104.967 59.0969C105.562 59.6916 105.655 60.6311 105.189 61.3309L100.464 68.418C100.134 68.9127 100.11 69.5506 100.402 70.0688C101.386 71.815 102.159 73.6807 102.7 75.6139C102.86 76.1863 103.328 76.6201 103.911 76.7365L112.262 78.4068C113.087 78.5717 113.685 79.3018 113.685 80.1428V84.6992C113.685 85.5402 113.087 86.2701 112.262 86.4352L103.911 88.1055C103.328 88.2221 102.86 88.6561 102.7 89.2283C102.307 90.6307 101.79 92.0063 101.161 93.317C100.783 94.1031 101.115 95.0463 101.901 95.4234C102.687 95.801 103.631 95.4691 104.008 94.683C104.575 93.5 105.062 92.2701 105.461 91.0156L112.881 89.5316C115.176 89.0723 116.842 87.0398 116.842 84.6988V80.1424C116.842 77.8014 115.176 75.7691 112.88 75.3098L105.46 73.8258C104.974 72.2937 104.357 70.8043 103.618 69.3787L107.815 63.082C109.114 61.1342 108.855 58.5189 107.2 56.8635L103.978 53.6416C102.322 51.9863 99.7068 51.7275 97.7592 53.0258L91.4625 57.2234C90.0369 56.4846 88.5475 55.8676 87.0154 55.3809L85.5314 47.9609C85.0727 45.666 83.0402 44 80.6992 44H76.1428C73.8018 44 71.7695 45.666 71.3102 47.9617L69.8262 55.3816C68.2941 55.8684 66.8047 56.4852 65.3791 57.2242L59.0828 53.0266C57.1352 51.7281 54.5197 51.9867 52.8643 53.6424L49.6424 56.8643C47.9871 58.5195 47.7281 61.1348 49.0266 63.0828L53.2242 69.3795C52.4854 70.8051 51.8684 72.2945 51.3816 73.8266L43.9615 75.3105C41.666 75.7695 40 77.802 40 80.143V84.6994C40 87.0404 41.666 89.0727 43.9617 89.532L51.3816 91.016C51.8682 92.5479 52.4852 94.0373 53.2242 95.4631L49.0266 101.76C47.7281 103.708 47.9869 106.323 49.6424 107.978L52.8643 111.2C54.5195 112.855 57.135 113.114 59.0828 111.816L65.3795 107.618C66.8051 108.357 68.2945 108.974 69.8266 109.461L71.3105 116.881C71.7695 119.176 73.802 120.842 76.143 120.842H80.6994C83.0404 120.842 85.0727 119.176 85.532 116.88L87.016 109.461C88.2326 109.074 89.4268 108.604 90.5762 108.058C91.3639 107.684 91.6994 106.742 91.3252 105.954ZM114.211 112.526C117.345 112.526 119.895 115.076 119.895 118.211C119.895 119.083 120.602 119.789 121.474 119.789C122.346 119.789 123.053 119.082 123.053 118.211C123.053 113.335 119.086 109.368 114.21 109.368C109.335 109.368 105.368 113.335 105.368 118.211C105.368 123.086 109.335 127.053 114.21 127.053C116.185 127.053 118.053 126.416 119.613 125.211C120.303 124.678 120.43 123.686 119.897 122.996C119.363 122.306 118.372 122.179 117.682 122.712C116.68 123.486 115.48 123.895 114.21 123.895C111.076 123.895 108.526 121.345 108.526 118.211C108.526 115.076 111.076 112.526 114.211 112.526ZM78.4211 92.0408C73.1166 92.0408 68.8014 87.7252 68.8014 82.4211C68.8014 77.117 73.117 72.8014 78.4211 72.8014C83.7252 72.8014 88.0408 77.117 88.0408 82.4211C88.0408 87.7252 83.7254 92.0408 78.4211 92.0408ZM78.4211 88.883C81.9842 88.883 84.883 85.984 84.883 82.4211C84.883 78.8582 81.984 75.9592 78.4211 75.9592C74.8582 75.9592 71.9592 78.8582 71.9592 82.4211C71.9592 85.984 74.8578 88.883 78.4211 88.883ZM136.961 113.007L132.396 112.094C132.117 111.266 131.782 110.458 131.394 109.677L133.978 105.803C134.973 104.309 134.775 102.303 133.505 101.033L131.388 98.916C130.118 97.6465 128.113 97.4479 126.619 98.4438L122.744 101.027C121.963 100.639 121.155 100.304 120.327 100.026L119.414 95.46C119.062 93.6992 117.503 92.4213 115.708 92.4213H112.713C110.918 92.4213 109.359 93.6992 109.007 95.46L108.094 100.026C107.266 100.304 106.458 100.639 105.677 101.027L101.803 98.4438C100.309 97.4481 98.3027 97.6463 97.0332 98.916L94.916 101.033C93.6463 102.303 93.4479 104.309 94.4438 105.803L97.027 109.677C96.493 110.751 96.0603 111.876 95.7369 113.032C95.5019 113.872 95.9924 114.743 96.832 114.978C97.6719 115.213 98.543 114.723 98.7781 113.883C99.1219 112.654 99.6133 111.469 100.238 110.359C100.53 109.841 100.506 109.203 100.176 108.708L97.0715 104.051C96.9076 103.805 96.9402 103.475 97.1492 103.266L99.2664 101.149C99.4754 100.94 99.8055 100.908 100.051 101.071L104.709 104.176C105.203 104.506 105.841 104.53 106.359 104.238C107.469 103.613 108.654 103.122 109.883 102.778C110.456 102.618 110.89 102.15 111.006 101.567L112.104 96.0793C112.161 95.7896 112.418 95.5793 112.713 95.5793H115.708C116.003 95.5793 116.26 95.7896 116.318 96.0793L117.415 101.567C117.532 102.15 117.966 102.618 118.538 102.778C119.767 103.122 120.952 103.613 122.062 104.238C122.58 104.53 123.218 104.506 123.713 104.177L128.37 101.072C128.616 100.908 128.946 100.94 129.155 101.149L131.272 103.267C131.481 103.476 131.513 103.806 131.35 104.052L128.245 108.709C127.915 109.204 127.891 109.841 128.183 110.36C128.808 111.469 129.299 112.655 129.643 113.884C129.803 114.456 130.271 114.89 130.854 115.006L136.342 116.104C136.631 116.162 136.842 116.418 136.842 116.714V119.708C136.842 120.003 136.631 120.26 136.342 120.318L130.854 121.415C130.271 121.532 129.803 121.966 129.643 122.538C129.299 123.767 128.808 124.953 128.183 126.062C127.891 126.58 127.915 127.218 128.245 127.713L131.349 132.37C131.513 132.616 131.481 132.946 131.272 133.155L129.154 135.272C128.946 135.481 128.616 135.514 128.37 135.35L123.712 132.245C123.218 131.915 122.579 131.891 122.062 132.183C120.952 132.808 119.766 133.3 118.537 133.643C117.965 133.804 117.531 134.271 117.415 134.854L116.317 140.342C116.26 140.632 116.003 140.842 115.707 140.842H112.713C112.418 140.842 112.161 140.632 112.103 140.342L111.006 134.854C110.889 134.271 110.455 133.803 109.883 133.643C108.654 133.299 107.469 132.808 106.359 132.183C105.841 131.891 105.203 131.915 104.708 132.245L100.051 135.35C99.8051 135.513 99.475 135.481 99.266 135.272L97.1488 133.155C96.94 132.946 96.9074 132.616 97.0711 132.37L100.176 127.713C100.506 127.218 100.53 126.58 100.238 126.062C99.6129 124.952 99.1215 123.767 98.7777 122.538C98.6176 121.965 98.1498 121.531 97.5668 121.415L92.0789 120.318C91.7893 120.26 91.5789 120.003 91.5789 119.708V116.713C91.5789 116.418 91.7893 116.161 92.0789 116.103L92.4148 116.036C93.2699 115.865 93.8246 115.033 93.6533 114.178C93.4822 113.323 92.6514 112.769 91.7951 112.94L91.4592 113.007C89.6988 113.359 88.4209 114.918 88.4209 116.713V119.708C88.4209 121.503 89.6988 123.062 91.4596 123.414L96.0254 124.327C96.3035 125.155 96.6385 125.963 97.0266 126.744L94.4434 130.619C93.4473 132.113 93.6459 134.119 94.9156 135.388L97.0328 137.505C98.3025 138.775 100.308 138.973 101.802 137.978L105.677 135.394C106.458 135.783 107.266 136.118 108.094 136.396L109.007 140.961C109.359 142.722 110.918 144 112.713 144H115.708C117.503 144 119.062 142.722 119.414 140.961L120.327 136.396C121.155 136.117 121.963 135.782 122.744 135.394L126.619 137.978C128.113 138.973 130.119 138.775 131.388 137.505L133.505 135.388C134.775 134.118 134.973 132.113 133.978 130.619L131.394 126.744C131.783 125.963 132.118 125.155 132.396 124.327L136.961 123.414C138.722 123.062 140 121.503 140 119.708V116.713C140 114.918 138.722 113.359 136.961 113.007Z" fill="black"/>
</g>
<defs>
<clipPath id="clip0_319_2175">
<rect width="100" height="100" fill="white" transform="translate(40 44)"/>
</clipPath>
</defs>
</svg>
