<svg width="180" height="250" viewBox="0 0 180 250" fill="none" xmlns="http://www.w3.org/2000/svg">
<rect width="180" height="250" rx="20" fill="white"/>
<g clip-path="url(#clip0_319_2130)">
<path d="M138.555 50.8501V105.864C138.555 108.85 136.135 111.27 133.148 111.27H46.8906C43.9043 111.27 41.4844 108.85 41.4844 105.864V50.8501C41.4844 47.8638 43.9043 45.4419 46.8906 45.4419H133.148C136.135 45.4419 138.555 47.8638 138.555 50.8501Z" fill="#555760"/>
<path d="M138.555 50.8501V105.864C138.555 108.85 136.135 111.27 133.148 111.27H127.293C130.279 111.27 132.699 108.85 132.699 105.864V50.8501C132.699 47.8638 130.279 45.4419 127.293 45.4419H133.148C136.135 45.4419 138.555 47.8638 138.555 50.8501Z" fill="#36383F"/>
<path d="M47.3398 51.302H132.701V105.411H47.3398V51.302Z" fill="#52DEFF"/>
<path d="M126.582 51.302H132.7V105.411H126.582V51.302Z" fill="#55BAFF"/>
<path d="M122.828 139.22C121.676 140.513 120.281 141.472 118.666 141.994C116.9 142.566 115.041 142.562 113.189 142.068C108.973 140.941 104.793 137.261 101.836 132.003C100.754 132.605 99.5059 132.945 98.1836 132.945C96.0664 132.945 94.1523 132.074 92.7793 130.669C92.4141 130.294 91.9844 129.998 91.5176 129.793C91.0488 129.587 90.543 129.476 90.0195 129.476C88.9746 129.476 87.9902 129.921 87.2598 130.669C85.8887 132.074 83.9746 132.945 81.8574 132.945C80.5332 132.945 79.2871 132.605 78.2051 132.003C73.9492 139.572 67.1563 143.867 61.373 141.994C59.7598 141.472 58.3633 140.513 57.2109 139.22C54.7422 136.449 53.3809 132.127 53.3809 127.193C53.3809 124.24 53.8691 121.066 54.8984 117.875C58.0039 108.252 65.0098 101.65 71.4844 101.675H108.594C109.002 101.675 109.412 101.701 109.824 101.753C115.926 102.521 122.236 108.877 125.141 117.875C127.891 126.396 126.777 134.789 122.828 139.22Z" fill="#EEF6FF"/>
<path d="M125.141 117.875C127.891 126.396 126.777 134.789 122.828 139.22C121.676 140.513 120.281 141.472 118.666 141.994C116.9 142.566 115.041 142.562 113.189 142.068C114.799 141.546 116.189 140.587 117.34 139.298C121.289 134.867 122.402 126.474 119.652 117.955C116.553 108.347 109.57 101.753 103.105 101.753H109.824C115.926 102.521 122.236 108.876 125.141 117.875Z" fill="#DAE6EF"/>
<path d="M83.8939 126.121C82.7474 127.351 80.9349 127.591 79.5345 126.797C79.2943 126.662 79.0677 126.496 78.8568 126.3C77.4154 124.959 77.3353 122.701 78.6752 121.257C78.933 120.98 79.222 120.754 79.5345 120.578C80.8509 119.836 82.5482 119.99 83.7123 121.076C85.1537 122.418 85.2357 124.677 83.8939 126.121Z" fill="#555760"/>
<path d="M83.8945 126.121C82.748 127.351 80.9355 127.591 79.5352 126.797C79.8477 126.623 80.1367 126.396 80.3926 126.121C81.7344 124.677 81.6523 122.418 80.2129 121.076C80.002 120.88 79.7754 120.714 79.5352 120.578C80.8516 119.836 82.5488 119.99 83.7129 121.076C85.1543 122.418 85.2363 124.677 83.8945 126.121Z" fill="#36383F"/>
<path d="M101.324 126.121C100.177 127.351 98.3646 127.591 96.9642 126.797C96.724 126.662 96.4974 126.496 96.2865 126.3C94.8451 124.959 94.765 122.701 96.1048 121.257C96.3627 120.98 96.6517 120.754 96.9642 120.578C98.2806 119.836 99.9779 119.99 101.142 121.076C102.583 122.418 102.665 124.677 101.324 126.121Z" fill="#555760"/>
<path d="M101.324 126.121C100.178 127.351 98.3652 127.591 96.9648 126.797C97.2773 126.623 97.5664 126.396 97.8223 126.121C99.1641 124.677 99.082 122.418 97.6426 121.076C97.4316 120.88 97.2051 120.714 96.9648 120.578C98.2812 119.836 99.9785 119.99 101.143 121.076C102.584 122.418 102.666 124.677 101.324 126.121Z" fill="#36383F"/>
<path d="M102.373 101.676L98.4672 112.742H81.5332L77.627 101.676H102.373Z" fill="#A8B3BA"/>
<path d="M97.3105 101.676L93.4043 112.742H98.4668L102.373 101.676H97.3105Z" fill="#879299"/>
<path d="M80.6426 84.5601C78.1543 87.9194 74.1758 90.105 69.6855 90.1343C69.6523 90.1362 69.6211 90.1362 69.5898 90.1362C61.9941 90.1362 55.8379 83.9702 55.8379 76.3647C55.8379 68.7573 61.9941 62.5933 69.5898 62.5933C69.6172 62.5933 69.6465 62.5933 69.6738 62.5952C73.959 62.6187 77.7793 64.605 80.2832 67.7046L72.0469 75.9526L80.6426 84.5601Z" fill="#FFF148"/>
<path d="M80.6426 84.5601C78.1543 87.9194 74.1758 90.105 69.6855 90.1343C71.7109 90.021 75.1074 86.3745 75.1074 84.5444L69.2832 78.7124C67.7598 77.187 67.7598 74.7163 69.2832 73.1929L74.5996 67.8667C74.5996 66.5093 71.4805 62.7144 69.6738 62.5952C73.959 62.6187 77.7793 64.605 80.2832 67.7046L72.0469 75.9526L80.6426 84.5601Z" fill="#FFCF4A"/>
<path d="M118.739 85.2905C118.739 87.9233 116.604 90.1362 113.891 90.1362C113.471 90.1362 113.063 90.0835 112.676 89.9819C110.35 89.3843 108.735 87.103 109.09 84.5972L110.258 76.3647H117.524L118.69 84.5972C118.723 84.8315 118.739 85.062 118.739 85.2905Z" fill="#EEF6FF"/>
<path d="M118.738 85.2905C118.738 87.9233 116.604 90.1362 113.891 90.1362C113.471 90.1362 113.063 90.0835 112.676 89.9819C113.947 89.4351 114.865 87.5132 114.865 85.2925C114.865 85.064 114.855 84.8315 114.836 84.5972L114.131 76.3647H117.523L118.689 84.5972C118.723 84.8315 118.738 85.062 118.738 85.2905Z" fill="#DAE6EF"/>
<path d="M123.383 76.3647H104.398L105.291 70.0659C105.842 66.1831 108.898 63.2046 112.684 62.6772C113.078 62.6226 113.482 62.5933 113.891 62.5933C118.215 62.5933 121.881 65.7788 122.488 70.0659L123.383 76.3647Z" fill="#FF455C"/>
<path d="M123.383 76.3647H117.797L117.244 70.0659C116.904 66.1831 115.018 63.2046 112.684 62.6772C113.078 62.6226 113.482 62.5933 113.891 62.5933C118.215 62.5933 121.881 65.7788 122.488 70.0659L123.383 76.3647Z" fill="#E51C5F"/>
<path d="M138.535 68.2764C137.726 68.2764 137.07 68.932 137.07 69.7412V105.966C137.07 108.145 135.302 109.917 133.128 109.917H122.934C122.261 108.872 121.536 107.887 120.765 106.978H132.68C133.489 106.978 134.145 106.322 134.145 105.513V51.3328C134.145 50.5238 133.489 49.868 132.68 49.868H66.2672C65.4582 49.868 64.8023 50.5236 64.8023 51.3328C64.8023 52.142 65.4582 52.7977 66.2672 52.7977H131.216V104.048H117.814C114.861 101.618 111.611 100.307 108.536 100.313H93.2314C92.4225 100.313 91.7666 100.969 91.7666 101.778C91.7666 102.587 92.4225 103.243 93.2314 103.243H100.283L97.4107 111.379H82.5494L79.6773 103.243H86.3775C87.1865 103.243 87.8424 102.587 87.8424 101.778C87.8424 100.969 87.1865 100.313 86.3775 100.313H71.4273C68.3549 100.313 65.124 101.628 62.1854 104.048H48.7844V52.7977H59.3736C60.1826 52.7977 60.8385 52.142 60.8385 51.3328C60.8385 50.5236 60.1826 49.868 59.3736 49.868H47.3195C46.5105 49.868 45.8547 50.5236 45.8547 51.3328V105.513C45.8547 106.322 46.5105 106.978 47.3195 106.978H59.2344C58.4643 107.887 57.7387 108.871 57.0656 109.917H46.8719C44.698 109.917 42.9297 108.145 42.9297 105.966V50.8797C42.9297 48.7016 44.698 46.9297 46.8719 46.9297H133.089C135.262 46.9297 137.031 48.7016 137.031 50.8797V62.9713C137.031 63.7803 137.687 64.4361 138.496 64.4361C139.305 64.4361 139.961 63.7805 139.961 62.9713V50.8797C139.961 47.0861 136.878 44 133.089 44H46.8719C43.0826 44 40 47.0861 40 50.8797V105.966C40 109.76 43.0826 112.846 46.8719 112.846H55.3977C54.652 114.335 54.0082 115.905 53.4846 117.528C50.6307 126.374 51.6562 135.311 56.0975 140.296C57.4592 141.825 59.0758 142.899 60.9023 143.49C66.9613 145.451 74.0223 141.647 78.7795 133.979C79.7551 134.33 80.7914 134.512 81.8365 134.512C84.2859 134.512 86.577 133.547 88.2879 131.794C88.7605 131.31 89.3686 131.043 89.9998 131.043C90.6311 131.043 91.2389 131.31 91.7115 131.794C93.4227 133.546 95.7139 134.512 98.1631 134.512C99.2084 134.512 100.245 134.329 101.22 133.979C105.144 140.304 110.636 144 115.839 144C116.944 144 118.036 143.833 119.097 143.49C120.924 142.899 122.54 141.825 123.902 140.296C128.343 135.311 129.369 126.374 126.515 117.528C125.991 115.905 125.348 114.334 124.602 112.846H133.128C136.917 112.846 140 109.76 140 105.966V69.7412C140 68.9322 139.344 68.2764 138.535 68.2764ZM121.715 138.347C120.704 139.482 119.52 140.274 118.195 140.703C113.283 142.294 107.071 138.463 103.092 131.388C102.697 130.686 101.81 130.434 101.105 130.825C100.212 131.32 99.1945 131.582 98.1633 131.582C96.5098 131.582 94.9631 130.93 93.8078 129.747C92.7791 128.694 91.427 128.114 90 128.114C88.573 128.114 87.2209 128.694 86.192 129.747C85.0369 130.93 83.4902 131.582 81.8367 131.582C80.8055 131.582 79.7883 131.32 78.8951 130.825C78.1904 130.434 77.3029 130.686 76.9082 131.388C72.9289 138.463 66.7182 142.293 61.8043 140.703C60.4797 140.274 59.2957 139.482 58.2852 138.347C54.5795 134.188 53.7707 126.183 56.2729 118.428C59.1143 109.621 65.4822 103.243 71.4314 103.243H76.5707L80.132 113.332C80.3389 113.917 80.8924 114.309 81.5133 114.309H98.4473C99.0684 114.309 99.6219 113.917 99.8285 113.332L103.39 103.243H108.574C114.518 103.243 120.886 109.622 123.727 118.428C126.229 126.183 125.421 134.188 121.715 138.347Z" fill="black"/>
<path d="M84.6919 120.106C83.7087 119.19 82.4288 118.71 81.0849 118.76C79.7419 118.808 78.4982 119.377 77.5829 120.362C75.6947 122.393 75.8091 125.584 77.8382 127.475C78.7765 128.349 79.9855 128.824 81.2607 128.824C81.322 128.824 81.3839 128.823 81.4456 128.821C82.7884 128.773 84.0322 128.204 84.9474 127.219C86.8353 125.187 86.7206 121.997 84.6919 120.106ZM82.8011 125.225C82.4191 125.636 81.9003 125.873 81.3404 125.893C80.7806 125.91 80.2458 125.714 79.8355 125.331C78.9868 124.541 78.939 123.206 79.7288 122.356C80.1109 121.945 80.6298 121.708 81.19 121.688C81.2157 121.687 81.2413 121.686 81.2669 121.686C81.7988 121.686 82.3031 121.885 82.6947 122.249V122.25C83.5431 123.04 83.5909 124.375 82.8011 125.225Z" fill="black"/>
<path d="M102.121 120.106C101.138 119.19 99.8582 118.71 98.5144 118.76C97.1715 118.808 95.9277 119.377 95.0125 120.362C93.1244 122.393 93.2388 125.584 95.2677 127.475C96.206 128.349 97.415 128.824 98.6902 128.824C98.7515 128.824 98.8135 128.823 98.8752 128.821C100.218 128.773 101.462 128.204 102.377 127.219C104.265 125.187 104.151 121.997 102.121 120.106ZM100.231 125.225C99.8488 125.636 99.3301 125.873 98.7701 125.893C98.2099 125.91 97.6756 125.714 97.2652 125.331C96.4166 124.541 96.3687 123.206 97.1586 122.356C97.5406 121.945 98.0595 121.708 98.6197 121.688C98.6455 121.687 98.6711 121.686 98.6967 121.686C99.2285 121.686 99.7328 121.885 100.124 122.249V122.25C100.973 123.04 101.021 124.375 100.231 125.225Z" fill="black"/>
<path d="M74.107 113.335H71.1824V110.405C71.1824 109.596 70.5266 108.94 69.7176 108.94C68.9086 108.94 68.2527 109.595 68.2527 110.405V113.335H65.3281C64.5191 113.335 63.8633 113.991 63.8633 114.8C63.8633 115.609 64.5191 116.265 65.3281 116.265H68.2527V119.195C68.2527 120.004 68.9086 120.66 69.7176 120.66C70.5266 120.66 71.1824 120.004 71.1824 119.195V116.265H74.107C74.916 116.265 75.5719 115.609 75.5719 114.8C75.5719 113.991 74.916 113.335 74.107 113.335Z" fill="black"/>
<path d="M69.5691 61.2314C61.1781 61.2314 54.3516 68.0662 54.3516 76.4674C54.3516 84.8686 61.1781 91.7033 69.5691 91.7033C74.3664 91.7033 78.9383 89.3975 81.7994 85.535C82.2311 84.9523 82.1713 84.1412 81.6588 83.6281L74.0963 76.0557L81.2996 68.8428C81.8287 68.3127 81.873 67.4689 81.4021 66.8867C78.4959 63.2926 74.183 61.2314 69.5691 61.2314ZM70.9895 75.0205C70.4184 75.5926 70.4184 76.5189 70.9895 77.0906L78.6498 84.7611C76.325 87.3258 73.0791 88.7736 69.5689 88.7736C62.7934 88.7736 57.2811 83.2531 57.2811 76.4674C57.2811 69.6816 62.7934 64.1611 69.5689 64.1611C72.8541 64.1611 75.9512 65.4564 78.2467 67.7535L70.9895 75.0205Z" fill="black"/>
<path d="M124.468 77.4277C124.746 77.1072 124.871 76.682 124.812 76.2617L123.919 69.9645C123.212 64.9857 118.892 61.2314 113.869 61.2314C108.846 61.2314 104.526 64.9857 103.82 69.9646L102.927 76.2617C102.867 76.6818 102.993 77.1072 103.271 77.4277C103.549 77.7482 103.953 77.9322 104.377 77.9322H108.549L107.618 84.4953C107.361 86.3105 107.902 88.1453 109.104 89.5293C110.303 90.9109 112.04 91.7035 113.869 91.7035C115.698 91.7035 117.435 90.9109 118.634 89.5293C119.836 88.1453 120.377 86.3105 120.12 84.4953L119.189 77.9322H123.361C123.786 77.9322 124.189 77.748 124.468 77.4277ZM116.422 87.6084C115.779 88.3488 114.849 88.7736 113.869 88.7736C112.89 88.7736 111.959 88.3488 111.316 87.6084C110.672 86.8656 110.381 85.8809 110.519 84.9062L111.508 77.932H116.231L117.22 84.9062C117.358 85.8811 117.067 86.8658 116.422 87.6084ZM106.065 75.0025L106.721 70.376C107.223 66.8328 110.297 64.1609 113.869 64.1609C117.442 64.1609 120.515 66.8326 121.018 70.3758L121.674 75.0025H106.065Z" fill="black"/>
<path d="M81.9412 77.8022C82.749 77.8022 83.4039 77.1477 83.4039 76.3403C83.4039 75.5329 82.749 74.8784 81.9412 74.8784C81.1334 74.8784 80.4785 75.5329 80.4785 76.3403C80.4785 77.1477 81.1334 77.8022 81.9412 77.8022Z" fill="black"/>
<path d="M87.1795 77.7993C87.9873 77.7993 88.6422 77.1448 88.6422 76.3374C88.6422 75.53 87.9873 74.8755 87.1795 74.8755C86.3717 74.8755 85.7168 75.53 85.7168 76.3374C85.7168 77.1448 86.3717 77.7993 87.1795 77.7993Z" fill="black"/>
<path d="M92.5369 77.8022C93.3447 77.8022 93.9996 77.1477 93.9996 76.3403C93.9996 75.5329 93.3447 74.8784 92.5369 74.8784C91.7291 74.8784 91.0742 75.5329 91.0742 76.3403C91.0742 77.1477 91.7291 77.8022 92.5369 77.8022Z" fill="black"/>
<path d="M98.0603 77.7993C98.8682 77.7993 99.523 77.1448 99.523 76.3374C99.523 75.53 98.8682 74.8755 98.0603 74.8755C97.2525 74.8755 96.5977 75.53 96.5977 76.3374C96.5977 77.1448 97.2525 77.7993 98.0603 77.7993Z" fill="black"/>
<path d="M68.8064 70.7524C69.6143 70.7524 70.2691 70.0979 70.2691 69.2905C70.2691 68.4831 69.6143 67.8286 68.8064 67.8286C67.9986 67.8286 67.3438 68.4831 67.3438 69.2905C67.3438 70.0979 67.9986 70.7524 68.8064 70.7524Z" fill="black"/>
<path d="M105.853 116.262C106.661 116.262 107.316 115.608 107.316 114.8C107.316 113.993 106.661 113.338 105.853 113.338C105.045 113.338 104.391 113.993 104.391 114.8C104.391 115.608 105.045 116.262 105.853 116.262Z" fill="black"/>
<path d="M114.633 116.262C115.44 116.262 116.095 115.608 116.095 114.8C116.095 113.993 115.44 113.338 114.633 113.338C113.825 113.338 113.17 113.993 113.17 114.8C113.17 115.608 113.825 116.262 114.633 116.262Z" fill="black"/>
<path d="M110.244 111.866C111.052 111.866 111.707 111.211 111.707 110.404C111.707 109.597 111.052 108.942 110.244 108.942C109.436 108.942 108.781 109.597 108.781 110.404C108.781 111.211 109.436 111.866 110.244 111.866Z" fill="black"/>
<path d="M110.244 120.657C111.052 120.657 111.707 120.002 111.707 119.195C111.707 118.387 111.052 117.733 110.244 117.733C109.436 117.733 108.781 118.387 108.781 119.195C108.781 120.002 109.436 120.657 110.244 120.657Z" fill="black"/>
</g>
<path d="M72.7305 186.621V202.617H70.6211V186.621H72.7305ZM69.3203 186.973V201.914H67.2285V194.566H64.6094C63.6953 196.395 62.21 197.977 59.9336 199.295L58.668 197.713C61.8936 195.797 63.3174 193.468 63.625 190.33H59.5469V188.52H65.8574C65.8486 190.04 65.6904 191.473 65.3125 192.791H67.2285V186.973H69.3203ZM87.8125 186.639V195.674H85.5625V186.639H87.8125ZM87.8125 196.395V202.441H77.0898V196.395H87.8125ZM79.3047 198.17V200.648H85.6152V198.17H79.3047ZM79.041 187.359C81.5371 187.359 83.418 188.941 83.418 191.227C83.418 193.424 81.5371 195.041 79.041 195.041C76.5449 195.041 74.6641 193.424 74.6641 191.227C74.6641 188.941 76.5449 187.359 79.041 187.359ZM79.041 189.24C77.7578 189.24 76.8438 189.979 76.8613 191.227C76.8438 192.422 77.7578 193.16 79.041 193.16C80.2891 193.16 81.2031 192.422 81.2031 191.227C81.2031 189.979 80.2891 189.24 79.041 189.24ZM97.1816 196.588C100.68 196.588 102.877 197.695 102.895 199.611C102.877 201.492 100.68 202.617 97.1816 202.617C93.7188 202.617 91.4863 201.492 91.4863 199.611C91.4863 197.695 93.7188 196.588 97.1816 196.588ZM97.1816 198.258C94.9844 198.258 93.7188 198.715 93.7188 199.611C93.7188 200.473 94.9844 200.912 97.1816 200.912C99.3789 200.912 100.662 200.473 100.662 199.611C100.662 198.715 99.3789 198.258 97.1816 198.258ZM102.807 187.342V188.643C102.807 189.908 102.807 191.279 102.35 192.932L100.152 192.721C100.504 191.271 100.548 190.189 100.574 189.1H91.6445V187.342H102.807ZM104.529 193.758V195.568H90.0098V193.758H95.459V190.963H97.6738V193.758H104.529ZM115.023 188.045V189.82H105.531V188.045H109.17V186.533H111.402V188.045H115.023ZM110.277 190.33C112.598 190.33 114.215 191.525 114.215 193.283C114.215 195.041 112.598 196.236 110.277 196.236C107.957 196.236 106.305 195.041 106.305 193.283C106.305 191.525 107.957 190.33 110.277 190.33ZM110.277 192.018C109.205 192.018 108.484 192.457 108.502 193.283C108.484 194.092 109.205 194.514 110.277 194.514C111.35 194.514 112.088 194.092 112.088 193.283C112.088 192.457 111.35 192.018 110.277 192.018ZM118.223 186.621V190.77H120.385V192.598H118.223V196.658H115.973V186.621H118.223ZM118.223 197.326V202.617H115.973V199.119H107.447V197.326H118.223Z" fill="black"/>
<defs>
<clipPath id="clip0_319_2130">
<rect width="100" height="100" fill="white" transform="translate(40 44)"/>
</clipPath>
</defs>
</svg>
