<svg width="180" height="250" viewBox="0 0 180 250" fill="none" xmlns="http://www.w3.org/2000/svg">
<rect width="180" height="250" rx="20" fill="white"/>
<path d="M72.8184 186.621V202.617H70.6738V194.602H69.3203V201.879H67.1934V197.3L65.9277 198.979C64.4424 198.196 63.4844 196.869 62.9131 195.243C62.3857 197.115 61.4453 198.645 59.916 199.559L58.5273 197.836C60.9619 196.465 61.7705 193.635 61.7793 190.576V190.066H59.0723V188.273H66.4023V190.066H63.959V190.576C63.959 193.362 64.7852 196.017 67.1934 197.265V186.85H69.3203V192.773H70.6738V186.621H72.8184ZM89.0605 198.996V200.842H74.418V198.996H78.1621V196.553H76.1055V191.174H85.1582V189.451H76.0879V187.658H87.373V192.967H78.3555V194.742H87.7422V196.553H85.4746V198.996H89.0605ZM80.3418 198.996H83.2773V196.553H80.3418V198.996ZM97.1816 196.588C100.68 196.588 102.877 197.695 102.895 199.611C102.877 201.501 100.68 202.626 97.1816 202.617C93.71 202.626 91.4775 201.501 91.4863 199.611C91.4775 197.695 93.71 196.588 97.1816 196.588ZM90.0098 195.568V193.758H95.459V190.963H97.6738V193.758H104.529V195.568H90.0098ZM91.6445 189.1V187.342H102.807V188.643C102.815 189.917 102.815 191.288 102.35 192.932L100.152 192.721C100.513 191.271 100.557 190.189 100.574 189.1H91.6445ZM93.7188 199.611C93.71 200.473 94.9756 200.912 97.1816 200.912C99.3877 200.912 100.662 200.473 100.662 199.611C100.662 198.724 99.3877 198.249 97.1816 198.258C94.9756 198.249 93.71 198.724 93.7188 199.611ZM115.023 188.045V189.82H105.531V188.045H109.17V186.533H111.402V188.045H115.023ZM106.305 193.283C106.305 191.525 107.957 190.339 110.277 190.33C112.606 190.339 114.215 191.525 114.215 193.283C114.215 195.041 112.606 196.228 110.277 196.236C107.957 196.228 106.305 195.041 106.305 193.283ZM107.447 199.119V197.326H118.223V202.617H115.973V199.119H107.447ZM108.502 193.283C108.493 194.101 109.205 194.522 110.277 194.514C111.358 194.522 112.088 194.101 112.088 193.283C112.088 192.457 111.358 192.018 110.277 192.018C109.205 192.018 108.493 192.457 108.502 193.283ZM115.973 196.658V186.621H118.223V190.77H120.385V192.598H118.223V196.658H115.973Z" fill="black"/>
<g clip-path="url(#clip0_319_2031)">
<path d="M131.229 121.6H103.812C102.738 121.6 101.867 120.729 101.867 119.655V92.2383C101.867 91.1639 102.738 90.293 103.812 90.293H131.229C132.304 90.293 133.175 91.1639 133.175 92.2383V119.655C133.175 120.729 132.304 121.6 131.229 121.6Z" fill="#FCB72D"/>
<path d="M120.483 101.661H114.559C114.021 101.661 113.586 101.226 113.586 100.689V90.293H121.456V100.689C121.456 101.226 121.02 101.661 120.483 101.661Z" fill="#E33C53"/>
<path d="M133.174 92.2393V119.654C133.174 120.73 132.304 121.6 131.229 121.6H125.779C126.853 121.6 127.725 120.73 127.725 119.654V92.2393C127.725 91.1635 126.853 90.2939 125.779 90.2939H131.229C132.304 90.2939 133.174 91.1635 133.174 92.2393Z" fill="#FB9927"/>
<path d="M131.229 90.293H103.812C102.738 90.293 101.867 89.4221 101.867 88.3477V60.9309C101.867 59.8565 102.738 58.9856 103.812 58.9856H131.229C132.304 58.9856 133.175 59.8565 133.175 60.9309V88.3477C133.175 89.4221 132.304 90.293 131.229 90.293Z" fill="#FDC83A"/>
<path d="M133.174 60.9319V88.3489C133.174 89.4227 132.304 90.2942 131.229 90.2942H125.779C126.853 90.2942 127.725 89.4227 127.725 88.3489V60.9319C127.725 59.8561 126.853 58.9866 125.779 58.9866H131.229C132.304 58.9866 133.174 59.8561 133.174 60.9319Z" fill="#FCB72D"/>
<path d="M122.977 119.684H104.826C104.126 119.684 103.559 119.117 103.559 118.417V109.45C103.559 108.75 104.126 108.183 104.826 108.183H122.977C123.677 108.183 124.244 108.75 124.244 109.45V118.417C124.244 119.116 123.677 119.684 122.977 119.684Z" fill="#7DA2B0"/>
<path d="M124.243 109.45V118.416C124.243 119.117 123.677 119.683 122.976 119.683H117.127C117.826 119.683 118.394 119.117 118.394 118.416V109.45C118.394 108.75 117.826 108.183 117.127 108.183H122.976C123.677 108.183 124.243 108.75 124.243 109.45Z" fill="#688D97"/>
<path d="M114.756 108.183H96.6049C95.9051 108.183 95.3379 107.615 95.3379 106.916V97.9484C95.3379 97.2486 95.9051 96.6814 96.6049 96.6814H114.756C115.456 96.6814 116.023 97.2486 116.023 97.9484V106.916C116.023 107.615 115.456 108.183 114.756 108.183Z" fill="#A9D3D8"/>
<path d="M116.022 97.9484V106.915C116.022 107.616 115.456 108.182 114.755 108.182H108.906C109.606 108.182 110.173 107.616 110.173 106.915V97.9484C110.173 97.249 109.606 96.6814 108.906 96.6814H114.755C115.456 96.6814 116.022 97.249 116.022 97.9484Z" fill="#90BAC4"/>
<path d="M116.583 131.185H98.4311C97.7312 131.185 97.1641 130.618 97.1641 129.918V120.951C97.1641 120.251 97.7312 119.684 98.4311 119.684H116.583C117.282 119.684 117.85 120.251 117.85 120.951V129.918C117.85 130.618 117.282 131.185 116.583 131.185Z" fill="#90BAC4"/>
<path d="M137.268 131.185H119.117C118.417 131.185 117.85 130.618 117.85 129.918V120.951C117.85 120.251 118.417 119.684 119.117 119.684H137.268C137.968 119.684 138.535 120.251 138.535 120.951V129.918C138.535 130.618 137.968 131.185 137.268 131.185Z" fill="#7DA2B0"/>
<path d="M138.534 120.951V129.917C138.534 130.618 137.968 131.184 137.267 131.184H131.418C132.117 131.184 132.685 130.618 132.685 129.917V120.951C132.685 120.251 132.117 119.684 131.418 119.684H137.267C137.968 119.684 138.534 120.251 138.534 120.951Z" fill="#688D97"/>
<path d="M44.9316 60.3064H90.5715V127.693H44.9316V60.3064Z" fill="#E8576B"/>
<path d="M44.9316 60.3064V67.4412H83.5271V78.223H44.9316V85.3578H83.5271V111.476H44.9316V118.611H83.5271V127.693H90.5715V60.3064H44.9316Z" fill="#E33C53"/>
<path d="M93.1322 62.0715H42.3719C41.8709 62.0715 41.4648 61.6655 41.4648 61.1645V57.7217C41.4648 57.2208 41.8709 56.8147 42.3719 56.8147H93.1322C93.6332 56.8147 94.0393 57.2208 94.0393 57.7217V61.1645C94.0393 61.6655 93.6332 62.0715 93.1322 62.0715Z" fill="#EE7382"/>
<path d="M94.0402 57.7222V61.1636C94.0402 61.6662 93.6338 62.0707 93.1332 62.0707H85.8711C86.3736 62.0707 86.7781 61.6662 86.7781 61.1636V57.7222C86.7781 57.2214 86.3736 56.8152 85.8711 56.8152H93.1332C93.634 56.8152 94.0402 57.2216 94.0402 57.7222Z" fill="#E8576B"/>
<path d="M93.1322 79.9341H42.3719C41.8709 79.9341 41.4648 79.528 41.4648 79.0271V75.5843C41.4648 75.0833 41.8709 74.6772 42.3719 74.6772H93.1322C93.6332 74.6772 94.0393 75.0833 94.0393 75.5843V79.0271C94.0393 79.528 93.6332 79.9341 93.1322 79.9341Z" fill="#EE7382"/>
<path d="M94.0402 75.5848V79.0262C94.0402 79.5287 93.6338 79.9332 93.1332 79.9332H85.8711C86.3736 79.9332 86.7781 79.5287 86.7781 79.0262V75.5848C86.7781 75.084 86.3736 74.6777 85.8711 74.6777H93.1332C93.634 74.6777 94.0402 75.0842 94.0402 75.5848Z" fill="#E8576B"/>
<path d="M93.1322 113.322H42.3719C41.8709 113.322 41.4648 112.916 41.4648 112.415V108.972C41.4648 108.471 41.8709 108.065 42.3719 108.065H93.1322C93.6332 108.065 94.0393 108.471 94.0393 108.972V112.415C94.0393 112.916 93.6332 113.322 93.1322 113.322Z" fill="#EE7382"/>
<path d="M94.0402 108.973V112.414C94.0402 112.917 93.6338 113.321 93.1332 113.321H85.8711C86.3736 113.321 86.7781 112.917 86.7781 112.414V108.973C86.7781 108.472 86.3736 108.066 85.8711 108.066H93.1332C93.634 108.066 94.0402 108.472 94.0402 108.973Z" fill="#E8576B"/>
<path d="M93.1322 131.185H42.3719C41.8709 131.185 41.4648 130.779 41.4648 130.278V126.835C41.4648 126.334 41.8709 125.928 42.3719 125.928H93.1322C93.6332 125.928 94.0393 126.334 94.0393 126.835V130.278C94.0393 130.779 93.6332 131.185 93.1322 131.185Z" fill="#EE7382"/>
<path d="M94.0402 126.836V130.277C94.0402 130.779 93.6338 131.184 93.1332 131.184H85.8711C86.3736 131.184 86.7781 130.779 86.7781 130.277V126.836C86.7781 126.335 86.3736 125.928 85.8711 125.928H93.1332C93.634 125.928 94.0402 126.335 94.0402 126.836Z" fill="#E8576B"/>
<path d="M110.536 131.184C111.985 131.184 113.017 129.775 112.575 128.395C109.627 119.177 99.4892 90.2776 88.2546 90.2776C77.1575 90.2776 67.2831 119.212 64.4239 128.412C63.996 129.789 65.0265 131.185 66.4681 131.185L110.536 131.184Z" fill="#DC7F69"/>
<path d="M88.2555 90.2773C87.7279 90.2773 87.2031 90.3432 86.6816 90.4687C96.0344 97.8105 103.842 120.18 106.42 128.247C106.887 129.701 105.8 131.184 104.274 131.184H110.546C111.99 131.178 113.016 129.772 112.576 128.395C109.628 119.177 99.49 90.2773 88.2555 90.2773Z" fill="#D46A50"/>
<path d="M87.1308 131.185C87.1308 131.185 79.0628 112.483 69.9349 112.483C63.254 112.483 57.2222 122.763 54.5493 128.08C53.8327 129.506 54.8706 131.185 56.4661 131.185L87.1308 131.185Z" fill="#E9A999"/>
<path d="M87.1309 131.184H80.0043C80.0043 131.184 73.0344 115.027 65.1488 115.027C64.675 115.027 64.2055 115.087 63.7402 115.201C65.674 113.561 67.7709 112.482 69.9342 112.482C79.0609 112.483 87.1309 131.184 87.1309 131.184Z" fill="#E39382"/>
<path d="M99.1006 131.185C99.1006 131.185 92.6203 118.642 85.2887 118.642C78.051 118.642 71.7617 131.185 71.7617 131.185H99.1006Z" fill="#DC7F69"/>
<path d="M99.1008 131.184H92.0021C92.0021 131.184 86.4965 120.529 80.2598 120.501C81.8291 119.382 83.5314 118.642 85.2895 118.642C92.6217 118.642 99.1008 131.184 99.1008 131.184Z" fill="#D46A50"/>
<path d="M88.7031 111.541C87.8941 111.541 87.2383 110.893 87.2383 110.084V110.067C87.2383 109.258 87.8941 108.603 88.7031 108.603C89.5121 108.603 90.168 109.258 90.168 110.067C90.168 110.876 89.5121 111.541 88.7031 111.541Z" fill="black"/>
<path d="M62.1133 127.01C61.3043 127.01 60.6484 126.362 60.6484 125.553V125.537C60.6484 124.728 61.3043 124.072 62.1133 124.072C62.9223 124.072 63.5781 124.728 63.5781 125.537C63.5781 126.346 62.9223 127.01 62.1133 127.01Z" fill="black"/>
<path d="M66.3066 128.425C65.4977 128.425 64.8418 127.777 64.8418 126.968V126.951C64.8418 126.142 65.4977 125.487 66.3066 125.487C67.1156 125.487 67.7715 126.142 67.7715 126.951C67.7715 127.76 67.1158 128.425 66.3066 128.425Z" fill="black"/>
<path d="M83.2871 113.947C82.4781 113.947 81.8223 113.3 81.8223 112.491V112.474C81.8223 111.665 82.4781 111.01 83.2871 111.01C84.0961 111.01 84.752 111.665 84.752 112.474C84.752 113.283 84.0961 113.947 83.2871 113.947Z" fill="black"/>
<path d="M82.7324 127.393C81.9234 127.393 81.2676 126.746 81.2676 125.937V125.92C81.2676 125.111 81.9234 124.455 82.7324 124.455C83.5414 124.455 84.1973 125.111 84.1973 125.92C84.1973 126.729 83.5414 127.393 82.7324 127.393Z" fill="black"/>
<path d="M89.6797 97.5724C88.8707 97.5724 88.2148 96.9249 88.2148 96.1157V96.0991C88.2148 95.2901 88.8707 94.6343 89.6797 94.6343C90.4887 94.6343 91.1445 95.2901 91.1445 96.0991C91.1445 96.9081 90.4887 97.5724 89.6797 97.5724Z" fill="black"/>
<path d="M100.818 124.198C100.009 124.198 99.3535 123.55 99.3535 122.741V122.725C99.3535 121.916 100.009 121.26 100.818 121.26C101.627 121.26 102.283 121.916 102.283 122.725C102.283 123.534 101.627 124.198 100.818 124.198Z" fill="black"/>
<path d="M57.3527 88.2232L53.4564 95.0201C53.0847 95.6685 53.5529 96.4765 54.3002 96.4765H62.0929C62.8404 96.4765 63.3086 95.6685 62.9367 95.0201L59.0404 88.2232C58.6666 87.5714 57.7263 87.5714 57.3527 88.2232Z" fill="#27CC81"/>
<path d="M62.0934 97.9414H54.3006C53.4211 97.9414 52.6325 97.4869 52.1917 96.726C51.7506 95.9648 51.7485 95.0549 52.186 94.2916L56.0823 87.4949C56.5155 86.7391 57.3258 86.2695 58.1969 86.2695C59.068 86.2695 59.8784 86.7391 60.3116 87.4949L64.2081 94.2916C64.6456 95.0549 64.6434 95.965 64.2024 96.726C63.7614 97.4871 62.9729 97.9414 62.0934 97.9414ZM55.1501 95.0117H61.244L58.1969 89.6969L55.1501 95.0117ZM58.6241 88.952L58.6237 88.9527C58.6237 88.9523 58.6239 88.9522 58.6241 88.952Z" fill="black"/>
<path d="M63.067 103.504H53.3262C52.5172 103.504 51.8613 102.849 51.8613 102.04C51.8613 101.231 52.5172 100.575 53.3262 100.575H63.0672C63.8762 100.575 64.532 101.231 64.532 102.04C64.532 102.849 63.876 103.504 63.067 103.504Z" fill="black"/>
<path d="M120.483 70.354H114.559C114.021 70.354 113.586 69.9184 113.586 69.3813V58.9856H121.456V69.3813C121.456 69.9186 121.02 70.354 120.483 70.354Z" fill="#E33C53"/>
<path d="M137.268 118.219H134.639V92.2383C134.639 91.5153 134.412 90.8454 134.026 90.293C134.412 89.7407 134.639 89.0708 134.639 88.3477V60.9309C134.639 59.0506 133.11 57.5208 131.229 57.5208H103.812C101.932 57.5208 100.402 59.0506 100.402 60.9309V67.1184C100.402 67.9274 101.058 68.5833 101.867 68.5833C102.676 68.5833 103.332 67.9274 103.332 67.1184V60.9309C103.332 60.6661 103.548 60.4504 103.812 60.4504H112.121V69.3813C112.121 70.7252 113.215 71.8188 114.559 71.8188H120.483C121.827 71.8188 122.921 70.7252 122.921 69.3813V60.4504H131.229C131.494 60.4504 131.71 60.6661 131.71 60.9309V88.3477C131.71 88.6125 131.494 88.8282 131.229 88.8282H103.812C103.548 88.8282 103.332 88.6125 103.332 88.3477V73.5954C103.332 72.7864 102.676 72.1305 101.867 72.1305C101.058 72.1305 100.402 72.7864 100.402 73.5954V88.3477C100.402 89.0708 100.63 89.7407 101.015 90.293C100.63 90.8454 100.402 91.5153 100.402 92.2383V95.2166H98.5256C96.3479 92.5446 94.1818 90.703 92.0371 89.704V81.3989H93.1322C94.44 81.3989 95.5041 80.3348 95.5041 79.027V75.5842C95.5041 74.2764 94.44 73.2124 93.1322 73.2124H92.0371V63.5364H93.1322C94.44 63.5364 95.5041 62.4723 95.5041 61.1645V57.7217C95.5041 56.4139 94.44 55.3499 93.1322 55.3499H42.3719C41.0641 55.3499 40 56.4139 40 57.7217V61.1645C40 62.4723 41.0641 63.5364 42.3719 63.5364H43.4668V73.2124H42.3719C41.0641 73.2124 40 74.2764 40 75.5842V79.027C40 80.3348 41.0641 81.3989 42.3719 81.3989H43.4668V106.601H42.3719C41.0641 106.601 40 107.665 40 108.973V112.415C40 113.723 41.0641 114.787 42.3721 114.787H43.4668V124.463H42.3711C41.0637 124.463 40 125.527 40 126.836V130.277C40 131.586 41.0637 132.65 42.3711 132.65H116.582C117.04 132.65 117.471 132.536 117.85 132.336C118.229 132.535 118.659 132.65 119.116 132.65H137.268C138.774 132.65 140 131.424 140 129.918V120.951C140 119.444 138.775 118.219 137.268 118.219ZM119.991 68.8891H115.051V60.4504H119.991V68.8891ZM122.921 100.689V91.7579H131.229C131.494 91.7579 131.71 91.9735 131.71 92.2383V118.219H125.71V109.45C125.71 107.943 124.484 106.718 122.978 106.718H117.488V103.126H120.483C121.827 103.126 122.921 102.033 122.921 100.689ZM115.051 91.7579H119.991V100.197H117.488V97.9483C117.488 96.5416 116.419 95.3807 115.051 95.2331L115.051 91.7579ZM103.332 92.2383C103.332 91.9735 103.548 91.7579 103.812 91.7579H112.121V95.2165H103.332L103.332 92.2383ZM114.558 98.1463V106.718H105.584C105.334 106.212 105.082 105.709 104.825 105.21C103.446 102.528 102.068 100.174 100.694 98.1463H114.558ZM42.9297 60.6067V58.2795H92.5744V60.6067H42.9297ZM89.1074 63.5364V73.2124H46.3965V63.5364H89.1074ZM42.9297 78.4692V76.142H92.5744V78.4692H42.9297ZM53.2402 127.422C52.8748 128.149 52.7703 128.953 52.9187 129.721H42.9297V127.392H53.2553C53.2504 127.402 53.2449 127.412 53.2402 127.422ZM46.3965 124.463V114.787H62.0227C59.1396 117.479 56.6687 121.187 54.818 124.463H46.3965V124.463ZM56.4648 129.721C56.1344 129.721 55.9604 129.518 55.8861 129.398C55.8121 129.278 55.7098 129.032 55.8578 128.738C57.1746 126.118 59.2859 122.34 61.867 119.221C64.7227 115.771 67.5121 113.947 69.9338 113.947C72.5641 113.947 75.5764 115.989 78.6959 119.869C74.8369 122.944 71.9371 127.797 70.8793 129.721H56.4648ZM74.2561 129.72C76.5934 125.869 81.0111 120.106 85.2871 120.106C89.6299 120.106 94.1598 125.864 96.5672 129.72L74.2561 129.72ZM111.082 129.442C111.007 129.546 110.835 129.72 110.536 129.72H99.9678C98.3334 126.828 92.3496 117.177 85.2871 117.177C83.8527 117.177 82.4676 117.585 81.1574 118.256C78.1725 114.485 75.2064 112.174 72.3037 111.355C73.9594 107.603 75.6312 104.323 77.2822 101.591C77.7006 100.898 77.4783 99.9979 76.7859 99.5793C76.0936 99.1608 75.1928 99.3831 74.7746 100.076C73.61 102.003 72.4385 104.187 71.2721 106.6H60.7779C59.9689 106.6 59.3131 107.256 59.3131 108.065C59.3131 108.874 59.9689 109.53 60.7779 109.53H69.9094C69.6857 110.029 69.4625 110.536 69.2398 111.051C68.2168 111.14 67.2164 111.42 66.2447 111.857H42.9297V109.53H54.3008C55.1098 109.53 55.7656 108.874 55.7656 108.065C55.7656 107.256 55.1098 106.6 54.3008 106.6H46.3965V81.3989H89.1074V88.8618C88.8228 88.8313 88.5385 88.8125 88.2547 88.8125C85.0723 88.8125 81.8279 90.7608 78.6119 94.603C78.0928 95.2233 78.1746 96.1473 78.7951 96.6665C79.4156 97.1856 80.3395 97.1038 80.8586 96.4832C83.4918 93.3372 85.9801 91.742 88.2547 91.742C92.41 91.742 97.2391 96.8622 102.22 106.549C106.435 114.747 109.643 124.034 111.18 128.841C111.271 129.124 111.158 129.339 111.082 129.442ZM116.385 129.721H114.081C114.191 129.141 114.158 128.536 113.971 127.949C113.407 126.187 112.622 123.831 111.647 121.149H116.385V129.721ZM110.554 118.219C109.512 115.498 108.309 112.568 106.973 109.648H122.78V118.219H110.554ZM137.07 129.72H119.314V121.148H137.07V129.72Z" fill="black"/>
<path d="M110.123 85.5479H107.688C106.879 85.5479 106.223 84.892 106.223 84.083C106.223 83.274 106.879 82.6182 107.688 82.6182H110.123C110.932 82.6182 111.588 83.274 111.588 84.083C111.588 84.892 110.932 85.5479 110.123 85.5479Z" fill="black"/>
<path d="M110.123 80.8635H107.688C106.879 80.8635 106.223 80.2077 106.223 79.3987C106.223 78.5897 106.879 77.9338 107.688 77.9338H110.123C110.932 77.9338 111.588 78.5897 111.588 79.3987C111.588 80.2077 110.932 80.8635 110.123 80.8635Z" fill="black"/>
</g>
<defs>
<clipPath id="clip0_319_2031">
<rect width="100" height="100" fill="white" transform="translate(40 44)"/>
</clipPath>
</defs>
</svg>
