<svg width="180" height="250" viewBox="0 0 180 250" fill="none" xmlns="http://www.w3.org/2000/svg">
<rect width="180" height="250" rx="20" fill="white"/>
<path d="M87.7148 186.621V193.125H89.8066V194.988H87.7148V202.617H85.4473V186.621H87.7148ZM74.7246 198.1C75.8936 198.1 77.2559 198.1 78.6797 198.064V196.693C76.9746 196.359 75.8672 195.278 75.8848 193.793C75.8672 192 77.4844 190.787 79.8223 190.787C82.1074 190.787 83.7422 192 83.7598 193.793C83.7422 195.278 82.6172 196.368 80.9297 196.693V197.977C82.1953 197.915 83.4697 197.81 84.6562 197.643L84.7969 199.277C81.3867 199.91 77.7305 199.928 75.0234 199.928L74.7246 198.1ZM84.5332 188.396V190.154H75.041V188.396H78.6797V186.709H80.9297V188.396H84.5332ZM79.8223 192.492C78.7324 192.492 77.9941 192.967 78.0117 193.793C77.9941 194.637 78.7324 195.094 79.8223 195.094C80.877 195.094 81.5977 194.637 81.5977 193.793C81.5977 192.967 80.877 192.492 79.8223 192.492ZM99.9668 188.045V189.82H90.4746V188.045H94.1133V186.533H96.3457V188.045H99.9668ZM95.2207 190.33C97.541 190.33 99.1582 191.525 99.1582 193.283C99.1582 195.041 97.541 196.236 95.2207 196.236C92.9004 196.236 91.248 195.041 91.248 193.283C91.248 191.525 92.9004 190.33 95.2207 190.33ZM95.2207 192.018C94.1484 192.018 93.4277 192.457 93.4453 193.283C93.4277 194.092 94.1484 194.514 95.2207 194.514C96.293 194.514 97.0312 194.092 97.0312 193.283C97.0312 192.457 96.293 192.018 95.2207 192.018ZM103.166 186.621V190.77H105.328V192.598H103.166V196.658H100.916V186.621H103.166ZM103.166 197.326V202.617H100.916V199.119H92.3906V197.326H103.166Z" fill="black"/>
<g clip-path="url(#clip0_319_2016)">
<path d="M105.089 114.792L95.1582 97.5904L105.089 80.3899H124.951L134.882 97.5904L124.951 114.792H105.089Z" fill="#F6838D"/>
<path d="M105.089 80.3901L95.1582 63.1888L105.089 45.9875H124.952L134.883 63.1888L124.952 80.3901H105.089Z" fill="#FFD89E"/>
<path d="M75.2957 97.5905L65.3652 80.3892L75.2957 63.1887H95.1581L105.089 80.3892L95.1581 97.5905H75.2957Z" fill="#9BC6FF"/>
<path d="M55.4351 131.993L45.5039 114.792L55.4351 97.5906H75.2967L85.2279 114.792L75.2967 131.993H55.4351Z" fill="#FFC15A"/>
<path d="M127.246 80.39L136.604 64.1821C136.959 63.5671 136.959 62.8095 136.604 62.1946L126.673 44.9933C126.317 44.3784 125.662 44 124.952 44H105.089C104.379 44 103.724 44.3784 103.368 44.9933L94.0114 61.2013H76.4233L71.0248 52.139C69.7186 49.9464 66.3022 51.9781 67.6099 54.173L72.9909 63.2063L64.2171 78.4017H53.6862C51.1342 78.4017 51.1303 82.3767 53.6862 82.3767H64.2171L71.8541 95.603H55.4341C54.7238 95.603 54.0677 95.9822 53.7129 96.5971L43.7817 113.798C43.4269 114.413 43.4269 115.171 43.7817 115.786L53.1308 131.978L47.7467 141.016C46.4444 143.203 49.8433 145.263 51.1616 143.05L56.5648 133.98H74.162L79.5644 143.049C80.882 145.262 84.2816 143.201 82.9793 141.015L77.5975 131.981L86.9481 115.786C87.3029 115.171 87.3029 114.413 86.9481 113.798L78.7381 99.5779H94.0099L102.784 114.775L97.4019 123.81C96.0988 125.996 99.4977 128.057 100.816 125.844L106.217 116.779H123.858L129.219 125.839C130.531 128.056 133.935 126.005 132.64 123.815L127.273 114.745L136.603 98.5846C136.958 97.9696 136.958 97.212 136.603 96.5971L127.246 80.39ZM106.237 47.9749H123.804L132.588 63.1887L123.804 78.4025H106.237L97.453 63.1887L106.237 47.9749ZM76.4432 65.1762H94.0106L102.794 80.3892L94.0106 95.603H76.4439L67.6594 80.39L76.4432 65.1762ZM74.1483 130.006H56.5816L47.7978 114.792L56.5816 99.5779H74.1483L82.932 114.792L74.1483 130.006ZM124.949 110.82L120.534 103.361C119.235 101.164 115.812 103.185 117.114 105.385L121.505 112.804H106.236L97.4523 97.5912L106.236 82.3767H123.803L132.587 97.5905L124.949 110.82Z" fill="black"/>
<path d="M115.021 95.603C113.94 95.603 113.033 96.5094 113.033 97.5905C113.034 98.67 113.941 99.5779 115.021 99.5779C116.07 99.5779 116.958 98.7227 117.004 97.6775C117.054 96.5651 116.136 95.603 115.021 95.603Z" fill="black"/>
<path d="M45.7062 82.3768C46.7858 82.3768 47.6937 81.4689 47.6937 80.3893C47.6937 79.3098 46.7858 78.4019 45.7062 78.4019C44.6572 78.4019 43.7691 79.2563 43.7226 80.3023C43.6737 81.4139 44.5916 82.3768 45.7062 82.3768Z" fill="black"/>
<path d="M51.2052 70.6961C52.0772 71.202 53.9487 71.0013 53.9487 69.6814V65.4997H56.5023V69.6814C56.5023 71.4072 59.8592 71.4003 59.8592 69.6814V58.8599C59.8592 57.1486 56.5023 57.1486 56.5023 58.8599V62.609H53.9487V58.8599C53.9487 57.1486 50.5918 57.1486 50.5918 58.8599V69.6814C50.5918 70.2315 51.3433 70.7762 51.2052 70.6961C51.5066 70.8716 50.81 70.468 51.2052 70.6961C52.0765 71.202 50.81 70.468 51.2052 70.6961Z" fill="black"/>
<path d="M118.471 122.067C116.783 120.616 113.691 120.609 112.007 122.069C111.169 122.794 110.744 123.92 110.744 125.416V130.06C110.744 131.556 111.169 132.683 112.007 133.408C113.692 134.868 116.784 134.86 118.471 133.41C119.316 132.684 119.745 131.557 119.745 130.06V125.416C119.745 123.919 119.316 122.793 118.471 122.067C119.316 122.793 117.653 121.364 118.471 122.067ZM114.1 125.416C114.1 123.665 116.388 123.668 116.388 125.416V130.06C116.388 131.807 114.1 131.811 114.1 130.06V125.416Z" fill="black"/>
<path d="M82.0697 57.0814C83.7627 58.5615 86.7542 58.5226 88.4815 57.1203C89.3627 56.4046 89.809 55.4426 89.809 54.26C89.809 52.2993 86.5917 51.9376 86.4528 53.8488C86.3727 55.5334 84.1655 55.4273 84.1655 53.7443V49.0995C84.1655 47.5049 86.3277 47.2913 86.4528 48.8653C86.5238 50.7581 89.809 50.4301 89.809 48.4502C89.809 47.3073 89.3596 46.3758 88.4731 45.6823C86.7305 44.3212 83.7688 44.2953 82.0797 45.7601C81.2366 46.4918 80.8086 47.6148 80.8086 49.0995V53.7443C80.8086 55.2274 81.2328 56.3505 82.0697 57.0814Z" fill="black"/>
<path d="M127.246 80.39L136.604 64.1821C136.959 63.5671 136.959 62.8095 136.604 62.1946L126.673 44.9933C126.317 44.3784 125.662 44 124.952 44H105.089C104.379 44 103.724 44.3784 103.368 44.9933L94.0114 61.2013H76.4233L71.0248 52.139C69.7186 49.9464 66.3022 51.9781 67.6099 54.173L72.9909 63.2063L64.2171 78.4017H53.6862C51.1342 78.4017 51.1303 82.3767 53.6862 82.3767H64.2171L71.8541 95.603H55.4341C54.7238 95.603 54.0677 95.9822 53.7129 96.5971L43.7817 113.798C43.4269 114.413 43.4269 115.171 43.7817 115.786L53.1308 131.978L47.7467 141.016C46.4444 143.203 49.8433 145.263 51.1616 143.05L56.5648 133.98H74.162L79.5644 143.049C80.882 145.262 84.2816 143.201 82.9793 141.015L77.5975 131.981L86.9481 115.786C87.3029 115.171 87.3029 114.413 86.9481 113.798L78.7381 99.5779H94.0099L102.784 114.775L97.4019 123.81C96.0988 125.996 99.4977 128.057 100.816 125.844L106.217 116.779H123.858L129.219 125.839C130.531 128.056 133.935 126.005 132.64 123.815L127.273 114.745L136.603 98.5846C136.958 97.9696 136.958 97.212 136.603 96.5971L127.246 80.39ZM106.237 47.9749H123.804L132.588 63.1887L123.804 78.4025H106.237L97.453 63.1887L106.237 47.9749ZM76.4432 65.1762H94.0106L102.794 80.3892L94.0106 95.603H76.4439L67.6594 80.39L76.4432 65.1762ZM74.1483 130.006H56.5816L47.7978 114.792L56.5816 99.5779H74.1483L82.932 114.792L74.1483 130.006ZM124.949 110.82L120.534 103.361C119.235 101.164 115.812 103.185 117.114 105.385L121.505 112.804H106.236L97.4523 97.5912L106.236 82.3767H123.803L132.587 97.5905L124.949 110.82Z" fill="black"/>
</g>
<defs>
<clipPath id="clip0_319_2016">
<rect width="100" height="100" fill="white" transform="translate(40 44)"/>
</clipPath>
</defs>
</svg>
