<svg width="180" height="250" viewBox="0 0 180 250" fill="none" xmlns="http://www.w3.org/2000/svg">
<rect width="180" height="250" rx="20" fill="white"/>
<path d="M72.6582 186.621V193.125H74.75V194.988H72.6582V202.617H70.3906V186.621H72.6582ZM59.668 198.1C60.8369 198.1 62.1992 198.1 63.623 198.064V196.693C61.918 196.359 60.8105 195.278 60.8281 193.793C60.8105 192 62.4277 190.787 64.7656 190.787C67.0508 190.787 68.6855 192 68.7031 193.793C68.6855 195.278 67.5605 196.368 65.873 196.693V197.977C67.1387 197.915 68.4131 197.81 69.5996 197.643L69.7402 199.277C66.3301 199.91 62.6738 199.928 59.9668 199.928L59.668 198.1ZM69.4766 188.396V190.154H59.9844V188.396H63.623V186.709H65.873V188.396H69.4766ZM64.7656 192.492C63.6758 192.492 62.9375 192.967 62.9551 193.793C62.9375 194.637 63.6758 195.094 64.7656 195.094C65.8203 195.094 66.541 194.637 66.541 193.793C66.541 192.967 65.8203 192.492 64.7656 192.492ZM84.9102 188.045V189.82H75.418V188.045H79.0566V186.533H81.2891V188.045H84.9102ZM80.1641 190.33C82.4844 190.33 84.1016 191.525 84.1016 193.283C84.1016 195.041 82.4844 196.236 80.1641 196.236C77.8438 196.236 76.1914 195.041 76.1914 193.283C76.1914 191.525 77.8438 190.33 80.1641 190.33ZM80.1641 192.018C79.0918 192.018 78.3711 192.457 78.3887 193.283C78.3711 194.092 79.0918 194.514 80.1641 194.514C81.2363 194.514 81.9746 194.092 81.9746 193.283C81.9746 192.457 81.2363 192.018 80.1641 192.018ZM88.1094 186.621V190.77H90.2715V192.598H88.1094V196.658H85.8594V186.621H88.1094ZM88.1094 197.326V202.617H85.8594V199.119H77.334V197.326H88.1094ZM98.1816 196.588C101.68 196.588 103.877 197.695 103.895 199.611C103.877 201.492 101.68 202.617 98.1816 202.617C94.7188 202.617 92.4863 201.492 92.4863 199.611C92.4863 197.695 94.7188 196.588 98.1816 196.588ZM98.1816 198.258C95.9844 198.258 94.7188 198.715 94.7188 199.611C94.7188 200.473 95.9844 200.912 98.1816 200.912C100.379 200.912 101.662 200.473 101.662 199.611C101.662 198.715 100.379 198.258 98.1816 198.258ZM103.807 187.342V188.643C103.807 189.908 103.807 191.279 103.35 192.932L101.152 192.721C101.504 191.271 101.548 190.189 101.574 189.1H92.6445V187.342H103.807ZM105.529 193.758V195.568H91.0098V193.758H96.459V190.963H98.6738V193.758H105.529ZM116.023 188.045V189.82H106.531V188.045H110.17V186.533H112.402V188.045H116.023ZM111.277 190.33C113.598 190.33 115.215 191.525 115.215 193.283C115.215 195.041 113.598 196.236 111.277 196.236C108.957 196.236 107.305 195.041 107.305 193.283C107.305 191.525 108.957 190.33 111.277 190.33ZM111.277 192.018C110.205 192.018 109.484 192.457 109.502 193.283C109.484 194.092 110.205 194.514 111.277 194.514C112.35 194.514 113.088 194.092 113.088 193.283C113.088 192.457 112.35 192.018 111.277 192.018ZM119.223 186.621V190.77H121.385V192.598H119.223V196.658H116.973V186.621H119.223ZM119.223 197.326V202.617H116.973V199.119H108.447V197.326H119.223Z" fill="black"/>
<path d="M72.8125 106.5H74.375C70.9219 106.5 68.125 109.297 68.125 112.75C68.125 116.203 70.9219 119 74.375 119V125.25V131.5V134.625C74.375 138.078 77.1719 140.875 80.625 140.875H50.9375C46.625 140.875 43.125 137.375 43.125 133.062C43.125 129.109 46.0625 125.828 49.8906 125.328C49.9375 125.141 50.0156 124.953 50.0938 124.766C51.5 121.391 54.8594 119 58.75 119C58.75 116.703 57.5156 114.687 55.6563 113.609C55.6406 113.328 55.625 113.047 55.625 112.75C55.625 107.578 59.8281 103.375 65 103.375C65.5781 103.375 66.1406 103.422 66.6719 103.531H66.6875C68.1094 105.344 70.3281 106.5 72.8125 106.5Z" fill="#E6E9ED"/>
<path d="M90 95.5625V100.25H72.8125C71.9531 100.25 71.25 100.953 71.25 101.812V104.938C71.25 105.797 71.9531 106.5 72.8125 106.5C70.3281 106.5 68.1094 105.344 66.6875 103.531C65.625 102.203 65 100.516 65 98.6875C65 94.375 68.5 90.875 72.8125 90.875C73.7969 90.875 74.7188 91.0469 75.5938 91.375C75.9844 90.7656 76.4688 90.2031 77 89.7188C78.3906 88.5 80.2031 87.75 82.1875 87.75C86.5 87.75 90 91.25 90 95.5625Z" fill="#E6E9ED"/>
<path d="M99.375 78.375C102.828 78.375 105.625 81.1719 105.625 84.625C105.625 86.7188 104.594 88.5781 103 89.7188C101.609 88.5 99.7969 87.75 97.8125 87.75C93.5 87.75 90 91.25 90 95.5625C90 91.25 86.5 87.75 82.1875 87.75C80.2031 87.75 78.3906 88.5 77 89.7188C75.4063 88.5781 74.375 86.7188 74.375 84.625C74.375 81.1719 77.1719 78.375 80.625 78.375V79.9375H86.875H93.125H99.375V78.375Z" fill="#E6E9ED"/>
<path d="M107.188 100.25H90V95.5625C90 91.25 93.5 87.75 97.8125 87.75C99.7969 87.75 101.609 88.5 103 89.7188C103.531 90.2031 104.016 90.7656 104.406 91.375C105.281 91.0469 106.203 90.875 107.188 90.875C111.5 90.875 115 94.375 115 98.6875C115 100.516 114.375 102.203 113.312 103.531C111.891 105.344 109.672 106.5 107.188 106.5C108.047 106.5 108.75 105.797 108.75 104.938V101.812C108.75 100.953 108.047 100.25 107.188 100.25Z" fill="#E6E9ED"/>
<path d="M130.109 125.328C133.937 125.828 136.875 129.109 136.875 133.062C136.875 137.375 133.375 140.875 129.062 140.875H99.375C102.828 140.875 105.625 138.078 105.625 134.625V119C109.078 119 111.875 116.203 111.875 112.75C111.875 109.297 109.078 106.5 105.625 106.5H107.188C109.672 106.5 111.891 105.344 113.312 103.531H113.328C113.859 103.422 114.422 103.375 115 103.375C120.172 103.375 124.375 107.578 124.375 112.75C124.375 113.047 124.359 113.328 124.344 113.609C122.484 114.687 121.25 116.703 121.25 119C125.141 119 128.5 121.391 129.906 124.766C129.984 124.953 130.062 125.141 130.109 125.328Z" fill="#E6E9ED"/>
<path d="M74.375 112.75V119C70.9219 119 68.125 116.203 68.125 112.75C68.125 109.297 70.9219 106.5 74.375 106.5V112.75Z" fill="#69D6F4"/>
<path d="M55.6563 113.609C57.5156 114.687 58.75 116.703 58.75 119C54.8594 119 51.5 121.391 50.0938 124.766C47.8438 123.828 46.25 121.594 46.25 119C46.25 115.547 49.0469 112.75 52.5 112.75C53.6406 112.75 54.7344 113.062 55.6563 113.609Z" fill="#69D6F4"/>
<path d="M55.625 90.875C60.8027 90.875 65 86.6777 65 81.5C65 76.3223 60.8027 72.125 55.625 72.125C50.4473 72.125 46.25 76.3223 46.25 81.5C46.25 86.6777 50.4473 90.875 55.625 90.875Z" fill="#69D6F4"/>
<path d="M115 84.625C116.726 84.625 118.125 83.2259 118.125 81.5C118.125 79.7741 116.726 78.375 115 78.375C113.274 78.375 111.875 79.7741 111.875 81.5C111.875 83.2259 113.274 84.625 115 84.625Z" fill="#69D6F4"/>
<path d="M130.625 101.812C134.077 101.812 136.875 99.0143 136.875 95.5625C136.875 92.1107 134.077 89.3125 130.625 89.3125C127.173 89.3125 124.375 92.1107 124.375 95.5625C124.375 99.0143 127.173 101.812 130.625 101.812Z" fill="#69D6F4"/>
<path d="M121.25 119C121.25 116.703 122.484 114.687 124.344 113.609C125.266 113.062 126.359 112.75 127.5 112.75C130.953 112.75 133.75 115.547 133.75 119C133.75 121.594 132.156 123.828 129.906 124.766C128.5 121.391 125.141 119 121.25 119Z" fill="#69D6F4"/>
<path d="M105.625 106.5C109.078 106.5 111.875 109.297 111.875 112.75C111.875 116.203 109.078 119 105.625 119V106.5Z" fill="#69D6F4"/>
<path d="M65 134.625C66.7259 134.625 68.125 133.226 68.125 131.5C68.125 129.774 66.7259 128.375 65 128.375C63.2741 128.375 61.875 129.774 61.875 131.5C61.875 133.226 63.2741 134.625 65 134.625Z" fill="#69D6F4"/>
<path d="M115 134.625C116.726 134.625 118.125 133.226 118.125 131.5C118.125 129.774 116.726 128.375 115 128.375C113.274 128.375 111.875 129.774 111.875 131.5C111.875 133.226 113.274 134.625 115 134.625Z" fill="#69D6F4"/>
<path d="M108.75 101.812V104.938C108.75 105.797 108.047 106.5 107.188 106.5H105.625H74.375H72.8125C71.9531 106.5 71.25 105.797 71.25 104.938V101.812C71.25 100.953 71.9531 100.25 72.8125 100.25H90H107.188C108.047 100.25 108.75 100.953 108.75 101.812Z" fill="#AAB2BD"/>
<path d="M74.375 131.5V125.25V119V112.75V106.5H105.625V119V134.625C105.625 138.078 102.828 140.875 99.375 140.875H80.625C77.1719 140.875 74.375 138.078 74.375 134.625V131.5Z" fill="#FFEAA7"/>
<path d="M93.125 134.625C94.8509 134.625 96.25 133.226 96.25 131.5C96.25 129.774 94.8509 128.375 93.125 128.375C91.3991 128.375 90 129.774 90 131.5C90 133.226 91.3991 134.625 93.125 134.625Z" fill="#4FC1E9"/>
<path d="M96.25 119C97.9759 119 99.375 117.601 99.375 115.875C99.375 114.149 97.9759 112.75 96.25 112.75C94.5241 112.75 93.125 114.149 93.125 115.875C93.125 117.601 94.5241 119 96.25 119Z" fill="#4FC1E9"/>
<path d="M71.25 53.375H77.5V65.875H49.375C47.6562 65.875 46.0938 65.1719 44.9531 64.0469C43.8281 62.9062 43.125 61.3438 43.125 59.625C43.125 56.1719 45.9219 53.375 49.375 53.375H52.5H58.75H65H71.25Z" fill="#FFEAA7"/>
<path d="M83.75 65.875V67.4375C83.75 68.2969 83.0469 69 82.1875 69H79.0625C78.2031 69 77.5 68.2969 77.5 67.4375V65.875V53.375V51.8125C77.5 50.9531 78.2031 50.25 79.0625 50.25H82.1875C83.0469 50.25 83.75 50.9531 83.75 51.8125V65.875Z" fill="#FCD770"/>
<path d="M102.5 65.875V67.4375C102.5 68.2969 101.797 69 100.938 69H97.8125C96.9531 69 96.25 68.2969 96.25 67.4375V65.875V54.9375C96.25 54.0781 96.9531 53.375 97.8125 53.375H100.938C101.797 53.375 102.5 54.0781 102.5 54.9375V56.5V65.875Z" fill="#B4DD7F"/>
<path d="M115 65.875H102.5V56.5H108.75H115L127.766 47.9844C128.609 47.4219 129.609 47.125 130.625 47.125C131.641 47.125 132.641 47.4219 133.484 47.9844L135.484 49.3281C136.359 49.9063 136.875 50.875 136.875 51.9219V62.75C133.234 62.75 133.234 65.875 129.594 65.875C125.938 65.875 125.937 62.75 122.297 62.75C118.641 62.75 118.641 65.875 115 65.875Z" fill="#E6E9ED"/>
<path d="M136.875 62.75V70.4531C136.875 71.5 136.359 72.4688 135.484 73.0469L133.484 74.3906C132.641 74.9531 131.641 75.25 130.625 75.25C129.609 75.25 128.609 74.9531 127.766 74.3906L115 65.875C118.641 65.875 118.641 62.75 122.297 62.75C125.937 62.75 125.938 65.875 129.594 65.875C133.234 65.875 133.234 62.75 136.875 62.75Z" fill="#69D6F4"/>
<path d="M136.35 48.0219L134.355 46.6907C132.141 45.2141 129.111 45.2141 126.897 46.6907L114.527 54.9375H104.062C104.062 53.2141 102.661 51.8125 100.938 51.8125H97.8125C96.0891 51.8125 94.6875 53.2141 94.6875 54.9375V64.6C92.8734 65.2469 91.5625 66.9657 91.5625 69V79.9375H94.6875V69C94.6875 68.7657 94.7469 68.55 94.8391 68.35C95.2328 69.6266 96.4094 70.5625 97.8125 70.5625H100.938C102.661 70.5625 104.062 69.161 104.062 67.4375H114.527L126.895 75.6829C128.003 76.4219 129.292 76.8126 130.625 76.8126C131.958 76.8126 133.247 76.4219 134.355 75.6829L136.35 74.3516C137.656 73.4813 138.438 72.0235 138.438 70.4532V51.9219C138.438 50.3516 137.656 48.8938 136.35 48.0219ZM100.938 67.4375H97.8125L97.8109 54.9375H100.938V67.4375ZM104.062 64.3125V58.0625H107.188V61.1875H110.312V58.0625H113.438V61.1875H116.562V57.336L128.63 49.2922C129.816 48.5016 131.436 48.5016 132.622 49.2922L134.617 50.6235C135.052 50.9125 135.312 51.3985 135.312 51.9219V61.3625C133.88 61.7016 132.975 62.4735 132.214 63.1266C131.381 63.8407 130.831 64.3125 129.586 64.3125C128.341 64.3125 127.789 63.8407 126.956 63.1266C125.948 62.2626 124.695 61.1875 122.294 61.1875C119.892 61.1875 118.637 62.2626 117.63 63.1266C116.797 63.8407 116.245 64.3125 115 64.3125H104.062ZM134.617 71.7532L132.622 73.0844C131.436 73.8751 129.816 73.8751 128.63 73.0844L118.558 66.3688C118.972 66.086 119.334 65.7829 119.666 65.5C120.497 64.7844 121.048 64.3125 122.294 64.3125C123.539 64.3125 124.089 64.7844 124.923 65.4985C125.931 66.3625 127.184 67.4375 129.586 67.4375C131.986 67.4375 133.241 66.3625 134.247 65.4985C134.628 65.1704 134.955 64.9032 135.311 64.7001V70.4532C135.312 70.9766 135.052 71.4625 134.617 71.7532Z" fill="black"/>
<path d="M49.375 67.4375H75.9375C75.9375 69.1609 77.3391 70.5625 79.0625 70.5625H82.1875C83.5906 70.5625 84.7672 69.6266 85.1609 68.35C85.2531 68.55 85.3125 68.7656 85.3125 69V79.9375H88.4375V69C88.4375 66.9656 87.1266 65.2469 85.3125 64.6V51.8125C85.3125 50.0891 83.9109 48.6875 82.1875 48.6875H79.0625C77.3391 48.6875 75.9375 50.0891 75.9375 51.8125H49.375C45.0672 51.8125 41.5625 55.3172 41.5625 59.625C41.5625 63.9328 45.0672 67.4375 49.375 67.4375ZM79.0625 51.8125H82.1875V67.4375H79.0625V51.8125ZM49.375 54.9375H50.9375V61.1875H54.0625V54.9375H57.1875V58.0625H60.3125V54.9375H63.4375V61.1875H66.5625V54.9375H69.6875V58.0625H72.8125V54.9375H75.9375V64.3125H49.375C46.7906 64.3125 44.6875 62.2094 44.6875 59.625C44.6875 57.0406 46.7906 54.9375 49.375 54.9375Z" fill="black"/>
<path d="M93.125 126.812C90.5406 126.812 88.4375 128.916 88.4375 131.5C88.4375 134.084 90.5406 136.188 93.125 136.188C95.7094 136.188 97.8125 134.084 97.8125 131.5C97.8125 128.916 95.7094 126.812 93.125 126.812ZM93.125 133.062C92.2641 133.062 91.5625 132.361 91.5625 131.5C91.5625 130.639 92.2641 129.938 93.125 129.938C93.9859 129.938 94.6875 130.639 94.6875 131.5C94.6875 132.361 93.9859 133.062 93.125 133.062Z" fill="black"/>
<path d="M96.25 111.188C93.6656 111.188 91.5625 113.291 91.5625 115.875C91.5625 118.459 93.6656 120.562 96.25 120.562C98.8344 120.562 100.938 118.459 100.938 115.875C100.938 113.291 98.8344 111.188 96.25 111.188ZM96.25 117.438C95.3891 117.438 94.6875 116.736 94.6875 115.875C94.6875 115.014 95.3891 114.312 96.25 114.312C97.1109 114.312 97.8125 115.014 97.8125 115.875C97.8125 116.736 97.1109 117.438 96.25 117.438Z" fill="black"/>
<path d="M44.6875 81.5C44.6875 87.5312 49.5938 92.4375 55.625 92.4375C61.6562 92.4375 66.5625 87.5312 66.5625 81.5C66.5625 75.4688 61.6562 70.5625 55.625 70.5625C49.5938 70.5625 44.6875 75.4688 44.6875 81.5ZM63.4375 81.5C63.4375 85.8078 59.9328 89.3125 55.625 89.3125C51.3172 89.3125 47.8125 85.8078 47.8125 81.5C47.8125 77.1922 51.3172 73.6875 55.625 73.6875C59.9328 73.6875 63.4375 77.1922 63.4375 81.5Z" fill="black"/>
<path d="M55.625 79.9375C56.4859 79.9375 57.1875 80.6391 57.1875 81.5H60.3125C60.3125 78.9156 58.2094 76.8125 55.625 76.8125V79.9375Z" fill="black"/>
<path d="M65 126.812C62.4156 126.812 60.3125 128.916 60.3125 131.5C60.3125 134.084 62.4156 136.188 65 136.188C67.5844 136.188 69.6875 134.084 69.6875 131.5C69.6875 128.916 67.5844 126.812 65 126.812ZM65 133.062C64.1391 133.062 63.4375 132.361 63.4375 131.5C63.4375 130.639 64.1391 129.938 65 129.938C65.8609 129.938 66.5625 130.639 66.5625 131.5C66.5625 132.361 65.8609 133.062 65 133.062Z" fill="black"/>
<path d="M132.953 124.572C134.427 123.131 135.312 121.148 135.312 119C135.312 114.692 131.808 111.188 127.5 111.188C126.93 111.188 126.377 111.256 125.841 111.373C125.202 106.317 121.105 102.328 115.997 101.863C116.356 100.869 116.562 99.8031 116.562 98.6875C116.562 93.5172 112.358 89.3125 107.188 89.3125C106.614 89.3125 106.045 89.3641 105.489 89.4656C106.567 88.1016 107.188 86.4016 107.188 84.625C107.188 80.8531 104.498 77.6969 100.938 76.9703V73.6875H97.8125V83.0625H100.938V80.225C102.752 80.8719 104.062 82.5906 104.062 84.625C104.062 85.7656 103.642 86.8578 102.906 87.7031C101.437 86.7484 99.6906 86.1875 97.8125 86.1875C94.5531 86.1875 91.6813 87.8609 90 90.3906C88.3187 87.8594 85.4469 86.1875 82.1875 86.1875C80.3094 86.1875 78.5625 86.7484 77.0938 87.7031C76.3578 86.8578 75.9375 85.7656 75.9375 84.625C75.9375 82.5906 77.2484 80.8719 79.0625 80.225V83.0625H82.1875V73.6875H79.0625V76.9703C75.5016 77.6969 72.8125 80.8516 72.8125 84.625C72.8125 86.4016 73.4328 88.1016 74.5109 89.4656C73.9547 89.3641 73.3859 89.3125 72.8125 89.3125C67.6422 89.3125 63.4375 93.5172 63.4375 98.6875C63.4375 99.8031 63.6438 100.869 64.0031 101.863C58.8953 102.327 54.7984 106.316 54.1594 111.373C53.6234 111.256 53.0703 111.188 52.5 111.188C48.1922 111.188 44.6875 114.692 44.6875 119C44.6875 121.148 45.5734 123.131 47.0469 124.572C43.8 126.069 41.5625 129.334 41.5625 133.062C41.5625 138.233 45.7672 142.438 50.9375 142.438H129.062C134.233 142.438 138.438 138.233 138.438 133.062C138.438 129.334 136.2 126.069 132.953 124.572ZM132.188 119C132.188 120.412 131.559 121.714 130.516 122.589C128.884 119.988 126.195 118.122 123.05 117.598C123.65 115.702 125.406 114.312 127.5 114.312C130.084 114.312 132.188 116.416 132.188 119ZM97.8125 89.3125C101.259 89.3125 104.062 92.1156 104.062 95.5625H107.188C107.188 94.4828 106.995 93.45 106.658 92.4859C106.834 92.4703 107.008 92.4375 107.188 92.4375C110.634 92.4375 113.438 95.2406 113.438 98.6875C113.438 100.991 112.172 102.984 110.312 104.069V101.812C110.312 100.089 108.911 98.6875 107.188 98.6875H91.5625V95.5625C91.5625 92.1156 94.3656 89.3125 97.8125 89.3125ZM72.8125 108.35V117.148C70.9984 116.502 69.6875 114.783 69.6875 112.748C69.6875 110.714 70.9984 108.997 72.8125 108.35ZM72.8125 104.938V101.812H107.188L107.189 104.938H72.8125ZM107.188 108.35C109.002 108.997 110.312 110.716 110.312 112.75C110.312 114.784 109.002 116.503 107.188 117.15V108.35ZM72.8125 92.4375C72.9922 92.4375 73.1656 92.4703 73.3422 92.4859C73.0047 93.45 72.8125 94.4828 72.8125 95.5625H75.9375C75.9375 92.1156 78.7406 89.3125 82.1875 89.3125C85.6344 89.3125 88.4375 92.1156 88.4375 95.5625V98.6875H72.8125C71.0891 98.6875 69.6875 100.089 69.6875 101.812V104.069C67.8281 102.984 66.5625 100.991 66.5625 98.6875C66.5625 95.2406 69.3656 92.4375 72.8125 92.4375ZM52.5 114.312C54.575 114.312 56.3187 115.677 56.9328 117.602C53.7953 118.13 51.1125 119.992 49.4844 122.591C48.4406 121.714 47.8125 120.412 47.8125 119C47.8125 116.416 49.9156 114.312 52.5 114.312ZM44.6875 133.062C44.6875 130.767 45.9531 128.727 47.85 127.641C47.8328 127.884 47.8125 128.127 47.8125 128.375C47.8125 128.987 47.8641 129.6 47.9641 130.197L51.0469 129.678C50.9734 129.252 50.9375 128.814 50.9375 128.375C50.9375 124.067 54.4422 120.562 58.75 120.562C60.125 120.562 61.475 120.923 62.6547 121.606L64.2203 118.903C62.9734 118.181 61.5922 117.717 60.1641 117.531C59.7937 115.6 58.7016 113.938 57.1891 112.792C57.1891 112.778 57.1875 112.764 57.1875 112.75C57.1875 108.442 60.6922 104.938 65 104.938C65.3094 104.938 65.6141 104.983 65.9187 105.019C66.7531 105.927 67.7625 106.669 68.8953 107.194C67.4578 108.611 66.5625 110.577 66.5625 112.75C66.5625 116.522 69.2516 119.678 72.8125 120.405V134.625C72.8125 136.391 73.4234 138.003 74.4156 139.312H50.9375C47.4906 139.312 44.6875 136.509 44.6875 133.062ZM80.625 139.312C78.0406 139.312 75.9375 137.209 75.9375 134.625V133.062H82.1875V129.938H75.9375V126.812H85.3125V123.688H75.9375V120.562H82.1875V117.438H75.9375V114.312H85.3125V111.188H75.9375V108.062H104.062V134.625C104.062 137.209 101.959 139.312 99.375 139.312H80.625ZM129.062 139.312H105.584C106.577 138.003 107.188 136.391 107.188 134.625V120.405C110.748 119.678 113.438 116.523 113.438 112.75C113.438 110.577 112.542 108.611 111.105 107.194C112.238 106.67 113.247 105.928 114.081 105.019C114.386 104.983 114.691 104.938 115 104.938C119.308 104.938 122.812 108.442 122.812 112.75C122.812 112.764 122.811 112.778 122.811 112.792C121.3 113.938 120.206 115.6 119.836 117.531C118.408 117.717 117.027 118.181 115.78 118.903L117.345 121.606C118.525 120.923 119.875 120.562 121.25 120.562C125.558 120.562 129.062 124.067 129.062 128.375C129.062 128.814 129.027 129.252 128.955 129.678L132.037 130.197C132.136 129.6 132.188 128.987 132.188 128.375C132.188 128.127 132.167 127.884 132.15 127.641C134.047 128.727 135.312 130.767 135.312 133.062C135.312 136.509 132.509 139.312 129.062 139.312Z" fill="black"/>
<path d="M115 126.812C112.416 126.812 110.312 128.916 110.312 131.5C110.312 134.084 112.416 136.188 115 136.188C117.584 136.188 119.688 134.084 119.688 131.5C119.688 128.916 117.584 126.812 115 126.812ZM115 133.062C114.139 133.062 113.438 132.361 113.438 131.5C113.438 130.639 114.139 129.938 115 129.938C115.861 129.938 116.562 130.639 116.562 131.5C116.562 132.361 115.861 133.062 115 133.062Z" fill="black"/>
<path d="M130.625 87.75C126.317 87.75 122.812 91.2547 122.812 95.5625C122.812 99.8703 126.317 103.375 130.625 103.375C134.933 103.375 138.438 99.8703 138.438 95.5625C138.438 91.2547 134.933 87.75 130.625 87.75ZM130.625 100.25C128.041 100.25 125.938 98.1469 125.938 95.5625C125.938 92.9781 128.041 90.875 130.625 90.875C133.209 90.875 135.312 92.9781 135.312 95.5625C135.312 98.1469 133.209 100.25 130.625 100.25Z" fill="black"/>
<path d="M119.688 81.5C119.688 78.9156 117.584 76.8125 115 76.8125C112.416 76.8125 110.312 78.9156 110.312 81.5C110.312 84.0844 112.416 86.1875 115 86.1875C117.584 86.1875 119.688 84.0844 119.688 81.5ZM113.438 81.5C113.438 80.6391 114.139 79.9375 115 79.9375C115.861 79.9375 116.562 80.6391 116.562 81.5C116.562 82.3609 115.861 83.0625 115 83.0625C114.139 83.0625 113.438 82.3609 113.438 81.5Z" fill="black"/>
</svg>
