<svg width="20" height="20" viewBox="0 0 20 20" fill="none" xmlns="http://www.w3.org/2000/svg">
<circle cx="10" cy="10" r="10" fill="white"/>
<path d="M9.89966 2.00388C9.92284 2.0026 9.94602 2.00132 9.9699 2C10.1857 2.04097 10.3473 2.26455 10.4945 2.42624C10.5198 2.45379 10.5451 2.48134 10.5712 2.50972C10.6546 2.60051 10.7378 2.69154 10.8209 2.7826C10.8789 2.84587 10.9369 2.90913 10.9948 2.97238C11.1162 3.10479 11.2374 3.23735 11.3585 3.37C11.4985 3.52324 11.6386 3.67624 11.7789 3.82911C11.9141 3.97642 12.0491 4.12393 12.184 4.27152C12.2414 4.33422 12.2988 4.39686 12.3562 4.45946C12.4364 4.54683 12.5163 4.63443 12.5962 4.72209C12.6201 4.74798 12.6439 4.77387 12.6685 4.80055C12.6902 4.82448 12.7119 4.84841 12.7343 4.87306C12.7627 4.90407 12.7627 4.90407 12.7916 4.93571C12.9 5.07368 12.9145 5.19062 12.9099 5.36738C12.8989 5.47423 12.8732 5.533 12.8081 5.6136C12.6708 5.71246 12.5633 5.73871 12.4002 5.71643C11.6001 5.13378 11.0091 4.26549 10.3292 3.52275C10.3292 7.28937 10.3292 11.056 10.3292 14.9368C10.4741 15.0159 10.6191 15.0951 10.7685 15.1767C11.0319 15.4135 11.2306 15.7305 11.3019 16.1021C11.3464 16.6578 11.2607 17.0758 10.9334 17.5118C10.6855 17.8084 10.352 17.9647 9.98914 17.9947C9.60043 18.0084 9.242 17.8863 8.9393 17.6142C8.63272 17.2944 8.47439 16.9071 8.46409 16.4406C8.47739 16.0042 8.61266 15.6336 8.88304 15.3111C9.07349 15.1194 9.26509 15.0142 9.51331 14.9368C9.50296 11.1701 9.4926 7.40351 9.48194 3.52275C8.82957 4.23535 8.17721 4.94796 7.50508 5.68216C7.35219 5.76566 7.26008 5.76061 7.09715 5.71643C6.98929 5.64373 6.91592 5.57576 6.8775 5.44222C6.85701 5.24451 6.90046 5.12113 7.00302 4.96235C7.08449 4.85939 7.17211 4.76393 7.26061 4.66821C7.28649 4.63981 7.31238 4.61142 7.33904 4.58216C7.42427 4.48879 7.50983 4.39579 7.59541 4.3028C7.65482 4.23793 7.71422 4.17303 7.7736 4.10812C7.89786 3.97235 8.0223 3.83679 8.14686 3.70136C8.29087 3.54478 8.4346 3.3879 8.57818 3.23085C8.71649 3.07958 8.85497 2.92849 8.99355 2.77751C9.05245 2.71329 9.11132 2.64903 9.17014 2.58473C9.25216 2.49511 9.33439 2.40573 9.41667 2.3164C9.44108 2.28966 9.46548 2.26292 9.49063 2.23536C9.51302 2.21115 9.53541 2.18693 9.55848 2.16198C9.57789 2.14084 9.59731 2.1197 9.61732 2.09792C9.70389 2.01763 9.79006 2.00781 9.89966 2.00388ZM9.47213 15.9029C9.33604 16.0585 9.25691 16.2099 9.2466 16.4278C9.25764 16.654 9.3421 16.8203 9.4937 16.9719C9.65467 17.1096 9.81148 17.1564 10.0154 17.1304C10.237 17.0454 10.3693 16.9413 10.4861 16.7191C10.5392 16.545 10.5479 16.3451 10.4971 16.1684C10.4097 15.986 10.2746 15.8373 10.0982 15.7621C9.85333 15.6939 9.67901 15.7537 9.47213 15.9029Z" fill="#1F4298"/>
<path d="M15.0989 6.95025C15.2738 7.0612 15.4076 7.20916 15.5495 7.36505C15.588 7.40687 15.588 7.40687 15.6272 7.44954C15.7116 7.54144 15.7958 7.63358 15.88 7.72575C15.9386 7.78979 15.9973 7.85382 16.056 7.91783C16.1788 8.05187 16.3015 8.18604 16.4241 8.3203C16.5657 8.47541 16.7076 8.63027 16.8496 8.78501C16.9865 8.93412 17.1231 9.08342 17.2597 9.23281C17.3177 9.29627 17.3758 9.35968 17.434 9.42304C17.5151 9.51148 17.596 9.60015 17.6769 9.68887C17.701 9.71508 17.7252 9.7413 17.75 9.76831C17.772 9.79252 17.794 9.81674 17.8167 9.84169C17.8358 9.86262 17.8549 9.88355 17.8746 9.90511C17.9607 10.0145 17.9952 10.11 17.9975 10.2536C17.9984 10.2786 17.9993 10.3036 18.0002 10.3294C17.9591 10.5647 17.7575 10.7398 17.6089 10.9012C17.5837 10.9289 17.5585 10.9566 17.5325 10.9851C17.4494 11.0762 17.366 11.167 17.2827 11.2578C17.2248 11.3211 17.1668 11.3845 17.1089 11.4478C16.9877 11.5803 16.8664 11.7127 16.7449 11.845C16.6046 11.9979 16.4646 12.151 16.3246 12.3043C16.1898 12.4519 16.0547 12.5994 15.9196 12.7468C15.8622 12.8095 15.8049 12.8722 15.7476 12.9349C15.6676 13.0225 15.5874 13.1098 15.5071 13.1971C15.4834 13.2231 15.4597 13.2491 15.4353 13.276C15.4134 13.2997 15.3915 13.3234 15.3689 13.3479C15.3405 13.3789 15.3405 13.3789 15.3116 13.4105C15.1892 13.5252 15.0787 13.5501 14.9208 13.547C14.7938 13.5197 14.7087 13.4332 14.6282 13.3256C14.5904 13.2016 14.5867 13.1134 14.5969 12.9829C14.6821 12.8224 14.7868 12.6973 14.9066 12.5682C14.9246 12.5485 14.9427 12.5287 14.9613 12.5084C15.0206 12.4437 15.0801 12.3792 15.1396 12.3148C15.181 12.2697 15.2223 12.2247 15.2636 12.1796C15.372 12.0615 15.4806 11.9435 15.5892 11.8256C15.7002 11.7051 15.811 11.5844 15.9218 11.4637C16.1389 11.2273 16.3562 10.991 16.5737 10.7549C16.3885 10.7524 16.2032 10.7505 16.0179 10.7493C15.9551 10.7488 15.8922 10.7481 15.8293 10.7472C15.1721 10.738 14.6327 10.8453 14.1262 11.3376C14.0974 11.3649 14.0974 11.3649 14.068 11.3928C13.6649 11.801 13.4695 12.3866 13.4265 12.9735C13.4222 13.1027 13.4204 13.2316 13.4198 13.3609C13.4193 13.4078 13.4187 13.4547 13.4181 13.5016C13.4166 13.6231 13.4157 13.7447 13.4148 13.8662C13.4139 13.991 13.4124 14.1158 13.411 14.2406C13.4084 14.484 13.4062 14.7275 13.4045 14.9709C13.4339 14.9812 13.4633 14.9915 13.4936 15.0021C13.8136 15.1227 14.0595 15.4038 14.2144 15.725C14.3909 16.144 14.4019 16.5906 14.2617 17.0275C14.0939 17.4441 13.7911 17.7531 13.4045 17.9187C13.0407 18.0528 12.6325 18.0163 12.2855 17.8426C11.9148 17.6173 11.6551 17.2707 11.5353 16.824C11.4505 16.3821 11.5189 15.9415 11.7355 15.5622C11.768 15.5129 11.8013 15.4643 11.8355 15.4165C11.8505 15.3954 11.8655 15.3743 11.881 15.3525C11.9955 15.2107 12.1282 15.1307 12.2827 15.0494C12.3031 15.0384 12.3235 15.0275 12.3445 15.0163C12.3944 14.9895 12.4444 14.9631 12.4945 14.9366C12.4947 14.9099 12.4949 14.8832 12.495 14.8557C12.4969 14.6017 12.4991 14.3476 12.5019 14.0936C12.5033 13.963 12.5045 13.8325 12.5054 13.7019C12.5062 13.5755 12.5075 13.449 12.509 13.3225C12.5095 13.2748 12.5099 13.227 12.5101 13.1793C12.5145 12.2088 12.8105 11.3473 13.4358 10.6521C14.1764 9.89016 15.0398 9.73577 16.0167 9.70735C16.0649 9.70586 16.1131 9.70437 16.1613 9.70286C16.2778 9.69924 16.3944 9.69576 16.511 9.69235C16.4758 9.65428 16.4758 9.65428 16.4399 9.61543C16.219 9.37616 15.9982 9.13661 15.7778 8.8968C15.6644 8.77352 15.551 8.65033 15.4374 8.52737C15.3277 8.40869 15.2183 8.28977 15.109 8.17067C15.0673 8.12527 15.0254 8.07997 14.9835 8.03476C14.9249 7.97142 14.8665 7.90776 14.8082 7.84402C14.7908 7.8254 14.7734 7.80679 14.7555 7.78761C14.664 7.68686 14.5996 7.6025 14.5655 7.46439C14.5687 7.24149 14.6079 7.14001 14.7538 6.98452C14.869 6.94257 14.9796 6.92537 15.0989 6.95025ZM12.5154 15.8997C12.3449 16.1061 12.2939 16.2404 12.2979 16.5184C12.3105 16.6669 12.3445 16.7749 12.4317 16.8904C12.6205 17.0609 12.7792 17.1481 13.0279 17.1303C13.249 17.0829 13.3703 16.9493 13.4986 16.7533C13.5792 16.604 13.582 16.4425 13.5614 16.2734C13.5039 16.074 13.4082 15.9437 13.2476 15.8278C12.9866 15.7067 12.7403 15.6788 12.5154 15.8997Z" fill="#1F4298"/>
<path d="M5.15164 6.95034C5.26318 6.99801 5.29952 7.03822 5.36541 7.14743C5.40824 7.27548 5.4162 7.36336 5.40267 7.49876C5.33452 7.64852 5.23574 7.75901 5.1279 7.87524C5.10983 7.89499 5.09176 7.91474 5.07314 7.93509C5.0137 7.99997 4.95403 8.06461 4.89436 8.12926C4.85298 8.17434 4.8116 8.21943 4.77025 8.26454C4.66159 8.38297 4.55275 8.50119 4.44386 8.61937C4.33269 8.7401 4.2217 8.86103 4.11069 8.98195C3.89303 9.21897 3.67518 9.45577 3.4572 9.69244C3.48127 9.69335 3.50534 9.69425 3.53014 9.69518C3.6407 9.69937 3.75126 9.70367 3.86181 9.70797C3.89967 9.70939 3.93753 9.71081 3.97654 9.71227C4.95611 9.75077 5.79971 10.0123 6.49725 10.8078C7.03353 11.4887 7.26605 12.2711 7.26015 13.1601C7.26003 13.2126 7.25994 13.2651 7.25988 13.3176C7.25964 13.4544 7.25903 13.5913 7.25833 13.7282C7.25768 13.8683 7.2574 14.0085 7.25708 14.1487C7.25641 14.4228 7.25534 14.6969 7.25402 14.971C7.28354 14.9758 7.31307 14.9806 7.34349 14.9855C7.55964 15.0288 7.73777 15.2082 7.88159 15.3823C7.90422 15.4062 7.90422 15.4062 7.92731 15.4306C8.1532 15.6849 8.25834 16.0628 8.26598 16.4127C8.25895 16.8292 8.13268 17.2047 7.88049 17.5183C7.59144 17.8203 7.23295 17.9825 6.83629 17.998C6.42816 17.9868 6.05208 17.8267 5.76745 17.501C5.52097 17.1712 5.3838 16.7829 5.39483 16.3561C5.43379 15.9459 5.57575 15.5338 5.86747 15.2605C6.20499 14.971 6.20499 14.971 6.37541 14.971C6.37348 14.6882 6.37105 14.4054 6.36802 14.1226C6.36662 13.9912 6.36539 13.8599 6.36454 13.7285C6.36372 13.6014 6.36244 13.4743 6.36088 13.3472C6.36036 13.299 6.36 13.2509 6.3598 13.2028C6.35792 12.7869 6.31559 12.391 6.13615 12.0189C6.12524 11.9959 6.11433 11.9729 6.10309 11.9492C5.83133 11.3959 5.40266 11.0286 4.85875 10.8313C4.56562 10.7389 4.2847 10.7432 3.98279 10.7486C3.93159 10.7491 3.8804 10.7496 3.8292 10.75C3.70519 10.7511 3.5812 10.7529 3.4572 10.755C3.48104 10.7809 3.50488 10.8068 3.52944 10.8335C3.75401 11.0774 3.97841 11.3215 4.20265 11.5657C4.31794 11.6913 4.43329 11.8168 4.54877 11.9422C4.6602 12.0632 4.77147 12.1843 4.88264 12.3056C4.9251 12.3518 4.96761 12.398 5.01018 12.4441C5.06975 12.5087 5.12913 12.5735 5.18846 12.6384C5.20614 12.6574 5.22381 12.6765 5.24202 12.6961C5.36324 12.8292 5.42825 12.9133 5.44386 13.1008C5.4301 13.2721 5.37774 13.3493 5.27324 13.4735C5.15046 13.5523 5.03973 13.5653 4.90062 13.5314C4.7258 13.4204 4.59198 13.2725 4.45001 13.1166C4.42437 13.0887 4.39874 13.0608 4.37232 13.0321C4.28792 12.9402 4.20374 12.8481 4.11958 12.7559C4.06091 12.6918 4.00224 12.6278 3.94355 12.5638C3.82074 12.4298 3.69806 12.2956 3.57545 12.1613C3.43379 12.0062 3.29191 11.8514 3.1499 11.6966C3.01308 11.5475 2.87643 11.3982 2.73986 11.2488C2.6818 11.1854 2.6237 11.122 2.56555 11.0586C2.48443 10.9701 2.4035 10.8815 2.32263 10.7928C2.2985 10.7665 2.27438 10.7403 2.24952 10.7133C2.22753 10.6891 2.20554 10.6649 2.18288 10.6399C2.16374 10.619 2.14461 10.5981 2.12489 10.5765C2.02124 10.4448 1.99489 10.325 2.00078 10.1543C2.03952 9.90143 2.29187 9.6873 2.45137 9.51406C2.48776 9.47413 2.48776 9.47413 2.52488 9.43339C2.60445 9.34618 2.68424 9.25922 2.76404 9.17227C2.81969 9.11144 2.87533 9.0506 2.93095 8.98975C3.0621 8.84638 3.19341 8.70318 3.32478 8.56005C3.44433 8.42976 3.56364 8.29921 3.68291 8.1686C3.81237 8.02683 3.94202 7.88525 4.07174 7.74376C4.12674 7.68372 4.1817 7.62363 4.23661 7.56348C4.31329 7.47956 4.39016 7.39585 4.46708 7.31221C4.4897 7.28737 4.51231 7.26253 4.53561 7.23693C4.73067 7.02564 4.86963 6.91001 5.15164 6.95034ZM6.34404 15.965C6.23136 16.1394 6.17427 16.2976 6.18714 16.5134C6.23268 16.7301 6.31291 16.8892 6.47617 17.0235C6.62604 17.1258 6.76586 17.1498 6.94023 17.1304C7.15986 17.0577 7.29938 16.9494 7.41091 16.7243C7.48277 16.548 7.49372 16.3901 7.44229 16.2049C7.34703 15.9885 7.23769 15.8512 7.03437 15.7593C6.77726 15.6914 6.53278 15.7529 6.34404 15.965Z" fill="#1F4298"/>
</svg>
