<?xml version="1.0" encoding="UTF-8"?>
<svg id="_레이어_2" data-name="레이어 2" xmlns="http://www.w3.org/2000/svg" viewBox="0 0 2386.75 1556.48">
  <defs>
    <style>
      .cls-1, .cls-2, .cls-3, .cls-4, .cls-5, .cls-6, .cls-7, .cls-8, .cls-9, .cls-10, .cls-11, .cls-12, .cls-13, .cls-14, .cls-15, .cls-16, .cls-17, .cls-18 {
        stroke-width: 0px;
      }

      .cls-1, .cls-9 {
        fill: #e28b6d;
      }

      .cls-2 {
        fill: #a9bae6;
      }

      .cls-3 {
        fill: #d3dfff;
      }

      .cls-4 {
        fill: #708cd5;
      }

      .cls-5 {
        fill: #f6f5f5;
      }

      .cls-19 {
        stroke: #708cd5;
        stroke-width: 6px;
      }

      .cls-19, .cls-20, .cls-21 {
        stroke-miterlimit: 10;
      }

      .cls-19, .cls-13 {
        fill: #fff;
      }

      .cls-6 {
        fill: #fc8879;
        opacity: .4;
      }

      .cls-7, .cls-16 {
        fill: #1f3c88;
      }

      .cls-8, .cls-11 {
        fill: #6f3428;
      }

      .cls-9, .cls-11, .cls-14 {
        opacity: .6;
      }

      .cls-20 {
        stroke: #e4e4e4;
        stroke-dasharray: 0 0 32.09 32.09;
        stroke-width: 4px;
      }

      .cls-20, .cls-21 {
        fill: none;
      }

      .cls-10, .cls-14 {
        fill: #102048;
      }

      .cls-12 {
        fill: #fbc343;
      }

      .cls-15 {
        fill: #e4e4e4;
      }

      .cls-21 {
        stroke: #6f3428;
        stroke-width: 8px;
      }

      .cls-21, .cls-16 {
        opacity: .3;
      }

      .cls-17 {
        fill: #f9b384;
      }

      .cls-18 {
        fill: #ee6f57;
      }
    </style>
  </defs>
  <g id="Layer_1" data-name="Layer 1">
    <g>
      <g>
        <path class="cls-20" d="M2350.68,1063.04c125.27,224.17-56,664-1205.64,358.33-576.41-153.26-1006.97,191.99-1095.69-49C-157.32,811.04,686.68,161.71,1156.01,615.04c428.99,414.37,966.67,40,1194.67,448Z"/>
        <path class="cls-5" d="M2344.08,1556.48H0c73.36-542,570.08-961.24,1172.04-961.24s1098.68,419.24,1172.04,961.24Z"/>
      </g>
      <g>
        <rect class="cls-2" x="1082.52" y="138.36" width="1030.33" height="1413.36" rx="74.32" ry="74.32"/>
        <g>
          <g>
            <rect class="cls-5" x="1175.64" y="195.32" width="848.04" height="1231.88"/>
            <path class="cls-15" d="M2023.68,195.33c.26,480.37,15.77,1059.71-38.19,1187.98-237.67,23.16-515.95,30.59-809.86,31.97l111.72-1216.24,736.33-3.71Z"/>
            <path class="cls-13" d="M1947.51,1344.49c-370.44,59.29-618.02,62.41-818.83,47.5,26.02-277,36.45-737.18,46.95-1196.61l446.39.99,404,26.67c5.89,476.85,6.53,917.32-78.51,1121.45Z"/>
          </g>
          <g>
            <rect class="cls-4" x="1369.64" y="314.17" width="446.24" height="67.97" transform="translate(8.63 -37.38) rotate(1.35)"/>
            <g>
              <g>
                <g>
                  <rect class="cls-4" x="1499.8" y="480.98" width="402.51" height="31.11" transform="translate(12.15 -39.89) rotate(1.35)"/>
                  <rect class="cls-3" x="1498.22" y="547.28" width="273.59" height="31.11" transform="translate(13.7 -38.31) rotate(1.35)"/>
                </g>
                <g>
                  <rect class="cls-19" x="1277.03" y="473.96" width="95.29" height="95.29" transform="translate(12.64 -31.02) rotate(1.35)"/>
                  <path class="cls-18" d="M1293.69,497.91c2.94,11.26,8.37,58.42,31.99,45.24,5.45-3.04,10.06-11.08,14.13-15.71l21.97-24.95,43.95-49.89c3.75-4.26-12.82-14.95-17.53-9.6-13.02,14.78-26.04,29.57-39.06,44.35-6.51,7.39-13.02,14.78-19.53,22.17-4.52,5.13-14.97,21.67-21.67,23.14,3.65,1.18,7.29,2.35,10.94,3.53,2.58,2.11-2.21-12.87-2.32-13.28-1.82-6.96-3.63-13.91-5.45-20.87-1.5-5.75-19.64-12.66-17.41-4.14h0Z"/>
                </g>
              </g>
              <g>
                <g>
                  <rect class="cls-4" x="1495.74" y="653.33" width="331.46" height="31.11" transform="translate(16.2 -38.91) rotate(1.35)"/>
                  <rect class="cls-3" x="1494.13" y="721.98" width="402.51" height="31.11" transform="translate(17.82 -39.69) rotate(1.35)"/>
                </g>
                <g>
                  <rect class="cls-19" x="1272.95" y="647.15" width="95.29" height="95.29" transform="translate(16.71 -30.88) rotate(1.35)"/>
                  <path class="cls-18" d="M1289.55,673.79c2.94,11.26,8.37,58.42,31.99,45.24,5.45-3.04,10.06-11.08,14.13-15.71,7.32-8.32,14.65-16.63,21.97-24.95l43.95-49.89c3.75-4.26-12.82-14.95-17.53-9.6-13.02,14.78-26.04,29.57-39.06,44.35-6.51,7.39-13.02,14.78-19.53,22.17-4.52,5.13-14.97,21.67-21.67,23.14,3.65,1.18,7.29,2.35,10.94,3.53,2.58,2.11-2.21-12.87-2.32-13.28-1.82-6.96-3.63-13.91-5.45-20.87-1.5-5.75-19.64-12.66-17.41-4.14h0Z"/>
                </g>
              </g>
              <g>
                <g>
                  <rect class="cls-4" x="1491.65" y="827.36" width="402.51" height="31.11" transform="translate(20.3 -39.6) rotate(1.35)"/>
                  <rect class="cls-3" x="1490.08" y="892.56" width="180.01" height="31.11" transform="translate(21.8 -36.93) rotate(1.35)"/>
                </g>
                <g>
                  <rect class="cls-19" x="1268.88" y="820.34" width="95.29" height="95.29" transform="translate(20.79 -30.74) rotate(1.35)"/>
                  <path class="cls-18" d="M1286.77,848.21c2.94,11.26,8.37,58.42,31.99,45.24,5.45-3.04,10.06-11.08,14.13-15.71,7.32-8.32,14.65-16.63,21.97-24.95,14.65-16.63,29.3-33.26,43.95-49.89,3.75-4.26-12.82-14.95-17.53-9.6-13.02,14.78-26.04,29.57-39.06,44.35-6.51,7.39-13.02,14.78-19.53,22.17-4.52,5.13-14.97,21.67-21.67,23.14,3.65,1.18,7.29,2.35,10.94,3.53,2.58,2.11-2.21-12.87-2.32-13.28-1.82-6.96-3.63-13.91-5.45-20.87-1.5-5.75-19.64-12.66-17.41-4.14h0Z"/>
                </g>
              </g>
              <g>
                <g>
                  <rect class="cls-4" x="1487.57" y="1000.55" width="402.51" height="31.11" transform="translate(24.37 -39.45) rotate(1.35)"/>
                  <rect class="cls-3" x="1485.99" y="1067.37" width="317.97" height="31.11" transform="translate(25.94 -38.4) rotate(1.35)"/>
                </g>
                <g>
                  <rect class="cls-19" x="1264.8" y="993.53" width="95.29" height="95.29" transform="translate(24.86 -30.59) rotate(1.35)"/>
                  <path class="cls-18" d="M1282.72,1020.27c2.94,11.26,8.37,58.42,31.99,45.24,5.45-3.04,10.06-11.08,14.13-15.71l21.97-24.95c14.65-16.63,29.3-33.26,43.95-49.89,3.75-4.26-12.82-14.95-17.53-9.6-13.02,14.78-26.04,29.57-39.06,44.35-6.51,7.39-13.02,14.78-19.53,22.17-4.52,5.13-14.97,21.67-21.67,23.14,3.65,1.18,7.29,2.35,10.94,3.53,2.58,2.11-2.21-12.87-2.32-13.28-1.82-6.96-3.63-13.91-5.45-20.87-1.5-5.75-19.64-12.66-17.41-4.14h0Z"/>
                </g>
              </g>
              <g>
                <g>
                  <rect class="cls-4" x="1483.56" y="1169.57" width="159.55" height="31.11" transform="translate(28.32 -36.45) rotate(1.35)"/>
                  <path class="cls-3" d="M1884.75,1244.99l-402.4-9.47-.73,31.1c155.68,3.65,353.91,10.95,394.36,4.74,6.14-6.98,9.45-15.55,8.77-26.37Z"/>
                </g>
                <g>
                  <rect class="cls-19" x="1262.09" y="1165.44" width="95.29" height="95.29" transform="translate(28.9 -30.48) rotate(1.35)"/>
                  <path class="cls-18" d="M1278.7,1190.82c2.94,11.26,8.37,58.42,31.99,45.24,5.45-3.04,10.06-11.08,14.13-15.71l21.97-24.95c14.65-16.63,29.3-33.26,43.95-49.89,3.75-4.26-12.82-14.95-17.54-9.6-13.02,14.78-26.04,29.57-39.06,44.35-6.51,7.39-13.02,14.78-19.53,22.18-4.52,5.13-14.97,21.67-21.67,23.14,3.65,1.18,7.29,2.35,10.94,3.53,2.58,2.11-2.21-12.87-2.32-13.28-1.82-6.96-3.63-13.91-5.45-20.87-1.5-5.75-19.64-12.66-17.41-4.14h0Z"/>
                </g>
              </g>
            </g>
          </g>
        </g>
        <g>
          <path class="cls-18" d="M1788.68,146.92v95.08h-382v-95.08c0-15.16,6.16-28.88,16.08-38.84,1.24-1.24,2.52-2.4,3.88-3.48,9.48-7.88,21.68-12.6,34.96-12.6,9.96,0,19.52-2.28,28.08-6.4,3.72-1.8,7.24-3.92,10.56-6.36,10.92-8.08,19.28-19.56,23.44-33.24,4.24-13.96,12.92-25.64,24.16-33.76,10.8-7.76,23.96-12.24,37.92-12.24h23.84c13.96,0,27.12,4.48,37.92,12.24,11.24,8.12,19.92,19.8,24.16,33.76,4.16,13.68,12.52,25.16,23.44,33.24,3.32,2.44,6.84,4.56,10.56,6.36,8.56,4.12,18.12,6.4,28.08,6.4,13.28,0,25.48,4.72,34.96,12.6,12.2,10.04,19.96,25.28,19.96,42.32Z"/>
          <polygon class="cls-15" points="1819.68 195.32 1819.68 266 1375.68 266 1375.68 195.32 1406.68 195.32 1406.68 242 1788.68 242 1788.68 195.32 1819.68 195.32"/>
          <ellipse class="cls-13" cx="1597.69" cy="56.99" rx="33.88" ry="32.2"/>
        </g>
      </g>
      <g>
        <g>
          <path class="cls-17" d="M865.6,502.13c-13.55-2.56-26.21-25.2-30.61-33.88-1.08-2.13-1.42-4.54-.97-6.89l5.39-28.58s12.44,2.12,11.48,18.68c-.1,1.72.25,3.44.87,5.04l4.76,12.46,14.08-10.9-7.72-21.8s-10.33,2.84-15.67,1.14c-10.96-3.5,3.41-12.04,7.95-12.95s14.54-4.54,19.08,3.18c4.54,7.72,7.27,12.26,7.27,12.26,0,0,5-17.26,1.59-55.87-.15-1.74,4.2-1.7,5.42-.46,3.66,3.72,9.49,15.06,9.8,49.52,0,0,.61-40.16,7.5-44.29,5.68-3.41,8.55,16.25,4.55,49.58,0,0,7.41-28.86,12.72-28.91,8.95-.09.12,77.08-22.38,100.08l-35.08-7.41Z"/>
          <path class="cls-17" d="M908.08,490.32c-.4,3.84-.84,7.56-1.32,11.16v.04c-1.6,12.8-3.6,24.24-5.92,34.04-.12.48-.2.92-.32,1.36-6.84,28.04-8.08,41.76-31.44,38.08l-24.04-27.36-.24-.28-1.76-2,4.88-14.4.64-1.88,3.6-10.48.44-1.36,6.16-18.04,2.48-7.32,46.84-1.56Z"/>
        </g>
        <g>
          <path class="cls-7" d="M461.47,1486.58l-6.12,19.12c-41.96,13.78-66.43,29.58-68,48h121.33l9.73-64.03c-24.57,6-44.27,1.82-56.94-3.09Z"/>
          <path class="cls-17" d="M476.68,1439.04l-15.21,47.54c12.67,4.91,32.37,9.09,56.94,3.09l6.27-41.3-48-9.33Z"/>
          <path class="cls-17" d="M684.12,1484.46l3.56-48.42-57,3-3.11,44.64c24.13,7.69,44.08,4.68,56.55.78Z"/>
          <path class="cls-7" d="M752.68,1553.71c-1.57-18.42-23-43.67-70-49.67l1.44-19.58c-12.48,3.9-32.42,6.91-56.55-.78l-4.89,70.03h130Z"/>
        </g>
        <polygon class="cls-17" points="637.92 514.56 569.16 515.04 569.16 411.04 635.84 411.04 635.88 417.4 636.2 450.36 636.68 503.28 637.92 514.56"/>
        <path class="cls-1" d="M636.2,455.36c-12.36,13-44.6-1.68-58.2-16l57.88-16.96.32,32.96Z"/>
        <path class="cls-17" d="M652.16,387.04c-.04,7.68-.52,15.72-1.8,23.4-3.36,20.96-12.24,39.08-32.72,39.64-48.4,1.4-62.2-26.28-71.32-48.92-9.12-22.68,5.68-77.2,5.68-77.2l62.64-6.2,34.4,28.2s3.32,19.16,3.12,41.08Z"/>
        <path class="cls-10" d="M548.27,388.19s13.81-.64,16.17-36.28c24.69,8.26,42.73.73,57.03-15.71,12.2,16.11,46.34,21.16,57.88-11.83,8.33-23.83-14.67-59.33-48.17-37.83-32.83-16.59-82.63-15.45-96.96,25.24,0,0-49.82,22.97,2.93,73.54,1.06,1.01,11.12,2.88,11.12,2.88Z"/>
        <polygon class="cls-10" points="738.69 888.34 700.68 1463.04 611.35 1463.04 633.68 905.37 647.35 899.04 738.69 888.34"/>
        <polygon class="cls-7" points="506.02 809.71 443.35 1463.04 540.68 1463.04 633.35 920.37 738.68 888.37 743.35 772.37 508.68 767.04 506.02 809.71"/>
        <path class="cls-14" d="M519.99,811.13c53.16,19.08,177.9-2.73,203.8-29.31l-18.4-36.81-205.16,27.26,19.77,38.85Z"/>
        <path class="cls-13" d="M719,772.96c-1.72.72-3.48,1.48-5.28,2.16-19.88,8.08-42.52,15.16-66.64,19.84-14.4,2.84-29.4,4.76-44.68,5.48-23.04,1.16-46.72-.36-70.16-5.68l29.8-277.84,3.64-33.88s39,48,82-5l71.32,294.92Z"/>
        <path class="cls-16" d="M602.4,800.44c-23.04,1.16-46.72-.36-70.16-5.68l29.8-277.84,10.64-15.38c26.28,63.92,53.2,205.46,29.72,298.9Z"/>
        <path class="cls-4" d="M569.18,472.04c29.63,125.8,41.82,255.25-1.83,399-32.37,12.31-67.62,12.17-105.33,1.33l9.33-261.33-219.67,151-13.33-82.33c84.44-80.74,230.44-202.72,330.83-207.67Z"/>
        <path class="cls-16" d="M713.72,775.12c-19.88,8.08-42.52,15.16-66.64,19.84-13.24-75.92-16.16-200.64-5.4-256.92l72.04,237.08Z"/>
        <path class="cls-9" d="M900.84,535.56c-.12.48-.2.92-.32,1.36-6.84,28.04-8.08,41.76-31.44,38.08l-24.04-27.36-.24-.28,3.12-16.4.64-1.88,3.6-10.48.44-1.36,48.24,18.32Z"/>
        <path class="cls-4" d="M896.68,561.04s-59,125-94,128c-33.93,2.91-50-30-50-30l24,182.68c-28.2,13.2-58.96,19.64-94.68,13.32-31.72-103-43.71-236.18-46.07-384.5,25.68,1.6,76.54,3.79,94.75,15.5,32.67,21,73,96,73,96l47-64,46,43Z"/>
        <g>
          <path class="cls-8" d="M177.42,384.91s3.57-59.8,9.66-56.98c6.09,2.82,18.29,54.82,18.29,54.82l-13.05,21.06-14.9-18.9Z"/>
          <path class="cls-18" d="M356.98,1464.71l1.77,19.68c3.12,34.74-22.51,65.44-57.26,68.56l-5.06.45c-34.74,3.12-65.44-22.51-68.56-57.26l-1.77-19.68,130.87-11.76Z"/>
          <rect class="cls-12" x="183.03" y="515.71" width="131.4" height="956.8" transform="translate(-87.96 26.25) rotate(-5.13)"/>
          <rect class="cls-21" x="218.39" y="496.83" width="46.67" height="838.67" transform="translate(-81.01 25.31) rotate(-5.13)"/>
          <polygon class="cls-10" points="356.96 1464.72 226.12 1476.48 222.68 1438.08 220.28 1411.4 212.88 1329.4 343.76 1317.64 351.12 1399.64 353.52 1426.32 356.96 1464.72"/>
          <rect class="cls-12" x="221.22" y="1405.47" width="131.37" height="26.79" transform="translate(-125.86 31.38) rotate(-5.14)"/>
          <path class="cls-18" d="M140.47,523.51l36.35-145.69s12.55,5.57,27.77-3.83l66.76,137.77-130.88,11.76Z"/>
        </g>
        <path class="cls-17" d="M555.51,382.16c-.59-2.15-10.35-5.1-12.5-5.7-3.33-.92-6.96-1.37-10.2.1-11.81,5.34-10.23,22.25-4.11,31.14,3.47,5.04,8.54,8.91,14.44,10.6,2.14.61,22.46.86,21.57-2.41,0-.01-9.18-33.65-9.2-33.73Z"/>
        <path class="cls-17" d="M183.68,722.04c-3.07-9.64-13.17-15.04-22.73-11.74-14.89,5.14-27.86,13.86-29.86,28.7-1.83,13.51,4.93,56.67,35.11,62.21l-2.46-22.17s18.48-4.31,22.17-12.32c2.59-5.61,2.76-29.02-2.23-44.67Z"/>
        <path class="cls-7" d="M743.46,573.62c1.59,9.44,2.94,18.92,4.23,28.39,1.34,9.47,2.41,18.98,3.62,28.47l3.1,28.53c.9,9.52,1.79,19.05,2.37,28.61l-1.55.18c-1.64-9.44-2.97-18.91-4.29-28.39l-3.57-28.47c-1.01-9.51-2.16-19.01-3.04-28.53-.93-9.52-1.8-19.05-2.43-28.61l1.55-.18Z"/>
        <path class="cls-7" d="M474.46,572.08c-.02,10.61-.28,21.2-.59,31.79-.27,10.59-.81,21.18-1.21,31.76l-1.73,31.74c-.71,10.57-1.44,21.15-2.46,31.7l-1.56-.07c-.03-10.61.24-21.2.54-31.8l1.27-31.76c.61-10.58,1.06-21.16,1.79-31.74.69-10.57,1.43-21.15,2.41-31.71l1.56.07Z"/>
        <path class="cls-10" d="M604.06,381.17c.85,3.77-.71,7.33-3.47,7.95s-5.69-1.94-6.53-5.71c-.85-3.77.71-7.33,3.47-7.95s5.69,1.94,6.53,5.71Z"/>
        <path class="cls-10" d="M643.93,376.51c-.16,3.86-2.59,6.9-5.42,6.78-2.83-.12-4.99-3.35-4.82-7.21.16-3.86,2.59-6.9,5.42-6.78,2.83.12,4.99,3.35,4.82,7.21Z"/>
        <path class="cls-1" d="M621.7,379.67c1.37,3.31,1.15,6.87,2.04,9.58.45,1.37,1.07,2.58,1.94,3.32.8.73,2.1,1.21,3.75,1.85,1.7.66,3.51,1.83,4.74,3.57,1.31,1.69,1.67,4.63.48,6.55-1.06,1.92-2.59,2.98-3.91,3.95-1.37.92-2.69,1.91-4.12,2.77l-1.03-1.18c1.05-1.3,2.2-2.47,3.31-3.7,1.14-1.17,2.18-2.31,2.58-3.37.85-1.85-.97-3.87-3.59-4.92-1.35-.62-3.3-1.16-4.88-2.77-1.52-1.55-2.27-3.48-2.57-5.29-.66-3.71.09-6.88-.26-9.96l1.51-.41Z"/>
        <path class="cls-10" d="M584.97,371.04c.59-2.37,2.04-4.62,4.08-6.24,2.01-1.67,4.64-2.58,7.25-2.71,5.25-.32,10.45,2.67,12.61,7.09l-1.22.97c-3.47-2.73-7.3-4.22-11.19-4.08-3.91.1-7.46,2.11-10.11,5.64l-1.42-.66Z"/>
        <path class="cls-10" d="M626.26,366.14c.59-1.85,1.63-3.61,3.14-5.05,1.48-1.48,3.54-2.46,5.68-2.81,4.3-.71,8.91,1.48,10.61,5.29l-1.25.94c-2.81-1.89-5.88-2.69-8.77-2.29-1.45.19-2.82.74-4.18,1.53-1.33.83-2.55,1.97-3.88,3.19l-1.35-.79Z"/>
        <path class="cls-13" d="M604.13,418.41c6.98,10.93,16.29,12.12,23.48.61l-23.48-.61Z"/>
        <path class="cls-6" d="M652.35,384.37c-.04,7.68-.71,18.39-1.99,26.07-4.84-1.56-8.36-6.08-8.36-11.48,0-6.04,4.63-13.67,10.35-14.59Z"/>
        <circle class="cls-6" cx="587.08" cy="406.11" r="12.9"/>
        <path class="cls-1" d="M547.06,395.01c-2.55-1.73-4.89-3.63-7.21-4.75-1.15-.57-2.23-.91-3.18-.83-.97.07-2.08.64-3.33,1.53l-1.31-.85c.54-1.6,1.69-3.39,3.8-4.09,2.09-.73,4.22-.14,5.79.67,3.19,1.74,5.37,4.3,6.69,7.37l-1.24.95Z"/>
        <path class="cls-11" d="M185.91,766.71l-18.57,56.41-3.83-44.08c11.54-2.51,17.84-7.13,22.4-12.33Z"/>
      </g>
    </g>
  </g>
</svg>