<svg width="40" height="40" viewBox="0 0 40 40" fill="none" xmlns="http://www.w3.org/2000/svg">
<mask id="mask0_804_2342" style="mask-type:alpha" maskUnits="userSpaceOnUse" x="0" y="0" width="40" height="40">
<rect width="40" height="40" fill="#D9D9D9"/>
</mask>
<g mask="url(#mask0_804_2342)">
<path d="M5 35V11.6667H11.6667V5H28.3333V18.3333H35V35H21.6667V28.3333H18.3333V35H5ZM8.33333 31.6667H11.6667V28.3333H8.33333V31.6667ZM8.33333 25H11.6667V21.6667H8.33333V25ZM8.33333 18.3333H11.6667V15H8.33333V18.3333ZM15 25H18.3333V21.6667H15V25ZM15 18.3333H18.3333V15H15V18.3333ZM15 11.6667H18.3333V8.33333H15V11.6667ZM21.6667 25H25V21.6667H21.6667V25ZM21.6667 18.3333H25V15H21.6667V18.3333ZM21.6667 11.6667H25V8.33333H21.6667V11.6667ZM28.3333 31.6667H31.6667V28.3333H28.3333V31.6667ZM28.3333 25H31.6667V21.6667H28.3333V25Z" fill="#F7F7F7"/>
</g>
</svg>
