<?xml version="1.0" encoding="UTF-8"?>
<svg id="_레이어_2" data-name="레이어 2" xmlns="http://www.w3.org/2000/svg" xmlns:xlink="http://www.w3.org/1999/xlink" viewBox="0 0 536.81 333.95">
  <defs>
    <style>
      .cls-1 {
        fill: #1388e5;
      }

      .cls-1, .cls-2, .cls-3, .cls-4, .cls-5, .cls-6, .cls-7, .cls-8, .cls-9, .cls-10, .cls-11, .cls-12, .cls-13 {
        stroke-width: 0px;
      }

      .cls-14 {
        clip-path: url(#clippath-2);
      }

      .cls-2, .cls-15 {
        fill: #6b3217;
      }

      .cls-3 {
        fill: #2c2a2b;
      }

      .cls-4 {
        fill: none;
      }

      .cls-5 {
        fill: #e07d4e;
      }

      .cls-16 {
        clip-path: url(#clippath-1);
      }

      .cls-17 {
        clip-path: url(#clippath-4);
      }

      .cls-6 {
        fill: #b1e4fa;
      }

      .cls-18 {
        clip-path: url(#clippath);
      }

      .cls-7 {
        fill: #f9773b;
      }

      .cls-8 {
        fill: #45a8bf;
      }

      .cls-19 {
        clip-path: url(#clippath-3);
      }

      .cls-9 {
        fill: #d2f1f7;
      }

      .cls-10 {
        fill: #a55930;
      }

      .cls-11 {
        fill: #fff;
      }

      .cls-20 {
        clip-path: url(#clippath-5);
      }

      .cls-12 {
        fill: #ffb287;
      }

      .cls-13 {
        fill: #5ac7e0;
      }
    </style>
    <clipPath id="clippath">
      <path class="cls-2" d="M40.79,67.87c3.44,2.7,8.42,2.1,11.13-1.34,2.7-3.44,2.1-8.42-1.34-11.13-3.44-2.7-8.42-2.1-11.13,1.34-2.7,3.44-2.1,8.42,1.34,11.13Z"/>
    </clipPath>
    <clipPath id="clippath-1">
      <path class="cls-4" d="M341.88,216.5c-18.25,0-24.46-28.42-24.72-29.66-.58-2.77,1.19-5.49,3.96-6.08,2.78-.58,5.49,1.19,6.08,3.96,1.24,5.79,6.7,22.16,15.28,21.5,10.96-.84,15.31-25.32,15.97-33.82.22-2.82,2.68-4.95,5.51-4.72,2.82.22,4.94,2.68,4.72,5.5-.32,4.25-3.79,41.61-25.41,43.27-.47.04-.93.05-1.38.05Z"/>
    </clipPath>
    <clipPath id="clippath-2">
      <path class="cls-4" d="M381.7,127.08c1.21,5.2-2.28,10.45-7.8,11.73-5.52,1.28-10.97-1.89-12.18-7.08-1.21-5.2,2.28-10.45,7.8-11.73,5.52-1.28,10.97,1.89,12.18,7.08Z"/>
    </clipPath>
    <clipPath id="clippath-3">
      <path class="cls-4" d="M437.13,127.08c-1.21,5.2,2.28,10.45,7.8,11.73,5.52,1.28,10.97-1.89,12.18-7.08,1.21-5.2-2.28-10.45-7.8-11.73-5.52-1.28-10.97,1.89-12.18,7.08Z"/>
    </clipPath>
    <clipPath id="clippath-4">
      <path class="cls-4" d="M371.45,224.02c-8.3-11.2-14-24.1-17.13-37.68l-.84-3.63c-2.61-11.35,7.6-21.91,21.2-21.91h68.33c13.6,0,23.81,10.56,21.2,21.91l-.77,3.33c-3.41,14.83-9.91,28.83-19.41,40.71-22.99,28.75-49.11,28.96-72.59-2.72Z"/>
    </clipPath>
    <clipPath id="clippath-5">
      <path class="cls-4" d="M448.41,226.9c-7.88,0-17.32-2.8-28.66-8.4-2.54-1.26-3.58-4.33-2.33-6.87,1.26-2.54,4.33-3.58,6.87-2.33,24.73,12.23,31.73,6.06,34.36,3.73,4.05-3.58,2.29-9.48-2.39-21.18-1.62-4.04-3.29-8.22-4.55-12.58-.79-2.72.78-5.57,3.5-6.35,2.72-.78,5.57.78,6.35,3.5,1.12,3.87,2.7,7.81,4.22,11.62,4.49,11.22,9.57,23.93-.34,32.68-4.66,4.11-10.27,6.18-17.03,6.18Z"/>
    </clipPath>
  </defs>
  <g id="bg">
    <path class="cls-9" d="M536.17,312.52c6.12,19.17-33.84,18.96-33.14,19.17l-292.91-.22c-51.29.96-147.13,1.22-191.03-54.21-3.05-3.86-5.66-8.05-7.98-12.39-20.86-39.14-18.71-106.98,63.16-136.63,30.3-10.97,62.48-15.58,93.03-26.03,35.37-12.09,69-28.68,100.03-49.52C360.06-9.66,410.06-6.06,450.46,10.01c39.48,15.69,67,52.01,72.49,94.14,5.07,39-14.35,74.26-34.51,106.85-46.6,75.31,40.79,79.74,47.74,101.52Z"/>
  </g>
  <g id="pers">
    <path class="cls-3" d="M77.84,99.04c.54,1.73,2.27,3.61,4.72,4.89,3.64,1.88,7.48,1.71,8.57-.39,1.26-2.43-1.18-4.65-2.81-6.13-1.02-.93-1.71-1.76-2.17-3.1-.48-1.41-.65-2.92-.79-4.4-.06-.61-.09-1.22-.16-1.82,0-.04-.18-.87-.22-.82,0,0-5.95,6.9-5.95,6.9l-.42,1.72c-.27.23-.5.5-.67.81-.35.69-.37,1.5-.11,2.34Z"/>
    <g>
      <path class="cls-15" d="M40.79,67.87c3.44,2.7,8.42,2.1,11.13-1.34,2.7-3.44,2.1-8.42-1.34-11.13-3.44-2.7-8.42-2.1-11.13,1.34-2.7,3.44-2.1,8.42,1.34,11.13Z"/>
      <g class="cls-18">
        <path class="cls-3" d="M37.14,69.04c-2.77,0-5.43-.82-7.63-2.39-2.65-1.89-4.32-4.62-4.69-7.69-.37-3.08.6-6.13,2.73-8.59,2.12-2.45,5.15-4.03,8.52-4.44,3.37-.41,6.68.4,9.33,2.28,2.65,1.89,4.32,4.62,4.69,7.69.37,3.08-.6,6.13-2.73,8.59-2.12,2.45-5.15,4.03-8.52,4.44-.57.07-1.13.1-1.7.1ZM25.3,58.9c.35,2.94,1.95,5.55,4.49,7.35,2.55,1.81,5.74,2.59,8.99,2.2,3.25-.39,6.16-1.91,8.21-4.27,2.04-2.35,2.97-5.27,2.61-8.21-.35-2.94-1.95-5.55-4.49-7.35-2.55-1.81-5.73-2.59-8.99-2.2-3.25.39-6.16,1.91-8.21,4.27-2.04,2.35-2.97,5.27-2.61,8.21Z"/>
        <path class="cls-3" d="M40.56,62.83c-3.39,0-6.3-2.3-6.68-5.46-.2-1.67.32-3.32,1.48-4.66,1.15-1.33,2.78-2.18,4.6-2.4,3.77-.46,7.17,1.97,7.58,5.41.41,3.44-2.31,6.6-6.08,7.05-.3.04-.61.05-.91.05ZM40.87,50.76c-.28,0-.56.02-.85.05-1.7.21-3.22,1-4.29,2.23-1.06,1.23-1.55,2.74-1.36,4.27h0c.38,3.16,3.53,5.4,7.03,4.98,3.5-.42,6.03-3.34,5.65-6.5-.35-2.91-3.04-5.03-6.19-5.03Z"/>
      </g>
    </g>
    <path class="cls-5" d="M83.92,117.47c.07.12,2.91,10.14,5.82,20.43,1.08,3.83,2.16,7.69,3.12,11.1.22.76.69,1.41.88,2.14,1.5,5.72,5,9.15,10.03,7.2l9.45-4.09s-17.25-47.16-17.25-47.16c0,0-5.74-4.34-9.34-2.97-4.86,1.87-5.55,8.98-2.71,13.34Z"/>
    <path class="cls-3" d="M89.74,137.9c1.08,3.83,2.16,7.69,3.12,11.1.22.76.51,1.48.88,2.14-.27-6.09,3.04-12.86,2.85-13.09l-4.12-2.19-2.73,2.04Z"/>
    <path class="cls-2" d="M70.83,95.68c-.52.24-.82.38-.82.38l2.41,8.84,7.11,2.58,8.08-1.19c.1-.39-6.16-2.51-3.9-10.2,0,0,0-.02,0-.03,0-.4.42-1.05.55-1.44.19-.53.34-1.08.49-1.63.29-1.17.51-2.36.65-3.57.55-4.83,0-10.23-2.14-14.66-.02-.04-.05-.1-.09-.18-.23-.53-.84-1.91-1.54-3.22-.73-1.4-1.57-2.72-2.14-2.87-.48-.13-.88.57-1.3,1.13-.26.35-.54.65-.83.65-.94,0-1.84.3-2.68.85-.11.07-.22.15-.32.22-3.07,2.3-5.23,8.02-5.23,14.71,0,3.62.64,6.96,1.71,9.63Z"/>
    <path class="cls-11" d="M47.67,109.16c4.88,4.43,7.54,13.12,6.92,18.58l-.62,8.51-.02.17c-.05.52-.1,1.05-.15,1.59-.07.72-.13,1.55-.21,2.44-.49,0-1.83,19.37-4.45,29,8.34.15,16.7.03,25.04-.38.99.4,2.02.78,3.08,1.13,9.6,3.12,19.58-.45,19.58-.45.44-1.36-.15-3.78-1.3-5.51-1.76-2.65-2.98-4.73-3.35-7.5-.46-3.47-.7-6.96-.76-10.49.19-1.16.37-2.36.57-3.59,0-.05,0-.11.02-.16.08-.03.12-.04.12-.04,3.67-1.6,5.24-3.95,5.34-6.7h0c-.1-1.9-.85-4.71-2.26-7.25-.04-.08-.09-.15-.13-.22-.21-.36-.43-.72-.67-1.08,0,0,0,0,0,0-.59-.89-1.24-1.8-1.96-2.7h0c-.2-5.87,3.74-15.68,3.53-17.22-.01-.04-.03-.1-.04-.14-.28-.63-.68-1.09-1.21-1.32-3.38-1.47-7.44-2.87-10.06-3.8l-11.72,14.91-17.11-13.79c-.53-.67-1.21-1.2-2.06-1.56,0,0-8.9,3.82-9.68,5.16-.39,1,1.09.2,3.55,2.43Z"/>
    <ellipse class="cls-2" cx="70.42" cy="70.1" rx="9.15" ry="12.28" transform="translate(-28.82 74.97) rotate(-47.68)"/>
    <path class="cls-3" d="M50.01,134.77c0,.07.02.14.03.21.11.66.22,1.29.32,1.95.43,2.68,3.47,21.23,3.47,21.23,1.83,1.47,5.73,7.31,12.7,7.36,3.43-7.92,2.4-20.64-1.15-20.94-12.31-1.03-10.3-17.65-10.44-17.85l-4.75,7-.2,1.04Z"/>
    <path class="cls-2" d="M56,64.78c-3.22,1.51-3.96,6.72-1.65,11.64,2.31,4.92,6.79,7.68,10.01,6.17,3.22-1.51,3.96-6.72,1.65-11.64-2.31-4.92-6.79-7.68-10.01-6.17Z"/>
    <path class="cls-5" d="M67.43,105.23c6.34,0,11.87-1.5,14.84-3.74.15-.11.28-.22.42-.33l2.29.93-.09.1-11.92,15.51-18.02-13.84c2.17.44,9.91,1.37,12.47,1.37Z"/>
    <path class="cls-3" d="M48.28,169.7c0,.41.35.81,1.01,1.19.3.18.68.34,1.11.51,3.8,1.45,12.29,2.47,22.17,2.47,1.72,0,3.41-.03,5.03-.09,7.68-.28,14.02-1.19,17.15-2.38,1.36-.52,2.12-1.1,2.12-1.7,0-.8-1.33-1.56-3.63-2.19-3.7-1.03-9.91-1.75-17.16-1.93-1.15-.03-2.31-.05-3.51-.05-8.73,0-16.39.79-20.67,1.98-.46.13-.88.26-1.26.39-1.52.55-2.36,1.16-2.36,1.8Z"/>
    <path class="cls-12" d="M57.97,102.09l2.29,2.46c2.17.44,4.6.69,7.17.69,6.65,0,12.42-1.66,15.26-4.07l-1.28-.52c-2.02-.83-3.5-2.54-4.07-4.57-.18-.61-.26-1.25-.26-1.91v-13.31h-13.79v14.08c0,2.44-1.27,4.7-3.36,5.97l-1.95,1.19Z"/>
    <path class="cls-3" d="M66.25,89s2.74,5.01,11.08,7.07c-.18-.61-.27-1.25-.27-1.91v-3.86l-10.81-1.3Z"/>
    <path class="cls-5" d="M44.66,157.6l5.45-4.02c.97-1.51,1.66-3.22,2.16-4.98,1.1-3.87,1.29-7.94,1.54-10.65.05-.54.1-1.07.15-1.59l.02-.17.62-8.51c.62-5.46-1.18-14.6-6.01-19.09-2.36-2.2-4.09-2.29-4.46-1.92-.34.59-5.52,14.67-8.74,42.46-.62,5.33,3.3,8.43,9.28,8.45Z"/>
    <path class="cls-12" d="M70.83,65.3h.23c5.31,0,9.62,4.31,9.62,9.62v16.99h-18.09v-18.36c0-4.55,3.69-8.24,8.24-8.24Z" transform="translate(152.14 148.09) rotate(173.14)"/>
    <path class="cls-3" d="M74.16,71.8c1.54-2.05,5.75-2.14,6.57.55.02.08-.07.15-.15.12-1-.39-1.86-.32-2.84-.18-.98.11-1.94.47-2.88.64-.63.14-1.1-.65-.71-1.14h0Z"/>
    <path class="cls-3" d="M69.61,73.45c-1.26.29-2.65.56-3.82,1.18-.4.22-.83.5-1.2.94-.04.05-.11.05-.15.01-.27-.64-.02-1.39.33-1.95,1.13-1.63,3.35-2.44,5.23-1.59.73.43.42,1.31-.38,1.42h0Z"/>
    <path class="cls-3" d="M66.71,78.47s-.05,0-.08-.01c-.13-.04-.2-.18-.16-.31.02-.05.39-1.2,1.3-1.84.16-.12.32-.2.49-.26.48-.19.98-.2,1.43-.04.47.15.81.44.97.58l.06.05c.13.04.17.17.13.3-.04.13-.21.19-.34.15-.06-.02-.1-.06-.18-.12-.14-.12-.42-.36-.8-.49-.35-.13-.72-.11-1.1.04-.13.05-.26.11-.38.21-.77.54-1.11,1.57-1.12,1.58-.03.1-.13.17-.24.17Z"/>
    <path class="cls-3" d="M74.89,77.49s-.05,0-.08-.01c-.13-.04-.2-.18-.16-.31.02-.05.39-1.2,1.3-1.83.16-.12.32-.2.49-.27.49-.19.98-.2,1.43-.04.47.15.8.44.97.58l.06.05c.13.04.18.17.13.3-.04.13-.21.19-.34.15-.06-.02-.1-.06-.18-.12-.13-.12-.42-.36-.8-.49-.35-.12-.72-.11-1.1.04-.13.05-.25.11-.38.21-.77.54-1.11,1.57-1.12,1.58-.03.1-.13.17-.24.17Z"/>
    <path class="cls-3" d="M76.77,76.55c.07.54.55.93,1.08.87.53-.06.91-.56.85-1.1-.07-.54-.55-.93-1.08-.87-.53.06-.91.56-.85,1.1Z"/>
    <path class="cls-3" d="M68.72,77.52c.07.54.55.93,1.08.87.53-.06.91-.56.85-1.1-.07-.54-.55-.93-1.08-.87-.53.06-.91.56-.85,1.1Z"/>
    <path class="cls-10" d="M72.72,81.43s-.08,0-.1,0c-.14,0-.25-.11-.24-.25,0-.14.11-.24.25-.24.03,0,.07,0,.1,0,.55,0,1.4-.06,1.81-.22-.1-.71-.83-3.91-1.31-5.91-.03-.13.05-.27.18-.3.13-.03.27.05.3.18,1.48,6.22,1.4,6.27,1.21,6.39-.53.32-1.81.35-2.2.35ZM74.79,80.87h0,0Z"/>
    <path class="cls-3" d="M64.24,144.9c-.12,0-.23,0-.35,0-.14,0-.25-.11-.24-.25,0-.14.13-.26.25-.24,3.91.04,6.63-.85,6.65-.86,4.98-2.17,6.38-5.94,4.15-11.19-.05-.13,0-.27.13-.32.13-.05.27,0,.32.13,2.33,5.48.79,9.57-4.43,11.85-.13.04-2.68.9-6.49.9Z"/>
    <path class="cls-3" d="M85.77,143.81c-.12,0-.23,0-.35,0-.14,0-.25-.11-.24-.25,0-.14.11-.26.25-.24,3.91.05,6.63-.85,6.65-.86,4.98-2.17,6.38-5.94,4.15-11.19-.02-.05-2.37-5.5-4.94-8.16-.09-.1-.09-.25,0-.35.1-.09.25-.09.35,0,2.64,2.73,4.95,8.08,5.04,8.31,2.33,5.48.79,9.57-4.43,11.85-.13.04-2.68.9-6.49.9Z"/>
    <path class="cls-3" d="M73.01,70.35c.17.13.34.27.55.43.25.19.52.38.78.57,2.38,1.67,5.14,3.13,8.82,3.25-.23-.53-.84-1.91-1.54-3.22-1.27-.76-2.58-1.38-3.45-1.74-.12-.06-.23-.1-.32-.14-.75-.29-1.52-.41-2.28-.31-.94.11-1.79.52-2.57,1.17Z"/>
    <path class="cls-2" d="M61.12,63.82l6.61-2.14,2.92,1.58s.09-.1.15-.14c0,0-1.22-3.46-1.22-3.46,1.94.37,3.89.75,5.83,1.12,3.13.6,6.41,1,9.27,2.49,2.07,1.08,4.25,3.76,3.31,6-1.25,2.98-4.55,4.48-9.9,3.33-2.17-.47-4.09-1.3-5.56-2.33,0,0-.02-.02-.06-.05-.62-.43-5.66-3.81-8.74-1.19-3.28,2.8.07,10.09.07,10.09,0,0-2.88,2.2-2.99,1.89-.11-.31-5.53-11.33-5.53-11.33l5.86-5.87Z"/>
    <path class="cls-2" d="M48.94,114.91c-.1.36-.54,1.32-.83,2.14h3.95c.46-1.47.8-3.1.95-4.91.03-.33.3,1.83.22,4.91h7.19c1.33-2.31,2.67-5.54,3-9.56.04-.48.6,4.32-.17,9.56h5.05c1.87-6.17.92-13.09-1.73-18.88-1.55-3.38-2.6-6.67-2.69-10.43l.23-8.54-11.08-7.89c.17,3.86-.18,7.87-.38,8.74-.96,4.19-1.76,6.55-3.4,10.37-.23.55-.46,1.1-.67,1.66-1.86,4.89.27,8.76.92,13.58.42,3.08.17,6.32-.55,9.26Z"/>
    <path class="cls-12" d="M60.63,82.92c1.69,1.33,3.79,1.48,4.69.34.9-1.14.25-3.15-1.44-4.48-1.69-1.33-3.79-1.48-4.69-.34-.9,1.14-.25,3.15,1.44,4.48Z"/>
    <path class="cls-2" d="M48.91,102.49c.13.59.29,1.15.5,1.69s.44,1.07.71,1.56c-.18-.65-.37-1.26-.6-1.85-.19-.49-.38-.96-.61-1.4Z"/>
    <path class="cls-3" d="M62.13,66.42c-.05,0-.11-.02-.15-.05-.04-.03-3.83-2.95-6.29-1.14-.11.08-.26.06-.35-.05-.08-.11-.06-.26.05-.35,2.75-2.03,6.72,1.02,6.88,1.15.11.08.13.24.04.35-.05.06-.12.1-.19.1Z"/>
    <path class="cls-3" d="M63.11,78.52s-.07,0-.11-.02c-.06-.03-.12-.08-.23-.18-.56-.49-2.06-1.79-4.22-.77-.12.06-.27,0-.33-.12-.06-.12,0-.27.12-.33,2.45-1.15,4.18.35,4.75.84.06.05.11.09.13.11.12.06.17.2.11.33-.04.09-.13.14-.23.14Z"/>
    <path class="cls-3" d="M54.89,107.73s-.03,0-.04,0c-.13-.02-.23-.15-.2-.29.53-3.1-.22-5.18-1.02-7.38-.67-1.87-1.37-3.8-1.21-6.39.27-4.38,2.87-8.35,3.98-10.05.23-.35.46-.7.49-.79.02-.13.15-.22.29-.19.13.03.22.16.2.29-.03.15-.17.37-.56.97-1.09,1.66-3.64,5.56-3.9,9.81-.15,2.48.53,4.37,1.19,6.19.78,2.16,1.59,4.4,1.04,7.63-.02.12-.12.21-.24.21Z"/>
    <path class="cls-8" d="M45.73,183.43h53.67l-4.65-12.03-1.52-3.9c-3.7-1.03-9.91-1.75-17.16-1.93-1.15-.03-2.31-.05-3.51-.05-8.73,0-16.39.79-20.67,1.98l-1.51,3.9-4.66,12.03Z"/>
    <path class="cls-8" d="M55.56,219.24c8.66,1.5,18.19-11.75,21.27-29.6.37-2.11.63-4.18.78-6.21.26-3.39.25-6.63,0-9.65-.26-3-.78-5.76-1.53-8.21-1.15-.03-2.31-.05-3.51-.05-8.73,0-16.39.79-20.67,1.98-.46.13-.88.26-1.26.39-.48.96-.93,1.96-1.35,3-1.65,3.96-2.96,8.46-3.8,13.31-3.1,17.85,1.41,33.53,10.07,35.03Z"/>
    <path class="cls-5" d="M38.85,160.7c-1.78-1.91-3.75-5.08-3.46-8.69.6-7.54,8.63-12.19,15.54-8.31,5.3,2.19,11.67,4.41,11.67,4.44.31.02.3.31.6.39,5.4,1.54,5.73,11.44,3.02,20.2-2.49,8.03-7.56,15.82-12.55,15.87-.45,0-.91-.05-1.36-.18-1.35-.38-2.36-1.3-3.08-2.6-2.03-2.99-3.07-8.31-3.86-11.95-.73-3.32-3.59-6.42-5.27-8.02-.44-.34-.85-.71-1.23-1.11,0,0-.02-.02-.02-.03Z"/>
    <path class="cls-3" d="M63.59,109.49h-.01c-.14,0-.24-.12-.24-.26.16-3.6-1.06-5.89-2.35-8.31-1.49-2.8-3.03-5.69-2.69-10.83,0-.14.13-.24.26-.23.14,0,.24.13.23.26-.33,5,1.18,7.83,2.64,10.56,1.32,2.48,2.57,4.83,2.41,8.57,0,.13-.12.24-.25.24Z"/>
    <path class="cls-3" d="M83.08,71.37c-3.07,0-5.51-1.84-7.89-3.63-2.43-1.82-4.94-3.71-8.08-3.58-.13,0-.25-.1-.26-.24,0-.14.1-.25.24-.26,3.31-.12,5.9,1.8,8.4,3.68,2.83,2.13,5.51,4.14,9.17,3.36,1.34-.29,3.31-1.47,3.26-3.11,0-.14.1-.25.24-.25.11,0,.25.1.25.24.06,1.92-2.15,3.28-3.65,3.61-.58.12-1.14.18-1.67.18Z"/>
    <path class="cls-3" d="M58.61,71.39s-.02,0-.02,0c-.14-.01-.24-.13-.22-.27.11-1.1.57-1.96,1.38-2.57,2.29-1.72,6.64-.9,8.07-.62.13.02.22.04.29.05.13.02.23.15.21.28-.02.14-.15.23-.28.2-.07-.01-.17-.03-.3-.06-3.69-.7-6.27-.52-7.68.53-.69.52-1.09,1.27-1.18,2.22-.01.13-.12.22-.25.22Z"/>
    <path class="cls-5" d="M99,142.08l10.52-6.65c5.74-3.63,11.48-7.26,17.22-10.88,1.27-.81,6.96-4.58,6.96-4.58,3.07.22,7.98,12.58,9.26,17.94,1.13,4.74,2.87,11.39.4,15.97-1.37,2.54-4.25,2.86-6.83,2.36-1.9-.37-3.64-1.24-5.46-1.85-1.98-.67-3.93-.78-5.99-.42l-19.74,5.41c-4.4.96-7.93-.75-9.72-3.49-2.16-3.31-.71-11.3,3.37-13.8Z"/>
    <path class="cls-3" d="M131.06,138.27c.03.36.07.72.12,1.1,1.32,10.43,6.36,17.46,10.19,16.41,3.86-1.09,4.13-8.53,1.66-17.93-.56-2.27-1.19-4.5-1.86-6.56-1.29-3.98-2.75-7.37-4.22-9.39-.91-1.26-1.81-2-2.68-2.02-1.35-.05-2.42,2.06-3.01,5.41-.6,3.38-.72,8.01-.19,13Z"/>
    <path class="cls-3" d="M54.15,184.54c3.41.46,8.83-5.48,12.27-15.48,1.27-3.74,1.79-7.38,1.71-10.54-.1-4-1.17-7.23-2.88-8.97-.59-.6-1.24-1.02-1.97-1.24-.41-.12-.8-.18-1.2-.18h0c-3.02,0-5.6,3.52-7.38,9.09-.58,1.81-1.06,3.84-1.45,6.03-1.9,9.73-5.91,20.37.9,21.29Z"/>
    <path class="cls-3" d="M101.24,144.63s-.03,0-.05,0c-.13-.02-.22-.15-.2-.29.63-3.35,3.54-6.55,8.21-9.02.09-.05.15-.08.18-.1.11-.07.27-.04.34.08.07.12.04.27-.08.34-.03.02-.1.06-.21.11-4.53,2.4-7.36,5.48-7.96,8.67-.02.12-.13.2-.24.2Z"/>
    <path class="cls-3" d="M53.49,143.1s-.02,0-.02,0c-.14-.01-.24-.13-.22-.27l1.46-16.12s0-.07,0-.21c.02-2.54-.91-4.34-2.75-5.38-.12-.07-.16-.22-.1-.34.07-.12.22-.16.34-.1,2.02,1.13,3.03,3.08,3.01,5.81,0,.09,0,.16,0,.19l-1.46,16.18c-.01.13-.12.22-.25.22Z"/>
    <path class="cls-3" d="M57.27,117.13c-.06,0-.11-.02-.16-.06-.1-.09-.12-.24-.03-.35,1.55-1.86,3.76-7.35.67-12.48-.07-.12-.03-.27.08-.34.12-.07.27-.03.34.08,3.23,5.35.92,11.1-.71,13.05-.05.06-.12.09-.19.09Z"/>
    <path class="cls-3" d="M63.45,148.87s-.06,0-.09-.02l-9.68-3.79c-4.94-1.62-10.09-2.33-14.21,3.46-.08.11-.23.14-.34.06s-.14-.23-.06-.34c4.31-6.05,9.66-5.32,14.78-3.63l9.69,3.79c.13.05.19.19.14.32-.04.1-.13.16-.23.16Z"/>
    <path class="cls-3" d="M48.94,181.59c-.08,0-.15-.04-.2-.1-3.14-4.34-3.26-10.17-3.34-14.42-.05-2.34-.09-4.37-.66-5.16-.08-.11-.06-.26.05-.35.11-.08.26-.06.35.05.67.91.71,2.91.76,5.44.08,4.19.2,9.92,3.25,14.14.08.11.06.26-.06.34-.04.03-.09.05-.15.05Z"/>
    <path class="cls-3" d="M131.65,154.84s-.06,0-.08-.01c-.07-.02-.21-.09-.42-.19-4.4-2.14-8.43-2.75-11.97-1.82-.13.04-.27-.04-.3-.18-.04-.13.04-.27.18-.3,3.66-.97,7.8-.35,12.31,1.85.18.09.31.15.37.17.13.05.2.19.15.32-.04.1-.13.16-.23.16Z"/>
    <path class="cls-3" d="M37.11,136.76s-.05,0-.08-.01c-.13-.05-.2-.19-.15-.31,1.18-3.38,4.99-8.12,6.24-9.68l.14-.17c.09-.11.24-.12.35-.04.11.09.12.24.04.35l-.14.17c-1.24,1.54-5,6.24-6.16,9.54-.04.1-.13.17-.23.17Z"/>
    <path class="cls-3" d="M54.04,145.26c-.12,0-.23-.09-.24-.21-.29-1.97-3.21-4.13-4.77-5.3-.71-.53-1.05-.79-1.17-.97-.07-.12-.03-.27.08-.34.12-.07.27-.03.34.08.07.11.56.48,1.04.83,1.74,1.29,4.64,3.45,4.96,5.62.02.13-.07.26-.21.28-.01,0-.02,0-.04,0Z"/>
    <path class="cls-3" d="M107.03,137.15c-.1,0-.19-.06-.23-.16-.15-.36-2.16-2.72-6.6-2.78-.14,0-.25-.11-.24-.25,0-.14.13-.24.25-.24,4.76.06,6.91,2.73,7.05,3.11.05.13-.02.27-.15.32-.03.01-.06.02-.08.02Z"/>
    <path class="cls-3" d="M92.47,124.36c-.13,0-.24-.1-.25-.23-.23-3.45,1.34-6.23,2.95-6.66.13-.04.27.04.3.18.04.13-.04.27-.18.3-1.21.32-2.82,2.7-2.59,6.15,0,.14-.09.25-.23.26,0,0-.01,0-.02,0Z"/>
    <path class="cls-8" d="M66.32,183.51l.82,1.55,2.09,3.94,18.68,35.27,6.47,12.22-.3,4.48-5.37,79.5,4.3,2.43,36.59-2.43-5.89-87.22c-.19-2.7-.9-5.34-2.11-7.77l-26.98-54.39-28.31,12.42Z"/>
    <path class="cls-3" d="M87.91,224.26l6.47,12.22-.3,4.48.06-.02c.54-5.99,1.01-7.63,1.85-9.2-1.32-.64-4.9-1.48-15.19-26.71-4.25-10.44-3.35-17.75-3.44-18.01l-8.13,1.97,18.68,35.27Z"/>
    <path class="cls-3" d="M88.71,320.46c.41,1.86,3.54,3.09,9.16,3.61,2.72.24,6.03.34,9.9.26,1.41-.03,2.76-.06,4.05-.12,2.14-.08,4.09-.18,5.88-.31,2.24-.18,4.19-.39,5.83-.67,3.69-.63,5.79-1.52,6.08-2.78.4-1.8-3.45-3.64-12.75-2.32-1.94.27-4.11.69-6.53,1.26-3.23.77-5.99,1.31-8.35,1.66-.8.13-1.56.23-2.26.3-.62.08-1.2.14-1.76.18-7.69.65-9.23-1.09-9.23-1.09Z"/>
    <path class="cls-3" d="M51.28,332.34l3.6,1.23c1.53.53,3.2.5,4.72-.06l3.73-1.38c1.67-.62,2.76-2.22,2.73-3.99l-.08-4.81c.69-2.32-1.56-4.43-3.83-3.59,0,0-11.15,1.59-12.79,3.15l-.92,4.48c-.44,2.13.78,4.26,2.84,4.96Z"/>
    <path class="cls-12" d="M57.53,326.42c5.93-2.63,8.28-4.4,8.28-4.4l-15.23.08,6.95,4.32Z"/>
    <path class="cls-8" d="M35.75,320.76c-.03.07-.07.14-.07.22,0,1.87,9.13,3.4,20.38,3.4s19.5-1.38,20.3-3.13h.12l-1.07-89.75,2.39-50.53-33.3,14.53.19,3.8.03.57c0,.09,0,.18,0,.27l.07,1.3v.05l1.35,27.19c.12,2.37.03,4.75-.25,7.11l-.71,5.89s0,.03,0,.04l-9.5,79.03h.07Z"/>
    <path class="cls-3" d="M76.05,218.29h0c-.14,0-.24-.12-.24-.25.09-2.96.88-28.92,1.45-30.3.6-1.45,3.75-2.9,3.88-2.96.12-.06.27,0,.33.12.06.12,0,.27-.12.33-.86.39-3.2,1.65-3.63,2.7-.41.98-1.07,18.55-1.41,30.12,0,.13-.11.24-.25.24Z"/>
    <path class="cls-3" d="M77.57,178.43h0c-.14,0-.24-.12-.24-.26.04-1.09.07-2.34.09-3.63.05-3.17.01-6.76-.04-8.91,0-.14.1-.25.24-.25h0c.13,0,.24.11.25.24.05,2.16.09,5.75.04,8.93-.02,1.29-.05,2.55-.09,3.64,0,.13-.11.24-.25.24Z"/>
    <path class="cls-3" d="M95.99,174.08h-.29c-1.59,0-4.44-.05-6.36-.09h-.74c-.74-.03-1.21-.04-1.22-.04-.12,0-.22-.09-.24-.21l-1.2-7.46c-.02-.13.07-.26.2-.28.14-.02.26.07.28.21l1.17,7.26c.21,0,.56.01,1.01.02h.74c1.91.04,4.76.09,6.35.1h.29c.14,0,.25.11.25.25s-.11.25-.25.25Z"/>
    <path class="cls-3" d="M58.47,174.08c-.52,0-.86,0-.93-.02-.13-.03-.22-.16-.2-.29.03-.13.16-.22.29-.2.32.05,5.62-.04,9.22-.11l1.28-7.92c.02-.14.15-.22.28-.21.13.02.23.15.2.28l-1.31,8.12c-.02.12-.12.21-.24.21-1.23.02-6.44.12-8.6.12Z"/>
    <path class="cls-3" d="M93.6,248.41s-.01,0-.02,0c-.14,0-.24-.13-.23-.26.2-2.94.37-5.3.54-7.22.54-5.95,1.01-7.68,1.88-9.29.11-.21.23-.42.36-.65.07-.12.22-.16.34-.09.12.07.16.22.09.34-.12.21-.24.41-.34.62-.84,1.56-1.3,3.24-1.83,9.11-.17,1.92-.34,4.28-.54,7.21,0,.13-.12.23-.25.23Z"/>
    <path class="cls-3" d="M116.17,230.21c-.09,0-.18-.05-.23-.15-.06-.12,0-.27.12-.33,3.69-1.67,5.52-1.58,6.4-1.21.65.27.81.7.83.74.05.13-.02.27-.15.32-.13.05-.27-.02-.31-.14,0-.02-.13-.29-.6-.47-.8-.32-2.48-.37-5.97,1.21-.03.02-.07.02-.1.02Z"/>
    <path class="cls-3" d="M56.22,230.21c-.09,0-.18-.05-.23-.15-.06-.12,0-.27.12-.33,6.18-2.8,9.97-.09,10.13.03.11.08.13.24.05.35-.08.11-.23.13-.35.05-.04-.03-3.73-2.65-9.64.03-.03.02-.07.02-.1.02Z"/>
    <path class="cls-3" d="M46.15,228.68c.12,2.37.03,4.75-.25,7.11l-.71,5.89c.22-.7,3.5-8.11,2.59-16.35-.85-7.66-2.54-17.29-2.98-23.84l1.35,27.19Z"/>
    <path class="cls-3" d="M126.62,276.56c-.13,0-.24-.1-.25-.23-.65-9.7-6.88-24.23-7.81-24.84-.11-.08-.14-.23-.07-.34.08-.11.23-.14.34-.07,1.09.73,7.36,15.36,8.03,25.22,0,.14-.09.25-.23.26,0,0-.01,0-.02,0Z"/>
    <path class="cls-3" d="M89.48,309.3s-.02,0-.03,0c-.14-.01-.23-.14-.22-.27,1.09-9.73,7.25-20.48,10.55-26.25,1-1.74,1.94-3.39,1.93-3.69-.02-.14.07-.26.21-.28.14-.02.26.08.28.21.06.39-.47,1.34-2,4-3.29,5.74-9.41,16.43-10.49,26.06-.01.13-.12.22-.25.22Z"/>
    <path class="cls-3" d="M75.65,251.53c-.14,0-.25-.11-.25-.24-.15-12.23-5.04-24.19-6.36-25.54-.1-.1-.09-.25,0-.35.1-.1.25-.09.35,0,1.61,1.66,6.35,14.08,6.5,25.88,0,.14-.11.25-.24.25h0Z"/>
    <path class="cls-3" d="M40.32,282.4s-.04,0-.06,0c-.13-.03-.21-.16-.18-.3,1.87-7.84,10.93-22.83,11.66-23.73.09-.1.24-.12.35-.04.11.09.12.24.04.35-.72.89-9.71,15.75-11.56,23.54-.03.11-.13.19-.24.19Z"/>
    <path class="cls-3" d="M112.43,207.21c-.09,0-.18-.05-.22-.13-.03-.07-3.52-6.71-12.08-9.75-.13-.04-.2-.19-.15-.32.05-.13.19-.2.32-.15,8.75,3.1,12.32,9.92,12.36,9.99.06.12.01.27-.11.33-.04.02-.07.03-.11.03Z"/>
    <path class="cls-3" d="M44.8,198.04s-.03,0-.04,0c-.13-.02-.23-.15-.2-.29.71-4.25,3.81-6.65,5.67-8.08.69-.53,1.28-.99,1.39-1.28.05-.13.19-.2.32-.15.13.05.2.19.15.32-.15.42-.71.85-1.55,1.5-1.8,1.39-4.81,3.72-5.48,7.77-.02.12-.12.21-.24.21Z"/>
    <path class="cls-3" d="M98.14,178.43s-.09-.01-.14-.04c-.03-.02-3.24-2.09-11.54-2.26-.14,0-.25-.12-.24-.25,0-.14.14-.25.25-.24,8.47.17,11.67,2.26,11.8,2.35.11.08.14.23.07.34-.05.07-.13.11-.21.11Z"/>
    <path class="cls-12" d="M99.7,321.38c2.22.59,6.92,1.81,12.12,2.85,5.23,1.06,11.05,1.93,15.25,1.72,0,0-1.51-1.15-3.55-2.7-2.01-1.54-4.54-3.48-6.67-5.1-1.94.27-4.11.69-6.53,1.26-4.33,1.04-7.82,1.65-10.62,1.97Z"/>
    <path class="cls-3" d="M96.21,165.74c-.11,0-.2-.07-.24-.17-1.12-3.62-5.25-5.46-6.8-6.16-.46-.21-.6-.27-.68-.35-.09-.1-.08-.26.02-.35.1-.09.24-.08.34,0,.06.04.29.15.52.25,1.61.72,5.89,2.63,7.08,6.46.04.13-.03.27-.16.31-.02,0-.05.01-.07.01Z"/>
    <path class="cls-3" d="M110.74,331.1v-3.34l10.23,3.34h16.35c1.59,0,3.14-.39,4.54-1.15.78-.43.58-1.62-.3-1.75l-23.86-4.29-15.73-2.84c-.8.13-1.56.23-2.26.3-.62.08-1.2.14-1.76.18l-.07,2.53-.18,7.02h13.05Z"/>
    <path class="cls-12" d="M59.56,149.37c-.94.48,3.79,4.6,4.94,3.46,4.76-4.71,8.96-9.81,8.68-11.31h0c.02-.3-.32-.48-.56-.3,0,0-6.1,4.61-13.06,8.16Z"/>
    <g>
      <path class="cls-3" d="M67.96,157.35c-.14.76.04,1.53.5,2.15l.18.24,5.19-26.53c-.07-1.96.53-2.44,1.22-2.43l23.77.04-.71-.63c-.37-.53-.97-.84-1.62-.85l-22.32-.11c-.65,0-1.21.46-1.33,1.1l-4.9,27.01Z"/>
      <path class="cls-13" d="M73.34,131.5l-5.02,27.35c-.11.6.35,1.16.97,1.16h22.76c.64,0,1.19-.45,1.32-1.07l5.67-27.28c.13-.61-.34-1.18-.96-1.18l-23.41-.08c-.65,0-1.21.46-1.33,1.1Z"/>
      <path class="cls-3" d="M82.98,140.71c.07,1.04,1.17,1.82,2.45,1.74,1.28-.09,2.27-1,2.2-2.05s-1.17-1.82-2.45-1.74c-1.28.09-2.27,1-2.2,2.05Z"/>
    </g>
    <g>
      <path class="cls-12" d="M131.06,138.27l10.1-6.99,2.26-1.57-5.44-8.45-1.05.63-5.69,3.39c-.6,3.38-.72,8.01-.19,13Z"/>
      <path class="cls-12" d="M137.99,121.73l3.16,9.49s10.23-1.7,12.34-3.61c1.57-1.43-3.36-7.81-3.36-7.81l-12.14,1.93Z"/>
      <path class="cls-12" d="M134.29,123.64c-.78.72,4.9,3.39,5.7,1.98,3.29-5.83,5.93-11.88,5.26-13.26h0c-.06-.29-.44-.38-.62-.14,0,0-4.61,6.11-10.33,11.42Z"/>
      <path class="cls-12" d="M149.99,122.6c.15-.04.33-.11.46-.17l.21-.12c.15-.09.23-.15.35-.23.21-.15.41-.3.6-.45.38-.3.73-.61,1.08-.92.69-.63,1.35-1.28,1.98-1.96,1.02-1.1,2.49-2.94,3.54-4.43.25-.36-.05-.84-.48-.77h0c-.78.13-1.49.54-2.01,1.13-.79.9-1.61,1.64-2.58,2.53-.64.58-1.3,1.14-1.98,1.66-.34.26-.68.51-1.03.74-.17.12-.34.22-.5.32-.07.04-.17.1-.22.12l-.08.04s.09-.05.15-.05l.51,2.55Z"/>
      <path class="cls-12" d="M150.08,124.38c.15-.04.33-.1.45-.16l.22-.11c.16-.08.27-.15.41-.22.26-.15.5-.3.74-.44.48-.3.95-.61,1.41-.93.92-.64,1.81-1.31,2.68-2.03,1.56-1.3,3.47-3.28,4.77-5.09.17-.23,0-.56-.29-.56h0c-.98-.01-1.93.38-2.59,1.11-.94,1.05-1.94,1.91-3.22,2.83-.85.62-1.74,1.2-2.64,1.74-.45.27-.91.53-1.37.78-.23.12-.46.24-.68.35-.11.05-.23.11-.32.15l-.14.06s.04-.02.06-.02l.51,2.55Z"/>
      <path class="cls-12" d="M150.58,126.97c.13-.05.27-.1.37-.15l.23-.12c.16-.08.28-.16.42-.23.27-.16.53-.31.78-.47.51-.32,1.01-.65,1.49-1,.97-.69,1.92-1.41,2.82-2.19,1.57-1.35,3.69-3.42,5.1-5.26.24-.31-.01-.76-.41-.73h-.15c-.91.09-1.74.54-2.35,1.22-1.05,1.16-2.15,2.04-3.54,3.09-.89.67-1.83,1.3-2.78,1.89-.48.29-.96.57-1.44.84-.24.13-.49.26-.73.38-.12.05-.25.12-.35.17l-.16.07s-.02,0-.03.01l.72,2.5Z"/>
      <path class="cls-12" d="M150.72,128.88l.32-.09.21-.08.4-.16c.17-.07.33-.14.5-.22.33-.15.66-.3.98-.46,1.2-.61,2.36-1.27,3.46-2.04,1.54-1.06,3.54-2.94,4.85-4.65.24-.31.03-.76-.36-.79h0c-.74-.05-1.47.23-1.98.77-1.04,1.11-2.32,2.04-3.67,2.84-1.07.64-2.2,1.18-3.34,1.66-.29.12-.59.23-.88.34-.15.05-.3.11-.44.16l-.33.1-.16.05s-.04,0-.05.01l.51,2.55Z"/>
    </g>
    <g>
      <path class="cls-12" d="M71.18,152.32c.17.04.38.07.53.08h.27c.2,0,.31-.03.47-.04.29-.03.55-.07.82-.12.53-.09,1.03-.2,1.54-.32,1.01-.24,1.99-.53,2.96-.85,1.58-.53,3.99-1.52,5.8-2.41.44-.21.4-.84-.06-1h0c-.83-.29-1.73-.27-2.56.03-1.25.45-2.44.74-3.85,1.08-.93.22-1.87.41-2.8.56-.47.07-2.92.4-2.87.43l-.24,2.56Z"/>
      <path class="cls-12" d="M72.27,154.02c.16.03.35.05.48.05h.26c.18-.01.31-.03.47-.04.31-.02.59-.06.88-.09.57-.07,1.14-.16,1.7-.26,1.13-.19,2.24-.43,3.35-.73,2-.53,4.62-1.54,6.6-2.65.26-.14.24-.52-.03-.64h0c-.9-.43-1.95-.48-2.87-.09-1.32.57-2.61.93-4.19,1.23-1.05.21-2.12.36-3.19.47-.53.06-1.07.1-1.6.13-.26.01-.53.03-.78.03-.12,0-.26,0-.36,0h-.16s.05,0,.07,0l-.62,2.58Z"/>
      <path class="cls-12" d="M70.63,156.49c.14.01.3.02.41.02h.26c.18-.02.32-.03.49-.05.32-.03.62-.06.93-.1.61-.08,1.21-.17,1.81-.28,1.2-.22,2.38-.48,3.55-.81,2.03-.57,4.88-1.57,6.98-2.67.36-.19.32-.71-.06-.85l-.15-.05c-.88-.32-1.84-.26-2.69.1-1.47.62-2.87.96-4.6,1.33-1.12.24-2.25.41-3.38.55-.57.07-1.13.12-1.7.15-.28.02-.56.03-.83.04-.13,0-.28,0-.39,0h-.18s-.02-.01-.03,0l-.41,2.62Z"/>
      <path class="cls-12" d="M69.69,157.8l.33.04h.23s.43.03.43.03c.19,0,.37,0,.55,0,.37,0,.73,0,1.1-.03,1.37-.08,2.72-.22,4.07-.48,1.87-.36,4.51-1.29,6.43-2.35.35-.19.34-.7-.01-.88h0c-.67-.35-1.47-.39-2.16-.09-1.43.61-3,.96-4.59,1.15-1.26.16-2.53.2-3.8.17-.32,0-.64-.03-.96-.05-.16-.01-.32-.02-.48-.04l-.35-.04-.16-.02s-.04-.01-.06-.01l-.57,2.59Z"/>
      <path class="cls-12" d="M54.69,157.21l4.68,1.08c1.79.41,3.63.58,5.47.47.97-.06,2.12-.14,3.29-.24,2.93-.25,6.03-.68,7.18-1.33,1.78-1.03-2.04-7.51-2.04-7.51l-8.02-.13-.94-.02.12-.58s-.95-.34-2.35-.82h0c-3.02,0-5.6,3.52-7.38,9.09Z"/>
    </g>
    <path class="cls-10" d="M73.2,154.44c-.13,0-.23-.1-.25-.23-.01-.14.09-.26.22-.27,6.63-.57,11.36-3.08,12.66-3.83l.17.19.08.24c-1.32.77-6.13,3.32-12.86,3.9,0,0-.01,0-.02,0Z"/>
    <path class="cls-10" d="M73.39,156.76c-.12,0-.23-.09-.25-.22-.01-.14.08-.26.22-.27,5.74-.6,11.52-3.84,11.57-3.88.12-.07.27-.03.34.09.07.12.03.27-.09.34-.06.03-5.93,3.33-11.77,3.94,0,0-.02,0-.03,0Z"/>
    <path class="cls-10" d="M73.2,152.28c-.13,0-.24-.1-.25-.23-.01-.14.09-.25.23-.27,2.73-.21,5.36-1.21,5.39-1.22.13-.05.27.02.32.14.05.13-.02.27-.14.32-.11.04-2.73,1.03-5.53,1.25,0,0-.01,0-.02,0Z"/>
    <path class="cls-10" d="M140.21,125.11c-.07,0-.14-.03-.19-.09-.09-.11-.07-.26.03-.35.78-.64,1.82-2.55,2.86-5.23.03-.07.05-.12.05-.13.06-.12.21-.18.33-.12.12.06.18.2.12.33l-.04.1c-.63,1.62-1.85,4.48-3,5.43-.05.04-.1.06-.16.06Z"/>
    <path class="cls-10" d="M153.24,126.75c-.1,0-.19-.06-.23-.15l-.12-.3c-.66-1.62-2.2-5.43-3.51-6.02-.12-.06-.18-.2-.12-.33.06-.12.2-.18.33-.12,1.49.68,2.97,4.33,3.77,6.29l.12.3c.05.13,0,.27-.14.32-.03.01-.06.02-.09.02Z"/>
    <path class="cls-10" d="M143.81,126.75c-.05,0-.1-.02-.15-.05-1.21-.91-3.82-1.13-4.92-.12-.1.09-.26.08-.35-.02-.09-.1-.08-.26.02-.35,1.3-1.18,4.19-.94,5.55.09.11.08.13.24.05.35-.05.06-.12.1-.2.1Z"/>
    <path class="cls-10" d="M153.06,125.49c-.09,0-.17-.05-.22-.13-.07-.12-.02-.27.1-.33,1.25-.68,3.15-1.72,3.25-1.78.11-.07.27-.04.34.08.07.11.04.26-.07.34-.1.06-2.54,1.4-3.29,1.8-.04.02-.08.03-.12.03Z"/>
    <path class="cls-10" d="M151.91,123.69c-.09,0-.17-.05-.22-.13-.07-.12-.02-.27.1-.34,2.52-1.41,5.9-4.33,5.93-4.36.1-.09.26-.09.35.02s.09.26-.01.35c-.03.03-3.43,2.98-6.03,4.42-.04.02-.08.03-.12.03Z"/>
    <path class="cls-10" d="M150.87,121.53c-.1,0-.19-.06-.23-.15-.05-.13,0-.27.13-.32,1.81-.75,5.03-3.48,5.06-3.5.1-.09.26-.08.35.03.09.1.08.26-.03.35-.13.11-3.31,2.81-5.19,3.58-.03.01-.06.02-.09.02Z"/>
    <path class="cls-10" d="M63.31,80.66c-.08,0-.16-.04-.21-.11-.05-.08-1.21-1.85-3.11-1.01-.13.05-.27,0-.33-.13-.05-.13,0-.27.13-.33,2.29-1,3.71,1.18,3.73,1.2.07.11.04.27-.08.34-.04.03-.09.04-.13.04Z"/>
    <path class="cls-3" d="M75.79,122.14c-.09,0-.18-.05-.22-.14-.02-.04-2.04-4.11-6.59-7.06-.11-.07-.15-.23-.07-.34.08-.11.23-.15.34-.07,4.67,3.03,6.74,7.22,6.76,7.26.06.12,0,.27-.11.33-.03.02-.07.02-.11.02Z"/>
    <path class="cls-3" d="M74.66,84.72c0,.08,0,.17-.03.24-.2.78-1.41,1.13-2.69.79-1.28-.33-2.15-1.24-1.95-2.02.03-.08.05-.15.09-.22.6.33,1.36.64,2.22.86.86.22,1.67.33,2.36.35Z"/>
    <path class="cls-11" d="M74.66,84.72c-.69-.01-1.5-.13-2.36-.35-.86-.22-1.61-.53-2.22-.86.36-.63,1.45-.88,2.6-.58,1.14.29,1.96,1.05,1.97,1.78Z"/>
  </g>
  <g id="chat">
    <rect class="cls-11" x="171.76" y="66.57" width="150.87" height="187.62"/>
    <path class="cls-1" d="M171.68,254.01h150.87v37.89c0,5.06-4.1,9.16-9.16,9.16h-132.54c-5.06,0-9.16-4.1-9.16-9.16v-37.89h0Z"/>
    <path class="cls-1" d="M180.84,30.62h132.55c5.06,0,9.16,4.1,9.16,9.16v26.79h-150.87v-26.79c0-5.06,4.1-9.16,9.16-9.16Z"/>
    <g>
      <path class="cls-11" d="M185.24,39.76c0,2.75-2.23,4.97-4.97,4.97s-4.97-2.23-4.97-4.97,2.23-4.97,4.97-4.97,4.97,2.23,4.97,4.97Z"/>
      <path class="cls-1" d="M182.76,42.58c-.08,0-.17-.03-.23-.1l-4.97-4.97c-.13-.13-.13-.34,0-.47.13-.13.34-.13.47,0l4.97,4.97c.13.13.13.34,0,.47-.06.06-.15.1-.23.1Z"/>
      <path class="cls-1" d="M177.78,42.58c-.08,0-.17-.03-.23-.1-.13-.13-.13-.34,0-.47l4.97-4.97c.13-.13.34-.13.47,0s.13.34,0,.47l-4.97,4.97c-.06.06-.15.1-.23.1Z"/>
    </g>
    <path class="cls-6" d="M280.49,207.49h-90.77c-4.22,0-7.63,3.42-7.63,7.63v13.21c0,2.71-1.78,5.1-4.37,5.88h102.78c4.22,0,7.63-3.42,7.63-7.63v-11.46c0-4.22-3.42-7.63-7.63-7.63Z"/>
    <path class="cls-6" d="M295.22,175.21h-106.34c-3.92,0-7.1,3.42-7.1,7.63v7.8c0,2.71-1.65,5.1-4.07,5.88h117.51c3.92,0,7.1-3.42,7.1-7.63v-6.04c0-4.22-3.18-7.63-7.1-7.63Z"/>
    <g>
      <path class="cls-11" d="M307.11,56.06c-1.23,0-2.47-.4-3.48-1.18-1.79-1.37-3.4-2.98-4.77-4.77-1.15-1.51-1.48-3.49-.88-5.3.07-.23.15-.42.24-.6.03-.06.06-.13.1-.2.38-.72.86-1.35.88-1.38.22-.33.58-.54,1.01-.58.5-.05,1,.14,1.38.52l1.71,1.71c.64.64.71,1.61.16,2.2l-1.57,1.68c1.08,1.32,2.37,2.61,3.69,3.68l1.68-1.56c.6-.55,1.56-.48,2.2.16l1.71,1.71c.38.38.57.88.52,1.38-.04.43-.25.79-.6,1.02,0,0-.63.49-1.36.87-.07.04-.14.07-.21.1-.18.09-.37.17-.55.23l-.1.02c-.57.19-1.17.28-1.76.28ZM300.34,42.71s-.06,0-.08,0c-.23.02-.42.13-.54.31-.02.02-.48.62-.83,1.29-.03.06-.06.11-.08.17-.08.16-.15.32-.2.48-.54,1.66-.25,3.41.77,4.74,1.34,1.75,2.9,3.31,4.65,4.65,1.33,1.02,3.09,1.31,4.69.78l.1-.02c.11-.04.27-.11.42-.19l.19-.09c.66-.35,1.26-.81,1.27-.81.2-.13.3-.32.33-.55.03-.3-.09-.61-.33-.85l-1.71-1.71c-.38-.38-.96-.44-1.29-.14l-2.09,1.95-.22-.18c-1.51-1.2-3-2.68-4.2-4.19l-.18-.22,1.96-2.1c.3-.33.24-.9-.14-1.28l-1.71-1.71c-.21-.21-.49-.34-.77-.34Z"/>
      <g>
        <path class="cls-11" d="M308.86,48.02c-.18,0-.33-.15-.33-.33v-6.23c0-.18.15-.33.33-.33s.33.15.33.33v6.23c0,.18-.15.33-.33.33Z"/>
        <path class="cls-11" d="M311.97,44.91h-6.23c-.18,0-.33-.15-.33-.33s.15-.33.33-.33h6.23c.18,0,.33.15.33.33s-.15.33-.33.33Z"/>
      </g>
    </g>
    <path class="cls-11" d="M306.24,287.48h-117.55c-5.49,0-9.95-4.45-9.95-9.95h0c0-5.49,4.45-9.95,9.95-9.95h117.55c5.49,0,9.95,4.45,9.95,9.95h0c0,5.49-4.45,9.95-9.95,9.95Z"/>
    <g>
      <g>
        <path class="cls-11" d="M311.98,277.54c0,3.59-2.91,6.5-6.49,6.5s-6.49-2.91-6.49-6.5,2.91-6.5,6.49-6.5,6.49,2.91,6.49,6.5Z"/>
        <path class="cls-7" d="M305.48,284.69c-3.95,0-7.16-3.21-7.16-7.16s3.21-7.16,7.16-7.16,7.16,3.21,7.16,7.16-3.21,7.16-7.16,7.16ZM305.48,271.7c-3.22,0-5.83,2.62-5.83,5.83s2.62,5.83,5.83,5.83,5.83-2.62,5.83-5.83-2.62-5.83-5.83-5.83Z"/>
      </g>
      <g>
        <path class="cls-7" d="M305.48,279.84c-1.23,0-2.23-1-2.23-2.23v-3.32c0-1.23,1-2.23,2.23-2.23s2.23,1,2.23,2.23v3.32c0,1.23-1,2.23-2.23,2.23ZM305.48,272.71c-.87,0-1.57.71-1.57,1.57v3.32c0,.87.71,1.57,1.57,1.57s1.57-.71,1.57-1.57v-3.32c0-.87-.71-1.57-1.57-1.57Z"/>
        <path class="cls-7" d="M305.48,281.41c-1.92,0-3.48-1.56-3.48-3.48,0-.18.15-.33.33-.33s.33.15.33.33c0,1.56,1.27,2.82,2.82,2.82s2.82-1.27,2.82-2.82c0-.18.15-.33.33-.33s.33.15.33.33c0,1.92-1.56,3.48-3.48,3.48Z"/>
        <path class="cls-7" d="M305.48,283.02c-.18,0-.33-.15-.33-.33v-1.61c0-.18.15-.33.33-.33s.33.15.33.33v1.61c0,.18-.15.33-.33.33Z"/>
      </g>
    </g>
    <g>
      <path class="cls-11" d="M296.63,182.38h-108.5c-.18,0-.32-.14-.32-.32s.14-.32.32-.32h108.5c.18,0,.32.14.32.32s-.14.32-.32.32Z"/>
      <path class="cls-11" d="M249.66,189.98h-61.53c-.18,0-.32-.14-.32-.32s.14-.32.32-.32h61.53c.18,0,.32.14.32.32s-.14.32-.32.32Z"/>
    </g>
    <g>
      <path class="cls-11" d="M280.99,213.95h-92.08c-.18,0-.33-.15-.33-.33s.15-.33.33-.33h92.08c.18,0,.33.15.33.33s-.15.33-.33.33Z"/>
      <path class="cls-11" d="M280.99,229.15h-92.08c-.18,0-.33-.15-.33-.33s.15-.33.33-.33h92.08c.18,0,.33.15.33.33s-.15.33-.33.33Z"/>
      <path class="cls-11" d="M255.01,221.55h-66.11c-.18,0-.33-.15-.33-.33s.15-.33.33-.33h66.11c.18,0,.33.15.33.33s-.15.33-.33.33Z"/>
    </g>
    <path class="cls-7" d="M203.63,92.82h123.6c5.74,0,10.39,5.15,10.39,11.51v19.91c0,4.08,2.42,7.68,5.95,8.86h-139.94c-5.74,0-10.39-5.15-10.39-11.5v-17.27c0-6.35,4.65-11.51,10.39-11.51Z"/>
    <g>
      <path class="cls-11" d="M328.33,102.54h-125.38c-.26,0-.47-.21-.47-.47s.21-.47.47-.47h125.38c.26,0,.47.21.47.47s-.21.47-.47.47Z"/>
      <path class="cls-11" d="M328.33,125.44h-125.38c-.26,0-.47-.21-.47-.47s.21-.47.47-.47h125.38c.26,0,.47.21.47.47s-.21.47-.47.47Z"/>
      <path class="cls-11" d="M328.33,113.99h-90.01c-.26,0-.47-.21-.47-.47s.21-.47.47-.47h90.01c.26,0,.47.21.47.47s-.21.47-.47.47Z"/>
    </g>
    <g>
      <path class="cls-6" d="M184.56,249.01c-.88,0-1.6-.72-1.6-1.6s.72-1.6,1.6-1.6,1.6.72,1.6,1.6-.72,1.6-1.6,1.6Z"/>
      <path class="cls-6" d="M190.92,249.01c-.88,0-1.6-.72-1.6-1.6s.72-1.6,1.6-1.6,1.6.72,1.6,1.6-.72,1.6-1.6,1.6Z"/>
      <path class="cls-6" d="M197.28,249.01c-.88,0-1.6-.72-1.6-1.6s.72-1.6,1.6-1.6,1.6.72,1.6,1.6-.72,1.6-1.6,1.6Z"/>
    </g>
    <g>
      <path class="cls-7" d="M187.36,282.03c-.18,0-.33-.15-.33-.33v-8.74c0-.18.15-.33.33-.33s.33.15.33.33v8.74c0,.18-.15.33-.33.33Z"/>
      <path class="cls-7" d="M191.52,277.66h-8.31c-.18,0-.33-.15-.33-.33s.15-.33.33-.33h8.31c.18,0,.33.15.33.33s-.15.33-.33.33Z"/>
    </g>
  </g>
  <g id="robot">
    <g>
      <path class="cls-1" d="M368.68,173.18c-.11,1.47-.6,6.87-2.07,13.39-1.22,5.38-3.11,11.52-6.03,16.84-3.79,6.92-9.31,12.42-17.31,13.04-.47.04-.93.06-1.39.06-18.25,0-24.46-28.43-24.72-29.67-.58-2.77,1.19-5.49,3.96-6.07,2.77-.58,5.49,1.19,6.07,3.96,1.24,5.79,6.7,22.16,15.28,21.49,4.53-.35,7.93-4.74,10.41-10.37,1.58-3.58,2.78-7.66,3.66-11.53,1.08-4.75,1.68-9.16,1.9-11.91.22-2.82,2.68-4.96,5.5-4.72,2.83.22,4.95,2.68,4.73,5.5Z"/>
      <g class="cls-16">
        <path class="cls-3" d="M318.2,195.77c-1.16,0-2.29-.12-3.37-.38-3.32-.77-5.76-2.64-6.87-5.26-.06-.15,0-.32.16-.38.15-.06.32,0,.38.16,1.04,2.45,3.33,4.2,6.46,4.92,3.17.73,6.79.34,10.22-1.12,7.04-2.99,11.02-9.56,8.86-14.64-.06-.15,0-.32.16-.38.15-.06.32,0,.38.16,2.28,5.38-1.83,12.3-9.17,15.41-2.37,1.01-4.85,1.52-7.21,1.52Z"/>
        <path class="cls-3" d="M323.81,208.37c-1.16,0-2.29-.12-3.37-.38-3.32-.77-5.76-2.64-6.87-5.26-.06-.15,0-.32.16-.38.15-.06.32,0,.38.16,1.04,2.45,3.33,4.2,6.46,4.92,3.17.74,6.79.34,10.22-1.12,7.04-2.99,11.02-9.56,8.86-14.64-.06-.15,0-.32.16-.38.15-.06.32,0,.38.16,2.28,5.38-1.83,12.3-9.17,15.41-2.37,1.01-4.85,1.52-7.21,1.52Z"/>
        <path class="cls-3" d="M336.9,223.75c-.16,0-.29-.13-.29-.29s.13-.29.29-.29c5.53,0,10.02-6.22,10.02-13.88s-4.5-13.88-10.02-13.88c-.16,0-.29-.13-.29-.29s.13-.29.29-.29c5.85,0,10.61,6.49,10.61,14.46s-4.76,14.46-10.61,14.46Z"/>
        <path class="cls-3" d="M360.35,219.24c-.09,0-.18-.04-.24-.12-.09-.13-.06-.31.07-.41,4.5-3.21,4.55-10.88.1-17.11-2.16-3.03-5.05-5.27-8.13-6.3-3.05-1.02-5.92-.73-8.08.82-.13.09-.31.06-.41-.07-.09-.13-.06-.31.07-.41,2.32-1.66,5.38-1.97,8.61-.89,3.2,1.07,6.19,3.38,8.42,6.51,4.63,6.49,4.52,14.54-.24,17.93-.05.04-.11.05-.17.05Z"/>
        <path class="cls-3" d="M366.61,186.57c-1.22,5.38-3.11,11.52-6.03,16.84-2.56-4.06-5.42-6.32-7.68-7.56,1.58-3.58,2.78-7.66,3.66-11.53l7.94.1,2.11,2.15Z"/>
      </g>
      <g>
        <path class="cls-13" d="M380.79,133.61c-1.33,2.51-3.8,4.48-6.89,5.2-.93.22-1.87.31-2.78.28-4.46-.12-8.39-3.05-9.4-7.36-1.21-5.2,2.28-10.45,7.8-11.74,5.52-1.28,10.98,1.89,12.19,7.09.53,2.28.15,4.57-.91,6.53Z"/>
        <g class="cls-14">
          <path class="cls-3" d="M363.02,141.42c-.12,0-.23-.09-.25-.21-.02-.14.07-.27.21-.3,2.39-.42,3.59-5.1,2.66-10.43-.93-5.34-3.63-9.33-6.03-8.92-.14.02-.27-.07-.3-.21-.02-.14.07-.27.21-.3,2.72-.46,5.63,3.63,6.62,9.34.99,5.71-.36,10.55-3.08,11.02-.01,0-.03,0-.04,0Z"/>
        </g>
        <path class="cls-3" d="M380.79,133.61c-1.33,2.51-3.8,4.48-6.89,5.2-.93.22-1.87.31-2.78.28,4.52-5.2,4-14.76,3.91-15.34l5.77,9.86Z"/>
        <path class="cls-13" d="M457.11,131.73c-1.09,4.7-5.66,7.75-10.62,7.33-.51-.04-1.04-.12-1.56-.25-3.95-.91-6.86-3.88-7.76-7.39-.36-1.39-.39-2.86-.05-4.34,1.21-5.2,6.67-8.37,12.19-7.09s9.01,6.54,7.8,11.74Z"/>
        <path class="cls-3" d="M446.49,139.06c-.51-.04-1.04-.12-1.56-.25-3.95-.91-6.86-3.88-7.76-7.39l6.06-7.67c-.07.68-1.16,9.68,3.25,15.31Z"/>
        <g class="cls-19">
          <path class="cls-3" d="M455.81,141.42s-.03,0-.04,0c-2.72-.47-4.07-5.32-3.08-11.02.99-5.71,3.91-9.8,6.62-9.34.14.02.23.16.21.3-.02.14-.16.23-.3.21-2.39-.41-5.1,3.59-6.03,8.92-.93,5.33.26,10.01,2.66,10.43.14.02.23.16.21.3-.02.12-.13.21-.25.21Z"/>
        </g>
        <path class="cls-13" d="M429.63,152.57h-40.76c-5.49,0-10.17-3.96-11.08-9.38l-4.5-26.86c-.95-5.69,3.43-10.87,9.2-10.87h53.51c5.77,0,10.16,5.18,9.2,10.87l-4.5,26.86c-.91,5.41-5.59,9.38-11.08,9.38Z"/>
        <path class="cls-13" d="M408.52,109.23c-.1,0-.2-.03-.29-.08-.8-.46-.99-4.22-.91-6.13.13-3.26,1.04-9.07,5.69-11.28.29-.14.65-.02.79.28.14.29.01.65-.28.79-1.96.93-3.37,2.72-4.21,5.33-1.4,4.36-.66,9.41-.35,10.1.17.19.22.47.08.7-.11.19-.31.3-.51.3ZM408.81,108.13h0s0,0,0,0Z"/>
        <path class="cls-13" d="M420.14,88.37c1.07,1.86.07,4.45-2.25,5.79-2.32,1.34-5.06.91-6.14-.95s-.07-4.45,2.25-5.79c2.32-1.34,5.06-.91,6.14.95Z"/>
        <path class="cls-3" d="M387.16,152.82c-.13,0-.24-.09-.25-.22l-6.55-46.95c-.02-.14.08-.27.22-.29.13-.02.27.08.29.22l6.55,46.95c.02.14-.08.27-.22.29-.01,0-.02,0-.04,0Z"/>
        <path class="cls-3" d="M431.02,152.82s-.02,0-.04,0c-.14-.02-.24-.15-.22-.29l6.55-46.95c.02-.14.15-.24.29-.22.14.02.24.15.22.29l-6.55,46.95c-.02.13-.13.22-.25.22Z"/>
        <path class="cls-11" d="M437.73,123.9c0,9.08-6.45,21.95-28.72,21.95-21,0-28.24-12.86-28.24-21.95s13.33-10.95,28.24-10.95,28.72,1.86,28.72,10.95Z"/>
        <g>
          <path class="cls-3" d="M399.74,127.48c0,3.57-2.9,6.47-6.47,6.47s-6.47-2.9-6.47-6.47,2.9-6.47,6.47-6.47,6.47,2.9,6.47,6.47Z"/>
          <path class="cls-3" d="M431.7,127.48c0,3.57-2.9,6.47-6.47,6.47s-6.47-2.9-6.47-6.47,2.9-6.47,6.47-6.47,6.47,2.9,6.47,6.47Z"/>
        </g>
      </g>
      <path class="cls-13" d="M464.21,182.7l-.76,3.33c-3.42,14.83-9.91,28.82-19.41,40.7-22.99,28.75-49.11,28.96-72.59-2.72-8.3-11.19-14-24.1-17.12-37.67l-.84-3.64c-2.61-11.35,7.6-21.9,21.2-21.9h68.33c13.59,0,23.81,10.56,21.2,21.9Z"/>
      <g class="cls-17">
        <path class="cls-3" d="M467.18,183.05c1.53,6.57-1.63,12.93-7.06,14.19-5.43,1.26-11.07-3.04-12.6-9.62s1.63-12.93,7.06-14.19c5.43-1.26,11.07,3.04,12.6,9.62Z"/>
        <path class="cls-3" d="M456.3,201.51c-7.47,0-14.26-6.93-15.57-16.28-1.4-10.04,4.05-19.13,12.16-20.26,8.1-1.11,15.84,6.12,17.24,16.16h0c1.4,10.04-4.05,19.13-12.16,20.26-.56.08-1.12.12-1.67.12ZM454.57,165.44c-.53,0-1.06.04-1.59.11-7.79,1.09-13.02,9.88-11.66,19.61,1.36,9.72,8.79,16.75,16.58,15.66,7.79-1.09,13.02-9.88,11.66-19.61h0c-1.26-9.06-7.81-15.77-14.99-15.77Z"/>
        <path class="cls-3" d="M348.72,197.72c-1.34,0-2.67-.21-3.97-.66-7.74-2.66-11.35-12.63-8.05-22.22,1.6-4.63,4.55-8.49,8.32-10.87,3.79-2.39,7.95-2.99,11.7-1.69,7.74,2.66,11.35,12.63,8.05,22.22h0c-2.75,7.98-9.43,13.22-16.05,13.22ZM352.72,162.2c-2.47,0-5.01.77-7.39,2.27-3.66,2.3-6.52,6.05-8.08,10.56-3.2,9.28.25,18.92,7.68,21.48,7.43,2.56,16.08-2.91,19.28-12.19,3.2-9.28-.25-18.92-7.68-21.48-1.23-.42-2.51-.64-3.81-.64ZM364.5,184.41h0,0Z"/>
        <path class="cls-3" d="M408.5,258.63c-15.81,0-28.68-4.75-28.68-10.58s12.87-10.58,28.68-10.58,28.68,4.75,28.68,10.58-12.87,10.58-28.68,10.58ZM408.5,238.05c-15.49,0-28.1,4.49-28.1,10s12.6,10,28.1,10,28.1-4.49,28.1-10-12.6-10-28.1-10Z"/>
      </g>
      <path class="cls-1" d="M448.41,226.9c-7.88,0-17.32-2.8-28.66-8.4-2.54-1.26-3.58-4.33-2.33-6.87,1.26-2.54,4.33-3.58,6.87-2.33,24.73,12.23,31.73,6.06,34.36,3.73,4.05-3.58,2.29-9.48-2.39-21.18-1.62-4.04-3.29-8.22-4.55-12.58-.79-2.72.78-5.57,3.5-6.35,2.72-.78,5.57.78,6.35,3.5,1.12,3.87,2.7,7.81,4.22,11.62,4.49,11.22,9.57,23.93-.34,32.68-4.66,4.11-10.27,6.18-17.03,6.18Z"/>
      <path class="cls-3" d="M441.83,160.8c0,1.08-14.59,1.94-32.59,1.94s-32.57-.86-32.57-1.94h65.16Z"/>
      <g class="cls-20">
        <path class="cls-3" d="M423.09,229.49c-.37,0-.74-.03-1.1-.08-.16-.02-.27-.17-.25-.33.02-.16.16-.27.33-.25,2.64.36,5.31-.7,7.55-3.02,2.26-2.34,3.78-5.65,4.3-9.34,1.06-7.58-2.54-14.36-8.01-15.13-.16-.02-.27-.17-.25-.33.02-.16.16-.28.33-.25,5.79.81,9.61,7.89,8.51,15.79-.53,3.81-2.11,7.24-4.46,9.67-2.06,2.13-4.49,3.26-6.94,3.26Z"/>
        <path class="cls-3" d="M441.99,234.51c-.36,0-.72-.03-1.09-.08-.16-.02-.27-.17-.25-.33.02-.16.16-.27.33-.25,5.47.77,10.79-4.78,11.84-12.36,1.06-7.58-2.54-14.36-8.01-15.13-.16-.02-.27-.17-.25-.33.02-.16.16-.27.33-.25,5.79.81,9.61,7.89,8.51,15.79-1.03,7.4-6.03,12.93-11.42,12.93Z"/>
        <path class="cls-3" d="M476.8,215.25h-.02c-.16-.01-.28-.15-.27-.31.39-5.51-5.5-10.44-13.13-10.98-7.62-.54-14.16,3.5-14.55,9.01-.01.16-.15.28-.31.27-.16-.01-.28-.15-.27-.31.41-5.83,7.22-10.12,15.17-9.56,7.95.57,14.09,5.77,13.67,11.6-.01.15-.14.27-.29.27Z"/>
        <path class="cls-3" d="M447.25,195.77c-.15,0-.28-.12-.29-.27-.45-5.83,5.66-11.07,13.61-11.68,3.83-.29,7.53.52,10.39,2.29,2.9,1.79,4.61,4.34,4.83,7.18.01.16-.11.3-.27.31-.18.02-.3-.11-.31-.27-.2-2.65-1.82-5.04-4.55-6.73-2.76-1.71-6.34-2.49-10.04-2.21-7.63.58-13.49,5.54-13.07,11.05.01.16-.11.3-.27.31h-.02Z"/>
      </g>
      <g>
        <path class="cls-7" d="M425.12,201.09h-34.48c-2.82,0-5.23-2.03-5.7-4.81l-2.33-13.66c-.6-3.53,2.12-6.75,5.7-6.75h39.13c3.58,0,6.3,3.22,5.7,6.75l-2.33,13.66c-.47,2.78-2.88,4.81-5.7,4.81Z"/>
        <path class="cls-11" d="M425.12,201.35h-34.48c-2.95,0-5.46-2.11-5.95-5.03l-2.33-13.66c-.3-1.76.19-3.54,1.34-4.91s2.83-2.14,4.61-2.14h39.13c1.78,0,3.46.78,4.61,2.14s1.64,3.15,1.34,4.91l-2.33,13.66c-.5,2.91-3,5.03-5.95,5.03ZM388.32,176.13c-1.63,0-3.17.71-4.22,1.96-1.05,1.25-1.5,2.88-1.22,4.49l2.33,13.66c.45,2.66,2.74,4.6,5.45,4.6h34.48c2.7,0,4.99-1.93,5.45-4.6l2.33-13.66c.27-1.61-.17-3.24-1.22-4.49s-2.59-1.96-4.22-1.96h-39.13Z"/>
      </g>
      <path class="cls-11" d="M427.33,185.09h-4.9c-.14,0-.26-.12-.26-.26s.12-.26.26-.26h4.9c.14,0,.26.12.26.26s-.12.26-.26.26Z"/>
      <path class="cls-11" d="M419.77,185.09h-14.35c-.14,0-.26-.12-.26-.26s.12-.26.26-.26h14.35c.14,0,.26.12.26.26s-.12.26-.26.26Z"/>
      <path class="cls-11" d="M399.79,185.09h-11.36c-.14,0-.26-.12-.26-.26s.12-.26.26-.26h11.36c.14,0,.26.12.26.26s-.12.26-.26.26Z"/>
      <path class="cls-11" d="M427.33,192.39h-12.28c-.14,0-.26-.12-.26-.26s.12-.26.26-.26h12.28c.14,0,.26.12.26.26s-.12.26-.26.26Z"/>
      <path class="cls-11" d="M410.74,192.39h-14.76c-.14,0-.26-.12-.26-.26s.12-.26.26-.26h14.76c.14,0,.26.12.26.26s-.12.26-.26.26Z"/>
      <path class="cls-11" d="M392.82,192.39h-4.39c-.14,0-.26-.12-.26-.26s.12-.26.26-.26h4.39c.14,0,.26.12.26.26s-.12.26-.26.26Z"/>
    </g>
    <path class="cls-1" d="M411.17,136.75c0,1.06-.86,1.92-1.92,1.92s-1.92-.86-1.92-1.92.86-1.92,1.92-1.92,1.92.86,1.92,1.92Z"/>
    <path class="cls-11" d="M407.88,281.79c-11.18,0-23.06-1.61-23.06-4.58s11.88-4.58,23.06-4.58,23.06,1.61,23.06,4.58-11.88,4.58-23.06,4.58ZM407.88,273.37c-13.15,0-22.31,2.02-22.31,3.83s9.16,3.83,22.31,3.83,22.31-2.02,22.31-3.83-9.16-3.83-22.31-3.83Z"/>
    <path class="cls-11" d="M407.88,266.61c-20.51,0-42.32-2.08-42.32-5.94s21.8-5.94,42.32-5.94,42.32,2.08,42.32,5.94-21.8,5.94-42.32,5.94ZM407.88,255.47c-24.5,0-41.57,2.74-41.57,5.19s17.07,5.19,41.57,5.19,41.57-2.74,41.57-5.19-17.07-5.19-41.57-5.19Z"/>
    <path class="cls-11" d="M389.89,126.46c0,.57-.46,1.02-1.02,1.02s-1.02-.46-1.02-1.02.46-1.02,1.02-1.02,1.02.46,1.02,1.02Z"/>
    <path class="cls-11" d="M422.89,126.46c0,.57-.46,1.02-1.02,1.02s-1.02-.46-1.02-1.02.46-1.02,1.02-1.02,1.02.46,1.02,1.02Z"/>
  </g>
</svg>