<svg height="512" viewBox="0 0 64 64" width="512" xmlns="http://www.w3.org/2000/svg"><g id="Layer_33" data-name="Layer 33"><path d="m35 43.034v19.966h-30a4 4 0 0 1 -4-4v-15.966a8 8 0 0 1 5.8-7.692l8.2-2.342h6l8.2 2.342a8 8 0 0 1 5.8 7.692z" fill="#62b5e8"/><path d="m4 59v-15.966a8 8 0 0 1 5.8-7.692l8.2-2.342h-3l-8.2 2.342a8 8 0 0 0 -5.8 7.692v15.966a4 4 0 0 0 4 4h3a4 4 0 0 1 -4-4z" fill="#44a7d8"/><path d="m15 28h6v7h-6z" fill="#f7d1c6"/><path d="m17 58h-8a3 3 0 0 1 -3-3v-10a1 1 0 0 1 2 0v10a1 1 0 0 0 1 1h8a1 1 0 0 1 0 2z" fill="#44a7d8"/><path d="m46 1a12 12 0 0 1 12 12v17a8 8 0 0 1 -8 8h-8a8 8 0 0 1 -8-8v-17a12 12 0 0 1 12-12z" fill="#c67a60"/><path d="m37 30v-17a11.994 11.994 0 0 1 10.5-11.9 11.927 11.927 0 0 0 -13.5 11.9v17a8 8 0 0 0 8 8h3a8 8 0 0 1 -8-8z" fill="#b26049"/><path d="m63 43.034v15.966a4 4 0 0 1 -4 4h-30v-19.966a8 8 0 0 1 5.8-7.692l8.2-2.342h6l8.2 2.342a8 8 0 0 1 5.8 7.692z" fill="#f2a7b1"/><path d="m43 28h6a0 0 0 0 1 0 0v5a3 3 0 0 1 -3 3 3 3 0 0 1 -3-3v-5a0 0 0 0 1 0 0z" fill="#f7d1c6"/><path d="m9 11h18a0 0 0 0 1 0 0v11a9 9 0 0 1 -9 9 9 9 0 0 1 -9-9v-11a0 0 0 0 1 0 0z" fill="#f7d1c6"/><path d="m12 22v-11h-3v11a8.951 8.951 0 0 0 10.5 8.865 8.995 8.995 0 0 1 -7.5-8.865z" fill="#f4b19f"/><path d="m26.544 24.818-2.451-1.949a4 4 0 0 0 -2.493-.869h-7.2a4 4 0 0 0 -2.489.869l-2.455 1.949a9 9 0 0 0 17.088 0z" fill="#c67a60"/><path d="m9 15a0 0 0 0 1 0 0v6a0 0 0 0 1 0 0 3 3 0 0 1 -3-3 3 3 0 0 1 3-3z" fill="#f4b19f"/><path d="m19.5 30.87a9.3 9.3 0 0 1 -1.5.13 8.974 8.974 0 0 1 -8.54-6.18l2.45-1.95a.6.6 0 0 1 .13-.09 8.987 8.987 0 0 0 7.46 8.09z" fill="#b26049"/><path d="m30 15a0 0 0 0 1 0 0v6a0 0 0 0 1 0 0 3 3 0 0 1 -3-3 3 3 0 0 1 3-3z" fill="#f7d1c6" transform="matrix(-1 0 0 -1 57 36)"/><path d="m46 31a9 9 0 0 1 -9-9v-7h4a8 8 0 0 0 6.4-3.2l.6-.8.6.8a8 8 0 0 0 6.4 3.2v7a9 9 0 0 1 -9 9z" fill="#f7d1c6"/><path d="m40 22v-7h-3v7a8.951 8.951 0 0 0 10.5 8.865 8.995 8.995 0 0 1 -7.5-8.865z" fill="#f4b19f"/><path d="m37 15a0 0 0 0 1 0 0v6a0 0 0 0 1 0 0 3 3 0 0 1 -3-3 3 3 0 0 1 3-3z" fill="#f4b19f"/><path d="m58 15a0 0 0 0 1 0 0v6a0 0 0 0 1 0 0 3 3 0 0 1 -3-3 3 3 0 0 1 3-3z" fill="#f7d1c6" transform="matrix(-1 0 0 -1 113 36)"/><path d="m24 3.988v-.988a2 2 0 0 0 -2-2h-7.686a8.314 8.314 0 0 0 -8.314 8.314 5.686 5.686 0 0 0 5.686 5.686 18 18 0 0 0 11.244-3.944l.07-.056a4 4 0 0 0 4 4v-9.012a2 2 0 0 0 -2-2z" fill="#c67a60"/><path d="m9 9.314a8.314 8.314 0 0 1 8.314-8.314h-3a8.314 8.314 0 0 0 -8.314 8.314 5.686 5.686 0 0 0 5.686 5.686 17.943 17.943 0 0 0 1.886-.111 5.686 5.686 0 0 1 -4.572-5.575z" fill="#b26049"/><path d="m18 35-3-3-2 2 2 5z" fill="#44a7d8"/><path d="m34 53a8 8 0 0 0 8-8v.034h1a2 2 0 0 0 0-4h-1v-4.034a7.951 7.951 0 0 0 -.807-3.484l-6.393 1.826a8 8 0 0 0 -5.8 7.692v8.206a7.963 7.963 0 0 0 5 1.76z" fill="#e8859b"/><path d="m18 35 3-3 2 2-2 5z" fill="#44a7d8"/><path d="m29 50h6v7h-6z" fill="#f7d1c6"/><path d="m36.969 53.031h-1.969v.969a3 3 0 0 1 -3 3 3 3 0 0 1 -3-3v-.969h-2.031a8 8 0 0 0 -8 8v1.969h26v-1.969a8 8 0 0 0 -8-8z" fill="#f96464"/><path d="m24 37h16a0 0 0 0 1 0 0v8a8 8 0 0 1 -8 8 8 8 0 0 1 -8-8v-8a0 0 0 0 1 0 0z" fill="#f7d1c6"/><path d="m27 45v-8h-3v8a7.985 7.985 0 0 0 9.5 7.855 8 8 0 0 1 -6.5-7.855z" fill="#f4b19f"/><path d="m23 41h1a0 0 0 0 1 0 0v4a0 0 0 0 1 0 0h-1a2 2 0 0 1 -2-2 2 2 0 0 1 2-2z" fill="#f4b19f"/><path d="m42 41.034h1a0 0 0 0 1 0 0v4a0 0 0 0 1 0 0h-1a2 2 0 0 1 -2-2 2 2 0 0 1 2-2z" fill="#f7d1c6" transform="matrix(-1 0 0 -1 83 86.069)"/><path d="m40 41h-4.343a4 4 0 0 1 -2.829-1.172l-.828-.828-.828.828a4 4 0 0 1 -2.829 1.172h-4.343v-4a8 8 0 0 1 8-8 8 8 0 0 1 8 8z" fill="#c67a60"/><path d="m24 60v-2a3 3 0 0 0 -2.357-2.927 7.974 7.974 0 0 0 -2.674 5.958v1.169a2.991 2.991 0 0 0 5.031-2.2z" fill="#d34444"/><path d="m33.5 29.145a7.985 7.985 0 0 0 -9.5 7.855v4h3v-4a8 8 0 0 1 6.5-7.855z" fill="#b26049"/><rect fill="#f7d1c6" height="8" rx="3" width="6" x="16" y="55"/><path d="m18 60v-2a2.99 2.99 0 0 1 2-2.816 2.962 2.962 0 0 0 -1-.184 3 3 0 0 0 -3 3v2a3 3 0 0 0 3 3 2.962 2.962 0 0 0 1-.184 2.99 2.99 0 0 1 -2-2.816z" fill="#f4b19f"/><path d="m57 49.012v5.988a2 2 0 0 1 -2 2h-7.184a2.993 2.993 0 0 0 -5.816 1v2a3 3 0 0 0 3 3h14a4 4 0 0 0 4-4v-9.988z" fill="#f7d1c6"/><path d="m59 55v-5.988h-2v5.988a2 2 0 0 1 -2 2h2a2 2 0 0 0 2-2z" fill="#f4b19f"/><path d="m44 60v-2a2.992 2.992 0 0 1 2.009-2.819 2.959 2.959 0 0 0 -1.009-.181 3 3 0 0 0 -3 3v2a3 3 0 0 0 3 3h2a3 3 0 0 1 -3-3z" fill="#f4b19f"/><path d="m42 18.951v-.951a1 1 0 0 0 -2 0v.951a1 1 0 0 0 2 0z" fill="#c67a60"/><path d="m51 20a1 1 0 0 0 1-1v-1a1 1 0 0 0 -2 0v1a1 1 0 0 0 1 1z" fill="#c67a60"/><path d="m46 28a3.862 3.862 0 0 0 2.707-1.291 1 1 0 0 0 -1.414-1.414 1.536 1.536 0 0 1 -2.586 0 1 1 0 0 0 -1.414 1.414 3.862 3.862 0 0 0 2.707 1.291z" fill="#f96464"/><path d="m28 45.809a1 1 0 0 0 1-1v-.809a1 1 0 0 0 -2 0v.809a1 1 0 0 0 1 1z" fill="#c67a60"/><path d="m36 45.809a1 1 0 0 0 1-1v-.809a1 1 0 0 0 -2 0v.809a1 1 0 0 0 1 1z" fill="#c67a60"/><path d="m29.293 49.707a3.862 3.862 0 0 0 2.707 1.293 3.862 3.862 0 0 0 2.707-1.291 1 1 0 0 0 -1.414-1.414 1.536 1.536 0 0 1 -2.586 0 1 1 0 0 0 -1.414 1.414z" fill="#f96464"/><path d="m13 20a1 1 0 0 0 1-1v-1a1 1 0 0 0 -2 0v1a1 1 0 0 0 1 1z" fill="#c67a60"/><path d="m23 20a1 1 0 0 0 1-1v-1a1 1 0 0 0 -2 0v1a1 1 0 0 0 1 1z" fill="#c67a60"/><path d="m20.707 26.707a1 1 0 0 0 -1.414-1.414 1.536 1.536 0 0 1 -2.586 0 1 1 0 0 0 -1.414 1.414 3.862 3.862 0 0 0 2.707 1.293 3.862 3.862 0 0 0 2.707-1.293z" fill="#f96464"/></g></svg>