<svg id="_x30_3" enable-background="new 0 0 108.9 105" viewBox="0 0 108.9 105" xmlns="http://www.w3.org/2000/svg"><g><g><g><g><ellipse cx="83.1" cy="77.5" fill="#ffb90b" rx="7" ry="10.5"/></g></g><g><path d="m75.1 36c-.5 4.2-1.3 6.8-2.4 8.9-1 1.9-2.2 3.3-3.6 5.1l-31-2s-2.3-2.3-3.8-8c-.9-3.4-1.5-8-1.2-14 0-2 2-3 4-2 1-1.4 2.2-2.7 3.5-3.9 4.1-3.4 9.7-5.2 17-4.1 2.9.5 6.1 1.4 9.4 2.9 7.7 3.8 9 10 8.1 17.1z" fill="#464045"/></g><g><path d="m75.1 36c-.5 4.2-1.3 6.8-2.4 8.9-5.2.1-9.6.1-9.6.1 4.1-15 1.8-23.5-5.4-28.9 2.9.5 6.1 1.4 9.4 2.9 7.6 3.7 8.9 9.9 8 17z" fill="#282628"/></g><g><g><ellipse cx="25.1" cy="77.5" fill="#ffb90b" rx="7" ry="10.5"/></g></g><g><g><path d="m69.3 49c2.3 1.9 4.3-2.9 4.3-5-.7-6.4-5-.7-5-.7z" fill="#f7cf9f"/></g></g><g><g><path d="m38.9 49c-2.3 1.9-4.3-2.9-4.3-5 .7-6.4 5-.7 5-.7z" fill="#f7cf9f"/></g></g><g><g><path d="m54.8 63h-1.9c-7.9 0-14.3-6.4-14.3-14.3v-13.2c0-.3.2-.5.5-.5h29.6c.3 0 .5.2.5.5v13.3c-.1 7.8-6.5 14.2-14.4 14.2z" fill="#fccab1"/></g><g opacity=".6"><path d="m69.1 35.5v13.3c0 7.9-6.4 14.3-14.3 14.3h-1.9c-2.7 0-5.2-.8-7.4-2.1h1.4 1.9c7.9 0 14.3-6.4 14.3-14.3v-11.7h5.6c.2 0 .4.2.4.5z" fill="#ea9e7d"/></g><g><g><ellipse cx="47.6" cy="47" fill="#464045" rx="1.5" ry="2"/></g><g><path d="m50.1 44c-.3 0-.6-.1-.8-.4-.7-1-1.5-1.4-2.2-1.4-1 0-1.8.9-2.1 1.2-.2.4-.5.6-.9.6-.6 0-1-.4-1-1 0-.8 1.5-2.2 2.8-2.6 1-.3 3.1-.5 5 2 .3.4.2 1.1-.2 1.4-.2.1-.4.2-.6.2z" fill="#464045"/></g></g><g><g><ellipse cx="59.6" cy="47" fill="#464045" rx="1.5" ry="2"/></g><g><path d="m63.1 44c-.3 0-.6-.1-.8-.4-.7-1-1.5-1.4-2.2-1.4-1 0-1.8.9-2.1 1.2-.2.4-.5.6-.9.6-.6 0-1-.4-1-1 0-.8 1.5-2.2 2.8-2.6 1-.3 3.1-.5 5 2 .3.4.2 1.1-.2 1.4-.2.1-.4.2-.6.2z" fill="#464045"/></g></g></g><g><path d="m73.1 37c-3.2 1.3-6.2 2.3-8.8 2.9-11.4 2.6-17.8-.7-21.3-4.3-3-3.2-3.9-6.5-3.9-6.5 2-.4 4-.9 5.9-1.2 7.4-1.5 14.2-2.5 19.3-1.9 6.5.5 10.2 3.5 8.8 11z" fill="#464045"/></g><g><path d="m73.1 37c-3.2 1.3-6.2 2.3-8.8 2.9 1.1-5.7 1.1-10.3.1-14.1 6.4.7 10.1 3.7 8.7 11.2z" fill="#282628"/></g><g><g><path d="m51.1 67-25-15.3c2.3-4 6.9-5.6 10.2-3.7l16.5 9.5z" fill="#fbe7ca"/></g><g><path d="m82.8 51.7-4.1 2.5-4 2.4-16.9 10.4-1.7-9.4 14.5-8.4.8-.4 1.3-.8c.9-.5 2-.8 3.1-.8 2.6 0 5.4 1.7 7 4.5z" fill="#fbe7ca"/></g><g opacity=".6"><path d="m82.8 51.7-4.1 2.5c-2.4-4.3-5.4-5.3-7.4-5.4l1.3-.8c.9-.5 2-.8 3.1-.8 2.7 0 5.5 1.7 7.1 4.5z" fill="#e2aa61"/></g><g><path d="m38.8 99.8-13.9-6.4c-.5-.2-.8-.7-.8-1.3v-4.1-.1-11.9-8.9-3.4-5.1-6.3c0-1 1.1-1.7 2-1.2l20.7 11.2 2.7 1.5.5.3v41l-7-3.3z" fill="#ff4200"/></g><g><path d="m58.1 105 25.4-11.7c.4-.2.6-.6.6-1v-40.5c0-.8-.9-1.4-1.6-1l-24.4 13.2z" fill="#ff4200"/></g><g opacity=".6"><path d="m84.1 51.8v40.5c0 .4-.2.8-.6 1l-25.4 11.7v-7.8l19.4-8.9c.4-.2.6-.6.6-1v-34.1l4.4-2.4c.7-.3 1.6.2 1.6 1z" fill="#c62f00"/></g><g><path d="m56.1 57h-4l-2 7h8z" fill="#ccb079"/></g><g><path d="m50.1 64h8v41h-8z" fill="#aa0505"/></g></g><g><ellipse cx="24.6" cy="82" fill="#fccab1" rx="5.5" ry="6"/></g><g><ellipse cx="83.6" cy="82" fill="#fccab1" rx="5.5" ry="6"/></g><g opacity=".6"><path d="m89.1 82c0 3.3-2.5 6-5.5 6-.9 0-1.8-.2-2.5-.7 1.8-1 3-3 3-5.3s-1.2-4.3-3-5.3c.8-.4 1.6-.7 2.5-.7 3.1 0 5.5 2.7 5.5 6z" fill="#ea9e7d"/></g></g><g><g><g><path d="m84.6 18.9c-.2-.5.2-1.1.7-1.2 2.4-.7 3.8-3.2 3.1-5.6-.2-.5.2-1.1.7-1.2.5-.2 1.1.2 1.2.7.7 2.4 3.2 3.8 5.6 3.1.5-.2 1.1.2 1.2.7.2.5-.2 1.1-.7 1.2-2.4.7-3.8 3.2-3.1 5.6.2.5-.2 1.1-.7 1.2-.5.2-1.1-.2-1.2-.7-.7-2.4-3.2-3.8-5.6-3.1-.5.2-1.1-.1-1.2-.7z" fill="#cb4bcf"/></g></g><g><path d="m92.6 19.7c-.1 0-.3 0-.4-.1-.5-.2-.7-.8-.5-1.3.3-.6.7-1.2 1.1-1.7-.9-.3-1.8-.8-2.5-1.4-.2.6-.4 1.1-.7 1.6s-.9.6-1.4.3-.6-.9-.3-1.4c.7-1.1.8-2.4.5-3.6-.2-.5.2-1.1.7-1.2s1.1.2 1.2.7c.7 2.4 3.2 3.8 5.6 3.1.5-.1 1.1.2 1.2.7.2.5-.2 1.1-.7 1.2-1.3.4-2.3 1.3-2.9 2.5-.2.4-.5.6-.9.6z" fill="#7f0a89"/></g></g><g><path d="m95 84.4c-.3 0-.6-.1-.8-.4-.3-.5-.2-1.1.2-1.4 1.8-1.2 2.9-3.1 3.3-5.2s-.1-4.2-1.3-6c-.3-.5-.2-1.1.2-1.4.5-.3 1.1-.2 1.4.2 1.5 2.2 2.1 4.8 1.6 7.5-.5 2.6-1.9 4.9-4.1 6.4-.1.3-.3.3-.5.3z" fill="#0c4e92"/></g><g><path d="m101.2 89c-.3 0-.6-.1-.8-.4-.3-.5-.2-1.1.2-1.4 3.2-2.2 5.3-5.6 6-9.4s-.2-7.7-2.4-10.9c-.3-.5-.2-1.1.2-1.4.5-.3 1.1-.2 1.4.2 2.5 3.6 3.5 8 2.7 12.4s-3.2 8.1-6.8 10.7c-.1.1-.3.2-.5.2z" fill="#0c4e92"/></g><g><g><path d="m13.9 88.4c-.2 0-.4-.1-.6-.2-2.2-1.5-3.7-3.8-4.1-6.4s.1-5.3 1.6-7.5c.3-.5.9-.6 1.4-.2.5.3.6.9.2 1.4-1.2 1.8-1.7 3.9-1.3 6s1.6 3.9 3.3 5.2c.5.3.6.9.2 1.4-.1.2-.4.3-.7.3z" fill="#0c4e92"/></g><g><path d="m7.7 93c-.2 0-.4-.1-.6-.2-3.6-2.5-6.1-6.3-6.8-10.6-.8-4.4.2-8.7 2.7-12.4.3-.5.9-.6 1.4-.2s.6.9.2 1.4c-2.2 3.1-3.1 7-2.4 10.8s2.8 7.2 6 9.4c.5.3.6.9.2 1.4-.1.3-.4.4-.7.4z" fill="#0c4e92"/></g></g><g><g><path d="m14 25.2c-.4 0-.7-.2-.9-.5l-3.6-7.1c-.2-.5-.1-1.1.4-1.3.5-.3 1.1-.1 1.3.4l3.6 7.1c.2.5.1 1.1-.4 1.3-.1.1-.2.1-.4.1z" fill="#0c4e92"/></g><g><path d="m8.6 23.5c-.4 0-.7-.2-.9-.5-.2-.5-.1-1.1.4-1.3l7.1-3.6c.5-.3 1.1-.1 1.3.4s.1 1.1-.4 1.3l-7.1 3.6c-.1 0-.2.1-.4.1z" fill="#0c4e92"/></g></g><g><path d="m38.1 4.9c-.2 1.9-1.9 3.3-3.9 3.1-1.9-.2-3.3-1.9-3.1-3.9s2-3.3 3.9-3.1 3.3 2 3.1 3.9z" fill="#0189ef"/></g><g><path d="m34.6 9c-.2 0-.3 0-.5 0-2.5-.3-4.3-2.5-4-5s2.5-4.2 5-4c2.2.3 3.9 2.1 4 4.3 0 .6-.4 1-1 1s-1-.4-1-1c0-1.2-1-2.3-2.2-2.4-1.4-.2-2.6.8-2.8 2.2-.1 1.5.9 2.7 2.3 2.9h.3c.6 0 1 .4 1 1s-.5 1-1.1 1z" fill="#143ec4"/></g><g><g><path d="m98.6 50.1c-.3 0-.5-.1-.7-.3-.4-.4-.3-1 .1-1.4l6.6-6c.4-.4 1-.4 1.4.1.4.4.3 1-.1 1.4l-6.6 6c-.2.1-.5.2-.7.2z" fill="#0c4e92"/></g><g><path d="m92.1 56c-.3 0-.5-.1-.7-.3-.4-.4-.3-1 .1-1.4l4-3.7c.4-.4 1-.3 1.4.1s.3 1-.1 1.4l-4 3.7c-.2.1-.4.2-.7.2z" fill="#0c4e92"/></g><g><path d="m88.1 53c-.1 0-.2 0-.4-.1-.5-.2-.8-.8-.6-1.3l4-10c.2-.5.8-.8 1.3-.6s.8.8.6 1.3l-4 10c-.1.5-.5.7-.9.7z" fill="#0c4e92"/></g><g><path d="m95.1 61c-.4 0-.8-.2-.9-.6-.2-.5 0-1.1.6-1.3l10-4c.5-.2 1.1 0 1.3.6s0 1.1-.6 1.3l-10 4c-.1 0-.2 0-.4 0z" fill="#0c4e92"/></g></g><g><g><path d="m7.4 52c-.2 0-.4 0-.6-.2l-5.5-5c-.4-.4-.4-1-.1-1.4.4-.4 1-.4 1.4-.1l5.5 5c.4.4.4 1 .1 1.4-.2.2-.5.3-.8.3z" fill="#0c4e92"/></g><g><path d="m15 59c-.2 0-.5-.1-.7-.3l-5-4.6c-.4-.4-.4-1-.1-1.4.4-.4 1-.4 1.4-.1l5 4.6c.4.4.4 1 .1 1.4-.2.3-.4.4-.7.4z" fill="#0c4e92"/></g><g><path d="m19 56c-.4 0-.8-.2-.9-.6l-4-10c-.2-.5 0-1.1.6-1.3.5-.2 1.1 0 1.3.6l4 10c.2.5 0 1.1-.6 1.3-.2 0-.3 0-.4 0z" fill="#0c4e92"/></g><g><path d="m12 64c-.1 0-.2 0-.4-.1l-10-4c-.5-.2-.8-.8-.6-1.3s.8-.8 1.3-.6l10 4c.5.2.8.8.6 1.3-.1.5-.5.7-.9.7z" fill="#0c4e92"/></g></g><g><g><path d="m69 4.3c1.9 0 1.9-3 0-3s-1.9 3 0 3z" fill="#0c4e92"/></g></g></g></svg>