<svg id="Capa_1" enable-background="new 0 0 512 512" height="512" viewBox="0 0 512 512" width="512" xmlns="http://www.w3.org/2000/svg"><g><g><g><g><path d="m425.969 93.53c-1.919 0-3.839-.732-5.303-2.196-2.929-2.93-2.929-7.678 0-10.607l78.531-78.53c2.929-2.928 7.678-2.928 10.606 0 2.929 2.93 2.929 7.678 0 10.607l-78.531 78.53c-1.464 1.464-3.384 2.196-5.303 2.196z" fill="#c2eef2"/></g><g><g><path d="m337.58 181.24c-1.919 0-3.839-.732-5.303-2.196-2.929-2.93-2.929-7.678 0-10.607l61.468-60.787c2.929-2.928 7.678-2.928 10.606 0 2.929 2.93 2.929 7.678 0 10.607l-61.468 60.787c-1.464 1.463-3.384 2.196-5.303 2.196z" fill="#dcf5f8"/></g></g><g><path d="m509.803 499.196-61.44-61.44-127.365-127.365c-2.929-2.928-7.678-2.928-10.606 0-2.929 2.93-2.929 7.678 0 10.607l127.366 127.365 61.44 61.44c1.464 1.464 3.384 2.196 5.303 2.196s3.839-.732 5.303-2.196c2.929-2.929 2.929-7.677-.001-10.607z" fill="#dcf5f8"/></g><path d="m201.606 310.395c-2.929-2.928-7.678-2.928-10.606 0l-125.613 125.612-63.19 63.189c-2.929 2.93-2.929 7.678 0 10.607 1.464 1.465 3.384 2.197 5.303 2.197s3.839-.732 5.303-2.196l63.19-63.189 125.612-125.612c2.93-2.931 2.93-7.679.001-10.608z" fill="#c2eef2"/><g><g><path d="m180.816 187.641c-1.919 0-3.839-.732-5.303-2.196l-173.316-172.641c-2.929-2.93-2.929-7.678 0-10.607 2.929-2.928 7.678-2.928 10.606 0l173.317 172.641c2.929 2.93 2.929 7.678 0 10.607-1.465 1.464-3.384 2.196-5.304 2.196z" fill="#dcf5f8"/></g></g><g><path d="m434.31 263.5h-75.377c-4.142 0-7.5-3.357-7.5-7.5s3.358-7.5 7.5-7.5h75.377c4.142 0 7.5 3.357 7.5 7.5s-3.358 7.5-7.5 7.5z" fill="#c2eef2"/></g><g><g><path d="m153.066 263.5h-75.376c-4.142 0-7.5-3.357-7.5-7.5s3.358-7.5 7.5-7.5h75.375c4.142 0 7.5 3.357 7.5 7.5s-3.357 7.5-7.499 7.5z" fill="#dcf5f8"/></g></g><g><g><path d="m256 133.833c-4.142 0-7.5-3.357-7.5-7.5v-118.833c0-4.143 3.358-7.5 7.5-7.5s7.5 3.357 7.5 7.5v118.833c0 4.143-3.358 7.5-7.5 7.5z" fill="#dcf5f8"/></g></g><g><g><path d="m301.696 150.667c-.944 0-1.903-.18-2.832-.558-3.835-1.565-5.675-5.943-4.11-9.778l38.71-93.981c1.565-3.836 5.941-5.674 9.778-4.11 3.835 1.565 5.675 5.943 4.11 9.778l-38.71 93.981c-1.187 2.907-3.989 4.668-6.946 4.668z" fill="#c2eef2"/></g><g><path d="m457.649 346.356c-.944 0-1.903-.18-2.832-.558l-138.992-57.646c-3.835-1.565-5.675-5.943-4.11-9.778 1.565-3.836 5.943-5.673 9.778-4.11l138.992 57.646c3.835 1.565 5.675 5.943 4.11 9.778-1.187 2.907-3.989 4.668-6.946 4.668z" fill="#c2eef2"/></g><g><path d="m123.244 209.321c-.944 0-1.903-.18-2.832-.558l-52.557-21.45c-3.835-1.565-5.675-5.943-4.11-9.778 1.565-3.837 5.943-5.674 9.778-4.11l52.557 21.45c3.835 1.565 5.675 5.943 4.11 9.778-1.186 2.908-3.989 4.668-6.946 4.668z" fill="#c2eef2"/></g></g><g><g><path d="m350.898 223.615c-2.929 0-5.711-1.727-6.917-4.596-1.605-3.818.189-8.216 4.008-9.82l89.618-37.668c3.818-1.603 8.215.19 9.82 4.008s-.189 8.216-4.008 9.82l-89.618 37.668c-.949.399-1.934.588-2.903.588z" fill="#dcf5f8"/></g></g><g><g><path d="m54.316 348.265c-2.929 0-5.711-1.727-6.917-4.596-1.605-3.818.189-8.215 4.008-9.82l147.192-61.863c3.819-1.604 8.215.19 9.82 4.008s-.189 8.215-4.008 9.82l-147.192 61.863c-.949.398-1.934.588-2.903.588z" fill="#dcf5f8"/></g></g><g><path d="m210.72 153.754c-2.929 0-5.711-1.727-6.917-4.596l-32.272-74.765c-1.605-3.818.189-8.215 4.008-9.82 3.82-1.603 8.215.19 9.82 4.008l32.272 74.765c1.605 3.818-.189 8.215-4.008 9.82-.949.399-1.934.588-2.903.588z" fill="#c2eef2"/></g></g></g><path d="m220.806 321.21h70.387v64.41h-70.387z" fill="#ffcebf"/><path d="m261.19 321.21h30v64.41h-30z" fill="#ffb09e"/><path d="m350.894 165.303v58.027l-189.79.012v-58.04c0-21.515 17.528-38.969 39.133-38.969h111.524c21.605 0 39.133 17.455 39.133 38.97z" fill="#918291"/><path d="m350.89 165.3v58.03h-30v-58.03c0-21.51-17.52-38.97-39.13-38.97h30c21.61 0 39.13 17.46 39.13 38.97z" fill="#7a6d79"/><path d="m350.894 273.426h-20.81l-10-50.081h30.81c4.44 0 8.039 3.599 8.039 8.039v34.003c0 4.44-3.599 8.039-8.039 8.039z" fill="#ffb09e"/><path d="m161.104 273.426h20.81l10-50.081h-30.81c-4.44 0-8.039 3.599-8.039 8.039v34.003c0 4.44 3.599 8.039 8.039 8.039z" fill="#ffb09e"/><path d="m320.89 223.333 1.936 57.161c0 27.77-32.886 50.283-73.026 50.283h-17.603c-27.77 0-50.283-22.512-50.283-50.283v-57.151l26.839-25.824c3.5-2.096 7.51-3.202 11.597-3.202h41.309c4.087 0 21.077 1.106 24.587 3.202z" fill="#ffdfcf"/><path d="m330.08 223.33v57.17c0 27.769-22.511 50.28-50.28 50.28h-30c27.77 0 50.28-22.52 50.28-50.29v-49.705c0-4.763-1.939-9.321-5.371-12.624l-21.449-20.641c-3.51-2.1-7.52-3.2-11.6-3.2h30c4.08 0 8.09 1.1 11.6 3.2z" fill="#ffcebf"/><path d="m100.74 378.12 10.377 31.595-10.377 31.595h-41.92c-28.34 0-51.32-22.98-51.32-51.32v-154.16c0-6.9 5.59-12.49 12.48-12.49h45.22c6.9 0 12.49 5.59 12.49 12.49v42.44c0 4.17-1.22 8.25-3.5 11.74-1.15 1.75-2.02 3.64-2.61 5.61-.59 1.98-.89 4.04-.89 6.13v65.64c0 5.93 4.8 10.73 10.73 10.73z" fill="#ffdfcf"/><path d="m81.42 378.12h-30c-5.93 0-10.73-4.8-10.73-10.73v-65.64c0-2.09.3-4.15.89-6.13.59-1.97 1.46-3.86 2.61-5.61 2.28-3.49 3.5-7.57 3.5-11.74v-42.44c0-6.9-5.59-12.49-12.49-12.49h30c6.9 0 12.49 5.59 12.49 12.49v42.44c0 4.17-1.22 8.25-3.5 11.74-1.15 1.75-2.02 3.64-2.61 5.61-.59 1.98-.89 4.04-.89 6.13v65.64c0 5.93 4.8 10.73 10.73 10.73z" fill="#ffcebf"/><path d="m504.5 235.83v154.16c0 28.34-22.98 51.32-51.32 51.32h-41.92l-16.536-31.595 16.536-31.595h19.32c5.93 0 10.73-4.8 10.73-10.73v-65.64c0-2.09-.31-4.15-.89-6.13-.6-1.97-1.47-3.86-2.61-5.61-2.28-3.49-3.5-7.57-3.5-11.74v-42.44c0-6.9 5.59-12.49 12.49-12.49h45.21c6.9 0 12.49 5.59 12.49 12.49z" fill="#ffdfcf"/><path d="m504.5 235.83v154.16c0 28.34-22.98 51.32-51.32 51.32h-30c28.34 0 51.32-22.98 51.32-51.32v-154.16c0-6.9-5.59-12.49-12.49-12.49h30c6.9 0 12.49 5.59 12.49 12.49z" fill="#ffcebf"/><path d="m141.49 378.12 23.601 63.19h-64.351v-63.19z" fill="#fee97d"/><g><path d="m41.34 260.91c0 2.76 2.25 5.02 5.02 5.02 4.14 0 7.5 3.35 7.5 7.5 0 4.14-3.36 7.5-7.5 7.5-11.04 0-20.02-8.99-20.02-20.02 0-11.04 8.98-20.02 20.02-20.02h31.33v15h-31.33c-2.77 0-5.02 2.25-5.02 5.02z" fill="#ffb09e"/></g><g><path d="m485.66 260.91c0 11.03-8.98 20.02-20.02 20.02-4.14 0-7.5-3.36-7.5-7.5 0-4.15 3.36-7.5 7.5-7.5 2.77 0 5.02-2.26 5.02-5.02 0-2.77-2.25-5.02-5.02-5.02h-31.33v-15h31.33c11.04 0 20.02 8.98 20.02 20.02z" fill="#ffb09e"/></g><g><path d="m256 273.443c-4.142 0-7.5-3.357-7.5-7.5v-17.558c0-4.143 3.358-7.5 7.5-7.5s7.5 3.357 7.5 7.5v17.558c0 4.143-3.358 7.5-7.5 7.5z" fill="#ffb09e"/></g><path d="m411.26 378.12v63.19h-55.186l14.436-63.19z" fill="#fee97d"/><path d="m354.96 504.5h-197.921c-8.588 0-15.549-6.962-15.549-15.549v-110.83h229.019v110.83c0 8.588-6.962 15.549-15.549 15.549z" fill="#fee97d"/><path d="m370.51 378.12v110.83c0 8.59-6.96 15.55-15.55 15.55h-30c8.59 0 15.55-6.96 15.55-15.55v-110.83z" fill="#fedf30"/><g fill="#7a6d79"><path d="m222.06 233.724c-4.142 0-7.5 3.357-7.5 7.5v6.812c0 4.143 3.358 7.5 7.5 7.5s7.5-3.357 7.5-7.5v-6.812c0-4.143-3.358-7.5-7.5-7.5z"/><path d="m289.94 233.724c-4.142 0-7.5 3.357-7.5 7.5v6.812c0 4.143 3.358 7.5 7.5 7.5s7.5-3.357 7.5-7.5v-6.812c0-4.143-3.358-7.5-7.5-7.5z"/></g></g></svg>