<svg width="48" height="48" viewBox="0 0 48 48" fill="none" xmlns="http://www.w3.org/2000/svg">
<mask id="mask0_295_86" style="mask-type:alpha" maskUnits="userSpaceOnUse" x="0" y="0" width="48" height="48">
<rect width="48" height="48" fill="#D9D9D9"/>
</mask>
<g mask="url(#mask0_295_86)">
<path d="M9.99988 42C8.29988 42 7.09155 41.2417 6.37488 39.725C5.65821 38.2083 5.83321 36.8 6.89988 35.5L17.9999 22V10H15.9999C15.4332 10 14.9582 9.80833 14.5749 9.425C14.1915 9.04167 13.9999 8.56667 13.9999 8C13.9999 7.43333 14.1915 6.95833 14.5749 6.575C14.9582 6.19167 15.4332 6 15.9999 6H31.9999C32.5665 6 33.0415 6.19167 33.4249 6.575C33.8082 6.95833 33.9999 7.43333 33.9999 8C33.9999 8.56667 33.8082 9.04167 33.4249 9.425C33.0415 9.80833 32.5665 10 31.9999 10H29.9999V22L41.0999 35.5C42.1665 36.8 42.3415 38.2083 41.6249 39.725C40.9082 41.2417 39.6999 42 37.9999 42H9.99988ZM13.9999 36H33.9999L27.1999 28H20.7999L13.9999 36ZM9.99988 38H37.9999L25.9999 23.4V10H21.9999V23.4L9.99988 38Z" fill="#1F4298"/>
</g>
</svg>
