<?xml version="1.0" encoding="UTF-8"?>
<svg id="_레이어_2" data-name="레이어 2" xmlns="http://www.w3.org/2000/svg" viewBox="0 0 631.29 409.12">
  <defs>
    <style>
      .cls-1 {
        fill: #a24e3f;
      }

      .cls-1, .cls-2, .cls-3, .cls-4, .cls-5, .cls-6, .cls-7, .cls-8, .cls-9, .cls-10, .cls-11, .cls-12, .cls-13, .cls-14, .cls-15, .cls-16, .cls-17, .cls-18, .cls-19, .cls-20, .cls-21 {
        stroke-width: 0px;
      }

      .cls-2 {
        fill: #263238;
      }

      .cls-3, .cls-13, .cls-14, .cls-20, .cls-21 {
        fill: #000;
      }

      .cls-22, .cls-18 {
        opacity: .5;
      }

      .cls-4 {
        fill: #d4827d;
      }

      .cls-5, .cls-7, .cls-8, .cls-15, .cls-17, .cls-18 {
        fill: #fff;
      }

      .cls-5, .cls-23, .cls-20 {
        opacity: .3;
      }

      .cls-24 {
        stroke-width: .75px;
      }

      .cls-24, .cls-25, .cls-26, .cls-27 {
        fill: none;
        stroke-linecap: round;
        stroke-linejoin: round;
      }

      .cls-24, .cls-26 {
        stroke: #263238;
      }

      .cls-25 {
        stroke: #407bff;
      }

      .cls-25, .cls-26, .cls-27 {
        stroke-width: .5px;
      }

      .cls-6 {
        fill: #e9b376;
      }

      .cls-7 {
        opacity: .7;
      }

      .cls-8 {
        opacity: .8;
      }

      .cls-8, .cls-28, .cls-13 {
        isolation: isolate;
      }

      .cls-9 {
        fill: #dc5753;
      }

      .cls-10 {
        fill: #f5f5f5;
      }

      .cls-29, .cls-14 {
        opacity: .4;
      }

      .cls-28, .cls-13, .cls-27, .cls-21 {
        opacity: .2;
      }

      .cls-11 {
        fill: #407bff;
      }

      .cls-12 {
        fill: #eec1bb;
      }

      .cls-15 {
        opacity: .9;
      }

      .cls-16 {
        fill: #d58745;
      }

      .cls-27 {
        stroke: #000;
      }

      .cls-19 {
        fill: #b97964;
      }
    </style>
  </defs>
  <g id="Background_simple" data-name="Background simple">
    <g>
      <path class="cls-11" d="M206.42,3.65c-32.3,2.96-63.45,9.27-91.08,19.17-32.56,11.66-65.83,29.84-56,53.6,18.14,43.88,105.17,44.68,87.79,74.18-19.68,33.42-6.48,72.62,81.83,83.52,167.75,20.71,370.53-100.45,313.57-167.02C507.08,25.67,377.94-12.09,206.42,3.65Z"/>
      <path class="cls-15" d="M206.42,3.65c-32.3,2.96-63.45,9.27-91.08,19.17-32.56,11.66-65.83,29.84-56,53.6,18.14,43.88,105.17,44.68,87.79,74.18-19.68,33.42-6.48,72.62,81.83,83.52,167.75,20.71,370.53-100.45,313.57-167.02C507.08,25.67,377.94-12.09,206.42,3.65Z"/>
    </g>
  </g>
  <g id="Shadow">
    <path class="cls-10" d="M631.29,390.09c0,3.39-141.26,6.13-315.51,6.13S.26,393.48.26,390.09s141.26-6.13,315.51-6.13,315.51,2.75,315.51,6.13Z"/>
  </g>
  <g id="Plant">
    <g>
      <g>
        <path class="cls-11" d="M47.85,215.86c-18.24,21.33-23.56,52.91-13.33,79.04,11.37-10.14,19.37-25.61,19.88-39.13.51-13.52-3.03-26.84-6.54-39.91Z"/>
        <path class="cls-11" d="M44.67,297.36c-6.19,9.48-9.15,21.03-8.29,32.32,9.86-3.43,18.55-14.57,23.76-23.61,5.21-9.05,8.12-19.2,10.77-29.3-10.68,3.76-20.06,11.12-26.24,20.6Z"/>
        <path class="cls-2" d="M42.4,253.11c-7.33,26.33-11.06,53.64-11.04,80.96,0,7.77.32,15.55.93,23.3.04.48.79.48.75,0-2.14-27.26-.55-54.78,4.74-81.61,1.49-7.55,3.28-15.04,5.34-22.45.13-.47-.59-.66-.72-.2h0Z"/>
        <path class="cls-2" d="M32.5,338.59c7.48-17.82,17.32-34.51,28.7-50.11.28-.39-.37-.77-.65-.38-8.9,12.21-16.9,25.09-23.52,38.68-1.86,3.82-3.6,7.69-5.25,11.6-.19.44.54.64.72.2h0Z"/>
        <path class="cls-11" d="M21.88,312.13c5.16,7.91,7.63,17.53,6.91,26.95-8.22-2.86-15.47-12.15-19.81-19.69-4.34-7.54-6.77-16.01-8.98-24.43,8.9,3.13,16.72,9.27,21.88,17.18Z"/>
        <path class="cls-2" d="M32.27,345.32c-6.14-14.61-14.25-28.14-23.57-40.93-.28-.39-.93-.01-.65.38,9.28,12.73,17.39,26.21,23.5,40.75.18.44.91.25.72-.2h0Z"/>
        <path class="cls-2" d="M32.56,350.17c11.6-11.93,23.44-23.63,35.04-35.56.34-.35-.19-.88-.53-.53-11.6,11.93-23.44,23.63-35.04,35.56-.34.35.19.88.53.53h0Z"/>
        <path class="cls-11" d="M68.04,309.12c-10.06,9.71-19.23,20.34-27.35,31.72h1.84c7.66-.36,15.1-4.14,19.9-10.11,4.81-5.98,6.9-14.05,5.61-21.61Z"/>
        <g>
          <path class="cls-2" d="M20.4,285.97c4.32,7.07,8.39,14.28,12.21,21.64.22.43.87.05.65-.38-3.81-7.35-7.89-14.57-12.21-21.64-.25-.41-.9-.03-.65.38h0Z"/>
          <path class="cls-11" d="M9.98,250.29c-1.65,7.41-3.28,17.05-3.3,24.77-.02,7.72,2.34,15.25,6.72,20.42s13.24,7.44,16.81,4.48l-20.24-49.67Z"/>
        </g>
      </g>
      <rect class="cls-2" x="9.76" y="353.61" width="43.96" height="8.15"/>
      <polygon class="cls-2" points="46.6 390.79 19.3 390.79 14.34 359.89 50.52 359.89 46.6 390.79"/>
      <polygon class="cls-21" points="14.66 361.91 50.26 361.91 49.82 365.41 15.22 365.41 14.66 361.91"/>
    </g>
  </g>
  <g id="Speech_Bubble_2" data-name="Speech Bubble 2">
    <g>
      <g>
        <path class="cls-11" d="M565.95,177.53c11.11-6.35,25.26-2.5,31.61,8.61,6.35,11.11,2.5,25.26-8.61,31.61-8.57,4.9-18.95,3.7-26.16-2.2l-6.87,1.08,1.63-7.17c-.07-.11-.14-.21-.21-.32-6.35-11.11-2.5-25.26,8.61-31.61Z"/>
        <path class="cls-25" d="M570.07,172.39c-7.4,1.42-13.91,6.81-16.68,13.81"/>
        <path class="cls-25" d="M552.22,189.46c-.5,1.03-.79,2.17-.83,3.32"/>
      </g>
      <polygon class="cls-17" points="574.73 206.39 564.95 197.47 568.07 194.06 574.63 200.04 585.52 189.4 588.75 192.71 574.73 206.39"/>
    </g>
  </g>
  <g id="Speech_Bubble_1" data-name="Speech Bubble 1">
    <g>
      <g>
        <path class="cls-11" d="M327.35,29.61c11.67-6.78,26.62-2.82,33.4,8.85s2.82,26.62-8.85,33.4c-9.01,5.23-19.96,4.04-27.61-2.13l-7.24,1.19,1.67-7.57c-.07-.12-.15-.22-.22-.34-6.78-11.67-2.82-26.62,8.85-33.4Z"/>
        <path class="cls-25" d="M360.8,32.83c-4.75-6.37-12.85-10.08-20.78-9.51"/>
        <path class="cls-25" d="M336.4,23.72c-1.21,0-2.42.25-3.53.73"/>
      </g>
      <g>
        <rect class="cls-17" x="327.4" y="47.22" width="22.83" height="5.71"/>
        <polygon class="cls-17" points="348.11 56.04 348.11 44.51 353.74 50.27 348.11 56.04"/>
      </g>
    </g>
  </g>
  <g id="Character_3" data-name="Character 3">
    <g>
      <g>
        <path class="cls-12" d="M476.85,174.75s-.61,10.47-5.72,28.83c-3.21,11.34-7.1,22.48-11.66,33.35-2.55,6.14-5.48,12.66-8.84,19.52-1.51,3.12-3.13,6.29-4.83,9.54-1.96,55.55-33.13,112.02-33.13,112.02-1.73.89-7.76-.08-7.72-1.84,4.62-7.33,13.7-78.51,19.56-112.27.36-4.59.89-9.45,1.54-14.59,1.71-13.63,4.25-28.45,6.75-41.49,3.87-20.54,7.56-36.64,7.56-36.64l10.27,1,26.24,2.58Z"/>
        <path class="cls-2" d="M412.33,389.98h-1.75l-.5-2.21-5.94,2.7h-15.05s-2.39-2.4,4.76-4.31c.35-.1.69-.23,1.01-.39,3.82-1.8,9.24-7.84,9.24-7.84h8.25c.25.38.48.78.67,1.2.9,1.78,2.46,5.64-.7,10.85Z"/>
        <path class="cls-12" d="M413.03,379.11h0c-1.08-1.21-6.03,4.12-9.66,5.94-3.24,1.61-6.88,2.32-8.5.69,3.82-1.8,10.62-10.19,10.62-10.19l5.83.59s1.34,2.2,1.71,2.98Z"/>
      </g>
      <g>
        <path class="cls-12" d="M489.11,251.65h0c-.83,5.97-1.89,12.37-3.2,19.18,11.13,37.15-11.77,109.67-11.77,109.67-3.87.77-7.3.27-9.04-1.04,4.32-21.85,1.21-78.66-2.15-112.6-.3-3.08-.67-6.46-1.08-10.08-.69-6.13-1.51-12.88-2.39-19.85-1.48-11.67-3.14-23.96-4.64-34.85-1.84-13.16-3.43-24.29-4.25-29.89-.34-2.46-.54-3.85-.54-3.85l32.15,3.48s8.18,9.16,9.45,37.79c.42,14.06-.43,28.13-2.54,42.04Z"/>
        <path class="cls-2" d="M474.94,389.98h-1.8l-.5-2.21-5.92,2.7h-15.03s-2.39-2.4,4.78-4.31c.35-.1.69-.23,1.01-.39,3.81-1.8,9.24-7.84,9.24-7.84h8.25c.25.39.47.79.67,1.2.9,1.78,2.42,5.64-.7,10.85Z"/>
        <path class="cls-12" d="M475.64,379.11h0c-1.09-1.21-6.05,4.12-9.68,5.94-3.24,1.61-6.88,2.32-8.49.69,3.81-1.8,9.81-9.61,9.81-9.61h6.63s1.34,2.2,1.73,2.98Z"/>
      </g>
      <g>
        <path class="cls-2" d="M497.55,94.02c-1.65-1.43-4.32-.88-6.59-1.15-3.45-.41-6.22-2.89-7.71-5.72-1.48-2.82-1.91-5.99-2.44-9.07-.53-3.09-1.21-6.25-3.1-8.87s-6.45-5.87-9.76-3.88l-4.43,6.87c2.66,8.05,4.83,16.23,6.48,24.5.74,3.69,1.47,7.6,4.15,10.47,2.62,2.82,6.78,4.19,10.86,4.45,2.07.13,4.21,0,6.09-.77,1.89-.77,3.5-2.25,3.92-4.07s-.59-3.93-2.51-4.63c1.85-.78,3.78-1.62,5.02-3.09,1.24-1.47,1.5-3.77.03-5.05Z"/>
        <g>
          <path class="cls-2" d="M434.04,59.83c-5.07,4.9-5.71,10.74-4.9,14.74,1.7,5.28,4.28,8.77,6.7,13.77l8.58-34.3c-3.23,1.28-4.87.86-10.38,5.79Z"/>
          <path class="cls-2" d="M449.32,53.83c9.89.2,19.83,8.47,20.6,16.5.78,8.03-7.12,18.39-8.6,19.02l-4.69,1.72s5.17-11.95,3.02-15.15-3.7-3.23-3.7-3.23l-6.64-18.87Z"/>
          <path class="cls-2" d="M440.92,55.73c5.15-3.64,11.23-1.56,14.83,0,4.06,2.35,6.93,6.32,7.88,10.91.79,4.32,1.74,9.55-.47,12.27-1.23,1.57-3.06,2.55-5.05,2.7l-24.93-15.81c1.68-3.96,4.34-7.43,7.73-10.08Z"/>
          <g>
            <path class="cls-12" d="M450.98,114.18c1.95,1.39,3.34.56,5.37-.74,12.18-7.06,7.17-12.65,7.17-12.65-3-2.45-3.74-5.9-3.8-11.35-.01-.16-.03-.31-.06-.47-.14-.7-.49-1.35-1.01-1.85-1.38-1.39-3.63-1.41-5.02-.03,0,0,0,0,0,0l-5.53,2.73h0c0,.08,0,.17,0,.26.51,2.9,1,5.13,1.3,6.9,0,.22.08.44.1.65h0c0,.22.05.45.09.66.3,2.45-3.15,6.75-4.66,7.89-.91.76-.56,3.31,6.05,8Z"/>
            <path class="cls-13" d="M448.1,89.75h0c.01.09.01.18,0,.27.51,2.9,1,5.13,1.3,6.9.05.21.08.43.1.65h0c.03.23.04.46.04.69h0c4.21-2.01,7.71-5.27,10.02-9.33h0c-.13-.69-.46-1.34-.95-1.84-1.37-1.41-3.61-1.45-5.02-.09l-5.48,2.76Z"/>
            <path class="cls-12" d="M460.47,68.47c1.59,10.02,2.49,14.21-1.27,20.49-5.66,9.44-18,9.44-22.54.15-4.01-8.38-5.99-23.31,2.58-29.61,8.57-6.29,19.62-1.07,21.22,8.96Z"/>
            <path class="cls-12" d="M466.45,76.21c-.62,2.34-2.17,4.12-3.78,5.03-2.43,1.36-4.92-2.47-4.73-5.33.16-2.57,2.31-4.82,4.99-5,2.64-.17,4.24,2.63,3.53,5.3Z"/>
            <path class="cls-27" d="M460.79,77.18c-.19-.95.01-1.97.55-2.78.54-.81,1.4-1.39,2.35-1.58"/>
            <g>
              <g>
                <path class="cls-2" d="M448.26,75.14c.23,1.06-.1,2.07-.74,2.25-.64.19-1.36-.51-1.59-1.57-.23-1.06.1-2.07.74-2.25.64-.19,1.36.51,1.59,1.57Z"/>
                <path class="cls-2" d="M438.53,77.74c.22,1.02-.11,2.01-.76,2.2-.64.19-1.35-.49-1.57-1.51-.22-1.02.11-2.01.76-2.2.64-.19,1.35.49,1.57,1.51Z"/>
                <path class="cls-2" d="M449.33,70.95c-.12.05-.26.05-.38-.02-1.9-1-3.48-.04-3.49-.03-.23.14-.53.07-.66-.17-.13-.24-.04-.56.2-.7.08-.05,2.06-1.25,4.42-.02.23.12.32.43.19.69-.06.12-.16.21-.28.26Z"/>
                <path class="cls-2" d="M433.92,73.68c-.11,0-.21-.06-.28-.15-.15-.2-.12-.51.07-.7,1.91-1.88,3.84-1.37,3.92-1.34.23.06.35.33.28.6-.08.27-.33.43-.56.37-.08-.02-1.58-.39-3.1,1.1-.1.1-.22.14-.33.13Z"/>
                <path class="cls-4" d="M441.04,76.54s-.54,4.11-1.66,6.88c-.2.48.15,1.02.67,1.07,1.34.12,2.65-.67,2.65-.67l-1.67-7.27Z"/>
              </g>
              <path class="cls-2" d="M447.05,73.51l-2.41.08s1.69,1.35,2.41-.08Z"/>
              <path class="cls-2" d="M437.2,76.19l-2.41.08s1.69,1.35,2.41-.08Z"/>
            </g>
          </g>
          <path class="cls-2" d="M457.46,71.54s-6.89-5.47-8.08-11.01c0,0-21.22-.81-16.13,16.45,0,0-7.18-14.42,9.03-19.94s23.61,15.61,17.44,24.57c-.04-.07,2.01-6.64-2.26-10.07Z"/>
          <path class="cls-2" d="M435.1,60.59c-1.81,2.5-2.77,5.52-2.76,8.61.4,2.17,3.64,3.2,3.64,3.2l2.75-5.39.76,4.16c5.79-1.73,8.64-5.49,9.84-10.38l-4.37-5.28s-8.2,3.03-9.85,5.09Z"/>
        </g>
        <path class="cls-26" d="M446.85,85.61c.66.11,1.37-.12,1.86-.59.48-.47.72-1.17.63-1.84"/>
        <path class="cls-13" d="M466.62,82.36s7.48-9.28,1.62-17.18c0,0,4.31,2.97,3.49,8.09-.64,4.02-2.4,7.28-5.12,9.09Z"/>
      </g>
      <path class="cls-13" d="M489.11,251.65h0c-8.8,2.97-17.96,4.7-27.24,5.13-.69-6.13-1.51-12.88-2.39-19.85-2.55,6.14-5.48,12.66-8.84,19.52-8.58-.78-16.93-3.2-24.59-7.13,1.71-13.63,4.25-28.45,6.75-41.49,3.41-2,7.09-3.49,10.93-4.41,3.65-.88,7.39-1.33,11.15-1.35,5.47-.03,10.93.48,16.3,1.5,6.98,1.31,13.8,3.33,20.37,6.05.45,14.06-.37,28.13-2.44,42.04Z"/>
      <path class="cls-2" d="M439.72,168.34h42.69l1.16,5.51s15.68,21.7,7.73,75.82c0,0-34.35,3.97-66.7-2.97,0,0,7.26-55.6,14.85-73.76l.27-4.6Z"/>
      <g>
        <path class="cls-11" d="M480.26,151.55l3.04,22.7-46.8-1.89c-.12-4.88,4.23-17.82,3.72-21.36-1.42-4.37-8.61-10.97-10.52-16.25-2.04-7.33,2.17-27.5,3.55-28.14,1.67-.77,3.74-.7,5.02-1.27,4.97-1.17,16.27-5.21,21.33-5.83.98-.09,1.95-.27,2.92-.38,0,0,19.15-.92,19.99,6.87.08.43-4.56,20.87-2.25,45.55Z"/>
        <polygon class="cls-13" points="479.89 146.74 479.51 140.52 472.41 121.21 477.97 143.95 460.36 150.11 479.89 146.74"/>
        <path class="cls-13" d="M459.51,167c.63-.08,6.18-6.12,6.18-6.12l15.9.6-.77-5.75c.47-.37-18.57.5-18.57.5l-2.74,5.93v4.84Z"/>
        <path class="cls-11" d="M475.28,100.94c.82.1,4.15-1.78,10.16,5.93,6.01,7.72,12.74,37.14,13.12,41.43.48,5.45-3.15,8.14-6.77,8.74-10.87,1.79-30.93,2.16-30.93,2.16v-9.24l20.01-4.53s-11.36-27.34-9.57-34.39c1.79-7.04,3.97-10.1,3.97-10.1Z"/>
      </g>
      <path class="cls-12" d="M466.28,99.11c-1.45,7.86-7.32,14.02-15.06,16.01-2.71.65-5.75-.85-7.89-2.63-2.17-1.81-3.62-4.35-4.08-7.14,9.42-3.71,17.95-6.9,27.02-6.24Z"/>
      <path class="cls-13" d="M480.88,145.43s3.25-.18,4.63,1.59c0,0-.83-3.4-5.08-2.68l.45,1.1Z"/>
    </g>
    <g>
      <path class="cls-11" d="M454.4,204.72v-103.04h-102.89v41.17c1.86.71,7.96,1.18,9.81.48,3.25-1.21,1.13-4.95,4.26-6.43,4.63-2.18,10.39.89,12.81,5.39,1.88,3.49,2.23,5.32,2.06,8.34.17,3.02-.18,4.85-2.06,8.34-2.42,4.5-8.19,7.57-12.81,5.39-3.14-1.48-.59-5.13-3.83-6.34-1.85-.69-8.38-.32-10.24.39v46.29h46.01c.05,1-.06,2.01-.41,2.96-1.21,3.25-4.66,5.18-6.14,8.32-2.18,4.63.89,10.39,5.39,12.81,3.49,1.88,5.32,2.23,8.34,2.06,3.02.17,4.85-.18,8.34-2.06,4.5-2.42,7.57-8.19,5.39-12.81-1.48-3.14-4.93-5.07-6.14-8.32-.36-.95-.47-1.96-.41-2.96h42.52Z"/>
      <g>
        <path class="cls-11" d="M459.51,204.72v-103.04h-102.89v41.17c1.86.71,3.91.88,5.76.19,3.25-1.21,5.18-4.66,8.31-6.14,4.63-2.18,10.39.89,12.81,5.39,1.88,3.49,2.23,5.32,2.06,8.34.17,3.02-.18,4.85-2.06,8.34-2.42,4.5-8.19,7.57-12.81,5.39-3.14-1.48-5.07-4.93-8.31-6.14-1.85-.69-3.89-.51-5.76.19v46.29h46.01c.05,1-.06,2.01-.41,2.96-1.21,3.25-4.66,5.18-6.14,8.32-2.18,4.63.89,10.39,5.39,12.81,3.49,1.88,5.32,2.23,8.34,2.06,3.02.17,4.85-.18,8.34-2.06,4.5-2.42,7.57-8.19,5.39-12.81-1.48-3.14-4.93-5.07-6.14-8.32-.36-.95-.47-1.96-.41-2.96h42.52Z"/>
        <g class="cls-23">
          <path class="cls-17" d="M459.51,204.72v-103.04h-102.89v41.17c1.86.71,3.91.88,5.76.19,3.25-1.21,5.18-4.66,8.31-6.14,4.63-2.18,10.39.89,12.81,5.39,1.88,3.49,2.23,5.32,2.06,8.34.17,3.02-.18,4.85-2.06,8.34-2.42,4.5-8.19,7.57-12.81,5.39-3.14-1.48-5.07-4.93-8.31-6.14-1.85-.69-3.89-.51-5.76.19v46.29h46.01c.05,1-.06,2.01-.41,2.96-1.21,3.25-4.66,5.18-6.14,8.32-2.18,4.63.89,10.39,5.39,12.81,3.49,1.88,5.32,2.23,8.34,2.06,3.02.17,4.85-.18,8.34-2.06,4.5-2.42,7.57-8.19,5.39-12.81-1.48-3.14-4.93-5.07-6.14-8.32-.36-.95-.47-1.96-.41-2.96h42.52Z"/>
        </g>
        <g>
          <path class="cls-12" d="M459.51,151.77s-6.91,1.73-7.66,3.35c-.76,1.62,1.8,1.5,1.8,1.5,0,0-2.8.31-2.83,1.52-.04,1.45,2.64,1.31,2.64,1.31,0,0-2.28.35-2.23,1.42.05,1.12,3.08,1.17,3.08,1.17,0,0-1.56.55-1.1,1.28.46.73,6.89.97,8.78-.23,1.89-1.2,1.9-9.47,1.53-11.28-.37-1.8-1.74-2.78-4-5.52v5.48h0Z"/>
          <path class="cls-21" d="M453.65,156.75s0,0,.01,0l4.86-.77c.07-.01.11-.08.1-.15-.01-.07-.07-.13-.14-.12l-4.86.77c-.07.01-.11.08-.1.15,0,.07.06.12.12.12Z"/>
          <path class="cls-21" d="M453.6,159.57s0,0,0,0l4.73-.37c.07,0,.11-.07.11-.14,0-.07-.05-.12-.13-.13l-4.73.37c-.07,0-.11.07-.11.14,0,.07.06.13.13.13Z"/>
          <path class="cls-21" d="M454.47,162.16l3.52-.18c.07,0,.12-.07.11-.14,0-.07-.06-.13-.13-.13l-3.52.18c-.07,0-.12.07-.11.14,0,.07.06.13.13.13Z"/>
        </g>
      </g>
      <g>
        <path class="cls-12" d="M380.53,149.04s7.4,2.07,8.15,3.69c.76,1.63-1.8,1.5-1.8,1.5,0,0,2.8.31,2.83,1.52.04,1.45-2.64,1.31-2.64,1.31,0,0,2.28.35,2.23,1.42-.05,1.12-3.08,1.17-3.08,1.17,0,0,1.56.55,1.1,1.28-.46.73-6.89.97-8.78-.24-1.89-1.2-1.9-9.47-1.53-11.28.37-1.8.52-1.51,2.79-4.25l.41,1.53c.11.42.19.84.22,1.27l.09,1.06Z"/>
        <path class="cls-21" d="M386.88,154.37s0,0-.01,0l-4.86-.77c-.07-.01-.11-.08-.1-.15.01-.07.07-.13.14-.12l4.86.77c.07.01.11.08.1.15,0,.07-.06.12-.12.12Z"/>
        <path class="cls-21" d="M386.93,157.18s0,0,0,0l-4.73-.37c-.07,0-.11-.07-.11-.14,0-.07.05-.12.13-.13l4.73.37c.07,0,.11.07.11.14,0,.07-.06.13-.13.13Z"/>
        <path class="cls-21" d="M386.06,159.78l-3.52-.18c-.07,0-.12-.07-.11-.14,0-.07.06-.13.13-.13l3.52.18c.07,0,.12.07.11.14,0,.07-.06.13-.13.13Z"/>
      </g>
    </g>
  </g>
  <g id="Character_2" data-name="Character 2">
    <g>
      <g>
        <polygon class="cls-12" points="228.96 378.46 239.17 379.46 246.71 353.6 231.18 351.91 228.96 378.46"/>
        <g>
          <path class="cls-2" d="M240.65,374.95h-3.65c-.82,0-1.59.42-2.08,1.08-2.1,2.87-3.68,1.79-5.97-.91-1.45-.17-1.85,1.5-1.96,1.95l-2.73,9.91c-.24.83.24,1.69,1.07,1.93.15.04.3.06.45.06h28.89c4.59,0,5.55-4.63,3.65-5.06-8.51-1.88-14.54-4.38-17.17-6.86-.49-.43.01-.76-.52-2.1Z"/>
          <path class="cls-11" d="M248.56,377.77c.38-.28.61-.72.62-1.19.03-.25-.08-.5-.3-.64-1.14-.81-5.7,1.32-6.21,1.57-.06.02-.1.07-.12.12-.04.11.02.22.12.26,1.12.27,2.27.41,3.42.44.86.08,1.73-.11,2.48-.56ZM248.59,376.28c.09.06.14.17.12.27-.02.34-.18.66-.45.87-1.04.77-3.54.44-4.88.19,1.89-.83,4.58-1.77,5.21-1.33Z"/>
          <path class="cls-11" d="M242.82,377.93c1.37-.57,4.24-2.82,4.08-4.01-.02-.25-.2-.55-.82-.63-2.5-.29-3.57,4.2-3.57,4.39-.02.08,0,.16.06.21.05.01.1.01.14,0l.11.04ZM246,373.66c.46.05.46.21.46.27.13.73-1.95,2.59-3.44,3.38.31-1.05,1.23-3.67,2.81-3.67h.17Z"/>
          <path class="cls-25" d="M243.18,377.76c-1.26.17-2.42.92-3.1,1.99"/>
          <path class="cls-25" d="M245.44,379.47c-1.26.17-2.42.92-3.1,1.99"/>
          <path class="cls-25" d="M248.26,380.9c-1.26.17-2.42.92-3.1,1.99"/>
        </g>
        <polygon class="cls-20" points="242.73 367.27 241.8 370.44 229.78 368.59 230 365.99 242.73 367.27"/>
      </g>
      <g>
        <polygon class="cls-12" points="288.4 378.46 298.61 379.46 306.16 353.6 290.62 351.91 288.4 378.46"/>
        <g>
          <path class="cls-2" d="M300.09,374.95h-3.65c-.83,0-1.59.42-2.08,1.08-2.1,2.87-3.68,1.79-5.97-.91-1.45-.17-1.85,1.5-1.96,1.95l-2.73,9.91c-.24.83.24,1.69,1.07,1.93.15.04.3.06.45.06h28.89c4.59,0,5.55-4.63,3.65-5.06-8.51-1.88-14.54-4.38-17.17-6.86-.49-.43.01-.76-.52-2.1Z"/>
          <path class="cls-11" d="M308,377.77c.38-.28.61-.72.62-1.19.03-.25-.08-.5-.3-.64-1.14-.81-5.7,1.32-6.21,1.57-.06.02-.1.07-.12.12-.04.11.02.22.12.26,1.12.27,2.26.41,3.42.44.86.08,1.73-.11,2.48-.56ZM308.04,376.28c.09.06.14.17.12.27-.02.34-.18.66-.45.87-1.04.77-3.53.44-4.88.19,1.89-.83,4.58-1.77,5.21-1.33Z"/>
          <path class="cls-11" d="M302.27,377.93c1.37-.57,4.24-2.82,4.08-4.01-.02-.25-.2-.55-.82-.63-2.5-.29-3.57,4.2-3.57,4.39-.02.08,0,.16.06.21.05.01.1.01.14,0l.11.04ZM305.44,373.66c.46.05.46.21.46.27.13.73-1.95,2.59-3.44,3.38.31-1.05,1.23-3.67,2.81-3.67h.17Z"/>
          <path class="cls-25" d="M302.62,377.76c-1.26.17-2.42.92-3.1,1.99"/>
          <path class="cls-25" d="M304.89,379.47c-1.26.17-2.42.92-3.1,1.99"/>
          <path class="cls-25" d="M307.71,380.9c-1.26.17-2.42.92-3.1,1.99"/>
        </g>
        <polygon class="cls-20" points="302.17 367.27 301.24 370.44 289.23 368.59 289.44 365.99 302.17 367.27"/>
      </g>
      <g>
        <g>
          <path class="cls-11" d="M310.23,183.62s8.46,37.38,12.5,69.93c1.23,9.92,1.46,23.19-.71,32.96l-16.31,81.1-20.53-2.06c3.23-34.98,7.72-78.12,9.01-96.47-4.52-21.51-14.14-47.55-23.6-73.44l39.64-12.03Z"/>
          <g class="cls-28">
            <path class="cls-3" d="M310.23,183.62s8.46,37.38,12.5,69.93c1.23,9.92,1.46,23.19-.71,32.96l-16.31,81.1-20.53-2.06c3.23-34.98,7.72-78.12,9.01-96.47-4.52-21.51-14.14-47.55-23.6-73.44l39.64-12.03Z"/>
          </g>
          <path class="cls-11" d="M242.77,275.62c.46-2.02,1.21-6.13,2.12-11.55-.03,0-.06-.01-.08-.02.67-7.17,1.9-40.41,4.17-61.61,1.74-13.51,5.19-22.64,8.67-27.12.18-.23.34-.44.49-.62.58-.72.93-1.12.93-1.12.66.17,1.32.32,1.97.46.24.05.49.11.73.16,24.54,5.13,46.13-1.32,46.13-1.32,2.26,5.58,3.95,17.47,5.59,29.81-2.57,2.82-13.83,6.47-26.75,8.89l-3.68,16.67c-1.94,10.33-4.43,20.47-6.54,29.59l-2.21,9.99c-.13.66-.27,1.31-.39,1.94-1.12,5.75-27.8,98.32-27.8,98.32l-17.38-1.02s7.76-64.07,14.05-91.47Z"/>
          <path class="cls-13" d="M242.77,275.62c.46-2.02,1.21-6.13,2.12-11.55-.03,0-.06-.01-.08-.02.67-7.17,1.9-40.41,4.17-61.61,1.74-13.51,5.19-22.64,8.67-27.12.18-.23.34-.44.49-.62.58-.72.93-1.12.93-1.12.66.17,1.32.32,1.97.46.24.05.49.11.73.16,24.54,5.13,46.13-1.32,46.13-1.32,2.26,5.58,3.95,17.47,5.59,29.81-2.57,2.82-13.83,6.47-26.75,8.89l-3.68,16.67c-1.94,10.33-4.43,20.47-6.54,29.59l-2.21,9.99c-.13.66-.27,1.31-.39,1.94-1.12,5.75-27.8,98.32-27.8,98.32l-17.38-1.02s7.76-64.07,14.05-91.47Z"/>
        </g>
        <path class="cls-13" d="M282.81,229.79c-.07.34,7.96-28.84,7.96-28.84,0,0,6.76,26.05-3.53,42.35l-4.44-13.51Z"/>
      </g>
      <g>
        <path class="cls-12" d="M265.54,98.13s4.08,3.14,9.34,7.67c1.09.94,2.3,1.76,3.58,2.44,3.44,1.83,6.58,2.88,7.43,1.22.19-.37.33-.76.44-1.18.72-2.78.43-6.69-1.82-8.48-2.53-2.02-3.76-3.74-3.3-6.47.24-1.55.8-3.15,1.45-4.7l-1.99-2.33-10.43-10.53c.26,7.03.79,18.55-4.7,22.36Z"/>
        <path class="cls-21" d="M281.12,93.92c-2.87-1.7-6.02-4.66-5.64-8.03.17-1.42.47-2.77.82-3.63l5.83,7.71c-.48,1.24-.65,2.07-1,3.95Z"/>
        <path class="cls-12" d="M267.29,64.47c.98,10.72,1.17,15.26,6.7,20.88,8.32,8.45,21.12,5.61,23.32-5.01,1.98-9.56.04-25.48-10.48-29.99-10.37-4.44-20.53,3.4-19.55,14.12Z"/>
        <path class="cls-2" d="M280.63,67.85c.06,1,.67,1.83,1.38,1.84.7.01,1.23-.79,1.17-1.79-.06-1-.67-1.83-1.38-1.84-.7-.01-1.23.79-1.18,1.79Z"/>
        <path class="cls-2" d="M291.74,67.7c.06.97.67,1.77,1.37,1.79.7.01,1.23-.76,1.17-1.73-.06-.97-.67-1.77-1.37-1.79-.7-.01-1.23.76-1.17,1.73Z"/>
        <path class="cls-2" d="M278.93,64.01c.14.02.28-.02.38-.12,1.65-1.53,3.51-.99,3.53-.99.28.08.55-.08.62-.36.06-.28-.11-.58-.39-.66-.1-.03-2.43-.7-4.48,1.19-.2.19-.21.52,0,.75.1.11.22.17.35.18Z"/>
        <path class="cls-2" d="M295.17,63.48c.13.03.26.01.38-.06.24-.15.3-.47.14-.73-1.6-2.54-3.99-2.69-4.09-2.7-.29-.01-.51.21-.51.5,0,.29.24.54.52.56.09,0,1.94.15,3.22,2.17.08.13.21.22.34.25Z"/>
        <path class="cls-2" d="M271.85,71.19s3.31-5,1.94-14.73c-.23-1.63.8-3.18,2.42-3.49,4.62-.9,10.81-6.73,18.35,4.85,0,0-3.6-13.88-24.66-8.29-18.74,4.97-5.91,20.86-3.98,22.49,1.93,1.63,5.92-.84,5.92-.84Z"/>
        <path class="cls-12" d="M264.04,73.21c1.27,2.2,3.32,3.58,5.21,4.05,2.84.71,4.3-3.85,3.33-6.69-.87-2.56-3.66-4.25-6.42-3.69-2.72.55-3.57,3.82-2.12,6.33Z"/>
        <g>
          <path class="cls-2" d="M289.04,78.17c-.87,1.34-1.92,3.95-1.92,3.95-.25-.05-.51-.1-.76-.17-3.41-.8-4.73-2.3-5.16-3.71-.23-.78-.19-1.54-.07-2.14.13-.7.38-1.16.38-1.16,1.56,1.5,4.68,2.49,6.37,2.95.71.2,1.16.29,1.16.29Z"/>
          <path class="cls-17" d="M287.88,77.88l-.6,1.15c-3.21-.76-5.37-1.73-6.15-2.94.13-.7.38-1.16.38-1.16,1.56,1.5,4.68,2.49,6.37,2.95Z"/>
          <path class="cls-9" d="M286.36,81.94c-3.41-.8-4.73-2.3-5.16-3.71,1.15.32,2.51.83,3.61,1.64.85.62,1.3,1.37,1.55,2.08Z"/>
        </g>
        <path class="cls-4" d="M288.86,67.4s1.68,4.01,3.57,6.51c.33.44.13,1.08-.39,1.26-1.32.49-2.87.05-2.87.05l-.31-7.82Z"/>
        <path class="cls-2" d="M281.59,66.04l2.46-.58s-1.35,1.83-2.46.58Z"/>
        <path class="cls-2" d="M292.66,65.99l2.46-.58s-1.35,1.83-2.46.58Z"/>
        <path class="cls-2" d="M296.44,62.36s6.49-7.68,2.16-14.01c-1.63-2.38-4.62-2.73-7.25-3.9-6.09-2.68-11.02-3.22-18.78,4.39-8.08,7.92-9.54,10.59-.63,20.34,0,0-.96-1.28,2.33-4.18,3.29-2.9,6.93-5.48,5.17-8.3,0,0,2.74,1.06,2.94,3.66l4.82-1.32s-.21-1.86-1.48-3.73c0,0,2.5,1.47,3.31,3.63l4.17.78s-.61-3.82-1.79-5.2c0,0,3.82,3.93,5.05,7.81Z"/>
      </g>
      <path class="cls-27" d="M270.41,72.89c-.09-1.01-.56-1.98-1.29-2.68-.74-.7-1.73-1.12-2.75-1.16"/>
      <g>
        <g>
          <path class="cls-2" d="M321.36,161.83c-.6-.46-1.18-.98-1.71-1.54-.46-.48-.77-1.09-.66-1.09-.02-.07-.05-.14-.08-.2l-.19-.45-.47-1.2c-.32-.86-.62-1.8-.92-2.75-.63-1.89-1.23-3.86-1.81-5.85-1.17-3.98-2.29-8.01-3.42-12.06l-2.08-8.48c-.3-1.37-.77-3.38-1.39-5.66h0s0,0,0,0c-1.69-6.23-4.51-14.54-8.2-17.84-5.72-4.38-9.38,1.02-11.74,6.64-2.26,5.39,3.32,20.13,3.32,20.13l6.8-.49c.86,3.14,1.76,6.25,2.65,9.44,1.16,4.15,2.54,8.23,3.92,12.31.7,2.05,1.43,4.09,2.23,6.15.47,1.05.9,2.08,1.38,3.17.23.54.5,1.11.79,1.68l.51.95c.21.4.45.78.72,1.14,1.01,1.3,2.25,2.35,3.64,3.08,1.07.6,2.2,1.07,3.37,1.4,2.12.61,4.31.88,6.5.78l1.23-5.94c-1.46-1.09-3.08-2.23-4.39-3.31Z"/>
          <path class="cls-18" d="M321.36,161.83c-.6-.46-1.18-.98-1.71-1.54-.46-.48-.77-1.09-.66-1.09-.02-.07-.05-.14-.08-.2l-.19-.45-.47-1.2c-.32-.86-.62-1.8-.92-2.75-.63-1.89-1.23-3.86-1.81-5.85-1.17-3.98-2.29-8.01-3.42-12.06l-2.08-8.48c-.3-1.37-.77-3.38-1.39-5.66h0s0,0,0,0c-1.69-6.23-4.51-14.54-8.2-17.84-5.72-4.38-9.38,1.02-11.74,6.64-2.26,5.39,3.32,20.13,3.32,20.13l6.8-.49c.86,3.14,1.76,6.25,2.65,9.44,1.16,4.15,2.54,8.23,3.92,12.31.7,2.05,1.43,4.09,2.23,6.15.47,1.05.9,2.08,1.38,3.17.23.54.5,1.11.79,1.68l.51.95c.21.4.45.78.72,1.14,1.01,1.3,2.25,2.35,3.64,3.08,1.07.6,2.2,1.07,3.37,1.4,2.12.61,4.31.88,6.5.78l1.23-5.94c-1.46-1.09-3.08-2.23-4.39-3.31Z"/>
          <g class="cls-23">
            <path class="cls-3" d="M301.69,114.27c1.15,1.96,1.54,3.08,2.26,5.34.72,2.26,1.54,14.47-2.59,18.08v-8.47c.15-5.19.17-9.77.32-14.96Z"/>
          </g>
          <path class="cls-2" d="M250.98,129.72l-6.38-21.77c4.04-6.03,24.02-10.66,24.02-10.66l10.24,3.59,2.92-2.87s5.06,1.13,9.39,2.54c5.78,1.89,8.91,3.4,10.29,6.61,0,0,2.41,7.11.96,21.76-.4,4.03.05,24.97,1.18,31.89l6.81,21.57c-24.05,18.73-57.73,1.24-57.73,1.24,1.08-3.31,4.68-13.46,5.17-16.7-.35-4.12.14-10.48-1.61-17.71-.34-1.39-4.69-18.15-5.28-19.51Z"/>
          <path class="cls-18" d="M250.98,129.72l-6.38-21.77c4.04-6.03,24.02-10.66,24.02-10.66l10.24,3.59,2.92-2.87s5.06,1.13,9.39,2.54c5.78,1.89,8.91,3.4,10.29,6.61,0,0,2.41,7.11.96,21.76-.4,4.03.05,24.97,1.18,31.89l6.81,21.57c-24.05,18.73-57.73,1.24-57.73,1.24,1.08-3.31,4.68-13.46,5.17-16.7-.35-4.12.14-10.48-1.61-17.71-.34-1.39-4.69-18.15-5.28-19.51Z"/>
        </g>
        <path class="cls-11" d="M324.06,153.16c.75-9.06,7.73-16.36,16.75-17.5l-1.85,3.08,3.52-2.09-16.15,20.26-2.28-3.74Z"/>
        <path class="cls-8" d="M324.06,153.16c.75-9.06,7.73-16.36,16.75-17.5l-1.85,3.08,3.52-2.09-16.15,20.26-2.28-3.74Z"/>
        <path class="cls-11" d="M298.76,136.53l5.55-.17,26.58,9.01-24.23,37.01-23.84-5.95c-1.36-.38-2.16-1.78-1.78-3.14.06-.2.14-.4.24-.58l9.63-17.41c.19-.34.19-.76,0-1.11l-1.31-2.32c-.27-.48-.27-1.06,0-1.54l6.46-12.11c.55-.99,1.56-1.63,2.69-1.69Z"/>
        <polygon class="cls-11" points="330.89 145.38 346.03 135.65 321.14 172.63 306.66 182.38 330.89 145.38"/>
        <polygon class="cls-13" points="330.89 145.38 346.03 135.65 321.14 172.63 306.66 182.38 330.89 145.38"/>
        <g>
          <path class="cls-12" d="M327.92,162.57s-5.88-1.54-7.17-.53c-1.29,1.01.48,1.97.48,1.97,0,0-2.02-.91-2.63.06-.73,1.17,1.13,2.16,1.13,2.16,0,0-1.69-.66-2.18.23-.51.93,1.49,2.23,1.49,2.23,0,0-1.31-.2-1.36.58-.05.78,4.14,3.65,5.99,3.45,1.85-.19,5.86-6.92,6.48-8.54.63-1.62.56-2.88-.63-4.01l-1.61,2.4h0Z"/>
          <path class="cls-21" d="M321.16,164.12s0,0,0,0l3.63,1.39s.11-.02.14-.08c.03-.06.01-.13-.04-.15l-3.63-1.39s-.11.02-.14.08c-.03.06-.02.12.03.15Z"/>
          <path class="cls-21" d="M319.76,166.39s0,0,0,0l3.34,1.66s.11,0,.14-.07c.03-.06.02-.12-.03-.16l-3.34-1.66s-.11,0-.14.07c-.03.06-.02.13.02.16Z"/>
          <path class="cls-21" d="M319.09,168.86l2.44,1.32s.11,0,.14-.07c.03-.06.02-.13-.02-.16l-2.44-1.32s-.11,0-.14.07-.02.13.02.16Z"/>
        </g>
        <polygon class="cls-2" points="285.56 98.93 281.12 94.63 278.86 100.88 269 93.02 264 98.51 276.38 107.14 278.86 101.66 285.56 106.68 285.56 98.93"/>
        <path class="cls-20" d="M285.56,98.93c.31.48,0,7.75,0,7.75l-6.7-5.02-2.48,5.48-11.9-8.21,12.18,10.61,2.2-6.44,7.47,6.44-.77-10.61Z"/>
        <path class="cls-20" d="M291.9,132.64l-34.12,32.87v-6.5s30.71-28.13,31.08-28.17c.37-.04,3.03,1.8,3.03,1.8Z"/>
        <polygon class="cls-20" points="259.85 135.25 256.16 120 255.42 137.69 259.85 135.25"/>
      </g>
      <path class="cls-11" d="M265.97,76.98c0,1.13.92,2.05,2.05,2.05s2.05-.92,2.05-2.05-.92-2.05-2.05-2.05-2.05.92-2.05,2.05Z"/>
      <g>
        <g>
          <path class="cls-2" d="M244.6,107.95s-4.61,4.49-6.17,19.81c-1.11,11-3.93,34.71,4.61,37.76,8.55,3.05,45.81-32.59,45.81-32.59l-6.05-10.39-27.39,15.15s2.79-25.12-2.03-27.41-8.79-2.33-8.79-2.33Z"/>
          <path class="cls-18" d="M244.6,107.95s-4.61,4.49-6.17,19.81c-1.11,11-3.93,34.71,4.61,37.76,8.55,3.05,45.81-32.59,45.81-32.59l-6.05-10.39-27.39,15.15s2.79-25.12-2.03-27.41-8.79-2.33-8.79-2.33Z"/>
        </g>
        <path class="cls-12" d="M285.15,121.77s3.6-7.2,5.3-7.52c1.71-.32,3.08.25,3.08.25,0,0,11.62-6.85,12.39-5.04.42.97-2.16,3.12-7.7,6.28,0,0,3.19,1.17,1.9,3.04,0,0,2.35,1.08,1.1,3.41,0,0,1.08,2.06-.28,3.38-1.36,1.32-7.74,4.95-11.44,5.49-3.7.54-5.85-6.64-5.85-6.64l1.49-2.65Z"/>
      </g>
    </g>
  </g>
  <g id="Puzzle">
    <g>
      <path class="cls-11" d="M324.4,327.49c3.14,1.48,5.07,4.93,8.32,6.14,1.82.68,3.83.52,5.67-.16v-46.33h-44.34c-.06-1,.06-2.01.41-2.96,1.21-3.25,4.66-5.18,6.14-8.31,2.18-4.63-.89-10.39-5.39-12.81-3.49-1.88-5.32-2.23-8.34-2.06-3.02-.17-4.85.18-8.34,2.06-4.5,2.42-7.57,8.19-5.39,12.81,1.48,3.14,4.93,5.07,6.14,8.31.36.95.47,1.96.42,2.96h-44.34v103.04h103.04v-41.2c-1.84-.68-3.85-.84-5.67-.16-3.25,1.21-5.19,4.64-8.32,6.14-4.16,2-10.37-.9-12.81-5.39-1.9-3.48-2.23-5.32-2.06-8.34-.17-3.02.18-4.85,2.06-8.34,2.42-4.5,8.19-7.57,12.81-5.39Z"/>
      <path class="cls-14" d="M324.4,327.49c3.14,1.48,5.07,4.93,8.32,6.14,1.82.68,3.83.52,5.67-.16v-46.33h-44.34c-.06-1,.06-2.01.41-2.96,1.21-3.25,4.66-5.18,6.14-8.31,2.18-4.63-.89-10.39-5.39-12.81-3.49-1.88-5.32-2.23-8.34-2.06-3.02-.17-4.85.18-8.34,2.06-4.5,2.42-7.57,8.19-5.39,12.81,1.48,3.14,4.93,5.07,6.14,8.31.36.95.47,1.96.42,2.96h-44.34v103.04h103.04v-41.2c-1.84-.68-3.85-.84-5.67-.16-3.25,1.21-5.19,4.64-8.32,6.14-4.16,2-10.37-.9-12.81-5.39-1.9-3.48-2.23-5.32-2.06-8.34-.17-3.02.18-4.85,2.06-8.34,2.42-4.5,8.19-7.57,12.81-5.39Z"/>
      <path class="cls-11" d="M329.45,327.49c3.14,1.48,5.07,4.93,8.32,6.14,1.82.68,3.83.52,5.67-.16v-46.33h-44.34c-.05-1,.06-2.01.41-2.96,1.21-3.25,4.66-5.18,6.14-8.31,2.18-4.63-.89-10.39-5.39-12.81-3.49-1.88-5.32-2.23-8.34-2.06-3.02-.17-4.85.18-8.34,2.06-4.5,2.42-7.57,8.19-5.39,12.81,1.48,3.14,4.93,5.07,6.14,8.31.36.95.47,1.96.42,2.96h-44.34v103.04h103.04v-41.2c-1.84-.68-3.85-.84-5.67-.16-3.25,1.21-5.19,4.64-8.32,6.14-4.16,2-10.37-.9-12.81-5.39-1.9-3.48-2.23-5.32-2.06-8.34-.17-3.02.18-4.85,2.06-8.34,2.42-4.5,8.19-7.57,12.81-5.39Z"/>
    </g>
    <path class="cls-14" d="M326.34,355.67s3.57,6.39,9.7,5.86c6.13-.53,7.41-3.2,7.41-3.2l-.08-8.79-13.67,5.24c-.94.77-2.07,1.04-3.35.89Z"/>
  </g>
  <g id="Character_4" data-name="Character 4">
    <g>
      <g>
        <path class="cls-11" d="M453.22,301.28l35.22-13.53,20.33-19.71c.56-.65,6.46-10.82,6.46-10.82l9.98,21.37s-24.81,24.93-33.9,27.83c-7.34,2.35-33.35,8.72-33.35,8.72l-4.74-13.86Z"/>
        <path class="cls-14" d="M474.81,310.92s4.25-16.65,13.74-20.11c9.49-3.46,21.76,1.97,21.41,2.2-.35.23-10.63,9.8-10.98,9.92-.26.09-13.33,4.69-20.09,6.93l-4.08,1.06Z"/>
      </g>
      <g>
        <g>
          <path class="cls-2" d="M410.86,287.67c-.05,1,.06,2.01.41,2.96,1.21,3.25,4.66,5.18,6.14,8.32,2.18,4.63-.89,10.39-5.39,12.81-3.49,1.88-5.32,2.23-8.34,2.06-3.02.17-4.85-.18-8.34-2.06-4.5-2.42-7.57-8.19-5.39-12.81,1.48-3.14,4.93-5.07,6.14-8.32.36-.95.47-1.96.42-2.96h-45.93v46.29c-1.87.71-3.91.88-5.76.19-3.25-1.21-5.18-4.66-8.32-6.14-4.63-2.18-10.39.89-12.81,5.39-1.88,3.49-2.23,5.32-2.06,8.34-.17,3.02.18,4.85,2.06,8.34,2.42,4.5,8.19,7.57,12.81,5.39,3.14-1.48,5.07-4.93,8.32-6.14,1.85-.69,3.89-.51,5.76.19v41.17l102.68.46v-103.04l-42.4-.46Z"/>
          <g class="cls-29">
            <path class="cls-3" d="M410.86,287.67c-.05,1,.06,2.01.41,2.96,1.21,3.25,4.66,5.18,6.14,8.32,2.18,4.63-.89,10.39-5.39,12.81-3.49,1.88-5.32,2.23-8.34,2.06-3.02.17-4.85-.18-8.34-2.06-4.5-2.42-7.57-8.19-5.39-12.81,1.48-3.14,4.93-5.07,6.14-8.32.36-.95.47-1.96.42-2.96h-45.93v46.29c-1.87.71-3.91.88-5.76.19-3.25-1.21-5.18-4.66-8.32-6.14-4.63-2.18-10.39.89-12.81,5.39-1.88,3.49-2.23,5.32-2.06,8.34-.17,3.02.18,4.85,2.06,8.34,2.42,4.5,8.19,7.57,12.81,5.39,3.14-1.48,5.07-4.93,8.32-6.14,1.85-.69,3.89-.51,5.76.19v41.17l102.68.46v-103.04l-42.4-.46Z"/>
          </g>
        </g>
        <path class="cls-2" d="M415.41,287.67c-.05,1,.06,2.01.41,2.96,1.21,3.25,4.66,5.18,6.14,8.32,2.18,4.63-.89,10.39-5.39,12.81-3.49,1.88-5.32,2.23-8.34,2.06-3.02.17-4.85-.18-8.34-2.06-4.5-2.42-7.57-8.19-5.39-12.81,1.48-3.14,4.93-5.07,6.14-8.32.36-.95.47-1.96.42-2.96h-45.93v46.29c-1.87.71-3.91.88-5.76.19-3.25-1.21-5.18-4.66-8.32-6.14-4.63-2.18-10.39.89-12.81,5.39-1.88,3.49-2.23,5.32-2.06,8.34-.17,3.02.18,4.85,2.06,8.34,2.42,4.5,8.19,7.57,12.81,5.39,3.14-1.48,5.07-4.93,8.32-6.14,1.85-.69,3.89-.51,5.76.19v41.17l102.68.46v-103.04l-42.4-.46Z"/>
      </g>
      <g>
        <g>
          <path class="cls-6" d="M487.74,357.13l16.15-.98c-2.58,14.23-5.24,23.46-4.11,30.76l-6.51,4.35-6.03-5.93s-1.11-11.63.5-28.21Z"/>
          <g>
            <g>
              <path class="cls-11" d="M486.27,375.35l5.87.07c2.84,4.92,4.8,3.76,7.81.29,1.7-.18,2.14,1.78,2.27,2.31l3.05,11.64c.27.97-.31,1.98-1.28,2.24-.17.05-.35.07-.53.06-5.18-.06-7.63-.09-14.09-.17l-19.73-.23c-5.38-.06-6.43-5.5-4.21-5.97,9.99-2.08,17.07-4.93,20.19-7.79.58-.5,0-.89.63-2.45Z"/>
              <path class="cls-26" d="M483.27,378.61c1.47.22,2.82,1.11,3.6,2.38"/>
              <path class="cls-26" d="M480.59,380.58c1.47.22,2.82,1.11,3.6,2.38"/>
              <path class="cls-26" d="M477.27,382.22c1.47.22,2.82,1.11,3.6,2.38"/>
            </g>
            <path class="cls-7" d="M504,391.9c-.17.05-.35.07-.53.06-5.18-.06-7.63-.09-14.08-.17l-19.73-.23c-2.91-.03-4.54-1.64-5.09-3.18.82.02,40.02.78,40.54.61l.21.87c.14.9-.41,1.79-1.31,2.04Z"/>
          </g>
        </g>
        <path class="cls-2" d="M549.59,314.29s-44.11-22.78-52.7-23.43c-8.59-.65-16.8,4-18.44,21.79-1.64,17.78,1.64,63.52,1.64,63.52l23.79.41,2.95-52.98s36.85,26.92,37.94,26.64c1.09-.27,15.48-.92,15.48-.92l-10.67-35.02Z"/>
        <path class="cls-5" d="M549.59,314.29s-44.11-22.78-52.7-23.43c-8.59-.65-16.8,4-18.44,21.79-1.64,17.78,1.64,63.52,1.64,63.52l23.79.41,2.95-52.98s36.85,26.92,37.94,26.64c1.09-.27,15.48-.92,15.48-.92l-10.67-35.02Z"/>
        <path class="cls-14" d="M505.48,348.37s-19.44,6.81-19.65,22.84c-.21,16.03,16.94,12.98,16.94,12.98l2.71-35.82Z"/>
      </g>
      <g>
        <g>
          <path class="cls-6" d="M566.47,390.14l-4.37-15.9c15.29-1.65,25.5,2.11,32.6-1.25l6.4,5.33-4.23,7.93s-11.27,3.83-30.4,3.88Z"/>
          <g>
            <g>
              <path class="cls-11" d="M586.98,390.25l-1.7-6c4.16-4.38,2.38-6.03-2.06-8.05-.7-1.68,1.17-2.72,1.67-3.01l10.95-6.62c.91-.56,2.11-.28,2.67.63.1.16.18.34.22.52,1.5,5.3,2.21,7.81,4.08,14.41l5.71,20.18c1.56,5.5-3.67,8.21-4.82,6.09-5.13-9.55-10.18-15.92-14.03-18.23-.68-.44-.9.27-2.69.09Z"/>
              <path class="cls-26" d="M591.21,392.33c-.22-1.56.28-3.21,1.34-4.38"/>
              <path class="cls-26" d="M594.02,394.47c-.22-1.56.28-3.21,1.34-4.38"/>
              <path class="cls-26" d="M596.69,397.36c-.22-1.56.28-3.21,1.34-4.38"/>
            </g>
            <path class="cls-7" d="M598.51,367.19c.1.16.18.34.22.52,1.5,5.3,2.21,7.81,4.08,14.41l5.71,20.18c.84,2.98-.3,5.13-1.71,6.14-.23-.84-11.27-41.03-11.59-41.51l.82-.47c.88-.41,1.95-.12,2.47.73Z"/>
          </g>
        </g>
        <path class="cls-2" d="M597.93,322.98l1.91,9.61s4.91,19.07-1.97,28.65c-6.57,9.15-16.27,10.78-16.27,10.78l1.99,18.39-1.99,1.24s-12.69,0-38.66-1.19c-24.67-1.13-45.88-2.31-50.26-9.97-4.38-7.66-5.39-11.38,1.77-20.52,6.47-8.26,55.73-20.42,57.44-20.92l-.69-4.2-.8-2.97,47.52-8.92Z"/>
        <path class="cls-5" d="M597.93,322.98l1.91,9.61s4.91,19.07-1.97,28.65c-6.57,9.15-16.27,10.78-16.27,10.78l1.99,18.39-1.99,1.24s-12.69,0-38.66-1.19c-24.67-1.13-45.88-2.31-50.26-9.97-4.38-7.66-5.39-11.38,1.77-20.52,6.47-8.26,55.73-20.42,57.44-20.92l-.69-4.2-.8-2.97,47.52-8.92Z"/>
        <path class="cls-14" d="M581.6,372.02c-1.51.4-55.02-1.33-55.02-1.33,0,0,15.81,2.71,27.51,3.7,11.7.99,27.51-2.37,27.51-2.37Z"/>
        <path class="cls-14" d="M551.89,339.07l30.81-5.37s-22.21-.36-30.81,5.37Z"/>
      </g>
      <g>
        <path class="cls-6" d="M473.34,317.25s-2.57-3.96-6.4-4.72c-3.83-.77-6.68-2.4-9.56-2.77-2.88-.37-.27,2.55,1.44,3.83,1.71,1.27,3.63,2.74,2.46,3.86-1.16,1.13-14.67,4.55-16.11,6.3-1.44,1.75.92,1.88.92,1.88,0,0-3.26.92-3.25,2.31,0,.36.6,1.2,2.15,1.01,3.49-.42,10.77-1.68,10.77-1.68-.42.06-9.29,2.26-10.58,2.76-1.68.66-2.14,1.82-1.73,2.78.59,1.37,11.68-.98,12.21-.75,0,0-6.43,1.14-7.04,2.96s3.47,1.33,6.99.2c3.23-1.03,9.83-2.2,13.01-3.56,3.92-1.68,6.17-3.69,6.26-7.68.08-4-1.55-6.73-1.55-6.73Z"/>
        <polygon class="cls-6" points="469.12 317.17 478.98 313.22 482.39 323.89 470.82 328.02 469.12 317.17"/>
      </g>
      <g>
        <g>
          <g>
            <g>
              <path class="cls-6" d="M540.68,243.35s-2.68-6.05-2.11-18.03c0-.01-.66-.13-.66-.14.07-1.67.2-3.24.35-4.6,0-.04,0-.05,0-.05l-13.06,13.14c1.22,3.5,1.59,10.73,1.52,13.83,0,0-.67,5.76,6.43,4.3,5.19-1.06,7.53-8.45,7.53-8.45Z"/>
              <path class="cls-21" d="M526.15,238.76l8.34-4.1c-.14,2.93-1.79,6.77-7.87,8.5,0,0-.12-3.22-.48-4.4Z"/>
            </g>
            <g>
              <path class="cls-6" d="M536.6,213.06c1.29,9.96,2.22,15.55-1.8,21.52-6.04,8.98-18.78,6.87-23.03-2.54-3.83-8.46-5.3-23.33,3.62-29.02,8.79-5.6,19.92.07,21.21,10.03Z"/>
              <path class="cls-2" d="M532.76,199.04c-4.61-5.4-13.2-.67-16.46,2.83-.49.52,8.34,3.02,7.82,2.93l2.79,2.31c.36-.16,1.1,3.27,1.73,6.23.58,2.72,1.88,5.23,3.78,7.27,1.59,1.71,3.72,3.75,6.12,5.41,3.11-2.34,2.16-8.36,2.56-12.13.59-5.62.46-16.14-8.34-14.86Z"/>
              <path class="cls-6" d="M542.07,220.51c-.3,2.69-1.82,4.97-3.58,6.32-2.66,2.03-4.37-.98-4.69-4.13-.29-2.84-.13-6.4,3.05-7.18,3.13-.77,5.57,1.92,5.23,5Z"/>
              <path class="cls-2" d="M523.06,218.61c.19,1.01-.18,1.92-.85,2.04-.66.12-1.35-.6-1.55-1.61-.19-1.01.18-1.92.84-2.04.66-.12,1.35.6,1.55,1.61Z"/>
              <path class="cls-2" d="M513.21,220.71c.19,1.01-.18,1.92-.84,2.04-.66.12-1.35-.6-1.55-1.61-.19-1.01.18-1.92.85-2.04s1.35.6,1.55,1.61Z"/>
              <path class="cls-16" d="M516.32,219.53s-2.23,5.62-2.86,7.86c1.65,1,3.95-.05,3.95-.05l-1.09-7.8Z"/>
              <path class="cls-2" d="M524.6,213.39c-.14.09-.32.11-.49.02-1.92-.98-3.47-.13-3.48-.12-.23.13-.53.05-.66-.18-.13-.23-.05-.52.18-.65.08-.05,2.02-1.11,4.4.1.24.12.33.41.21.64-.04.08-.1.14-.16.18Z"/>
              <path class="cls-24" d="M521.33,229.91c1.64-.3,2.75-1.36,3.78-2.82"/>
            </g>
            <path class="cls-27" d="M539.3,218.23c-.51-.51-1.36-.57-2.02-.27s-1.13.9-1.44,1.56c-.37.78-.54,1.66-.47,2.53"/>
          </g>
          <path class="cls-2" d="M508.03,217.3c-.09,0-.18-.03-.26-.09-.22-.15-.27-.45-.13-.67,1.5-2.18,3.71-2.12,3.81-2.13.26,0,.47.23.47.5,0,.26-.22.47-.49.46-.09,0-1.79-.03-3,1.72-.09.14-.25.21-.4.21Z"/>
        </g>
        <path class="cls-2" d="M532.76,199.04s-6.13-7.58-16.74-5.08c-8.53,2.01-12.98,8.25-13.15,14.22-.07,2.57.5,4.48,1.17,5.82.51,1.01,1.97.86,2.29-.22.09-.31.2-.61.33-.91.03.07.07.13.11.2.62,1.04,2.27.66,2.3-.55,0-.38.05-.77.13-1.14,0,0,.01.02.02.03.57.91,1.99.64,2.22-.42,1-4.64,6.66-8.13,11.77-6.05l3.69,2.19c4.23-2.47,5.85-8.08,5.85-8.08Z"/>
      </g>
      <polygon class="cls-14" points="548.68 332.18 548.1 336.08 530.9 341.26 534.86 343.8 551.89 339.07 552.59 331.49 548.68 332.18"/>
      <g>
        <g>
          <path class="cls-11" d="M561.54,244.58c-7.72-4.95-21.34-2.6-21.34-2.6l-24.97,15.24,17.08,40.14s7.13,17.07,10.97,28.44c.95,2.82,2.77,6.75,5.72,6.36l47.43-8.57c2.32-.42,3.78-2.73,3.15-5-4.58-16.54-31.12-69.56-38.04-74Z"/>
          <path class="cls-14" d="M565.99,266.9s-7.6,14.31-20.95,26.78c-5.39,5.04-9.13,12.3-9.13,12.3l-3.35-8.55,33.42-30.54Z"/>
        </g>
        <path class="cls-11" d="M542.48,255.88l-32.33,40.32-37.96,17.23,3.78,15.71s30.78-8.3,43.15-16.01c12.37-7.71,32.76-29.27,32.76-29.27,0,0,17.79-14.27,16.94-25.82-.85-11.55-17.78-14.24-26.34-2.16Z"/>
        <path class="cls-11" d="M524.93,251.3s1.2-6.16,1.78-5.91c.58.25,6.36,3.72,6.36,3.72l6.46-9.68,3.88,2.57-8.93,18.51-9.56-9.2Z"/>
        <polygon class="cls-14" points="522.09 277.14 514.64 266.9 520.66 282.93 523.59 279.81 544.18 253.78 522.09 277.14"/>
        <path class="cls-14" d="M524.93,251.3c.33.12,5.68,3.73,5.39,3.79-.29.06,2.25-4.32,2.25-4.32l5.68,2.16,4.66-11.28-4.59,12.99-5.38-2.6-2.63,4.76-5.39-5.5Z"/>
      </g>
    </g>
  </g>
  <g id="Character_1" data-name="Character 1">
    <g>
      <g>
        <g>
          <path class="cls-2" d="M156.5,174.65c.05-1-.06-2.01-.41-2.96-1.21-3.25-4.66-5.18-6.14-8.32-2.18-4.63.89-10.39,5.39-12.81,3.49-1.88,5.32-2.23,8.34-2.06,3.02-.17,4.85.18,8.34,2.06,4.5,2.42,7.57,8.19,5.39,12.81-1.48,3.14-4.93,5.07-6.14,8.32-.36.95-.47,1.96-.41,2.96h45.93v-46.29c1.87-.71,3.91-.89,5.76-.19,3.25,1.21,5.18,4.66,8.32,6.14,4.63,2.18,10.39-.89,12.81-5.39,1.88-3.49,2.23-5.32,2.06-8.34.17-3.02-.18-4.85-2.06-8.34-2.42-4.5-8.19-7.57-12.81-5.39-3.14,1.48-5.07,4.93-8.32,6.14-1.85.69-3.89.51-5.76-.19v-41.17l-102.68-.46v103.04l42.4.46Z"/>
          <g class="cls-29">
            <path class="cls-3" d="M156.5,174.65c.05-1-.06-2.01-.41-2.96-1.21-3.25-4.66-5.18-6.14-8.32-2.18-4.63.89-10.39,5.39-12.81,3.49-1.88,5.32-2.23,8.34-2.06,3.02-.17,4.85.18,8.34,2.06,4.5,2.42,7.57,8.19,5.39,12.81-1.48,3.14-4.93,5.07-6.14,8.32-.36.95-.47,1.96-.41,2.96h45.93v-46.29c1.87-.71,3.91-.89,5.76-.19,3.25,1.21,5.18,4.66,8.32,6.14,4.63,2.18,10.39-.89,12.81-5.39,1.88-3.49,2.23-5.32,2.06-8.34.17-3.02-.18-4.85-2.06-8.34-2.42-4.5-8.19-7.57-12.81-5.39-3.14,1.48-5.07,4.93-8.32,6.14-1.85.69-3.89.51-5.76-.19v-41.17l-102.68-.46v103.04l42.4.46Z"/>
          </g>
        </g>
        <path class="cls-2" d="M159.61,174.65c.05-1-.06-2.01-.41-2.96-1.21-3.25-4.66-5.18-6.14-8.32-2.18-4.63.89-10.39,5.39-12.81,3.49-1.88,5.32-2.23,8.34-2.06,3.02-.17,4.85.18,8.34,2.06,4.5,2.42,7.57,8.19,5.39,12.81-1.48,3.14-4.93,5.07-6.14,8.32-.36.95-.47,1.96-.42,2.96h45.93v-46.29c1.87-.71,3.91-.89,5.76-.19,3.25,1.21,5.18,4.66,8.32,6.14,4.63,2.18,10.39-.89,12.81-5.39,1.88-3.49,2.23-5.32,2.06-8.34.17-3.02-.18-4.85-2.06-8.34-2.42-4.5-8.19-7.57-12.81-5.39-3.14,1.48-5.07,4.93-8.32,6.14-1.85.69-3.89.51-5.76-.19v-41.17l-102.68-.46v103.04l42.4.46Z"/>
      </g>
      <g>
        <path class="cls-19" d="M91.34,119.5s-7.5,26.56-2.7,31.19c4.8,4.62,21.58,1.54,20.72,1.2-.86-.34,4.28-32.29,4.62-31.13.34,1.16-22.65-1.26-22.65-1.26Z"/>
        <g>
          <path class="cls-19" d="M100.67,359.35l-.02,23.05,10.7.83,3.76-21.65c-4.89-3.53-9.71-4.38-14.44-2.23Z"/>
          <path class="cls-2" d="M100.55,379.99c-1.05,3.04-1.12,15.49-1.12,15.49l22.68.03c1.35-4.5-.74-7.57-3.38-7.98-1.14-.17-2.47-1.44-3.45-2.54,0-.14-1.39-7.06-2.25-7.39,0,0-.59-.72-1.09,0-.5.72-.94,3.05-.94,3.05-3.54-4.76-7.01-4.12-10.44-.66Z"/>
          <path class="cls-17" d="M100.27,383.6c2.56-1.02,5.31-.63,7.55,1.07.39.3.76-.4.37-.69-2.38-1.81-5.39-2.24-8.12-1.15-.44.18-.25.95.2.77h0Z"/>
          <path class="cls-17" d="M122.04,393.68h0l-22.35-.03c-.2,0-.37-.18-.37-.4,0-.22.17-.4.37-.4h0l22.35.03c.2,0,.37.18.37.4,0,.22-.17.4-.37.4Z"/>
        </g>
        <g>
          <path class="cls-19" d="M146.83,356.34l-.03,26.01,10.3.85,5.06-24.35c-4.13-3.33-8.93-4.96-15.33-2.51Z"/>
          <path class="cls-2" d="M146.34,380.04c-1.05,3.04-1.12,15.49-1.12,15.49l26.06.03c1.35-4.5-1.47-7.17-4.11-7.58-1.14-.17-5.12-1.85-6.09-2.95,0-.14-1.39-7.06-2.25-7.39,0,0-.59-.72-1.09,0-.5.72-.94,3.05-.94,3.05-3.54-4.76-7.01-4.12-10.44-.66Z"/>
          <path class="cls-17" d="M146.06,383.65c2.56-1.02,5.31-.63,7.55,1.07.39.3.76-.4.37-.69-2.38-1.81-5.39-2.24-8.12-1.15-.44.18-.25.95.2.77h0Z"/>
          <path class="cls-17" d="M171.28,393.74h0l-25.79-.03c-.2,0-.37-.18-.37-.4,0-.22.17-.4.37-.4h0l25.79.03c.2,0,.37.18.37.4,0,.22-.17.4-.37.4Z"/>
        </g>
        <g>
          <path class="cls-2" d="M96.23,370.7l22.8,1.21c5.12-16.58,10.17-76.03,10.69-93.87.62-21.32,8.26-74.84,1.51-85.98s-37.29-2.27-37.29-2.27c0,0,3.81,65.17,2.28,85.95-1.32,18.01-3.36,70.96,0,94.96Z"/>
          <polygon class="cls-11" points="121.49 365.91 120.01 373.53 95.3 372.73 94.4 365.41 121.49 365.91"/>
          <path class="cls-2" d="M141.77,370.7l22.6,1.21c2.75-18.35,13.81-85.19,12.9-98-1.11-15.64-14.2-83.33-19.07-88.55-4.87-5.22-40.51,8.31-40.51,8.31,0,0,14.65,58.21,26.2,83.39,2.4,5.23-3.98,71.31-2.12,93.64Z"/>
          <polygon class="cls-11" points="166.96 366.48 165.81 373.53 140.69 371.92 140.18 364.54 166.96 366.48"/>
          <polygon class="cls-20" points="131.95 245 125.32 222.82 113.54 218.97 122.74 226.11 130.15 266.55 131.95 245"/>
        </g>
        <g>
          <g>
            <path class="cls-2" d="M144.65,48.5c0,.96.42,1.68,1.02,1.78.6.1,1.16-.71,1.21-1.68s-.4-1.68-1.01-1.78c-.6-.1-1.11.76-1.23,1.68Z"/>
            <path class="cls-1" d="M145.04,48.37c.34,3.09,1.1,6.11,2.27,8.98-1.51.56-3.2.42-4.6-.37l2.33-8.61Z"/>
            <path class="cls-2" d="M142.92,45.43c-.12.01-.25-.02-.35-.08-.22-.21-.22-.57,0-.78,0,0,0,0,0,0,1.12-1.4,2.85-2.16,4.63-2.05.3.03.51.29.49.58,0,0,0,0,0,0h0c-.05.3-.32.51-.62.49h0c-1.42-.06-2.77.56-3.64,1.68-.13.14-.32.2-.5.17Z"/>
          </g>
          <g>
            <path class="cls-19" d="M145.06,61.22c-.13.51-.28,1.01-.46,1.51-1.03,2.82-2.9,5.27-5.36,7.02-.62.45-1.28.85-1.96,1.19-5.37,2.83-12,1.79-16.22-2.53-5.43-5.39-5.29-11.61-5.9-22.14-.16-2.26.21-4.53,1.1-6.63,3.11-7.36,11.7-10.84,19.18-7.78,0,0,0,0,0,0,10.47,4.21,11.91,19.87,9.63,29.37Z"/>
            <path class="cls-13" d="M139.19,69.75c-.62.45-1.28.85-1.96,1.19-3.64,1.91-7.95,2.09-11.74.51.48-1.27,1.13-2.47,1.92-3.57,4.03-.5,8.12.15,11.78,1.88Z"/>
            <path class="cls-19" d="M117.62,83.41c5.29,4.72,18.22,2.98,18.22,2.98,0,0,8.07-2.18,6.37-4.65-4.74-.77-7.05-2.95-8.01-5.75-.51-1.73-.68-3.54-.48-5.34.08-1,.21-1.99.4-2.98l-15.99-11.64c2.09,7.68,4.65,21.81-.52,27.38Z"/>
            <path class="cls-2" d="M139.19,51.63l2.31.85-1.15-4.64s3.38-5.07,0-9.47c0,0,9.33-2.79,4.06-7.61-1.96-1.8-4.4,0-10.84-2.75-3.49-1.51-14.43-1.62-14.97,2.75,0,0-7.88,0-8.73,13.18-.5,7.82,2.55,15.45,8.34,20.84,0,0,9.51,2.21,14.18-1.55,4.67-3.75,6.79-11.61,6.79-11.61Z"/>
            <path class="cls-19" d="M133.11,52.38c.41,2.01,1.71,3.73,3.56,4.68,2.18.91,3.62-2.1,3.3-5.27-.3-2.81-1.78-6.77-4.11-6.24-2.33.53-3.51,3.99-2.75,6.83Z"/>
          </g>
        </g>
        <g>
          <path class="cls-11" d="M101.37,80.88s-3.71,1.13-5.56,1.81c-3.85,1.41-6.39,5.7-7.79,9.91-3.41,10.29-8.91,34.64-8.91,34.64l19.97,4.2,10.65-22.95-8.37-27.61Z"/>
          <path class="cls-18" d="M101.37,80.88s-5.34.99-8.16,3.32c-2.14,1.77-3.85,4.34-5.19,8.4-3.41,10.29-8.91,34.64-8.91,34.64l19.97,4.2,10.65-22.95-8.37-27.61Z"/>
          <path class="cls-11" d="M149.74,82.06c-5.89-.63-24.01-4.73-48.37-1.18l-5.7,90.07s-.73,13.78-2.89,25.61c24.76,10.63,54.04,7.59,70.6-1.35-.19.38-.73-9.45-1.58-23.85-1.5-25.37-3.95-64.93-7.11-87.83-.09-.57-4.36-1.41-4.95-1.47Z"/>
          <g class="cls-22">
            <path class="cls-17" d="M149.74,82.06c-5.89-.63-24.01-4.73-48.37-1.18l-5.7,90.07s-.73,13.78-2.89,25.61c24.76,10.63,54.04,7.59,70.6-1.35-.19.38-.73-9.45-1.58-23.85-1.5-25.37-3.95-64.93-7.11-87.83-.09-.57-4.36-1.41-4.95-1.47Z"/>
          </g>
          <g>
            <path class="cls-11" d="M117.36,79.94c.7-2.09,1.68-3.57,2.94-4.42l13.57,1.05,6.36,4.19-22.87-.82Z"/>
            <path class="cls-18" d="M117.36,79.94c.7-2.09,1.68-3.57,2.94-4.42l13.57,1.05,6.36,4.19-22.87-.82Z"/>
          </g>
          <path class="cls-13" d="M149.11,110.09c2.17,10.14,5.3,30.03,11.19,36.96l-1.4-20.13-9.79-16.84Z"/>
          <polygon class="cls-13" points="97.81 131.15 98.34 105.14 92.88 129.91 97.81 131.15"/>
        </g>
        <g>
          <path class="cls-19" d="M159.51,118.11c-.76.29,13.93,33.34,19.91,33.64,5.98.3,34.06-12.48,34.06-12.48l-6.3-7.52-21.22,1.22-10.83-23.04-15.62,8.19Z"/>
          <g>
            <path class="cls-11" d="M152.12,83.19c-7.62,5.03-11.39,16.42,9.03,51.6l22.06-13.47c-4.46-8.23-9.19-14.22-14.44-26.14-10.59-15.25-16.65-11.99-16.65-11.99Z"/>
            <path class="cls-18" d="M152.12,83.19c-7.62,5.03-11.39,16.42,9.03,51.6l22.06-13.47c-4.46-8.23-9.19-14.22-14.44-26.14-10.59-15.25-16.65-11.99-16.65-11.99Z"/>
          </g>
          <path class="cls-19" d="M223.37,131.53c0-1.93-.59-4.03-1.63-4.09-1.04-.06-6.59,0-6.59,0h0c0-1.56,2.92-3.26,1.97-4.32-1.24-1.39-8.43,4.54-8.88,5.75-.89,2.37-1.34,2.97-1.34,2.97l3.8,8.72s7.03,4.63,8.66,3c1.63-1.63,1.48-3.38,1.48-3.38,0,0,1.63-2.26,1.48-3.75-.15-1.48,1.04-2.97,1.04-4.9Z"/>
        </g>
      </g>
    </g>
  </g>
</svg>