<svg width="1920" height="1000" viewBox="0 0 1920 1000" fill="none" xmlns="http://www.w3.org/2000/svg">
<path d="M1919.89 865.487V1039.49H1658.14L1709.14 772.291C1707.5 782.839 1740.15 802.618 1784.82 822.449C1800.85 829.569 1818.73 836.637 1837.82 843.335C1868.62 854.2 1897 861.584 1919.89 865.487Z" fill="#1F4298"/>
<path d="M1919.89 813.166V859.738C1897 855.835 1868.68 848.504 1837.77 837.639C1764.94 812.059 1708.87 780.466 1712.04 766.278C1712.09 766.067 1712.14 765.856 1712.2 765.698C1717.1 751.826 1781.6 761.425 1855.44 787.322C1879.17 795.656 1900.58 804.253 1918.57 812.533C1918.99 812.744 1919.41 812.955 1919.89 813.166Z" fill="#1F4298"/>
<path d="M1883.97 410C1858.45 410 1837.77 430.675 1837.77 456.15V582.627C1837.77 608.102 1817.1 628.777 1791.62 628.777H1606.61C1632.14 628.777 1652.76 608.102 1652.76 582.627V456.15C1652.76 430.622 1673.43 410 1698.91 410H1883.97Z" fill="white" stroke="#FFCF2D" stroke-width="5" stroke-miterlimit="10"/>
<path d="M1803.07 475.454H1685.25V584.79H1803.07V475.454Z" fill="white" stroke="#FFCF2D" stroke-width="5" stroke-miterlimit="10"/>
<path d="M1803.02 491.066H1685.25" stroke="#FFCF2D" stroke-width="5" stroke-miterlimit="10"/>
<path d="M1803.02 506.678H1685.25" stroke="#FFCF2D" stroke-width="5" stroke-miterlimit="10"/>
<path d="M1803.02 522.342H1685.25" stroke="#FFCF2D" stroke-width="5" stroke-miterlimit="10"/>
<path d="M1803.02 537.954H1685.25" stroke="#FFCF2D" stroke-width="5" stroke-miterlimit="10"/>
<path d="M1803.02 553.619H1685.25" stroke="#FFCF2D" stroke-width="5" stroke-miterlimit="10"/>
<path d="M1803.02 569.23H1685.25" stroke="#FFCF2D" stroke-width="5" stroke-miterlimit="10"/>
<path d="M1837.77 456.15C1837.77 430.781 1858.23 410.211 1883.5 410C1908.81 410.211 1929.22 430.781 1929.22 456.15H1837.77Z" fill="#66B0F0" stroke="#FFCF2D" stroke-width="5" stroke-miterlimit="10"/>
<path d="M1791.83 629.938C1791.78 629.938 1791.68 629.938 1791.62 629.938H1607.3C1607.19 629.938 1607.09 629.938 1606.98 629.938C1588.05 629.674 1571.86 617.965 1565 601.404H1749.7C1756.6 617.965 1772.8 629.674 1791.83 629.938Z" fill="#FFCF2D"/>
<path d="M1692.95 462.901H1671.64V445.812H1681.66V455.306C1681.66 455.517 1681.77 455.675 1681.87 455.728L1681.92 455.781L1692.95 462.901Z" fill="#1F4298"/>
<path d="M1701.23 451.719V453.987C1701.23 454.409 1701.17 454.831 1701.17 455.253C1701.17 455.359 1701.12 455.517 1701.12 455.622C1701.07 455.833 1701.07 456.044 1701.02 456.255C1700.44 459.156 1698.7 461.53 1696.53 462.426C1696.38 462.479 1696.22 462.532 1696.06 462.584C1695.8 462.69 1695.48 462.743 1695.22 462.795C1695.11 462.795 1695 462.848 1694.9 462.848L1682.82 454.99C1682.93 453.144 1684.09 451.667 1685.46 451.667H1701.23V451.719Z" fill="#1F4298"/>
<path d="M1818.89 445.812V462.901H1797.58L1808.55 455.781L1808.61 455.728C1808.66 455.675 1808.66 455.675 1808.71 455.675C1808.71 455.622 1808.76 455.622 1808.76 455.57C1808.76 455.57 1808.76 455.517 1808.82 455.517C1808.82 455.464 1808.82 455.464 1808.87 455.464C1808.87 455.464 1808.87 455.464 1808.87 455.411C1808.87 455.359 1808.87 455.359 1808.87 455.306V445.812H1818.89Z" fill="#1F4298"/>
<path d="M1807.81 455.042L1795.74 462.901C1795.42 462.848 1795.1 462.795 1794.79 462.743C1794.68 462.69 1794.58 462.69 1794.47 462.637C1794.31 462.584 1794.21 462.532 1794.05 462.479C1793.94 462.426 1793.79 462.373 1793.68 462.321C1792.05 461.424 1790.67 459.684 1789.99 457.521C1789.88 457.205 1789.78 456.888 1789.73 456.572C1789.67 456.466 1789.67 456.308 1789.62 456.15C1789.51 455.464 1789.41 454.778 1789.41 454.04V451.772H1805.23C1806.55 451.719 1807.71 453.196 1807.81 455.042Z" fill="#1F4298"/>
<path d="M1807.81 437.162V452.036C1807.71 451.93 1807.6 451.772 1807.5 451.667C1807.29 451.456 1807.08 451.298 1806.87 451.139C1806.34 450.823 1805.76 450.612 1805.18 450.612H1685.41C1684.77 450.612 1684.19 450.823 1683.72 451.139C1683.51 451.298 1683.3 451.456 1683.08 451.667C1682.98 451.772 1682.87 451.878 1682.77 452.036V437.162C1682.77 435.158 1683.93 433.576 1685.41 433.576H1805.18C1806.6 433.576 1807.81 435.211 1807.81 437.162Z" fill="#1F4298"/>
<path d="M1919.89 652.986V859.738H1919.83C1896.95 855.835 1868.62 848.504 1837.72 837.639C1818.63 830.941 1800.75 823.82 1784.71 816.753L1793.31 768.757L1807.92 687.269C1762.09 672.923 1754.65 628.83 1754.65 628.83H1791.52C1817.04 628.83 1837.67 608.155 1837.67 582.68V567.49H1813.99C1797.37 567.49 1783.87 551.14 1783.87 534.526V529.146H1836.51C1846.26 529.146 1855.44 533.735 1861.29 541.541L1899.79 592.965C1912.87 610.265 1919.89 631.309 1919.89 652.986Z" fill="#798EC1"/>
<path d="M1919.89 813.166V859.738H1919.83C1896.95 855.835 1868.62 848.504 1837.72 837.639C1818.63 830.941 1800.75 823.82 1784.71 816.753L1793.31 768.757C1812.3 773.398 1833.39 779.675 1855.33 787.375C1879.07 795.708 1900.48 804.305 1918.41 812.586C1918.99 812.744 1919.41 812.955 1919.89 813.166Z" fill="#798EC1"/>
<path d="M1840.09 567.49H1814.67C1798.06 567.49 1784.56 551.14 1784.56 534.526V529.146H1840.09V567.49Z" fill="#798EC1"/>
<path d="M1824.11 618.861C1824.11 618.861 1860.77 632.627 1864.09 679.938" stroke="#D2D9EA" stroke-width="5" stroke-miterlimit="10"/>
<path d="M1808.03 688.376H1832.97" stroke="#D2D9EA" stroke-width="5" stroke-miterlimit="10"/>
<path d="M1795.97 111.431L1812.69 100.355C1834.47 85.9564 1863.64 100.197 1865.7 126.199L1869.33 172.244C1871.34 197.508 1899.13 211.906 1920.91 198.984L1931.46 192.708" stroke="#FFCF2D" stroke-width="6" stroke-miterlimit="10"/>
<path d="M1553 -59.6138L1767.81 65.0703L1875.98 307.951L1751.88 224.354L1617.03 66.3362L1553 -59.6138Z" fill="#1F4298"/>
<path d="M1553.58 -68L1772.93 59.374L1883.42 307.371" stroke="#FFCF2D" stroke-width="6" stroke-miterlimit="10"/>
<path d="M1749.64 229.718C1759.68 221.243 1737.12 178.016 1699.26 133.167C1661.4 88.3181 1622.57 58.831 1612.53 67.3058C1602.49 75.7806 1625.05 119.008 1662.91 163.857C1700.77 208.706 1739.6 238.193 1749.64 229.718Z" fill="white"/>
<path d="M1743.54 232.31C1753.38 224.005 1731.25 181.618 1694.12 137.637C1656.99 93.6563 1618.92 64.7359 1609.08 73.0415C1599.25 81.3472 1621.37 123.734 1658.5 167.715C1695.63 211.696 1733.7 240.616 1743.54 232.31Z" fill="#1F4298" stroke="#FFCF2D" stroke-width="5" stroke-miterlimit="10"/>
<path d="M1769.71 212.645L1749.25 229.892C1753.04 226.674 1752.2 218.552 1747.61 207.212C1740.07 188.541 1722.4 161.273 1698.88 133.32C1675.3 105.419 1651.36 83.4249 1634.22 72.8763C1623.83 66.4417 1615.92 64.2264 1612.12 67.4438L1632.58 50.1969C1642.61 41.7053 1683.22 69.448 1721.08 114.332C1758.95 159.216 1779.78 204.206 1769.71 212.645Z" fill="#001D65"/>
<path d="M1361.37 926.038V1149.35H1107L1139.59 906.839C1139.59 916.65 1189.22 928.886 1250.45 934.16C1311.68 939.487 1361.37 935.848 1361.37 926.038Z" fill="#1F4298"/>
<path d="M1360.2 920.289C1360.2 930.099 1311 933.738 1250.35 928.411C1189.7 923.084 1140.49 910.847 1140.49 901.09C1140.49 891.28 1189.7 887.641 1250.35 892.968C1311.05 898.242 1360.2 910.478 1360.2 920.289Z" fill="#1F4298"/>
<path d="M1281.2 757.946V930.415C1271.44 929.993 1261.05 929.36 1250.35 928.411C1210.85 924.983 1176.25 918.548 1156.89 911.797L1159.79 892.704L1169.5 828.621H1156.94C1139.07 828.621 1124.62 814.17 1124.62 796.29V732.788C1124.62 720.235 1129.15 708.157 1137.43 698.716L1178.73 651.511C1181.42 648.452 1186.48 650.35 1186.48 654.412V718.6C1186.48 726.3 1183.74 733.737 1178.73 739.591L1175.03 743.916H1219.86C1226.35 743.916 1230.15 736.691 1226.51 731.311C1220.97 723.241 1213.69 711.743 1206.78 698.452C1193.02 672.133 1216.91 657.418 1216.91 657.418L1271.6 728.357C1277.82 736.954 1281.2 747.345 1281.2 757.946Z" fill="#798EC1"/>
<path d="M1186.48 650.983V718.6C1186.48 726.3 1183.74 733.737 1178.73 739.591L1175.03 743.916" stroke="white" stroke-width="5" stroke-miterlimit="10" stroke-linecap="round"/>
<path d="M1175.03 743.864L1145.39 777.144" stroke="white" stroke-width="5" stroke-miterlimit="10" stroke-linecap="round"/>
<path d="M1186.48 689.222C1186.48 696.923 1183.74 704.359 1178.73 710.214L1175.03 714.539L1145.45 747.767" stroke="white" stroke-width="5" stroke-miterlimit="10" stroke-linecap="round"/>
<path d="M1186.48 659.897C1186.48 667.597 1183.74 675.034 1178.73 680.889L1175.03 685.213L1145.45 718.441" stroke="white" stroke-width="5" stroke-miterlimit="10" stroke-linecap="round"/>
<path d="M1169.5 830.362H1192.23" stroke="white" stroke-width="5" stroke-miterlimit="10" stroke-linecap="round"/>
<path d="M1281.2 896.343V930.415C1271.44 929.993 1261.05 929.36 1250.35 928.411C1210.85 924.982 1176.25 918.548 1156.89 911.797L1159.79 892.704C1179.62 889.803 1212.8 889.645 1250.4 892.915C1261.05 893.917 1271.39 895.024 1281.2 896.343Z" fill="#798EC1"/>
<path d="M1402.81 79.385L1227.24 259.449L1024.82 36.294L1245.75 -119.192L1402.81 79.385Z" fill="#1F4298"/>
<path d="M1220.38 268.099L1008 35.2919L1240.9 -128" stroke="#FFCF2D" stroke-width="6" stroke-miterlimit="10"/>
<path d="M1223.81 70.1022L1237.05 68.1507C1258.83 64.9334 1279.03 80.0179 1282.25 101.748L1293.8 180.44C1297.7 206.97 1326.18 222.16 1350.39 210.556L1405.61 184.132" stroke="#FFCF2D" stroke-width="6" stroke-miterlimit="10"/>
<path d="M1476.01 199.217C1481.66 202.276 1486.98 205.44 1491.84 208.605C1490.99 213.194 1489.41 217.729 1487.09 222.107C1484.77 226.432 1481.82 230.282 1478.44 233.5C1473.11 231.179 1467.52 228.489 1461.88 225.43C1433.66 210.187 1413.99 191.991 1417.9 184.765C1421.8 177.539 1447.8 183.974 1476.01 199.217Z" fill="#FFCF2D"/>
<path d="M1411.88 189.037C1415.41 189.037 1418.26 186.18 1418.26 182.655C1418.26 179.131 1415.41 176.273 1411.88 176.273C1408.36 176.273 1405.5 179.131 1405.5 182.655C1405.5 186.18 1408.36 189.037 1411.88 189.037Z" stroke="#1F4298" stroke-width="6" stroke-miterlimit="10"/>
<path d="M797.658 884.067V1078.64H570.347V964.553C571.186 965.568 572.392 966.401 573.899 967.069C576.152 968.069 579.131 968.725 582.716 969.066C589.889 969.749 599.602 969.182 611.071 967.472C634.016 964.051 664.087 956.036 695.125 944.159L695.125 944.159C723.045 933.47 747.795 921.551 766.114 910.483C775.272 904.949 782.834 899.622 788.383 894.76C792.797 890.893 795.981 887.284 797.658 884.067Z" fill="#1F4298" stroke="#1F4298"/>
<path d="M797.684 875.653L797.682 875.66L797.68 875.667C796.629 879.149 793.214 883.432 787.701 888.259C782.208 893.068 774.699 898.362 765.57 903.878C747.313 914.909 722.619 926.803 694.715 937.476L694.715 937.476C663.756 949.333 633.77 957.325 610.91 960.734C599.477 962.439 589.851 962.993 582.787 962.322C579.254 961.985 576.39 961.345 574.268 960.406C572.146 959.467 570.821 958.255 570.26 956.803C569.702 955.355 569.888 953.628 570.864 951.609C571.842 949.589 573.587 947.33 576.048 944.875C580.968 939.967 588.661 934.36 598.474 928.402C618.093 916.489 646.095 903.223 677.088 891.363L677.088 891.363C708.05 879.504 737.089 871.407 758.992 867.893C769.948 866.135 779.092 865.529 785.789 866.161C789.139 866.478 791.848 867.101 793.858 868.026C795.866 868.95 797.133 870.153 797.691 871.613L797.694 871.62C798.17 872.81 798.181 874.163 797.684 875.653Z" fill="#1F4298" stroke="#1F4298"/>
<path d="M749.796 744.798V912.204L737.191 918.586C724.428 924.81 710.135 930.981 694.946 936.782C667.047 947.489 639.885 955.031 618.051 958.934L630.603 909.62L651.066 829.134C641.362 829.134 632.185 824.809 626.015 817.32L542 721.75C556.398 708.617 577.916 726.497 577.916 726.497L569.847 685.304C567.948 675.547 570.796 665.421 577.494 658.089L603.02 630.083C608.083 624.545 617.207 626.707 619.317 633.88L637.459 696.486C637.459 696.486 682.499 730.874 690.938 730.874C700.484 730.874 703.806 723.121 685.98 697.646C672.584 678.501 685.98 664.524 685.98 664.524L729.596 701.233C742.412 712.098 749.796 728.026 749.796 744.798Z" fill="white" stroke="#798EC1" stroke-width="5" stroke-miterlimit="10"/>
<path d="M653.651 735.041L621.743 709.513L604.286 649.281C602.282 642.372 593.791 640.315 588.939 645.642" stroke="#798EC1" stroke-width="5" stroke-miterlimit="10"/>
<path d="M632.766 746.275L605.024 723.701L588.517 666.686C586.618 660.146 578.285 658.195 573.697 663.258" stroke="#798EC1" stroke-width="5" stroke-miterlimit="10"/>
<path d="M608.242 752.024L577.863 726.549" stroke="#798EC1" stroke-width="5" stroke-miterlimit="10"/>
<path d="M651.066 829.134H686.56" stroke="#798EC1" stroke-width="5" stroke-miterlimit="10"/>
<path d="M677.14 891.363L677.14 891.363C703.705 881.238 728.866 873.803 749.296 869.671V913.011C733.655 921.287 715.047 929.667 694.767 937.476C667.165 948.048 640.342 955.53 618.623 959.465L631.03 911.077C644.992 904.366 660.621 897.656 677.14 891.363Z" fill="#798EC1" stroke="#D2D9EA"/>
<path d="M622.217 195.229L638.25 230.408C639.78 243.436 630.497 255.198 617.47 256.78C604.444 258.309 595.162 270.124 596.691 283.151L599.011 302.666" stroke="#FFCF2D" stroke-width="6" stroke-miterlimit="10"/>
<path d="M807.757 82.201L892.246 -49.6561L601.649 -51.9768L506.453 201.505L663.618 194.121L807.757 82.201Z" fill="#1F4298"/>
<path d="M895.727 -59.5717L591.892 -63L491 203.035" stroke="#FFCF2D" stroke-width="6" stroke-miterlimit="10"/>
<path d="M802.535 62.4224C819.412 91.3783 790.721 139.585 738.403 170.071C686.085 200.556 630.023 201.769 613.146 172.813C610.825 168.858 609.401 164.585 608.716 159.997C604.496 131.041 632.079 91.4838 677.278 65.1651C722.476 38.8464 770.469 34.3105 793.569 52.2431C797.208 55.0912 800.215 58.4667 802.535 62.4224Z" fill="#1F4298" stroke="white" stroke-width="6" stroke-miterlimit="10"/>
<path d="M789.139 39.4267L802.535 62.4225C800.215 58.4668 797.209 55.0913 793.57 52.2432C770.469 34.3106 722.476 38.8465 677.278 65.1652C632.08 91.4839 604.549 131.041 608.716 159.997C609.349 164.585 610.825 168.858 613.146 172.813L599.75 149.817C582.873 120.862 611.564 72.6547 663.882 42.1693C716.147 11.7367 772.262 10.4708 789.139 39.4267Z" stroke="white" stroke-width="5" stroke-miterlimit="10" stroke-linecap="round"/>
<path d="M594.476 373.764C592.419 379.829 590.204 385.631 587.883 390.958C583.19 390.905 578.443 390.114 573.802 388.532C569.108 386.949 564.889 384.734 561.092 381.939C562.463 376.295 564.15 370.335 566.207 364.27C576.439 333.89 590.995 311.421 598.801 314.006C606.606 316.643 604.655 343.384 594.476 373.764Z" fill="#FFCF2D"/>
<path d="M599.855 314.111C603.38 314.111 606.237 311.254 606.237 307.73C606.237 304.205 603.38 301.348 599.855 301.348C596.331 301.348 593.474 304.205 593.474 307.73C593.474 311.254 596.331 314.111 599.855 314.111Z" stroke="#1F4298" stroke-width="6" stroke-miterlimit="10"/>
<path d="M228.475 914.835V1130.71H-8.64404V812.988C-4.00292 828.547 45.6254 860.984 107.226 888.094C172.782 917.05 227.104 928.97 228.475 914.835Z" fill="#1F4298"/>
<path d="M228.475 909.086C227.051 923.221 172.782 911.248 107.226 882.345C45.6254 855.183 -4.00287 822.746 -8.64399 807.239C-8.96043 806.237 -9.06593 805.288 -8.96045 804.444C-7.58921 790.309 46.733 802.281 112.289 831.185C177.845 860.088 229.899 894.951 228.475 909.086Z" fill="#1F4298"/>
<path d="M88.134 599.433C93.7771 587.829 105.538 580.445 118.459 580.445H155.747L157.698 730.341L183.699 868.105L191.979 911.881C170.039 907.029 140.083 896.85 107.279 882.398C88.7141 874.223 65.4558 862.092 49.9502 853.548V671.163C49.9502 668.684 50.4249 666.205 51.2687 663.885L88.134 599.433Z" fill="#798EC1"/>
<path d="M191.926 911.882C169.986 907.029 140.03 896.85 107.226 882.398C88.6613 874.223 65.403 862.092 49.8975 853.548V807.714C66.827 813.147 91.8785 822.219 112.289 831.185C139.819 843.316 163.869 855.816 183.699 868.105L191.926 911.882Z" fill="#798EC1"/>
<path d="M330.791 411.932L132.436 776.912C125.105 790.415 104.905 793.632 87.3429 784.085C69.7805 774.539 61.5003 755.868 68.8312 742.313L267.186 377.333L330.791 411.932Z" fill="white" stroke="#FFCF2D" stroke-width="5" stroke-miterlimit="10"/>
<path d="M330.754 412.021C338.097 398.508 329.819 379.818 312.263 370.277C294.707 360.735 274.522 363.954 267.179 377.467C259.835 390.98 268.114 409.67 285.669 419.212C303.225 428.753 323.41 425.534 330.754 412.021Z" fill="#66B0F0" stroke="#FFCF2D" stroke-width="5" stroke-miterlimit="10"/>
<path d="M201.208 551.648L294.927 475.118L293.451 502.333L323.46 509.822L255.109 552.017C273.462 548.852 295.56 546.268 313.756 547.692C335.432 549.38 328.154 574.749 320.032 596.426C339.018 594.58 402.675 556.025 426.672 563.304C441.334 567.734 436.06 597.639 431.84 614.148C437.958 614.464 468.917 614.095 468.917 614.095L452.567 629.021L461.533 643.948C426.725 645.477 426.303 639.992 430.68 615.308C431.419 588.462 401.673 614.253 338.333 629.391C306.952 636.88 311.013 616.469 318.766 595.213C315.654 585.456 292.396 574.854 217.663 594.369L201.208 551.648Z" fill="#1F4298"/>
<path d="M202.58 598.272C217.872 598.272 230.268 585.875 230.268 570.582C230.268 555.289 217.872 542.892 202.58 542.892C187.288 542.892 174.891 555.289 174.891 570.582C174.891 585.875 187.288 598.272 202.58 598.272Z" fill="white" stroke="#1F4298" stroke-width="5" stroke-miterlimit="10"/>
<path d="M193.034 580.445V582.186C193.034 599.907 178.688 614.306 160.915 614.306H127.214V580.445H193.034Z" fill="#798EC1"/>
<path d="M234.065 645.477L225.152 666.363L214.763 690.783L209.119 704.022L200.523 724.222C200.312 724.75 199.995 725.33 199.732 725.804C199.732 725.857 199.679 725.857 199.679 725.91C196.936 730.657 191.61 733.61 185.756 733.61H117.457C109.177 733.61 103.534 725.752 106.593 718.526L111.55 706.87L122.468 681.237L131.855 659.137L140.135 639.728C142.562 634.032 148.416 630.287 154.955 630.287H223.254C231.481 630.393 237.124 638.251 234.065 645.477Z" fill="#798EC1"/>
<path d="M134.703 659.243C137.551 656.078 141.665 654.18 146.095 654.18H211.334C218.191 654.18 223.148 660.087 222.463 666.363" stroke="#D2D9EA" stroke-width="5" stroke-miterlimit="10" stroke-linecap="round"/>
<path d="M125.843 681.342C128.638 678.547 132.488 676.912 136.655 676.912H201.894C209.383 676.912 214.552 683.874 212.653 690.73" stroke="#D2D9EA" stroke-width="5" stroke-miterlimit="10" stroke-linecap="round"/>
<path d="M115.611 706.922C118.407 704.285 122.151 702.756 126.159 702.756H191.399C199.099 702.756 204.425 710.245 201.947 717.313" stroke="#D2D9EA" stroke-width="5" stroke-miterlimit="10" stroke-linecap="round"/>
<path d="M-16.1937 104.397C-20.5711 99.7032 -24.9485 95.3256 -29.2732 91.4226C-33.4924 93.3741 -37.5006 96.064 -41.1397 99.4395C-44.726 102.815 -47.7322 106.613 -50 110.674C-46.4137 115.262 -42.4054 119.956 -38.028 124.651C-16.1936 148.121 6.32632 162.625 12.3914 157.035C18.4038 151.444 5.64066 127.868 -16.1937 104.397Z" fill="#FFCF2D"/>
<path d="M137.069 290.263L144.03 294.588C169.293 310.253 218.499 276.55 253.888 219.324C289.329 162.098 297.557 103.079 272.347 87.414L265.174 82.9836L222.508 208.512L137.069 290.263Z" fill="#1F4298"/>
<path d="M66.3971 357.932L137.069 290.263L222.56 208.459L265.227 82.9836L303.358 -29.2004L125.782 113.891L66.3971 357.932Z" fill="#1F4298" stroke="white" stroke-width="6" stroke-miterlimit="10"/>
<path d="M60.8593 351.234L119.823 107.615L299.613 -34" stroke="#FFCF2D" stroke-width="6" stroke-miterlimit="10"/>
<path d="M160.221 185.41C164.757 166.634 153.207 147.699 134.432 143.163C116.606 138.838 98.5157 149.018 92.9252 166.423L78.1053 214.261C69.9306 240.737 31.7996 238.681 26.4728 211.465L17.929 167.53" stroke="#FFCF2D" stroke-width="6" stroke-miterlimit="10"/>
<path d="M15.9249 168.744C12.4004 168.744 9.54334 165.886 9.54334 162.362C9.54334 158.837 12.4004 155.98 15.9249 155.98C19.4493 155.98 22.3064 158.837 22.3064 162.362C22.3064 165.886 19.4493 168.744 15.9249 168.744Z" stroke="#1F4298" stroke-width="6" stroke-miterlimit="10"/>
</svg>
