<svg width="425" height="1000" viewBox="0 0 425 1000" fill="none" xmlns="http://www.w3.org/2000/svg">
<path d="M361.039 930.334V1157.54H95.9542V1024.25C96.9247 1025.51 98.3716 1026.53 100.21 1027.35C102.825 1028.51 106.287 1029.27 110.46 1029.67C118.81 1030.46 130.123 1029.8 143.487 1027.81C170.221 1023.82 205.261 1014.48 241.43 1000.64L241.273 1000.23L241.43 1000.64C273.966 988.185 302.806 974.294 324.15 961.397C334.821 954.948 343.63 948.742 350.092 943.079C355.376 938.449 359.138 934.144 361.039 930.334Z" fill="#1F4298" stroke="#1F4298"/>
<path d="M361.065 920.898L361.062 920.905L361.06 920.911C359.828 924.994 355.833 929.998 349.406 935.626C342.999 941.236 334.244 947.409 323.602 953.84C302.32 966.7 273.536 980.566 241.011 993.007L241.01 993.007C204.926 1006.83 169.972 1016.15 143.323 1020.12C129.995 1022.11 118.77 1022.76 110.528 1021.97C106.405 1021.58 103.057 1020.83 100.574 1019.73C98.089 1018.63 96.5233 1017.21 95.8589 1015.49C95.1964 1013.77 95.4217 1011.73 96.5654 1009.37C97.7101 1007 99.7514 1004.36 102.623 1001.49C108.364 995.767 117.335 989.229 128.774 982.282C151.645 968.394 184.284 952.93 220.408 939.105L220.408 939.105C256.497 925.281 290.346 915.841 315.88 911.744C328.651 909.695 339.316 908.988 347.131 909.726C351.04 910.095 354.207 910.823 356.562 911.906C358.914 912.988 360.412 914.404 361.072 916.132L361.075 916.139C361.638 917.548 361.649 919.145 361.065 920.898Z" fill="#1F4298" stroke="#1F4298"/>
<path d="M305.175 768.352V963.474L290.485 970.912C275.61 978.167 258.953 985.359 241.251 992.121C208.735 1004.6 177.08 1013.39 151.634 1017.94L166.262 960.462L190.111 866.65C178.801 866.65 168.106 861.61 160.915 852.88L63 741.487C79.7801 726.18 104.858 747.02 104.858 747.02L95.4539 699.008C93.2412 687.635 96.5603 675.832 104.366 667.287L134.116 634.643C140.017 628.188 150.65 630.709 153.109 639.069L174.253 712.04C174.253 712.04 226.745 752.122 236.579 752.122C247.704 752.122 251.577 743.086 230.801 713.393C215.189 691.077 230.801 674.787 230.801 674.787L281.634 717.573C296.57 730.237 305.175 748.803 305.175 768.352Z" fill="white" stroke="#798EC1" stroke-width="5" stroke-miterlimit="10"/>
<path d="M193.123 756.979L155.936 727.225L135.591 657.02C133.255 648.967 123.359 646.569 117.705 652.778" stroke="#798EC1" stroke-width="5" stroke-miterlimit="10"/>
<path d="M168.783 770.073L136.452 743.761L117.213 677.307C115 669.684 105.289 667.409 99.941 673.311" stroke="#798EC1" stroke-width="5" stroke-miterlimit="10"/>
<path d="M140.201 776.774L104.797 747.081" stroke="#798EC1" stroke-width="5" stroke-miterlimit="10"/>
<path d="M190.111 866.65H231.478" stroke="#798EC1" stroke-width="5" stroke-miterlimit="10"/>
<path d="M220.469 939.105L220.469 939.105C251.475 927.285 280.842 918.611 304.675 913.798V964.464C286.434 974.12 264.728 983.897 241.071 993.007C208.845 1005.35 177.528 1014.08 152.188 1018.66L166.689 962.102C182.972 954.273 201.202 946.446 220.469 939.105Z" fill="#798EC1" stroke="#D2D9EA"/>
<path d="M113.014 290.105L118.348 330.023C115.93 343.471 103.119 352.386 89.6565 350.022C76.2099 347.605 63.3832 356.572 60.9653 370.021L57.3725 390.175" stroke="#FFCF2D" stroke-width="6" stroke-miterlimit="10"/>
<path d="M332.143 233.582L456.255 127.714L167.322 37.469L-4.26655 261.332L154.613 301.528L332.143 233.582Z" fill="#1F4298"/>
<path d="M462.725 118.883L160.934 23.5286L-20.1309 258.181" stroke="#FFCF2D" stroke-width="6" stroke-miterlimit="10"/>
<path d="M332.925 212.287C340.983 246.256 297.799 285.627 236.429 300.184C175.058 314.74 118.814 298.986 110.756 265.016C109.64 260.371 109.514 255.681 110.219 250.9C114.776 220.761 154.239 189.677 207.252 177.119C260.265 164.561 309.472 174.562 327.069 199.427C329.834 203.367 331.809 207.642 332.925 212.287Z" fill="#1F4298" stroke="white" stroke-width="6" stroke-miterlimit="10"/>
<path d="M326.532 185.311L332.925 212.286C331.809 207.641 329.834 203.367 327.069 199.427C309.472 174.562 260.265 164.561 207.252 177.119C154.239 189.677 114.829 220.776 110.219 250.9C109.461 255.665 109.64 260.37 110.756 265.016L104.363 238.04C96.305 204.071 139.489 164.7 200.859 150.143C262.161 135.623 318.474 151.341 326.532 185.311Z" stroke="white" stroke-width="5" stroke-miterlimit="10" stroke-linecap="round"/>
<path d="M31.3365 459.672C27.451 465.095 23.4875 470.208 19.5626 474.816C14.9002 473.343 10.4088 471.118 6.26188 468.137C2.06239 465.139 -1.47246 461.654 -4.41124 457.719C-1.33671 452.508 2.14894 447.078 6.03451 441.655C25.4257 414.468 46.7332 396.477 53.7308 401.415C60.7124 406.405 50.6752 432.469 31.3365 459.672Z" fill="#FFCF2D"/>
<path d="M54.75 401.838C58.2628 402.905 61.9751 400.921 63.0417 397.408C64.1083 393.895 62.1254 390.182 58.6126 389.116C55.0998 388.049 51.3875 390.033 50.3208 393.546C49.2542 397.059 51.2373 400.772 54.75 401.838Z" stroke="#1F4298" stroke-width="6" stroke-miterlimit="10"/>
</svg>
