<svg width="1920" height="1000" viewBox="0 0 1920 1000" fill="none" xmlns="http://www.w3.org/2000/svg">
<path d="M1919.89 865.487V1039.49H1658.14L1709.14 772.291C1707.5 782.839 1740.15 802.618 1784.82 822.449C1800.85 829.569 1818.73 836.637 1837.82 843.335C1868.62 854.2 1897 861.584 1919.89 865.487Z" fill="#1F4298"/>
<path d="M1919.89 813.166V859.738C1897 855.835 1868.68 848.504 1837.77 837.639C1764.94 812.059 1708.87 780.466 1712.04 766.278C1712.09 766.067 1712.14 765.856 1712.2 765.698C1717.1 751.826 1781.6 761.426 1855.44 787.322C1879.17 795.656 1900.58 804.253 1918.57 812.534C1918.99 812.744 1919.41 812.955 1919.89 813.166Z" fill="#1F4298"/>
<path d="M1883.97 410C1858.45 410 1837.77 430.675 1837.77 456.15V582.627C1837.77 608.102 1817.1 628.777 1791.62 628.777H1606.61C1632.14 628.777 1652.76 608.102 1652.76 582.627V456.15C1652.76 430.622 1673.43 410 1698.91 410H1883.97Z" fill="white" stroke="#FFCF2D" stroke-width="5" stroke-miterlimit="10"/>
<path d="M1803.07 475.454H1685.25V584.79H1803.07V475.454Z" fill="white" stroke="#FFCF2D" stroke-width="5" stroke-miterlimit="10"/>
<path d="M1803.02 491.066H1685.25" stroke="#FFCF2D" stroke-width="5" stroke-miterlimit="10"/>
<path d="M1803.02 506.677H1685.25" stroke="#FFCF2D" stroke-width="5" stroke-miterlimit="10"/>
<path d="M1803.02 522.342H1685.25" stroke="#FFCF2D" stroke-width="5" stroke-miterlimit="10"/>
<path d="M1803.02 537.954H1685.25" stroke="#FFCF2D" stroke-width="5" stroke-miterlimit="10"/>
<path d="M1803.02 553.619H1685.25" stroke="#FFCF2D" stroke-width="5" stroke-miterlimit="10"/>
<path d="M1803.02 569.231H1685.25" stroke="#FFCF2D" stroke-width="5" stroke-miterlimit="10"/>
<path d="M1837.77 456.15C1837.77 430.781 1858.23 410.211 1883.5 410C1908.81 410.211 1929.22 430.781 1929.22 456.15H1837.77Z" fill="#66B0F0" stroke="#FFCF2D" stroke-width="5" stroke-miterlimit="10"/>
<path d="M1791.83 629.938C1791.78 629.938 1791.68 629.938 1791.62 629.938H1607.3C1607.19 629.938 1607.09 629.938 1606.98 629.938C1588.05 629.674 1571.86 617.965 1565 601.404H1749.7C1756.6 617.965 1772.8 629.674 1791.83 629.938Z" fill="#FFCF2D"/>
<path d="M1692.95 462.901H1671.64V445.812H1681.66V455.306C1681.66 455.517 1681.77 455.675 1681.87 455.728L1681.92 455.781L1692.95 462.901Z" fill="#1F4298"/>
<path d="M1701.23 451.719V453.987C1701.23 454.409 1701.17 454.831 1701.17 455.253C1701.17 455.359 1701.12 455.517 1701.12 455.622C1701.07 455.833 1701.07 456.044 1701.02 456.255C1700.44 459.156 1698.7 461.53 1696.53 462.426C1696.38 462.479 1696.22 462.532 1696.06 462.584C1695.8 462.69 1695.48 462.743 1695.22 462.795C1695.11 462.795 1695 462.848 1694.9 462.848L1682.82 454.99C1682.93 453.144 1684.09 451.667 1685.46 451.667H1701.23V451.719Z" fill="#1F4298"/>
<path d="M1818.89 445.812V462.901H1797.58L1808.55 455.781L1808.61 455.728C1808.66 455.675 1808.66 455.675 1808.71 455.675C1808.71 455.622 1808.76 455.622 1808.76 455.57C1808.76 455.57 1808.76 455.517 1808.82 455.517C1808.82 455.464 1808.82 455.464 1808.87 455.464C1808.87 455.464 1808.87 455.464 1808.87 455.411C1808.87 455.359 1808.87 455.359 1808.87 455.306V445.812H1818.89Z" fill="#1F4298"/>
<path d="M1807.81 455.042L1795.74 462.901C1795.42 462.848 1795.1 462.795 1794.79 462.743C1794.68 462.69 1794.58 462.69 1794.47 462.637C1794.31 462.584 1794.21 462.532 1794.05 462.479C1793.94 462.426 1793.79 462.373 1793.68 462.321C1792.05 461.424 1790.67 459.684 1789.99 457.521C1789.88 457.205 1789.78 456.888 1789.73 456.572C1789.67 456.466 1789.67 456.308 1789.62 456.15C1789.51 455.464 1789.41 454.778 1789.41 454.04V451.772H1805.23C1806.55 451.719 1807.71 453.196 1807.81 455.042Z" fill="#1F4298"/>
<path d="M1807.81 437.162V452.036C1807.71 451.93 1807.6 451.772 1807.5 451.667C1807.29 451.456 1807.08 451.298 1806.87 451.139C1806.34 450.823 1805.76 450.612 1805.18 450.612H1685.41C1684.77 450.612 1684.19 450.823 1683.72 451.139C1683.51 451.298 1683.3 451.456 1683.08 451.667C1682.98 451.772 1682.87 451.878 1682.77 452.036V437.162C1682.77 435.158 1683.93 433.576 1685.41 433.576H1805.18C1806.6 433.576 1807.81 435.211 1807.81 437.162Z" fill="#1F4298"/>
<path d="M1919.89 652.986V859.738H1919.83C1896.95 855.836 1868.62 848.504 1837.72 837.639C1818.63 830.941 1800.75 823.821 1784.71 816.753L1793.31 768.757L1807.92 687.269C1762.09 672.923 1754.65 628.83 1754.65 628.83H1791.52C1817.04 628.83 1837.67 608.155 1837.67 582.68V567.49H1813.99C1797.37 567.49 1783.87 551.14 1783.87 534.526V529.146H1836.51C1846.26 529.146 1855.44 533.735 1861.29 541.541L1899.79 592.965C1912.87 610.265 1919.89 631.309 1919.89 652.986Z" fill="#798EC1"/>
<path d="M1919.89 813.167V859.739H1919.83C1896.95 855.836 1868.62 848.504 1837.72 837.639C1818.63 830.941 1800.75 823.821 1784.71 816.753L1793.31 768.757C1812.3 773.398 1833.39 779.675 1855.33 787.375C1879.07 795.709 1900.48 804.306 1918.41 812.586C1918.99 812.745 1919.41 812.956 1919.89 813.167Z" fill="#798EC1"/>
<path d="M1840.09 567.49H1814.67C1798.06 567.49 1784.56 551.14 1784.56 534.526V529.146H1840.09V567.49Z" fill="#798EC1"/>
<path d="M1824.11 618.862C1824.11 618.862 1860.77 632.628 1864.09 679.938" stroke="#D2D9EA" stroke-width="5" stroke-miterlimit="10"/>
<path d="M1808.03 688.377H1832.97" stroke="#D2D9EA" stroke-width="5" stroke-miterlimit="10"/>
<path d="M1807.97 68.4312L1824.69 57.3552C1846.47 42.9564 1875.64 57.197 1877.7 83.1992L1881.33 129.244C1883.34 154.508 1911.13 168.906 1932.91 155.984L1943.46 149.708" stroke="#FFCF2D" stroke-width="6" stroke-miterlimit="10"/>
<path d="M1565 -102.614L1779.81 22.0703L1887.98 264.951L1763.88 181.354L1629.03 23.3362L1565 -102.614Z" fill="#1F4298"/>
<path d="M1565.58 -111L1784.93 16.374L1895.42 264.371" stroke="#FFCF2D" stroke-width="6" stroke-miterlimit="10"/>
<path d="M1761.64 186.718C1771.68 178.243 1749.12 135.016 1711.26 90.167C1673.4 45.3181 1634.57 15.831 1624.53 24.3058C1614.49 32.7806 1637.05 76.0081 1674.91 120.857C1712.77 165.706 1751.6 195.193 1761.64 186.718Z" fill="white"/>
<path d="M1755.54 189.31C1765.38 181.005 1743.25 138.618 1706.12 94.6372C1668.99 50.6563 1630.92 21.7359 1621.08 30.0415C1611.25 38.3472 1633.37 80.7339 1670.5 124.715C1707.63 168.696 1745.7 197.616 1755.54 189.31Z" fill="#1F4298" stroke="#FFCF2D" stroke-width="5" stroke-miterlimit="10"/>
<path d="M1781.71 169.645L1761.25 186.892C1765.04 183.674 1764.2 175.552 1759.61 164.212C1752.07 145.541 1734.4 118.273 1710.88 90.3196C1687.3 62.4186 1663.36 40.4249 1646.22 29.8763C1635.83 23.4417 1627.92 21.2264 1624.12 24.4438L1644.58 7.19687C1654.61 -1.29473 1695.22 26.448 1733.08 71.3322C1770.95 116.216 1791.78 161.206 1781.71 169.645Z" fill="#001D65"/>
<path d="M1361.37 926.037V1149.35H1107L1139.59 906.839C1139.59 916.649 1189.22 928.885 1250.45 934.16C1311.68 939.487 1361.37 935.847 1361.37 926.037Z" fill="#1F4298"/>
<path d="M1360.2 920.288C1360.2 930.098 1311 933.738 1250.35 928.411C1189.7 923.084 1140.49 910.847 1140.49 901.09C1140.49 891.28 1189.7 887.64 1250.35 892.967C1311.05 898.242 1360.2 910.478 1360.2 920.288Z" fill="#1F4298"/>
<path d="M1281.2 757.946V930.415C1271.44 929.993 1261.05 929.36 1250.35 928.411C1210.85 924.983 1176.25 918.548 1156.89 911.797L1159.79 892.704L1169.5 828.621H1156.94C1139.07 828.621 1124.62 814.17 1124.62 796.29V732.788C1124.62 720.235 1129.15 708.157 1137.43 698.716L1178.73 651.511C1181.42 648.452 1186.48 650.35 1186.48 654.412V718.6C1186.48 726.3 1183.74 733.737 1178.73 739.591L1175.03 743.916H1219.86C1226.35 743.916 1230.15 736.691 1226.51 731.311C1220.97 723.241 1213.69 711.743 1206.78 698.452C1193.02 672.133 1216.91 657.418 1216.91 657.418L1271.6 728.357C1277.82 736.954 1281.2 747.345 1281.2 757.946Z" fill="#798EC1"/>
<path d="M1186.48 650.983V718.6C1186.48 726.3 1183.74 733.737 1178.73 739.591L1175.03 743.916" stroke="white" stroke-width="5" stroke-miterlimit="10" stroke-linecap="round"/>
<path d="M1175.03 743.864L1145.39 777.144" stroke="white" stroke-width="5" stroke-miterlimit="10" stroke-linecap="round"/>
<path d="M1186.48 689.222C1186.48 696.922 1183.74 704.359 1178.73 710.214L1175.03 714.538L1145.45 747.766" stroke="white" stroke-width="5" stroke-miterlimit="10" stroke-linecap="round"/>
<path d="M1186.48 659.897C1186.48 667.597 1183.74 675.034 1178.73 680.889L1175.03 685.213L1145.45 718.441" stroke="white" stroke-width="5" stroke-miterlimit="10" stroke-linecap="round"/>
<path d="M1169.5 830.362H1192.23" stroke="white" stroke-width="5" stroke-miterlimit="10" stroke-linecap="round"/>
<path d="M1281.2 896.343V930.415C1271.44 929.993 1261.05 929.36 1250.35 928.411C1210.85 924.982 1176.25 918.548 1156.89 911.797L1159.79 892.704C1179.62 889.803 1212.8 889.645 1250.4 892.915C1261.05 893.917 1271.39 895.024 1281.2 896.343Z" fill="#798EC1"/>
<path d="M1386.81 104.385L1211.24 284.449L1008.82 61.294L1229.75 -94.1919L1386.81 104.385Z" fill="#1F4298"/>
<path d="M1204.38 293.099L992 60.2919L1224.9 -103" stroke="#FFCF2D" stroke-width="6" stroke-miterlimit="10"/>
<path d="M1207.81 95.1022L1221.05 93.1507C1242.83 89.9334 1263.03 105.018 1266.25 126.748L1277.8 205.44C1281.7 231.97 1310.18 247.16 1334.39 235.556L1389.61 209.132" stroke="#FFCF2D" stroke-width="6" stroke-miterlimit="10"/>
<path d="M1460.01 224.217C1465.66 227.276 1470.98 230.44 1475.84 233.605C1474.99 238.194 1473.41 242.729 1471.09 247.107C1468.77 251.432 1465.82 255.282 1462.44 258.5C1457.11 256.179 1451.52 253.489 1445.88 250.43C1417.66 235.187 1397.99 216.991 1401.9 209.765C1405.8 202.539 1431.8 208.974 1460.01 224.217Z" fill="#FFCF2D"/>
<path d="M1395.88 214.037C1399.41 214.037 1402.26 211.18 1402.26 207.655C1402.26 204.131 1399.41 201.273 1395.88 201.273C1392.36 201.273 1389.5 204.131 1389.5 207.655C1389.5 211.18 1392.36 214.037 1395.88 214.037Z" stroke="#1F4298" stroke-width="6" stroke-miterlimit="10"/>
<path d="M797.658 884.11V1078.68H570.347V964.596C571.186 965.611 572.392 966.444 573.899 967.113C576.152 968.112 579.131 968.768 582.716 969.109C589.889 969.792 599.602 969.226 611.071 967.515C634.016 964.094 664.087 956.079 695.125 944.202L695.125 944.202C723.045 933.513 747.795 921.594 766.113 910.526C775.272 904.992 782.834 899.665 788.383 894.803C792.796 890.936 795.981 887.327 797.658 884.11Z" fill="#1F4298" stroke="#1F4298"/>
<path d="M797.684 875.696L797.682 875.703L797.679 875.71C796.629 879.192 793.214 883.475 787.701 888.302C782.208 893.111 774.699 898.405 765.57 903.921C747.313 914.952 722.619 926.846 694.715 937.519L694.714 937.519C663.756 949.376 633.77 957.368 610.91 960.777C599.477 962.482 589.851 963.036 582.787 962.364C579.254 962.028 576.39 961.388 574.268 960.449C572.146 959.51 570.821 958.298 570.26 956.846C569.701 955.398 569.888 953.671 570.864 951.652C571.842 949.632 573.587 947.373 576.048 944.918C580.968 940.01 588.661 934.403 598.474 928.445C618.093 916.532 646.095 903.266 677.088 891.406L677.088 891.406C708.05 879.547 737.089 871.45 758.992 867.936C769.948 866.178 779.092 865.572 785.789 866.204C789.139 866.521 791.848 867.144 793.858 868.069C795.865 868.993 797.133 870.196 797.691 871.656L797.694 871.663C798.17 872.853 798.181 874.206 797.684 875.696Z" fill="#1F4298" stroke="#1F4298"/>
<path d="M749.796 744.841V912.247L737.191 918.629C724.428 924.853 710.135 931.024 694.946 936.825C667.047 947.532 639.885 955.074 618.051 958.977L630.603 909.663L651.066 829.177C641.362 829.177 632.185 824.852 626.015 817.363L542 721.793C556.398 708.66 577.916 726.54 577.916 726.54L569.847 685.347C567.948 675.59 570.796 665.463 577.494 658.132L603.02 630.126C608.083 624.588 617.207 626.75 619.317 633.923L637.459 696.529C637.459 696.529 682.499 730.917 690.938 730.917C700.484 730.917 703.806 723.164 685.98 697.689C672.584 678.544 685.98 664.567 685.98 664.567L729.596 701.276C742.412 712.141 749.796 728.069 749.796 744.841Z" fill="white" stroke="#798EC1" stroke-width="5" stroke-miterlimit="10"/>
<path d="M653.651 735.084L621.743 709.557L604.286 649.324C602.282 642.415 593.791 640.358 588.939 645.685" stroke="#798EC1" stroke-width="5" stroke-miterlimit="10"/>
<path d="M632.766 746.318L605.024 723.744L588.517 666.729C586.618 660.189 578.285 658.238 573.697 663.301" stroke="#798EC1" stroke-width="5" stroke-miterlimit="10"/>
<path d="M608.241 752.067L577.863 726.593" stroke="#798EC1" stroke-width="5" stroke-miterlimit="10"/>
<path d="M651.066 829.177H686.56" stroke="#798EC1" stroke-width="5" stroke-miterlimit="10"/>
<path d="M677.14 891.406L677.14 891.406C703.705 881.281 728.866 873.846 749.296 869.714V913.054C733.655 921.33 715.047 929.71 694.767 937.519C667.165 948.091 640.342 955.573 618.623 959.508L631.03 911.12C644.992 904.409 660.621 897.699 677.14 891.406Z" fill="#798EC1" stroke="#D2D9EA"/>
<path d="M622.217 140.229L638.25 175.408C639.779 188.436 630.497 200.198 617.47 201.78C604.444 203.309 595.161 215.124 596.691 228.151L599.011 247.666" stroke="#FFCF2D" stroke-width="6" stroke-miterlimit="10"/>
<path d="M807.756 27.201L892.246 -104.656L601.648 -106.977L506.453 146.505L663.618 139.121L807.756 27.201Z" fill="#1F4298"/>
<path d="M895.727 -114.572L591.892 -118L491 148.035" stroke="#FFCF2D" stroke-width="6" stroke-miterlimit="10"/>
<path d="M802.535 7.42244C819.412 36.3783 790.721 84.5853 738.403 115.071C686.085 145.556 630.023 146.769 613.146 117.813C610.825 113.858 609.401 109.585 608.716 104.997C604.496 76.0409 632.079 36.4838 677.278 10.1651C722.476 -16.1536 770.469 -20.6895 793.569 -2.75689C797.208 0.0912199 800.215 3.46672 802.535 7.42244Z" fill="#1F4298" stroke="white" stroke-width="6" stroke-miterlimit="10"/>
<path d="M789.139 -15.5733L802.535 7.42253C800.215 3.46681 797.209 0.0913053 793.569 -2.75681C770.469 -20.6894 722.476 -16.1535 677.278 10.1652C632.079 36.4839 604.549 76.041 608.716 104.997C609.349 109.585 610.825 113.858 613.146 117.813L599.75 94.8175C582.873 65.8616 611.564 17.6547 663.882 -12.8307C716.147 -43.2633 772.262 -44.5292 789.139 -15.5733Z" stroke="white" stroke-width="5" stroke-miterlimit="10" stroke-linecap="round"/>
<path d="M594.476 318.764C592.419 324.829 590.204 330.631 587.883 335.958C583.189 335.905 578.443 335.114 573.802 333.532C569.108 331.949 564.889 329.734 561.091 326.939C562.463 321.295 564.15 315.335 566.207 309.27C576.439 278.89 590.995 256.421 598.801 259.006C606.606 261.643 604.655 288.384 594.476 318.764Z" fill="#FFCF2D"/>
<path d="M599.855 259.111C603.38 259.111 606.237 256.254 606.237 252.73C606.237 249.205 603.38 246.348 599.855 246.348C596.331 246.348 593.474 249.205 593.474 252.73C593.474 256.254 596.331 259.111 599.855 259.111Z" stroke="#1F4298" stroke-width="6" stroke-miterlimit="10"/>
<path d="M228.475 914.835V1130.71H-8.64398V812.989C-4.00286 828.548 45.6255 860.984 107.226 888.094C172.782 917.05 227.104 928.97 228.475 914.835Z" fill="#1F4298"/>
<path d="M228.475 909.086C227.051 923.221 172.782 911.248 107.226 882.345C45.6254 855.183 -4.00287 822.746 -8.64399 807.24C-8.96043 806.237 -9.06593 805.288 -8.96045 804.444C-7.58921 790.309 46.733 802.282 112.289 831.185C177.845 860.088 229.899 894.951 228.475 909.086Z" fill="#1F4298"/>
<path d="M88.1339 599.433C93.7771 587.829 105.538 580.445 118.459 580.445H155.747L157.698 730.341L183.699 868.105L191.979 911.881C170.039 907.029 140.083 896.85 107.279 882.398C88.7141 874.223 65.4557 862.092 49.9502 853.548V671.163C49.9502 668.684 50.4248 666.205 51.2687 663.885L88.1339 599.433Z" fill="#798EC1"/>
<path d="M191.926 911.882C169.986 907.029 140.03 896.85 107.226 882.398C88.6613 874.223 65.403 862.092 49.8974 853.548V807.714C66.827 813.147 91.8785 822.219 112.289 831.185C139.819 843.316 163.869 855.816 183.699 868.105L191.926 911.882Z" fill="#798EC1"/>
<path d="M330.791 411.932L132.436 776.912C125.105 790.415 104.905 793.632 87.3428 784.085C69.7804 774.539 61.5002 755.868 68.8311 742.313L267.186 377.333L330.791 411.932Z" fill="white" stroke="#FFCF2D" stroke-width="5" stroke-miterlimit="10"/>
<path d="M330.753 412.021C338.097 398.508 329.819 379.818 312.263 370.277C294.707 360.735 274.522 363.954 267.179 377.467C259.835 390.98 268.114 409.67 285.669 419.212C303.225 428.753 323.41 425.534 330.753 412.021Z" fill="#66B0F0" stroke="#FFCF2D" stroke-width="5" stroke-miterlimit="10"/>
<path d="M201.208 551.648L294.927 475.118L293.451 502.333L323.46 509.822L255.109 552.017C273.462 548.852 295.56 546.268 313.756 547.692C335.432 549.38 328.154 574.749 320.032 596.426C339.018 594.58 402.675 556.025 426.672 563.304C441.334 567.734 436.06 597.639 431.84 614.148C437.958 614.464 468.917 614.095 468.917 614.095L452.567 629.021L461.533 643.948C426.725 645.477 426.303 639.992 430.68 615.308C431.419 588.462 401.673 614.253 338.333 629.391C306.952 636.88 311.013 616.469 318.766 595.213C315.654 585.456 292.396 574.854 217.663 594.369L201.208 551.648Z" fill="#1F4298"/>
<path d="M202.58 598.272C217.872 598.272 230.268 585.875 230.268 570.582C230.268 555.29 217.872 542.892 202.58 542.892C187.288 542.892 174.891 555.29 174.891 570.582C174.891 585.875 187.288 598.272 202.58 598.272Z" fill="white" stroke="#1F4298" stroke-width="5" stroke-miterlimit="10"/>
<path d="M193.034 580.445V582.186C193.034 599.907 178.688 614.306 160.915 614.306H127.214V580.445H193.034Z" fill="#798EC1"/>
<path d="M234.065 645.477L225.152 666.363L214.763 690.783L209.119 704.022L200.523 724.222C200.312 724.75 199.995 725.33 199.732 725.805C199.732 725.857 199.679 725.857 199.679 725.91C196.937 730.657 191.61 733.611 185.756 733.611H117.457C109.177 733.611 103.534 725.752 106.593 718.526L111.55 706.87L122.468 681.237L131.855 659.138L140.136 639.728C142.562 634.032 148.416 630.287 154.955 630.287H223.254C231.481 630.393 237.124 638.252 234.065 645.477Z" fill="#798EC1"/>
<path d="M134.703 659.243C137.551 656.079 141.665 654.18 146.095 654.18H211.335C218.191 654.18 223.148 660.087 222.463 666.364" stroke="#D2D9EA" stroke-width="5" stroke-miterlimit="10" stroke-linecap="round"/>
<path d="M125.843 681.342C128.638 678.547 132.488 676.912 136.655 676.912H201.894C209.383 676.912 214.552 683.874 212.653 690.731" stroke="#D2D9EA" stroke-width="5" stroke-miterlimit="10" stroke-linecap="round"/>
<path d="M115.611 706.923C118.407 704.286 122.151 702.756 126.159 702.756H191.399C199.099 702.756 204.426 710.246 201.947 717.313" stroke="#D2D9EA" stroke-width="5" stroke-miterlimit="10" stroke-linecap="round"/>
<path d="M-16.1937 104.397C-20.5711 99.7032 -24.9485 95.3256 -29.2732 91.4226C-33.4924 93.3741 -37.5006 96.064 -41.1397 99.4395C-44.726 102.815 -47.7322 106.613 -50 110.674C-46.4137 115.262 -42.4054 119.956 -38.028 124.651C-16.1936 148.121 6.32632 162.625 12.3914 157.035C18.4038 151.444 5.64066 127.868 -16.1937 104.397Z" fill="#FFCF2D"/>
<path d="M137.069 290.263L144.03 294.588C169.293 310.253 218.499 276.55 253.888 219.324C289.329 162.098 297.557 103.079 272.347 87.414L265.174 82.9836L222.508 208.512L137.069 290.263Z" fill="#1F4298"/>
<path d="M66.3972 357.932L137.069 290.263L222.56 208.459L265.227 82.9836L303.358 -29.2004L125.782 113.891L66.3972 357.932Z" fill="#1F4298" stroke="white" stroke-width="6" stroke-miterlimit="10"/>
<path d="M60.8595 351.234L119.823 107.615L299.613 -34" stroke="#FFCF2D" stroke-width="6" stroke-miterlimit="10"/>
<path d="M160.222 185.41C164.757 166.634 153.207 147.699 134.432 143.163C116.606 138.838 98.5158 149.018 92.9254 166.423L78.1055 214.261C69.9308 240.737 31.7997 238.681 26.473 211.465L17.9291 167.53" stroke="#FFCF2D" stroke-width="6" stroke-miterlimit="10"/>
<path d="M15.925 168.744C12.4006 168.744 9.54346 165.886 9.54346 162.362C9.54346 158.837 12.4006 155.98 15.925 155.98C19.4494 155.98 22.3065 158.837 22.3065 162.362C22.3065 165.886 19.4494 168.744 15.925 168.744Z" stroke="#1F4298" stroke-width="6" stroke-miterlimit="10"/>
</svg>
