<svg width="768" height="1000" viewBox="0 0 768 1000" fill="none" xmlns="http://www.w3.org/2000/svg">
<path d="M174.899 905.685L174.899 905.685C199.677 896.194 221.643 885.61 237.901 875.781C246.03 870.867 252.743 866.135 257.671 861.815C261.497 858.461 264.288 855.321 265.808 852.505V1024.97H64.2106V923.893C64.9566 924.75 65.9997 925.456 67.2835 926.025C69.2907 926.916 71.9404 927.499 75.1248 927.802C81.4965 928.409 90.121 927.906 100.3 926.387C120.666 923.349 147.354 916.231 174.899 905.685Z" fill="#1F4298" stroke="#1F4298"/>
<path d="M265.833 844.791L265.831 844.798L265.829 844.805C264.901 847.881 261.882 851.674 256.991 855.958C252.12 860.226 245.46 864.924 237.361 869.821C221.164 879.613 199.254 890.172 174.495 899.646L174.494 899.647C147.026 910.173 120.421 917.268 100.141 920.294C89.9969 921.807 81.4604 922.299 75.199 921.703C72.0668 921.405 69.5318 920.837 67.657 920.007C65.7812 919.176 64.6204 918.109 64.1301 916.839C63.6416 915.573 63.8017 914.056 64.6642 912.272C65.5275 910.486 67.0715 908.485 69.2534 906.308C73.6148 901.955 80.4362 896.98 89.1426 891.69C106.548 881.116 131.393 869.339 158.893 858.809L158.893 858.809C186.366 848.281 212.13 841.093 231.562 837.974C241.282 836.414 249.39 835.877 255.326 836.437C258.295 836.717 260.692 837.27 262.468 838.088C264.241 838.904 265.353 839.963 265.84 841.241L265.843 841.248C266.26 842.291 266.271 843.478 265.833 844.791Z" fill="#1F4298" stroke="#1F4298"/>
<path d="M223.392 728.627V877.261L212.207 882.928C200.881 888.453 188.198 893.932 174.72 899.083C149.963 908.59 125.861 915.286 106.486 918.751L117.624 874.967L135.782 803.506C127.171 803.506 119.028 799.666 113.552 793.017L39 708.163C51.7764 696.503 70.8708 712.378 70.8708 712.378L63.7104 675.805C62.0256 667.141 64.5528 658.15 70.4964 651.641L93.1476 626.775C97.6404 621.858 105.737 623.778 107.609 630.147L123.708 685.732C123.708 685.732 163.675 716.265 171.163 716.265C179.634 716.265 182.582 709.381 166.764 686.763C154.877 669.764 166.764 657.354 166.764 657.354L205.468 689.947C216.84 699.594 223.392 713.736 223.392 728.627Z" fill="white" stroke="#798EC1" stroke-width="5" stroke-miterlimit="10"/>
<path d="M138.076 719.964L109.762 697.299L94.2709 643.821C92.4925 637.686 84.9577 635.86 80.6521 640.589" stroke="#798EC1" stroke-width="5" stroke-miterlimit="10"/>
<path d="M119.543 729.938L94.9261 709.895L80.2777 659.274C78.5929 653.467 71.1985 651.734 67.1269 656.23" stroke="#798EC1" stroke-width="5" stroke-miterlimit="10"/>
<path d="M97.7809 735.043L70.8241 712.424" stroke="#798EC1" stroke-width="5" stroke-miterlimit="10"/>
<path d="M135.783 803.506H167.279" stroke="#798EC1" stroke-width="5" stroke-miterlimit="10"/>
<path d="M158.939 858.81L158.939 858.81C182.481 849.832 204.779 843.237 222.892 839.566V877.944C209.021 885.286 192.522 892.72 174.54 899.647C150.087 909.019 126.322 915.654 107.07 919.152L118.051 876.3C130.433 870.346 144.292 864.393 158.939 858.81Z" fill="#798EC1" stroke="#D2D9EA"/>
<path d="M88.4383 250.273L102.666 281.507C104.023 293.074 95.7859 303.517 84.2263 304.922C72.6667 306.28 64.43 316.769 65.7872 328.336L67.8463 345.662" stroke="#FFCF2D" stroke-width="6" stroke-miterlimit="10"/>
<path d="M253.081 149.919L328.054 32.8476L70.1863 30.7871L-14.2877 255.845L125.176 249.289L253.081 149.919Z" fill="#1F4298"/>
<path d="M331.143 24.0439L61.5284 21L-28 257.203" stroke="#FFCF2D" stroke-width="6" stroke-miterlimit="10"/>
<path d="M248.448 132.358C263.424 158.067 237.964 200.869 191.539 227.935C145.113 255.002 95.3647 256.079 80.3887 230.37C78.3295 226.858 77.0659 223.065 76.4575 218.991C72.7135 193.282 97.1899 158.161 137.298 134.793C177.405 111.426 219.993 107.399 240.492 123.32C243.721 125.849 246.388 128.846 248.448 132.358Z" fill="#1F4298" stroke="white" stroke-width="6" stroke-miterlimit="10"/>
<path d="M236.56 111.941L248.448 132.358C246.388 128.846 243.721 125.849 240.492 123.32C219.993 107.399 177.405 111.426 137.298 134.793C97.1899 158.161 72.7603 193.282 76.4575 218.991C77.0191 223.065 78.3295 226.858 80.3887 230.371L68.5015 209.953C53.5255 184.244 78.9847 141.443 125.41 114.376C171.789 87.3561 221.584 86.2322 236.56 111.941Z" stroke="white" stroke-width="5" stroke-miterlimit="10" stroke-linecap="round"/>
<path d="M63.8216 408.787C61.9964 414.173 60.0308 419.324 57.9716 424.054C53.8064 424.007 49.5944 423.304 45.476 421.899C41.3108 420.495 37.5668 418.528 34.1972 416.046C35.414 411.035 36.9116 405.744 38.7368 400.358C47.816 373.385 60.7328 353.436 67.6592 355.731C74.5856 358.072 72.854 381.814 63.8216 408.787Z" fill="#FFCF2D"/>
<path d="M68.5952 355.824C71.7227 355.824 74.258 353.287 74.258 350.158C74.258 347.029 71.7227 344.492 68.5952 344.492C65.4677 344.492 62.9324 347.029 62.9324 350.158C62.9324 353.287 65.4677 355.824 68.5952 355.824Z" stroke="#1F4298" stroke-width="6" stroke-miterlimit="10"/>
<path d="M744.716 859.084V1057.36H519L547.922 842.039C547.922 850.749 591.961 861.613 646.296 866.296C700.631 871.025 744.716 867.794 744.716 859.084Z" fill="#1F4298"/>
<path d="M743.687 853.98C743.687 862.69 700.022 865.921 646.202 861.191C592.382 856.462 548.718 845.597 548.718 836.934C548.718 828.224 592.382 824.993 646.202 829.722C700.069 834.405 743.687 845.27 743.687 853.98Z" fill="#1F4298"/>
<path d="M673.58 709.841V862.971C664.922 862.596 655.703 862.034 646.202 861.191C611.149 858.148 580.448 852.434 563.273 846.44L565.847 829.488L574.458 772.592H563.32C547.454 772.592 534.631 759.761 534.631 743.886V687.504C534.631 676.359 538.656 665.635 546.004 657.253L582.648 615.341C585.035 612.625 589.528 614.311 589.528 617.917V674.907C589.528 681.744 587.094 688.347 582.648 693.545L579.372 697.385H619.152C624.908 697.385 628.278 690.97 625.049 686.193C620.135 679.028 613.676 668.82 607.546 657.019C595.331 633.651 616.531 620.586 616.531 620.586L665.063 683.571C670.585 691.204 673.58 700.429 673.58 709.841Z" fill="#798EC1"/>
<path d="M589.528 614.873V674.907C589.528 681.744 587.094 688.347 582.648 693.545L579.372 697.385" stroke="white" stroke-width="5" stroke-miterlimit="10" stroke-linecap="round"/>
<path d="M579.372 697.338L553.07 726.887" stroke="white" stroke-width="5" stroke-miterlimit="10" stroke-linecap="round"/>
<path d="M589.528 648.824C589.528 655.661 587.094 662.264 582.648 667.462L579.372 671.301L553.117 700.803" stroke="white" stroke-width="5" stroke-miterlimit="10" stroke-linecap="round"/>
<path d="M589.528 622.787C589.528 629.624 587.094 636.227 582.648 641.425L579.372 645.265L553.117 674.767" stroke="white" stroke-width="5" stroke-miterlimit="10" stroke-linecap="round"/>
<path d="M574.458 774.137H594.629" stroke="white" stroke-width="5" stroke-miterlimit="10" stroke-linecap="round"/>
<path d="M673.58 832.719V862.971C664.922 862.596 655.703 862.034 646.202 861.191C611.149 858.147 580.448 852.434 563.273 846.44L565.847 829.488C583.444 826.913 612.881 826.772 646.249 829.676C655.703 830.565 664.876 831.549 673.58 832.719Z" fill="#798EC1"/>
<path d="M775.345 126.13L619.548 286.003L439.929 87.8709L635.974 -50.1797L775.345 126.13Z" fill="#1F4298"/>
<path d="M613.464 293.683L425 86.9813L631.669 -58" stroke="#FFCF2D" stroke-width="6" stroke-miterlimit="10"/>
<path d="M616.506 117.888L628.252 116.155C647.581 113.299 665.505 126.692 668.36 145.985L678.609 215.853C682.072 239.408 707.344 252.895 728.826 242.593L777.825 219.131" stroke="#FFCF2D" stroke-width="6" stroke-miterlimit="10"/>
</svg>
