<svg width="111" height="209" viewBox="0 0 111 209" fill="none" xmlns="http://www.w3.org/2000/svg">
<path d="M100.39 94.9599C100.39 69.9699 80.0605 49.6299 55.0605 49.6299C30.0605 49.6299 9.73047 69.9599 9.73047 94.9599C9.73047 112.49 20.0005 128.62 35.9005 136.04C37.6105 136.84 38.7105 138.56 38.7105 140.45V155.12H71.4105V140.45C71.4105 138.56 72.5005 136.84 74.2205 136.04C90.1205 128.61 100.39 112.49 100.39 94.9599ZM76.1805 122.94C75.3905 124.79 73.5905 125.89 71.7005 125.89C71.0605 125.89 70.4105 125.76 69.7905 125.5C67.3205 124.44 66.1705 121.58 67.2305 119.11C69.2605 114.36 70.8805 110.13 70.0905 106.48C69.5705 104.1 67.7305 102.04 65.4805 100.93C64.9805 105.63 62.9005 110.16 59.5705 113.52C57.7605 115.35 54.3605 117.31 50.7605 116.86C48.4205 116.56 46.4805 115.29 45.3205 113.28C44.4605 111.8 44.2805 110.29 44.2205 109.28C43.9205 104.2 46.0605 99.2299 49.5805 95.6599C46.1105 96.5999 42.8705 98.5399 40.4805 101.18C37.1605 104.85 35.3705 109.99 35.6905 114.93C35.7605 116.05 35.9305 116.93 36.1905 117.62C37.1405 120.13 35.8805 122.94 33.3705 123.9C30.8605 124.86 28.0505 123.59 27.0905 121.08C26.4805 119.47 26.1205 117.66 25.9805 115.56C25.4905 107.94 28.1405 100.32 33.2605 94.6499C38.3805 88.9799 45.6905 85.5699 53.3205 85.2999C54.9105 85.2399 57.0005 85.2999 59.0805 86.2699C60.9105 87.1199 62.4205 88.5499 63.5305 90.3999C71.0505 91.1499 77.9505 96.8999 79.5905 104.39C81.1205 111.38 78.2605 118.05 76.1705 122.93L76.1805 122.94Z" fill="#FDDC0E"/>
<path d="M55.06 39.8999C24.7 39.8999 0 64.5999 0 94.9599C0 115.2 11.28 133.9 28.98 143.45V159.99C28.98 162.68 31.16 164.86 33.85 164.86H76.28C78.97 164.86 81.15 162.68 81.15 159.99V143.45C98.85 133.9 110.13 115.2 110.13 94.9599C110.13 64.5999 85.43 39.8999 55.07 39.8999H55.06ZM71.41 140.45V155.12H38.71V140.45C38.71 138.56 37.62 136.84 35.9 136.04C20 128.61 9.73 112.49 9.73 94.9599C9.73 69.9699 30.06 49.6299 55.06 49.6299C80.06 49.6299 100.39 69.9699 100.39 94.9599C100.39 112.49 90.12 128.62 74.22 136.04C72.51 136.84 71.41 138.56 71.41 140.45Z" fill="#5F6064"/>
<path d="M76.1908 168.27H31.4208C28.7308 168.27 26.5508 170.45 26.5508 173.14C26.5508 175.83 28.7308 178.01 31.4208 178.01H76.1808C78.8708 178.01 81.0508 175.83 81.0508 173.14C81.0508 170.45 78.8708 168.27 76.1808 168.27H76.1908Z" fill="#5F6064"/>
<path d="M56.1298 29C58.8198 29 60.9998 26.82 60.9998 24.13V4.87C60.9998 2.18 58.8198 0 56.1298 0C53.4398 0 51.2598 2.18 51.2598 4.87V24.14C51.2598 26.83 53.4398 29.01 56.1298 29.01V29Z" fill="#5F6064"/>
<path d="M17.9792 35.3498C18.8792 36.9098 20.5192 37.7798 22.1992 37.7798C23.0292 37.7798 23.8592 37.5698 24.6292 37.1298C26.9592 35.7898 27.7492 32.8098 26.4092 30.4798L16.7792 13.7898C15.4392 11.4598 12.4592 10.6698 10.1292 12.0098C7.7992 13.3498 7.0092 16.3298 8.3492 18.6598L17.9792 35.3498Z" fill="#5F6064"/>
<path d="M85.5003 37.1298C86.2703 37.5698 87.1003 37.7798 87.9303 37.7798C89.6103 37.7798 91.2503 36.9098 92.1503 35.3498L101.78 18.6598C103.12 16.3298 102.33 13.3598 100 12.0098C97.6703 10.6698 94.7003 11.4598 93.3503 13.7898L83.7203 30.4798C82.3803 32.8098 83.1703 35.7798 85.5003 37.1298Z" fill="#5F6064"/>
<path d="M76.1908 181.98H31.4208C28.7308 181.98 26.5508 184.16 26.5508 186.85C26.5508 189.54 28.7308 191.72 31.4208 191.72H76.1808C78.8708 191.72 81.0508 189.54 81.0508 186.85C81.0508 184.16 78.8708 181.98 76.1808 181.98H76.1908Z" fill="#5F6064"/>
<path d="M71.8406 196.24H38.2906C36.8606 196.24 35.7906 197.65 36.2706 199C38.2306 204.5 45.9006 208.6 55.0706 208.6C64.2406 208.6 71.9106 204.5 73.8706 199C74.3506 197.65 73.2806 196.24 71.8506 196.24H71.8406Z" fill="#5F6064"/>
<path d="M63.5491 90.4098C62.4391 88.5498 60.9291 87.1298 59.0991 86.2798C57.0091 85.3098 54.9191 85.2498 53.3391 85.3098C45.7091 85.5898 38.3991 88.9998 33.2791 94.6598C28.1591 100.33 25.5091 107.95 25.9991 115.57C26.1391 117.67 26.4991 119.47 27.1091 121.09C28.0591 123.6 30.8691 124.87 33.3891 123.91C35.8991 122.96 37.1691 120.15 36.2091 117.63C35.9491 116.94 35.7791 116.06 35.7091 114.94C35.3891 110 37.1791 104.86 40.4991 101.19C42.8891 98.5398 46.1291 96.6098 49.5991 95.6698C46.0691 99.2398 43.9291 104.21 44.2391 109.29C44.2991 110.3 44.4791 111.81 45.3391 113.29C46.5091 115.3 48.4391 116.57 50.7791 116.87C54.3891 117.33 57.7791 115.36 59.5891 113.53C62.9191 110.17 64.9991 105.64 65.4991 100.94C67.7491 102.05 69.5891 104.11 70.1091 106.49C70.9091 110.14 69.2891 114.37 67.2491 119.12C66.1891 121.59 67.3391 124.45 69.8091 125.51C70.4291 125.78 71.0791 125.9 71.7191 125.9C73.6091 125.9 75.4091 124.79 76.1991 122.95C78.2891 118.08 81.1491 111.4 79.6191 104.41C77.9791 96.9198 71.0791 91.1698 63.5591 90.4198L63.5491 90.4098Z" fill="#5F6064"/>
</svg>
