<svg width="40" height="40" viewBox="0 0 40 40" fill="none" xmlns="http://www.w3.org/2000/svg">
<mask id="mask0_804_2336" style="mask-type:alpha" maskUnits="userSpaceOnUse" x="0" y="0" width="40" height="40">
<rect width="40" height="40" fill="#D9D9D9"/>
</mask>
<g mask="url(#mask0_804_2336)">
<path d="M20.0003 20C18.167 20 16.5975 19.3472 15.292 18.0416C13.9864 16.7361 13.3337 15.1666 13.3337 13.3333C13.3337 11.5 13.9864 9.93052 15.292 8.62496C16.5975 7.3194 18.167 6.66663 20.0003 6.66663C21.8337 6.66663 23.4031 7.3194 24.7087 8.62496C26.0142 9.93052 26.667 11.5 26.667 13.3333C26.667 15.1666 26.0142 16.7361 24.7087 18.0416C23.4031 19.3472 21.8337 20 20.0003 20ZM6.66699 33.3333V28.6666C6.66699 27.7222 6.91005 26.8541 7.39616 26.0625C7.88227 25.2708 8.5281 24.6666 9.33366 24.25C11.0559 23.3888 12.8059 22.743 14.5837 22.3125C16.3614 21.8819 18.167 21.6666 20.0003 21.6666C21.8337 21.6666 23.6392 21.8819 25.417 22.3125C27.1948 22.743 28.9448 23.3888 30.667 24.25C31.4725 24.6666 32.1184 25.2708 32.6045 26.0625C33.0906 26.8541 33.3337 27.7222 33.3337 28.6666V33.3333H6.66699Z" fill="#F7F7F7"/>
</g>
</svg>
