<svg width="200" height="50" viewBox="0 0 200 50" fill="none" xmlns="http://www.w3.org/2000/svg">
<g clip-path="url(#clip0_331_66)">
<path d="M113.171 13.5193C115.353 13.5193 117.535 13.5193 119.783 13.5193C119.915 14.059 120.047 14.5987 120.182 15.1547C120.266 15.496 120.349 15.8373 120.433 16.1786C120.566 16.7207 120.698 17.2628 120.83 17.8049C120.937 18.2418 121.044 18.6787 121.151 19.1156C121.192 19.2825 121.233 19.4494 121.273 19.6164C121.33 19.8497 121.387 20.083 121.444 20.3162C121.493 20.5156 121.493 20.5156 121.543 20.7191C121.612 21.0207 121.612 21.0207 121.734 21.2446C121.757 21.151 121.78 21.0574 121.804 20.9609C122.019 20.0798 122.234 19.1988 122.45 18.3179C122.56 17.865 122.671 17.412 122.782 16.959C122.888 16.522 122.995 16.0852 123.102 15.6483C123.143 15.4814 123.184 15.3145 123.224 15.1475C123.281 14.9142 123.338 14.6809 123.396 14.4477C123.428 14.3148 123.461 14.1818 123.494 14.0448C123.577 13.7339 123.577 13.7339 123.686 13.5193C125.868 13.5193 128.05 13.5193 130.298 13.5193C130.366 13.9885 130.424 14.4297 130.452 14.8988C130.46 15.0192 130.467 15.1395 130.475 15.2635C130.483 15.3934 130.49 15.5233 130.498 15.6571C130.507 15.7955 130.515 15.934 130.524 16.0766C130.547 16.4545 130.57 16.8325 130.593 17.2105C130.616 17.6067 130.641 18.003 130.665 18.3993C130.705 19.0643 130.745 19.7294 130.785 20.3945C130.831 21.1629 130.878 21.9313 130.925 22.6997C130.97 23.4399 131.014 24.1801 131.059 24.9204C131.078 25.235 131.097 25.5496 131.116 25.8642C131.143 26.3034 131.169 26.7426 131.196 27.1818C131.208 27.3773 131.208 27.3773 131.22 27.5767C131.227 27.6964 131.234 27.8162 131.241 27.9395C131.251 28.0952 131.251 28.0952 131.26 28.254C131.273 28.5281 131.274 28.8028 131.274 29.0772C129.521 29.0772 127.768 29.0772 125.962 29.0772C125.858 28.7671 125.834 28.549 125.823 28.2254C125.819 28.1175 125.815 28.0096 125.811 27.8985C125.805 27.7235 125.805 27.7235 125.799 27.5449C125.795 27.4243 125.791 27.3037 125.786 27.1795C125.772 26.7928 125.759 26.406 125.745 26.0193C125.732 25.6356 125.718 25.2519 125.704 24.8683C125.696 24.6296 125.687 24.3908 125.679 24.1521C125.653 23.4302 125.602 22.7142 125.528 21.9957C125.507 22.0797 125.485 22.1636 125.463 22.2501C125.261 23.0411 125.058 23.8321 124.856 24.6231C124.751 25.0297 124.647 25.4363 124.543 25.843C124.443 26.2354 124.342 26.6278 124.242 27.0201C124.203 27.1699 124.165 27.3197 124.127 27.4694C124.073 27.6791 124.019 27.8887 123.966 28.0983C123.935 28.2177 123.904 28.337 123.873 28.46C123.817 28.6677 123.754 28.8734 123.686 29.0772C122.398 29.0772 121.11 29.0772 119.783 29.0772C119.417 27.9909 119.417 27.9909 119.272 27.4307C119.239 27.3061 119.207 27.1816 119.173 27.0533C119.139 26.9222 119.105 26.7911 119.07 26.6559C119.035 26.5192 118.999 26.3824 118.963 26.2415C118.869 25.8812 118.775 25.5208 118.682 25.1604C118.586 24.7913 118.49 24.4224 118.394 24.0534C118.206 23.3318 118.019 22.6101 117.832 21.8884C117.829 21.9531 117.827 22.0179 117.824 22.0846C117.798 22.7671 117.772 23.4495 117.745 24.132C117.735 24.3857 117.726 24.6394 117.716 24.893C117.702 25.2606 117.688 25.6282 117.673 25.9958C117.669 26.1067 117.665 26.2175 117.66 26.3317C117.624 27.2486 117.565 28.1606 117.507 29.0772C115.754 29.0772 114.001 29.0772 112.195 29.0772C112.195 28.1265 112.213 27.1936 112.273 26.247C112.281 26.1111 112.29 25.9752 112.298 25.8352C112.321 25.4672 112.343 25.0993 112.367 24.7314C112.386 24.4234 112.405 24.1153 112.424 23.8073C112.469 23.0813 112.514 22.3554 112.56 21.6295C112.607 20.8809 112.653 20.1322 112.699 19.3835C112.739 18.739 112.778 18.0945 112.819 17.4499C112.843 17.0657 112.867 16.6814 112.89 16.2971C112.916 15.8702 112.943 15.4434 112.97 15.0165C112.978 14.8891 112.986 14.7616 112.994 14.6303C113.005 14.4568 113.005 14.4568 113.016 14.2798C113.023 14.179 113.029 14.0781 113.035 13.9742C113.062 13.7339 113.062 13.7339 113.171 13.5193Z" fill="#1F4298"/>
<path d="M27.2426 -0.0334997C27.3227 -0.0375107 27.4028 -0.0415217 27.4853 -0.0456543C28.2306 0.0825973 28.7889 0.782486 29.2975 1.28863C29.385 1.37487 29.4725 1.4611 29.5626 1.54995C29.8507 1.83414 30.138 2.11911 30.4252 2.40413C30.6254 2.60219 30.8257 2.80021 31.026 2.99821C31.4452 3.41272 31.8639 3.82767 32.2824 4.24289C32.7658 4.7226 33.2501 5.20152 33.7347 5.68005C34.2017 6.1412 34.6681 6.60295 35.1342 7.06496C35.3324 7.26122 35.5307 7.45732 35.7291 7.65326C36.006 7.92678 36.2822 8.20098 36.5582 8.47538C36.6406 8.55643 36.7229 8.63749 36.8077 8.721C36.8828 8.79591 36.9578 8.87081 37.0352 8.94798C37.1331 9.04506 37.1331 9.04506 37.2331 9.1441C37.6076 9.57599 37.6575 9.94204 37.6419 10.4954C37.6038 10.8298 37.515 11.0138 37.29 11.2661C36.8157 11.5756 36.4444 11.6577 35.8808 11.588C33.1168 9.76411 31.0753 7.04609 28.7264 4.72106C28.7264 16.5118 28.7264 28.3026 28.7264 40.4507C29.2272 40.6985 29.728 40.9464 30.244 41.2017C31.1541 41.943 31.8403 42.9354 32.0868 44.0987C32.2405 45.8382 31.9444 47.1465 30.8139 48.5113C29.9574 49.44 28.8052 49.9291 27.5517 50.0231C26.2089 50.0658 24.9706 49.6836 23.925 48.8319C22.8658 47.8308 22.3189 46.6186 22.2833 45.1583C22.3292 43.792 22.7965 42.6319 23.7306 41.6225C24.3885 41.0226 25.0504 40.6932 25.9079 40.4507C25.8722 28.6599 25.8364 16.8691 25.7995 4.72106C23.5459 6.95175 21.2922 9.18243 18.9703 11.4807C18.4421 11.7421 18.1239 11.7263 17.561 11.588C17.1884 11.3604 16.935 11.1476 16.8022 10.7296C16.7315 10.1107 16.8816 9.72451 17.2358 9.2275C17.5173 8.90519 17.82 8.60638 18.1257 8.30673C18.2151 8.21784 18.3046 8.12895 18.3967 8.03736C18.6911 7.74507 18.9867 7.45396 19.2823 7.16289C19.4876 6.95979 19.6928 6.75665 19.8979 6.55345C20.3272 6.12846 20.7571 5.70412 21.1874 5.28017C21.6849 4.79003 22.1814 4.29894 22.6774 3.80732C23.1552 3.33378 23.6336 2.86084 24.1123 2.3882C24.3158 2.18719 24.5192 1.98604 24.7224 1.78473C25.0058 1.50422 25.2898 1.22441 25.5741 0.944792C25.6584 0.861077 25.7427 0.777363 25.8296 0.691111C25.9069 0.61531 25.9843 0.53951 26.0639 0.461412C26.131 0.395231 26.1981 0.329051 26.2672 0.260864C26.5663 0.00953914 26.864 -0.0212015 27.2426 -0.0334997ZM25.7657 43.4751C25.2955 43.9621 25.0222 44.4359 24.9865 45.1181C25.0247 45.8261 25.3165 46.3467 25.8402 46.8214C26.3963 47.2523 26.938 47.399 27.6423 47.3176C28.408 47.0516 28.8649 46.7257 29.2684 46.0301C29.4519 45.485 29.4818 44.8594 29.3065 44.3062C29.0044 43.7351 28.5378 43.2698 27.9286 43.0342C27.0825 42.8209 26.4803 43.0079 25.7657 43.4751Z" fill="#1F4298"/>
<path d="M45.2034 15.4506C45.8074 15.7979 46.2697 16.2611 46.76 16.7491C46.8929 16.88 46.8929 16.88 47.0284 17.0136C47.32 17.3013 47.6108 17.5897 47.9015 17.8782C48.1042 18.0787 48.3069 18.2791 48.5096 18.4795C48.9339 18.8991 49.3577 19.3191 49.7813 19.7393C50.2707 20.2249 50.7608 20.7097 51.2514 21.1941C51.7241 21.6608 52.1961 22.1282 52.6679 22.5958C52.8685 22.7945 53.0692 22.993 53.2701 23.1913C53.5503 23.4682 53.8299 23.7457 54.1093 24.0234C54.1926 24.1055 54.276 24.1876 54.3619 24.2721C54.4378 24.3479 54.5138 24.4237 54.5921 24.5018C54.6582 24.5673 54.7243 24.6328 54.7924 24.7003C55.0898 25.0428 55.2089 25.3417 55.2169 25.7913C55.22 25.8696 55.2231 25.9479 55.2262 26.0285C55.0842 26.765 54.3876 27.3133 53.8744 27.8185C53.7873 27.9051 53.7001 27.9917 53.6104 28.081C53.3233 28.3661 53.0354 28.6504 52.7474 28.9347C52.5473 29.1329 52.3472 29.3312 52.1472 29.5294C51.7284 29.9443 51.3092 30.3588 50.8897 30.773C50.4051 31.2515 49.9212 31.7308 49.4377 32.2105C48.9719 32.6728 48.5053 33.1344 48.0386 33.5958C47.8403 33.7919 47.6422 33.9882 47.4442 34.1846C47.1679 34.4587 46.8909 34.7321 46.6136 35.0053C46.5317 35.0867 46.4499 35.1682 46.3655 35.2522C46.2898 35.3265 46.2141 35.4008 46.1362 35.4773C46.0381 35.5743 46.0381 35.5743 45.938 35.6732C45.5153 36.0324 45.1335 36.1103 44.5881 36.1005C44.1492 36.0151 43.8554 35.7444 43.5773 35.4077C43.4466 35.0194 43.434 34.7433 43.4689 34.3348C43.7633 33.8324 44.125 33.4409 44.5389 33.0368C44.6013 32.9749 44.6638 32.9131 44.7281 32.8494C44.9329 32.6469 45.1384 32.4451 45.3439 32.2433C45.4868 32.1024 45.6295 31.9613 45.7723 31.8203C46.1467 31.4505 46.5219 31.0813 46.8971 30.7122C47.2804 30.335 47.6632 29.9571 48.0459 29.5794C48.7961 28.8391 49.5469 28.0996 50.2982 27.3605C49.6582 27.3527 49.0182 27.3467 48.3782 27.3428C48.161 27.3412 47.9438 27.339 47.7266 27.3362C45.4562 27.3076 43.5927 27.6435 41.8429 29.1845C41.7434 29.27 41.7434 29.27 41.6418 29.3572C40.2493 30.6351 39.5744 32.4681 39.4258 34.3053C39.4108 34.7097 39.4047 35.1132 39.4026 35.5179C39.4008 35.6648 39.3988 35.8116 39.3967 35.9585C39.3917 36.3389 39.3884 36.7194 39.3855 37.0999C39.3823 37.4905 39.3772 37.8812 39.3724 38.2718C39.3631 39.0338 39.3558 39.7959 39.3497 40.5579C39.4514 40.5901 39.553 40.6223 39.6578 40.6555C40.763 41.0332 41.6127 41.913 42.1478 42.9184C42.7573 44.2302 42.7955 45.6281 42.3113 46.9957C41.7314 48.2998 40.6852 49.2671 39.3497 49.7854C38.0929 50.2052 36.6828 50.0909 35.4841 49.5473C34.2034 48.842 33.3064 47.7571 32.8926 46.3588C32.5995 44.9755 32.8359 43.5962 33.5841 42.4088C33.6964 42.2546 33.8115 42.1025 33.9297 41.9528C33.9815 41.8867 34.0333 41.8206 34.0867 41.7524C34.4824 41.3085 34.9408 41.058 35.4744 40.8035C35.5448 40.7693 35.6152 40.7352 35.6878 40.6999C35.8603 40.6163 36.0331 40.5334 36.2061 40.4506C36.2067 40.3671 36.2073 40.2835 36.208 40.1974C36.2143 39.4021 36.2222 38.6069 36.2316 37.8116C36.2364 37.4029 36.2407 36.9943 36.2436 36.5856C36.2465 36.1897 36.2509 35.7939 36.2563 35.398C36.2581 35.2485 36.2593 35.099 36.26 34.9495C36.2754 31.9116 37.2978 29.2148 39.4581 27.0386C42.0163 24.6535 44.9992 24.1702 48.3741 24.0813C48.5405 24.0766 48.7069 24.0719 48.8733 24.0672C49.276 24.0559 49.6787 24.045 50.0814 24.0343C49.9599 23.9151 49.9599 23.9151 49.836 23.7935C49.0726 23.0445 48.3102 22.2947 47.5486 21.544C47.157 21.1581 46.7651 20.7725 46.3725 20.3875C45.9937 20.0161 45.6156 19.6438 45.2381 19.2709C45.094 19.1289 44.9495 18.987 44.8048 18.8455C44.6021 18.6472 44.4005 18.448 44.199 18.2484C44.139 18.1902 44.0789 18.1319 44.0171 18.0719C43.701 17.7565 43.4782 17.4924 43.3605 17.0601C43.3717 16.3623 43.5072 16.0447 44.011 15.5579C44.409 15.4266 44.7911 15.3727 45.2034 15.4506ZM36.2785 43.4654C35.6893 44.1116 35.513 44.5319 35.5269 45.4022C35.5706 45.8669 35.6879 46.2051 35.9893 46.5665C36.6414 47.1002 37.1896 47.3734 38.0489 47.3176C38.8125 47.1691 39.2316 46.7511 39.6749 46.1373C39.9533 45.6702 39.9631 45.1644 39.8917 44.6352C39.6932 44.011 39.3626 43.603 38.8077 43.2403C37.906 42.8613 37.0553 42.7738 36.2785 43.4654Z" fill="#1F4298"/>
<path d="M10.8403 15.4507C11.2256 15.5999 11.3512 15.7258 11.5788 16.0676C11.7268 16.4685 11.7543 16.7436 11.7075 17.1674C11.4721 17.6362 11.1308 17.9821 10.7583 18.3459C10.6959 18.4077 10.6335 18.4696 10.5691 18.5333C10.3638 18.7364 10.1577 18.9387 9.95153 19.1411C9.80855 19.2822 9.66563 19.4234 9.52274 19.5646C9.14738 19.9353 8.77137 20.3054 8.39522 20.6753C8.01117 21.0532 7.62774 21.4318 7.24425 21.8103C6.49233 22.5522 5.73972 23.2935 4.98667 24.0344C5.06984 24.0372 5.153 24.04 5.23868 24.0429C5.62062 24.0561 6.00253 24.0695 6.38445 24.083C6.51525 24.0874 6.64605 24.0919 6.78081 24.0965C10.1648 24.217 13.0791 25.0357 15.4889 27.5257C17.3415 29.6572 18.1448 32.1064 18.1244 34.8893C18.124 35.0536 18.1237 35.2179 18.1234 35.3822C18.1226 35.8107 18.1205 36.2391 18.1181 36.6675C18.1159 37.1063 18.1149 37.5451 18.1138 37.9839C18.1115 38.8419 18.1078 39.7 18.1032 40.558C18.2052 40.573 18.3072 40.5879 18.4123 40.6033C19.159 40.7388 19.7744 41.3006 20.2712 41.8455C20.3494 41.9204 20.3494 41.9204 20.4292 41.9968C21.2095 42.7927 21.5727 43.9756 21.5991 45.0711C21.5748 46.3747 21.1386 47.5503 20.2674 48.5318C19.2689 49.4772 18.0304 49.9851 16.6601 50.0336C15.2502 49.9986 13.951 49.4973 12.9677 48.4778C12.1162 47.4453 11.6423 46.23 11.6804 44.8938C11.815 43.6096 12.3054 42.3198 13.3132 41.4641C14.4792 40.558 14.4792 40.558 15.068 40.558C15.0613 39.6727 15.0529 38.7875 15.0424 37.9023C15.0376 37.4911 15.0333 37.0799 15.0304 36.6687C15.0276 36.2707 15.0232 35.8728 15.0178 35.4749C15.016 35.3242 15.0147 35.1735 15.014 35.0228C15.0075 33.7212 14.8613 32.4818 14.2414 31.3171C14.2037 31.2451 14.166 31.1731 14.1272 31.0989C13.1884 29.3666 11.7075 28.2171 9.82848 27.5992C8.81585 27.3101 7.84537 27.3237 6.80239 27.3404C6.62554 27.3421 6.44868 27.3435 6.27182 27.3448C5.8434 27.3483 5.41505 27.3539 4.98667 27.3606C5.06903 27.4416 5.15139 27.5226 5.23625 27.6061C6.01204 28.3697 6.78726 29.1338 7.56192 29.8984C7.9602 30.2915 8.35869 30.6844 8.75763 31.0769C9.14257 31.4556 9.52698 31.8348 9.91103 32.2144C10.0577 32.3591 10.2046 32.5037 10.3516 32.6481C10.5574 32.8503 10.7625 33.0531 10.9675 33.2561C11.0286 33.3157 11.0896 33.3754 11.1525 33.4369C11.5713 33.8536 11.7959 34.1166 11.8498 34.7036C11.8023 35.2398 11.6214 35.4816 11.2604 35.8705C10.8362 36.1169 10.4537 36.1578 9.97312 36.0515C9.3692 35.704 8.9069 35.2411 8.41645 34.7531C8.32789 34.6658 8.23933 34.5785 8.14808 34.4886C7.85649 34.2009 7.5657 33.9125 7.27495 33.624C7.07228 33.4235 6.86958 33.2231 6.66684 33.0227C6.24257 32.6031 5.81875 32.1831 5.39519 31.7628C4.90581 31.2773 4.41566 30.7925 3.9251 30.3081C3.45243 29.8414 2.98037 29.374 2.50856 28.9064C2.308 28.7077 2.10729 28.5092 1.90641 28.3109C1.62614 28.034 1.34658 27.7565 1.06719 27.4787C0.983847 27.3967 0.900504 27.3146 0.814634 27.2301C0.73866 27.1543 0.662685 27.0785 0.584408 27.0004C0.518304 26.9349 0.4522 26.8693 0.384093 26.8019C0.0260211 26.3896 -0.065032 26.0146 -0.0446843 25.4803C0.0891568 24.6886 0.960933 24.0183 1.51194 23.476C1.63765 23.351 1.63765 23.351 1.7659 23.2235C2.04076 22.9505 2.31641 22.6782 2.59211 22.4061C2.78434 22.2157 2.97655 22.0252 3.16872 21.8347C3.62178 21.3859 4.0754 20.9377 4.52922 20.4896C4.94222 20.0818 5.35441 19.6731 5.76641 19.2643C6.21368 18.8205 6.66154 18.3773 7.10967 17.9343C7.2997 17.7464 7.48956 17.5583 7.67926 17.37C7.94413 17.1073 8.20969 16.8453 8.47544 16.5835C8.55356 16.5057 8.63168 16.4279 8.71216 16.3478C9.38604 15.6864 9.86609 15.3244 10.8403 15.4507ZM14.9596 43.6696C14.5703 44.2154 14.3731 44.7106 14.4176 45.3863C14.5749 46.0645 14.8521 46.5627 15.416 46.9832C15.9338 47.3032 16.4168 47.3783 17.0192 47.3176C17.7779 47.0901 18.2599 46.7511 18.6452 46.0464C18.8935 45.4947 18.9313 45.0003 18.7536 44.4206C18.4245 43.743 18.0468 43.3135 17.3444 43.0258C16.4562 42.8131 15.6116 43.0057 14.9596 43.6696Z" fill="#1F4298"/>
<path d="M168.347 13.5192C169.711 13.5148 171.075 13.5104 172.48 13.5058C172.907 13.5039 173.335 13.5019 173.775 13.4999C174.305 13.4989 174.305 13.4989 174.555 13.4988C174.726 13.4984 174.897 13.4977 175.068 13.4966C177.049 13.4845 178.966 13.5344 180.474 14.9795C181.727 16.3743 181.757 18.2031 181.7 19.9705C181.615 21.3193 181.174 22.5871 180.136 23.4978C180 23.6056 179.865 23.713 179.729 23.8197C179.657 23.8905 179.586 23.9613 179.512 24.0343C179.742 24.4747 179.973 24.915 180.203 25.3553C180.237 25.4207 180.272 25.486 180.307 25.5533C180.802 26.4988 181.299 27.4427 181.805 28.3824C182.114 28.9584 182.114 28.9584 182.114 29.0772C180.254 29.0772 178.394 29.0772 176.477 29.0772C176.153 28.4361 175.837 27.8044 175.55 27.1484C175.517 27.0737 175.484 26.999 175.45 26.922C175.347 26.6883 175.245 26.4544 175.142 26.2204C175.072 26.0599 175.001 25.8994 174.93 25.7388C174.759 25.3496 174.588 24.9602 174.417 24.5707C174.095 24.5353 173.773 24.4999 173.442 24.4634C173.442 25.986 173.442 27.5085 173.442 29.0772C171.76 29.0772 170.079 29.0772 168.347 29.0772C168.347 23.9431 168.347 18.8089 168.347 13.5192ZM173.442 17.5965C173.442 18.5879 173.442 19.5793 173.442 20.6008C173.874 20.6107 173.874 20.6107 174.316 20.6209C174.405 20.6238 174.494 20.6268 174.586 20.6298C175.153 20.636 175.547 20.5573 176.043 20.2789C176.328 19.9308 176.293 19.5398 176.294 19.1053C176.296 18.976 176.298 18.8467 176.3 18.7135C176.256 18.3089 176.206 18.1166 175.935 17.8111C175.377 17.5829 174.854 17.5692 174.262 17.5831C173.856 17.5897 173.856 17.5897 173.442 17.5965Z" fill="#1F4298"/>
<path d="M65.4742 13.5193C68.0498 13.5193 70.6254 13.5193 73.2791 13.5193C73.7857 15.3995 74.2914 17.2792 74.781 19.1637C74.8368 19.3779 74.8926 19.5921 74.9484 19.8064C75.0925 20.3596 75.2364 20.9128 75.3803 21.466C75.6114 22.3548 75.8428 23.2435 76.0742 24.1322C76.1536 24.4371 76.2328 24.742 76.3121 25.0469C76.3619 25.2381 76.4116 25.4292 76.4613 25.6204C76.4851 25.7117 76.5088 25.803 76.5333 25.8971C76.6552 26.3652 76.7788 26.8327 76.9052 27.2996C76.9305 27.3934 76.9558 27.4872 76.9819 27.5838C77.03 27.7619 77.0785 27.9399 77.1273 28.1177C77.2161 28.4464 77.2899 28.7354 77.2899 29.0772C75.5013 29.0772 73.7127 29.0772 71.8699 29.0772C71.691 28.2983 71.5122 27.5193 71.3279 26.7167C70.0043 26.6813 68.6807 26.6459 67.317 26.6094C67.2813 26.8927 67.2455 27.1759 67.2086 27.4678C67.0655 27.9989 66.9225 28.53 66.775 29.0772C65.0222 29.0772 63.2693 29.0772 61.4634 29.0772C61.5853 28.1116 61.5853 28.1116 61.6852 27.7288C61.7189 27.5981 61.7189 27.5981 61.7533 27.4649C61.7777 27.3723 61.8022 27.2798 61.8273 27.1845C61.8662 27.0346 61.8662 27.0346 61.9059 26.8816C61.9916 26.5518 62.0781 26.2223 62.1646 25.8927C62.2253 25.6597 62.286 25.4267 62.3467 25.1937C62.5069 24.5787 62.6678 23.9638 62.8289 23.349C62.9574 22.8579 63.0854 22.3668 63.2134 21.8756C63.7709 19.7359 64.3302 17.5966 64.8993 15.4599C64.9411 15.3028 64.9829 15.1458 65.0245 14.9887C65.0805 14.7778 65.1369 14.567 65.1933 14.3562C65.2398 14.1821 65.2398 14.1821 65.2872 14.0044C65.3658 13.7339 65.3658 13.7339 65.4742 13.5193ZM69.2683 18.3476C69.1288 18.907 68.9899 19.4665 68.8514 20.0261C68.8042 20.2165 68.7569 20.4068 68.7095 20.5971C68.6413 20.8706 68.5736 21.1441 68.5061 21.4177C68.4847 21.5029 68.4634 21.5881 68.4414 21.6758C68.3606 22.0045 68.2926 22.2998 68.2926 22.6395C69.0081 22.6395 69.7235 22.6395 70.4607 22.6395C70.1387 21.2231 69.8168 19.8068 69.4851 18.3476C69.4135 18.3476 69.342 18.3476 69.2683 18.3476Z" fill="#1F4298"/>
<path d="M78.1572 13.5192C79.5233 13.5148 80.8893 13.5104 82.2968 13.5058C82.7254 13.5039 83.154 13.5019 83.5956 13.4999C84.1259 13.4989 84.1259 13.4989 84.3755 13.4988C84.5469 13.4984 84.7183 13.4977 84.8897 13.4966C86.845 13.4847 88.6983 13.5606 90.1766 14.9887C91.4248 16.3311 91.55 18.2059 91.5007 19.9514C91.4235 21.632 90.9977 23.2312 89.7087 24.3964C88.7842 25.1211 87.8079 25.3565 86.6502 25.3428C86.5038 25.3423 86.5038 25.3423 86.3545 25.3418C86.0453 25.3406 85.7361 25.338 85.4269 25.3352C85.2162 25.3341 85.0056 25.3332 84.7949 25.3323C84.2806 25.3301 83.7664 25.3259 83.2521 25.3218C83.2521 26.5611 83.2521 27.8003 83.2521 29.0772C81.5708 29.0772 79.8895 29.0772 78.1572 29.0772C78.1572 23.9431 78.1572 18.8089 78.1572 13.5192ZM83.2521 17.5965C83.2521 18.8358 83.2521 20.075 83.2521 21.3518C84.5776 21.4364 84.5776 21.4364 85.819 21.006C86.1295 20.5923 86.0126 19.9754 86.0095 19.4809C86.0117 19.358 86.0139 19.2351 86.0161 19.1085C86.016 18.9312 86.016 18.9312 86.0159 18.7503C86.0161 18.6423 86.0163 18.5342 86.0165 18.4228C85.9467 18.0509 85.8325 17.9284 85.5285 17.7038C84.7952 17.5404 84.7952 17.5404 83.2521 17.5965Z" fill="#1F4298"/>
<path d="M140.488 13.5193C144.709 13.5193 148.93 13.5193 153.279 13.5193C153.279 17.3269 153.279 17.3269 152.033 18.5786C151.546 19.0885 151.128 19.6315 150.711 20.1985C150.577 20.3765 150.443 20.5544 150.308 20.732C150.243 20.8178 150.178 20.9036 150.111 20.9919C149.582 21.6877 149.045 22.3776 148.509 23.0686C148.044 23.6706 147.579 24.2725 147.1 24.8927C149.175 24.9281 151.25 24.9635 153.388 25C153.388 26.3455 153.388 27.691 153.388 29.0772C148.916 29.0772 144.444 29.0772 139.837 29.0772C139.837 25.4411 139.837 25.4411 141.151 24.1375C141.472 23.8067 141.735 23.4398 142.005 23.0686C142.46 22.4628 142.925 21.8657 143.394 21.2714C144.156 20.3073 144.898 19.3293 145.637 18.3481C145.799 18.1331 145.962 17.9184 146.125 17.7038C144.408 17.6684 142.691 17.633 140.921 17.5965C140.85 17.0433 140.778 16.49 140.705 15.92C140.682 15.7466 140.659 15.5733 140.636 15.3946C140.61 15.1879 140.61 15.1879 140.583 14.977C140.564 14.8365 140.546 14.6961 140.528 14.5513C140.488 14.1631 140.488 14.1631 140.488 13.5193Z" fill="#1F4298"/>
<path d="M155.122 13.5193C158.807 13.5193 162.491 13.5193 166.287 13.5193C165.745 17.1674 165.745 17.1674 165.637 17.5965C163.848 17.5965 162.06 17.5965 160.217 17.5965C160.217 18.2693 160.217 18.942 160.217 19.6352C161.862 19.6352 163.508 19.6352 165.203 19.6352C165.203 20.839 165.203 22.0429 165.203 23.2832C163.558 23.2832 161.912 23.2832 160.217 23.2832C160.217 23.8498 160.217 24.4163 160.217 25C162.256 25 164.295 25 166.396 25C166.396 26.3455 166.396 27.691 166.396 29.0772C162.675 29.0772 158.955 29.0772 155.122 29.0772C155.122 23.9431 155.122 18.809 155.122 13.5193Z" fill="#1F4298"/>
<path d="M91.7073 13.5193C95.7853 13.5193 99.8634 13.5193 104.065 13.5193C104.065 14.8648 104.065 16.2103 104.065 17.5965C102.885 17.5965 101.704 17.5965 100.488 17.5965C100.488 21.3852 100.488 25.1738 100.488 29.0772C98.8065 29.0772 97.1252 29.0772 95.3929 29.0772C95.3929 25.2886 95.3929 21.5 95.3929 17.5965C94.1767 17.5965 92.9604 17.5965 91.7073 17.5965C91.7073 16.251 91.7073 14.9056 91.7073 13.5193Z" fill="#1F4298"/>
<path d="M133.008 13.5193C134.689 13.5193 136.371 13.5193 138.103 13.5193C138.103 18.6534 138.103 23.7875 138.103 29.0772C136.422 29.0772 134.74 29.0772 133.008 29.0772C133.008 23.9431 133.008 18.809 133.008 13.5193Z" fill="#1F4298"/>
<path d="M105.366 13.5193C107.047 13.5193 108.729 13.5193 110.461 13.5193C110.461 18.6534 110.461 23.7875 110.461 29.0772C108.78 29.0772 107.098 29.0772 105.366 29.0772C105.366 23.9431 105.366 18.809 105.366 13.5193Z" fill="#1F4298"/>
<path d="M62.2222 34.3347C63.3312 34.3347 64.4401 34.3347 65.5827 34.3347C65.6632 34.6202 65.7437 34.9057 65.8266 35.1998C65.8509 35.286 65.8753 35.3721 65.9004 35.4609C66.1263 36.2642 66.3412 37.0696 66.5583 37.8755C66.8445 36.707 67.1307 35.5386 67.4255 34.3347C68.5702 34.3347 69.7149 34.3347 70.8943 34.3347C70.9511 35.1986 71.0077 36.0625 71.0638 36.9264C71.0899 37.3288 71.1162 37.7311 71.1427 38.1335C71.1683 38.5217 71.1935 38.9099 71.2186 39.2981C71.2282 39.4455 71.2378 39.593 71.2476 39.7404C71.2614 39.9483 71.2748 40.1563 71.2881 40.3642C71.2997 40.5411 71.2997 40.5411 71.3115 40.7216C71.3312 41.1674 71.3279 41.6139 71.3279 42.06C70.4336 42.06 69.5393 42.06 68.6179 42.06C68.5106 40.5198 68.5106 40.5198 68.4011 38.9485C68.156 39.8921 68.156 39.8921 67.9114 40.8359C67.8809 40.953 67.8503 41.0701 67.8189 41.1908C67.772 41.3711 67.772 41.3711 67.7243 41.5551C67.6423 41.8454 67.6423 41.8454 67.5339 42.06C66.8542 42.06 66.1746 42.06 65.4743 42.06C65.2239 41.104 64.9735 40.148 64.7155 39.163C64.6054 39.49 64.5856 39.7368 64.5728 40.0797C64.5666 40.2353 64.5666 40.2353 64.5603 40.3941C64.5532 40.5914 64.5532 40.5914 64.5461 40.7926C64.5304 41.2109 64.5148 41.6291 64.4987 42.06C63.6044 42.06 62.7101 42.06 61.7886 42.06C61.7703 40.6633 61.8315 39.2813 61.9216 37.8875C61.9447 37.53 61.9668 37.1725 61.9887 36.8149C62.0031 36.5857 62.0176 36.3565 62.0321 36.1273C62.0387 36.0214 62.0452 35.9154 62.052 35.8062C62.0617 35.6573 62.0617 35.6573 62.0717 35.5053C62.0772 35.4188 62.0828 35.3323 62.0885 35.2432C62.1177 34.9386 62.1714 34.6366 62.2222 34.3347Z" fill="#1F4298"/>
<path d="M168.022 33.7982C168.022 34.4356 168.022 35.0729 168.022 35.7296C168.2 35.6942 168.379 35.6587 168.564 35.6223C169.501 35.5557 170.283 35.5711 171.03 36.1923C172.044 37.3914 172.042 38.6253 171.924 40.1287C171.788 40.8571 171.456 41.3497 170.865 41.8019C169.498 42.6547 167.585 42.3436 166.084 42.0336C165.745 41.9527 165.745 41.9527 165.42 41.8454C165.42 39.2607 165.42 36.6759 165.42 34.0128C165.712 33.8683 165.968 33.8689 166.294 33.8452C166.47 33.8317 166.47 33.8317 166.65 33.8179C167.107 33.7952 167.564 33.7982 168.022 33.7982ZM168.158 37.6801C167.972 37.9463 167.984 38.1251 167.99 38.4468C167.991 38.5571 167.992 38.6674 167.993 38.781C167.996 38.896 167.998 39.011 168.001 39.1295C168.003 39.2458 168.004 39.362 168.006 39.4818C168.01 39.769 168.015 40.0561 168.022 40.3433C168.18 40.352 168.338 40.3582 168.496 40.3634C168.628 40.369 168.628 40.369 168.763 40.3747C168.84 40.3644 168.917 40.354 168.997 40.3433C169.239 39.9837 169.24 39.8693 169.235 39.4501C169.234 39.3398 169.234 39.2295 169.233 39.1159C169.231 39.0009 169.229 38.8859 169.228 38.7674C169.227 38.6511 169.226 38.5349 169.225 38.4151C169.222 38.1279 169.218 37.8408 169.214 37.5536C169.009 37.5436 169.009 37.5436 168.801 37.5335C168.724 37.5297 168.647 37.526 168.568 37.5222C168.34 37.5383 168.34 37.5383 168.158 37.6801Z" fill="#1F4298"/>
<path d="M133.659 33.7982C133.659 34.5064 133.659 35.2145 133.659 35.9442C133.811 35.891 133.963 35.8379 134.119 35.7832C135.072 35.5027 136.019 35.487 136.911 35.9442C137.196 36.185 137.329 36.3737 137.381 36.7444C137.394 37.0816 137.393 37.4161 137.386 37.7535C137.386 37.8766 137.385 37.9997 137.385 38.1265C137.382 38.519 137.377 38.9114 137.371 39.3039C137.369 39.5702 137.367 39.8366 137.365 40.1029C137.361 40.7554 137.352 41.4076 137.344 42.06C136.486 42.06 135.627 42.06 134.743 42.06C134.743 40.6437 134.743 39.2274 134.743 37.7682C134.421 37.839 134.099 37.9098 133.767 37.9828C133.731 39.3283 133.695 40.6738 133.659 42.06C132.8 42.06 131.941 42.06 131.057 42.06C131.057 39.4045 131.057 36.7489 131.057 34.0128C131.349 33.8683 131.605 33.8689 131.931 33.8452C132.107 33.8317 132.107 33.8317 132.287 33.8179C132.744 33.7952 133.201 33.7982 133.659 33.7982Z" fill="#1F4298"/>
<path d="M81.8428 33.7982C81.8786 34.9667 81.9144 36.1351 81.9512 37.339C82.2016 36.8433 82.4521 36.3476 82.71 35.8369C83.6401 35.8369 84.5702 35.8369 85.5285 35.8369C85.3742 36.1777 85.2199 36.5185 85.061 36.8696C84.989 37.0288 84.989 37.0288 84.9156 37.1913C84.8768 37.2768 84.838 37.3624 84.798 37.4505C84.7563 37.5431 84.7146 37.6356 84.6716 37.731C84.5529 37.9828 84.5529 37.9828 84.3517 38.334C84.1609 38.7841 84.281 39.132 84.4578 39.5764C84.5319 39.7311 84.5319 39.7311 84.6075 39.889C84.6877 40.0587 84.6877 40.0587 84.7695 40.2318C84.8254 40.3483 84.8814 40.4647 84.939 40.5847C85.0502 40.8176 85.161 41.0506 85.2714 41.2838C85.3207 41.3865 85.37 41.4891 85.4207 41.5949C85.5285 41.8454 85.5285 41.8454 85.5285 42.06C84.5984 42.06 83.6683 42.06 82.71 42.06C82.3344 41.1571 82.3344 41.1571 81.9512 40.236C81.9155 40.8379 81.8797 41.4399 81.8428 42.06C80.9843 42.06 80.1258 42.06 79.2412 42.06C79.2412 39.4045 79.2412 36.7489 79.2412 34.0128C79.5333 33.8683 79.7895 33.8689 80.1152 33.8452C80.2915 33.8317 80.2915 33.8317 80.4713 33.8179C80.928 33.7952 81.3856 33.7982 81.8428 33.7982Z" fill="#1F4298"/>
<path d="M95.7183 35.8369C96.5768 35.8369 97.4353 35.8369 98.3199 35.8369C98.449 36.3483 98.5679 36.8275 98.6527 37.3424C98.6716 37.4558 98.6904 37.5692 98.7099 37.6861C98.7287 37.8017 98.7476 37.9174 98.767 38.0365C98.7867 38.1554 98.8064 38.2744 98.8267 38.3969C98.8749 38.688 98.9228 38.9792 98.9703 39.2704C99.0061 39.2704 99.0418 39.2704 99.0787 39.2704C99.0945 39.174 99.1104 39.0776 99.1267 38.9783C99.1856 38.6211 99.2449 38.264 99.3043 37.9069C99.33 37.7523 99.3555 37.5976 99.381 37.443C99.4175 37.2208 99.4545 36.9987 99.4916 36.7766C99.5137 36.6429 99.5358 36.5091 99.5586 36.3714C99.6207 36.0515 99.6207 36.0515 99.7291 35.8369C100.588 35.8369 101.446 35.8369 102.331 35.8369C102.032 37.1907 101.716 38.5388 101.379 39.8838C101.326 40.0936 101.275 40.3036 101.223 40.5136C101.147 40.8228 101.07 41.1318 100.993 41.4406C100.97 41.5334 100.948 41.6262 100.925 41.7218C100.709 42.5698 100.426 43.3123 99.7291 43.8841C99.2787 44.1106 98.9004 44.1238 98.3991 44.1197C98.3253 44.1194 98.2514 44.1191 98.1754 44.1188C97.9412 44.1176 97.7071 44.1149 97.473 44.1121C97.3136 44.1111 97.1542 44.1101 96.9947 44.1092C96.6053 44.107 96.2161 44.1028 95.8267 44.0987C95.8267 43.5322 95.8267 42.9657 95.8267 42.382C96.0149 42.3392 96.0149 42.3392 96.2069 42.2956C96.3738 42.2574 96.5406 42.2191 96.7074 42.1808C96.7899 42.1621 96.8723 42.1435 96.9573 42.1242C97.4209 42.0174 97.8705 41.896 98.3199 41.7382C98.3199 41.6674 98.3199 41.5966 98.3199 41.5236C97.9264 41.4882 97.5329 41.4528 97.1275 41.4163C96.8948 40.7503 96.7 40.0865 96.5334 39.4016C96.5098 39.3058 96.4862 39.21 96.4619 39.1114C96.4126 38.911 96.3635 38.7106 96.3146 38.5101C96.2395 38.2022 96.1636 37.8946 96.0877 37.587C96.0398 37.3916 95.9918 37.1962 95.944 37.0008C95.9213 36.9087 95.8986 36.8166 95.8752 36.7218C95.7183 36.0763 95.7183 36.0763 95.7183 35.8369Z" fill="#1F4298"/>
<path d="M77.7237 36.2661C78.1969 36.9034 78.216 37.4179 78.1997 38.1936C78.199 38.3045 78.1984 38.4154 78.1978 38.5296C78.1954 38.8816 78.1899 39.2336 78.1844 39.5855C78.1822 39.8251 78.1803 40.0646 78.1785 40.3041C78.1737 40.8895 78.1665 41.4748 78.1573 42.0601C77.9316 42.0717 77.7057 42.08 77.4798 42.0869C77.354 42.0919 77.2283 42.0968 77.0987 42.102C76.6856 42.0526 76.5687 41.9472 76.3145 41.6309C76.0493 41.7335 75.7885 41.8378 75.532 41.9603C74.6593 42.3597 73.718 42.4429 72.7915 42.1539C72.261 41.8727 71.9564 41.5653 71.7616 40.9871C71.7458 40.7438 71.7377 40.4999 71.7345 40.2561C71.7317 40.1271 71.729 39.9981 71.7261 39.8651C71.7735 39.3582 71.9195 39.0097 72.2816 38.645C72.3864 38.5695 72.3864 38.5695 72.4934 38.4925C72.5621 38.441 72.6309 38.3896 72.7017 38.3366C73.3283 37.9911 73.9817 37.9442 74.6817 37.9158C74.8084 37.9095 74.8084 37.9095 74.9377 37.9032C75.1436 37.8932 75.3497 37.8842 75.5557 37.8755C75.5557 37.7693 75.5557 37.6631 75.5557 37.5536C75.1921 37.5869 74.8285 37.6205 74.4649 37.6542C74.3627 37.6636 74.2605 37.6729 74.1551 37.6825C74.0549 37.6918 73.9546 37.7012 73.8513 37.7108C73.7599 37.7192 73.6685 37.7277 73.5744 37.7363C73.222 37.7744 72.8713 37.8259 72.5205 37.8755C72.4131 37.2736 72.3058 36.6717 72.1952 36.0515C73.7847 35.4222 76.2679 35.2207 77.7237 36.2661ZM74.3633 39.6996C74.3452 40.0304 74.3452 40.0304 74.3633 40.3433C74.5417 40.3462 74.7201 40.3483 74.8985 40.35C75.0475 40.3519 75.0475 40.3519 75.1996 40.3538C75.4436 40.3712 75.4436 40.3712 75.5557 40.236C75.5601 39.9857 75.5603 39.7353 75.5557 39.485C75.3976 39.4792 75.2395 39.475 75.0814 39.4715C74.9494 39.4678 74.9494 39.4678 74.8147 39.464C74.5569 39.462 74.5569 39.462 74.3633 39.6996Z" fill="#1F4298"/>
<path d="M144.063 36.2757C144.685 36.8589 144.908 37.6577 144.954 38.4803C144.976 39.6055 144.921 40.6095 144.173 41.5236C143.537 42.1715 142.71 42.2874 141.835 42.3182C140.804 42.3317 139.999 42.1783 139.092 41.6711C138.178 40.6599 138.161 39.4831 138.211 38.1974C138.285 37.3862 138.618 36.6525 139.256 36.1177C140.618 35.2711 142.771 35.3652 144.063 36.2757ZM141.247 37.5536C141.003 37.7487 141.003 37.7487 141.005 38.029C141.006 38.1357 141.007 38.2425 141.009 38.3525C141.009 38.468 141.01 38.5834 141.011 38.7024C141.013 38.8235 141.014 38.9445 141.016 39.0692C141.017 39.191 141.018 39.3129 141.019 39.4384C141.022 39.7401 141.025 40.0417 141.03 40.3433C141.168 40.3455 141.307 40.3477 141.45 40.35C141.528 40.3513 141.606 40.3525 141.686 40.3538C141.906 40.3569 141.906 40.3569 142.114 40.236C142.114 39.3508 142.114 38.4656 142.114 37.5536C141.828 37.5536 141.541 37.5536 141.247 37.5536Z" fill="#1F4298"/>
<path d="M194.519 36.0246C195.1 36.5298 195.209 37.1234 195.257 37.8553C195.247 38.4594 195.09 38.9634 194.675 39.4111C193.695 39.9802 192.654 40.0443 191.545 40.0214C191.545 40.1276 191.545 40.2338 191.545 40.3433C192.57 40.2943 193.569 40.2165 194.58 40.0214C194.795 40.6607 194.858 41.282 194.905 41.9527C193.439 42.322 191.432 42.6795 190.027 41.9527C189.301 41.5159 188.977 40.8968 188.771 40.0968C188.587 38.9087 188.628 37.6364 189.295 36.6013C189.741 36.0438 190.337 35.7867 191.026 35.6558C192.182 35.5273 193.464 35.4932 194.519 36.0246ZM191.545 37.7682C191.526 38.099 191.526 38.099 191.545 38.4119C191.723 38.4148 191.901 38.4169 192.08 38.4187C192.229 38.4205 192.229 38.4205 192.381 38.4224C192.625 38.4398 192.625 38.4398 192.737 38.3047C192.741 38.0543 192.742 37.8039 192.737 37.5536C192.579 37.5478 192.421 37.5436 192.263 37.5402C192.131 37.5364 192.131 37.5364 191.996 37.5326C191.738 37.5306 191.738 37.5306 191.545 37.7682Z" fill="#1F4298"/>
<path d="M160.806 36.0313C161.298 36.4466 161.489 36.8783 161.54 37.5054C161.553 38.2744 161.518 38.8223 160.962 39.4044C159.993 39.9881 158.938 40.0442 157.832 40.0214C157.832 40.1276 157.832 40.2338 157.832 40.3433C158.759 40.3005 159.638 40.245 160.542 40.0214C160.685 40.0214 160.828 40.0214 160.976 40.0214C161.012 40.2224 161.048 40.4237 161.084 40.6249C161.104 40.737 161.124 40.849 161.145 40.9644C161.191 41.2988 161.201 41.6157 161.192 41.9527C159.615 42.3502 157.697 42.6532 156.206 41.8454C155.586 41.4665 155.276 40.9053 155.095 40.2226C154.876 39.0735 154.896 37.7671 155.504 36.7371C156.618 35.3137 159.272 35.2308 160.806 36.0313ZM157.832 37.7682C157.805 38.099 157.805 38.099 157.832 38.4119C158.008 38.4206 158.184 38.4269 158.36 38.4321C158.459 38.4358 158.557 38.4395 158.658 38.4434C158.743 38.433 158.828 38.4226 158.916 38.4119C159.149 38.0656 159.155 37.9523 159.133 37.5536C158.977 37.5477 158.821 37.5436 158.665 37.5402C158.535 37.5364 158.535 37.5364 158.402 37.5326C158.126 37.5366 158.126 37.5366 157.832 37.7682Z" fill="#1F4298"/>
<path d="M91.9376 36.2057C92.3331 36.7407 92.3972 37.1474 92.3983 37.8084C92.401 37.8881 92.4036 37.9677 92.4064 38.0498C92.4094 38.6129 92.3026 38.9336 91.9241 39.3776C91.087 40.048 89.8042 40.0552 88.7804 40.0214C88.7804 40.1276 88.7804 40.2338 88.7804 40.3433C89.1441 40.31 89.5077 40.2764 89.8712 40.2427C90.0246 40.2287 90.0246 40.2287 90.181 40.2144C90.7286 40.1634 91.272 40.1042 91.8157 40.0214C91.9964 40.6652 92.0885 41.2869 92.1409 41.9527C90.6769 42.3216 88.6652 42.6811 87.2628 41.9527C86.5906 41.5363 86.2085 40.9689 86.0073 40.2138C85.8074 38.8913 85.9011 37.6685 86.5718 36.494C87.8419 35.3692 90.5583 35.1408 91.9376 36.2057ZM88.7804 37.6609C88.7804 37.9087 88.7804 38.1566 88.7804 38.4119C88.9589 38.4148 89.1373 38.4169 89.3157 38.4186C89.4647 38.4205 89.4647 38.4205 89.6167 38.4224C89.8608 38.4398 89.8608 38.4398 89.9729 38.3046C89.9773 38.0543 89.9775 37.8039 89.9729 37.5536C89.8148 37.5507 89.6567 37.5486 89.4986 37.5469C89.3666 37.545 89.3666 37.545 89.2318 37.5431C88.9919 37.538 88.9919 37.538 88.7804 37.6609Z" fill="#1F4298"/>
<path d="M178.367 36.0315C178.775 36.3764 178.974 36.716 179.078 37.2319C179.177 38.5841 179.177 38.5841 178.753 39.1632C178.1 39.8285 177.095 40.009 176.189 40.0274C175.923 40.0282 175.658 40.0263 175.393 40.0216C175.393 40.1278 175.393 40.234 175.393 40.3434C176.32 40.3006 177.199 40.2452 178.103 40.0216C178.246 40.0216 178.389 40.0216 178.536 40.0216C178.573 40.2226 178.609 40.4238 178.645 40.6251C178.665 40.7371 178.685 40.8492 178.706 40.9646C178.752 41.299 178.761 41.6159 178.753 41.9529C177.208 42.3422 175.216 42.6832 173.767 41.8456C173.442 41.5773 173.442 41.5773 173.225 41.3091C173.134 41.2062 173.134 41.2062 173.042 41.1012C172.449 40.1797 172.477 38.9072 172.649 37.8622C172.812 37.1443 173.181 36.5021 173.785 36.0549C175.035 35.357 177.106 35.3733 178.367 36.0315ZM175.393 37.7683C175.366 38.0992 175.366 38.0992 175.393 38.4121C175.569 38.4208 175.745 38.427 175.921 38.4322C176.019 38.436 176.118 38.4397 176.219 38.4435C176.304 38.4332 176.389 38.4228 176.477 38.4121C176.71 38.0658 176.715 37.9525 176.694 37.5537C176.538 37.5479 176.382 37.5438 176.226 37.5403C176.096 37.5366 176.096 37.5366 175.963 37.5328C175.687 37.5368 175.687 37.5368 175.393 37.7683Z" fill="#1F4298"/>
<path d="M108.315 36.2145C108.925 36.7135 109.215 37.3368 109.292 38.1181C109.407 40.4985 109.407 40.4985 108.651 41.4276C107.881 42.1758 107 42.3032 105.962 42.3149C104.907 42.303 104.061 42.1656 103.273 41.4188C102.561 40.5758 102.462 39.4717 102.547 38.412C102.711 37.4692 102.959 36.6708 103.754 36.0623C105.054 35.3047 107.072 35.3786 108.315 36.2145ZM105.366 37.7682C105.321 38.0385 105.321 38.0385 105.334 38.3524C105.335 38.4679 105.336 38.5834 105.337 38.7024C105.34 38.8234 105.343 38.9445 105.345 39.0692C105.347 39.191 105.348 39.3129 105.35 39.4384C105.354 39.7401 105.359 40.0417 105.366 40.3433C105.688 40.3433 106.01 40.3433 106.341 40.3433C106.55 39.9294 106.585 39.7943 106.579 39.3558C106.579 39.2507 106.578 39.1456 106.577 39.0373C106.575 38.9283 106.574 38.8193 106.572 38.707C106.571 38.5964 106.57 38.4857 106.569 38.3717C106.566 38.099 106.563 37.8263 106.558 37.5536C106.354 37.547 106.354 37.547 106.145 37.5402C106.068 37.5377 105.992 37.5352 105.912 37.5326C105.657 37.5394 105.657 37.5394 105.366 37.7682Z" fill="#1F4298"/>
<path d="M110.027 35.8369C110.886 35.8369 111.744 35.8369 112.629 35.8369C112.629 37.324 112.629 38.8112 112.629 40.3434C113.223 40.3449 113.223 40.3449 113.713 40.1288C113.73 39.8117 113.741 39.4968 113.747 39.1794C113.749 39.0843 113.751 38.9892 113.754 38.8912C113.761 38.5862 113.767 38.2812 113.774 37.9761C113.778 37.7699 113.783 37.5636 113.788 37.3573C113.8 36.8505 113.81 36.3437 113.821 35.8369C114.68 35.8369 115.538 35.8369 116.423 35.8369C116.423 37.8906 116.423 39.9442 116.423 42.0601C115.922 42.0601 115.421 42.0601 114.905 42.0601C114.762 41.9185 114.619 41.7768 114.471 41.6309C114.41 41.6616 114.348 41.6923 114.284 41.724C114.203 41.7641 114.122 41.8042 114.038 41.8455C113.963 41.8834 113.889 41.9213 113.812 41.9603C112.971 42.3435 112.093 42.4177 111.186 42.2202C110.745 42.0569 110.486 41.8077 110.244 41.4163C110.012 40.7825 109.998 40.2056 110.006 39.5357C110.006 39.4296 110.006 39.3235 110.007 39.2142C110.008 38.8775 110.011 38.5408 110.013 38.2041C110.015 37.9749 110.016 37.7458 110.016 37.5166C110.019 36.9567 110.023 36.3968 110.027 35.8369Z" fill="#1F4298"/>
<path d="M130.19 35.8369C130.156 36.0806 130.122 36.3242 130.088 36.5678C130.069 36.7035 130.05 36.8392 130.031 36.979C129.973 37.339 129.973 37.339 129.864 37.6609C129.759 37.6584 129.653 37.6559 129.544 37.6534C129.406 37.6514 129.268 37.6495 129.126 37.6475C128.989 37.645 128.852 37.6425 128.711 37.6399C128.332 37.6313 128.332 37.6313 128.022 37.8755C127.966 38.1347 127.966 38.1347 127.966 38.4363C127.962 38.5469 127.958 38.6576 127.955 38.7716C127.952 38.8875 127.95 39.0034 127.947 39.1228C127.943 39.2395 127.94 39.3563 127.936 39.4766C127.927 39.7655 127.919 40.0543 127.913 40.3433C128.155 40.3281 128.397 40.3123 128.638 40.2964C128.773 40.2876 128.907 40.2789 129.046 40.27C129.364 40.2419 129.662 40.1987 129.973 40.1287C130.145 40.469 130.122 40.8406 130.142 41.2151C130.147 41.296 130.152 41.3769 130.156 41.4603C130.168 41.6602 130.179 41.8601 130.19 42.06C129.605 42.2523 129.09 42.3127 128.476 42.3082C128.39 42.3076 128.304 42.307 128.215 42.3063C127.287 42.2873 126.492 42.1537 125.796 41.5034C124.987 40.515 124.991 39.1898 125.095 37.9828C125.235 37.3454 125.462 36.7086 125.962 36.2661C127.272 35.4838 128.729 35.438 130.19 35.8369Z" fill="#1F4298"/>
<path d="M154.363 35.837C154.348 36.0404 154.332 36.2438 154.316 36.4472C154.307 36.5605 154.298 36.6738 154.289 36.7905C154.259 37.0871 154.211 37.3702 154.146 37.661C154.033 37.6573 153.919 37.6535 153.802 37.6497C153.653 37.6467 153.503 37.6438 153.354 37.6409C153.241 37.6369 153.241 37.6369 153.127 37.6327C152.707 37.62 152.707 37.62 152.337 37.7897C152.149 38.0452 152.149 38.2165 152.14 38.5307C152.136 38.6362 152.132 38.7416 152.128 38.8503C152.126 38.9602 152.123 39.0701 152.121 39.1833C152.117 39.2944 152.113 39.4055 152.109 39.52C152.1 39.7945 152.093 40.0689 152.087 40.3434C152.326 40.3282 152.566 40.3124 152.805 40.2965C152.938 40.2878 153.072 40.2791 153.209 40.2701C153.563 40.2397 153.906 40.1921 154.255 40.1288C154.371 40.7754 154.374 41.4045 154.363 42.0602C153.298 42.4069 151.974 42.4576 150.91 42.0702C150.146 41.6846 149.727 41.187 149.45 40.3878C149.156 39.3471 149.143 38.0939 149.597 37.0918C149.999 36.414 150.455 35.9897 151.213 35.7498C152.246 35.504 153.351 35.51 154.363 35.837Z" fill="#1F4298"/>
<path d="M187.317 34.2275C187.317 34.7587 187.317 35.2898 187.317 35.837C187.603 35.837 187.889 35.837 188.184 35.837C188.184 36.4035 188.184 36.97 188.184 37.5537C187.898 37.5537 187.612 37.5537 187.317 37.5537C187.317 38.4389 187.317 39.3241 187.317 40.2361C187.567 40.2715 187.818 40.3069 188.076 40.3434C188.061 40.6452 188.045 40.947 188.028 41.2487C188.024 41.3348 188.02 41.4209 188.015 41.5096C187.98 42.1553 187.98 42.1553 187.859 42.2747C187.53 42.2764 187.205 42.269 186.877 42.2546C186.786 42.2526 186.696 42.2506 186.602 42.2486C185.974 42.2209 185.451 42.1052 184.932 41.7383C184.658 41.3318 184.688 41.0102 184.694 40.54C184.694 40.4547 184.695 40.3694 184.695 40.2816C184.696 40.0093 184.699 39.7371 184.702 39.4649C184.703 39.2803 184.704 39.0957 184.705 38.9111C184.707 38.4586 184.711 38.0062 184.715 37.5537C184.501 37.5537 184.286 37.5537 184.065 37.5537C184.065 36.9872 184.065 36.4207 184.065 35.837C184.28 35.837 184.494 35.837 184.715 35.837C184.715 35.4829 184.715 35.1288 184.715 34.764C185.068 34.674 185.42 34.5847 185.772 34.4958C185.872 34.4702 185.972 34.4446 186.075 34.4182C186.171 34.394 186.267 34.3698 186.367 34.3449C186.455 34.3224 186.544 34.2999 186.635 34.2768C186.883 34.2275 186.883 34.2275 187.317 34.2275Z" fill="#1F4298"/>
<path d="M182.764 34.2275C182.764 34.7587 182.764 35.2898 182.764 35.837C183.05 35.837 183.337 35.837 183.631 35.837C183.631 36.4035 183.631 36.97 183.631 37.5537C183.345 37.5537 183.059 37.5537 182.764 37.5537C182.764 38.4389 182.764 39.3241 182.764 40.2361C183.015 40.2715 183.265 40.3069 183.523 40.3434C183.487 40.9808 183.452 41.6181 183.415 42.2747C181.125 42.2747 181.125 42.2747 180.379 41.7383C180.106 41.3318 180.135 41.0102 180.141 40.54C180.142 40.4547 180.142 40.3694 180.142 40.2816C180.144 40.0093 180.146 39.7371 180.149 39.4649C180.15 39.2803 180.151 39.0957 180.152 38.9111C180.154 38.4586 180.158 38.0062 180.163 37.5537C179.948 37.5537 179.733 37.5537 179.512 37.5537C179.512 36.9872 179.512 36.4207 179.512 35.837C179.727 35.837 179.941 35.837 180.163 35.837C180.163 35.5183 180.163 35.1996 180.163 34.8713C182.021 34.2275 182.021 34.2275 182.764 34.2275Z" fill="#1F4298"/>
<path d="M121.409 35.6223C121.534 36.1308 121.553 36.6376 121.579 37.158C121.583 37.2477 121.588 37.3374 121.593 37.4298C121.604 37.6499 121.615 37.87 121.626 38.0901C120.929 38.3026 120.929 38.3026 120.217 38.5193C120.181 39.6878 120.145 40.8562 120.108 42.0601C119.25 42.0601 118.391 42.0601 117.507 42.0601C117.507 40.0064 117.507 37.9528 117.507 35.8369C118.916 35.8369 118.916 35.8369 119.329 36.1051C119.408 36.1937 119.486 36.2822 119.566 36.3734C119.622 36.3371 119.677 36.3009 119.733 36.2636C120.269 35.92 120.752 35.6223 121.409 35.6223Z" fill="#1F4298"/>
<path d="M199.892 35.6223C200.002 36.1605 200.013 36.6723 200.007 37.2183C200.006 37.3024 200.006 37.3865 200.005 37.4732C200.004 37.6788 200.002 37.8845 200 38.0901C199.571 38.2318 199.142 38.3734 198.699 38.5193C198.664 39.6878 198.628 40.8562 198.591 42.0601C197.732 42.0601 196.874 42.0601 195.989 42.0601C195.989 40.0064 195.989 37.9528 195.989 35.8369C197.398 35.8369 197.398 35.8369 197.812 36.1051C197.89 36.1937 197.968 36.2822 198.049 36.3734C198.104 36.3371 198.159 36.3009 198.216 36.2636C198.752 35.92 199.234 35.6223 199.892 35.6223Z" fill="#1F4298"/>
<path d="M148.401 35.8369C148.401 37.8906 148.401 39.9442 148.401 42.0601C147.543 42.0601 146.684 42.0601 145.8 42.0601C145.8 40.1127 145.8 38.1652 145.8 36.1588C146.703 35.98 147.487 35.8369 148.401 35.8369Z" fill="#1F4298"/>
<path d="M147.107 33.6441C147.184 33.6448 147.26 33.6454 147.339 33.646C147.739 33.6553 148.071 33.6708 148.401 33.9057C148.645 34.3998 148.631 34.77 148.51 35.3005C148.293 35.6224 148.293 35.6224 147.968 35.7297C147.681 35.7512 147.401 35.7643 147.114 35.77C147.037 35.774 146.96 35.778 146.881 35.7821C146.454 35.7892 146.256 35.7465 145.911 35.4891C145.69 35.1921 145.617 35.0716 145.623 34.7104C145.622 34.6318 145.621 34.5533 145.619 34.4723C145.84 33.722 146.403 33.6116 147.107 33.6441Z" fill="#1F4298"/>
</g>
<defs>
<clipPath id="clip0_331_66">
<rect width="200" height="50" fill="white"/>
</clipPath>
</defs>
</svg>
