<svg width="25" height="24" viewBox="0 0 25 24" fill="none" xmlns="http://www.w3.org/2000/svg">
<mask id="mask0_427_7" style="mask-type:alpha" maskUnits="userSpaceOnUse" x="0" y="0" width="25" height="24">
<rect x="0.666748" width="24" height="24" fill="#D9D9D9"/>
</mask>
<g mask="url(#mask0_427_7)">
<path d="M5.66675 19H7.09175L16.8667 9.225L15.4417 7.8L5.66675 17.575V19ZM3.66675 21V16.75L16.8667 3.575C17.0667 3.39167 17.2876 3.25 17.5292 3.15C17.7709 3.05 18.0251 3 18.2917 3C18.5584 3 18.8167 3.05 19.0667 3.15C19.3167 3.25 19.5334 3.4 19.7167 3.6L21.0917 5C21.2917 5.18333 21.4376 5.4 21.5292 5.65C21.6209 5.9 21.6667 6.15 21.6667 6.4C21.6667 6.66667 21.6209 6.92083 21.5292 7.1625C21.4376 7.40417 21.2917 7.625 21.0917 7.825L7.91675 21H3.66675ZM16.1417 8.525L15.4417 7.8L16.8667 9.225L16.1417 8.525Z" fill="#1F4298"/>
</g>
</svg>
