<svg width="629" height="429" viewBox="0 0 629 429" fill="none" xmlns="http://www.w3.org/2000/svg">
<g clip-path="url(#clip0_850_561)">
<path d="M329.441 426.829C328.881 423.789 328.321 420.749 327.761 417.709C326.411 410.369 325.051 403.019 323.701 395.679C322.071 386.829 320.441 377.989 318.811 369.139L314.581 346.179L313.181 338.569C312.971 337.449 312.941 336.019 312.511 334.959C312.491 334.909 312.491 334.849 312.481 334.799C312.391 334.329 311.671 334.529 311.761 334.999C312.321 338.039 312.881 341.079 313.441 344.119L317.501 366.149C319.131 374.999 320.761 383.839 322.391 392.689C323.801 400.339 325.211 407.999 326.621 415.649L328.021 423.259C328.231 424.379 328.261 425.809 328.691 426.869C328.711 426.919 328.711 426.979 328.721 427.029C328.811 427.499 329.531 427.299 329.441 426.829Z" fill="#2C2C2C"/>
<path d="M224.37 426.39C224.93 423.39 225.48 420.39 226.04 417.39C227.38 410.18 228.71 402.98 230.05 395.77C231.68 387.01 233.3 378.24 234.93 369.48C236.33 361.94 237.73 354.39 239.13 346.85L240.51 339.39C240.72 338.25 241.12 337 241.17 335.84C241.17 335.79 241.19 335.73 241.2 335.68C241.29 335.21 240.56 335.01 240.48 335.48C239.92 338.48 239.37 341.48 238.81 344.48C237.47 351.69 236.14 358.89 234.8 366.1C233.17 374.86 231.55 383.63 229.92 392.39C228.52 399.93 227.12 407.48 225.72 415.02L224.34 422.48C224.13 423.62 223.73 424.87 223.68 426.03C223.68 426.08 223.66 426.14 223.65 426.19C223.56 426.66 224.29 426.86 224.37 426.39Z" fill="#2C2C2C"/>
<path d="M316.77 335.81L233.79 336.47C232.1 336.48 230.72 335.12 230.7 333.43C230.69 331.74 232.05 330.35 233.74 330.34L316.72 329.68C318.41 329.67 319.8 331.03 319.81 332.72C319.82 334.41 318.46 335.8 316.77 335.81Z" fill="#B8C1EA"/>
<path d="M252.42 164.11C250.27 163.5 248.46 161.94 247.14 160.09C245.82 158.24 244.94 156.09 244.17 153.93C242.67 149.72 241.55 145.04 242.95 140.82C244.19 137.11 247.18 134.37 250.15 131.95C253.74 129.04 257.53 126.3 261.81 124.66C264.19 123.75 266.78 123.18 269.29 123.66C271.8 124.14 274.2 125.84 275.05 128.33C276.9 127.19 278.95 126.32 281.11 126.22C283.27 126.12 285.53 126.89 286.95 128.59C288.37 130.29 288.73 132.96 287.5 134.79C289.81 135.82 291.29 138.55 290.94 141.11C290.59 143.67 288.43 145.84 285.94 146.13" fill="#2C2C2C"/>
<path d="M274.93 173.69C274.99 174.18 276.96 190.6 276.96 190.6L256.46 193.06L253.49 168.32L274.93 173.69Z" fill="#F4B298"/>
<path d="M276.379 179.22C276.379 179.22 288.599 175.8 286.949 161.97C286.389 157.24 285.749 152.24 283.749 143.56C281.599 134.23 274.039 131.18 263.949 132.6L262.949 132.74C252.219 134.86 246.119 141.54 248.479 151.55L250.869 161.17C250.869 161.17 252.539 182.61 276.369 179.23" fill="#F4B298"/>
<path d="M282.369 154.05C282.509 154.82 281.959 155.57 281.149 155.73C280.339 155.89 279.569 155.4 279.429 154.63C279.289 153.86 279.839 153.11 280.649 152.95C281.459 152.79 282.229 153.29 282.369 154.05Z" fill="#2C2C2C"/>
<path d="M268.609 156.89C268.749 157.66 268.199 158.41 267.389 158.57C266.579 158.73 265.809 158.24 265.669 157.47C265.529 156.7 266.079 155.95 266.889 155.79C267.699 155.63 268.469 156.13 268.609 156.89Z" fill="#2C2C2C"/>
<path d="M262.13 153.56C263.34 152.54 265.07 152.3 266.54 152.87C266.73 152.94 266.95 152.79 267 152.61C267.06 152.4 266.93 152.22 266.74 152.15C265.02 151.48 263.01 151.86 261.6 153.04C261.23 153.35 261.76 153.88 262.13 153.57V153.56Z" fill="#2C2C2C"/>
<path d="M277.43 151.11C278.64 150.09 280.37 149.85 281.84 150.42C282.03 150.49 282.25 150.34 282.3 150.16C282.36 149.95 282.23 149.77 282.04 149.7C280.32 149.03 278.31 149.41 276.9 150.59C276.53 150.9 277.06 151.43 277.43 151.12V151.11Z" fill="#2C2C2C"/>
<path d="M276.13 145.44C277.4 145.05 278.74 144.88 280.06 144.95" stroke="#2C2C2C" stroke-width="3" stroke-linecap="round" stroke-linejoin="round"/>
<path d="M261.39 148.72C262.66 148.33 264 148.16 265.32 148.23" stroke="#2C2C2C" stroke-width="3" stroke-linecap="round" stroke-linejoin="round"/>
<path d="M253.46 159.66C251.73 158.97 249.7 158.8 248.13 159.79C246.52 160.81 245.71 162.97 246.09 164.92C246.47 166.87 247.97 168.51 249.76 169.13C251.56 169.75 253.6 169.38 255.16 168.29" fill="#F4B298"/>
<path d="M252.94 164.28C252.62 163.43 251.89 162.79 251.07 162.44C250.1 162.03 249.01 162.11 248.12 162.7C247.72 162.97 248.1 163.62 248.5 163.35C249.19 162.89 250.01 162.81 250.78 163.13C251.38 163.38 251.99 163.87 252.22 164.48C252.29 164.67 252.47 164.8 252.68 164.74C252.86 164.69 253.01 164.47 252.94 164.28Z" fill="#ED796A"/>
<path d="M276.16 179.079C272.57 179.919 268.75 179.159 265.75 177.029C265.36 176.749 264.98 177.399 265.37 177.679C268.53 179.919 272.59 180.689 276.36 179.809C276.83 179.699 276.63 178.979 276.16 179.089V179.079Z" fill="#ED796A"/>
<path d="M273.16 154.95C273.45 155.89 273.75 156.82 274.04 157.76C274.18 158.22 274.33 158.67 274.47 159.13C274.57 159.46 274.67 159.83 274.97 160.03C275.24 160.21 275.57 160.22 275.88 160.18C276.06 160.16 276.66 159.95 276.79 160.18C276.89 160.35 276.62 160.71 276.54 160.84C276.42 161.04 276.3 161.25 276.18 161.45C275.92 161.88 275.67 162.31 275.41 162.73C275.15 163.15 275.81 163.52 276.06 163.11C276.33 162.66 276.6 162.21 276.87 161.76C277.1 161.38 277.4 160.98 277.52 160.54C277.73 159.74 277.05 159.28 276.33 159.35C276.01 159.38 275.49 159.62 275.31 159.25C275.1 158.83 275.01 158.3 274.87 157.86C274.54 156.82 274.22 155.79 273.89 154.75C273.75 154.29 273.02 154.49 273.17 154.95H273.16Z" fill="#2C2C2C"/>
<path d="M274.939 166.67C274.829 166.49 274.669 166.36 274.479 166.28C273.209 165.77 271.949 165.25 270.679 164.74C270.299 164.59 269.889 164.43 269.509 164.57C269.189 164.69 268.979 164.98 268.839 165.29C268.379 166.33 268.679 167.64 269.489 168.44C270.299 169.24 271.549 169.54 272.659 169.26C273.559 169.03 274.359 168.46 274.909 167.7C275.129 167.4 275.129 166.98 274.939 166.66V166.67Z" fill="#ED796A"/>
<path d="M250.34 136.51C253.31 133.11 257.55 130.96 261.96 130.02C266.38 129.08 270.98 129.3 275.42 130.11C277.82 130.55 280.25 131.18 282.27 132.56C284.29 133.94 285.85 136.18 285.85 138.63C285.85 140.03 285.23 141.55 283.95 142.13C282.56 142.77 280.85 142.07 279.85 140.92C278.85 139.77 278.39 138.25 277.95 136.78C276.84 138.05 275.15 138.81 273.46 138.78C271.77 138.76 270.1 137.96 269.02 136.65C268.7 138.43 266.74 139.42 264.94 139.62C263.15 139.82 261.29 139.53 259.55 140.04C257.32 140.69 255.61 142.63 254.89 144.83C254.17 147.03 254.34 149.46 255 151.68C255.46 153.22 256.14 154.7 256.36 156.29C256.58 157.88 256.24 159.67 254.99 160.68C254.1 161.39 252.84 161.58 251.78 161.17C250.72 160.76 248.97 159.19 248.53 157.81L246.54 149.02C245.75 144.58 247.35 139.88 250.32 136.48L250.34 136.51Z" fill="#2C2C2C"/>
<path d="M236.09 192.58L255.8 186.81C255.8 186.81 263.41 190.2 268.76 190.2C274.11 190.2 276.12 187.97 276.12 187.97L299.27 195.13L296.52 226.1L300.66 284.26L225.29 283.07L238.19 214.84L236.09 192.58Z" fill="#F7F7F7"/>
<path d="M238.06 192.149C238.06 192.149 226.31 193.499 222.78 202.219C219.45 210.439 207.17 239.549 207.17 251.079C207.17 262.609 213.73 268.309 218.34 269.229C222.95 270.149 251.77 258.879 251.77 258.879L245.86 234.099L237.46 237.699L241.35 217.009L238.05 192.159L238.06 192.149Z" fill="#F7F7F7"/>
<path d="M299.28 195.14C299.28 195.14 307.12 199.19 309.25 209.25C311.03 217.65 315.14 236.53 315.14 236.53L332.02 222.81L348.06 241.18C348.06 241.18 329.31 257.53 321.9 262.46C309.02 271.02 298.54 258.9 298.54 258.9L294.34 197.71L299.28 195.15V195.14Z" fill="#F7F7F7"/>
<path d="M297.63 276.27H267.62C267.14 276.27 267.14 277.02 267.62 277.02H297.63C298.11 277.02 298.11 276.27 297.63 276.27Z" fill="#2C2C2C"/>
<path d="M314.85 236.129C311.59 239.879 309.93 244.869 310.34 249.829C310.38 250.309 311.13 250.309 311.09 249.829C310.69 245.069 312.24 240.269 315.38 236.659C315.7 236.299 315.17 235.759 314.85 236.129Z" fill="#2C2C2C"/>
<path d="M237.68 238.28C239.41 230.9 241.15 223.53 242.88 216.15C242.99 215.68 242.27 215.48 242.16 215.95C240.43 223.33 238.69 230.7 236.96 238.08C236.85 238.55 237.57 238.75 237.68 238.28Z" fill="#2C2C2C"/>
<path d="M255.77 248.379L272.06 198.509C272.54 197.029 273.92 196.029 275.48 196.039L312.84 196.229C315.27 196.239 316.98 198.619 316.22 200.929L299.89 250.599C299.41 252.069 298.04 253.059 296.49 253.059H259.17C256.74 253.059 255.01 250.689 255.77 248.379Z" fill="#798EC1"/>
<path d="M269.47 207.979C273.26 210.579 278.36 210.069 282.17 207.769C286.36 205.239 288.99 200.819 290.93 196.459C291.12 196.019 290.48 195.639 290.28 196.079C288.47 200.149 286.1 204.239 282.33 206.779C278.56 209.319 273.61 209.919 269.85 207.339C269.45 207.069 269.08 207.719 269.47 207.989V207.979Z" fill="#F7F7F7"/>
<path d="M261.95 230.259C265.46 231.999 269.44 232.569 273.3 231.829C277.16 231.089 280.39 229.009 283.18 226.389C286.19 223.559 288.63 220.209 291.26 217.049C294.25 213.459 297.45 210.049 300.85 206.849C302.75 205.059 304.79 203.319 307.22 202.319C309.84 201.239 312.68 201.209 315.36 202.089C315.82 202.239 316.02 201.519 315.56 201.369C306.72 198.449 299.96 206.289 294.59 212.119C291.67 215.289 289.05 218.699 286.26 221.989C283.66 225.069 280.75 228.049 277.07 229.809C272.43 232.029 266.92 231.899 262.33 229.619C261.9 229.409 261.52 230.049 261.95 230.269V230.259Z" fill="#F7F7F7"/>
<path d="M284.08 253.14C286.99 246.47 293.7 242.27 300.98 242.61C301.46 242.63 301.46 241.88 300.98 241.86C293.46 241.51 286.44 245.859 283.43 252.759C283.24 253.199 283.89 253.58 284.08 253.14Z" fill="#F7F7F7"/>
<path d="M272.929 243.759C274.599 245.319 276.979 245.389 279.009 244.509C281.879 243.259 283.669 240.529 286.239 238.859C290.749 235.929 297.419 237.159 301.029 232.649C302.069 231.349 303.159 228.639 301.079 227.699C298.999 226.759 295.999 228.669 294.269 229.689C291.679 231.229 289.239 233.019 286.309 233.879C284.869 234.299 283.389 234.569 281.999 235.139C281.069 235.519 280.139 235.919 279.209 236.299C276.639 237.329 270.579 239.509 272.869 243.309C273.119 243.719 273.769 243.349 273.519 242.929C271.639 239.809 277.209 237.909 279.279 237.069C280.959 236.389 282.619 235.629 284.379 235.159C286.629 234.559 288.669 233.929 290.699 232.759C292.729 231.589 294.529 230.269 296.589 229.279C297.619 228.779 299.109 228.029 300.299 228.269C302.639 228.729 301.119 231.469 300.179 232.499C297.009 235.949 291.759 235.559 287.719 237.249C285.249 238.279 283.539 240.199 281.559 241.919C279.399 243.789 275.979 245.589 273.469 243.239C273.119 242.909 272.589 243.439 272.939 243.769L272.929 243.759Z" fill="#F7F7F7"/>
<path d="M245.8 235.149L254.23 227.819C254.23 227.819 257.07 221.099 259.7 218.199C262.33 215.299 264.86 214.319 266.97 213.519C269.09 212.719 274.38 212.009 274.44 214.949C274.48 216.959 272.46 217.049 269.75 217.749C267.04 218.449 263.89 221.449 263.89 221.449C263.89 221.449 272.26 221.809 274.44 225.609C274.44 225.609 275.79 227.889 272.31 229.019C272.31 229.019 274.29 232.649 270.33 233.689C270.33 233.689 266.28 231.799 263.54 231.499L262.08 231.559C262.08 231.559 267.26 234.519 267.62 236.069C267.98 237.619 267.77 239.169 266.15 239.329C264.53 239.489 263.23 237.109 261.1 236.919C261.1 236.919 259.56 236.229 259.37 237.349C259.33 237.569 258.05 244.129 257.88 244.609C256.67 247.889 256.86 248.009 254.28 250.379L250.72 253.639L245.79 235.159L245.8 235.149Z" fill="#F4B298"/>
<path d="M267.92 221.64C265.39 220.48 262.31 220.74 260.05 222.39C259.66 222.67 260.04 223.32 260.43 223.04C262.47 221.56 265.24 221.24 267.54 222.29C267.98 222.49 268.36 221.84 267.92 221.64Z" fill="#ED796A"/>
<path d="M272.15 229.029C268.47 226.299 263.77 225.209 259.27 225.979C258.8 226.059 259 226.779 259.47 226.699C263.78 225.969 268.27 227.069 271.77 229.679C272.16 229.969 272.53 229.319 272.15 229.029Z" fill="#ED796A"/>
<path d="M228.58 241.999C234.41 239.949 240.14 237.629 245.75 235.049L245.2 234.829C247.01 241.879 248.83 248.929 250.64 255.989L251.41 258.979L251.67 258.519C247.79 259.929 243.91 261.339 240.03 262.749C239.58 262.909 239.77 263.639 240.23 263.469C244.11 262.059 247.99 260.649 251.87 259.239C252.06 259.169 252.19 258.989 252.13 258.779C250.32 251.729 248.5 244.679 246.69 237.619L245.92 234.629C245.85 234.379 245.58 234.309 245.37 234.409C239.81 236.959 234.14 239.249 228.38 241.279C227.93 241.439 228.12 242.159 228.58 241.999Z" fill="#2C2C2C"/>
<path d="M235.01 193.069C240.84 194.539 244.63 200.149 243.9 206.099C243.84 206.579 244.59 206.569 244.65 206.099C245.43 199.819 241.33 193.889 235.21 192.349C234.74 192.229 234.54 192.959 235.01 193.069Z" fill="#2C2C2C"/>
<path d="M386.91 426.179C386.91 426.179 386.34 411.979 368.96 409.449L370.04 396.909L330.66 395.739L327.99 426.039L386.9 426.169L386.91 426.179Z" fill="#2C2C2C"/>
<path d="M377.84 409.859C374.91 411.079 372.09 412.529 369.39 414.209C368.98 414.459 369.36 415.109 369.77 414.859C372.41 413.219 375.17 411.789 378.04 410.589C378.48 410.409 378.29 409.679 377.84 409.869V409.859Z" fill="#545DBF"/>
<path d="M373.9 408.619C371.41 410.099 368.91 411.579 366.42 413.059C366.01 413.309 366.38 413.949 366.8 413.709C369.29 412.229 371.79 410.749 374.28 409.269C374.69 409.019 374.32 408.379 373.9 408.619Z" fill="#545DBF"/>
<path d="M325.85 426.919C325.85 426.919 325.28 412.719 307.9 410.189L308.51 394.069L268.97 394.709L267.37 426.929H325.85V426.919Z" fill="#2C2C2C"/>
<path d="M316.781 410.599C313.851 411.819 311.031 413.269 308.331 414.949C307.921 415.199 308.301 415.849 308.711 415.599C311.351 413.959 314.111 412.529 316.981 411.329C317.421 411.149 317.231 410.419 316.781 410.609V410.599Z" fill="#545DBF"/>
<path d="M312.84 409.35C310.35 410.83 307.85 412.31 305.36 413.79C304.95 414.04 305.32 414.68 305.74 414.44C308.23 412.96 310.73 411.48 313.22 410C313.63 409.75 313.26 409.11 312.84 409.35Z" fill="#545DBF"/>
<path d="M371.91 403.979C371.91 403.979 381.73 326.229 383.06 312.319C384.39 298.409 382.07 286.169 363.53 284.839C344.99 283.519 284.45 284.049 284.45 284.049L291.45 329.239L333.35 329.959L323.17 402.759L371.92 403.969L371.91 403.979Z" fill="#2C2C2C"/>
<path d="M311.26 400.72V308.94C311.26 308.94 313.33 284.94 285.89 283.89C258 282.83 225.99 283.57 225.99 283.57C225.99 283.57 221.89 306.55 223.6 315.42C223.96 317.27 224.61 319.07 225.48 320.79C229.53 328.79 237.97 333.6 246.94 333.56L262.15 333.5L264.49 401.64L311.27 400.72H311.26Z" fill="#2C2C2C"/>
<path d="M282.539 284.499C289.369 284.089 296.569 285.339 302.199 289.439C305.869 292.119 308.839 296.119 309.659 300.649C310.819 307.049 310.739 313.779 310.909 320.259C311.169 330.369 311.209 340.479 311.199 350.589C311.189 360.699 311.119 370.589 311.029 380.589C310.969 386.939 310.859 393.299 310.879 399.649C310.879 400.009 310.879 400.359 310.879 400.719L311.259 400.339C305.999 400.439 300.739 400.549 295.479 400.649C287.089 400.809 278.689 400.979 270.299 401.139C268.359 401.179 266.419 401.219 264.469 401.249C263.989 401.249 263.989 402.009 264.469 401.999C269.729 401.899 274.989 401.789 280.249 401.689C288.639 401.529 297.039 401.359 305.429 401.199C307.369 401.159 309.309 401.119 311.259 401.089C311.459 401.089 311.639 400.919 311.639 400.709C311.569 394.869 311.699 389.029 311.749 383.189C311.839 373.159 311.929 363.129 311.939 353.109C311.949 343.089 311.939 332.309 311.689 321.919C311.529 315.029 311.539 307.969 310.489 301.139C308.849 290.429 298.079 284.629 288.149 283.789C286.279 283.629 284.409 283.629 282.539 283.739C282.059 283.769 282.059 284.519 282.539 284.489V284.499Z" fill="#B8C1EA"/>
<path d="M262.7 338.8C262.54 327.93 261.69 317.08 261.54 306.2C261.54 305.72 260.78 305.72 260.79 306.2C260.95 317.07 261.8 327.92 261.95 338.8C261.95 339.28 262.71 339.28 262.7 338.8Z" fill="#A3A3D7"/>
<path d="M371.63 403.84C355.94 403.4 340.25 402.96 324.57 402.51C324.09 402.5 324.09 403.25 324.57 403.26C340.26 403.7 355.95 404.14 371.63 404.59C372.11 404.6 372.11 403.85 371.63 403.84Z" fill="#B8C1EA"/>
<path d="M333.55 224.589L345.88 216.379L366.87 221.469C366.87 221.469 345.95 238.919 346.19 239.079C346.42 239.239 333.55 224.589 333.55 224.589Z" fill="#F4B298"/>
<path d="M370.41 200.609C362.52 197.319 353.32 197.299 345.41 200.559L345.9 204.369L357.39 206.489L369.68 203.379L370.41 200.609Z" fill="#E7A5DD"/>
<path d="M368.16 229.53C361.16 232.76 354.24 232.85 347.42 229.56C346.08 228.91 345.24 227.54 345.24 226.06V200.77C353.23 205.52 361.62 205.52 370.41 200.77V226C370.41 227.5 369.54 228.9 368.16 229.53Z" fill="#798EC1"/>
<path d="M345.13 223.83C347.69 221.24 348.82 217.31 348.02 213.75C351.11 214.05 354.31 212.81 356.39 210.5C357.23 209.57 357.85 208.01 356.93 207.16C356.44 206.71 355.71 206.67 355.05 206.65C352.81 206.6 350.57 206.56 348.33 206.51C346.25 206.47 344.04 206.46 342.27 207.55C340.26 208.79 339.28 211.17 338.69 213.45C338.09 215.73 337.6 218.46 338.17 222.28C338.17 222.28 338.82 224.47 341.34 224.55C343.86 224.63 345.15 223.83 345.15 223.83H345.13Z" fill="#F4B298"/>
<path d="M369.68 210.729C369.79 210.609 369.9 210.479 370.02 210.369C370.09 210.299 370.16 210.249 370.23 210.179C370.41 209.999 369.99 210.359 370 210.349C370.16 210.259 370.31 210.129 370.47 210.039C370.62 209.949 370.86 209.889 370.97 209.779C370.94 209.809 370.38 209.999 370.77 209.869C370.84 209.849 370.9 209.819 370.97 209.799C371.13 209.749 371.29 209.699 371.45 209.669C371.54 209.649 371.64 209.629 371.73 209.609C371.94 209.569 372.07 209.659 371.49 209.639C371.68 209.639 371.87 209.609 372.06 209.609C372.23 209.609 372.39 209.629 372.56 209.639C372.88 209.659 372 209.529 372.32 209.609C372.39 209.629 372.46 209.639 372.53 209.649C372.71 209.689 372.89 209.749 373.07 209.809C373.15 209.839 373.39 209.939 373.03 209.789C372.63 209.619 373.03 209.789 373.11 209.839C373.25 209.909 373.39 209.999 373.53 210.079C373.61 210.129 373.68 210.189 373.76 210.239C373.98 210.379 373.52 210.049 373.53 210.059C373.65 210.189 373.81 210.299 373.94 210.429C374.06 210.549 374.18 210.759 374.31 210.839C374.28 210.819 373.95 210.329 374.17 210.669C374.21 210.729 374.25 210.779 374.29 210.839C374.38 210.979 374.46 211.119 374.54 211.259C374.56 211.299 374.62 211.469 374.66 211.509C374.63 211.489 374.44 210.909 374.57 211.299C374.63 211.469 374.69 211.649 374.74 211.829C374.77 211.949 374.86 212.489 374.8 212.039C374.74 211.569 374.8 212.159 374.8 212.269C374.8 212.459 374.8 212.649 374.78 212.839C374.78 212.929 374.74 213.189 374.79 212.789C374.85 212.339 374.79 212.779 374.76 212.879C374.72 213.039 374.68 213.199 374.63 213.359C374.6 213.449 374.56 213.539 374.54 213.629C374.47 213.879 374.67 213.349 374.66 213.359C374.56 213.519 374.5 213.699 374.4 213.869C374.32 214.009 374.12 214.199 374.09 214.349C374.09 214.309 374.49 213.879 374.22 214.179C374.17 214.229 374.13 214.289 374.08 214.339C373.97 214.459 373.85 214.579 373.73 214.689C373.68 214.729 373.55 214.819 373.51 214.869C373.54 214.829 374.01 214.519 373.67 214.729C373.5 214.829 373.34 214.939 373.16 215.029C373.07 215.069 372.97 215.109 372.89 215.159C372.98 215.099 373.39 214.969 373.07 215.069C372.85 215.129 372.64 215.199 372.42 215.249C372.35 215.259 372.27 215.269 372.2 215.289C372.77 215.109 372.58 215.249 372.35 215.259C372.12 215.269 371.9 215.279 371.68 215.259C371.61 215.259 371.53 215.249 371.46 215.239C371.15 215.239 372.05 215.359 371.61 215.259C371.42 215.219 371.22 215.179 371.03 215.119C370.93 215.089 370.84 215.059 370.75 215.029C370.33 214.899 371.13 215.229 370.87 215.079C370.67 214.969 370.48 214.869 370.29 214.749C369.18 214.049 367.48 214.479 366.87 215.649C366.22 216.879 366.59 218.319 367.77 219.069C369.73 220.309 372.37 220.629 374.56 219.829C376.9 218.969 378.61 217.159 379.42 214.809C380.96 210.339 377.74 205.329 373.11 204.709C370.57 204.369 367.87 205.249 366.15 207.189C365.28 208.169 365.11 209.769 366.15 210.729C367.1 211.599 368.76 211.779 369.69 210.729H369.68Z" fill="#798EC1"/>
<path d="M370.48 210.3C369.27 210.29 368.05 210.94 367.49 212.01C366.93 213.08 367.12 214.53 368.02 215.33C368.98 216.19 370.5 216.18 371.63 215.55C372.41 215.12 373.05 214.41 373.31 213.57C373.57 212.73 373.45 211.74 372.9 211.04C372.35 210.34 371.37 209.99 370.52 210.24" fill="#F4B298"/>
<path d="M371.04 219.689C369.83 219.679 368.61 220.329 368.05 221.399C367.49 222.469 367.68 223.919 368.58 224.719C369.54 225.579 371.06 225.569 372.19 224.939C372.97 224.509 373.61 223.799 373.87 222.959C374.13 222.119 374.01 221.129 373.46 220.429C372.91 219.729 371.93 219.379 371.08 219.629" fill="#F4B298"/>
<path d="M345.05 201.09C348.9 203.66 353.54 204.84 358.15 204.73C362.47 204.63 367.01 203.75 370.64 201.29C371.04 201.02 370.66 200.37 370.26 200.64C366.74 203.02 362.34 203.88 358.15 203.97C353.66 204.07 349.18 202.94 345.43 200.43C345.03 200.16 344.65 200.81 345.05 201.08V201.09Z" fill="#26244A"/>
<path d="M119.95 156.24C119.73 151.53 118.54 146.78 115.87 142.9C111.04 135.87 101.53 132.69 93.2398 134.71C84.9498 136.73 78.1798 143.5 75.4298 151.58C73.6998 156.67 73.4698 162.35 75.3198 167.39C77.1698 172.43 81.2098 176.75 86.3098 178.43L114.09 173.43C118.7 169.2 120.25 162.49 119.95 156.24Z" fill="#2C2C2C"/>
<path d="M103.55 180.29V196.86H84.6104V174.79L103.55 180.29Z" fill="#AB5A44"/>
<path d="M105.03 185.55C105.03 185.55 117.23 183.66 117.24 170.12C117.24 165.49 117.21 160.58 116.29 151.97C115.3 142.71 108.35 138.88 98.4399 139.09L97.4599 139.11C86.8499 139.91 80.1899 145.66 81.3099 155.6L82.4999 165.17C82.4999 165.17 81.6299 186.07 105.04 185.57" fill="#AB5A44"/>
<path d="M113.54 162.14C113.58 162.9 112.97 163.56 112.16 163.62C111.36 163.68 110.67 163.11 110.63 162.36C110.59 161.6 111.2 160.94 112 160.88C112.8 160.82 113.49 161.39 113.53 162.14H113.54Z" fill="#2C2C2C"/>
<path d="M100.11 163.07C100.15 163.83 99.5401 164.49 98.7301 164.55C97.9301 164.61 97.2401 164.04 97.2001 163.29C97.1601 162.53 97.7701 161.87 98.5701 161.81C99.3701 161.75 100.06 162.32 100.1 163.07H100.11Z" fill="#2C2C2C"/>
<path d="M94.2003 159.14C95.4803 158.31 97.1703 158.21 98.5203 158.93C98.9503 159.16 99.3303 158.51 98.9003 158.28C97.3203 157.44 95.3303 157.51 93.8203 158.49C93.4203 158.75 93.7903 159.4 94.2003 159.14Z" fill="#2C2C2C"/>
<path d="M109.261 158.55C110.541 157.72 112.231 157.62 113.581 158.34C114.011 158.57 114.391 157.92 113.961 157.69C112.381 156.85 110.391 156.92 108.881 157.9C108.481 158.16 108.851 158.81 109.261 158.55Z" fill="#2C2C2C"/>
<path d="M108.7 152.88C109.97 152.65 111.28 152.64 112.56 152.87" stroke="#2C2C2C" stroke-width="3" stroke-linecap="round" stroke-linejoin="round"/>
<path d="M94.0801 154.35C95.3501 154.12 96.6601 154.11 97.9401 154.34" stroke="#2C2C2C" stroke-width="3" stroke-linecap="round" stroke-linejoin="round"/>
<path d="M83.8199 165.89C88.9899 166.69 90.7399 156.65 99.6999 152.3C104.53 149.95 108.02 143.1 109.07 137.7C109.07 137.7 97.2499 131.16 87.6299 137.93C78.0099 144.7 77.4199 157.03 77.4199 157.03L83.8199 165.89Z" fill="#2C2C2C"/>
<path d="M85.1503 163.99C83.5603 163.12 81.6203 162.72 79.9903 163.5C78.3203 164.29 77.2803 166.29 77.4303 168.22C77.5803 170.15 78.8203 171.9 80.4903 172.71C82.1603 173.52 84.1703 173.4 85.8003 172.52L85.1603 163.99H85.1503Z" fill="#AB5A44"/>
<path d="M83.7608 168.45C83.4608 167.19 81.6108 165.7 79.8008 166.65" stroke="#822C29" stroke-linecap="round" stroke-linejoin="round"/>
<path d="M104.88 185.74C101.26 186.17 97.47 184.95 94.79 182.48" stroke="#822C29" stroke-linecap="round" stroke-linejoin="round"/>
<path d="M104.73 161.771C104.9 162.691 105.07 163.611 105.24 164.531C105.33 165.001 105.42 165.481 105.5 165.951C105.57 166.321 105.63 166.681 105.96 166.911C106.21 167.081 106.51 167.121 106.81 167.111C107 167.111 107.61 166.981 107.62 167.281C107.62 167.441 107.37 167.711 107.29 167.821C107.17 167.981 107.04 168.141 106.92 168.301C106.62 168.681 106.33 169.071 106.03 169.451C105.73 169.831 106.27 170.361 106.56 169.981C106.87 169.581 107.18 169.171 107.5 168.771C107.77 168.421 108.1 168.08 108.28 167.68C108.59 166.97 108.1 166.401 107.39 166.341C107.14 166.321 106.58 166.48 106.38 166.29C106.23 166.15 106.22 165.701 106.19 165.521C106.14 165.261 106.09 164.991 106.04 164.731C105.84 163.681 105.65 162.631 105.45 161.581C105.36 161.111 104.64 161.311 104.73 161.781V161.771Z" fill="#2C2C2C"/>
<path d="M99.1404 171.34C99.3104 171.05 99.5704 170.77 99.9004 170.69C100.3 170.6 100.7 170.8 101.06 171C102.37 171.72 103.67 172.45 104.98 173.17L105.36 174.01C104.7 174.96 103.66 175.66 102.51 175.8C101.36 175.94 100.14 175.5 99.4204 174.59C98.7004 173.68 98.5604 172.33 99.1504 171.34H99.1404Z" fill="#822C29"/>
<path d="M72.8502 139.591C68.7002 138.141 63.8302 139.011 60.4402 141.811C58.5702 143.351 57.1202 145.561 57.0202 147.981C56.9202 150.401 58.4702 152.951 60.8302 153.491C59.6002 153.831 58.4002 154.481 57.6702 155.531C56.9402 156.581 56.7802 158.081 57.5102 159.131C58.2402 160.191 59.7202 160.561 60.9702 160.251C62.2202 159.941 63.2602 159.051 64.0502 158.041C62.9002 159.611 63.7302 162.201 65.5802 162.811C67.4302 163.421 69.6302 161.821 69.6402 159.881C69.4202 161.201 70.3702 162.531 71.6302 162.981C72.8902 163.431 74.3302 163.081 75.4202 162.301C76.5002 161.521 77.2602 160.361 77.7902 159.141L81.1802 149.071C80.2802 144.771 77.0102 141.051 72.8602 139.601L72.8502 139.591Z" fill="#2C2C2C"/>
<path d="M160.84 198.79C160.14 199.67 137.27 225 137.27 225L114.31 198.79L100.22 225.05L122.94 248.58C126.57 252.34 131.58 254.47 136.81 254.47C143.31 254.47 149.37 251.2 152.94 245.76L177.38 208.47L160.85 198.8L160.84 198.79Z" fill="#F7F7F7"/>
<path d="M164.5 427.94C164.5 427.94 166.63 413.89 150.05 408.11L153.49 396L115.05 387.38L106.68 416.63L164.5 427.94Z" fill="#8C98E9"/>
<path d="M158.61 410.21C155.54 410.85 152.52 411.73 149.59 412.86C149.14 413.03 149.34 413.76 149.79 413.58C152.72 412.46 155.74 411.57 158.81 410.93C159.28 410.83 159.08 410.11 158.61 410.21Z" fill="#545DBF"/>
<path d="M155.08 408.22C152.35 409.2 149.62 410.18 146.9 411.16C146.45 411.32 146.64 412.05 147.1 411.88C149.83 410.9 152.56 409.92 155.28 408.94C155.73 408.78 155.54 408.05 155.08 408.22Z" fill="#545DBF"/>
<path d="M81.0294 420.19C81.0294 420.19 91.6294 410.71 82.5194 395.7L92.8794 388.56L68.7294 357.43L43.6494 374.65L81.0194 420.19H81.0294Z" fill="#8C98E9"/>
<path d="M87.8197 402.79C85.0097 401.31 82.0897 400.06 79.0897 399.04C78.6297 398.89 78.4297 399.61 78.8897 399.76C81.8397 400.75 84.6897 401.98 87.4397 403.43C87.8697 403.66 88.2497 403.01 87.8197 402.78V402.79Z" fill="#545DBF"/>
<path d="M86.2792 398.959C83.5492 397.979 80.8292 396.989 78.0992 396.009C77.6492 395.849 77.4492 396.569 77.8992 396.729C80.6292 397.709 83.3492 398.699 86.0792 399.679C86.5292 399.839 86.7292 399.119 86.2792 398.959Z" fill="#545DBF"/>
<path d="M124.459 321.62L62.3193 360.26C62.5493 360.94 88.2293 395.52 88.2293 395.52L136.369 360.51L150.049 323.04L124.459 321.62Z" fill="#545DBF"/>
<path d="M109.25 267.12L110.95 281.25C110.95 281.25 161.34 284.14 170.13 287.8C178.91 291.46 181.63 296.36 180.9 309.54C180.17 322.72 154.22 404.04 154.22 404.04L107.82 395.51L131.27 325.78L77.89 325.81C68.71 325.81 60 321.17 55.38 313.24C52.84 308.89 51.34 303.33 52.53 296.44C54.27 286.34 64.8 268 64.8 268L109.27 267.11L109.25 267.12Z" fill="#798EC1"/>
<path d="M81.2496 280.11C99.9596 280.27 118.64 281.38 137.23 283.46C137.71 283.51 137.71 282.76 137.23 282.71C118.64 280.64 99.9496 279.52 81.2496 279.36C80.7696 279.36 80.7696 280.11 81.2496 280.11Z" fill="#2C2C2C"/>
<path d="M44.1098 331.56H113.29C114.98 331.56 116.35 330.19 116.35 328.5C116.35 326.81 114.98 325.44 113.29 325.44H44.1098C42.4198 325.44 41.0498 326.81 41.0498 328.5C41.0498 330.19 42.4198 331.56 44.1098 331.56Z" fill="#B8C1EA"/>
<path d="M30.9002 220.12C32.6502 219.92 34.2202 221.18 34.4202 222.93L46.2402 327.701C46.4402 329.451 45.1802 331.02 43.4302 331.22C41.6802 331.42 40.1102 330.16 39.9102 328.41L28.0902 223.64C27.8902 221.89 29.1502 220.32 30.9002 220.12Z" fill="#B8C1EA"/>
<path d="M46.2598 331.831C45.5898 334.961 44.9198 338.081 44.2498 341.211L39.4298 363.741L33.5998 391.001L28.5598 414.571L26.8998 422.341C26.6498 423.521 26.1798 424.831 26.1098 426.031C26.1098 426.081 26.0898 426.141 26.0798 426.191C25.9798 426.661 26.6998 426.861 26.7998 426.391C27.4698 423.261 28.1398 420.141 28.8098 417.011L33.6298 394.481L39.4598 367.221L44.4998 343.651L46.1598 335.881C46.4098 334.701 46.8798 333.391 46.9498 332.191C46.9498 332.141 46.9698 332.081 46.9798 332.031C47.0798 331.561 46.3598 331.361 46.2598 331.831Z" fill="#2C2C2C"/>
<path d="M124.409 426.2C123.829 423.05 123.249 419.9 122.669 416.75L118.509 394.19C116.829 385.05 115.139 375.92 113.459 366.78L109.109 343.17L107.669 335.34C107.459 334.18 107.419 332.72 106.979 331.62C106.959 331.57 106.959 331.51 106.949 331.46C106.859 330.99 106.139 331.19 106.229 331.66C106.809 334.81 107.389 337.96 107.969 341.11L112.129 363.67C113.809 372.81 115.499 381.94 117.179 391.08L121.529 414.69L122.969 422.52C123.179 423.68 123.219 425.14 123.659 426.24C123.679 426.29 123.679 426.35 123.689 426.4C123.779 426.87 124.499 426.67 124.409 426.2Z" fill="#2C2C2C"/>
<path d="M163.63 195.92C163.63 195.92 162.869 187.37 169.589 185.65C176.309 183.92 181.249 184.52 180.649 187C180.649 187 193.949 186.52 195.789 187.42C197.629 188.32 197.149 190.35 197.149 190.35C197.149 190.35 201.099 191.13 198.549 194.19C198.549 194.19 199.179 196.36 197.329 197.41C195.479 198.46 174.989 204.9 174.759 204.95C174.529 205 170.919 211.65 170.919 211.65C170.919 211.65 160.929 210.63 158.729 202.82L163.609 195.93L163.63 195.92Z" fill="#AB5A44"/>
<path d="M190.019 196.88C188.979 194.48 187.429 192.31 185.499 190.54C185.149 190.21 184.609 190.74 184.969 191.07C186.849 192.8 188.349 194.91 189.369 197.26C189.559 197.7 190.209 197.32 190.019 196.88Z" fill="#822C29"/>
<path d="M177.19 190.07C176.53 192.61 174.81 194.79 172.5 196.03C172.07 196.26 172.45 196.91 172.88 196.68C175.36 195.35 177.21 192.99 177.92 190.27C178.04 189.8 177.32 189.6 177.2 190.07H177.19Z" fill="#822C29"/>
<path d="M181.509 194.28C179.859 193.45 177.999 193.09 176.159 193.28C175.959 193.3 175.789 193.44 175.779 193.66C175.779 193.85 175.949 194.06 176.159 194.04C177.869 193.86 179.589 194.16 181.129 194.94C181.559 195.16 181.939 194.51 181.509 194.29V194.28Z" fill="#822C29"/>
<path d="M180.339 186.789C177.849 187.199 175.379 187.709 172.919 188.289C172.449 188.399 172.649 189.129 173.119 189.009C175.579 188.419 178.049 187.919 180.539 187.509C181.019 187.429 180.809 186.709 180.339 186.789Z" fill="#822C29"/>
<path d="M187.43 191.39C190.72 190.65 194.09 190.42 197.45 190.68C197.93 190.72 197.93 189.97 197.45 189.93C194.03 189.66 190.58 189.91 187.23 190.66C186.76 190.77 186.96 191.49 187.43 191.38V191.39Z" fill="#822C29"/>
<path d="M189.489 195.579C192.519 194.729 195.649 194.309 198.799 194.339C199.279 194.339 199.279 193.589 198.799 193.589C195.589 193.559 192.379 193.989 189.289 194.859C188.829 194.989 189.019 195.709 189.489 195.579Z" fill="#822C29"/>
<path d="M112.4 260.84C112.33 260.65 112.26 260.45 112.19 260.25L110.94 263.88C110.62 265.95 108.84 267.48 106.74 267.48H80.88C76.88 271.27 69.83 276.8 62.17 277.51C50.37 278.6 49.09 268.23 49.36 261.62C49.63 255.02 53.19 220.1 58 207.85C62.81 195.6 83.29 194.04 83.83 194.05C91.59 198.5 101.38 199.98 103.5 195.3C103.5 195.3 109.59 196.37 112.49 197.46C112.49 197.46 117.95 200.49 119.72 207.56C121.49 214.63 119.39 244.19 112.2 260.26" fill="#F7F7F7"/>
<path d="M77.5695 244.829C78.9995 234.949 78.3495 224.919 79.7695 215.049C79.8395 214.579 79.1195 214.369 79.0495 214.849C77.6195 224.729 78.2695 234.759 76.8495 244.629C76.7795 245.099 77.4995 245.309 77.5695 244.829Z" fill="#2C2C2C"/>
<path d="M77.2402 245.06L88.4502 240.29C88.4502 240.29 93.9802 235.53 97.6302 234.11C101.28 232.69 103.97 232.94 106.23 233.16C108.48 233.39 113.54 235.11 112.29 237.77C111.43 239.59 109.58 238.77 106.84 238.19C104.1 237.61 99.9502 238.89 99.9502 238.89C99.9502 238.89 107.29 242.94 107.54 247.32C107.54 247.32 107.73 249.96 104.11 249.42C104.11 249.42 104.27 253.55 100.26 252.71C100.26 252.71 97.4802 249.22 95.1602 247.72L93.8202 247.12C93.8202 247.12 97.1402 252.08 96.7702 253.63C96.4002 255.18 95.5202 256.47 94.0002 255.89C92.4802 255.31 92.3802 252.6 90.5602 251.48C90.5602 251.48 88.9402 253.65 88.2602 254.57C87.5902 255.49 83.1002 259.15 83.1002 259.15C83.1002 259.15 81.1602 254.9 79.8502 251.49C78.3602 247.61 77.2402 245.05 77.2402 245.05V245.06Z" fill="#AB5A44"/>
<path d="M103.43 240.8C101.67 238.62 98.77 237.57 96.02 238.04C95.55 238.12 95.75 238.84 96.22 238.76C98.71 238.34 101.32 239.37 102.9 241.33C103.2 241.71 103.73 241.17 103.43 240.8Z" fill="#822C29"/>
<path d="M103.98 249.38C101.92 245.31 98.19 242.21 93.83 240.9C93.37 240.76 93.17 241.48 93.63 241.62C97.82 242.88 101.36 245.86 103.34 249.76C103.56 250.19 104.21 249.81 103.99 249.38H103.98Z" fill="#822C29"/>
<path d="M60.9303 251.71C66.0203 248.68 71.6003 246.79 77.3403 245.42L76.8803 245.16C79.4703 251.43 82.0703 257.69 84.6603 263.96C84.8403 264.4 85.5703 264.21 85.3803 263.76C82.7903 257.49 80.1903 251.23 77.6003 244.96C77.5203 244.77 77.3603 244.65 77.1403 244.7C71.3403 246.09 65.6903 248.01 60.5503 251.07C60.1403 251.32 60.5103 251.97 60.9303 251.72V251.71Z" fill="#2C2C2C"/>
<path d="M110.21 265.74C117.98 249.61 121.28 231.52 119.68 213.69C119.64 213.21 118.89 213.21 118.93 213.69C120.52 231.39 117.27 249.36 109.56 265.36C109.35 265.79 110 266.17 110.21 265.74Z" fill="#2C2C2C"/>
<path d="M107.87 190.24L107.12 195.79C107.03 196.43 106.68 197.01 106.14 197.37L97.0804 203.45C96.3704 203.92 95.4604 203.96 94.7204 203.55L81.3804 196.15C80.6304 195.73 80.1804 194.92 80.2104 194.06L80.4204 189.32C80.4804 188.09 81.5004 187.13 82.7404 187.15L105.68 187.66C107.03 187.69 108.06 188.89 107.88 190.23L107.87 190.24Z" fill="#F7F7F7"/>
<path d="M81.8403 195.39C90.0203 196.92 98.7703 197.11 107.01 195.93C107.49 195.86 107.28 195.14 106.81 195.21C98.7203 196.36 90.0803 196.17 82.0403 194.67C81.5703 194.58 81.3703 195.3 81.8403 195.39Z" fill="#2C2C2C"/>
<path d="M409.6 50.2002H492.76C493.56 50.2002 493.57 48.9502 492.76 48.9502H409.6C408.8 48.9502 408.79 50.2002 409.6 50.2002Z" fill="#8C98E9"/>
<path d="M409.6 57.2803H492.76C493.56 57.2803 493.57 56.0303 492.76 56.0303H409.6C408.8 56.0303 408.79 57.2803 409.6 57.2803Z" fill="#8C98E9"/>
<path d="M409.6 64.3604H492.76C493.56 64.3604 493.57 63.1104 492.76 63.1104H409.6C408.8 63.1104 408.79 64.3604 409.6 64.3604Z" fill="#8C98E9"/>
<path d="M409.6 71.4502H422.39C423.19 71.4502 423.2 70.2002 422.39 70.2002H409.6C408.8 70.2002 408.79 71.4502 409.6 71.4502Z" fill="#8C98E9"/>
<path d="M409.6 97.1201H492.76C493.56 97.1201 493.57 95.8701 492.76 95.8701H409.6C408.8 95.8701 408.79 97.1201 409.6 97.1201Z" fill="#8C98E9"/>
<path d="M409.6 104.2H492.76C493.56 104.2 493.57 102.95 492.76 102.95H409.6C408.8 102.95 408.79 104.2 409.6 104.2Z" fill="#8C98E9"/>
<path d="M409.6 111.29H492.76C493.56 111.29 493.57 110.04 492.76 110.04H409.6C408.8 110.04 408.79 111.29 409.6 111.29Z" fill="#8C98E9"/>
<path d="M409.6 118.37H422.39C423.19 118.37 423.2 117.12 422.39 117.12H409.6C408.8 117.12 408.79 118.37 409.6 118.37Z" fill="#8C98E9"/>
<path d="M378.799 109.05H335.269C332.905 109.05 330.989 110.966 330.989 113.33V144.67C330.989 147.034 332.905 148.95 335.269 148.95H378.799C381.163 148.95 383.079 147.034 383.079 144.67V113.33C383.079 110.966 381.163 109.05 378.799 109.05Z" stroke="#8C98E9" stroke-miterlimit="10"/>
<path d="M331.159 127.99C335.369 126.84 339.859 127.23 343.829 129.07C345.859 130.01 347.719 131.29 349.349 132.82C350.979 134.35 352.389 136.03 354.119 137.41C360.569 142.55 369.399 138.65 374.129 133.03C375.229 131.72 376.259 130.35 377.509 129.17C379.149 127.62 381.069 126.61 383.239 126.04C384.019 125.84 383.689 124.63 382.909 124.83C379.509 125.72 376.949 127.68 374.729 130.34C373.739 131.52 372.799 132.76 371.689 133.84C370.239 135.26 368.459 136.35 366.629 137.21C364.569 138.17 362.259 138.78 359.969 138.57C357.529 138.35 355.529 137.07 353.769 135.44C352.149 133.93 350.709 132.23 348.989 130.83C347.389 129.53 345.629 128.46 343.739 127.66C339.649 125.93 335.119 125.6 330.829 126.77C330.049 126.98 330.379 128.19 331.159 127.98V127.99Z" fill="#8C98E9"/>
<path d="M355.739 120.88C355.419 123.44 353.089 125.26 350.529 124.95C347.969 124.63 346.149 122.3 346.469 119.74C346.789 117.18 349.119 115.36 351.679 115.68C354.239 116 356.059 118.33 355.739 120.89V120.88Z" stroke="#8C98E9" stroke-miterlimit="10"/>
<path d="M508.889 170.01H492.099C485.959 170.01 479.829 170.01 473.689 170.01C466.039 170.01 458.389 170.01 450.739 170.01C442.209 170.01 433.679 170.01 425.149 170.01C416.619 170.01 407.299 170.01 398.369 170.01C389.439 170.01 381.019 170.01 372.339 170.01C364.399 170.01 356.459 170.01 348.519 170.01H328.819C324.149 170.01 319.469 170.01 314.799 170.01C312.569 170.01 310.349 170.02 308.119 170.01C304.729 169.99 301.719 167.83 301.089 164.39C300.939 163.57 300.989 162.7 300.989 161.86V151.29C300.989 145.07 300.989 138.85 300.989 132.63C300.989 124.65 300.989 116.66 300.989 108.68C300.989 100.7 300.989 90.98 300.989 82.13C300.989 73.44 300.989 64.76 300.989 56.07C300.989 47.38 300.989 40.76 300.989 33.11C300.989 27.51 300.989 21.9 300.989 16.3C300.989 13.65 300.969 10.99 300.989 8.34004C301.009 4.47005 303.869 1.32004 307.819 1.25004C308.229 1.25004 308.639 1.25004 309.049 1.25004H333.499C340.469 1.25004 347.439 1.25004 354.409 1.25004C362.609 1.25004 370.799 1.25004 378.999 1.25004C387.779 1.25004 396.569 1.25004 405.349 1.25004C414.129 1.25004 423.129 1.25004 432.009 1.25004C440.359 1.25004 448.699 1.25004 457.049 1.25004C464.339 1.25004 471.619 1.25004 478.909 1.25004C484.599 1.25004 490.279 1.25004 495.969 1.25004H506.389C507.129 1.25004 507.869 1.25004 508.619 1.25004C512.309 1.27004 515.509 3.92004 515.709 7.73004C515.809 9.70004 515.709 11.69 515.709 13.65V160.36C515.709 161.21 515.709 162.05 515.709 162.9C515.689 166.79 512.839 169.91 508.879 170.01C508.079 170.03 508.069 171.28 508.879 171.26C513.399 171.16 516.889 167.6 516.959 163.09C516.969 162.34 516.959 161.6 516.959 160.85V13.55C516.959 11.39 517.169 9.10004 516.879 6.95004C516.319 2.89004 512.799 0.0500444 508.779 4.43677e-05C508.149 4.43677e-05 507.519 4.43677e-05 506.889 4.43677e-05H496.879C491.289 4.43677e-05 485.699 4.43677e-05 480.109 4.43677e-05C472.799 4.43677e-05 465.479 4.43677e-05 458.169 4.43677e-05C449.739 4.43677e-05 441.309 4.43677e-05 432.879 4.43677e-05C423.919 4.43677e-05 414.949 4.43677e-05 405.989 4.43677e-05C397.029 4.43677e-05 388.239 4.43677e-05 379.369 4.43677e-05C371.089 4.43677e-05 362.809 4.43677e-05 354.529 4.43677e-05C347.469 4.43677e-05 340.399 4.43677e-05 333.339 4.43677e-05C328.079 4.43677e-05 322.809 4.43677e-05 317.549 4.43677e-05H308.919C308.329 4.43677e-05 307.729 -0.0199556 307.139 0.0300444C302.889 0.400044 299.819 4.01004 299.759 8.19004C299.729 10.64 299.759 13.09 299.759 15.53V32.16C299.759 39.82 299.759 47.47 299.759 55.13C299.759 63.88 299.759 72.62 299.759 81.37C299.759 90.3101 299.759 99.25 299.759 108.19C299.759 117.13 299.759 124.41 299.759 132.52C299.759 138.82 299.759 145.12 299.759 151.42V161.92C299.759 162.91 299.739 163.89 299.939 164.87C300.739 168.67 304.169 171.19 307.969 171.24C309.989 171.27 312.019 171.24 314.039 171.24H327.809C334.379 171.24 340.949 171.24 347.519 171.24C355.449 171.24 363.379 171.24 371.309 171.24H508.919C509.719 171.24 509.729 169.99 508.919 169.99L508.889 170.01Z" fill="#F7F7F7"/>
<path d="M354.939 66.98L385.249 70.74C384.919 73.38 384.249 75.96 383.259 78.43C376.979 93.96 359.029 101.58 343.499 95.3C327.969 89.02 320.349 71.07 326.629 55.54L354.939 66.99V66.98Z" fill="#8C98E9"/>
<path d="M355.579 63.0901L355.669 33.8701C359.179 33.8801 362.649 34.5201 365.929 35.7701C378.489 40.5301 386.219 53.3601 384.569 66.6801L355.579 63.0901Z" fill="#F9CA51"/>
<path d="M350.679 60.4302L328.369 51.2102C330.219 46.7302 333.379 42.9202 337.429 40.2602C341.479 37.6002 346.239 36.2202 351.079 36.3002L350.679 60.4402V60.4302Z" fill="#E7A5DD"/>
<path d="M301.23 17.0996H515.46C516.26 17.0996 516.27 15.8496 515.46 15.8496H301.23C300.43 15.8496 300.42 17.0996 301.23 17.0996Z" fill="#F7F7F7"/>
<path d="M327.2 78.9402C330.97 78.5702 334.13 75.9702 335.75 72.6102C337.79 68.3902 337.26 63.4402 335.81 59.1202C335.66 58.6602 334.93 58.8602 335.09 59.3202C336.45 63.3502 337.03 67.9802 335.23 71.9802C333.77 75.2002 330.81 77.8402 327.21 78.1902C326.73 78.2402 326.73 78.9902 327.21 78.9402H327.2Z" fill="#F7F7F7"/>
<path d="M363.299 68.7402C356.949 68.8802 354.129 75.4602 351.379 80.1202C349.579 83.1702 347.309 85.6502 343.909 86.8702C340.749 88.0002 337.339 88.1302 334.009 88.1602C333.529 88.1602 333.529 88.9102 334.009 88.9102C340.079 88.8602 346.399 88.1902 350.349 83.0302C353.939 78.3402 356.109 69.6502 363.289 69.5002C363.769 69.4902 363.769 68.7402 363.289 68.7502L363.299 68.7402Z" fill="#F7F7F7"/>
<path d="M375.109 70.3599C373.719 74.9199 370.239 77.6699 365.859 79.1499C362.759 80.1999 358.569 81.2399 357.249 84.6699C356.669 86.1699 356.949 87.9099 358.489 88.6599C360.159 89.4799 362.509 89.2099 364.279 89.0199C368.629 88.5399 372.799 86.8199 376.199 84.0499C379.899 81.0299 382.529 76.8599 383.779 72.2599C383.909 71.7899 383.179 71.5899 383.059 72.0599C380.889 80.0599 374.409 86.2599 366.279 87.9399C364.229 88.3599 361.859 88.6499 359.769 88.2599C356.669 87.6799 357.719 84.4699 359.409 82.9299C361.939 80.6399 365.619 80.2399 368.629 78.8699C372.129 77.2699 374.729 74.2099 375.839 70.5399C375.979 70.0799 375.259 69.8799 375.119 70.3399L375.109 70.3599Z" fill="#F7F7F7"/>
<path d="M341.27 76.6097C342.06 76.0797 343.09 75.7797 343.86 76.4197C344.44 76.9097 344.79 77.7597 344.65 78.5097C344.49 79.4097 343.66 80.0597 342.8 80.2197C341.94 80.3797 341.15 79.9097 340.81 79.1297C340.43 78.2597 340.59 77.1697 341.34 76.5597C341.5 76.4297 341.47 76.1597 341.34 76.0297C341.18 75.8697 340.97 75.8997 340.81 76.0297C339.93 76.7397 339.68 78.0097 339.99 79.0597C340.32 80.1897 341.3 81.0197 342.5 80.9897C343.7 80.9597 344.83 80.1897 345.26 79.0797C345.65 78.0797 345.31 76.8697 344.61 76.0997C344.2 75.6497 343.65 75.3697 343.04 75.2997C342.27 75.2197 341.51 75.5297 340.89 75.9597C340.49 76.2297 340.87 76.8797 341.27 76.6097Z" fill="#F7F7F7"/>
<path d="M314.5 9.47986C314.5 10.7899 313.44 11.8499 312.13 11.8499C310.82 11.8499 309.76 10.7899 309.76 9.47986C309.76 8.16986 310.82 7.10986 312.13 7.10986C313.44 7.10986 314.5 8.16986 314.5 9.47986Z" fill="#F7F7F7"/>
<path d="M318.92 11.8499C320.229 11.8499 321.29 10.7888 321.29 9.47986C321.29 8.17095 320.229 7.10986 318.92 7.10986C317.611 7.10986 316.55 8.17095 316.55 9.47986C316.55 10.7888 317.611 11.8499 318.92 11.8499Z" fill="#F7F7F7"/>
<path d="M328.08 9.47986C328.08 10.7899 327.02 11.8499 325.71 11.8499C324.4 11.8499 323.34 10.7899 323.34 9.47986C323.34 8.16986 324.4 7.10986 325.71 7.10986C327.02 7.10986 328.08 8.16986 328.08 9.47986Z" fill="#F7F7F7"/>
<path d="M604.88 334.7H535.7C534.01 334.7 532.64 333.33 532.64 331.64C532.64 329.95 534.01 328.58 535.7 328.58H604.88C606.57 328.58 607.94 329.95 607.94 331.64C607.94 333.33 606.57 334.7 604.88 334.7Z" fill="#B8C1EA"/>
<path d="M618.09 223.25C616.34 223.05 614.77 224.31 614.57 226.06L602.75 330.83C602.55 332.58 603.81 334.15 605.56 334.35C607.31 334.55 608.88 333.29 609.08 331.54L620.9 226.77C621.1 225.02 619.84 223.45 618.09 223.25Z" fill="#B8C1EA"/>
<path d="M602.01 335.17C602.64 338.19 603.28 341.21 603.91 344.23L608.48 365.99C610.31 374.72 612.15 383.45 613.98 392.18C615.57 399.77 617.17 407.36 618.76 414.94L620.34 422.45C620.57 423.56 620.65 424.96 621.09 426.02C621.11 426.07 621.11 426.13 621.12 426.18C621.22 426.65 621.94 426.45 621.84 425.98C621.21 422.96 620.57 419.94 619.94 416.92L615.37 395.16C613.54 386.43 611.7 377.7 609.87 368.97C608.28 361.38 606.68 353.79 605.09 346.21L603.51 338.7C603.28 337.59 603.2 336.19 602.76 335.13C602.74 335.08 602.74 335.02 602.73 334.97C602.63 334.5 601.91 334.7 602.01 335.17Z" fill="#2C2C2C"/>
<path d="M525.88 426.38C526.43 423.37 526.99 420.36 527.54 417.35C528.88 410.08 530.22 402.81 531.56 395.54L536.4 369.26C537.8 361.65 539.2 354.04 540.6 346.43L541.97 338.97C542.18 337.82 542.59 336.56 542.63 335.38C542.63 335.33 542.65 335.27 542.66 335.22C542.75 334.75 542.02 334.55 541.94 335.02C541.39 338.03 540.83 341.04 540.28 344.05C538.94 351.32 537.6 358.59 536.26 365.86L531.42 392.14C530.02 399.75 528.62 407.36 527.22 414.97L525.85 422.43C525.64 423.58 525.23 424.84 525.19 426.02C525.19 426.07 525.17 426.13 525.16 426.18C525.07 426.65 525.8 426.85 525.88 426.38Z" fill="#2C2C2C"/>
<path d="M615.649 337.45C611.529 337.86 607.839 341.54 605.159 345.09C598.709 353.64 594.539 363.46 593.319 372.98C592.989 375.58 592.879 378.22 593.749 380.44C594.619 382.66 596.629 384.39 599.279 384.37C604.569 383.81 616.429 366.44 620.509 355.98C622.059 352.02 623.519 347.87 623.099 344.09C622.679 340.31 619.789 337.03 615.649 337.44V337.45Z" fill="#A3A3D7"/>
<path d="M594.339 411.24C592.799 395.49 597.999 379.62 604.859 365.65C607.329 360.61 610.099 355.72 613.079 350.95C613.339 350.54 612.689 350.16 612.429 350.57C603.199 365.35 595.379 381.97 593.639 399.52C593.249 403.42 593.209 407.35 593.589 411.25C593.639 411.73 594.389 411.73 594.339 411.25V411.24Z" fill="#2C2C2C"/>
<path d="M571.009 371.58C567.799 371.45 564.559 372.51 562.049 374.51C559.539 376.51 557.789 379.44 557.199 382.59C556.689 385.33 557.099 388.32 558.719 390.59C560.339 392.86 563.269 394.27 565.999 393.69C568.819 393.09 570.929 390.54 571.649 387.75C572.369 384.96 571.889 381.99 571.009 379.25C570.599 377.97 570.099 376.7 569.969 375.36C569.849 374.02 570.159 372.56 571.149 371.65" fill="#8F91C7"/>
<path d="M587.27 376.74C585.78 373.66 583.66 370.75 580.65 369.13C576.37 366.82 570.89 367.57 566.74 370.12C562.59 372.67 559.17 375.72 557.64 381.06C558.86 378.35 562.13 376.92 564.98 376.79C567.84 376.66 570.61 378 572.77 379.87C574.93 381.74 576.59 384.12 578.22 386.47C579.16 387.83 580.2 389.26 581.75 389.84C583.13 390.35 584.74 390.06 585.97 389.26C587.89 388.01 588.9 385.65 588.96 383.35C589.02 381.06 588.25 378.81 587.25 376.75L587.27 376.74Z" fill="#A3A3D7"/>
<path d="M594.159 397.44C591.539 392.5 589.319 387.35 586.169 382.7C582.759 377.67 578.369 373.43 572.669 371.13C572.219 370.95 572.029 371.67 572.469 371.85C583.739 376.4 588.219 387.85 593.509 397.81C593.739 398.24 594.379 397.86 594.159 397.43V397.44Z" fill="#2C2C2C"/>
<path d="M605.57 425.88H582.13L574.43 400.95H612.75L605.57 425.88Z" fill="#A3A3D7"/>
<path d="M614.359 400.95H572.569V406.9H614.359V400.95Z" fill="#A3A3D7"/>
<path d="M573.089 407.06H614.579C615.059 407.06 615.059 406.31 614.579 406.31H573.089C572.609 406.31 572.609 407.06 573.089 407.06Z" fill="#2C2C2C"/>
<path d="M413.43 267.22C421.19 287.69 428.94 308.16 436.7 328.63C444.82 350.06 452.94 371.49 461.06 392.92C465.29 404.07 469.51 415.22 473.74 426.38C473.91 426.83 474.63 426.63 474.46 426.18C466.7 405.71 458.95 385.24 451.19 364.77C443.43 344.3 434.95 321.91 426.83 300.48C422.6 289.33 418.38 278.18 414.15 267.02C413.98 266.57 413.26 266.77 413.43 267.22Z" fill="#2C2C2C"/>
<path d="M425.68 271.31H126.39C124.12 271.31 122.28 269.47 122.28 267.2C122.28 264.93 124.12 263.09 126.39 263.09H425.68C427.95 263.09 429.79 264.93 429.79 267.2C429.79 269.47 427.95 271.31 425.68 271.31Z" fill="#E7A5DD"/>
<path d="M96.7502 425.89C103.09 405.96 109.73 386.14 116.49 366.35C123.25 346.56 130.79 325.01 138.09 304.4C141.91 293.63 145.75 282.86 149.61 272.1C149.77 271.64 149.05 271.45 148.89 271.9C141.83 291.58 134.83 311.29 127.92 331.02C120.7 351.66 113.58 372.34 106.66 393.08C103.04 403.92 99.4902 414.78 96.0202 425.68C95.8702 426.14 96.6002 426.34 96.7402 425.88L96.7502 425.89Z" fill="#2C2C2C"/>
<path d="M124.72 37.8096H41.8996C38.5583 37.8096 35.8496 40.5182 35.8496 43.8596V100.64C35.8496 103.981 38.5583 106.69 41.8996 106.69H124.72C128.061 106.69 130.77 103.981 130.77 100.64V43.8596C130.77 40.5182 128.061 37.8096 124.72 37.8096Z" fill="#F7F7F7"/>
<path d="M35.8496 61.7197C38.3496 62.7197 59.3296 87.6997 59.3296 87.6997L79.2696 64.7797L97.7996 84.1997L116.78 57.2197L130.77 53.7197V101C130.77 104.14 128.23 106.68 125.09 106.68H41.5996C38.4296 106.68 35.8496 104.11 35.8496 100.93V61.6997" fill="#E7A5DD"/>
<path d="M35.54 62.2598C36.78 62.7998 37.88 64.2798 38.79 65.2198C40.75 67.2598 42.64 69.3598 44.52 71.4698C48.5 75.9398 52.4 80.4798 56.28 85.0498C57.15 86.0798 58.03 87.1098 58.89 88.1398C59.1 88.3898 59.57 88.3798 59.77 88.1398C65.58 81.4598 71.4 74.7698 77.21 68.0898C78.04 67.1298 78.88 66.1798 79.71 65.2198H78.83C84.23 70.8798 89.62 76.5298 95.02 82.1898C95.8 83.0098 96.58 83.8198 97.36 84.6398C97.66 84.9498 98.12 84.8298 98.34 84.5098C102.08 79.1998 105.81 73.8898 109.55 68.5798L116 59.4198C116.09 59.2898 117.38 57.6698 117.3 57.5698C117.31 57.5898 116.9 57.7398 117.02 57.8098C117.08 57.8498 117.44 57.7098 117.52 57.6898L119.66 57.1498C123.42 56.2098 127.18 55.2698 130.94 54.3298C131.72 54.1398 131.39 52.9298 130.61 53.1198C127.3 53.9498 123.99 54.7698 120.68 55.5998C119.42 55.9198 117.85 56.0598 116.67 56.5998C116.17 56.8298 115.88 57.4198 115.57 57.8698L101.87 77.3398C100.33 79.5198 98.8 81.6998 97.26 83.8798L98.24 83.7498C92.84 78.0898 87.45 72.4398 82.05 66.7798C81.27 65.9598 80.49 65.1498 79.71 64.3298C79.49 64.0998 79.04 64.0798 78.83 64.3298C73.02 71.0098 67.2 77.6998 61.39 84.3798C60.56 85.3398 59.72 86.2898 58.89 87.2498H59.77C53.38 79.6498 46.97 71.9998 40.12 64.7998C39.02 63.6398 37.68 61.8298 36.16 61.1698C35.43 60.8498 34.79 61.9298 35.53 62.2498L35.54 62.2598Z" fill="#D7D5F2"/>
<path d="M43.1698 43.6093C43.1698 44.5993 42.3698 45.3993 41.3798 45.3993C40.3898 45.3993 39.5898 44.5993 39.5898 43.6093C39.5898 42.6193 40.3898 41.8193 41.3798 41.8193C42.3698 41.8193 43.1698 42.6193 43.1698 43.6093Z" fill="#D7D5F2"/>
<path d="M48.2997 43.6093C48.2997 44.5993 47.4997 45.3993 46.5097 45.3993C45.5197 45.3993 44.7197 44.5993 44.7197 43.6093C44.7197 42.6193 45.5197 41.8193 46.5097 41.8193C47.4997 41.8193 48.2997 42.6193 48.2997 43.6093Z" fill="#D7D5F2"/>
<path d="M53.4296 43.6093C53.4296 44.5993 52.6296 45.3993 51.6396 45.3993C50.6496 45.3993 49.8496 44.5993 49.8496 43.6093C49.8496 42.6193 50.6496 41.8193 51.6396 41.8193C52.6296 41.8193 53.4296 42.6193 53.4296 43.6093Z" fill="#D7D5F2"/>
<path d="M62.1503 86.6694C62.1503 88.2194 60.8903 89.4794 59.3403 89.4794C57.7903 89.4794 56.5303 88.2194 56.5303 86.6694C56.5303 85.1194 57.7903 83.8594 59.3403 83.8594C60.8903 83.8594 62.1503 85.1194 62.1503 86.6694Z" fill="#F9CA51"/>
<path d="M100.74 83.81C100.74 85.36 99.4801 86.62 97.9301 86.62C96.3801 86.62 95.1201 85.36 95.1201 83.81C95.1201 82.26 96.3801 81 97.9301 81C99.4801 81 100.74 82.26 100.74 83.81Z" fill="#F9CA51"/>
<path d="M82.1003 64.7191C82.1003 66.1791 80.9203 67.3591 79.4603 67.3591C78.0003 67.3591 76.8203 66.1791 76.8203 64.7191C76.8203 63.2591 78.0003 62.0791 79.4603 62.0791C80.9203 62.0791 82.1003 63.2591 82.1003 64.7191Z" fill="#F9CA51"/>
<path d="M119.43 57.2191C119.43 58.6791 118.25 59.8591 116.79 59.8591C115.33 59.8591 114.15 58.6791 114.15 57.2191C114.15 55.7591 115.33 54.5791 116.79 54.5791C118.25 54.5791 119.43 55.7591 119.43 57.2191Z" fill="#F9CA51"/>
<path d="M35.8498 48.71H130.32C131.12 48.71 131.13 47.46 130.32 47.46H35.8498C35.0498 47.46 35.0398 48.71 35.8498 48.71Z" fill="#D7D5F2"/>
<path d="M218.88 116.9H148.199C145.455 116.9 143.229 119.126 143.229 121.87V164.51C143.229 167.255 145.455 169.48 148.199 169.48H218.88C221.624 169.48 223.85 167.255 223.85 164.51V121.87C223.85 119.126 221.624 116.9 218.88 116.9Z" fill="#F7F7F7"/>
<path d="M177.589 128.471H211.539C212.019 128.471 212.019 127.721 211.539 127.721H177.589C177.109 127.721 177.109 128.471 177.589 128.471Z" fill="#D7D5F2"/>
<path d="M177.589 133.291H211.539C212.019 133.291 212.019 132.541 211.539 132.541H177.589C177.109 132.541 177.109 133.291 177.589 133.291Z" fill="#D7D5F2"/>
<path d="M177.589 138.11H198.639C199.119 138.11 199.119 137.36 198.639 137.36H177.589C177.109 137.36 177.109 138.11 177.589 138.11Z" fill="#D7D5F2"/>
<path d="M177.589 149.721H211.539C212.019 149.721 212.019 148.971 211.539 148.971H177.589C177.109 148.971 177.109 149.721 177.589 149.721Z" fill="#D7D5F2"/>
<path d="M177.589 154.541H211.539C212.019 154.541 212.019 153.791 211.539 153.791H177.589C177.109 153.791 177.109 154.541 177.589 154.541Z" fill="#D7D5F2"/>
<path d="M177.589 159.36H198.639C199.119 159.36 199.119 158.61 198.639 158.61H177.589C177.109 158.61 177.109 159.36 177.589 159.36Z" fill="#D7D5F2"/>
<path d="M164.92 125.591H156.25C154.598 125.591 153.26 126.929 153.26 128.581V137.251C153.26 138.902 154.598 140.241 156.25 140.241H164.92C166.571 140.241 167.91 138.902 167.91 137.251V128.581C167.91 126.929 166.571 125.591 164.92 125.591Z" fill="#D7D5F2"/>
<path d="M158.3 132.18C159.72 133.49 161.14 134.81 162.56 136.12C163.53 137.02 164.76 136.71 165.5 135.74C167.31 133.37 169.13 131 170.94 128.64L171.72 127.62C172.32 126.84 171.87 125.49 171.05 125.05C170.06 124.53 169.12 124.89 168.48 125.72C166.67 128.09 164.85 130.46 163.04 132.82L162.26 133.84L165.2 133.46C163.78 132.15 162.36 130.83 160.94 129.52C160.22 128.85 158.99 128.75 158.29 129.52C157.62 130.24 157.52 131.46 158.29 132.17L158.3 132.18Z" fill="#8C98E9"/>
<path d="M164.92 148.261H156.25C154.598 148.261 153.26 149.599 153.26 151.251V159.921C153.26 161.572 154.598 162.911 156.25 162.911H164.92C166.571 162.911 167.91 161.572 167.91 159.921V151.251C167.91 149.599 166.571 148.261 164.92 148.261Z" fill="#D7D5F2"/>
<path d="M158.3 154.851C159.72 156.161 161.14 157.481 162.56 158.791C163.53 159.691 164.76 159.381 165.5 158.411C167.31 156.041 169.13 153.671 170.94 151.311L171.72 150.291C172.32 149.511 171.87 148.161 171.05 147.721C170.06 147.201 169.12 147.561 168.48 148.391C166.67 150.761 164.85 153.131 163.04 155.491L162.26 156.511L165.2 156.131C163.78 154.821 162.36 153.501 160.94 152.191C160.22 151.521 158.99 151.421 158.29 152.191C157.62 152.911 157.52 154.131 158.29 154.841L158.3 154.851Z" fill="#8C98E9"/>
<path d="M241.85 47.2002H215.1C211.45 47.2002 208.49 50.1596 208.49 53.8102V80.9102C208.49 84.5608 211.45 87.5202 215.1 87.5202H241.85C245.501 87.5202 248.46 84.5608 248.46 80.9102V53.8102C248.46 50.1596 245.501 47.2002 241.85 47.2002Z" stroke="#F7F7F7" stroke-miterlimit="10"/>
<path d="M248.46 68.2699C247.59 66.8499 244.92 64.2299 243.61 63.1099C242.3 61.9899 240.5 61.3699 238.79 61.6599C236.86 61.9899 235.33 63.3999 233.97 64.7699C230.5 68.2599 227.29 71.9799 224.08 75.6999C222.56 73.3499 220.5 69.0999 217.22 69.4299C216.05 69.5499 215.33 70.0899 214.27 71.1699C212.94 72.5299 211.7 74.5399 210.18 76.8499L208.5 79.2399V82.0599C208.5 85.0699 211 87.4999 214.08 87.4999H242.89C245.97 87.4999 248.47 85.0599 248.47 82.0599V68.2499L248.46 68.2699Z" fill="#F7F7F7"/>
<path d="M223.4 64.0206C226.206 64.0206 228.48 61.7999 228.48 59.0606C228.48 56.3213 226.206 54.1006 223.4 54.1006C220.595 54.1006 218.32 56.3213 218.32 59.0606C218.32 61.7999 220.595 64.0206 223.4 64.0206Z" fill="#F7F7F7"/>
<path d="M520.7 242.85C523.33 241.12 524.7 238.38 526.53 235.93C527.53 234.59 528.77 233.29 530.31 232.6C532.24 231.73 533.99 232.41 535.87 233.02C538.92 234 541.58 233.26 543.82 230.97C546.06 228.68 547.22 225.24 549.6 222.89C552.19 220.34 556.06 219.3 559.57 220.25C563.35 221.27 565.46 224.1 567.27 227.37C568.72 229.98 570.33 232.72 573.16 234.01C574.36 234.56 575.66 234.73 576.95 234.47C578.9 234.07 580.53 232.95 582.58 233.62C584.46 234.24 585.93 235.76 587.25 237.16C588.42 238.42 589.57 239.7 590.73 240.97C592.67 243.09 594.6 245.21 596.54 247.33C597.08 247.93 597.97 247.04 597.42 246.45C595.6 244.46 593.79 242.47 591.97 240.49C589.89 238.22 587.92 235.65 585.45 233.79C584.28 232.91 582.95 232.24 581.47 232.13C579.72 232 578.26 232.93 576.6 233.25C572.52 234.05 569.97 229.69 568.33 226.73C566.69 223.77 564.86 221.12 561.7 219.7C558.78 218.38 555.47 218.3 552.5 219.51C549.3 220.81 547.37 223.34 545.64 226.21C543.76 229.34 541.18 233.17 536.95 232.05C535.18 231.58 533.53 230.72 531.66 230.94C530.07 231.12 528.66 231.96 527.48 233C524.58 235.57 523.34 239.61 520.05 241.78C519.38 242.22 520.01 243.3 520.68 242.86L520.7 242.85Z" fill="#F7F7F7"/>
<path d="M520.33 232.5C522.46 229.01 524.76 225.63 527.2 222.34C529.41 219.37 532.03 215.75 536.22 216.28C539.97 216.75 542.82 219.81 544.44 223.02C546.26 226.63 547 230.67 548.69 234.33C549.93 237.01 551.98 239.81 555 240.56C558.31 241.38 561.35 239.39 563.55 237.1C566.04 234.51 567.93 231.39 570.52 228.88C573.27 226.2 576.7 224.71 580.58 225.06C589.93 225.89 595.56 234.46 599.95 241.76C600.36 242.45 601.45 241.82 601.03 241.13C597.08 234.56 592.51 227.51 584.96 224.77C581.58 223.55 577.75 223.31 574.39 224.72C571.03 226.13 568.58 228.93 566.36 231.73C564.14 234.53 561.59 238.5 557.75 239.36C553.44 240.33 550.65 235.98 549.3 232.57C546.72 226.07 545.14 216.56 536.81 215.1C532.75 214.38 529.75 216.98 527.41 219.99C524.47 223.79 521.74 227.76 519.24 231.86C518.82 232.55 519.9 233.18 520.32 232.49L520.33 232.5Z" fill="#F9CA51"/>
<path d="M594.2 210.97H525.59C522.116 210.97 519.3 213.786 519.3 217.26V241.44C519.3 244.914 522.116 247.73 525.59 247.73H594.2C597.674 247.73 600.49 244.914 600.49 241.44V217.26C600.49 213.786 597.674 210.97 594.2 210.97Z" stroke="#F7F7F7" stroke-miterlimit="10"/>
<path d="M418.82 263.1H365.34C363.1 263.1 361.28 261.28 361.28 259.04C361.28 256.8 363.1 254.98 365.34 254.98H418.82C421.06 254.98 422.88 256.8 422.88 259.04C422.88 261.28 421.06 263.1 418.82 263.1Z" fill="#F7F7F7"/>
<path d="M619.51 151.74C620.18 157.16 618.77 162.83 615.13 167.45C607.89 176.66 594.55 178.26 585.33 171.02C579.95 166.79 577.19 160.48 577.25 154.13L568.23 153.86C568.09 162.97 572.05 172.03 579.77 178.1C592.89 188.42 611.89 186.14 622.21 173.02C627.71 166.03 629.63 157.37 628.24 149.25L619.51 151.74Z" fill="#F9CA51"/>
<path d="M611.57 137.66C616.15 141.26 618.85 146.38 619.51 151.74L628.24 149.25C627.02 142.12 623.26 135.4 617.13 130.58C616.97 130.46 616.81 130.34 616.65 130.23C615.23 132.37 613.08 135.37 611.46 137.59C611.49 137.62 611.53 137.64 611.56 137.66H611.57Z" fill="#F7F7F7"/>
<path d="M611.47 137.59C613.09 135.36 615.24 132.36 616.66 130.23C603.73 120.46 585.4 122.64 575.12 135.15L582.21 140.73C589.51 132.01 602.44 130.57 611.47 137.59Z" fill="#8C98E9"/>
<path d="M581.771 141.23C581.911 141.05 582.061 140.9 582.201 140.73L575.11 135.15C574.97 135.32 574.83 135.48 574.69 135.66C570.44 141.07 568.33 147.48 568.23 153.86L577.25 154.13C577.29 149.61 578.751 145.06 581.771 141.23Z" fill="#E7A5DD"/>
<path d="M502.539 195.83L543.199 394.9L500.189 401.25L471.259 245.22L481.349 402.89H435.029L430.409 196.37L502.539 195.83Z" fill="#798EC1"/>
<path d="M460.339 228.47C461.899 235.88 465.949 242.8 471.799 247.64C472.169 247.95 472.699 247.42 472.329 247.11C466.569 242.35 462.609 235.57 461.069 228.27C460.969 227.8 460.249 228 460.349 228.47H460.339Z" fill="#2C2C2C"/>
<path d="M447.899 99.3198C447.929 99.8198 448.949 116.52 448.949 116.52L469.799 115.25L468.269 90.0898L447.909 99.3198H447.899Z" fill="#F4B298"/>
<path d="M447.449 105.09C447.449 105.09 434.669 103.9 433.799 89.8502C433.499 85.0402 433.229 79.9502 433.649 70.9502C434.089 61.2702 441.069 56.8702 451.369 56.4502L452.389 56.4102C463.449 56.5702 470.729 62.1202 470.199 72.5002L469.569 82.5102C469.569 82.5102 471.789 104.14 447.469 105.11" fill="#F4B298"/>
<path d="M437.139 81.33C437.139 82.12 437.819 82.77 438.659 82.78C439.489 82.79 440.169 82.16 440.169 81.37C440.169 80.58 439.489 79.93 438.649 79.92C437.809 79.91 437.139 80.54 437.139 81.33Z" fill="#2C2C2C"/>
<path d="M451.139 81.4599C451.139 82.2499 451.819 82.8999 452.659 82.9099C453.489 82.9199 454.169 82.2899 454.169 81.4999C454.169 80.7099 453.489 80.0599 452.649 80.0499C451.809 80.0399 451.139 80.6699 451.139 81.4599Z" fill="#2C2C2C"/>
<path d="M457.389 76.3305C455.769 75.4105 453.709 75.4405 452.119 76.4105C451.709 76.6605 452.089 77.3105 452.499 77.0605C453.859 76.2305 455.619 76.1905 457.009 76.9805C457.429 77.2205 457.809 76.5705 457.389 76.3305Z" fill="#2C2C2C"/>
<path d="M441.719 76.6703C440.099 75.7503 438.039 75.7803 436.449 76.7503C436.039 77.0003 436.419 77.6503 436.829 77.4003C438.189 76.5703 439.949 76.5303 441.339 77.3203C441.759 77.5603 442.139 76.9103 441.719 76.6703Z" fill="#2C2C2C"/>
<path d="M441.049 70.3498C439.569 70.1698 438.079 70.2198 436.629 70.5698C436.179 70.6798 435.739 71.0398 435.509 71.4298C435.279 71.8198 435.179 72.4198 435.319 72.8698C435.639 73.8698 436.599 74.4198 437.629 74.1798C437.919 74.1098 438.219 74.0598 438.509 74.0098L438.009 74.0798C439.019 73.9498 440.039 73.9798 441.049 74.0998C441.489 74.1498 442.069 73.8498 442.379 73.5498C442.709 73.2198 442.949 72.6898 442.929 72.2198C442.909 71.7498 442.749 71.2298 442.379 70.8898L441.999 70.5998C441.709 70.4298 441.389 70.3498 441.049 70.3398V70.3498Z" fill="#2C2C2C"/>
<path d="M456.849 70.1501C455.349 69.9701 453.809 70.1001 452.349 70.4501C451.899 70.5601 451.459 70.9201 451.229 71.3101C450.999 71.7001 450.899 72.3001 451.039 72.7501C451.359 73.7501 452.319 74.3001 453.349 74.0601C453.719 73.9701 454.089 73.9001 454.469 73.8501L453.969 73.9201C454.929 73.8001 455.889 73.7901 456.849 73.9001C457.289 73.9501 457.869 73.6501 458.179 73.3501C458.509 73.0201 458.749 72.4901 458.729 72.0201C458.709 71.5501 458.549 71.0301 458.179 70.6901L457.799 70.4001C457.509 70.2301 457.189 70.1501 456.849 70.1401V70.1501Z" fill="#2C2C2C"/>
<path d="M466.719 81.4703C468.309 80.4703 470.299 79.9302 472.039 80.6302C473.819 81.3502 475.029 83.3603 474.999 85.3703C474.969 87.3803 473.789 89.2803 472.109 90.2203C470.429 91.1603 468.339 91.1703 466.589 90.3603" fill="#F4B298"/>
<path d="M468.449 86.0002C468.679 84.6702 470.509 83.0102 472.449 83.8802" stroke="#ED796A" stroke-linecap="round" stroke-linejoin="round"/>
<path d="M447.609 105.28C451.389 105.5 455.249 103.99 457.879 101.26" stroke="#ED796A" stroke-linecap="round" stroke-linejoin="round"/>
<path d="M445.509 80.3199C445.379 81.3699 445.249 82.4099 445.119 83.4599C445.089 83.7399 445.049 84.0099 445.019 84.2899C444.989 84.4999 445.019 84.9999 444.879 85.1699C444.689 85.4099 444.109 85.2799 443.829 85.3199C443.109 85.4099 442.609 86.0099 442.969 86.7299C443.169 87.1399 443.539 87.4799 443.839 87.8199C444.189 88.2199 444.539 88.6199 444.889 89.0199C445.209 89.3799 445.739 88.8499 445.419 88.4899C445.099 88.1299 444.789 87.7699 444.479 87.4099C444.339 87.2499 444.199 87.0899 444.059 86.9299C443.909 86.7599 443.649 86.5399 443.629 86.2999C443.629 86.0899 443.799 86.0699 443.989 86.0599C444.149 86.0399 444.319 86.0599 444.479 86.0599C444.799 86.0399 445.129 85.9799 445.359 85.7599C445.629 85.5099 445.659 85.1499 445.709 84.7999C445.769 84.2999 445.829 83.8099 445.889 83.3099C446.009 82.3199 446.139 81.3299 446.259 80.3299C446.319 79.8499 445.569 79.8599 445.509 80.3299V80.3199Z" fill="#2C2C2C"/>
<path d="M452.429 89.8599C452.239 89.5799 451.969 89.3199 451.629 89.2599C451.229 89.1899 450.839 89.4199 450.489 89.6399C449.229 90.4399 447.979 91.2399 446.719 92.0399C446.719 92.3499 448.189 94.4399 449.339 94.5099C450.489 94.5799 451.689 94.0699 452.349 93.1199C453.009 92.1699 453.069 90.8199 452.419 89.8599H452.429Z" fill="#ED796A"/>
<path d="M474.329 77.1802C474.549 76.4902 475.089 75.5602 475.499 74.8102C477.119 71.7602 477.999 68.4402 477.849 64.7902C477.729 61.6402 476.009 58.5902 473.369 56.8502C471.459 55.5902 465.799 56.1502 465.799 56.1502C465.799 56.1502 461.919 50.4502 459.309 48.6502C456.409 46.6502 453.109 45.1002 449.599 44.8102C446.089 44.5302 442.359 45.6602 440.029 48.3002C439.429 48.9802 438.909 49.7602 438.159 50.2702C436.789 51.2002 434.999 51.0302 433.349 51.0602C429.819 51.1302 426.119 52.4602 424.059 55.3302C421.999 58.2002 422.189 62.7402 425.029 64.8502C426.209 65.7202 427.859 66.3302 428.149 67.7702C428.339 68.7102 427.829 69.6302 427.579 70.5502C427.109 72.2502 427.559 74.1802 428.729 75.5002C429.859 76.7702 431.739 77.2802 433.459 77.1002L433.409 74.7502C433.409 74.7502 433.929 65.8902 435.859 66.9402C441.349 69.9002 445.809 66.7902 448.429 64.7802C449.869 63.6702 451.659 63.3802 453.479 63.2602C457.889 62.9602 461.219 65.8102 461.889 70.2002C462.569 74.6902 461.949 80.9702 462.569 83.4502C462.729 84.0802 462.869 86.0002 465.089 85.8702C465.089 85.8702 465.929 86.3402 466.579 84.2502C467.229 82.1602 468.119 79.9402 472.639 80.9502L474.319 77.1902L474.329 77.1802Z" fill="#2C2C2C"/>
<path d="M524.669 147.29C524.669 147.29 536.179 160.21 537.559 164.02C538.939 167.83 540.279 177.47 526.999 178.26L511.899 172.04L503.319 159.68L524.669 147.29Z" fill="#F4B298"/>
<path d="M540.219 125.18C537.969 124.42 535.209 122.07 533.309 119.36C532.309 117.93 531.579 116.4 531.359 114.68C530.969 111.63 529.759 108.7 527.909 106.25C527.269 105.4 526.499 104.42 526.769 103.39C527.149 101.96 529.129 101.76 530.529 102.24C532.429 102.89 534.069 104.24 535.069 105.97C535.649 106.98 536.029 108.11 536.799 108.99C538.109 110.48 543.139 113.33 544.029 116.26" fill="#F4B298"/>
<path d="M540.109 93.1201C540.239 92.0001 540.399 90.8201 541.059 89.9101C541.719 88.9901 543.059 88.4601 544.009 89.0701C544.889 89.6301 545.049 90.8401 545.079 91.8801C545.189 95.3301 544.909 98.8001 544.249 102.19C544.949 99.7201 545.649 97.2601 546.339 94.7901C546.609 93.8501 546.879 92.8901 547.459 92.1001C548.039 91.3101 548.989 90.7301 549.959 90.8601C550.929 90.9901 551.749 92.0401 551.409 92.9601C551.919 92.3301 552.939 92.2801 553.619 92.7101C554.309 93.1401 554.689 93.9501 554.799 94.7501C554.909 95.5501 554.789 96.3701 554.659 97.1701C554.259 99.7601 553.869 102.34 553.469 104.93C554.169 103 555.049 101.14 556.099 99.3801C556.629 98.4901 557.449 97.5101 558.479 97.6701C559.239 97.7901 559.769 98.5601 559.859 99.3301C559.959 100.1 559.729 100.86 559.489 101.6C557.789 106.96 556.769 120.42 550.559 126.02L533.899 122.98C534.589 117.19 539.409 98.9001 540.099 93.1101L540.109 93.1201Z" fill="#F4B298"/>
<path d="M544.449 120.49C545.309 117.26 544.139 113.85 541.509 111.8C540.159 110.74 538.309 110.08 537.279 108.67C536.249 107.26 535.499 105.55 534.329 104.16C534.019 103.79 533.489 104.32 533.799 104.69C534.909 106 535.589 107.57 536.569 108.96C537.429 110.18 538.729 110.82 539.959 111.62C541.399 112.56 542.629 113.67 543.339 115.27C544.049 116.87 544.169 118.63 543.729 120.29C543.609 120.76 544.329 120.96 544.449 120.49Z" fill="#ED796A"/>
<path d="M547.399 104.76C548.769 100.92 550.149 97.0797 551.519 93.2397C551.679 92.7797 550.959 92.5897 550.799 93.0397C549.429 96.8797 548.049 100.72 546.679 104.56C546.519 105.02 547.239 105.21 547.399 104.76Z" fill="#ED796A"/>
<path d="M533.949 122.33L550.719 125.52L546.199 172.39C545.739 175.86 544.129 179.08 541.629 181.53C535.569 187.47 525.889 187.51 519.779 181.63L511.899 172.04L522.509 161.51L533.949 122.33Z" fill="#F4B298"/>
<path d="M533.08 124.82C529.52 137.49 525.46 150.05 522.24 162.81C522.16 163.14 521.17 165.99 522.11 165.94C522.59 165.92 522.59 165.17 522.11 165.19C523.03 165.14 522.17 165.7 522.46 165.26C522.57 165.09 522.56 164.69 522.61 164.5C522.78 163.73 522.98 162.96 523.18 162.19C523.83 159.68 524.54 157.19 525.24 154.7C527.11 148.12 529.04 141.56 530.94 135C531.9 131.68 532.87 128.35 533.8 125.02C533.93 124.55 533.21 124.36 533.08 124.82Z" fill="#ED796A"/>
<path d="M484.839 428.19C484.839 428.19 483.659 412.77 502.109 407.85L499.349 394.44L541.739 388.19L548.459 420.59L484.829 428.2L484.839 428.19Z" fill="#798EC1"/>
<path d="M492.419 410.18C495.669 411.11 498.839 412.3 501.909 413.74C502.339 413.94 502.729 413.3 502.289 413.09C499.169 411.62 495.939 410.41 492.619 409.46C492.159 409.33 491.959 410.05 492.419 410.18Z" fill="#2C2C2C"/>
<path d="M496.319 408.26C499.199 409.54 502.079 410.82 504.959 412.1C505.399 412.29 505.779 411.65 505.339 411.45C502.459 410.17 499.579 408.89 496.699 407.61C496.259 407.42 495.879 408.06 496.319 408.26Z" fill="#2C2C2C"/>
<path d="M404.759 159.38C404.759 159.38 397.549 175.11 397.359 179.16C397.169 183.21 398.709 192.81 411.639 189.66L424.239 179.28L430.819 165.84L404.759 159.38Z" fill="#F4B298"/>
<path d="M356.179 127.681C356.609 126.711 358.269 125.611 359.109 126.371C358.879 125.011 358.999 123.881 360.159 123.151C361.319 122.411 362.719 122.821 363.849 123.611C363.619 122.571 363.879 120.831 364.829 120.351C365.779 119.871 367.349 120.701 368.039 121.511C366.059 117.841 364.189 114.111 362.429 110.341C361.849 109.101 361.309 107.531 362.179 106.461C363.159 105.251 365.449 105.341 366.429 106.541C368.429 108.971 370.099 111.591 371.999 114.361C377.699 122.681 385.809 133.421 390.839 142.101L377.419 151.311C377.419 151.311 374.959 147.561 373.869 146.651C372.789 145.741 370.689 146.281 369.469 145.571C366.029 143.591 364.099 139.271 362.759 135.541C361.499 136.591 359.489 136.141 358.299 135.011C357.119 133.871 356.569 132.251 356.059 130.691C355.729 129.681 355.749 128.671 356.179 127.701V127.681Z" fill="#F4B298"/>
<path d="M358.72 126.351C359.1 128.061 359.65 129.721 360.38 131.321C360.97 132.631 361.67 134.171 363.13 134.701C364.47 135.181 365.96 134.701 366.75 133.521C367.67 132.161 367.16 130.671 366.47 129.341C365.49 127.431 364.57 125.501 363.74 123.521C363.56 123.081 362.83 123.271 363.02 123.721C363.76 125.511 364.57 127.281 365.45 129.011C365.89 129.871 366.51 130.801 366.51 131.801C366.51 132.631 366.05 133.441 365.32 133.851C364.55 134.281 363.54 134.221 362.82 133.721C362.1 133.221 361.71 132.401 361.34 131.651C360.48 129.901 359.85 128.061 359.43 126.161C359.32 125.691 358.6 125.891 358.71 126.361L358.72 126.351Z" fill="#ED796A"/>
<path d="M366.669 130.88C367.529 131.76 368.699 131.16 369.569 130.62C370.489 130.05 371.289 129.3 371.319 128.14C371.349 126.91 370.649 125.66 370.129 124.58C369.529 123.31 368.839 122.09 368.079 120.91C367.819 120.51 367.169 120.88 367.429 121.29C368.559 123.05 369.639 124.95 370.329 126.93C370.679 127.95 370.639 128.87 369.759 129.58C369.189 130.04 367.879 131.05 367.189 130.35C366.849 130.01 366.319 130.54 366.659 130.88H366.669Z" fill="#ED796A"/>
<path d="M379.589 127.021C377.579 124.611 374.179 122.971 371.099 123.591C368.029 124.221 365.799 126.221 363.149 127.881C362.879 128.051 361.949 128.911 361.779 129.181C361.259 130.011 362.099 131.051 362.949 131.531C365.599 133.011 369.199 132.551 371.389 130.441C371.729 134.161 372.419 137.181 378.599 137.711" fill="#F4B298"/>
<path d="M379.86 126.751C378.31 124.951 376.17 123.601 373.81 123.201C371.45 122.801 369 123.681 366.91 124.951C365.73 125.661 364.63 126.481 363.47 127.241C362.77 127.691 362 128.221 361.52 128.921C360.22 130.831 363.33 132.311 364.74 132.611C367.2 133.141 369.82 132.431 371.66 130.721L371.02 130.451C371.19 132.231 371.42 134.131 372.56 135.571C374 137.391 376.41 137.891 378.6 138.091C379.08 138.131 379.08 137.381 378.6 137.341C376.6 137.151 374.3 136.691 373.03 134.961C372.09 133.671 371.91 131.991 371.76 130.441C371.73 130.121 371.37 129.941 371.12 130.171C369.28 131.871 366.58 132.461 364.2 131.671C363.01 131.281 361.23 130.181 362.53 128.901C363.35 128.091 364.37 127.521 365.32 126.871C367.49 125.391 369.9 123.751 372.65 123.821C375.24 123.891 377.66 125.341 379.31 127.271C379.63 127.641 380.15 127.101 379.84 126.741L379.86 126.751Z" fill="#ED796A"/>
<path d="M388.56 138.251L373.47 146.231L391.57 189.701C393.03 192.881 395.51 195.481 398.62 197.091C406.16 200.991 415.42 198.181 419.53 190.761L424.24 179.281L411 172.341L388.55 138.251H388.56Z" fill="#F4B298"/>
<path d="M389.469 140.761C396.299 151.361 403.439 161.761 410.119 172.461C410.649 173.301 411.169 174.151 411.669 175.011C411.809 175.251 411.919 175.561 412.089 175.771C412.129 175.821 412.149 175.981 412.199 176.001C412.509 176.171 411.359 176.011 412.479 175.731C412.009 175.851 412.209 176.571 412.679 176.451C413.549 176.231 412.179 174.371 411.999 174.071C410.759 171.991 409.449 169.951 408.129 167.921C404.199 161.821 400.199 155.781 396.219 149.721C394.179 146.611 392.139 143.501 390.119 140.371C389.859 139.971 389.209 140.341 389.469 140.751V140.761Z" fill="#ED796A"/>
<path d="M417.989 426.29C417.989 426.29 419.349 409.77 438.299 407.45L437.439 393.79L480.289 393.49L482.439 426.51L417.989 426.29Z" fill="#798EC1"/>
<path d="M428.339 408.401C431.459 409.791 434.459 411.421 437.319 413.291C437.729 413.551 438.099 412.911 437.699 412.641C434.839 410.771 431.839 409.131 428.719 407.751C428.279 407.561 427.899 408.201 428.339 408.401Z" fill="#2C2C2C"/>
<path d="M432.559 407.1C435.229 408.77 437.909 410.44 440.579 412.11C440.989 412.37 441.369 411.72 440.959 411.46C438.289 409.79 435.609 408.12 432.939 406.45C432.529 406.19 432.149 406.84 432.559 407.1Z" fill="#2C2C2C"/>
<path d="M434.939 403.141C440.179 403.151 445.419 403.171 450.649 403.181C458.959 403.201 467.259 403.231 475.569 403.251C477.489 403.251 479.419 403.261 481.339 403.271C481.819 403.271 481.819 402.521 481.339 402.521C476.099 402.511 470.859 402.491 465.629 402.481C457.319 402.461 449.019 402.431 440.709 402.411C438.789 402.411 436.859 402.401 434.939 402.391C434.459 402.391 434.459 403.141 434.939 403.141Z" fill="#2C2C2C"/>
<path d="M500.87 187.97L497.38 158.88L501.18 163.99L527.28 145.78C527.28 145.78 518.16 131.36 513.86 125.27C505.15 112.92 495.8 113.83 495.8 113.83L472.25 112.2L469.14 104.76C469.14 104.76 448.19 109.84 448.52 109.72L448.42 113.82C448.42 113.82 443.09 114.43 438.19 115.39C436.54 115.64 434.75 116.05 432.91 116.69C432.48 116.83 432.09 116.98 431.75 117.12C428.2 118.55 424.61 120.88 421.85 124.71C418.39 129.51 403.81 161.42 403.81 161.42L430.78 166.9L430.05 198.6C428.81 199.24 427.01 200.76 426.87 204.18C426.66 209.43 429.77 210.52 429.77 210.52C485.19 214.94 504.01 195.75 503.97 193.53C503.89 189.15 500.85 187.98 500.85 187.98L500.87 187.97Z" fill="#F7F7F7"/>
<path d="M431.6 198.15C431.44 191.66 431.28 185.18 431.12 178.69C430.86 168.35 430.6 158.02 430.35 147.68C430.29 145.31 430.23 142.94 430.17 140.57C430.16 140.09 429.41 140.09 429.42 140.57C429.58 147.06 429.74 153.54 429.9 160.03C430.16 170.37 430.42 180.7 430.67 191.04C430.73 193.41 430.79 195.78 430.85 198.15C430.86 198.63 431.61 198.63 431.6 198.15Z" fill="#26244A"/>
<path d="M456.45 109.56C453.59 132.71 452.63 156.08 453.64 179.38C453.92 185.94 454.36 192.5 454.95 199.04C454.99 199.52 455.74 199.52 455.7 199.04C453.62 175.81 453.45 152.42 455.23 129.16C455.73 122.61 456.39 116.07 457.2 109.55C457.26 109.07 456.51 109.08 456.45 109.55V109.56Z" fill="#26244A"/>
<path d="M450.55 200.589C448.43 204.139 449.59 209.109 453.03 211.389C453.43 211.659 453.81 211.009 453.41 210.739C450.3 208.679 449.29 204.159 451.2 200.969C451.45 200.549 450.8 200.179 450.55 200.589Z" fill="#26244A"/>
<path d="M495.49 138.32C494.89 134.5 495.05 130.58 495.98 126.82C496.44 124.94 497.09 123.11 497.93 121.37C498.7 119.77 499.62 117.89 501.47 117.4C501.94 117.28 501.74 116.55 501.27 116.68C499.58 117.13 498.56 118.54 497.77 120.01C496.78 121.88 496 123.87 495.44 125.91C494.31 130.02 494.1 134.32 494.76 138.52C494.83 139 495.56 138.79 495.48 138.32H495.49Z" fill="#26244A"/>
<path d="M429.76 130.01V119.41C429.76 118.93 429.01 118.93 429.01 119.41V130.01C429.01 130.49 429.76 130.49 429.76 130.01Z" fill="#26244A"/>
<path d="M435.14 200.93C442 201.67 449.14 200.83 455.95 200.01C464.09 199.04 472.26 197.7 480.19 195.57C483.41 194.71 486.69 193.74 489.65 192.18C490.08 191.96 489.7 191.31 489.27 191.53C486.65 192.91 483.76 193.8 480.91 194.59C477.24 195.61 473.52 196.42 469.78 197.13C461.7 198.66 453.51 199.75 445.3 200.21C441.93 200.4 438.5 200.53 435.13 200.16C434.65 200.11 434.65 200.86 435.13 200.91L435.14 200.93Z" fill="#26244A"/>
<path d="M448.029 113.67C447.919 115.66 448.229 117.57 448.979 119.41C449.109 119.72 449.459 119.77 449.669 119.5C452.259 116.09 454.859 112.68 457.449 109.27H456.799C458.969 113.11 461.659 116.62 464.789 119.73C464.929 119.87 465.169 119.87 465.319 119.73C467.829 117.27 470.149 114.65 472.299 111.87C472.589 111.49 471.939 111.11 471.649 111.49C469.539 114.22 467.249 116.79 464.789 119.2H465.319C462.229 116.13 459.589 112.68 457.439 108.89C457.289 108.62 456.949 108.68 456.789 108.89C454.199 112.3 451.599 115.71 449.009 119.12L449.699 119.21C448.979 117.43 448.669 115.59 448.779 113.67C448.809 113.19 448.059 113.19 448.029 113.67Z" fill="#26244A"/>
<path d="M496.469 151.12C497.809 163.18 499.149 175.25 500.479 187.31C500.529 187.78 501.279 187.79 501.229 187.31C499.889 175.25 498.549 163.18 497.219 151.12C497.169 150.65 496.419 150.64 496.469 151.12Z" fill="#26244A"/>
<path d="M500.66 401.74C515.02 400.69 529.28 398.53 543.3 395.26C543.77 395.15 543.57 394.43 543.1 394.54C529.14 397.79 514.95 399.95 500.66 400.99C500.18 401.02 500.18 401.78 500.66 401.74Z" fill="#2C2C2C"/>
<path d="M145.429 262.99H181.049C182.429 262.99 183.539 261.87 183.539 260.5C183.539 259.12 182.419 258.01 181.049 258.01H145.429C144.049 258.01 142.939 259.13 142.939 260.5C142.939 261.88 144.059 262.99 145.429 262.99Z" fill="#798EC1"/>
<path d="M175.489 262.99H212.979C214.499 262.99 215.869 262.1 216.489 260.71L231.659 226.7C232.789 224.16 230.929 221.29 228.149 221.29H190.659C189.139 221.29 187.769 222.18 187.149 223.57L171.979 257.58C170.849 260.12 172.709 262.99 175.489 262.99Z" fill="#798EC1"/>
<path d="M186.16 224.46C183.05 231.94 179.62 239.28 176.44 246.73C174.5 251.27 172.26 255.661 170.25 260.171C170.06 260.611 170.7 260.99 170.9 260.55C172.97 255.89 175.27 251.35 177.28 246.66C180.43 239.3 183.81 232.04 186.89 224.65C187.08 224.2 186.35 224.01 186.17 224.45L186.16 224.46Z" fill="#26244A"/>
<path d="M203.02 237.66C205.16 237.42 207.12 238.85 207.38 241.1C207.43 241.57 207.42 242.05 207.33 242.53C206.89 244.8 204.64 246.65 202.54 246.43C200.44 246.21 198.88 243.92 199.33 241.66C199.66 240.02 200.82 237.91 203.02 237.66Z" fill="#F7F7F7"/>
</g>
<defs>
<clipPath id="clip0_850_561">
<rect width="628.68" height="428.19" fill="white"/>
</clipPath>
</defs>
</svg>
