<svg width="845" height="470" viewBox="0 0 845 470" fill="none" xmlns="http://www.w3.org/2000/svg">
<g clip-path="url(#clip0_802_2017)">
<path d="M333.843 451.395L358.142 415.283L468.762 414.929L497.515 451.395H333.843Z" fill="#EBEBEB"/>
<path d="M290.848 440.253L315.147 404.142L442.505 403.726L454.52 440.253H290.848Z" fill="#FAFAFA"/>
<path d="M290.848 440.253V444.627L454.52 444.04V440.253H290.848Z" fill="#E0E0E0"/>
<path d="M437.036 428.086C437.036 428.258 409.359 428.405 375.235 428.405C341.111 428.405 313.422 428.258 313.422 428.086C313.422 427.915 341.086 427.768 375.235 427.768C409.384 427.768 437.036 427.915 437.036 428.086Z" fill="#E0E0E0"/>
<path d="M483.322 418.349L517.361 469.096L645.16 470L644.695 464.906L602.642 415.662L527.149 405.021L483.322 418.349Z" fill="#E0E0E0"/>
<path d="M483.555 413.157L519.784 464.906H644.695L599.607 411.472L524.115 400.831L483.555 413.157Z" fill="#FAFAFA"/>
<path d="M624.445 453.973C624.445 454.144 601.798 454.291 573.876 454.291C545.955 454.291 523.308 454.144 523.308 453.973C523.308 453.801 545.943 453.655 573.876 453.655C601.81 453.655 624.445 453.801 624.445 453.973Z" fill="#E0E0E0"/>
<path d="M620.347 448.683C620.347 448.855 597.699 449.001 569.778 449.001C541.857 449.001 519.209 448.855 519.209 448.683C519.209 448.512 541.844 448.365 569.778 448.365C597.711 448.365 620.347 448.512 620.347 448.683Z" fill="#E0E0E0"/>
<path d="M616.26 443.393C616.26 443.565 593.612 443.712 565.691 443.712C537.77 443.712 515.122 443.565 515.122 443.393C515.122 443.222 537.758 443.075 565.691 443.075C593.624 443.075 616.26 443.222 616.26 443.393Z" fill="#E0E0E0"/>
<path d="M612.051 438.092C612.051 438.263 589.403 438.41 561.482 438.41C533.561 438.41 510.913 438.263 510.913 438.092C510.913 437.92 533.549 437.773 561.482 437.773C589.415 437.773 612.051 437.92 612.051 438.092Z" fill="#E0E0E0"/>
<path d="M606.545 432.802C606.545 432.973 583.897 433.12 555.976 433.12C528.055 433.12 505.407 432.973 505.407 432.802C505.407 432.631 528.043 432.484 555.976 432.484C583.909 432.484 606.545 432.631 606.545 432.802Z" fill="#E0E0E0"/>
<path d="M601.039 427.512C601.039 427.684 578.391 427.831 550.47 427.831C522.549 427.831 499.901 427.684 499.901 427.512C499.901 427.341 522.537 427.194 550.47 427.194C578.404 427.194 601.039 427.341 601.039 427.512Z" fill="#E0E0E0"/>
<path d="M845 356.181C845 356.352 659.451 356.499 430.624 356.499C201.798 356.499 16.2119 356.352 16.2119 356.181C16.2119 356.009 201.713 355.863 430.624 355.863C659.536 355.863 845 356.009 845 356.181Z" fill="#263238"/>
<path d="M684.007 318.016H629.804C621.484 318.016 614.742 311.285 614.742 302.978C614.742 294.671 621.484 287.952 629.804 287.952H684.007V318.016Z" fill="#455A64"/>
<path d="M789.513 292.936H669.019V287.939H789.513C790.895 287.939 792.009 289.051 792.009 290.432C792.009 291.812 790.895 292.924 789.513 292.924V292.936Z" fill="#455A64"/>
<path d="M789.513 318.016H669.019V313.02H789.513C790.895 313.02 792.009 314.131 792.009 315.512C792.009 316.892 790.895 318.004 789.513 318.004V318.016Z" fill="#455A64"/>
<path d="M788.338 313.02H682.734C677.179 313.02 672.677 308.524 672.677 302.978C672.677 297.432 677.179 292.936 682.734 292.936H788.338C785.511 299.631 785.511 306.325 788.338 313.02Z" fill="#F5F5F5"/>
<g opacity="0.3">
<path d="M672.676 318.016H629.852C621.508 318.016 614.754 311.26 614.754 302.941C614.754 294.658 621.471 287.952 629.767 287.952H673.826C662.925 294.548 663.744 310.332 672.676 318.016Z" fill="black"/>
</g>
<path d="M775.503 303.907C775.503 304.004 753.822 304.09 727.1 304.09C700.378 304.09 678.685 304.004 678.685 303.907C678.685 303.809 700.353 303.723 727.1 303.723C753.847 303.723 775.503 303.809 775.503 303.907Z" fill="#263238"/>
<path d="M785.475 308.378C785.475 308.476 763.794 308.561 737.072 308.561C710.35 308.561 688.656 308.476 688.656 308.378C688.656 308.28 710.325 308.194 737.072 308.194C763.818 308.194 785.475 308.28 785.475 308.378Z" fill="#263238"/>
<path d="M782.538 297.579C782.538 297.677 760.857 297.762 734.135 297.762C707.413 297.762 685.72 297.677 685.72 297.579C685.72 297.481 707.389 297.395 734.135 297.395C760.882 297.395 782.538 297.481 782.538 297.579Z" fill="#263238"/>
<path d="M667.378 315.903C667.378 316.001 657.235 316.087 644.719 316.087C632.202 316.087 622.059 316.001 622.059 315.903C622.059 315.805 632.202 315.719 644.719 315.719C657.235 315.719 667.378 315.805 667.378 315.903Z" fill="#263238"/>
<path d="M667.378 290.444C667.378 290.542 657.235 290.628 644.719 290.628C632.202 290.628 622.059 290.542 622.059 290.444C622.059 290.346 632.202 290.26 644.719 290.26C657.235 290.26 667.378 290.346 667.378 290.444Z" fill="#263238"/>
<path d="M680.765 356.18H613.543C602.838 356.18 594.15 347.519 594.15 336.817C594.15 326.128 602.825 317.454 613.543 317.454H680.765C682.196 317.454 683.346 318.602 683.346 320.032V353.602C683.346 355.019 682.196 356.18 680.765 356.18Z" fill="#FF725E"/>
<path d="M819.208 323.892H664.026V317.466H819.208C820.982 317.466 822.426 318.908 822.426 320.679C822.426 322.451 820.982 323.892 819.208 323.892Z" fill="#FF725E"/>
<path d="M819.208 356.18H664.026V349.754H819.208C820.982 349.754 822.426 351.196 822.426 352.967C822.426 354.738 820.982 356.18 819.208 356.18Z" fill="#FF725E"/>
<path d="M817.704 349.754H681.707C674.55 349.754 668.75 343.964 668.75 336.817C668.75 329.67 674.55 323.88 681.707 323.88H817.704C814.057 332.505 814.057 341.117 817.704 349.742V349.754Z" fill="#F5F5F5"/>
<g opacity="0.4">
<path d="M668.75 356.18H613.335C602.74 356.18 594.15 347.604 594.15 337.025C594.15 326.213 602.923 317.454 613.751 317.454H670.23C656.184 325.944 657.236 346.285 668.75 356.168V356.18Z" fill="black"/>
</g>
<path d="M801.173 338.027C801.173 338.125 773.264 338.21 738.834 338.21C704.404 338.21 676.482 338.125 676.482 338.027C676.482 337.929 704.391 337.843 738.834 337.843C773.276 337.843 801.173 337.929 801.173 338.027Z" fill="#263238"/>
<path d="M814.008 343.769C814.008 343.866 786.099 343.952 751.669 343.952C717.239 343.952 689.317 343.866 689.317 343.769C689.317 343.671 717.226 343.585 751.669 343.585C786.112 343.585 814.008 343.671 814.008 343.769Z" fill="#263238"/>
<path d="M810.227 332.688C810.227 332.786 782.306 332.872 747.888 332.872C713.47 332.872 685.536 332.786 685.536 332.688C685.536 332.59 713.445 332.505 747.888 332.505C782.33 332.505 810.227 332.59 810.227 332.688Z" fill="#263238"/>
<path d="M661.922 353.468C661.922 353.566 648.855 353.652 632.741 353.652C616.627 353.652 603.56 353.566 603.56 353.468C603.56 353.37 616.627 353.285 632.741 353.285C648.855 353.285 661.922 353.37 661.922 353.468Z" fill="#263238"/>
<path d="M661.922 320.68C661.922 320.778 648.855 320.863 632.741 320.863C616.627 320.863 603.56 320.778 603.56 320.68C603.56 320.582 616.627 320.496 632.741 320.496C648.855 320.496 661.922 320.582 661.922 320.68Z" fill="#263238"/>
<path d="M717.446 297.713V309.758L721.631 307.07L726.292 309.758V297.713H717.446Z" fill="#FF725E"/>
<path d="M630.709 286.547L630.379 254.149H646.199L646.75 286.547H630.709Z" fill="#F5F5F5"/>
<path d="M645.269 259.916C645.269 260.075 641.978 260.197 637.916 260.197C633.854 260.197 630.562 260.075 630.562 259.916C630.562 259.756 633.854 259.634 637.916 259.634C641.978 259.634 645.269 259.756 645.269 259.916Z" fill="#E0E0E0"/>
<path d="M645.269 264.912C645.269 265.071 641.978 265.194 637.916 265.194C633.854 265.194 630.562 265.071 630.562 264.912C630.562 264.753 633.854 264.631 637.916 264.631C641.978 264.631 645.269 264.753 645.269 264.912Z" fill="#E0E0E0"/>
<path d="M645.269 269.921C645.269 270.08 641.978 270.202 637.916 270.202C633.854 270.202 630.562 270.08 630.562 269.921C630.562 269.762 633.854 269.639 637.916 269.639C641.978 269.639 645.269 269.762 645.269 269.921Z" fill="#E0E0E0"/>
<path d="M645.269 274.917C645.269 275.076 641.978 275.199 637.916 275.199C633.854 275.199 630.562 275.076 630.562 274.917C630.562 274.758 633.854 274.636 637.916 274.636C641.978 274.636 645.269 274.758 645.269 274.917Z" fill="#E0E0E0"/>
<path d="M645.269 279.914C645.269 280.073 641.978 280.195 637.916 280.195C633.854 280.195 630.562 280.073 630.562 279.914C630.562 279.755 633.854 279.632 637.916 279.632C641.978 279.632 645.269 279.755 645.269 279.914Z" fill="#E0E0E0"/>
<path d="M629.009 253.074H804.378C806.544 263.8 806.238 275.613 804.378 288.098H629.755V285.716H640.424C643.202 285.716 645.465 283.2 645.465 280.097V260.721C645.465 257.618 643.214 255.102 640.424 255.102H629.009V253.074Z" fill="#FF725E"/>
<path d="M798.322 288.77C798.187 288.77 798.077 280.732 798.077 270.8C798.077 260.868 798.187 252.83 798.322 252.83C798.457 252.83 798.567 260.868 798.567 270.8C798.567 280.732 798.457 288.77 798.322 288.77Z" fill="#263238"/>
<path d="M654.813 288.77C654.679 288.77 654.568 280.732 654.568 270.8C654.568 260.868 654.679 252.83 654.813 252.83C654.948 252.83 655.058 260.868 655.058 270.8C655.058 280.732 654.948 288.77 654.813 288.77Z" fill="#263238"/>
<path d="M801.393 288.77C801.259 288.77 801.148 280.732 801.148 270.8C801.148 260.868 801.259 252.83 801.393 252.83C801.528 252.83 801.638 260.868 801.638 270.8C801.638 280.732 801.528 288.77 801.393 288.77Z" fill="#263238"/>
<path d="M651.938 288.77C651.804 288.77 651.693 280.732 651.693 270.8C651.693 260.868 651.804 252.83 651.938 252.83C652.073 252.83 652.183 260.868 652.183 270.8C652.183 280.732 652.073 288.77 651.938 288.77Z" fill="#263238"/>
<path d="M778.121 265.193H683.395C682.077 265.193 681.009 266.259 681.009 267.575V272.254C681.009 273.569 682.077 274.636 683.395 274.636H778.121C779.439 274.636 780.507 273.569 780.507 272.254V267.575C780.507 266.259 779.439 265.193 778.121 265.193Z" fill="white"/>
<path d="M784.911 223.596V250.667H737.915V223.596H784.911Z" fill="#EBEBEB"/>
<path d="M633.132 237.388C633.132 237.633 633.144 237.865 633.156 238.109C633.535 246.294 639.775 252.634 647.141 252.634H787.102V250.68H753.87C747.165 250.68 741.733 244.62 741.733 237.144C741.733 229.667 747.165 223.608 753.87 223.608H787.102V220.737L647.092 221.263C639.188 221.287 632.838 228.592 633.119 237.4L633.132 237.388Z" fill="#455A64"/>
<path d="M784.912 237.499C784.912 237.658 775.246 237.78 763.328 237.78C751.411 237.78 741.745 237.658 741.745 237.499C741.745 237.339 751.411 237.217 763.328 237.217C775.246 237.217 784.912 237.339 784.912 237.499Z" fill="#E0E0E0"/>
<path d="M784.226 243.595C784.226 243.754 775.087 243.876 763.806 243.876C752.525 243.876 743.385 243.754 743.385 243.595C743.385 243.436 752.525 243.313 763.806 243.313C775.087 243.313 784.226 243.436 784.226 243.595Z" fill="#E0E0E0"/>
<path d="M784.912 249.178C784.912 249.337 776.69 249.459 766.559 249.459C756.428 249.459 748.193 249.337 748.193 249.178C748.193 249.018 756.416 248.896 766.559 248.896C776.702 248.896 784.912 249.018 784.912 249.178Z" fill="#E0E0E0"/>
<path d="M784.911 232.013C784.911 232.173 775.441 232.295 763.769 232.295C752.096 232.295 742.626 232.173 742.626 232.013C742.626 231.854 752.084 231.732 763.769 231.732C775.453 231.732 784.911 231.854 784.911 232.013Z" fill="#E0E0E0"/>
<path d="M784.226 226.541C784.226 226.7 775.796 226.822 765.408 226.822C755.02 226.822 746.59 226.7 746.59 226.541C746.59 226.381 755.008 226.259 765.408 226.259C775.808 226.259 784.226 226.381 784.226 226.541Z" fill="#E0E0E0"/>
<path d="M725.778 234.762H648.585C647.903 234.762 647.35 235.314 647.35 235.996V238.451C647.35 239.133 647.903 239.685 648.585 239.685H725.778C726.461 239.685 727.014 239.133 727.014 238.451V235.996C727.014 235.314 726.461 234.762 725.778 234.762Z" fill="white"/>
<path d="M677.155 253.074C677.816 253.379 766.228 263.629 766.228 263.629L783.847 252.622L677.143 253.074H677.155Z" fill="white"/>
<path d="M677.155 253.074C678.856 253.062 689.317 252.976 708.147 252.818C727.503 252.683 754.238 252.5 783.847 252.304H784.973L784.019 252.891C783.517 253.208 782.966 253.551 782.416 253.893C776.922 257.313 771.551 260.673 766.4 263.898L766.302 263.959H766.192C740.877 260.941 718.621 258.303 702.653 256.409C694.713 255.42 688.338 254.626 683.921 254.076C681.755 253.783 680.067 253.551 678.892 253.392C678.329 253.318 677.865 253.233 677.571 253.16C677.375 253.123 677.265 253.099 677.155 253.086C680.25 253.441 715.917 257.545 766.265 263.336L766.057 263.385C771.208 260.16 776.592 256.8 782.073 253.379C782.624 253.037 783.174 252.695 783.676 252.378L783.847 252.964C754.372 253.013 727.773 253.05 708.514 253.086C689.464 253.086 678.868 253.086 677.143 253.086L677.155 253.074Z" fill="#263238"/>
<path d="M697.576 317.467L737.06 337.843L772.322 316.844L697.576 317.467Z" fill="white"/>
<path d="M697.576 317.467C699.191 317.442 706.165 317.344 719.098 317.173C732.533 316.978 751.338 316.709 772.322 316.538H773.497L772.493 317.124C771.025 317.992 769.459 318.933 767.881 319.873C756.808 326.458 746.346 332.676 737.219 338.088L737.084 338.173L736.95 338.1C725.216 331.955 715.354 326.788 708.368 323.135C701.883 319.727 698.628 318.016 697.601 317.479C699.779 318.59 714.057 325.835 737.207 337.611H736.925C746.04 332.175 756.49 325.945 767.55 319.348C769.129 318.407 770.695 317.479 772.163 316.599L772.334 317.186C751.534 317.357 732.961 317.393 719.478 317.43C706.337 317.467 699.24 317.491 697.601 317.491L697.576 317.467Z" fill="#263238"/>
<path d="M89.8563 310.711H35.6536C27.3335 310.711 20.5918 303.979 20.5918 295.672C20.5918 287.365 27.3335 280.646 35.6536 280.646H89.8563V310.711Z" fill="#455A64"/>
<path d="M195.35 285.643H74.8555V280.646H195.35C196.732 280.646 197.846 281.758 197.846 283.138C197.846 284.519 196.732 285.631 195.35 285.631V285.643Z" fill="#455A64"/>
<path d="M195.35 310.711H74.8555V305.714H195.35C196.732 305.714 197.846 306.826 197.846 308.206C197.846 309.587 196.732 310.698 195.35 310.698V310.711Z" fill="#455A64"/>
<path d="M194.187 305.714H88.5839C83.029 305.714 78.5264 301.219 78.5264 295.672C78.5264 290.126 83.029 285.631 88.5839 285.631H194.187C191.361 292.325 191.361 299.02 194.187 305.714Z" fill="#F5F5F5"/>
<g opacity="0.3">
<path d="M78.5258 310.711H35.702C27.3574 310.711 20.6035 303.955 20.6035 295.636C20.6035 287.353 27.3207 280.646 35.6163 280.646H79.6759C68.7742 287.243 69.594 303.027 78.5258 310.711Z" fill="black"/>
</g>
<path d="M181.353 296.613C181.353 296.711 159.672 296.797 132.95 296.797C106.228 296.797 84.5342 296.711 84.5342 296.613C84.5342 296.515 106.203 296.43 132.95 296.43C159.696 296.43 181.353 296.515 181.353 296.613Z" fill="#263238"/>
<path d="M191.324 301.072C191.324 301.17 169.643 301.256 142.921 301.256C116.199 301.256 94.5059 301.17 94.5059 301.072C94.5059 300.974 116.175 300.889 142.921 300.889C169.668 300.889 191.324 300.974 191.324 301.072Z" fill="#263238"/>
<path d="M188.375 290.285C188.375 290.383 166.694 290.469 139.972 290.469C113.25 290.469 91.5566 290.383 91.5566 290.285C91.5566 290.187 113.226 290.102 139.972 290.102C166.719 290.102 188.375 290.187 188.375 290.285Z" fill="#263238"/>
<path d="M73.2281 308.598C73.2281 308.696 63.0849 308.781 50.5681 308.781C38.0513 308.781 27.9082 308.696 27.9082 308.598C27.9082 308.5 38.0513 308.414 50.5681 308.414C63.0849 308.414 73.2281 308.5 73.2281 308.598Z" fill="#263238"/>
<path d="M73.2281 283.139C73.2281 283.237 63.0849 283.322 50.5681 283.322C38.0513 283.322 27.9082 283.237 27.9082 283.139C27.9082 283.041 38.0513 282.955 50.5681 282.955C63.0849 282.955 73.2281 283.041 73.2281 283.139Z" fill="#263238"/>
<path d="M86.6143 348.875H19.3931C8.68712 348.875 0 340.213 0 329.512C0 318.822 8.68712 310.149 19.3931 310.149H86.6143C88.0336 310.149 89.1959 311.297 89.1959 312.726V346.285C89.1959 347.702 88.0458 348.862 86.6143 348.862V348.875Z" fill="#FF725E"/>
<path d="M225.057 316.587H69.876V310.161H225.057C226.831 310.161 228.275 311.602 228.275 313.374C228.275 315.145 226.831 316.587 225.057 316.587Z" fill="#FF725E"/>
<path d="M225.057 348.875H69.876V342.449H225.057C226.831 342.449 228.275 343.89 228.275 345.662C228.275 347.433 226.831 348.875 225.057 348.875Z" fill="#FF725E"/>
<path d="M223.553 342.449H87.5569C80.3992 342.449 74.5996 336.658 74.5996 329.512C74.5996 322.365 80.3992 316.574 87.5569 316.574H223.553C219.907 325.199 219.907 333.812 223.553 342.436V342.449Z" fill="#F5F5F5"/>
<g opacity="0.4">
<path d="M74.5991 348.875H19.1851C8.58924 348.875 0 340.299 0 329.719C0 318.908 8.77277 310.149 19.6011 310.149H76.0796C62.0334 318.639 63.0856 338.979 74.5991 348.862V348.875Z" fill="black"/>
</g>
<path d="M207.023 330.721C207.023 330.819 179.114 330.905 144.684 330.905C110.253 330.905 82.332 330.819 82.332 330.721C82.332 330.624 110.241 330.538 144.684 330.538C179.126 330.538 207.023 330.624 207.023 330.721Z" fill="#263238"/>
<path d="M219.858 336.475C219.858 336.573 191.949 336.659 157.519 336.659C123.088 336.659 95.167 336.573 95.167 336.475C95.167 336.377 123.076 336.292 157.519 336.292C191.961 336.292 219.858 336.377 219.858 336.475Z" fill="#263238"/>
<path d="M216.077 325.383C216.077 325.481 188.155 325.566 153.737 325.566C119.319 325.566 91.3857 325.481 91.3857 325.383C91.3857 325.285 119.295 325.199 153.737 325.199C188.18 325.199 216.077 325.285 216.077 325.383Z" fill="#263238"/>
<path d="M67.7719 346.163C67.7719 346.261 54.7046 346.346 38.5906 346.346C22.4766 346.346 9.40918 346.261 9.40918 346.163C9.40918 346.065 22.4766 345.979 38.5906 345.979C54.7046 345.979 67.7719 346.065 67.7719 346.163Z" fill="#263238"/>
<path d="M67.7719 313.374C67.7719 313.472 54.7046 313.558 38.5906 313.558C22.4766 313.558 9.40918 313.472 9.40918 313.374C9.40918 313.276 22.4766 313.19 38.5906 313.19C54.7046 313.19 67.7719 313.276 67.7719 313.374Z" fill="#263238"/>
<path d="M123.296 290.407V302.453L127.48 299.777L132.142 302.453V290.407H123.296Z" fill="#FF725E"/>
<path d="M89.2081 284.275H28.3371C18.6344 284.275 10.7793 276.09 10.7793 265.987C10.7793 255.884 18.6466 247.699 28.3371 247.699H89.2081C90.5051 247.699 91.5451 248.786 91.5451 250.13V281.831C91.5451 283.175 90.4928 284.262 89.2081 284.262V284.275Z" fill="#FF725E"/>
<path d="M214.584 253.77H74.0488V247.699H214.572C216.187 247.699 217.484 249.055 217.484 250.728C217.484 252.402 216.175 253.758 214.572 253.758L214.584 253.77Z" fill="#FF725E"/>
<path d="M214.584 284.274H74.0488V278.203H214.572C216.187 278.203 217.484 279.559 217.484 281.233C217.484 282.906 216.175 284.262 214.572 284.262L214.584 284.274Z" fill="#FF725E"/>
<path d="M213.213 278.203H90.0521C83.5796 278.203 78.3184 272.73 78.3184 265.987C78.3184 259.243 83.5673 253.77 90.0521 253.77H213.213C209.91 261.919 209.91 270.055 213.213 278.203Z" fill="#F5F5F5"/>
<g opacity="0.4">
<path d="M78.3308 284.275H28.1535C18.561 284.275 10.7793 276.175 10.7793 266.182C10.7793 255.981 18.7201 247.699 28.5206 247.699H79.6645C66.9519 255.725 67.8941 274.929 78.3308 284.262V284.275Z" fill="black"/>
</g>
<path d="M198.25 267.123C198.25 267.221 172.972 267.294 141.796 267.294C110.62 267.294 85.3418 267.221 85.3418 267.123C85.3418 267.025 110.62 266.952 141.796 266.952C172.972 266.952 198.25 267.025 198.25 267.123Z" fill="#263238"/>
<path d="M209.873 272.547C209.873 272.645 184.595 272.718 153.419 272.718C122.243 272.718 96.9648 272.645 96.9648 272.547C96.9648 272.449 122.243 272.376 153.419 272.376C184.595 272.376 209.873 272.449 209.873 272.547Z" fill="#263238"/>
<path d="M206.447 262.078C206.447 262.176 181.169 262.249 149.993 262.249C118.817 262.249 93.5391 262.176 93.5391 262.078C93.5391 261.98 118.817 261.906 149.993 261.906C181.169 261.906 206.447 261.98 206.447 262.078Z" fill="#263238"/>
<path d="M72.1518 281.709C72.1518 281.807 60.3202 281.881 45.7233 281.881C31.1265 281.881 19.2949 281.807 19.2949 281.709C19.2949 281.612 31.1265 281.538 45.7233 281.538C60.3202 281.538 72.1518 281.612 72.1518 281.709Z" fill="#263238"/>
<path d="M72.1518 250.741C72.1518 250.839 60.3202 250.912 45.7233 250.912C31.1265 250.912 19.2949 250.839 19.2949 250.741C19.2949 250.643 31.1265 250.57 45.7233 250.57C60.3202 250.57 72.1518 250.643 72.1518 250.741Z" fill="#263238"/>
<path d="M228.275 239.147H10.7793V247.711H228.275V239.147Z" fill="white"/>
<path d="M228.3 247.736H10.7422V239.111H228.3V247.736ZM10.8034 247.675H228.238V239.172H10.8034V247.675Z" fill="#263238"/>
<path d="M106.338 239.16C107.769 240.015 156.026 262.847 156.026 262.847L204.16 238.292L106.338 239.16Z" fill="#E0E0E0"/>
<path d="M106.338 239.16C107.99 239.135 117.435 239.013 134.602 238.781C152.306 238.573 176.814 238.292 204.16 237.975H205.518L204.307 238.573C202.716 239.392 201.003 240.259 199.29 241.139C183.617 249.116 168.861 256.629 156.16 263.104L156.038 263.165L155.916 263.104C141.111 256.03 128.704 250.093 119.968 245.915C115.649 243.814 112.248 242.153 109.886 241.004C108.748 240.43 107.867 239.99 107.243 239.673C106.937 239.514 106.705 239.367 106.558 239.294C106.472 239.245 106.411 239.208 106.35 239.172C108.528 240.198 126.759 248.774 156.16 262.603H155.916C168.604 256.116 183.347 248.578 199.009 240.577C200.734 239.697 202.435 238.83 204.025 238.011L204.172 238.61C176.973 238.781 152.588 238.927 134.969 239.037C117.582 239.111 108.014 239.16 106.338 239.172V239.16Z" fill="#263238"/>
<path d="M78.3308 239.147H10.7793V247.711H78.3308V239.147Z" fill="#E0E0E0"/>
<path d="M78.3672 247.736H10.7422V239.111H78.3549V247.736H78.3672ZM10.8034 247.675H78.2937V239.172H10.8034V247.675Z" fill="#263238"/>
<path d="M92.3896 406.353L199.364 467.911L228.325 468.106L267.074 416.309C269.778 412.705 267.943 406.353 264.199 406.353H92.3896Z" fill="#E0E0E0"/>
<path d="M17.2032 322.719H187.691C193.956 322.719 199.302 326.47 200.355 331.601L228.349 468.094H42.6405C36.376 468.094 31.0292 464.344 29.9769 459.213L4.53955 335.205C3.2059 328.681 9.25018 322.732 17.2032 322.732V322.719Z" fill="#E0E0E0"/>
<path d="M102.422 400.599C103.988 406.402 109.886 410.054 115.587 408.759C121.289 407.452 124.642 401.698 123.076 395.895C121.509 390.093 115.612 386.44 109.91 387.735C104.209 389.042 100.856 394.796 102.422 400.599Z" fill="white"/>
<path d="M265.227 409.48C265.227 409.48 265.178 409.578 265.067 409.749C264.933 409.944 264.762 410.188 264.541 410.506C264.052 411.19 263.355 412.155 262.474 413.401C260.626 415.942 257.959 419.62 254.618 424.213C247.84 433.461 238.309 446.483 227.199 461.656L226.795 462.206L226.661 461.546C224.703 452.017 222.562 441.597 220.335 430.749C215.061 404.789 210.277 381.285 206.815 364.231C205.114 355.74 203.744 348.862 202.789 344.061C202.337 341.704 201.982 339.859 201.725 338.576C201.615 337.965 201.529 337.501 201.468 337.147C201.407 336.829 201.395 336.658 201.395 336.658C201.395 336.658 201.456 336.817 201.529 337.135C201.603 337.489 201.713 337.953 201.847 338.552C202.129 339.834 202.52 341.667 203.022 344.012C204.025 348.801 205.469 355.667 207.243 364.145C210.755 381.187 215.6 404.667 220.947 430.614C223.161 441.462 225.29 451.883 227.236 461.412L226.697 461.29C237.88 446.166 247.473 433.204 254.3 423.981C257.702 419.424 260.418 415.784 262.29 413.267C263.208 412.045 263.93 411.092 264.443 410.421C264.676 410.115 264.859 409.883 265.006 409.7C265.141 409.541 265.202 409.455 265.214 409.468L265.227 409.48Z" fill="#263238"/>
<path d="M224.311 468.07C224.14 468.106 217.594 437.309 209.702 399.304C201.811 361.287 195.546 330.44 195.717 330.404C195.889 330.367 202.422 361.152 210.326 399.17C218.218 437.175 224.483 468.033 224.311 468.07Z" fill="#263238"/>
<g opacity="0.2">
<path d="M225.327 453.3L256.564 412.424H216.934L225.327 453.3Z" fill="black"/>
</g>
<g clip-path="url(#clip1_802_2017)">
<path d="M393.326 134.205L385.254 138.507L367.395 152.176C367.395 152.176 312.676 159.396 310.578 160.961C308.479 162.525 281.266 175.371 277.583 192.6C273.91 209.828 266.343 322.265 266.343 322.265L276.271 355.489L475.56 355.8L522.297 355.138C522.297 355.138 540.257 313.45 540.257 301.968C540.257 290.486 535.001 204.323 535.001 204.323L478.95 165.042L393.326 134.205Z" fill="#E8505B"/>
<path d="M366.88 151.364C366.88 151.364 366.799 151.534 366.597 151.825C366.365 152.166 366.072 152.587 365.719 153.098C364.932 154.182 363.873 155.806 362.622 157.842C362.016 158.875 361.33 159.988 360.694 161.241C360.018 162.475 359.373 163.829 358.707 165.253C357.415 168.131 356.154 171.37 355.084 174.85C352.976 181.829 351.886 188.358 351.159 193.081C350.826 195.388 350.554 197.293 350.352 198.687C350.261 199.299 350.181 199.8 350.12 200.211C350.059 200.562 350.019 200.743 350.009 200.743C349.989 200.743 349.999 200.552 350.019 200.201C350.049 199.79 350.1 199.279 350.15 198.667C350.271 197.333 350.483 195.408 350.796 193.031C351.432 188.288 352.461 181.719 354.59 174.699C355.67 171.199 356.941 167.94 358.273 165.052C358.959 163.618 359.615 162.264 360.321 161.031C360.977 159.777 361.683 158.664 362.309 157.641C363.6 155.616 364.72 154.021 365.558 152.968C365.941 152.477 366.264 152.076 366.516 151.755C366.738 151.484 366.859 151.344 366.88 151.354V151.364Z" fill="#263238"/>
<g opacity="0.3">
<path d="M368.121 184.417C367.788 183.364 367.364 182.16 366.325 181.749C365.508 181.428 365.841 181.95 365.023 182.281C357.456 185.379 353.803 192.339 350.595 200.171L350.776 199.981C350.302 201.184 350.797 202.909 352.017 203.611C353.723 204.604 355.912 204.062 357.668 203.159C359.424 202.257 361.028 201.003 362.935 200.522C367.082 199.469 371.199 202.287 374.125 205.386C377.051 208.494 379.684 212.185 383.67 213.719C376.738 204.995 371.441 195.007 368.111 184.397L368.121 184.417Z" fill="black"/>
</g>
<path d="M350.01 200.753C350.01 200.753 350.908 198.356 353.208 194.375C354.369 192.389 355.902 190.013 358.011 187.505C359.091 186.272 360.312 184.998 361.785 183.845C363.268 182.722 365.024 181.689 367.112 181.308L367.264 181.278L367.324 181.428C368.596 184.708 369.928 188.288 371.461 192.058C373.005 195.819 374.771 199.78 377.102 203.671C379.412 207.562 382.298 211.363 385.779 214.822C389.25 218.282 393.286 221.391 397.665 224.189C399.118 225.051 400.541 225.954 401.994 226.756C403.467 227.538 404.92 228.31 406.363 229.073L406.1 229.093C408.572 227.398 411.004 225.723 413.385 224.099C414.576 223.286 415.757 222.474 416.917 221.682C418.087 220.889 419.228 220.097 420.307 219.255C424.636 215.895 428.379 212.255 431.608 208.695L431.628 208.675H431.648C436.138 205.235 439.62 201.304 442.011 197.423C444.453 193.552 445.855 189.782 446.683 186.623C447.5 183.454 447.762 180.887 447.873 179.142C447.934 178.269 447.914 177.598 447.944 177.146C447.954 176.695 447.984 176.464 447.984 176.464C447.984 176.464 448.004 176.695 448.014 177.146C448.014 177.598 448.055 178.269 448.014 179.152C447.944 180.907 447.732 183.494 446.945 186.693C446.148 189.882 444.776 193.703 442.334 197.614C439.942 201.555 436.451 205.536 431.931 209.016L431.961 208.986C428.722 212.596 424.979 216.246 420.62 219.646C419.53 220.498 418.39 221.301 417.22 222.093C416.059 222.895 414.879 223.707 413.688 224.52C411.307 226.154 408.875 227.829 406.403 229.534L406.272 229.624L406.141 229.554C404.688 228.792 403.225 228.01 401.741 227.227C400.278 226.425 398.846 225.513 397.383 224.64C392.983 221.832 388.917 218.693 385.416 215.193C381.904 211.704 379.009 207.863 376.688 203.932C374.347 200.011 372.581 196.019 371.058 192.239C369.534 188.448 368.222 184.858 366.971 181.579L367.183 181.699C365.195 182.05 363.47 183.043 362.007 184.136C360.554 185.259 359.343 186.503 358.253 187.716C356.134 190.183 354.591 192.53 353.4 194.485C352.219 196.451 351.392 198.035 350.847 199.108C350.585 199.63 350.383 200.041 350.232 200.342C350.09 200.622 350.02 200.763 350.01 200.753Z" fill="#263238"/>
<path d="M462.786 176.063C462.786 176.063 463.119 181.92 462.06 191.356C461.525 196.07 460.566 201.665 458.982 207.773C457.408 213.88 455.158 220.468 452.303 227.207L451.919 228.11L451.798 227.127C451.728 226.545 451.667 225.904 451.576 225.272C451.072 221.571 450.194 218.001 449.034 214.682C448.448 213.017 447.803 211.413 447.086 209.868C446.733 209.096 446.36 208.344 445.976 207.602C445.583 206.86 445.23 206.138 444.745 205.506C444.271 204.884 443.696 204.323 443.01 204.072C442.334 203.811 441.587 203.982 441.022 204.443C440.457 204.894 439.983 205.516 439.478 206.068C438.984 206.629 438.5 207.181 438.015 207.732C436.098 209.909 434.312 211.934 432.678 213.79C429.418 217.46 426.775 220.438 424.918 222.534C424.01 223.537 423.304 224.329 422.789 224.891C422.557 225.142 422.376 225.342 422.224 225.493C422.093 225.623 422.022 225.693 422.022 225.683C422.022 225.683 422.073 225.603 422.184 225.452C422.325 225.282 422.497 225.071 422.709 224.811C423.203 224.229 423.889 223.417 424.767 222.384C426.593 220.268 429.196 217.249 432.395 213.539C434.009 211.674 435.785 209.628 437.682 207.442C438.156 206.89 438.641 206.339 439.135 205.777C439.64 205.225 440.084 204.604 440.729 204.082C441.345 203.551 442.334 203.3 443.161 203.631C443.989 203.942 444.604 204.564 445.119 205.215C445.643 205.877 446.017 206.639 446.41 207.371C446.794 208.114 447.177 208.876 447.53 209.648C448.247 211.202 448.912 212.827 449.508 214.502C450.688 217.861 451.576 221.451 452.081 225.192C452.182 225.833 452.232 226.475 452.303 227.067L451.798 226.987C454.644 220.278 456.904 213.709 458.498 207.632C460.102 201.555 461.101 195.989 461.676 191.296C462.262 186.603 462.494 182.782 462.605 180.145C462.675 178.831 462.675 177.798 462.706 177.106C462.716 176.785 462.736 176.525 462.736 176.314C462.746 176.133 462.756 176.043 462.766 176.043L462.786 176.063Z" fill="#263238"/>
<path d="M387.534 148.355C387.534 148.355 387.484 148.425 387.383 148.556C387.252 148.696 387.09 148.877 386.899 149.097C386.445 149.549 385.87 150.291 385.123 151.243C383.68 153.179 381.864 156.197 380.29 160.219C378.675 164.22 377.333 169.224 376.667 174.88C376.042 180.536 376.112 186.874 377.475 193.312C378.12 196.541 379.109 199.61 380.3 202.468C381.44 205.356 382.923 207.963 384.447 210.38C387.575 215.153 391.207 218.884 394.537 221.632C396.161 223.066 397.816 224.119 399.199 225.152C400.672 226.054 401.903 226.876 402.962 227.468C404.001 228.03 404.819 228.481 405.414 228.812C405.666 228.962 405.878 229.073 406.05 229.173C406.191 229.253 406.262 229.303 406.262 229.313C406.262 229.313 406.181 229.293 406.029 229.223C405.858 229.143 405.636 229.032 405.374 228.912C404.758 228.601 403.921 228.19 402.871 227.659C401.792 227.087 400.54 226.285 399.047 225.402C397.645 224.399 395.96 223.346 394.305 221.932C390.925 219.195 387.222 215.464 384.043 210.661C382.499 208.234 380.996 205.596 379.826 202.688C378.625 199.8 377.616 196.701 376.97 193.442C375.588 186.944 375.537 180.546 376.193 174.85C376.889 169.144 378.282 164.12 379.947 160.108C381.581 156.077 383.468 153.058 384.961 151.143C385.738 150.2 386.344 149.478 386.818 149.047C387.03 148.847 387.201 148.676 387.343 148.536C387.464 148.425 387.524 148.365 387.534 148.375V148.355Z" fill="#263238"/>
<path d="M301.678 244.707C301.678 244.707 301.759 244.797 301.88 244.997C302.021 245.248 302.203 245.549 302.425 245.93L302.273 245.98C301.557 242.611 299.589 232.282 297.37 220.057C296.028 212.526 294.817 205.717 293.929 200.703C293.525 198.276 293.192 196.29 292.94 194.826C292.839 194.174 292.758 193.643 292.698 193.221C292.647 192.85 292.627 192.66 292.647 192.66C292.668 192.66 292.718 192.84 292.799 193.201C292.89 193.623 293.001 194.144 293.142 194.786C293.424 196.24 293.818 198.216 294.292 200.632C295.22 205.647 296.492 212.446 297.884 219.957C300.104 232.171 301.92 242.54 302.425 245.94L302.505 246.451L302.283 245.99C302.092 245.599 301.94 245.278 301.809 245.027C301.708 244.817 301.668 244.707 301.678 244.696V244.707Z" fill="#263238"/>
<path d="M299.256 242.651C299.125 242.711 296.582 237.627 293.585 231.299C290.579 224.971 288.258 219.786 288.389 219.726C288.52 219.666 291.063 224.74 294.06 231.078C297.067 237.406 299.387 242.591 299.256 242.651Z" fill="#263238"/>
<g opacity="0.3">
<path d="M298.217 352.901C304.543 356.06 319.204 350.484 324.532 343.535C329.859 336.585 331.403 327.55 332.563 318.885C334.309 305.829 335.55 292.702 336.297 279.555C347.154 287.447 360.755 291.538 374.185 290.927C382.741 290.546 392.498 287.166 395.142 279.063C397.765 271.051 392.125 262.818 386.263 256.73C380.683 250.934 374.598 245.629 368.09 240.886C363.812 237.777 359.141 234.829 353.874 234.257C348.193 233.635 342.452 235.952 338.123 239.672C333.804 243.393 330.787 248.407 328.578 253.642C321.828 269.627 322.191 287.537 320.819 304.816C319.436 322.105 317.6 340.005 302.192 351.257" fill="black"/>
</g>
<path d="M298.631 352.972C298.631 352.972 298.772 352.891 299.065 352.761C299.388 352.621 299.812 352.44 300.336 352.219C301.396 351.628 302.96 350.765 304.655 349.271C308.096 346.363 312.344 341.409 316.309 334.83L316.279 334.911C317.197 328.041 318.277 320.019 319.427 311.495C321.273 297.977 322.918 285.742 324.23 276.897C325.047 272.535 325.713 268.985 326.177 266.488C326.409 265.295 326.601 264.352 326.732 263.66C326.793 263.359 326.843 263.118 326.893 262.928C326.934 262.768 326.954 262.677 326.964 262.677C326.964 262.677 326.964 262.768 326.944 262.928C326.914 263.129 326.883 263.369 326.833 263.67C326.722 264.362 326.571 265.315 326.379 266.508C325.955 269.015 325.34 272.565 324.593 276.937C323.392 285.832 321.758 298.047 319.941 311.555C318.771 320.079 317.671 328.091 316.733 334.961V335.011L316.702 335.051C312.656 341.66 308.348 346.594 304.816 349.472C303.081 350.946 301.466 351.788 300.387 352.34C299.822 352.57 299.368 352.721 299.075 352.821C298.772 352.921 298.621 352.972 298.621 352.962L298.631 352.972Z" fill="#263238"/>
<path d="M395.747 355.148C395.747 355.148 395.707 355.047 395.656 354.827C395.596 354.586 395.525 354.275 395.434 353.884C395.263 353.052 394.92 351.838 394.658 350.244C394.062 347.075 393.447 342.422 393.265 336.646C393.104 330.869 393.376 323.98 394.355 316.409C395.283 308.827 396.827 300.574 398.623 291.96C400.348 283.315 402.518 275.203 404.263 267.792C406.049 260.381 407.189 253.602 407.502 247.855C407.805 242.109 407.442 237.446 406.998 234.257C406.826 232.653 406.544 231.429 406.433 230.587C406.372 230.186 406.322 229.875 406.291 229.634C406.261 229.414 406.251 229.303 406.261 229.303C406.261 229.303 406.301 229.414 406.342 229.624C406.392 229.865 406.453 230.176 406.544 230.567C406.685 231.399 406.998 232.623 407.199 234.227C407.704 237.416 408.128 242.099 407.865 247.876C407.603 253.652 406.493 260.481 404.727 267.902C402.992 275.343 400.843 283.436 399.127 292.07C397.331 300.684 395.778 308.917 394.829 316.479C393.83 324.03 393.517 330.899 393.628 336.646C393.76 342.402 394.314 347.035 394.849 350.214C395.081 351.808 395.384 353.022 395.525 353.864C395.596 354.255 395.656 354.576 395.697 354.817C395.737 355.027 395.747 355.148 395.737 355.148H395.747Z" fill="#263238"/>
<path d="M412.73 242.069C412.598 241.989 414.344 239.221 416.281 235.701C418.229 232.181 419.621 229.243 419.762 229.303C419.823 229.333 419.561 230.105 419.036 231.319C418.511 232.532 417.714 234.177 416.745 235.952C415.767 237.717 414.798 239.271 414.051 240.364C413.305 241.457 412.79 242.099 412.74 242.059L412.73 242.069Z" fill="#263238"/>
<g opacity="0.3">
<path d="M415.978 237.907C421.235 231.79 426.936 226.054 433.03 220.739C434.695 219.285 436.501 217.811 438.691 217.45C441.355 217.008 444.069 218.372 445.915 220.338C447.762 222.303 448.912 224.79 450.032 227.237C452.676 220.769 449.931 213.499 447.207 207.06C446.319 204.965 444.785 202.488 442.525 202.819C441.324 202.999 440.416 203.972 439.619 204.884C430.881 214.963 422.789 225.613 415.413 236.714" fill="black"/>
</g>
<g opacity="0.3">
<path d="M504.7 190.133L505.073 186.954C501.229 187.315 496.507 187.766 493.439 190.093C489.857 192.81 488.445 197.433 487.244 201.746C484.5 211.563 492.279 262.055 491.885 272.234C495.296 270.8 497.687 249.129 498.303 245.499C499.796 236.664 496.779 231.148 497.687 228.681C498.605 226.224 498.575 223.537 498.656 220.91C498.989 209.197 500.159 200.953 504.71 190.133" fill="black"/>
</g>
<path d="M454.542 28.0764C449.658 22.0594 451.253 12.4423 456.842 7.06717C462.432 1.69203 470.938 0.137651 478.607 1.42127C489.716 3.27649 499.705 10.7776 504.548 20.8761C507.162 26.3415 508.594 32.7896 513.397 36.5101C517.615 39.7793 523.427 40.0601 528.23 42.3967C534.667 45.5355 538.824 52.2344 540.297 59.2141C541.77 66.1937 540.883 73.4441 539.399 80.4238C538.037 86.8218 536.221 93.7413 538.986 99.678C541.68 105.464 547.986 108.623 552.133 113.487C559.933 122.643 558.167 138.237 548.5 145.437C545.423 147.733 541.528 149.478 540.055 153.018C538.713 156.247 539.853 159.908 539.793 163.408C539.611 172.403 529.642 179.794 520.914 177.407C516.505 176.204 512.449 172.965 507.928 173.586C503.428 174.198 500.431 178.33 496.779 181.007C489.595 186.272 478.576 185.46 472.25 179.202C469.596 176.585 467.467 173.015 463.855 172.062C460.253 171.109 456.459 173.165 452.766 172.674C447.933 172.022 444.755 167.248 443.322 162.605C441.889 157.962 441.506 152.938 439.094 148.716C435.936 143.191 429.912 140.072 424.857 136.181C413.697 127.607 406.533 114.089 405.736 100.089C404.939 86.0898 410.519 71.8497 420.629 62.0721" fill="#263238"/>
<path d="M386.867 148.375C377.211 159.376 373.407 175.181 376.999 189.331C380.591 203.48 392.508 224.169 406.25 229.303C415.17 222.805 426.632 213.729 434.947 206.489C440.325 201.806 443.18 194.946 445.844 188.348C447.378 184.537 448.941 180.426 447.983 176.434C447.277 173.496 445.269 171.049 443.16 168.873C429.629 154.894 409.015 148.054 389.743 151.163" fill="#EF9D78"/>
<path d="M427.703 46.4983C432.818 36.1892 444.493 30.8442 455.693 33.6822L490.12 42.4067C507.323 47.9223 520.794 74.3768 510.653 97.5521C502.642 115.854 494.438 138.848 486.215 151.484C469.667 176.886 447.045 171.079 447.045 171.079L434.836 198.145L384.921 151.624L427.713 46.4882L427.703 46.4983Z" fill="#EF9D78"/>
<path d="M485.821 104.712C486.467 104.472 488.162 107.671 491.896 109.456C495.609 111.291 499.271 110.699 499.463 111.351C499.564 111.652 498.727 112.254 497.112 112.534C495.518 112.825 493.106 112.705 490.786 111.572C488.465 110.438 486.921 108.643 486.225 107.229C485.499 105.805 485.509 104.803 485.821 104.702V104.712Z" fill="#263238"/>
<path d="M446.833 87.0726C447.57 86.9422 449.235 90.5022 453.25 92.9692C457.236 95.4863 461.332 95.5164 461.494 96.2183C461.585 96.5392 460.626 97.0106 458.82 97.0206C457.044 97.0507 454.38 96.4991 451.888 94.9447C449.396 93.3904 447.802 91.2945 447.116 89.7301C446.409 88.1456 446.48 87.1227 446.823 87.0826L446.833 87.0726Z" fill="#263238"/>
<path d="M463.361 124.909C463.442 124.689 465.975 125.32 470.021 126.514C471.03 126.845 472.039 127.055 472.493 126.464C473.028 125.872 473.088 124.649 473.118 123.325C473.25 120.597 473.381 117.729 473.522 114.731C474.198 102.536 475.147 92.6885 475.641 92.7186C476.135 92.7487 475.984 102.657 475.308 114.851C475.116 117.849 474.935 120.707 474.763 123.435C474.642 124.689 474.723 126.213 473.583 127.436C472.997 128.038 472.059 128.249 471.363 128.138C470.656 128.048 470.112 127.827 469.617 127.637C465.682 126.153 463.291 125.12 463.371 124.899L463.361 124.909Z" fill="#263238"/>
<path d="M446.995 171.149C446.995 171.149 427.057 163.718 413.617 144.705C413.617 144.705 414.374 167.92 443.938 177.959L446.995 171.159V171.149Z" fill="#D37A57"/>
<path d="M449.962 74.2163C450.597 73.2035 454.543 74.5773 459.426 75.0086C464.3 75.5401 468.437 74.9584 468.86 76.0716C469.042 76.603 468.154 77.4956 466.378 78.2276C464.613 78.9597 461.939 79.4511 459.013 79.1703C456.086 78.8795 453.564 77.8766 451.98 76.8136C450.375 75.7506 449.679 74.6977 449.962 74.2163Z" fill="#263238"/>
<path d="M493.954 85.2576C495.225 85.2576 496.799 88.3663 499.524 91.3547C502.147 94.4234 505.073 96.3889 504.881 97.6324C504.76 98.204 503.701 98.4547 502.036 97.9634C500.381 97.482 498.171 96.1783 496.325 94.0925C494.489 92.0166 493.48 89.67 493.227 87.9953C492.965 86.3005 493.358 85.2977 493.954 85.2676V85.2576Z" fill="#263238"/>
<path d="M454.612 135.389C454.612 135.389 456.953 134.175 455.873 129.703C454.784 125.24 449.073 121.189 445.45 124.859C445.45 124.859 441.798 125.14 443.231 129.332C444.673 133.523 452.998 139.44 454.552 136.071" fill="#D37A57"/>
<path d="M453.251 138.798C452.585 138.688 453.604 134.326 450.567 130.354C447.55 126.383 442.757 125.792 442.868 125.17C442.868 124.879 444.109 124.568 446.097 124.969C448.044 125.35 450.728 126.624 452.585 129.051C454.431 131.478 454.825 134.235 454.552 136.061C454.29 137.926 453.553 138.889 453.251 138.798Z" fill="#263238"/>
<path d="M398.27 32.248C392.922 36.3295 389.733 43.0685 389.996 49.7674C390.147 53.518 391.065 57.9404 388.291 60.4776C385.465 63.0649 381.006 61.6709 377.161 61.691C370.472 61.7311 364.266 67.2567 363.499 73.8653C363.227 76.232 363.54 78.7992 362.319 80.855C361.058 82.991 358.515 83.9537 356.386 85.2373C351.078 88.4363 347.698 94.5435 347.809 100.711C347.93 106.878 351.553 112.855 356.981 115.844C359.453 117.207 362.339 118.05 364.145 120.216C366.214 122.693 366.294 126.203 367.303 129.251C369.241 135.108 375.184 139.42 381.399 139.46C387.604 139.5 393.608 135.288 395.636 129.452" fill="#263238"/>
<path d="M454.067 22.6511C452.049 28.5076 452.786 35.2466 456.025 40.5415C459.274 45.8264 464.955 49.5669 471.12 50.4694C475.902 51.1714 481.613 50.5697 484.701 54.2601C487.95 58.1511 486.023 64.3586 488.596 68.7208C492.268 74.9584 498.524 79.9324 504.467 84.0942C509.048 87.3132 503.811 96.2684 505.809 101.483C507.807 106.698 516.03 118.591 521.641 118.802C522.871 114.139 529.854 93.6611 529.975 88.8375C530.096 84.0139 529.006 79.0098 525.999 75.2292C524.355 73.1533 522.185 71.4987 520.763 69.2624C517.685 64.4388 518.724 58.2012 517.726 52.5854C516.434 45.345 511.389 38.8668 504.659 35.8081C499.059 33.261 492.49 32.9802 487.314 29.6608C483.49 27.2039 480.756 23.2829 476.79 21.0566C469.071 16.7244 459.405 20.0237 451.424 23.8745" fill="#263238"/>
<path d="M416.896 80.9453C416.099 80.4138 410.812 84.395 416.028 87.574C425.18 93.1397 433.04 74.3467 432.697 68.0991C437.359 66.1436 442.081 64.158 446.177 61.0593C450.284 57.9606 456.419 47.812 457.519 42.6875C461.02 44.1015 477.931 44.2219 476.468 43.219C473.128 40.9226 466.378 35.9987 465.48 32.1378C463.532 23.7642 457.549 16.4837 449.648 14.2875C441.748 12.1014 432.223 15.6815 427.864 23.2929C418.45 20.2042 407.29 22.982 399.783 30.2826C392.276 37.5832 388.714 49.1157 390.823 59.3044C391.378 61.9719 392.286 64.7597 391.419 67.4072C390.349 70.6864 387.04 72.4514 384.416 74.5774C377.232 80.3637 374.144 90.5825 375.032 99.8084C375.92 109.034 377.504 112.705 382.095 116.044C391.086 122.573 372.399 139.24 389.138 144.865" fill="#263238"/>
<path d="M541.851 144.655C541.811 144.585 542.446 144.244 543.425 143.321C544.394 142.408 545.786 140.934 546.795 138.608C547.824 136.331 548.53 133.152 547.743 129.662C546.956 126.173 544.303 122.833 540.751 119.995C537.3 117.047 532.77 114.42 529.561 109.776C526.312 105.113 525.777 98.7755 526.807 92.7585C527.816 86.6513 530.378 80.7146 532.023 74.3968C532.851 71.2379 533.365 67.9486 533.254 64.6192C533.143 61.3099 532.407 57.9204 530.621 55.0523C528.845 52.1842 526.11 50.0382 523.114 48.5841C520.107 47.1199 516.858 46.2675 513.629 45.716C510.39 45.1745 507.081 44.8736 503.943 43.8708C500.815 42.9382 497.828 40.8924 496.405 37.9742C494.942 35.1061 494.619 32.0675 493.974 29.3098C493.409 26.5219 492.349 24.0149 490.714 21.939C487.506 17.7372 482.753 15.4106 478.354 14.5883C473.884 13.7861 469.707 14.6485 466.387 16.0224C463.058 17.4363 460.515 19.3216 458.628 21.0365C454.895 24.5464 453.654 27.2038 453.502 27.0935C453.482 27.0835 453.553 26.9231 453.724 26.6122C453.896 26.3113 454.118 25.84 454.501 25.2784C455.218 24.1252 456.418 22.4906 458.265 20.6654C460.132 18.8603 462.674 16.8647 466.085 15.3505C469.475 13.8763 473.814 12.8935 478.506 13.6757C483.117 14.478 488.121 16.8447 491.572 21.2772C493.328 23.4433 494.508 26.2111 495.104 29.0591C495.77 31.877 496.133 34.8454 497.475 37.4226C498.766 40.0199 501.349 41.805 504.316 42.6875C507.282 43.6301 510.521 43.9209 513.831 44.4625C517.14 45.024 520.51 45.8965 523.679 47.4308C526.837 48.9451 529.803 51.2516 531.731 54.3804C533.668 57.4992 534.445 61.1194 534.556 64.5992C534.667 68.089 534.112 71.5187 533.264 74.7377C531.559 81.1959 529.006 87.0725 527.997 92.9791C526.968 98.8156 527.473 104.822 530.459 109.195C533.416 113.587 537.865 116.275 541.336 119.303C544.908 122.232 547.683 125.782 548.45 129.522C549.217 133.222 548.389 136.512 547.249 138.838C546.129 141.215 544.626 142.679 543.586 143.542C542.527 144.414 541.841 144.675 541.841 144.675L541.851 144.655Z" fill="#455A64"/>
<path d="M510.905 84.1042C511.026 84.1544 510.41 85.5383 509.795 88.1657C509.21 90.7831 508.655 94.7141 509.442 99.4575C509.825 101.814 510.531 104.371 511.732 106.908C512.882 109.486 514.658 111.882 516.676 114.43C517.655 115.723 518.644 117.117 519.37 118.732C520.117 120.336 520.48 122.212 520.319 124.057C520.026 127.787 518.18 131.097 516.807 134.466C515.365 137.806 514.557 141.386 515.879 144.484C517.11 147.583 519.602 149.94 521.873 152.196C524.173 154.442 526.393 156.709 527.795 159.346C528.461 160.67 528.926 162.084 529.067 163.468C529.158 164.852 529.107 166.195 528.764 167.419C527.513 172.393 524.022 175.231 521.55 176.364C520.258 176.916 519.189 177.146 518.462 177.207C517.736 177.257 517.352 177.257 517.352 177.207C517.322 177.046 518.916 177.106 521.318 175.903C523.618 174.689 526.807 171.871 527.856 167.208C528.381 164.922 528.159 162.274 526.827 159.858C525.495 157.431 523.346 155.285 521.015 153.058C518.735 150.822 516.081 148.415 514.668 144.946C513.972 143.231 513.74 141.275 513.992 139.39C514.234 137.505 514.87 135.7 515.576 133.965C516.999 130.505 518.755 127.286 519.027 123.957C519.38 120.607 517.605 117.669 515.698 115.152C513.75 112.635 511.873 110.047 510.733 107.36C509.532 104.692 508.856 102.045 508.523 99.5979C507.837 94.684 508.554 90.6627 509.311 88.0353C509.694 86.7216 510.077 85.7188 510.39 85.067C510.693 84.4151 510.874 84.0842 510.915 84.0942L510.905 84.1042Z" fill="#455A64"/>
<path d="M359.504 115.583C359.504 115.583 359.292 115.463 358.929 115.162C358.556 114.871 358.061 114.38 357.466 113.688C356.306 112.304 354.782 109.957 354.116 106.567C353.44 103.258 353.702 98.6652 356.588 94.6539C359.363 90.7229 364.62 87.4537 370.785 87.7445L370.23 88.4765C369.1 85.3277 368.252 81.7977 368.535 78.0472C368.757 74.3367 370.543 70.3655 373.933 67.9788C375.578 66.7654 377.666 65.9832 379.836 65.9731C382.035 65.9731 384.063 66.8256 385.93 67.688C387.807 68.5504 389.643 69.5232 391.58 69.8541C393.497 70.195 395.485 69.6535 396.918 68.2796C399.067 66.284 400.036 63.3056 400.228 60.3974C400.46 57.4491 400.177 54.4407 400.49 51.4422C401.105 45.4253 404.011 40.0401 407.926 36.2394C411.841 32.3685 416.876 30.2826 421.588 29.6508C426.331 29.019 430.8 29.7511 434.413 31.2553L433.838 31.476C435.432 28.2068 438.217 26.1811 440.779 25.1381C443.373 24.0651 445.845 23.9147 447.772 24.1052C449.719 24.3058 451.122 24.8974 452.02 25.3287C452.898 25.8301 453.321 26.1409 453.301 26.171C453.241 26.3415 451.515 24.8874 447.732 24.5866C445.875 24.4763 443.504 24.6969 441.052 25.7799C438.63 26.8329 436.057 28.7984 434.635 31.847L434.453 32.2281L434.06 32.0676C430.558 30.6837 426.25 30.0419 421.719 30.7038C417.209 31.3757 412.457 33.4014 408.754 37.1018C405.051 40.7421 402.316 45.8866 401.761 51.5726C401.469 54.4106 401.761 57.399 401.529 60.5078C401.327 63.5864 400.308 66.9359 397.806 69.2624C396.141 70.897 393.588 71.589 391.358 71.1578C389.118 70.7667 387.221 69.7237 385.375 68.8813C383.539 68.0289 381.682 67.2768 379.825 67.2668C377.969 67.2668 376.153 67.9287 374.669 69.0117C371.612 71.1578 369.967 74.6877 369.725 78.1575C369.433 81.6473 370.21 85.0569 371.279 88.1255L371.552 88.9078L370.724 88.8576C365.033 88.5167 360.009 91.5151 357.335 95.1854C354.55 98.9059 354.197 103.248 354.762 106.457C355.307 109.746 356.689 112.063 357.748 113.487C358.828 114.911 359.585 115.533 359.524 115.593L359.504 115.583Z" fill="#455A64"/>
<path d="M453.654 30.2024C453.724 30.433 451.686 30.1021 449.103 31.9573C446.52 33.7724 444.29 38.1548 443.634 43.7305L443.574 44.2118L443.1 44.1717C438.337 43.7806 432.313 45.6258 428.237 50.3391C427.258 51.5124 426.39 52.8863 425.846 54.3404C425.331 55.8346 425.069 57.4892 424.816 59.194C424.554 60.8988 424.322 62.6638 423.777 64.4488C423.313 66.2138 422.163 68.059 420.599 69.1822C417.249 71.7795 413.142 72.2307 409.54 72.8024C405.877 73.2937 402.437 73.8954 399.46 75.3997C393.467 78.2878 389.511 83.3019 387.786 87.9651C385.99 92.6683 386.06 96.8902 386.414 99.668C386.777 102.476 387.372 103.96 387.251 104C387.211 104.02 387.039 103.659 386.767 102.947C386.515 102.235 386.161 101.172 385.909 99.7483C385.394 96.9404 385.162 92.5881 386.918 87.6442C388.613 82.7504 392.659 77.4154 398.935 74.3166C402.043 72.7121 405.726 72.0402 409.358 71.5388C412.95 70.9672 416.855 70.4658 419.781 68.1693C422.667 66.1536 422.97 62.3529 423.535 59.0135C423.797 57.3087 424.07 55.5839 424.655 53.9292C425.291 52.2645 426.219 50.8405 427.298 49.5669C431.738 44.5327 438.135 42.7076 443.18 43.219L442.645 43.6603C443.453 37.8639 445.905 33.3713 448.77 31.5361C450.163 30.6135 451.464 30.3026 452.322 30.2224C453.19 30.1723 453.644 30.1723 453.644 30.2224L453.654 30.2024Z" fill="#455A64"/>
<path d="M418.853 83.8033C421.729 78.1975 417.864 71.1577 411.538 71.1677C408.067 71.1677 404.323 73.043 401.215 78.9697C392.932 94.7542 410.589 99.7683 410.851 99.3271C411.013 99.0563 415.483 90.3718 418.853 83.8033Z" fill="#EF9D78"/>
<path d="M409.136 90.8231C409.096 90.7329 408.763 90.8732 408.177 90.8432C407.612 90.8131 406.755 90.5523 406.089 89.8102C404.737 88.3261 404.706 84.9466 406.129 82.0584C406.846 80.6043 407.865 79.3909 408.964 78.5184C410.054 77.6159 411.235 77.1947 412.153 77.4855C413.091 77.7262 413.424 78.5385 413.394 79.0901C413.374 79.6416 413.111 79.9023 413.182 79.9725C413.202 80.0327 413.666 79.8823 413.878 79.1703C413.979 78.8193 413.989 78.358 413.777 77.8566C413.555 77.3552 413.081 76.9039 412.456 76.6632C411.184 76.1117 409.499 76.6632 408.278 77.6159C406.997 78.5385 405.816 79.8823 405.009 81.5169C403.445 84.746 403.516 88.5768 405.473 90.422C406.442 91.2944 407.542 91.4348 408.218 91.3145C408.914 91.1841 409.186 90.8732 409.146 90.8131L409.136 90.8231Z" fill="#D37A57"/>
<path d="M403.022 303.031C401.62 300.444 398.008 298.849 398.008 298.849L395.001 291.479C395.001 291.479 396.202 288.891 395.001 285.702C393.8 282.513 384.981 263.981 385.173 263.389L382.893 263.259C382.893 263.259 391.025 282.864 391.822 283.867C392.62 284.86 393.79 290.696 391.792 291.499C389.784 292.291 385.526 290.135 383.72 288.34C381.914 286.545 376.173 273.057 375.164 270.269C374.165 267.481 375.951 263.6 375.951 263.6L377.555 259.819H375.345C375.345 259.819 373.943 263.801 373.136 267.591C372.339 271.372 381.359 287.919 382.762 289.704C384.164 291.489 388.977 292.892 391.58 294.688C394.184 296.483 393.79 302.058 393.79 302.058C393.79 302.058 391.58 305.047 391.389 308.637C391.197 312.227 399.208 329.155 404.617 332.745C410.025 336.335 416.442 333.738 417.048 333.938C417.653 334.139 419.056 331.15 419.056 331.15C419.056 331.15 404.425 305.648 403.022 303.061V303.031ZM410.418 332.655C407.533 332.424 404.556 330.458 402.972 328.372C402.316 327.51 395.293 315.366 394.395 313.109C392.811 309.168 393.911 306.982 394.486 304.666C395.324 301.316 400.54 303.282 400.54 303.282C400.54 303.282 415.897 329.656 415.544 330.458C415.201 331.261 413.314 332.885 410.429 332.655H410.418Z" fill="#263238"/>
<path d="M419.066 331.13C419.066 331.13 463.775 314.223 465.863 312.307C467.952 310.392 475.499 299.381 475.499 299.381C475.499 299.381 479.192 300.023 478.708 300.975C478.224 301.928 471.16 312.949 463.613 316.138C456.066 319.327 417.058 333.928 417.058 333.928L419.066 331.14V331.13Z" fill="#263238"/>
<path d="M277.583 191.788L259.168 297.335C259.168 297.335 252.378 317.873 253.347 322.365C254.315 326.858 257.736 346.243 268.068 352.34C278.4 358.437 298.863 354.456 303.06 350.284C307.258 346.112 315.532 338.471 316.5 334.941C317.469 331.411 324.259 277.74 324.259 277.74L326.953 262.687C326.953 262.687 316.944 265.896 310.809 261.725C304.675 257.553 296.603 239.582 296.603 239.582L287.562 253.381L277.573 191.788H277.583Z" fill="#E8505B"/>
<path d="M296.613 239.572C296.613 239.572 296.502 239.783 296.26 240.164C295.977 240.585 295.614 241.137 295.17 241.808C294.222 243.243 292.849 245.308 291.205 247.906C287.895 253.07 283.466 260.311 278.632 268.333C273.799 276.366 269.44 283.646 266.201 288.861C264.587 291.468 263.245 293.574 262.307 295.008C261.853 295.69 261.489 296.232 261.207 296.653C260.955 297.024 260.813 297.215 260.793 297.205C260.773 297.205 260.894 296.984 261.116 296.593C261.378 296.162 261.711 295.6 262.135 294.898C263.053 293.374 264.325 291.258 265.879 288.67C269.057 283.356 273.386 276.095 278.178 268.062C283.011 260.04 287.491 252.82 290.882 247.695C292.567 245.128 293.989 243.082 294.988 241.688C295.473 241.026 295.866 240.505 296.159 240.094C296.431 239.733 296.583 239.552 296.593 239.562L296.613 239.572Z" fill="#263238"/>
<path d="M324.652 275.624C324.652 275.624 324.531 275.784 324.269 276.065C323.997 276.336 323.633 276.757 323.089 277.238C322.019 278.211 320.364 279.545 317.993 280.658C316.802 281.19 315.45 281.691 313.927 281.932C312.413 282.202 310.748 282.283 309.023 282.052C307.308 281.831 305.532 281.37 303.796 280.648C302.071 279.916 300.356 278.983 298.721 277.85C297.117 276.677 295.694 275.343 294.453 273.939C293.242 272.505 292.213 271.021 291.375 269.527C289.701 266.518 288.792 263.53 288.318 260.993C287.854 258.445 287.834 256.34 287.904 254.905C287.935 254.183 288.026 253.632 288.066 253.251C288.116 252.87 288.147 252.679 288.167 252.679C288.217 252.679 288.147 253.481 288.116 254.905C288.106 256.34 288.187 258.415 288.692 260.922C289.206 263.419 290.134 266.348 291.809 269.286C292.647 270.75 293.666 272.204 294.857 273.608C296.077 274.982 297.47 276.286 299.044 277.429C300.638 278.532 302.323 279.455 304.008 280.187C305.703 280.899 307.429 281.36 309.094 281.581C310.758 281.821 312.383 281.761 313.856 281.51C315.339 281.29 316.671 280.818 317.842 280.327C320.172 279.274 321.858 278.011 322.947 277.088C324.037 276.155 324.612 275.604 324.642 275.634L324.652 275.624Z" fill="#263238"/>
<path d="M296.613 239.572L310.386 230.767C310.386 230.767 347.124 215.936 350.847 215.083C354.58 214.231 358.879 212.516 360.887 215.083C362.895 217.65 383.841 232.763 383.841 232.763C383.841 232.763 396.182 255.868 396.182 259.007C396.182 262.146 399.622 266.157 396.182 267.29L392.741 268.423C392.741 268.423 391.591 274.019 387.292 274.641C382.984 275.263 381.551 274.641 381.551 274.641C381.551 274.641 381.269 280.237 377.818 279.886C374.367 279.535 368.636 274.641 368.636 274.641C368.636 274.641 366.053 277.549 364.045 277.549C362.037 277.549 355.72 273.267 355.72 273.267L343.512 262.717L332.756 259.007L326.944 262.677C326.944 262.677 314.523 263.73 312.666 262.717C310.8 261.715 296.593 239.572 296.593 239.572H296.613Z" fill="#EF9D78"/>
<path d="M367.142 275.624C367.142 275.624 366.88 275.052 366.507 274.009C366.325 273.478 366.093 272.836 365.78 272.114C365.477 271.382 365.165 270.54 364.721 269.647C364.307 268.744 363.843 267.752 363.268 266.729C362.743 265.686 362.077 264.623 361.401 263.5C359.978 261.283 358.283 258.937 356.275 256.65C354.247 254.384 352.128 252.398 350.11 250.714C349.071 249.901 348.102 249.109 347.124 248.447C346.175 247.745 345.257 247.164 344.409 246.642C343.582 246.091 342.775 245.68 342.089 245.278C341.403 244.877 340.797 244.566 340.293 244.316C339.294 243.814 338.749 243.513 338.759 243.483C338.769 243.453 339.344 243.684 340.383 244.135C340.898 244.356 341.534 244.637 342.23 245.018C342.936 245.389 343.754 245.79 344.611 246.321C345.479 246.833 346.417 247.404 347.386 248.086C348.385 248.728 349.374 249.52 350.423 250.333C352.481 252.017 354.631 254.013 356.679 256.299C358.697 258.616 360.412 260.993 361.815 263.239C362.491 264.382 363.147 265.465 363.661 266.528C364.216 267.571 364.67 268.574 365.064 269.497C365.487 270.409 365.78 271.272 366.063 272.014C366.355 272.756 366.557 273.408 366.708 273.949C367.021 275.022 367.183 275.624 367.142 275.634V275.624Z" fill="#D37A57"/>
<path d="M381.541 275.273C381.541 275.273 381.42 275.132 381.228 274.831C381.047 274.531 380.754 274.099 380.441 273.508C379.806 272.334 378.998 270.569 378.201 268.313C377.394 266.067 376.627 263.329 375.719 260.321C374.781 257.332 373.701 254.033 371.844 250.944C370.028 247.825 367.475 245.429 364.943 243.593C362.4 241.748 359.958 240.264 358.092 238.75C356.205 237.256 354.903 235.771 354.197 234.628C353.854 234.057 353.592 233.595 353.47 233.264C353.329 232.943 353.259 232.773 353.279 232.763C353.329 232.733 353.622 233.425 354.369 234.508C355.115 235.601 356.437 237.005 358.324 238.449C360.19 239.913 362.652 241.357 365.236 243.192C367.808 245.027 370.442 247.484 372.309 250.663C374.206 253.822 375.285 257.162 376.203 260.17C377.091 263.189 377.818 265.926 378.575 268.173C379.321 270.429 380.068 272.194 380.643 273.387C381.238 274.571 381.591 275.223 381.561 275.243L381.541 275.273Z" fill="#D37A57"/>
<path d="M391.893 268.664C391.893 268.664 391.822 268.494 391.741 268.163C391.651 267.772 391.54 267.3 391.398 266.719C391.267 266.087 391.085 265.325 390.823 264.452C390.571 263.58 390.329 262.567 389.945 261.484C389.592 260.391 389.199 259.198 388.684 257.954C388.22 256.68 387.604 255.377 386.989 253.993C385.667 251.265 384.053 248.337 382.085 245.439C380.087 242.551 377.948 239.983 375.88 237.757C374.81 236.674 373.821 235.621 372.802 234.739C371.824 233.806 370.855 233.004 369.957 232.272C369.089 231.52 368.231 230.918 367.505 230.366C366.779 229.805 366.133 229.353 365.588 229.002C365.093 228.662 364.69 228.381 364.367 228.16C364.095 227.96 363.953 227.849 363.963 227.829C363.963 227.809 364.135 227.899 364.428 228.07C364.771 228.28 365.194 228.531 365.709 228.832C366.264 229.163 366.94 229.584 367.677 230.126C368.423 230.657 369.301 231.239 370.189 231.981C371.097 232.693 372.096 233.485 373.095 234.418C374.134 235.3 375.143 236.353 376.233 237.426C378.342 239.652 380.511 242.24 382.519 245.148C384.497 248.076 386.121 251.035 387.433 253.792C388.048 255.196 388.654 256.51 389.098 257.804C389.602 259.067 389.976 260.281 390.309 261.384C390.672 262.477 390.894 263.5 391.116 264.392C391.348 265.275 391.499 266.057 391.6 266.689C391.701 267.28 391.782 267.762 391.852 268.153C391.903 268.484 391.923 268.664 391.903 268.664H391.893Z" fill="#D37A57"/>
<path d="M337.83 229.724C337.84 229.815 337.114 229.915 336.054 230.376C335.005 230.818 333.613 231.69 332.563 233.074C331.514 234.458 331.05 236.022 330.898 237.145C330.747 238.279 330.838 239.011 330.747 239.021C330.686 239.031 330.464 238.319 330.525 237.115C330.575 235.932 331.009 234.247 332.139 232.763C333.27 231.279 334.783 230.416 335.913 230.045C337.063 229.664 337.82 229.684 337.82 229.735L337.83 229.724Z" fill="#D37A57"/>
<path d="M348.061 220.067C348.142 220.198 346.366 221.321 344.611 223.186C342.835 225.031 341.806 226.856 341.674 226.786C341.553 226.736 342.401 224.74 344.237 222.825C346.054 220.9 348.021 219.947 348.072 220.067H348.061Z" fill="#D37A57"/>
<path d="M492.058 100.982C490.312 101.694 489.959 103.769 489.989 105.645C490.019 107.991 490.615 108.372 492.552 112.313C495.7 118.742 499.474 130.936 499.474 130.936C499.474 130.936 496.386 161.723 498.414 168.953C500.251 175.481 506.456 177.146 506.456 177.146L503.631 200.923H537.422C537.422 200.923 536.222 177.908 535.495 170.888C534.728 163.468 535.243 118.591 535.243 118.591L531.923 94.6236L524.093 81.1757C524.093 81.1757 520.017 83.6126 521.783 88.5365C523.549 93.4603 524.709 102.917 524.709 102.917L505.144 73.6545C505.144 73.6545 501.3 74.5671 501.068 81.637C501.068 81.637 495.377 85.3174 499.04 91.2942C503.126 97.963 507.374 117.999 505.881 118.009L493.743 100.29L492.058 100.982Z" fill="#EF9D78"/>
<path d="M503.631 200.923C503.631 200.923 503.671 200.392 503.782 199.349C503.903 198.296 504.075 196.751 504.297 194.746C504.761 190.694 505.447 184.748 506.325 177.136L506.416 177.277C504.902 176.805 503.439 176.003 502.117 174.9C500.785 173.807 499.645 172.373 498.888 170.668C498.081 168.973 497.869 167.018 497.708 165.062C497.587 163.087 497.546 161.051 497.567 158.945C497.657 150.531 498.313 141.135 499.272 130.926V131.006C497.698 126.052 495.942 120.828 493.753 115.533C493.198 114.209 492.602 112.895 491.936 111.591C491.311 110.268 490.494 109.044 490.009 107.55C489.797 106.798 489.757 106.016 489.767 105.254C489.787 104.491 489.858 103.709 490.1 102.947C490.332 102.195 490.786 101.443 491.513 101.002C491.876 100.771 492.249 100.651 492.592 100.5L493.662 100.059L493.843 99.9888L493.954 100.149C497.98 106.016 502.238 112.233 506.617 118.621L506.163 118.712C506.355 117.227 506.274 115.633 506.103 114.068C505.911 112.504 505.669 110.93 505.296 109.375C504.599 106.246 503.611 103.148 502.47 100.059C501.361 96.9603 499.958 93.9518 498.596 90.8531C497.95 89.2786 497.607 87.4736 498.051 85.7487C498.455 84.0238 499.494 82.4895 500.937 81.4165L500.826 81.607C501.017 80.1228 501.31 78.5785 501.905 77.0843C502.198 76.3422 502.592 75.6101 503.086 74.9483C503.601 74.2964 504.196 73.6847 505.104 73.3939L505.265 73.3438L505.376 73.5042C505.447 73.6145 505.528 73.7248 505.598 73.8452C512.217 83.7531 518.685 93.4303 524.931 102.777L524.457 102.947C523.942 99.0462 523.316 95.1953 522.388 91.4849C522.156 90.5623 521.894 89.6397 521.581 88.7471C521.278 87.8245 521.046 86.8518 521.097 85.859C521.167 83.8634 522.328 82.0382 523.952 80.9552L524.164 80.8148L524.295 81.0454C526.969 85.6484 529.572 90.131 532.115 94.5034L532.135 94.5435V94.5936C533.296 102.977 534.395 110.98 535.445 118.561V118.581V118.601C535.303 131.016 535.233 142.368 535.243 152.427C535.253 157.451 535.283 162.154 535.394 166.496C535.455 168.672 535.576 170.728 535.778 172.714C535.949 174.699 536.07 176.595 536.191 178.39C536.656 185.57 536.948 191.206 537.14 195.047C537.231 196.962 537.301 198.426 537.342 199.429C537.382 200.422 537.392 200.933 537.392 200.933C537.392 200.933 537.342 200.422 537.281 199.429C537.221 198.426 537.13 196.962 537.009 195.047C536.767 191.206 536.444 185.57 535.939 178.4C535.808 176.605 535.677 174.719 535.495 172.734C535.283 170.758 535.152 168.662 535.081 166.496C534.95 162.154 534.9 157.451 534.88 152.427C534.829 142.368 534.88 131.016 534.991 118.601V118.631C533.931 111.05 532.821 103.047 531.651 94.6738L531.681 94.7641C529.138 90.3918 526.525 85.9091 523.851 81.3162L524.194 81.4065C522.721 82.3892 521.631 84.094 521.581 85.9091C521.541 86.8217 521.742 87.7243 522.045 88.6067C522.358 89.5193 522.63 90.4419 522.862 91.3846C523.801 95.1351 524.426 98.986 524.951 102.917L525.092 104.01L524.477 103.088C518.231 93.7412 511.753 84.0639 505.134 74.1661C505.053 74.0457 504.983 73.9354 504.912 73.8251L505.185 73.9354C504.539 74.136 503.923 74.7076 503.469 75.2993C503.005 75.911 502.642 76.5929 502.359 77.3049C501.784 78.7289 501.502 80.2432 501.31 81.6973V81.8076L501.199 81.8778C499.897 82.8405 498.888 84.3046 498.525 85.8891C498.112 87.4836 498.424 89.1683 499.05 90.6826C500.392 93.7412 501.815 96.7898 502.924 99.9086C504.075 103.007 505.064 106.136 505.77 109.295C506.143 110.869 506.395 112.464 506.587 114.048C506.759 115.643 506.849 117.217 506.638 118.842L506.557 119.474L506.184 118.932C501.804 112.544 497.557 106.327 493.541 100.45L493.833 100.54C493.147 100.841 492.35 101.102 491.745 101.443C491.139 101.804 490.746 102.446 490.524 103.128C490.302 103.82 490.221 104.562 490.211 105.294C490.211 106.036 490.231 106.768 490.433 107.45C490.867 108.814 491.694 110.087 492.33 111.411C492.996 112.725 493.591 114.058 494.146 115.382C496.346 120.707 498.081 125.932 499.665 130.906V130.946V130.986C498.687 141.185 498.011 150.581 497.89 158.975C497.859 161.071 497.9 163.107 498.011 165.062C498.172 167.018 498.364 168.913 499.151 170.568C500.614 173.917 503.59 176.103 506.476 177.046L506.587 177.086V177.186C505.649 184.798 504.922 190.734 504.418 194.786C504.166 196.792 503.974 198.336 503.843 199.379C503.712 200.412 503.621 200.943 503.621 200.943L503.631 200.923Z" fill="#D37A57"/>
<path d="M518.564 120.587C518.564 120.587 518.403 119.995 518.201 118.932C518.019 117.859 517.686 116.315 517.252 114.409C516.344 110.619 514.8 105.444 512.258 100.059C509.745 94.6638 506.839 90.1009 504.65 86.8718C503.56 85.2573 502.652 83.9536 502.016 83.0711C501.391 82.1786 501.048 81.6672 501.078 81.6471C501.108 81.6271 501.502 82.0884 502.178 82.9508C502.864 83.8032 503.823 85.0667 504.953 86.6713C507.223 89.8602 510.199 94.4231 512.732 99.8484C515.285 105.274 516.798 110.508 517.616 114.329C518.009 116.245 518.282 117.809 518.403 118.892C518.544 119.975 518.604 120.577 518.564 120.587Z" fill="#D37A57"/>
<path d="M529.058 113.106C528.926 113.166 527.817 110.829 526.586 107.891C525.355 104.953 524.467 102.536 524.598 102.476C524.729 102.416 525.839 104.752 527.07 107.69C528.301 110.619 529.189 113.046 529.058 113.106Z" fill="#D37A57"/>
<path d="M500.927 191.075C495.004 243.092 487.275 298.468 478.396 356H547.179C560.115 327.54 552.204 302.71 548.753 267.32L537.412 186.964L500.927 191.075Z" fill="#E8505B"/>
<path d="M478.405 356C478.405 356 478.405 355.88 478.425 355.659C478.456 355.408 478.496 355.087 478.547 354.676C478.668 353.774 478.849 352.51 479.071 350.886C479.556 347.566 480.252 342.823 481.099 336.976C482.845 325.203 485.236 308.998 487.88 291.087C490.473 273.157 492.673 256.901 494.115 245.118C494.852 239.231 495.407 234.458 495.78 231.158C495.972 229.534 496.123 228.26 496.224 227.358C496.275 226.946 496.325 226.626 496.355 226.375C496.386 226.154 496.406 226.044 496.416 226.044C496.416 226.044 496.416 226.164 496.416 226.385C496.396 226.636 496.376 226.967 496.335 227.378C496.255 228.28 496.133 229.554 495.982 231.188C495.669 234.498 495.165 239.271 494.479 245.168C493.127 256.961 490.988 273.227 488.394 291.167C485.801 309.098 483.289 325.304 481.452 337.037C480.524 342.873 479.778 347.616 479.253 350.926C478.99 352.54 478.779 353.804 478.627 354.696C478.557 355.108 478.496 355.428 478.456 355.679C478.415 355.9 478.385 356.01 478.375 356.01L478.405 356Z" fill="#263238"/>
</g>
</g>
<defs>
<clipPath id="clip0_802_2017">
<rect width="845" height="470" fill="white"/>
</clipPath>
<clipPath id="clip1_802_2017">
<rect width="400" height="355" fill="white" transform="translate(225 1)"/>
</clipPath>
</defs>
</svg>
