<svg width="845" height="470" viewBox="0 0 845 470" fill="none" xmlns="http://www.w3.org/2000/svg">
<g clip-path="url(#clip0_789_374)">
<path d="M333.843 451.394L358.142 415.283L468.762 414.928L497.515 451.394H333.843Z" fill="#EBEBEB"/>
<path d="M290.848 440.253L315.147 404.141L442.505 403.726L454.52 440.253H290.848Z" fill="#FAFAFA"/>
<path d="M290.848 440.253V444.626L454.52 444.04V440.253H290.848Z" fill="#E0E0E0"/>
<path d="M437.036 428.086C437.036 428.257 409.359 428.404 375.235 428.404C341.111 428.404 313.422 428.257 313.422 428.086C313.422 427.915 341.086 427.768 375.235 427.768C409.384 427.768 437.036 427.915 437.036 428.086Z" fill="#E0E0E0"/>
<path d="M483.322 418.349L517.361 469.096L645.16 470L644.695 464.906L602.642 415.661L527.149 405.021L483.322 418.349Z" fill="#E0E0E0"/>
<path d="M483.555 413.157L519.784 464.906H644.695L599.607 411.471L524.115 400.831L483.555 413.157Z" fill="#FAFAFA"/>
<path d="M624.445 453.973C624.445 454.144 601.798 454.291 573.876 454.291C545.955 454.291 523.308 454.144 523.308 453.973C523.308 453.801 545.943 453.654 573.876 453.654C601.81 453.654 624.445 453.801 624.445 453.973Z" fill="#E0E0E0"/>
<path d="M620.347 448.683C620.347 448.854 597.699 449.001 569.778 449.001C541.857 449.001 519.209 448.854 519.209 448.683C519.209 448.512 541.844 448.365 569.778 448.365C597.711 448.365 620.347 448.512 620.347 448.683Z" fill="#E0E0E0"/>
<path d="M616.26 443.393C616.26 443.565 593.612 443.711 565.691 443.711C537.77 443.711 515.122 443.565 515.122 443.393C515.122 443.222 537.758 443.075 565.691 443.075C593.624 443.075 616.26 443.222 616.26 443.393Z" fill="#E0E0E0"/>
<path d="M612.051 438.091C612.051 438.263 589.403 438.41 561.482 438.41C533.561 438.41 510.913 438.263 510.913 438.091C510.913 437.92 533.549 437.773 561.482 437.773C589.415 437.773 612.051 437.92 612.051 438.091Z" fill="#E0E0E0"/>
<path d="M606.545 432.802C606.545 432.973 583.897 433.12 555.976 433.12C528.055 433.12 505.407 432.973 505.407 432.802C505.407 432.63 528.043 432.483 555.976 432.483C583.909 432.483 606.545 432.63 606.545 432.802Z" fill="#E0E0E0"/>
<path d="M601.039 427.512C601.039 427.683 578.391 427.83 550.47 427.83C522.549 427.83 499.901 427.683 499.901 427.512C499.901 427.341 522.537 427.194 550.47 427.194C578.404 427.194 601.039 427.341 601.039 427.512Z" fill="#E0E0E0"/>
<path d="M647.901 220.187L647.619 199.42H661.115L661.58 220.187H647.901Z" fill="#F5F5F5"/>
<path d="M660.32 203.109C660.32 203.207 657.518 203.293 654.056 203.293C650.593 203.293 647.791 203.207 647.791 203.109C647.791 203.011 650.593 202.926 654.056 202.926C657.518 202.926 660.32 203.011 660.32 203.109Z" fill="#E0E0E0"/>
<path d="M660.32 206.322C660.32 206.42 657.518 206.506 654.056 206.506C650.593 206.506 647.791 206.42 647.791 206.322C647.791 206.224 650.593 206.139 654.056 206.139C657.518 206.139 660.32 206.224 660.32 206.322Z" fill="#E0E0E0"/>
<path d="M660.32 209.523C660.32 209.621 657.518 209.707 654.056 209.707C650.593 209.707 647.791 209.621 647.791 209.523C647.791 209.425 650.593 209.339 654.056 209.339C657.518 209.339 660.32 209.425 660.32 209.523Z" fill="#E0E0E0"/>
<path d="M660.32 212.736C660.32 212.834 657.518 212.919 654.056 212.919C650.593 212.919 647.791 212.834 647.791 212.736C647.791 212.638 650.593 212.552 654.056 212.552C657.518 212.552 660.32 212.638 660.32 212.736Z" fill="#E0E0E0"/>
<path d="M660.32 215.937C660.32 216.034 657.518 216.12 654.056 216.12C650.593 216.12 647.791 216.034 647.791 215.937C647.791 215.839 650.593 215.753 654.056 215.753C657.518 215.753 660.32 215.839 660.32 215.937Z" fill="#E0E0E0"/>
<path d="M646.457 198.723H795.998C797.845 205.601 797.589 213.175 795.998 221.177H647.106V219.65H656.209C658.582 219.65 660.503 218.037 660.503 216.046V203.622C660.503 201.631 658.582 200.018 656.209 200.018H646.469V198.723H646.457Z" fill="#EBEBEB"/>
<path d="M787.017 206.493H679.541C678.223 206.493 677.155 207.559 677.155 208.875V210.17C677.155 211.486 678.223 212.552 679.541 212.552H787.017C788.334 212.552 789.403 211.486 789.403 210.17V208.875C789.403 207.559 788.334 206.493 787.017 206.493Z" fill="white"/>
<path d="M782.086 169.893V196.964H744.842V169.893H782.086Z" fill="#F5F5F5"/>
<path d="M661.8 183.685C661.8 183.929 661.813 184.162 661.825 184.406C662.131 192.591 667.074 198.931 672.898 198.931H783.812V196.976H757.481C752.171 196.976 747.852 190.917 747.852 183.441C747.852 175.964 752.159 169.905 757.481 169.905H783.812V167.034L672.861 167.559C666.597 167.584 661.568 174.889 661.788 183.697L661.8 183.685Z" fill="#E0E0E0"/>
<path d="M782.086 183.796C782.086 183.955 774.427 184.077 764.981 184.077C755.535 184.077 747.876 183.955 747.876 183.796C747.876 183.637 755.535 183.514 764.981 183.514C774.427 183.514 782.086 183.637 782.086 183.796Z" fill="#E0E0E0"/>
<path d="M781.548 189.892C781.548 190.051 774.304 190.173 765.36 190.173C756.416 190.173 749.173 190.051 749.173 189.892C749.173 189.732 756.416 189.61 765.36 189.61C774.304 189.61 781.548 189.732 781.548 189.892Z" fill="#E0E0E0"/>
<path d="M782.086 195.474C782.086 195.633 775.577 195.756 767.538 195.756C759.499 195.756 752.99 195.633 752.99 195.474C752.99 195.315 759.499 195.193 767.538 195.193C775.577 195.193 782.086 195.315 782.086 195.474Z" fill="#E0E0E0"/>
<path d="M782.086 178.31C782.086 178.469 774.586 178.592 765.336 178.592C756.086 178.592 748.586 178.469 748.586 178.31C748.586 178.151 756.086 178.029 765.336 178.029C774.586 178.029 782.086 178.151 782.086 178.31Z" fill="#E0E0E0"/>
<path d="M781.549 172.825C781.549 172.984 774.868 173.107 766.634 173.107C758.399 173.107 751.719 172.984 751.719 172.825C751.719 172.666 758.399 172.544 766.634 172.544C774.868 172.544 781.549 172.666 781.549 172.825Z" fill="#E0E0E0"/>
<path d="M734.968 181.059H674.305C673.623 181.059 673.069 181.611 673.069 182.292V184.748C673.069 185.429 673.623 185.982 674.305 185.982H734.968C735.651 185.982 736.204 185.429 736.204 184.748V182.292C736.204 181.611 735.651 181.059 734.968 181.059Z" fill="white"/>
<path d="M845 356.181C845 356.352 659.451 356.499 430.624 356.499C201.798 356.499 16.2119 356.352 16.2119 356.181C16.2119 356.009 201.713 355.863 430.624 355.863C659.536 355.863 845 356.009 845 356.181Z" fill="#263238"/>
<path d="M684.007 318.016H629.804C621.484 318.016 614.742 311.285 614.742 302.978C614.742 294.671 621.484 287.952 629.804 287.952H684.007V318.016Z" fill="#455A64"/>
<path d="M789.513 292.936H669.019V287.939H789.513C790.895 287.939 792.009 289.051 792.009 290.432C792.009 291.812 790.895 292.924 789.513 292.924V292.936Z" fill="#455A64"/>
<path d="M789.513 318.016H669.019V313.02H789.513C790.895 313.02 792.009 314.131 792.009 315.512C792.009 316.892 790.895 318.004 789.513 318.004V318.016Z" fill="#455A64"/>
<path d="M788.338 313.02H682.734C677.179 313.02 672.677 308.524 672.677 302.978C672.677 297.432 677.179 292.936 682.734 292.936H788.338C785.511 299.631 785.511 306.325 788.338 313.02Z" fill="#F5F5F5"/>
<g opacity="0.3">
<path d="M672.676 318.016H629.852C621.508 318.016 614.754 311.26 614.754 302.941C614.754 294.658 621.471 287.952 629.767 287.952H673.826C662.925 294.548 663.744 310.332 672.676 318.016Z" fill="black"/>
</g>
<path d="M775.503 303.907C775.503 304.004 753.822 304.09 727.1 304.09C700.378 304.09 678.685 304.004 678.685 303.907C678.685 303.809 700.353 303.723 727.1 303.723C753.847 303.723 775.503 303.809 775.503 303.907Z" fill="#263238"/>
<path d="M785.475 308.378C785.475 308.476 763.794 308.561 737.072 308.561C710.35 308.561 688.656 308.476 688.656 308.378C688.656 308.28 710.325 308.194 737.072 308.194C763.818 308.194 785.475 308.28 785.475 308.378Z" fill="#263238"/>
<path d="M782.538 297.579C782.538 297.677 760.857 297.762 734.135 297.762C707.413 297.762 685.72 297.677 685.72 297.579C685.72 297.481 707.389 297.395 734.135 297.395C760.882 297.395 782.538 297.481 782.538 297.579Z" fill="#263238"/>
<path d="M667.378 315.903C667.378 316.001 657.235 316.087 644.719 316.087C632.202 316.087 622.059 316.001 622.059 315.903C622.059 315.805 632.202 315.719 644.719 315.719C657.235 315.719 667.378 315.805 667.378 315.903Z" fill="#263238"/>
<path d="M667.378 290.444C667.378 290.542 657.235 290.628 644.719 290.628C632.202 290.628 622.059 290.542 622.059 290.444C622.059 290.346 632.202 290.26 644.719 290.26C657.235 290.26 667.378 290.346 667.378 290.444Z" fill="#263238"/>
<path d="M680.765 356.18H613.543C602.838 356.18 594.15 347.519 594.15 336.817C594.15 326.128 602.825 317.454 613.543 317.454H680.765C682.196 317.454 683.346 318.602 683.346 320.032V353.602C683.346 355.019 682.196 356.18 680.765 356.18Z" fill="#FF725E"/>
<path d="M819.208 323.892H664.026V317.466H819.208C820.982 317.466 822.426 318.908 822.426 320.679C822.426 322.451 820.982 323.892 819.208 323.892Z" fill="#FF725E"/>
<path d="M819.208 356.18H664.026V349.754H819.208C820.982 349.754 822.426 351.196 822.426 352.967C822.426 354.738 820.982 356.18 819.208 356.18Z" fill="#FF725E"/>
<path d="M817.704 349.754H681.707C674.55 349.754 668.75 343.964 668.75 336.817C668.75 329.67 674.55 323.88 681.707 323.88H817.704C814.057 332.505 814.057 341.117 817.704 349.742V349.754Z" fill="#F5F5F5"/>
<g opacity="0.4">
<path d="M668.75 356.18H613.335C602.74 356.18 594.15 347.604 594.15 337.025C594.15 326.213 602.923 317.454 613.751 317.454H670.23C656.184 325.944 657.236 346.285 668.75 356.168V356.18Z" fill="black"/>
</g>
<path d="M801.173 338.027C801.173 338.125 773.264 338.21 738.834 338.21C704.404 338.21 676.482 338.125 676.482 338.027C676.482 337.929 704.391 337.843 738.834 337.843C773.276 337.843 801.173 337.929 801.173 338.027Z" fill="#263238"/>
<path d="M814.008 343.769C814.008 343.866 786.099 343.952 751.669 343.952C717.239 343.952 689.317 343.866 689.317 343.769C689.317 343.671 717.226 343.585 751.669 343.585C786.112 343.585 814.008 343.671 814.008 343.769Z" fill="#263238"/>
<path d="M810.227 332.688C810.227 332.786 782.306 332.872 747.888 332.872C713.47 332.872 685.536 332.786 685.536 332.688C685.536 332.59 713.445 332.505 747.888 332.505C782.33 332.505 810.227 332.59 810.227 332.688Z" fill="#263238"/>
<path d="M661.922 353.468C661.922 353.566 648.855 353.652 632.741 353.652C616.627 353.652 603.56 353.566 603.56 353.468C603.56 353.37 616.627 353.285 632.741 353.285C648.855 353.285 661.922 353.37 661.922 353.468Z" fill="#263238"/>
<path d="M661.922 320.68C661.922 320.778 648.855 320.863 632.741 320.863C616.627 320.863 603.56 320.778 603.56 320.68C603.56 320.582 616.627 320.496 632.741 320.496C648.855 320.496 661.922 320.582 661.922 320.68Z" fill="#263238"/>
<path d="M717.446 297.713V309.758L721.631 307.07L726.292 309.758V297.713H717.446Z" fill="#FF725E"/>
<path d="M630.709 286.547L630.379 254.149H646.199L646.75 286.547H630.709Z" fill="#F5F5F5"/>
<path d="M645.269 259.916C645.269 260.075 641.978 260.197 637.916 260.197C633.854 260.197 630.562 260.075 630.562 259.916C630.562 259.756 633.854 259.634 637.916 259.634C641.978 259.634 645.269 259.756 645.269 259.916Z" fill="#E0E0E0"/>
<path d="M645.269 264.912C645.269 265.071 641.978 265.194 637.916 265.194C633.854 265.194 630.562 265.071 630.562 264.912C630.562 264.753 633.854 264.631 637.916 264.631C641.978 264.631 645.269 264.753 645.269 264.912Z" fill="#E0E0E0"/>
<path d="M645.269 269.921C645.269 270.08 641.978 270.202 637.916 270.202C633.854 270.202 630.562 270.08 630.562 269.921C630.562 269.762 633.854 269.639 637.916 269.639C641.978 269.639 645.269 269.762 645.269 269.921Z" fill="#E0E0E0"/>
<path d="M645.269 274.917C645.269 275.076 641.978 275.199 637.916 275.199C633.854 275.199 630.562 275.076 630.562 274.917C630.562 274.758 633.854 274.636 637.916 274.636C641.978 274.636 645.269 274.758 645.269 274.917Z" fill="#E0E0E0"/>
<path d="M645.269 279.914C645.269 280.073 641.978 280.195 637.916 280.195C633.854 280.195 630.562 280.073 630.562 279.914C630.562 279.755 633.854 279.632 637.916 279.632C641.978 279.632 645.269 279.755 645.269 279.914Z" fill="#E0E0E0"/>
<path d="M629.009 253.074H804.378C806.544 263.8 806.238 275.613 804.378 288.098H629.755V285.716H640.424C643.202 285.716 645.465 283.2 645.465 280.097V260.721C645.465 257.618 643.214 255.102 640.424 255.102H629.009V253.074Z" fill="#FF725E"/>
<path d="M798.322 288.77C798.187 288.77 798.077 280.732 798.077 270.8C798.077 260.868 798.187 252.83 798.322 252.83C798.457 252.83 798.567 260.868 798.567 270.8C798.567 280.732 798.457 288.77 798.322 288.77Z" fill="#263238"/>
<path d="M654.813 288.77C654.679 288.77 654.568 280.732 654.568 270.8C654.568 260.868 654.679 252.83 654.813 252.83C654.948 252.83 655.058 260.868 655.058 270.8C655.058 280.732 654.948 288.77 654.813 288.77Z" fill="#263238"/>
<path d="M801.393 288.77C801.259 288.77 801.148 280.732 801.148 270.8C801.148 260.868 801.259 252.83 801.393 252.83C801.528 252.83 801.638 260.868 801.638 270.8C801.638 280.732 801.528 288.77 801.393 288.77Z" fill="#263238"/>
<path d="M651.938 288.77C651.804 288.77 651.693 280.732 651.693 270.8C651.693 260.868 651.804 252.83 651.938 252.83C652.073 252.83 652.183 260.868 652.183 270.8C652.183 280.732 652.073 288.77 651.938 288.77Z" fill="#263238"/>
<path d="M778.121 265.193H683.395C682.077 265.193 681.009 266.259 681.009 267.575V272.254C681.009 273.569 682.077 274.636 683.395 274.636H778.121C779.439 274.636 780.507 273.569 780.507 272.254V267.575C780.507 266.259 779.439 265.193 778.121 265.193Z" fill="white"/>
<path d="M784.911 223.596V250.667H737.915V223.596H784.911Z" fill="#EBEBEB"/>
<path d="M633.132 237.388C633.132 237.633 633.144 237.865 633.156 238.109C633.535 246.294 639.775 252.634 647.141 252.634H787.102V250.68H753.87C747.165 250.68 741.733 244.62 741.733 237.144C741.733 229.667 747.165 223.608 753.87 223.608H787.102V220.737L647.092 221.263C639.188 221.287 632.838 228.592 633.119 237.4L633.132 237.388Z" fill="#455A64"/>
<path d="M784.912 237.499C784.912 237.658 775.246 237.78 763.328 237.78C751.411 237.78 741.745 237.658 741.745 237.499C741.745 237.339 751.411 237.217 763.328 237.217C775.246 237.217 784.912 237.339 784.912 237.499Z" fill="#E0E0E0"/>
<path d="M784.226 243.595C784.226 243.754 775.087 243.876 763.806 243.876C752.525 243.876 743.385 243.754 743.385 243.595C743.385 243.436 752.525 243.313 763.806 243.313C775.087 243.313 784.226 243.436 784.226 243.595Z" fill="#E0E0E0"/>
<path d="M784.912 249.178C784.912 249.337 776.69 249.459 766.559 249.459C756.428 249.459 748.193 249.337 748.193 249.178C748.193 249.018 756.416 248.896 766.559 248.896C776.702 248.896 784.912 249.018 784.912 249.178Z" fill="#E0E0E0"/>
<path d="M784.911 232.013C784.911 232.173 775.441 232.295 763.769 232.295C752.096 232.295 742.626 232.173 742.626 232.013C742.626 231.854 752.084 231.732 763.769 231.732C775.453 231.732 784.911 231.854 784.911 232.013Z" fill="#E0E0E0"/>
<path d="M784.226 226.541C784.226 226.7 775.796 226.822 765.408 226.822C755.02 226.822 746.59 226.7 746.59 226.541C746.59 226.381 755.008 226.259 765.408 226.259C775.808 226.259 784.226 226.381 784.226 226.541Z" fill="#E0E0E0"/>
<path d="M725.778 234.762H648.585C647.903 234.762 647.35 235.314 647.35 235.996V238.451C647.35 239.133 647.903 239.685 648.585 239.685H725.778C726.461 239.685 727.014 239.133 727.014 238.451V235.996C727.014 235.314 726.461 234.762 725.778 234.762Z" fill="white"/>
<path d="M677.155 253.074C677.816 253.379 766.228 263.629 766.228 263.629L783.847 252.622L677.143 253.074H677.155Z" fill="white"/>
<path d="M677.155 253.074C678.856 253.062 689.317 252.976 708.147 252.818C727.503 252.683 754.238 252.5 783.847 252.304H784.973L784.019 252.891C783.517 253.208 782.966 253.551 782.416 253.893C776.922 257.313 771.551 260.673 766.4 263.898L766.302 263.959H766.192C740.877 260.941 718.621 258.303 702.653 256.409C694.713 255.42 688.338 254.626 683.921 254.076C681.755 253.783 680.067 253.551 678.892 253.392C678.329 253.318 677.865 253.233 677.571 253.16C677.375 253.123 677.265 253.099 677.155 253.086C680.25 253.441 715.917 257.545 766.265 263.336L766.057 263.385C771.208 260.16 776.592 256.8 782.073 253.379C782.624 253.037 783.174 252.695 783.676 252.378L783.847 252.964C754.372 253.013 727.773 253.05 708.514 253.086C689.464 253.086 678.868 253.086 677.143 253.086L677.155 253.074Z" fill="#263238"/>
<path d="M697.576 317.467L737.06 337.843L772.322 316.844L697.576 317.467Z" fill="white"/>
<path d="M697.576 317.467C699.191 317.442 706.165 317.344 719.098 317.173C732.533 316.978 751.338 316.709 772.322 316.538H773.497L772.493 317.124C771.025 317.992 769.459 318.933 767.881 319.873C756.808 326.458 746.346 332.676 737.219 338.088L737.084 338.173L736.95 338.1C725.216 331.955 715.354 326.788 708.368 323.135C701.883 319.727 698.628 318.016 697.601 317.479C699.779 318.59 714.057 325.835 737.207 337.611H736.925C746.04 332.175 756.49 325.945 767.55 319.348C769.129 318.407 770.695 317.479 772.163 316.599L772.334 317.186C751.534 317.357 732.961 317.393 719.478 317.43C706.337 317.467 699.24 317.491 697.601 317.491L697.576 317.467Z" fill="#263238"/>
<path d="M89.8563 310.711H35.6536C27.3335 310.711 20.5918 303.979 20.5918 295.672C20.5918 287.365 27.3335 280.646 35.6536 280.646H89.8563V310.711Z" fill="#455A64"/>
<path d="M195.35 285.643H74.8555V280.646H195.35C196.732 280.646 197.846 281.758 197.846 283.138C197.846 284.519 196.732 285.631 195.35 285.631V285.643Z" fill="#455A64"/>
<path d="M195.35 310.711H74.8555V305.714H195.35C196.732 305.714 197.846 306.826 197.846 308.206C197.846 309.587 196.732 310.698 195.35 310.698V310.711Z" fill="#455A64"/>
<path d="M194.187 305.714H88.5839C83.029 305.714 78.5264 301.219 78.5264 295.672C78.5264 290.126 83.029 285.631 88.5839 285.631H194.187C191.361 292.325 191.361 299.02 194.187 305.714Z" fill="#F5F5F5"/>
<g opacity="0.3">
<path d="M78.5258 310.711H35.702C27.3574 310.711 20.6035 303.955 20.6035 295.636C20.6035 287.353 27.3207 280.646 35.6163 280.646H79.6759C68.7742 287.243 69.594 303.027 78.5258 310.711Z" fill="black"/>
</g>
<path d="M181.353 296.613C181.353 296.711 159.672 296.797 132.95 296.797C106.228 296.797 84.5342 296.711 84.5342 296.613C84.5342 296.515 106.203 296.43 132.95 296.43C159.696 296.43 181.353 296.515 181.353 296.613Z" fill="#263238"/>
<path d="M191.324 301.072C191.324 301.17 169.643 301.256 142.921 301.256C116.199 301.256 94.5059 301.17 94.5059 301.072C94.5059 300.974 116.175 300.889 142.921 300.889C169.668 300.889 191.324 300.974 191.324 301.072Z" fill="#263238"/>
<path d="M188.375 290.285C188.375 290.383 166.694 290.469 139.972 290.469C113.25 290.469 91.5566 290.383 91.5566 290.285C91.5566 290.187 113.226 290.102 139.972 290.102C166.719 290.102 188.375 290.187 188.375 290.285Z" fill="#263238"/>
<path d="M73.2281 308.598C73.2281 308.696 63.0849 308.781 50.5681 308.781C38.0513 308.781 27.9082 308.696 27.9082 308.598C27.9082 308.5 38.0513 308.414 50.5681 308.414C63.0849 308.414 73.2281 308.5 73.2281 308.598Z" fill="#263238"/>
<path d="M73.2281 283.139C73.2281 283.237 63.0849 283.322 50.5681 283.322C38.0513 283.322 27.9082 283.237 27.9082 283.139C27.9082 283.041 38.0513 282.955 50.5681 282.955C63.0849 282.955 73.2281 283.041 73.2281 283.139Z" fill="#263238"/>
<path d="M86.6143 348.875H19.3931C8.68712 348.875 0 340.213 0 329.512C0 318.822 8.68712 310.149 19.3931 310.149H86.6143C88.0336 310.149 89.1959 311.297 89.1959 312.726V346.285C89.1959 347.702 88.0458 348.862 86.6143 348.862V348.875Z" fill="#FF725E"/>
<path d="M225.057 316.587H69.876V310.161H225.057C226.831 310.161 228.275 311.602 228.275 313.374C228.275 315.145 226.831 316.587 225.057 316.587Z" fill="#FF725E"/>
<path d="M225.057 348.875H69.876V342.449H225.057C226.831 342.449 228.275 343.89 228.275 345.662C228.275 347.433 226.831 348.875 225.057 348.875Z" fill="#FF725E"/>
<path d="M223.553 342.449H87.5569C80.3992 342.449 74.5996 336.658 74.5996 329.512C74.5996 322.365 80.3992 316.574 87.5569 316.574H223.553C219.907 325.199 219.907 333.812 223.553 342.436V342.449Z" fill="#F5F5F5"/>
<g opacity="0.4">
<path d="M74.5991 348.875H19.1851C8.58924 348.875 0 340.299 0 329.719C0 318.908 8.77277 310.149 19.6011 310.149H76.0796C62.0334 318.639 63.0856 338.979 74.5991 348.862V348.875Z" fill="black"/>
</g>
<path d="M207.023 330.721C207.023 330.819 179.114 330.905 144.684 330.905C110.253 330.905 82.332 330.819 82.332 330.721C82.332 330.624 110.241 330.538 144.684 330.538C179.126 330.538 207.023 330.624 207.023 330.721Z" fill="#263238"/>
<path d="M219.858 336.475C219.858 336.573 191.949 336.659 157.519 336.659C123.088 336.659 95.167 336.573 95.167 336.475C95.167 336.377 123.076 336.292 157.519 336.292C191.961 336.292 219.858 336.377 219.858 336.475Z" fill="#263238"/>
<path d="M216.077 325.383C216.077 325.481 188.155 325.566 153.737 325.566C119.319 325.566 91.3857 325.481 91.3857 325.383C91.3857 325.285 119.295 325.199 153.737 325.199C188.18 325.199 216.077 325.285 216.077 325.383Z" fill="#263238"/>
<path d="M67.7719 346.163C67.7719 346.261 54.7046 346.346 38.5906 346.346C22.4766 346.346 9.40918 346.261 9.40918 346.163C9.40918 346.065 22.4766 345.979 38.5906 345.979C54.7046 345.979 67.7719 346.065 67.7719 346.163Z" fill="#263238"/>
<path d="M67.7719 313.374C67.7719 313.472 54.7046 313.558 38.5906 313.558C22.4766 313.558 9.40918 313.472 9.40918 313.374C9.40918 313.276 22.4766 313.19 38.5906 313.19C54.7046 313.19 67.7719 313.276 67.7719 313.374Z" fill="#263238"/>
<path d="M123.296 290.407V302.453L127.48 299.777L132.142 302.453V290.407H123.296Z" fill="#FF725E"/>
<path d="M89.2081 284.275H28.3371C18.6344 284.275 10.7793 276.09 10.7793 265.987C10.7793 255.884 18.6466 247.699 28.3371 247.699H89.2081C90.5051 247.699 91.5451 248.786 91.5451 250.13V281.831C91.5451 283.175 90.4928 284.262 89.2081 284.262V284.275Z" fill="#FF725E"/>
<path d="M214.584 253.77H74.0488V247.699H214.572C216.187 247.699 217.484 249.055 217.484 250.728C217.484 252.402 216.175 253.758 214.572 253.758L214.584 253.77Z" fill="#FF725E"/>
<path d="M214.584 284.274H74.0488V278.203H214.572C216.187 278.203 217.484 279.559 217.484 281.233C217.484 282.906 216.175 284.262 214.572 284.262L214.584 284.274Z" fill="#FF725E"/>
<path d="M213.213 278.203H90.0521C83.5796 278.203 78.3184 272.73 78.3184 265.987C78.3184 259.243 83.5673 253.77 90.0521 253.77H213.213C209.91 261.919 209.91 270.055 213.213 278.203Z" fill="#F5F5F5"/>
<g opacity="0.4">
<path d="M78.3308 284.275H28.1535C18.561 284.275 10.7793 276.175 10.7793 266.182C10.7793 255.981 18.7201 247.699 28.5206 247.699H79.6645C66.9519 255.725 67.8941 274.929 78.3308 284.262V284.275Z" fill="black"/>
</g>
<path d="M198.25 267.123C198.25 267.221 172.972 267.294 141.796 267.294C110.62 267.294 85.3418 267.221 85.3418 267.123C85.3418 267.025 110.62 266.952 141.796 266.952C172.972 266.952 198.25 267.025 198.25 267.123Z" fill="#263238"/>
<path d="M209.873 272.547C209.873 272.645 184.595 272.718 153.419 272.718C122.243 272.718 96.9648 272.645 96.9648 272.547C96.9648 272.449 122.243 272.376 153.419 272.376C184.595 272.376 209.873 272.449 209.873 272.547Z" fill="#263238"/>
<path d="M206.447 262.078C206.447 262.176 181.169 262.249 149.993 262.249C118.817 262.249 93.5391 262.176 93.5391 262.078C93.5391 261.98 118.817 261.906 149.993 261.906C181.169 261.906 206.447 261.98 206.447 262.078Z" fill="#263238"/>
<path d="M72.1518 281.709C72.1518 281.807 60.3202 281.881 45.7233 281.881C31.1265 281.881 19.2949 281.807 19.2949 281.709C19.2949 281.612 31.1265 281.538 45.7233 281.538C60.3202 281.538 72.1518 281.612 72.1518 281.709Z" fill="#263238"/>
<path d="M72.1518 250.741C72.1518 250.839 60.3202 250.912 45.7233 250.912C31.1265 250.912 19.2949 250.839 19.2949 250.741C19.2949 250.643 31.1265 250.57 45.7233 250.57C60.3202 250.57 72.1518 250.643 72.1518 250.741Z" fill="#263238"/>
<path d="M228.275 239.147H10.7793V247.711H228.275V239.147Z" fill="white"/>
<path d="M228.3 247.736H10.7422V239.111H228.3V247.736ZM10.8034 247.675H228.238V239.172H10.8034V247.675Z" fill="#263238"/>
<path d="M106.338 239.16C107.769 240.015 156.026 262.847 156.026 262.847L204.16 238.292L106.338 239.16Z" fill="#E0E0E0"/>
<path d="M106.338 239.16C107.99 239.135 117.435 239.013 134.602 238.781C152.306 238.573 176.814 238.292 204.16 237.975H205.518L204.307 238.573C202.716 239.392 201.003 240.259 199.29 241.139C183.617 249.116 168.861 256.629 156.16 263.104L156.038 263.165L155.916 263.104C141.111 256.03 128.704 250.093 119.968 245.915C115.649 243.814 112.248 242.153 109.886 241.004C108.748 240.43 107.867 239.99 107.243 239.673C106.937 239.514 106.705 239.367 106.558 239.294C106.472 239.245 106.411 239.208 106.35 239.172C108.528 240.198 126.759 248.774 156.16 262.603H155.916C168.604 256.116 183.347 248.578 199.009 240.577C200.734 239.697 202.435 238.83 204.025 238.011L204.172 238.61C176.973 238.781 152.588 238.927 134.969 239.037C117.582 239.111 108.014 239.16 106.338 239.172V239.16Z" fill="#263238"/>
<path d="M78.3308 239.147H10.7793V247.711H78.3308V239.147Z" fill="#E0E0E0"/>
<path d="M78.3672 247.736H10.7422V239.111H78.3549V247.736H78.3672ZM10.8034 247.675H78.2937V239.172H10.8034V247.675Z" fill="#263238"/>
<path d="M613.078 422.552L468.321 421.868C468.321 421.868 469.276 424.482 463.28 424.482L415.428 424.164C415.428 424.164 411.892 424.482 411.83 421.868C411.83 421.868 299.607 423.627 271.894 424.36C269.814 424.409 266.144 423.236 267.881 420.78L277.547 409.957L437.659 395.444L551.24 406.585L590.186 393.452H591.47C592.535 393.452 593.538 393.929 594.162 394.735L614.167 420.695C614.73 421.489 614.118 422.552 613.09 422.54L613.078 422.552Z" fill="#455A64"/>
<g opacity="0.2">
<path d="M551.877 419.461L294.004 421.33L354.655 403.787L430.257 405.767L505.896 402.957L551.877 419.461Z" fill="black"/>
</g>
<path d="M439.09 414.709L437.647 385.084C437.647 385.084 437.353 368.788 458.373 363.364C479.394 357.927 505.59 364.842 530.073 366.076C554.544 367.309 554.262 365.587 554.262 365.587L574.132 394.222L496.107 404.838C496.107 404.838 450.898 407.306 450.041 407.55C449.172 407.794 439.103 414.709 439.103 414.709H439.09Z" fill="#FAFAFA"/>
<path d="M439.347 415.759L437.659 387.918C437.659 387.918 437.953 371.622 416.932 366.198C395.912 360.761 369.716 367.676 345.233 368.91C328.116 369.777 322.805 369.631 321.154 369.459C320.677 369.411 320.212 369.618 319.967 369.973L301.186 397.056L379.211 407.672C379.211 407.672 424.42 410.14 425.277 410.384C426.145 410.629 439.347 415.759 439.347 415.759Z" fill="#FAFAFA"/>
<path d="M608.11 420.39L574.133 394.222C574.133 394.222 503.755 383.117 479.859 387.063C455.963 391.009 442.37 398.669 439.091 414.966L462.008 420.402C462.008 420.402 475.259 413.487 492.535 413.243C509.811 412.999 553.002 420.402 553.002 420.402H608.11V420.39Z" fill="#E0E0E0"/>
<path d="M414.779 420.389L438.969 414.709C438.969 414.709 437.243 388.822 397.956 384.498C397.956 384.498 386.858 381.138 347.411 388.041C307.964 394.943 303.939 394.711 303.939 394.711L271.111 421.868C271.111 421.868 290.688 423.346 306.814 420.389C322.94 417.433 351.155 407.306 381.682 410.262C412.21 413.231 414.791 420.389 414.791 420.389H414.779Z" fill="#E0E0E0"/>
<path d="M574.133 394.222L554.911 366.503L589.023 391.913L610.57 420.39H608.111L574.133 394.222Z" fill="#E0E0E0"/>
<path d="M304.049 394.711L319.71 370.131C319.71 370.131 288.498 395.468 288.229 396.177C287.947 396.885 271.222 421.868 271.222 421.868L304.049 394.711Z" fill="#E0E0E0"/>
<path d="M463.281 420.39H414.914L439.091 414.709L440.364 414.953" fill="#263238"/>
<path d="M439.09 414.709C439.249 414.709 439.09 408.234 438.723 400.269C438.356 392.304 437.94 385.854 437.781 385.854C437.622 385.854 437.781 392.328 438.148 400.294C438.515 408.259 438.931 414.709 439.09 414.709Z" fill="#263238"/>
<path d="M540.241 389.641C540.241 389.641 540.461 389.702 540.902 389.775C541.391 389.849 542.028 389.958 542.823 390.081C544.56 390.337 546.983 390.691 549.968 391.131C556.098 391.986 564.541 393.159 574.109 394.479L573.974 394.43C575.467 395.505 577.021 396.616 578.611 397.765C587.384 404.032 595.337 409.7 601.137 413.854C604 415.869 606.337 417.506 608.001 418.679C608.784 419.217 609.408 419.644 609.885 419.974C610.325 420.267 610.558 420.414 610.57 420.389C610.57 420.377 610.374 420.206 609.958 419.876C609.493 419.534 608.894 419.07 608.135 418.508C606.484 417.299 604.196 415.613 601.381 413.548C595.594 409.37 587.69 403.653 578.954 397.337C577.363 396.201 575.797 395.077 574.317 394.002L574.256 393.953H574.182C564.614 392.683 556.159 391.583 550.017 390.777C547.02 390.411 544.597 390.105 542.847 389.897C542.052 389.812 541.404 389.739 540.914 389.678C540.474 389.629 540.241 389.616 540.241 389.641Z" fill="#263238"/>
<path d="M442.272 399.17C442.272 399.17 442.358 399.109 442.493 398.962C442.652 398.791 442.835 398.571 443.08 398.302C443.594 397.728 444.377 396.885 445.454 395.871C447.607 393.856 451.021 391.168 455.878 388.81C460.699 386.416 466.927 384.461 474.06 383.374C481.181 382.25 489.158 381.957 497.503 381.92C514.216 381.835 529.303 383.337 540.119 384.925C545.527 385.72 549.883 386.501 552.88 387.051C554.349 387.332 555.499 387.552 556.331 387.711C556.698 387.772 556.991 387.833 557.236 387.87C557.444 387.906 557.542 387.918 557.542 387.906C557.542 387.906 557.444 387.87 557.248 387.821C557.016 387.76 556.722 387.699 556.355 387.613C555.572 387.442 554.422 387.161 552.917 386.856C549.919 386.233 545.576 385.39 540.168 384.559C529.364 382.873 514.241 381.297 497.491 381.383C489.134 381.419 481.132 381.737 473.962 382.885C466.792 384.009 460.515 386.013 455.682 388.468C450.813 390.887 447.411 393.648 445.295 395.725C444.242 396.763 443.484 397.63 442.994 398.229C442.774 398.51 442.591 398.742 442.456 398.925C442.334 399.084 442.285 399.17 442.285 399.17H442.272Z" fill="#263238"/>
<path d="M442.272 395.554C442.272 395.554 442.346 395.493 442.468 395.358C442.615 395.199 442.786 394.992 443.019 394.747C443.251 394.479 443.557 394.149 443.924 393.77C444.279 393.379 444.707 392.952 445.209 392.487C447.167 390.594 450.323 388.077 454.74 385.768C459.145 383.435 464.835 381.432 471.405 380.21C477.963 378.964 485.341 378.487 493.074 378.353C508.564 378.035 522.573 379.098 532.631 380.295C537.66 380.894 541.722 381.48 544.524 381.92C545.894 382.14 546.971 382.299 547.754 382.421C548.096 382.47 548.378 382.507 548.598 382.543C548.794 382.568 548.892 382.58 548.892 382.568C548.892 382.568 548.794 382.531 548.61 382.494C548.39 382.446 548.121 382.397 547.778 382.323C547.044 382.177 545.967 381.957 544.572 381.713C541.783 381.212 537.733 380.564 532.692 379.917C522.634 378.61 508.588 377.498 493.062 377.816C485.317 377.95 477.902 378.439 471.295 379.733C464.688 380.992 458.949 383.056 454.532 385.439C450.103 387.809 446.971 390.386 445.038 392.341C444.548 392.817 444.132 393.269 443.79 393.66C443.435 394.051 443.141 394.393 442.933 394.674C442.725 394.931 442.566 395.151 442.432 395.322C442.321 395.468 442.272 395.541 442.272 395.554Z" fill="#263238"/>
<path d="M442.272 391.938C442.272 391.938 442.345 391.877 442.468 391.742C442.614 391.583 442.786 391.388 443.006 391.144C443.238 390.875 443.532 390.545 443.899 390.179C444.254 389.8 444.67 389.372 445.172 388.908C447.117 387.027 450.225 384.535 454.593 382.238C458.949 379.929 464.577 377.901 471.074 376.667C477.571 375.409 484.875 374.908 492.535 374.761C507.878 374.419 521.765 375.421 531.737 376.582C536.729 377.156 540.754 377.73 543.52 378.158C544.878 378.365 545.942 378.524 546.713 378.646C547.056 378.695 547.325 378.732 547.545 378.768C547.729 378.793 547.827 378.793 547.839 378.793C547.839 378.793 547.753 378.756 547.557 378.72C547.337 378.671 547.068 378.622 546.738 378.549C546.016 378.414 544.939 378.194 543.556 377.962C540.791 377.474 536.778 376.838 531.786 376.215C521.814 374.957 507.902 373.882 492.523 374.224C484.851 374.371 477.498 374.884 470.964 376.191C464.43 377.461 458.753 379.538 454.385 381.908C450.005 384.266 446.909 386.831 445 388.774C444.511 389.25 444.107 389.69 443.765 390.093C443.41 390.484 443.128 390.814 442.908 391.095C442.712 391.351 442.541 391.559 442.406 391.73C442.296 391.877 442.247 391.95 442.26 391.962L442.272 391.938Z" fill="#263238"/>
<path d="M442.272 388.321C442.272 388.321 442.345 388.26 442.468 388.126C442.614 387.967 442.786 387.772 442.994 387.54C443.446 387.014 444.144 386.257 445.098 385.341C446.995 383.496 449.943 380.955 454.091 378.512C458.227 376.068 463.574 373.674 469.924 372.452C476.262 371.133 483.444 371.072 490.944 371.157C505.969 371.243 519.563 371.842 529.351 372.807C534.245 373.271 538.197 373.76 540.914 374.138C542.235 374.321 543.287 374.468 544.046 374.578C544.376 374.615 544.645 374.651 544.866 374.676C545.049 374.7 545.147 374.7 545.147 374.688C545.147 374.688 545.061 374.651 544.878 374.615C544.658 374.578 544.401 374.517 544.07 374.456C543.361 374.334 542.308 374.126 540.95 373.918C538.234 373.479 534.294 372.929 529.388 372.416C519.6 371.353 505.982 370.693 490.944 370.608C483.444 370.522 476.201 370.608 469.802 371.952C463.39 373.222 457.982 375.678 453.859 378.182C449.711 380.698 446.775 383.288 444.927 385.194C443.997 386.147 443.324 386.929 442.896 387.478C442.7 387.735 442.541 387.943 442.406 388.102C442.296 388.248 442.247 388.321 442.26 388.321H442.272Z" fill="#263238"/>
<path d="M442.272 384.706C442.272 384.706 442.345 384.645 442.467 384.51C442.602 384.351 442.773 384.156 442.981 383.924C443.434 383.398 444.107 382.629 445.012 381.688C446.823 379.795 449.576 377.107 453.602 374.542C455.62 373.271 457.933 372.025 460.588 371.035C463.231 370.034 466.192 369.276 469.361 368.739C475.699 367.639 482.807 367.334 490.247 367.517C505.149 367.933 518.596 369.276 528.348 369.973C533.217 370.339 537.169 370.608 539.898 370.754C541.231 370.816 542.271 370.864 543.042 370.901C543.373 370.901 543.642 370.913 543.862 370.926C544.046 370.926 544.143 370.926 544.143 370.926C544.143 370.926 544.046 370.901 543.862 370.877C543.642 370.852 543.373 370.828 543.042 370.803C542.284 370.742 541.231 370.657 539.91 370.559C537.133 370.327 533.205 370.009 528.372 369.606C518.633 368.8 505.198 367.395 490.259 366.98C482.795 366.796 475.637 367.114 469.251 368.25C466.057 368.812 463.072 369.594 460.392 370.62C457.713 371.634 455.376 372.929 453.357 374.224C449.319 376.863 446.591 379.599 444.829 381.554C443.948 382.531 443.299 383.325 442.883 383.863C442.688 384.119 442.541 384.315 442.406 384.486C442.308 384.632 442.247 384.706 442.259 384.706H442.272Z" fill="#263238"/>
<path d="M435.286 398.168C435.286 398.168 435.237 398.082 435.114 397.924C434.967 397.74 434.784 397.52 434.564 397.239C434.062 396.641 433.291 395.798 432.214 394.772C430.061 392.732 426.598 390.032 421.68 387.698C416.798 385.316 410.484 383.423 403.29 382.421C396.096 381.395 388.094 381.212 379.737 381.321C362.987 381.517 347.9 383.349 337.133 385.231C331.738 386.159 327.418 387.075 324.433 387.747C322.94 388.077 321.79 388.37 321.019 388.566C320.652 388.663 320.371 388.737 320.138 388.798C319.943 388.847 319.845 388.883 319.845 388.896C319.845 388.908 319.955 388.896 320.151 388.859C320.383 388.81 320.677 388.761 321.044 388.688C321.876 388.517 323.026 388.273 324.482 387.967C327.48 387.356 331.811 386.501 337.207 385.622C347.986 383.85 363.036 382.079 379.749 381.883C388.094 381.773 396.071 381.932 403.217 382.934C410.362 383.899 416.639 385.744 421.496 388.053C426.39 390.325 429.865 392.951 432.055 394.93C433.157 395.92 433.952 396.751 434.478 397.313C434.723 397.581 434.918 397.789 435.078 397.96C435.212 398.107 435.286 398.18 435.298 398.168H435.286Z" fill="#263238"/>
<path d="M435.212 394.564C435.212 394.564 435.163 394.478 435.053 394.332C434.919 394.161 434.747 393.953 434.539 393.697C434.319 393.416 434.026 393.086 433.659 392.695C433.304 392.304 432.888 391.864 432.386 391.388C430.428 389.47 427.235 386.941 422.769 384.644C418.315 382.323 412.528 380.369 405.909 379.22C399.277 378.047 391.862 377.681 384.105 377.681C368.578 377.632 354.569 378.988 344.524 380.466C339.507 381.199 335.457 381.92 332.68 382.47C331.285 382.739 330.221 382.971 329.486 383.129C329.156 383.203 328.875 383.264 328.654 383.313C328.471 383.362 328.373 383.386 328.373 383.398C328.373 383.398 328.471 383.398 328.667 383.374C328.887 383.337 329.168 383.288 329.511 383.239C330.294 383.105 331.358 382.922 332.729 382.677C335.519 382.189 339.568 381.529 344.585 380.845C354.618 379.465 368.603 378.17 384.105 378.218C391.838 378.218 399.228 378.573 405.811 379.709C412.393 380.821 418.132 382.726 422.573 384.974C427.039 387.21 430.233 389.665 432.227 391.522C432.741 391.986 433.169 392.402 433.536 392.78C433.915 393.147 434.221 393.464 434.454 393.745C434.674 393.99 434.858 394.185 435.017 394.344C435.139 394.478 435.212 394.54 435.225 394.54L435.212 394.564Z" fill="#263238"/>
<path d="M435.139 390.948C435.139 390.948 435.09 390.862 434.98 390.728C434.845 390.557 434.674 390.349 434.466 390.105C434.246 389.824 433.952 389.494 433.597 389.115C433.242 388.725 432.826 388.297 432.337 387.821C430.391 385.915 427.247 383.41 422.818 381.126C418.413 378.829 412.699 376.838 406.129 375.69C399.571 374.505 392.217 374.114 384.533 374.102C369.153 374.028 355.266 375.335 345.319 376.765C340.339 377.473 336.338 378.17 333.585 378.707C332.203 378.964 331.138 379.196 330.416 379.355C330.086 379.428 329.817 379.489 329.596 379.538C329.413 379.587 329.315 379.611 329.327 379.623C329.327 379.623 329.425 379.623 329.609 379.599C329.829 379.562 330.098 379.526 330.441 379.465C331.211 379.33 332.276 379.147 333.622 378.927C336.387 378.463 340.4 377.815 345.38 377.156C355.327 375.824 369.19 374.578 384.533 374.664C392.193 374.676 399.509 375.054 406.031 376.203C412.552 377.314 418.217 379.245 422.622 381.48C427.039 383.704 430.196 386.147 432.178 387.992C432.679 388.444 433.108 388.871 433.475 389.238C433.842 389.604 434.148 389.922 434.38 390.191C434.6 390.435 434.784 390.63 434.931 390.789C435.053 390.924 435.127 390.985 435.139 390.985V390.948Z" fill="#263238"/>
<path d="M435.065 384.705C435.065 384.705 434.258 383.496 432.275 381.737C430.318 379.965 427.027 377.815 422.548 376.007C420.309 375.091 417.801 374.248 415.073 373.442C412.344 372.648 409.42 371.781 406.226 371.267C399.864 370.156 392.731 370.253 385.341 370.473C370.487 370.913 357.162 372.623 347.521 373.674C342.737 374.212 338.846 374.651 336.105 374.957C334.796 375.103 333.756 375.213 332.998 375.299C332.667 375.335 332.41 375.372 332.19 375.397C332.007 375.421 331.921 375.445 331.921 375.445C331.921 375.445 332.019 375.445 332.202 375.445C332.423 375.433 332.692 375.421 333.01 375.397C333.768 375.335 334.808 375.25 336.13 375.152C338.834 374.92 342.749 374.541 347.57 374.041C357.224 373.075 370.548 371.438 385.353 370.999C392.743 370.779 399.827 370.681 406.128 371.744C409.285 372.232 412.185 373.075 414.926 373.857C417.642 374.651 420.15 375.47 422.377 376.349C426.843 378.096 430.122 380.173 432.116 381.883C432.63 382.299 433.059 382.69 433.413 383.044C433.793 383.386 434.086 383.691 434.319 383.948C434.539 384.18 434.71 384.363 434.857 384.51C434.98 384.632 435.053 384.693 435.053 384.693L435.065 384.705Z" fill="#263238"/>
<path d="M386.724 394.124V411.704L380.484 406.438L374.378 411.435L374.023 394.32C374.023 394.32 384.056 393.819 386.724 394.137V394.124Z" fill="#FF725E"/>
<path d="M316.137 404.337C316.137 404.337 316.247 404.337 316.455 404.288C316.7 404.239 316.994 404.166 317.373 404.093C318.217 403.897 319.404 403.641 320.909 403.299C323.98 402.615 328.422 401.674 333.964 400.66C339.495 399.634 346.114 398.559 353.467 397.435C357.15 396.873 361.017 396.274 365.018 395.663C369.006 394.979 373.166 394.576 377.461 394.417C381.756 394.271 385.952 394.307 389.99 394.588C394.028 394.857 397.906 395.346 401.504 396.189C408.722 397.875 414.718 400.904 419.147 404.117C421.374 405.718 423.27 407.318 424.849 408.784C426.439 410.25 427.748 411.581 428.801 412.669C429.816 413.756 430.624 414.599 431.199 415.222C431.456 415.491 431.664 415.711 431.823 415.882C431.97 416.028 432.043 416.101 432.055 416.089C432.055 416.089 432.006 416.004 431.872 415.845C431.725 415.662 431.529 415.43 431.284 415.149C430.771 414.538 429.987 413.658 428.972 412.534C427.932 411.423 426.659 410.067 425.081 408.576C423.515 407.074 421.631 405.449 419.404 403.812C414.975 400.538 408.918 397.435 401.638 395.712C398.004 394.845 394.089 394.344 390.027 394.063C385.965 393.77 381.743 393.733 377.437 393.88C373.13 394.039 368.921 394.466 364.92 395.15C360.919 395.773 357.052 396.384 353.382 396.958C346.028 398.107 339.409 399.218 333.879 400.293C328.348 401.356 323.907 402.358 320.848 403.103C319.318 403.47 318.144 403.787 317.336 403.995C316.969 404.093 316.663 404.178 316.431 404.239C316.223 404.3 316.125 404.337 316.125 404.337H316.137Z" fill="#263238"/>
<path d="M447.35 416.358C447.35 416.358 447.448 416.272 447.631 416.101C447.827 415.906 448.084 415.637 448.402 415.307C448.745 414.965 449.136 414.513 449.65 414.025C450.176 413.536 450.776 412.986 451.449 412.363C454.202 409.908 458.582 406.695 464.663 403.8C470.744 400.929 478.526 398.485 487.457 397.337C496.389 396.152 506.373 396.36 516.7 397.533C527.039 398.73 536.766 400.648 545.624 402.358C554.471 404.081 562.473 405.546 569.251 406.45C576.029 407.367 581.56 407.758 585.377 407.868C587.286 407.916 588.779 407.941 589.782 407.916C590.259 407.916 590.638 407.904 590.932 407.892C591.189 407.892 591.324 407.88 591.324 407.868C591.324 407.868 591.189 407.843 590.932 407.843C590.638 407.843 590.271 407.819 589.782 407.807C588.779 407.807 587.298 407.745 585.389 407.66C581.572 407.489 576.066 407.037 569.312 406.072C562.558 405.119 554.581 403.616 545.735 401.869C536.888 400.135 527.149 398.192 516.773 396.995C506.41 395.822 496.365 395.627 487.384 396.848C478.403 398.033 470.573 400.538 464.479 403.47C458.386 406.426 454.018 409.712 451.302 412.229C450.641 412.864 450.042 413.438 449.528 413.939C449.026 414.44 448.647 414.904 448.316 415.259C448.011 415.601 447.766 415.882 447.582 416.077C447.423 416.26 447.338 416.358 447.35 416.37V416.358Z" fill="#263238"/>
<path d="M447.35 419.999C447.35 419.999 447.448 419.913 447.631 419.742C447.827 419.547 448.084 419.278 448.402 418.948C448.745 418.606 449.136 418.154 449.65 417.665C450.176 417.177 450.776 416.627 451.449 416.004C454.202 413.548 458.582 410.335 464.663 407.44C470.744 404.569 478.526 402.126 487.457 400.978C496.389 399.793 506.373 400 516.7 401.173C527.039 402.37 536.766 404.288 545.624 405.999C554.471 407.721 562.473 409.187 569.251 410.091C576.029 411.007 581.56 411.398 585.377 411.508C587.286 411.557 588.779 411.582 589.782 411.557C590.259 411.557 590.638 411.545 590.932 411.533C591.189 411.533 591.324 411.52 591.324 411.508C591.324 411.508 591.189 411.484 590.932 411.484C590.638 411.484 590.271 411.459 589.782 411.447C588.779 411.447 587.298 411.386 585.389 411.301C581.572 411.13 576.066 410.678 569.312 409.712C562.558 408.76 554.581 407.257 545.735 405.51C536.888 403.775 527.149 401.833 516.773 400.636C506.41 399.463 496.365 399.267 487.384 400.489C478.403 401.674 470.573 404.178 464.479 407.11C458.386 410.067 454.018 413.353 451.302 415.869C450.641 416.505 450.042 417.079 449.528 417.58C449.026 418.081 448.647 418.545 448.316 418.899C448.011 419.241 447.766 419.522 447.582 419.718C447.423 419.901 447.338 419.999 447.35 420.011V419.999Z" fill="#263238"/>
<path d="M458.802 416.908C458.802 416.908 459.034 416.774 459.426 416.48C459.83 416.199 460.368 415.735 461.151 415.21C462.656 414.123 464.932 412.669 467.929 411.178C470.927 409.688 474.671 408.234 478.99 407.086C483.309 405.938 488.191 405.144 493.354 404.789C503.718 404.142 513.115 405.205 519.856 406.023C523.184 406.463 525.888 406.817 527.846 407.074C528.739 407.184 529.461 407.281 530.024 407.355C530.526 407.416 530.783 407.44 530.783 407.416C530.783 407.391 530.526 407.342 530.036 407.245C529.486 407.147 528.764 407.025 527.883 406.866C526.011 406.548 523.282 406.109 519.917 405.644C513.188 404.74 503.755 403.604 493.318 404.252C488.105 404.606 483.187 405.424 478.843 406.609C474.5 407.794 470.719 409.285 467.734 410.836C464.736 412.376 462.472 413.89 461.004 415.039C460.246 415.588 459.719 416.077 459.352 416.395C458.985 416.712 458.802 416.883 458.814 416.896L458.802 416.908Z" fill="#263238"/>
<path d="M437.72 386.501C437.72 386.501 437.659 386.403 437.574 386.208C437.476 385.976 437.353 385.683 437.206 385.316C436.888 384.485 436.436 383.337 435.873 381.883C434.796 378.927 432.361 374.749 427.565 371.634C422.842 368.458 416.198 366.417 408.735 365.489C401.247 364.536 392.914 364.573 384.227 365.22C379.884 365.55 375.638 366.002 371.564 366.527C367.489 367.04 363.537 367.615 359.756 367.896C352.207 368.519 345.392 368.8 339.666 369.032C333.94 369.252 329.315 369.374 326.109 369.447C324.543 369.472 323.319 369.484 322.426 369.496C322.035 369.496 321.717 369.496 321.472 369.496C321.252 369.496 321.142 369.484 321.142 369.472C321.142 369.472 321.252 369.447 321.472 369.435C321.729 369.423 322.035 369.398 322.426 369.374C323.319 369.337 324.543 369.276 326.109 369.203C329.352 369.056 333.964 368.849 339.654 368.592C345.368 368.299 352.171 367.969 359.708 367.321C363.476 367.016 367.391 366.442 371.49 365.917C375.577 365.391 379.822 364.927 384.191 364.597C392.902 363.95 401.296 363.925 408.833 364.915C416.345 365.892 423.062 367.993 427.834 371.267C432.692 374.48 435.114 378.805 436.13 381.81C436.644 383.288 437.06 384.449 437.353 385.28C437.476 385.646 437.574 385.951 437.659 386.184C437.72 386.391 437.757 386.501 437.745 386.501H437.72Z" fill="#263238"/>
<path d="M437.867 386.208C437.867 386.208 437.855 386.098 437.867 385.866C437.879 385.609 437.904 385.28 437.916 384.889C437.965 384.021 438.124 382.751 438.503 381.15C438.895 379.55 439.495 377.608 440.571 375.519C441.623 373.442 443.202 371.157 445.6 369.398C450.213 365.685 456.869 362.838 464.553 361.494C472.224 360.089 480.862 359.955 489.806 360.7C494.285 361.067 498.628 361.641 502.8 362.313C506.985 362.972 510.974 363.803 514.803 364.39C522.463 365.575 529.449 366.002 535.298 366.149C541.158 366.271 545.906 366.1 549.185 365.917C550.788 365.807 552.048 365.721 552.953 365.66C553.357 365.636 553.675 365.611 553.932 365.587C554.152 365.575 554.262 365.575 554.262 365.587C554.262 365.587 554.152 365.623 553.932 365.66C553.675 365.697 553.357 365.746 552.953 365.794C552.097 365.904 550.824 366.027 549.185 366.161C545.906 366.43 541.158 366.662 535.273 366.601C529.4 366.515 522.389 366.137 514.693 364.976C510.839 364.414 506.85 363.583 502.678 362.936C498.506 362.276 494.174 361.714 489.721 361.348C480.826 360.603 472.236 360.712 464.626 362.081C457.016 363.376 450.433 366.149 445.845 369.765C443.471 371.475 441.929 373.662 440.853 375.702C439.764 377.742 439.14 379.66 438.711 381.224C438.308 382.8 438.112 384.058 438.014 384.913C437.965 385.316 437.928 385.634 437.904 385.89C437.879 386.11 437.855 386.22 437.843 386.22L437.867 386.208Z" fill="#263238"/>
<path d="M324.286 175.72C324.286 175.72 332.631 172.764 346.163 170.259C359.708 167.755 406.52 167.279 406.52 167.279C406.52 167.279 410.827 211.025 450.555 215.716C465.336 217.463 480.238 196.83 480.238 196.83C480.238 196.83 507.45 210.659 515.464 216.926C515.464 216.926 517.116 293.913 515.464 309.245C513.812 324.576 506.067 356.18 506.067 356.18H315.146V280.146L324.286 175.72Z" fill="#FF725E"/>
<path d="M341.355 265.022C328.728 287.146 311.134 311.517 311.134 311.517L236.804 276.2C236.804 274.514 279.738 202.596 296.353 189.952C312.957 177.308 330.882 170.553 343.117 173.937" fill="#FF725E"/>
<path d="M343.105 173.937C343.105 173.937 342.848 173.9 342.358 173.802C341.857 173.729 341.147 173.497 340.168 173.411C338.235 173.13 335.335 173.045 331.652 173.533C327.982 174.034 323.552 175.183 318.658 177.149C313.776 179.129 308.442 181.95 302.887 185.579C301.529 186.519 300.097 187.448 298.715 188.486C298.017 188.999 297.308 189.525 296.598 190.05C295.913 190.612 295.215 191.162 294.555 191.772C291.912 194.228 289.416 197.062 286.932 200.067C282.001 206.114 277.095 212.87 272.103 220.09C262.155 234.554 251.743 250.851 241.453 268.308C240.682 269.652 239.911 270.983 239.153 272.303C238.786 272.975 238.419 273.634 238.052 274.294L237.525 275.296C237.366 275.613 237.183 276.004 237.109 276.187L236.926 275.907C265.116 289.332 290.872 301.598 311.231 311.285L310.926 311.358C320.812 297.542 328.41 285.924 333.537 277.788C336.094 273.708 338.039 270.507 339.336 268.32C339.985 267.245 340.474 266.414 340.817 265.828C341.159 265.266 341.343 264.985 341.343 264.985C341.343 264.985 341.196 265.29 340.878 265.865C340.547 266.451 340.07 267.294 339.458 268.393C338.198 270.605 336.289 273.83 333.769 277.934C328.704 286.119 321.179 297.774 311.329 311.639L311.207 311.81L311.023 311.725C290.639 302.062 264.872 289.845 236.657 276.468L236.437 276.359L236.473 276.175C236.608 275.626 236.804 275.357 236.963 274.99L237.501 273.976C237.868 273.304 238.235 272.645 238.614 271.973C239.373 270.641 240.144 269.31 240.915 267.966C251.217 250.496 261.641 234.212 271.638 219.736C276.654 212.516 281.573 205.76 286.553 199.713C289.061 196.708 291.557 193.861 294.249 191.394C294.922 190.771 295.631 190.209 296.329 189.647C297.051 189.121 297.76 188.596 298.458 188.083C299.852 187.045 301.296 186.116 302.667 185.176C308.258 181.56 313.617 178.738 318.548 176.783C323.479 174.841 327.933 173.717 331.64 173.252C335.347 172.8 338.272 172.935 340.205 173.252C341.184 173.362 341.893 173.607 342.395 173.704C342.884 173.827 343.129 173.9 343.129 173.9L343.105 173.937Z" fill="#263238"/>
<path d="M345.968 177.333C345.968 177.333 346.225 177.491 346.678 177.833C347.142 178.175 347.779 178.725 348.562 179.47C350.116 180.973 352.208 183.392 354.043 186.837C355.891 190.257 357.457 194.704 358.142 199.811C358.84 204.917 358.668 210.622 357.787 216.474C355.964 228.201 352.391 238.402 349.284 245.488C347.73 249.043 346.298 251.828 345.258 253.734C344.744 254.687 344.316 255.42 344.035 255.908C343.741 256.397 343.582 256.653 343.558 256.641C343.533 256.641 343.668 256.36 343.912 255.847C344.194 255.285 344.573 254.54 345.026 253.624C345.992 251.694 347.363 248.872 348.855 245.317C351.853 238.219 355.34 228.043 357.151 216.388C358.032 210.573 358.216 204.929 357.555 199.896C356.906 194.851 355.414 190.453 353.639 187.045C351.878 183.624 349.871 181.193 348.378 179.641C346.873 178.102 345.907 177.369 345.956 177.32L345.968 177.333Z" fill="#263238"/>
<path d="M535.053 321.205L568.309 353.529L615.072 327.02L567.795 246.392L524.029 216.926L516.871 312.495L535.053 321.205Z" fill="#FF725E"/>
<path d="M582.612 153.975C576.727 111.682 561.445 68.9492 538.687 30.9441L532.802 55.2791C540.131 74.9352 546.016 95.1288 550.421 115.64C551.632 121.309 552.745 127.148 551.791 132.877C550.665 139.645 546.762 145.57 543.752 151.739C539.495 160.45 536.876 170.443 539.127 179.886C541.379 189.317 549.54 197.771 559.255 197.991C568.7 198.21 577.008 190.71 580.495 181.938C583.982 173.167 583.921 163.333 582.624 153.987L582.612 153.975Z" fill="#263238"/>
<path d="M405.995 30.9441C389.93 55.0592 373.865 79.1743 357.8 103.289C352.526 111.206 347.106 119.513 345.944 128.944C344.01 144.764 353.799 170.968 369.631 173.069C385.464 175.17 405.713 180.778 407.977 164.994L441.196 54.5828L405.983 30.9319" fill="#263238"/>
<path d="M552.844 279.547C551.547 266.133 545.65 253.685 540.597 241.188C529.181 212.956 521.718 183.123 518.512 152.851L476.948 190.355C478.563 209.572 479.983 229.936 471.283 247.149C468.812 252.036 465.508 256.763 465.104 262.212C464.395 271.924 472.923 279.779 475.321 289.21C477.193 296.613 475.101 304.566 471.32 311.212C467.539 317.857 462.192 323.44 457.029 329.084C454.766 331.552 452.355 334.753 453.42 337.929C454.435 340.983 458.094 342.168 461.287 342.62C472.201 344.135 483.617 341.887 493.136 336.341C493.625 338.552 494.127 340.763 494.616 342.974C510.816 343.133 526.942 336.133 537.893 324.21C548.831 312.287 554.423 295.636 552.857 279.547H552.844Z" fill="#263238"/>
<path d="M414.07 21.9284C434.846 4.42238 459.781 -3.2495 486.589 1.27056C501.712 3.82378 507.365 8.11172 517.679 13.0471C527.994 17.9825 536.705 25.63 541.465 36.0017C547.13 48.328 551.314 61.7415 550.299 75.265C549.259 89.155 548.28 103.167 544.622 116.617C540.902 130.263 528.238 159.717 518.707 168.574L488.706 152.314C469.362 149.394 449.748 146.401 431.836 138.546C413.923 130.691 397.601 117.24 390.615 98.9892C380.924 73.628 393.282 39.41 414.058 21.904L414.07 21.9284Z" fill="#263238"/>
<path d="M477.045 199.371L479.174 185.921C479.174 185.921 510.79 188.669 525.4 153.792C532.667 136.457 538.969 106.649 543.337 82.1061C547.264 60.0067 534.05 26.4728 506.79 21.3053L494.933 17.6404L445.086 27.4379C438.32 26.5339 431.982 30.944 430.502 37.6019L407.071 170.162C406.863 177.956 415.342 196.903 422.586 203.977C441.208 224.366 468.383 218.868 477.058 199.346L477.045 199.371Z" fill="#FFBF9D"/>
<path d="M472.408 135.15C473.02 133.28 474.402 131.79 475.981 130.874C479.137 129.054 483.151 129.567 485.683 132.108C488.216 134.649 489.121 139.071 487.861 142.797C485.806 144.739 483.028 145.79 480.214 145.509C479.774 145.472 479.345 145.399 478.905 145.314C476.813 144.874 474.818 143.762 473.497 141.93C472.188 140.085 471.649 137.458 472.396 135.15H472.408Z" fill="#FF9A6C"/>
<path d="M523.344 107.651C522.83 110.131 520.31 111.743 517.703 111.255C515.109 110.766 513.409 108.371 513.923 105.892C514.437 103.412 516.957 101.799 519.551 102.288C522.157 102.776 523.846 105.171 523.332 107.651H523.344Z" fill="#263238"/>
<path d="M532.741 92.8201C532.019 93.2843 529.119 89.827 524.103 88.6176C519.111 87.3471 514.804 89.0208 514.412 88.2756C514.216 87.9335 515.073 86.9928 516.957 86.211C518.817 85.4291 521.778 84.9649 524.898 85.7346C528.018 86.5164 530.367 88.3 531.591 89.8393C532.839 91.3907 533.096 92.6246 532.753 92.8201H532.741Z" fill="#263238"/>
<path d="M492.793 126.439C492.841 126.146 496.084 126.366 501.296 126.952C502.605 127.136 503.878 127.172 504.306 126.354C504.832 125.499 504.636 123.996 504.379 122.359C503.927 118.975 503.462 115.42 502.972 111.706C501.1 96.5703 500.06 84.2562 500.672 84.1829C501.284 84.1096 503.303 96.326 505.187 111.462C505.615 115.188 506.031 118.743 506.423 122.139C506.557 123.715 506.986 125.56 505.86 127.319C505.285 128.186 504.171 128.65 503.303 128.675C502.422 128.724 501.7 128.565 501.051 128.443C495.9 127.478 492.744 126.733 492.793 126.452V126.439Z" fill="#263238"/>
<path d="M479.235 185.896C479.235 185.896 454.41 181.535 433.744 161.109C433.744 161.109 440.571 189.402 477.767 194.839L479.248 185.884L479.235 185.896Z" fill="#FF9A6C"/>
<path d="M519.38 63.3174C520.872 62.9998 523.148 66.3349 526.757 69.2424C530.269 72.2598 533.964 73.909 533.915 75.4239C533.854 76.1324 532.643 76.6699 530.612 76.4867C528.605 76.3157 525.828 75.2773 523.368 73.2371C520.921 71.197 519.416 68.6682 518.89 66.7258C518.352 64.7712 518.67 63.4885 519.367 63.3052L519.38 63.3174Z" fill="#263238"/>
<path d="M468.113 98.4395C467.514 100.895 469.116 103.424 471.674 104.096C474.231 104.768 476.788 103.314 477.375 100.858C477.975 98.4028 476.372 95.8618 473.815 95.2021C471.258 94.5302 468.7 95.984 468.101 98.4395H468.113Z" fill="#263238"/>
<path d="M464.553 78.1238C465.005 78.8567 469.104 76.951 474.157 77.9894C479.223 78.9545 482.404 82.314 483.077 81.8009C483.407 81.581 483.028 80.3594 481.658 78.8568C480.312 77.3664 477.828 75.6683 474.671 75.0452C471.515 74.4222 468.627 75.0452 466.865 75.9126C465.067 76.7922 464.32 77.7817 464.54 78.1238H464.553Z" fill="#263238"/>
<path d="M488.999 65.9562C487.972 64.7956 484.007 66.0417 479.211 66.1272C474.427 66.3715 470.365 65.4064 469.435 66.6403C469.031 67.2389 469.68 68.3995 471.454 69.4989C473.204 70.5862 476.128 71.4658 479.419 71.3558C482.71 71.2336 485.549 70.1586 487.201 68.9492C488.889 67.7398 489.428 66.5304 488.975 65.9562H488.999Z" fill="#263238"/>
<path d="M425.326 100.37C425.975 97.6698 424.409 90.5355 421.839 89.4726C414.975 86.6262 401.981 84.073 397.442 102.141C391.251 126.83 417.349 127.942 417.581 127.246C417.753 126.696 423.087 109.703 425.339 100.37H425.326Z" fill="#FFBF9D"/>
<path d="M413.018 116.52C412.932 116.41 412.516 116.715 411.696 116.862C410.901 117.008 409.628 116.923 408.454 116.116C406.08 114.504 404.918 109.813 405.921 105.329C406.423 103.069 407.426 101.041 408.674 99.4656C409.885 97.853 411.366 96.8757 412.748 96.9734C414.131 96.9979 414.865 98.0118 415 98.7815C415.159 99.5511 414.877 100.015 415 100.089C415.049 100.174 415.636 99.8076 415.685 98.7448C415.709 98.2317 415.563 97.572 415.098 96.949C414.62 96.3138 413.813 95.8618 412.871 95.7274C410.925 95.3853 408.772 96.7047 407.414 98.4272C405.946 100.137 404.759 102.398 404.196 104.939C403.107 109.959 404.49 115.249 407.805 117.167C409.433 118.059 411.011 117.9 411.904 117.497C412.822 117.082 413.091 116.556 413.018 116.495V116.52Z" fill="#FF9A6C"/>
<path d="M420.799 89.3506L425.926 97.108C458.264 75.9737 524.139 20.2671 520.42 23.6266C520.42 23.6266 503.058 12.412 482 12.0944C460.943 11.7767 420.334 14.782 416.456 38.9215C412.577 63.061 420.811 89.3506 420.811 89.3506H420.799Z" fill="#263238"/>
<path d="M487.679 144.593C487.556 144.52 487.679 144.153 487.715 143.542C487.74 142.944 487.617 142.064 487.055 141.172C486.773 140.732 486.406 140.28 485.941 139.914C485.476 139.56 484.864 139.242 484.179 138.949C482.797 138.387 481.145 137.923 479.432 137.617C475.896 137.055 472.641 136.897 470.28 136.982C467.918 137.055 466.413 137.165 466.365 136.897C466.316 136.652 467.723 136.066 470.145 135.638C472.58 135.198 476.03 135.137 479.75 135.736C481.647 136.078 483.372 136.616 484.901 137.349C485.66 137.715 486.382 138.155 486.993 138.729C487.581 139.303 487.997 139.938 488.266 140.574C488.816 141.832 488.731 143.029 488.437 143.725C488.144 144.434 487.776 144.666 487.679 144.605V144.593Z" fill="#263238"/>
<path d="M434.968 41.1569C435.029 41.2425 433.573 42.1587 431.542 44.0034C429.499 45.8236 426.954 48.6578 424.641 52.1395C422.316 55.6211 420.555 59.005 419.27 61.4361C417.997 63.8794 417.19 65.382 417.104 65.3453C417.067 65.3209 417.214 64.93 417.52 64.2092C417.826 63.5007 418.279 62.4867 418.866 61.2284C420.053 58.7363 421.754 55.3035 424.115 51.7852C426.464 48.2546 429.107 45.4205 431.248 43.6613C432.313 42.7695 433.243 42.122 433.903 41.7189C434.564 41.3158 434.956 41.1203 434.968 41.1569Z" fill="#455A64"/>
<path d="M359.635 128.528C359.635 128.528 359.635 128.418 359.635 128.211C359.647 127.966 359.671 127.649 359.696 127.27C359.733 126.439 359.867 125.218 360.075 123.642C360.516 120.502 361.482 115.994 363.452 110.668C365.434 105.354 368.469 99.2702 372.678 93.0521C376.862 86.8217 382.246 80.5303 388.315 74.3733C394.395 68.2162 400.538 62.7311 406.093 57.7224C411.66 52.7259 416.639 48.1814 420.689 44.2355C424.739 40.2896 427.872 36.9546 429.976 34.5846C430.992 33.424 431.799 32.5078 432.374 31.8481C432.631 31.5549 432.839 31.3228 432.998 31.1396C433.145 30.9808 433.218 30.9075 433.231 30.9075C433.231 30.9075 433.182 31.0052 433.047 31.1762C432.888 31.3717 432.704 31.616 432.472 31.9214C431.958 32.5811 431.175 33.534 430.16 34.7434C428.116 37.1622 425.021 40.5462 421.007 44.5531C416.994 48.5479 412.039 53.129 406.496 58.15C400.954 63.1831 394.836 68.6805 388.779 74.8131C382.735 80.9457 377.364 87.2005 373.179 93.3697C368.97 99.5268 365.912 105.549 363.893 110.815C361.886 116.092 360.858 120.563 360.344 123.666C360.1 125.23 359.928 126.439 359.843 127.27C359.794 127.649 359.757 127.966 359.72 128.211C359.696 128.418 359.671 128.528 359.659 128.528H359.635Z" fill="#455A64"/>
<path d="M556.551 181.34C556.551 181.34 621.668 280.659 627.932 297.847C634.197 315.036 628.312 355.887 605.884 355.802C574.794 355.692 566.927 342.669 558.056 321.327C549.185 299.985 526.941 199.518 526.941 199.518L556.551 181.34Z" fill="#FFBF9D"/>
<path d="M528.055 203.83C525.865 194.705 513.862 179.739 518.719 168.586C522.696 159.448 531.456 147.439 534.332 141.282C537.207 135.125 538.859 116.251 538.859 116.251L540.229 93.4309C540.229 93.4309 534.723 77.8795 538.418 72.5409C540.266 69.8778 542.322 69.8778 543.912 70.5375C545.576 71.2338 546.69 72.8219 547.044 74.5811L547.901 78.9057C547.901 78.9057 550.372 75.6195 554.471 79.321C558.582 83.0104 562.388 107.602 564.076 116.361C565.972 126.207 565.41 131.925 563.795 137.679C561.066 147.403 555.303 167.144 554.887 172.068C554.471 176.991 560.283 187.057 560.283 187.057" fill="#FFBF9D"/>
<path d="M560.283 187.057C560.283 187.057 560.161 186.886 559.965 186.544C559.769 186.202 559.476 185.689 559.108 185.005C558.387 183.636 557.334 181.596 556.245 178.835C555.719 177.455 555.169 175.891 554.863 174.095C554.52 172.275 554.973 170.284 555.389 168.232C556.282 164.103 557.506 159.436 558.913 154.281C560.344 149.137 561.923 143.481 563.623 137.385C564.468 134.356 564.994 131.118 565.006 127.759C565.03 124.399 564.639 120.942 564.003 117.424C562.681 110.387 561.445 102.935 559.745 95.2755C558.876 91.4518 557.958 87.5426 556.576 83.7433C555.829 81.8864 555.12 79.8829 553.382 78.8201C552.575 78.2459 551.633 77.855 550.666 77.855C549.724 77.8672 548.77 78.3559 548.17 79.0644L547.766 79.5409L547.607 78.9301C546.885 76.2302 547.081 72.8463 544.585 71.2215C543.435 70.4397 541.869 70.1587 540.633 70.855C539.385 71.5147 538.467 72.8097 538.015 74.1657C537.501 75.7049 537.427 77.403 537.513 79.04C537.574 80.6892 537.794 82.3384 538.1 83.951C538.688 87.1761 539.544 90.3157 540.547 93.2965L540.572 93.3576V93.4187C540.046 101.701 539.617 109.74 539.067 117.485C538.675 121.345 538.21 125.12 537.648 128.785C537.048 132.45 536.449 136.042 535.347 139.425C534.809 141.136 533.965 142.699 533.121 144.19C532.276 145.692 531.383 147.134 530.514 148.551C528.765 151.373 527.064 154.122 525.412 156.76C523.797 159.411 522.28 162.001 520.934 164.53C519.613 167.071 518.303 169.539 517.985 172.116C517.631 174.682 517.887 177.186 518.426 179.458C518.989 181.731 519.674 183.844 520.469 185.75C522.011 189.586 523.626 192.762 524.849 195.401C526.085 198.027 526.966 200.104 527.443 201.546C527.92 202.987 528.067 203.781 528.067 203.781C528.067 203.781 527.994 203.598 527.872 203.219C527.737 202.853 527.615 202.291 527.333 201.582C526.819 200.153 525.902 198.101 524.641 195.499C523.393 192.884 521.742 189.72 520.163 185.872C519.356 183.954 518.634 181.841 518.059 179.544C517.508 177.247 517.227 174.694 517.569 172.055C520.09 161.623 529.083 151.959 534.809 139.242C535.873 135.919 536.473 132.328 537.06 128.687C537.623 125.035 538.076 121.26 538.455 117.412C538.993 109.703 539.409 101.652 539.923 93.3698V93.492C538.92 90.4745 538.051 87.3227 537.464 84.0609C537.158 82.4239 536.938 80.7625 536.877 79.0644C536.791 77.3786 536.865 75.6316 537.415 73.958C537.941 72.4432 538.896 71.0749 540.339 70.2809C541.061 69.89 541.918 69.7434 542.713 69.8411C543.521 69.951 544.279 70.2442 544.94 70.684C546.261 71.5758 547.106 73.0418 547.387 74.5444C547.668 75.9859 547.95 77.403 548.231 78.8079L547.668 78.6857C548.415 77.7817 549.504 77.2564 550.654 77.2198C551.804 77.2198 552.868 77.6718 553.737 78.2948C554.178 78.6124 554.594 78.9178 554.973 79.3332C555.352 79.7486 555.621 80.2006 555.891 80.6526C556.404 81.581 556.796 82.5339 557.151 83.499C558.558 87.3593 559.463 91.2808 560.332 95.1167C562.02 102.801 563.244 110.253 564.553 117.302C565.189 120.832 565.581 124.326 565.544 127.734C565.52 131.143 564.969 134.429 564.113 137.483C562.388 143.567 560.785 149.211 559.329 154.354C557.909 159.497 556.649 164.151 555.732 168.268C555.291 170.321 554.838 172.251 555.156 174.022C555.438 175.781 555.964 177.345 556.478 178.726C557.53 181.486 558.546 183.539 559.231 184.919C559.573 185.591 559.843 186.116 560.038 186.483C560.222 186.837 560.308 187.02 560.308 187.02L560.283 187.057Z" fill="#FF9A6C"/>
<path d="M541.588 149.26C541.637 149.345 540.205 150.151 537.954 151.544C535.727 152.949 532.644 154.965 529.964 157.933C527.297 160.902 525.816 164.335 525.363 166.888C524.886 169.465 525.229 171.115 525.094 171.115C525.058 171.115 524.947 170.724 524.85 169.979C524.752 169.233 524.727 168.146 524.923 166.815C525.266 164.151 526.734 160.572 529.487 157.506C532.24 154.452 535.421 152.46 537.721 151.153C538.884 150.493 539.838 150.017 540.511 149.687C541.184 149.37 541.563 149.211 541.588 149.247V149.26Z" fill="#FF9A6C"/>
<path d="M550.74 121.492C550.74 121.492 550.679 120.844 550.679 119.696C550.666 118.536 550.679 116.862 550.605 114.797C550.495 110.668 550.03 104.963 548.684 98.8062C547.412 92.6736 545.161 87.2128 545.711 82.8883C546.054 80.7748 547.143 79.2844 548.097 78.5759C548.562 78.2094 548.99 78.0261 549.284 77.9162C549.577 77.8307 549.737 77.794 549.749 77.8062C549.785 77.8795 549.113 78.0139 548.256 78.7713C547.4 79.5043 546.433 80.9459 546.164 82.9616C545.895 84.9528 546.457 87.4083 547.094 90.0348C547.779 92.6736 548.66 95.5688 549.321 98.6718C550.679 104.878 551.07 110.644 551.07 114.785C551.082 116.862 551.009 118.536 550.948 119.696C550.874 120.857 550.801 121.492 550.764 121.492H550.74Z" fill="#FF9A6C"/>
<path d="M539.422 100.431C539.507 100.419 539.825 101.555 540.241 103.436C540.645 105.317 541.171 107.932 541.379 110.876C541.575 113.82 541.416 116.483 541.269 118.401C541.11 120.319 540.951 121.492 540.865 121.492C540.78 121.492 540.78 120.295 540.817 118.377C540.841 116.459 540.939 113.82 540.743 110.913C540.535 108.017 540.095 105.403 539.801 103.509C539.507 101.616 539.336 100.443 539.434 100.419L539.422 100.431Z" fill="#FF9A6C"/>
<path d="M543.533 121.577C543.533 121.577 543.447 121.101 543.398 120.246C543.337 119.244 543.276 118.035 543.19 116.605C543.007 113.539 542.627 109.3 541.979 104.658C541.33 100.016 540.511 95.8376 539.862 92.8323C539.556 91.4397 539.299 90.2425 539.091 89.2652C538.908 88.4222 538.822 87.9458 538.871 87.9458C538.908 87.9458 539.079 88.3856 539.336 89.2041C539.593 90.0226 539.935 91.232 540.315 92.7224C541.073 95.7154 541.967 99.8934 542.615 104.56C543.276 109.227 543.582 113.49 543.655 116.581C543.692 118.12 543.692 119.378 543.655 120.234C543.631 121.101 543.594 121.577 543.545 121.577H543.533Z" fill="#FF9A6C"/>
<path d="M545.931 121.248C545.968 121.443 544.585 121.687 542.946 121.565C541.306 121.443 540.034 121.394 539.997 121.248C539.96 121.052 541.343 120.808 542.982 120.93C544.622 121.052 545.894 121.101 545.931 121.248Z" fill="#FF9A6C"/>
<path d="M550.739 121.492C550.691 121.565 550.495 121.528 550.201 121.419C549.92 121.321 549.528 121.089 549.259 121.138C548.354 121.333 547.509 121.113 547.546 120.942C547.583 120.759 548.268 120.698 549.198 120.502C549.504 120.453 549.822 120.588 549.993 120.686C550.189 120.796 550.336 120.918 550.446 121.028C550.678 121.235 550.788 121.406 550.752 121.48L550.739 121.492Z" fill="#FF9A6C"/>
<path d="M223.406 308.426C223.406 308.426 206.937 329.634 210.387 351.465C213.03 368.152 220.433 375.995 251.462 375.824C276.434 375.69 380.361 342.315 380.361 342.315L389.061 301.084C390.284 302.306 291.153 318.603 291.153 318.603L300.158 306.777L241.612 278.484L223.418 308.414L223.406 308.426Z" fill="#FFBF9D"/>
<path d="M444.536 269.016C446.09 268.345 494.224 239.929 494.224 239.929L505.493 239.147L498.959 249.189L440.902 283.187L444.536 269.016Z" fill="#455A64"/>
<path d="M358.876 311.016C358.876 311.016 371.429 307.901 372.359 306.667C373.289 305.433 392.107 270.922 393.967 269.383C395.815 267.844 424.519 251.51 431.309 251.205C438.1 250.9 463.366 260.123 464.602 261.662C465.838 263.201 467.661 270.934 458.472 270.617C453.455 270.446 453.15 270.226 453.15 270.226L455.315 282.454C455.633 284.25 454.349 285.948 452.526 286.119C450.678 286.29 448.757 286.315 448.757 285.679C448.757 284.91 448.818 290.493 448.855 294.732C448.879 297.493 446.31 299.569 443.618 298.934C440.67 298.238 437.452 296.467 436.766 292.069L431.444 298.836L435.188 307.754L434.258 319.58C434.258 319.58 426.917 319.714 425.167 314.009C422.989 306.912 423.54 305.751 423.54 305.751C423.54 305.751 419.025 317.405 412.785 324.234C402.679 335.302 374.023 344.513 374.023 344.513L358.876 311.016Z" fill="#FFBF9D"/>
<path d="M412.345 282.784C412.345 282.784 412.418 282.735 412.577 282.674C412.761 282.601 412.993 282.503 413.263 282.393C413.923 282.137 414.816 281.783 415.954 281.343C418.365 280.427 421.791 279.132 426.061 277.495L426.159 277.458L426.244 277.519C429.205 279.425 432.668 281.66 436.51 284.14L436.657 284.238L436.62 284.421C436.118 286.95 436.265 289.833 437.158 292.582C437.635 293.95 438.211 295.355 439.287 296.369C440.352 297.407 441.783 298.079 443.3 298.446C444.059 298.641 444.842 298.763 445.65 298.824C446.445 298.947 447.155 298.763 447.717 298.262C448.268 297.749 448.513 297.053 448.452 296.222C448.452 295.379 448.452 294.536 448.452 293.681C448.464 290.273 448.476 286.779 448.488 283.212C448.488 282.088 448.488 280.976 448.5 279.865C448.562 278.753 448.256 277.8 447.742 276.835C446.739 274.954 445.295 273.329 443.851 271.814C440.915 268.797 437.733 266.219 434.638 263.898C433.084 262.737 431.542 261.65 430.001 260.636C429.23 260.135 428.459 259.646 427.7 259.231C426.978 258.877 426.097 258.852 425.265 258.914C421.889 259.317 418.879 260.624 416.187 261.748C410.803 264.105 406.631 266.414 403.731 267.966C402.312 268.735 401.198 269.334 400.403 269.774C400.024 269.982 399.73 270.128 399.522 270.226C399.326 270.324 399.204 270.36 399.204 270.348C399.204 270.348 400.758 269.407 403.609 267.758C406.472 266.133 410.62 263.763 416.003 261.345C418.707 260.184 421.693 258.852 425.217 258.4C426.097 258.339 427.052 258.327 427.957 258.755C428.765 259.182 429.523 259.671 430.306 260.172C431.86 261.174 433.414 262.273 434.993 263.434C438.113 265.767 441.318 268.345 444.304 271.386C445.772 272.926 447.24 274.563 448.305 276.542C448.831 277.495 449.21 278.728 449.137 279.84C449.137 280.952 449.137 282.063 449.124 283.187C449.112 286.767 449.088 290.273 449.076 293.681C449.076 294.536 449.076 295.379 449.063 296.222C449.063 296.613 449.063 297.126 448.892 297.566C448.733 298.006 448.464 298.409 448.121 298.714C447.448 299.35 446.408 299.57 445.588 299.423C444.756 299.35 443.937 299.227 443.141 299.02C441.551 298.617 440.021 297.908 438.871 296.772C437.684 295.636 437.085 294.133 436.62 292.741C435.702 289.87 435.568 286.938 436.118 284.275L436.228 284.556C432.411 282.039 428.961 279.779 426.024 277.849L426.208 277.873C421.901 279.425 418.45 280.671 416.028 281.538C414.878 281.941 413.96 282.259 413.299 282.491C413.018 282.589 412.785 282.662 412.59 282.723C412.431 282.772 412.345 282.796 412.345 282.784Z" fill="#FF9A6C"/>
<path d="M448.464 285.667C448.464 285.667 449.137 285.863 450.385 285.973C451.009 286.009 451.792 286.107 452.599 285.851C453.407 285.606 454.263 284.995 454.728 284.03C454.961 283.554 455.095 283.004 455.083 282.43C455.058 281.88 454.899 281.221 454.801 280.573C454.569 279.266 454.312 277.873 454.055 276.407C453.505 273.488 452.881 270.262 452.061 266.94C451.669 265.254 451.155 263.727 450.164 262.481C449.222 261.198 447.999 260.221 446.861 259.304C444.487 257.545 442.126 256.25 440.144 255.2C438.149 254.161 436.497 253.355 435.396 252.744C434.283 252.146 433.732 251.681 433.757 251.657C433.793 251.62 434.356 251.999 435.506 252.524C436.644 253.062 438.32 253.795 440.351 254.797C442.37 255.798 444.781 257.057 447.216 258.828C448.402 259.756 449.663 260.746 450.666 262.09C450.947 262.395 451.131 262.786 451.376 263.14C451.62 263.482 451.779 263.898 451.938 264.301C452.305 265.107 452.44 265.938 452.685 266.769C453.517 270.116 454.116 273.353 454.642 276.285C454.887 277.751 455.12 279.144 455.34 280.463C455.425 281.123 455.572 281.721 455.585 282.406C455.585 283.065 455.413 283.688 455.144 284.214C454.581 285.289 453.615 285.924 452.709 286.168C451.779 286.413 450.984 286.266 450.36 286.193C449.724 286.095 449.247 285.961 448.929 285.851C448.61 285.741 448.451 285.655 448.464 285.643V285.667Z" fill="#FF9A6C"/>
<path d="M389.575 337.428C389.416 337.318 392.083 335.522 394.249 330.648C396.5 325.884 398.213 318.285 398.017 309.11V309.001L398.078 308.927C399.975 306.777 401.981 304.48 404.098 302.086L404.184 301.988H404.318C408.442 301.988 412.883 301.976 417.496 301.964H417.582L417.655 302.001C419.564 303.1 421.607 304.285 423.687 305.482L423.883 305.592L423.834 305.836C423.54 307.193 423.711 308.781 424.103 310.259C424.494 311.749 425.155 313.203 425.951 314.583C426.831 316.11 427.933 317.528 429.401 318.419C430.82 319.323 432.619 319.678 434.16 319.287L433.94 319.555C434.332 315.219 434.711 311.041 435.066 307.07L435.09 307.205C432.423 301.109 429.291 295.599 425.498 291.58C423.601 289.552 421.203 288.453 418.915 287.683C416.627 286.913 414.425 286.425 412.43 286.058C408.429 285.337 405.199 285.032 402.997 284.812C400.795 284.617 399.596 284.421 399.608 284.348C399.608 284.348 400.795 284.47 403.009 284.617C405.224 284.788 408.454 285.032 412.492 285.704C414.51 286.046 416.725 286.522 419.05 287.28C421.35 288.037 423.883 289.173 425.853 291.25C429.756 295.33 432.912 300.84 435.641 306.997L435.665 307.058V307.131C435.311 311.102 434.944 315.292 434.552 319.629L434.528 319.849L434.332 319.897C432.521 320.362 430.612 319.946 429.046 318.981C427.455 318.016 426.293 316.501 425.375 314.925C423.773 312.103 422.598 308.878 423.21 305.678L423.357 306.044C421.277 304.847 419.246 303.662 417.325 302.55L417.484 302.587C412.859 302.587 408.429 302.575 404.306 302.562L404.526 302.465C402.41 304.847 400.379 307.131 398.482 309.281L398.543 309.098C398.678 318.37 396.879 326.006 394.518 330.795C393.992 332.028 393.282 332.993 392.768 333.885C392.132 334.704 391.63 335.424 391.141 335.938C390.651 336.414 390.272 336.781 389.978 337.074C389.709 337.33 389.575 337.452 389.562 337.44L389.575 337.428Z" fill="#FF9A6C"/>
<path d="M429.07 279.584C429.168 279.791 426.33 280.988 423.271 283.114C421.754 284.201 420.42 285.276 419.404 285.985C418.401 286.706 417.74 287.109 417.691 287.036C417.643 286.962 418.193 286.437 419.123 285.631C420.065 284.824 421.35 283.701 422.904 282.589C424.47 281.477 426.024 280.72 427.162 280.219C428.3 279.73 429.034 279.498 429.07 279.571V279.584Z" fill="#FF9A6C"/>
<path d="M240.156 332.823C240.156 332.823 240.695 332.273 241.747 331.381C242.273 330.929 242.921 330.379 243.729 329.805C244.524 329.219 245.405 328.522 246.457 327.863C247.497 327.179 248.635 326.433 249.92 325.737C251.168 324.98 252.587 324.308 254.056 323.575C257.041 322.194 260.418 320.887 264.076 319.849C267.747 318.859 271.32 318.249 274.587 317.894C276.226 317.772 277.78 317.625 279.248 317.625C280.704 317.564 282.075 317.625 283.31 317.674C284.558 317.699 285.672 317.845 286.651 317.931C287.63 318.016 288.474 318.139 289.159 318.261C290.529 318.493 291.276 318.639 291.276 318.688C291.276 318.737 290.505 318.664 289.134 318.517C288.449 318.432 287.605 318.334 286.626 318.285C285.647 318.224 284.534 318.114 283.298 318.126C282.062 318.102 280.717 318.077 279.261 318.151C277.805 318.163 276.275 318.334 274.648 318.481C271.418 318.859 267.882 319.482 264.248 320.46C260.626 321.474 257.274 322.756 254.313 324.1C252.844 324.809 251.437 325.456 250.189 326.189C248.905 326.861 247.754 327.582 246.714 328.229C245.65 328.852 244.757 329.524 243.949 330.074C243.129 330.611 242.457 331.125 241.918 331.552C240.817 332.395 240.193 332.835 240.168 332.81L240.156 332.823Z" fill="#FF9A6C"/>
</g>
<defs>
<clipPath id="clip0_789_374">
<rect width="845" height="470" fill="white"/>
</clipPath>
</defs>
</svg>
