<?xml version="1.0" encoding="UTF-8"?>
<svg id="_레이어_2" data-name="레이어 2" xmlns="http://www.w3.org/2000/svg" viewBox="0 0 2697.36 1737.94">
  <defs>
    <style>
      .cls-1 {
        fill: #7c9af2;
      }

      .cls-1, .cls-2, .cls-3, .cls-4, .cls-5, .cls-6, .cls-7, .cls-8, .cls-9, .cls-10, .cls-11, .cls-12, .cls-13, .cls-14, .cls-15, .cls-16, .cls-17, .cls-18, .cls-19, .cls-20, .cls-21, .cls-22, .cls-23, .cls-24, .cls-25, .cls-26, .cls-27, .cls-28, .cls-29, .cls-30, .cls-31 {
        stroke-width: 0px;
      }

      .cls-1, .cls-7 {
        opacity: .5;
      }

      .cls-2 {
        fill: #2c3a64;
      }

      .cls-3 {
        fill: #548ee2;
      }

      .cls-4 {
        fill: #dd6d22;
      }

      .cls-5 {
        opacity: .6;
      }

      .cls-5, .cls-23 {
        fill: #fff;
      }

      .cls-6 {
        fill: #a4c4f4;
      }

      .cls-7 {
        fill: #cde0fb;
      }

      .cls-8 {
        fill: #fcecdb;
      }

      .cls-9 {
        fill: #efdece;
      }

      .cls-10 {
        fill: #233862;
      }

      .cls-11 {
        fill: #f2ccaa;
      }

      .cls-12 {
        fill: #afcdfb;
      }

      .cls-13 {
        fill: #f99746;
      }

      .cls-14 {
        fill: #f9ddbf;
      }

      .cls-32 {
        opacity: .3;
      }

      .cls-15 {
        fill: #b5453c;
      }

      .cls-16 {
        fill: #2b478b;
      }

      .cls-17 {
        fill: #163560;
      }

      .cls-18 {
        fill: #ed975d;
      }

      .cls-19 {
        fill: #ebf3fa;
      }

      .cls-20 {
        fill: #568cdb;
      }

      .cls-21 {
        fill: #bdd1f9;
      }

      .cls-22 {
        fill: #f4d2b8;
      }

      .cls-24 {
        fill: #ed985f;
      }

      .cls-25 {
        fill: #dde7fe;
      }

      .cls-26 {
        fill: #474fea;
      }

      .cls-27 {
        fill: #1c468a;
      }

      .cls-28 {
        fill: #ed7d2b;
      }

      .cls-29 {
        fill: #ffb27d;
      }

      .cls-30 {
        fill: #c65447;
      }

      .cls-31 {
        fill: #699dee;
      }
    </style>
  </defs>
  <g id="_лой_1" data-name="‘лой_1">
    <g>
      <path class="cls-19" d="M21.28,1737.94l903.89-4.69,240.94-.07,79.82-.03,241.4-.07,1102.85-.3s252.25-323.47-17.2-630.69c-279.37-318.53-415.21-59.12-501.09-507.49C1855.73-534.03-281.41,122.86,279.15,1083.27c201.84,345.81-397.3,162.01-257.87,654.68Z"/>
      <g>
        <path class="cls-12" d="M852.83,1502.4l-4.89-2.68c-5.22-2.86-7.14-9.43-4.28-14.64l22.46-41.01c2.86-5.22,9.43-7.14,14.64-4.28l7,3.83c1.02.56,1.4,1.84.84,2.87-.56,1.02-1.84,1.4-2.87.84l-7-3.83c-3.18-1.74-7.17-.57-8.91,2.61l-22.46,41.01c-1.74,3.17-.57,7.17,2.61,8.91l4.89,2.68c3.18,1.74,7.17.57,8.91-2.61l14.91-27.22c.56-1.02,1.84-1.4,2.87-.84,1.02.56,1.4,1.84.84,2.87l-14.91,27.22c-2.86,5.22-9.43,7.14-14.64,4.28Z"/>
        <path class="cls-12" d="M832,1545.46l-8.76-4.8c-8.13-4.45-10.87-15.17-6.1-23.88l33.76-61.65c.56-1.02,1.84-1.4,2.87-.84,1.02.56,1.4,1.84.84,2.87l-33.76,61.66c-3.65,6.67-1.67,14.82,4.42,18.15l8.76,4.8c6.09,3.34,14.02.62,17.68-6.05l38.46-70.23c3.65-6.67,1.67-14.82-4.42-18.15-1.02-.56-1.4-1.84-.84-2.87.56-1.02,1.84-1.4,2.87-.84,8.13,4.45,10.87,15.17,6.1,23.88l-38.45,70.23c-4.77,8.72-15.27,12.18-23.41,7.73Z"/>
      </g>
      <g>
        <rect class="cls-5" x="552.68" y="275.9" width="1171.24" height="998.42" rx="47.87" ry="47.87"/>
        <path class="cls-31" d="M588.42,275.9h1099.76c19.73,0,35.74,16.01,35.74,35.74v75.05H552.68v-75.05c0-19.73,16.01-35.74,35.74-35.74Z"/>
        <g>
          <path class="cls-25" d="M600.05,330.62c0-7.32,5.93-13.25,13.25-13.25s13.25,5.93,13.25,13.25-5.93,13.25-13.25,13.25-13.25-5.93-13.25-13.25Z"/>
          <path class="cls-25" d="M655.64,330.62c0-7.32,5.93-13.25,13.25-13.25s13.25,5.93,13.25,13.25-5.93,13.25-13.25,13.25-13.25-5.93-13.25-13.25Z"/>
          <path class="cls-25" d="M711.23,330.62c0-7.32,5.93-13.25,13.25-13.25s13.25,5.93,13.25,13.25-5.93,13.25-13.25,13.25-13.25-5.93-13.25-13.25Z"/>
        </g>
        <rect class="cls-7" x="645.5" y="474.59" width="332.01" height="332.01"/>
        <path class="cls-1" d="M1331.87,499.34h-264.09c-6.93,0-12.55-5.62-12.55-12.55h0c0-6.93,5.62-12.55,12.55-12.55h264.09c6.93,0,12.55,5.62,12.55,12.55h0c0,6.93-5.62,12.55-12.55,12.55Z"/>
        <path class="cls-1" d="M1647.67,482.51h-264.09c-6.93,0-12.55-5.62-12.55-12.55h0c0-6.93,5.62-12.55,12.55-12.55h264.09c6.93,0,12.55,5.62,12.55,12.55h0c0,6.93-5.62,12.55-12.55,12.55Z"/>
        <g class="cls-32">
          <path class="cls-21" d="M1384.15,595.93h-320.78c-4.49,0-8.13-3.64-8.13-8.13h0c0-4.49,3.64-8.13,8.13-8.13h320.78c4.49,0,8.13,3.64,8.13,8.13h0c0,4.49-3.64,8.13-8.13,8.13Z"/>
          <path class="cls-21" d="M1506.09,595.93h-84.68c-4.49,0-8.13-3.64-8.13-8.13h0c0-4.49,3.64-8.13,8.13-8.13h84.68c4.49,0,8.13,3.64,8.13,8.13h0c0,4.49-3.64,8.13-8.13,8.13Z"/>
          <path class="cls-21" d="M1184.4,646.37h-121.03c-4.49,0-8.13-3.64-8.13-8.13h0c0-4.49,3.64-8.13,8.13-8.13h121.03c4.49,0,8.13,3.64,8.13,8.13h0c0,4.49-3.64,8.13-8.13,8.13Z"/>
          <path class="cls-21" d="M1380.44,646.37h-165.85c-4.49,0-8.13-3.64-8.13-8.13h0c0-4.49,3.64-8.13,8.13-8.13h165.85c4.49,0,8.13,3.64,8.13,8.13h0c0,4.49-3.64,8.13-8.13,8.13Z"/>
          <path class="cls-21" d="M1506.09,646.37h-84.68c-4.49,0-8.13-3.64-8.13-8.13h0c0-4.49,3.64-8.13,8.13-8.13h84.68c4.49,0,8.13,3.64,8.13,8.13h0c0,4.49-3.64,8.13-8.13,8.13Z"/>
          <path class="cls-21" d="M1227.6,689.98h-164.23c-4.49,0-8.13-3.64-8.13-8.13h0c0-4.49,3.64-8.13,8.13-8.13h164.23c4.49,0,8.13,3.64,8.13,8.13h0c0,4.49-3.64,8.13-8.13,8.13Z"/>
          <path class="cls-21" d="M1541.21,689.98h-268.6c-4.49,0-8.13-3.64-8.13-8.13h0c0-4.49,3.64-8.13,8.13-8.13h268.6c4.49,0,8.13,3.64,8.13,8.13h0c0,4.49-3.64,8.13-8.13,8.13Z"/>
        </g>
        <g class="cls-32">
          <path class="cls-21" d="M1384.15,756.16h-320.78c-4.49,0-8.13-3.64-8.13-8.13h0c0-4.49,3.64-8.13,8.13-8.13h320.78c4.49,0,8.13,3.64,8.13,8.13h0c0,4.49-3.64,8.13-8.13,8.13Z"/>
          <path class="cls-21" d="M1506.09,756.16h-84.68c-4.49,0-8.13-3.64-8.13-8.13h0c0-4.49,3.64-8.13,8.13-8.13h84.68c4.49,0,8.13,3.64,8.13,8.13h0c0,4.49-3.64,8.13-8.13,8.13Z"/>
          <path class="cls-21" d="M1184.4,806.6h-121.03c-4.49,0-8.13-3.64-8.13-8.13h0c0-4.49,3.64-8.13,8.13-8.13h121.03c4.49,0,8.13,3.64,8.13,8.13h0c0,4.49-3.64,8.13-8.13,8.13Z"/>
          <path class="cls-21" d="M1380.44,806.6h-165.85c-4.49,0-8.13-3.64-8.13-8.13h0c0-4.49,3.64-8.13,8.13-8.13h165.85c4.49,0,8.13,3.64,8.13,8.13h0c0,4.49-3.64,8.13-8.13,8.13Z"/>
        </g>
        <path class="cls-21" d="M794.36,524.08h34.29l92.64,212.04h-39.1l-21.35-50.83h-99.55l-21.66,50.83h-37.9l92.64-212.04ZM847.3,652.51l-36.39-84.21-36.09,84.21h72.49Z"/>
        <g>
          <rect class="cls-13" x="645.5" y="873.48" width="185.46" height="35.8"/>
          <rect class="cls-28" x="645.5" y="909.28" width="185.46" height="35.8"/>
          <rect class="cls-26" x="645.5" y="945.09" width="185.46" height="35.8"/>
        </g>
        <g>
          <path class="cls-21" d="M967.61,893.75h-102.04c-4.27,0-7.73-3.46-7.73-7.73h0c0-4.27,3.46-7.73,7.73-7.73h102.04c4.27,0,7.73,3.46,7.73,7.73h0c0,4.27-3.46,7.73-7.73,7.73Z"/>
          <path class="cls-21" d="M933.24,921h-67.67c-4.27,0-7.73-3.46-7.73-7.73h0c0-4.27,3.46-7.73,7.73-7.73h67.67c4.27,0,7.73,3.46,7.73,7.73h0c0,4.27-3.46,7.73-7.73,7.73Z"/>
        </g>
        <g>
          <rect class="cls-13" x="645.5" y="1058.6" width="185.46" height="73.16"/>
          <rect class="cls-15" x="645.5" y="1113.69" width="185.46" height="52.32"/>
          <polygon class="cls-26" points="645.5 1058.6 712.04 1114.49 645.5 1166.02 645.5 1058.6"/>
        </g>
        <g>
          <path class="cls-21" d="M967.61,1078.87h-102.04c-4.27,0-7.73-3.46-7.73-7.73h0c0-4.27,3.46-7.73,7.73-7.73h102.04c4.27,0,7.73,3.46,7.73,7.73h0c0,4.27-3.46,7.73-7.73,7.73Z"/>
          <path class="cls-21" d="M933.24,1106.13h-67.67c-4.27,0-7.73-3.46-7.73-7.73h0c0-4.27,3.46-7.73,7.73-7.73h67.67c4.27,0,7.73,3.46,7.73,7.73h0c0,4.27-3.46,7.73-7.73,7.73Z"/>
        </g>
      </g>
      <g>
        <path class="cls-10" d="M1735.75,366.31s4.83,57.57-8.29,56.7c-13.11-.87-39.01-26.21-91.27-22.09-52.26,4.12-116.2,15.56-154.85-52.84-38.65-68.4,49.43-88.08,49.43-88.08l204.98,106.32h0Z"/>
        <polygon class="cls-16" points="1624.66 362.1 1887.98 383.75 1893.46 372.04 1641 185.69 1385.99 155.89 1381.09 166.38 1624.66 362.1 1624.66 362.1"/>
        <g>
          <path class="cls-13" d="M1803.86,560.41c-1.55-5.42-7.21-8.56-12.63-7.01-5.42,1.55-8.55,7.2-7,12.63,1.55,5.42,7.2,8.56,12.62,7.01,5.42-1.56,8.56-7.21,7.01-12.62h0Z"/>
          <path class="cls-13" d="M1795.08,563.24c10.56-.82,13.03,95.28,13.03,95.28,0,0-6.89,3.24-10.27,2.48-3.39-.76-5.11-13.74-5.11-13.74l-.33,13.61s-11.58.4-15.6-2.42c0,0,1.57-93.9,18.28-95.21h0Z"/>
        </g>
        <polygon class="cls-13" points="1798.53 565.41 1796.62 355.45 1795.26 354.43 1657.71 252.69 1652.77 259.37 1788.95 360.1 1792.02 565.04 1798.53 565.41"/>
      </g>
      <g>
        <g>
          <g>
            <path class="cls-8" d="M1397.5,1336.17h580.41c46.88,0,84.94,38.06,84.94,84.94v47.98c0,47.94-38.93,86.87-86.87,86.87h-578.48v-219.79h0Z"/>
            <path class="cls-31" d="M2559.1,1426.6v33.07c0,17.67-4.44,34.21-12.2,48.44-15.59,28.62-44.58,47.85-77.77,47.85h-1089.44c-7.21,0-13.05-6.25-13.05-13.96v-4.95c0-7.7,5.84-13.96,13.05-13.96h664.12c3.55-4.63,6.68-9.65,9.32-14.99,6.22-12.54,9.73-26.84,9.73-42.02v-42.03c0-7.73-.93-15.23-2.69-22.37-2.97-12.1-8.3-23.18-15.4-32.64h-665.08c-7.21,0-13.05-6.25-13.05-13.97v-4.94c0-7.72,5.84-13.97,13.05-13.97h1094.93c38.58,0,71.13,27.69,81.23,65.51,2.12,7.92,3.26,16.28,3.26,24.92Z"/>
            <path class="cls-3" d="M2555.84,1401.68h-495.68c-2.97-12.1-8.3-23.18-15.4-32.64h-665.08c-7.21,0-13.05-6.25-13.05-13.97v-4.94c0-7.72,5.84-13.97,13.05-13.97h1094.93c38.58,0,71.13,27.69,81.23,65.51Z"/>
          </g>
          <polygon class="cls-22" points="1397.5 1446.06 1478.17 1449.76 1397.5 1451.98 1397.5 1446.06"/>
          <polygon class="cls-22" points="1397.5 1480.55 1589.41 1484.24 1397.5 1486.47 1397.5 1480.55"/>
        </g>
        <g>
          <g>
            <g>
              <path class="cls-13" d="M1230.93,1555.49h567.87c45.28,0,82.04,36.76,82.04,82.04v11.88c0,42.52-34.52,77.04-77.04,77.04h-572.88v-170.96h0Z" transform="translate(3111.78 3281.95) rotate(180)"/>
              <path class="cls-8" d="M1773.38,1555.49h647.21c44.21,0,80.1,35.89,80.1,80.1v12.53c0,43.23-35.1,78.33-78.33,78.33h-648.99v-170.96h0Z" transform="translate(4274.08 3281.95) rotate(180)"/>
              <rect class="cls-13" x="1718.73" y="1700.88" width="815.71" height="25.57" rx="11.9" ry="11.9" transform="translate(4253.16 3427.34) rotate(180)"/>
              <rect class="cls-13" x="1718.73" y="1555.49" width="815.71" height="25.57" rx="11.9" ry="11.9" transform="translate(4253.16 3136.56) rotate(180)"/>
            </g>
            <polygon class="cls-22" points="2500.7 1640.97 2412.52 1643.85 2500.7 1645.58 2500.7 1640.97"/>
            <polygon class="cls-22" points="2500.7 1601.63 2290.92 1604.5 2500.7 1606.23 2500.7 1601.63"/>
          </g>
          <g>
            <path class="cls-31" d="M2293.08,1603.93s8.99,7.35,11.97,19.42c.53,2.11.86,4.37.93,6.75.5,16.04,0,52.35,0,52.35l26.54-18.15,26.47,18.15v-49.21c0-9.3-2.27-18.36-6.49-24.28-2.04-2.87-4.52-5.03-7.33-5.03h-52.09Z"/>
            <path class="cls-20" d="M2293.08,1603.93s8.99,7.35,11.97,19.42l53.19.72s-2.09-17.29-13.06-20.14h-52.09Z"/>
          </g>
        </g>
        <g>
          <g>
            <g>
              <path class="cls-8" d="M1251.53,1085.45h560.96c49.57,0,89.81,40.24,89.81,89.81v69.53c0,50.69-41.15,91.84-91.84,91.84h-558.92v-251.17h0Z"/>
              <path class="cls-12" d="M1902.62,1182.91v54.06c-.14,23.09-10.84,43.12-26.56,53.83-7.74,5.25-16.69,8.26-26.19,8.26h-615.45c-7.21,0-13.06,6.98-13.06,15.6v6.38c0,8.61,5.85,15.6,13.06,15.6h1063.2c30.51,0,57.47-18.11,73.75-45.83,10.27-17.47,16.3-38.74,16.3-61.71v-42.65c0-15.74-3.01-30.64-8.4-43.91-13.67-33.77-42.63-57.06-76.15-57.06h-1068.7c-7.21,0-13.06,6.97-13.06,15.58v6.38c0,8.61,5.85,15.6,13.06,15.6h617.33c14.75,0,28.11,7.5,37.44,19.5,8.26,10.63,13.36,24.79,13.44,40.39Z"/>
              <path class="cls-6" d="M1221.35,1314.66v6.38c0,8.61,5.85,15.6,13.06,15.6h1063.2c30.51,0,57.47-18.11,73.75-45.83h-495.3c-7.74,5.25-16.69,8.26-26.19,8.26h-615.45c-7.21,0-13.06,6.98-13.06,15.6Z"/>
            </g>
            <polygon class="cls-22" points="1251.53 1211.04 1330.43 1215.26 1251.53 1217.81 1251.53 1211.04"/>
            <polygon class="cls-22" points="1251.53 1153.24 1439.24 1157.46 1251.53 1160 1251.53 1153.24"/>
          </g>
          <g>
            <path class="cls-13" d="M1437.3,1156.62s-12.39,7.96-16.49,21.06c-.72,2.29-1.19,4.74-1.29,7.32-.68,17.39,0,56.76,0,56.76l-36.57-19.68-36.48,19.68v-53.35c0-10.09,3.13-19.9,8.94-26.33,2.82-3.11,6.24-5.46,10.1-5.46h71.78Z"/>
            <path class="cls-28" d="M1437.3,1156.62s-12.39,7.96-16.49,21.06l-73.29.78s2.88-18.75,18-21.84h71.78Z"/>
          </g>
        </g>
      </g>
      <g id="girl_2" data-name="girl 2">
        <path class="cls-24" d="M503.04,1314.41s114.57,49.91,135.36,49.01c20.8-.91,148.94-39.03,148.94-39.03l-3.26,22.04s-98.89,56.88-133.47,60.1c-34.04,3.18-150.43-30.55-161.67-37.67-11.24-7.12-18.56-47.25,14.09-54.45Z"/>
        <path class="cls-10" d="M485.83,1130.79s-42.27-8.03-63.31,7.34c-38.13,27.85-40.18,123.85-54.47,138.15-14.29,14.3-48.74,8.2-51.81,82.2-3.07,74,13.71,80.18-6.27,113.21-19.99,33.03,8.46,66.09,8.46,66.09,0,0-11.65-18.23-6.66-31.4,0,0,4.85,29.05,23.3,35.86,18.45,6.81,21.18,11.8,24.13,21.79,0,0,157.43-80.67,157.6-137.88s30.98-113.89,15.85-138.69c0,0,6.74,10.61,7.56,22.41,0,0,9.08-17.39-6.66-33.58-15.73-16.19,18.46-49.7,13.39-88.5-3.48-26.64-22.17-55.83-61.12-56.99Z"/>
        <path class="cls-29" d="M516.97,1368.93c-10.06,6.98-22.68,12.74-38.52,16.39-59.37,13.72-82.12-36.46-90.67-70.91,8.1-4.63,15.71-5.65,20.11-6.18,4.29-.51,8.8-.84,12.54-1.03,6.67-5.11,16.6-26,18.8-58.45l2.79.75,46.79,12.81s-2.14,14.87-3.19,28.93c-.81,11-.94,21.51,1.14,24.09,3.65.79,5.84,1.31,5.84,1.31,0,0,0,.02.02.04.63,1.03,14.2,23.35,24.33,52.25Z"/>
        <path class="cls-24" d="M488.82,1262.32s-2.15,14.86-3.19,28.93c-26.51-2.65-38.81-27.89-43.6-41.74l46.79,12.8Z"/>
        <path class="cls-29" d="M496.74,1276.28s-62.92-3.47-60.16-42.62c2.77-39.15-3.49-65.97,36.8-65.4,40.29.56,47.03,16.05,49.29,29.34,2.26,13.29-9.49,78.58-25.93,78.68Z"/>
        <path class="cls-10" d="M522.36,1175.69c-8.87-12.47-16.4-10.41-20.76-7.17-33-21.35-57.13,4.98-57.13,4.98-6.22,27.79-27.63,42.43-27.63,42.43,0,0,10.95,7.9,37.84,3,8.22-1.5,15.83-6.71,22.45-13.23-11.97,17.15-27.44,29.01-27.44,29.01,32.59-12.32,48.4-55.28,50-59.83,3.59,3.72,10.62,11.75,12.39,19.25,2.42,10.19,12.85,26.13,18.88,25.86,0,0,4.71-25.6-8.59-44.3Z"/>
        <path class="cls-14" d="M369.86,1496.85c-5.68-29.05-24.21-145.1-5.68-182.44,6.65-13.42,32.76-14.63,61.41-13.45,8.91,5.75,42.88,27.5,56.83,24.79.15-.03.42-.09.78-.18,6.57-1.64,9.05-6.26,3.57-10.24-.01,0,14.19-1.37,31.81,1.95,9.95,1.87,36.79,15.76,36.79,15.76,0,0-13.52,24.42-33.45,32.85,3.39,30.32-1.65,43.69-33.1,113.72-26.58,59.19,3.59,112.48,3.59,112.48,0,0-156.46,125.79-157.33,61.74-.65-48.22,42.05-119.86,34.78-156.98Z"/>
        <path class="cls-4" d="M500.16,1728.87c8.51-.96,16.17-5.62,20.93-12.74.75-1.13,1.56-2.34,2.42-3.64,17.81-26.96,24.74-109.52,64.8-197.48,9.76-21.41,44.78-25.26,54.33-49.47,0,0,23.51-78.46-44.99-80.78-68.5-2.31-183.45,218.31-185.26,241.45-1.76,22.42-45.29,117.67,87.78,102.66Z"/>
        <path class="cls-10" d="M772.41,1727.07h-97.49s-3.64-15.55,2.76-26.13c5.67-9.36,3.49-14.7-.7-22.44,4.42,1.81,10.13,3.45,16.42,3.09,4.86-.28,9.99-2.48,14.5-5.1,4.2,4.78,22.16,25.15,27.78,29.18,6.37,4.58,34.78,2.95,36.74,21.4Z"/>
        <path class="cls-28" d="M644.86,1407.44c5.87,44.01,28.8,182.92,69.24,250.69,13.04,21.85-32.85,34.1-33.1,34.03-6.15-1.61-16.41-11.42-21.13-15.68-32.83-29.59-99.48-113.37-99.48-180.54,0-32.75-.58-95.3,23.24-111.2,14.67-9.79,58.9,5.22,61.23,22.7Z"/>
        <path class="cls-13" d="M442.03,1727.07s3.61-5.03,9.91-14.58c7.5-11.36,15.79-33.7,25.86-62.35,10.58-30.07,23.12-67.07,38.8-105.57,4.84-11.88,9.98-23.91,15.44-35.92,9.76-21.41,36.6-18.45,46.15-42.66,0,0,37.26-83.92-31.23-86.23-68.5-2.31-198.66,224.49-206.14,246.46-8.19,24.05-48.14,123.9,101.21,100.86Z"/>
        <path class="cls-16" d="M700.84,1727.07h-97.49s-3.64-15.55,2.76-26.13c5.67-9.36,3.49-14.7-.7-22.44,4.42,1.81,10.13,3.45,16.42,3.09,4.86-.28,9.99-2.48,14.5-5.1,4.2,4.78,22.16,25.15,27.78,29.18,6.37,4.58,34.78,2.95,36.74,21.4Z"/>
        <path class="cls-28" d="M477.8,1650.14c10.58-30.07,23.12-67.07,38.8-105.57-4.09-29.17-12.93-54.68-27.78-64.97,0,0-36.03,111.61-11.02,170.53Z"/>
        <path class="cls-13" d="M587.95,1404.32c5.87,44.01,14.14,186.04,54.58,253.81,13.04,21.85-32.85,34.1-33.1,34.03-6.15-1.61-16.41-11.42-21.13-15.68-32.83-29.59-99.48-113.37-99.48-180.54,0-32.75,38.44-92.68,62.25-108.58,14.67-9.79,34.54-.53,36.88,16.95Z"/>
        <path class="cls-23" d="M508.52,1253.76s-5.95-2.35-22.69-1c0,0,.89,6.53,13.23,7.18,6.99.37,9.45-6.18,9.45-6.18Z"/>
        <g>
          <g>
            <polygon class="cls-17" points="799.58 1278.27 779.37 1241.8 735.64 1363.81 761.44 1391.51 799.58 1278.27"/>
            <polygon class="cls-27" points="694.04 1299.63 653.4 1415.74 761.44 1391.51 799.58 1278.27 694.04 1299.63"/>
            <polygon class="cls-9" points="655.55 1409.89 653.66 1406.58 692.12 1296.69 694.04 1299.63 655.55 1409.89"/>
            <polygon class="cls-8" points="692.12 1296.69 794.55 1276.76 799.58 1278.27 694.04 1299.63 692.12 1296.69"/>
          </g>
          <polygon class="cls-9" points="799.58 1278.27 777.72 1243.58 763.79 1282.74 794.55 1276.76 799.58 1278.27"/>
        </g>
        <path class="cls-29" d="M725.24,1316.44c-3.51-.68-11.05-3.52-18.68-5.62,2.28-1.77,4.81-3.94,5.52-6.17,1.36-4.3,2.27-5.68-2.27-4.32-4.54,1.36-20.42,8.65-20.42,8.65,0,0,.03.02.04.02-9.02,2.64-17.34,15.39-17.34,15.39,0,0-111.7,39.27-125.14,39.94-20.79,1.04-159.17-49.91-159.17-49.91-32.66,7.21-25.33,47.33-14.09,54.45,11.24,7.12,110.81,43.34,169.82,44.02,29.89.35,138.61-69.53,138.61-69.53,0,0,12.71-5.81,22.69-3.99,9.98,1.82,33.13,0,38.12-8.17,4.99-8.17-11.8-13.62-17.7-14.75Z"/>
        <path class="cls-14" d="M459.08,1339.54s-12.38,39.18-54.88,48.09c0,0-70.19-21.62-35.24-69.44,0,0,34.55-25.67,90.12,21.35Z"/>
        <path class="cls-29" d="M797.76,1319.39h0c.03-1.08-.08-2.15-.37-3.18,0,0-10.01-15.84-13.29-16.48-9.99-1.97-9.99,11.18-7.87,19.66,1.48,5.91,5.23,11.58,8.27,14.64h0s-.4,12.39-.4,12.39c16.87-9.27,13.67-27.04,13.67-27.04Z"/>
      </g>
      <g>
        <path class="cls-10" d="M1882.48,1292.56c18.36,32.48,41.65,45.14,41.65,45.14l97.26.69s-152.92-70.6-138.92-45.82Z"/>
        <g>
          <path class="cls-29" d="M1955.42,1543.4c2.51,2.92,2.81,6.17,1.54,9.63,0,.01,0,.04-.03.05-2.37,6.39-10.08,13.5-19.03,20.58-1.14.91-2.16,1.74-3.05,2.51-.23.2-.47.4-.68.61-.18.16-.35.32-.53.47-8.36,7.59-5.24,9.37-20.27,24.79-17.13,17.57-28.84,17.81-32.16,16.17-2.81-1.39,2.98-10.74,9.4-21.24.31-.51.62-1.02.93-1.53.85-1.4,1.7-2.81,2.55-4.22,7.52-12.64,5.66-18.61,4.03-37.52-1.32-15.36-23.28-85.94-23.28-85.94l32.63-5.38s9.42,56.14,20.17,64.85c5.75,4.64,12.22,4.75,17.76,8.2.39.24.78.49,1.15.74,3.14,2.12,6.35,4.3,8.87,7.23Z"/>
          <path class="cls-10" d="M1955.42,1543.4c2.51,2.92,2.81,6.17,1.54,9.63,0,.01,0,.04-.03.05-2.89,6.38-10.41,13.45-19.06,20.52-1.13.93-2.13,1.78-3.02,2.57-.23.2-.47.4-.68.61-.18.16-.35.32-.53.47-8.36,7.59-5.24,9.37-20.27,24.79-17.13,17.57-28.84,17.81-32.16,16.17-2.81-1.39,2.98-10.74,9.4-21.24,3.32-1.19,18.74-7.33,30.47-22.12,10.33-13,17.28-29.74,24.32-39.41.39.24.78.49,1.15.74,3.14,2.12,6.35,4.3,8.87,7.23Z"/>
          <path class="cls-29" d="M1692.78,1521.19c-2.08,10.05-16.41,8.27-32.4,4.24-15.99-4.03-12.22.65-35-2.03-22.78-2.68-29.63-11.23-30.3-14.63-.6-3.01,10.67-3.99,22.77-5.3,1.52-.16,3.05-.34,4.58-.51,13.66-1.62,23.71-10.35,36.15-17.49,11.79-6.77,29.5-34.55,29.5-34.55l31.25,2.7s-16.59,24.81-23.01,35.6c-3.78,6.35-3.64,14.78-3.22,21.29.22,3.54.42,7.16-.32,10.69Z"/>
          <path class="cls-10" d="M1660.38,1525.43c-15.99-4.03-12.22.65-35-2.03-22.78-2.68-29.63-11.23-30.3-14.63-.6-3.01,10.67-3.99,22.77-5.3l.11.23s13.61,9.79,32.58,10.38c15.47.49,31.88-3.83,42.56-3.58.22,3.54.42,7.16-.32,10.69-2.08,10.05-16.41,8.27-32.4,4.24Z"/>
          <path class="cls-10" d="M1814.02,1322.1l28.68,78.86,37.44,102.97s10.35,1.07,20.29-1.71c9.15-2.57,19.68-9.41,19.68-9.41,0,0-9.82-110.35-29.14-173.79-4.95-16.28-10.54-29.47-16.75-36.91-30.39-36.43-60.19,39.98-60.19,39.98Z"/>
          <path class="cls-16" d="M1844.62,1197.39c19.19-6.04,73.76,2.27,128.55,13.4l11.62-18.87,118.57-8.42s38.49,87,16.7,142.11c-3.2,8.1-11.02,11.47-21.68,11.57,0,0,0,.01-.01.02,0,0-70.73,1.23-93.63,1.07-58.94-.42-124.44-41.39-132.94-43.16-13.91-2.88-19.68,24.94-33.82,54.09-14.14,29.16-131.87,128.63-131.87,128.63,0,0-17.99.05-25.4-2.79-7.97-3.05-10.86-6.96-10.86-6.96,0,0,131.49-257.07,174.77-270.69Z"/>
          <path class="cls-10" d="M1986.64,1028.73c42.04,23.53,127.31,72.31,127.76,72,0,0,31.38,12.08,49.32.35,29.89-19.55,46.22-72.62-7.87-118.77-26.98-23.02-46.22-28.71-48.89-65.17-1.45-19.78-28.02-85.23-72.97-79.51-3.76.48-7.54.81-11.32.66-5.24-.21-13.91.5-22.83,5.72-25.52,14.95-76.4,175.28-13.2,184.72Z"/>
          <path class="cls-29" d="M2022.15,1009.2c-.19.12,20.71,7.42,34.76,1.31,13.22-5.73,23.36-27.34,23.16-27.35-5.99-.32-12.54-5.61-17.36-40.03l-2.56.9-43.03,15.14s3.01,13.79,4.93,26.92c1.62,11.02,2.45,21.57.1,23.11Z"/>
          <path class="cls-18" d="M2017.12,959.16s1.83,9.67,4.38,23.48c24.68-4.26,35.08-25.32,38.65-38.62l-43.03,15.14Z"/>
          <path class="cls-29" d="M2010.63,972.79s58.78-7.47,53.56-44c-5.21-36.53-1.14-62.1-38.89-58.88-37.75,3.22-43.04,18.2-44.26,30.82-1.23,12.62,14.16,73.06,29.58,72.06Z"/>
          <path class="cls-10" d="M1983.33,880.74s37.36,32.66,62.91,35.45c25.55,2.79,35.29-5.35,35.29-5.35,0,0-14.98-12.62-23.91-32.88-2.63-5.97-8.25-10.1-14.75-10.7-18.25-1.7-52.85-2.67-59.55,13.48Z"/>
          <path class="cls-10" d="M2006.85,878s-12.66,12.07-16.69,21.06c-3.88,8.68-5.18,29.48-2.19,37.77,0,0-19.33-38.24-8.1-56.67,11.9-19.54,26.98-2.16,26.98-2.16Z"/>
          <path class="cls-14" d="M1972.09,1095.35c.94,118.88-.18,94.03,12.75,105.41,3.11,2.74,11.91,4.42,23.5,5.27,36.43,2.68,100.55-2.88,103.03-9.6,8.57-23.25,2.69-30.53,9.95-66.16.76-3.79,1.69-7.89,2.79-12.36,6.02-24.47,11.77-32.76-8.7-72.29-18.57-35.8-37.91-64.88-39.67-63.85-49.85,29.12-53.68,4.32-53.68,4.32,0,0-50.43,51.27-49.96,109.26Z"/>
          <path class="cls-16" d="M1842.7,1400.96l37.44,102.97s10.35,1.07,20.29-1.71c9.15-2.57,19.68-9.41,19.68-9.41,0,0-9.82-110.35-29.14-173.79l-48.26,81.93Z"/>
          <path class="cls-14" d="M2022.05,986.08s-51.14,8.3-57.3,30.25c-6.15,21.95-42.36,151-42.36,151,0,0,25.94,4.85,38.02-7.06,12.08-11.91,42.53-111,42.53-111l19.12-63.18Z"/>
          <path class="cls-11" d="M2008.34,1206.02c36.43,2.68,100.55-2.88,103.03-9.6,8.57-23.25,2.69-30.53,9.95-66.16l-17.23-49.63s2.52,55.15-13.84,69.53c-16.34,14.38-66.76,27.52-74.75,39.58-3.85,5.79-6.4,11.6-7.17,16.28Z"/>
          <path class="cls-29" d="M2050.26,1183.13s-35.9-8.26-41.73-5.11c-5.82,3.15-20.09,14.67-21.89,18.7-1.8,4.03,12.94-2.98,17.73-4.23,3.1-.81,11.23,2.08,15.25,3.45,16.93,5.78,27.35,2.94,27.35,2.94l3.29-15.76Z"/>
          <path class="cls-14" d="M2075.77,981.74s48.26,3.32,64.81,26.75c23.3,32.98,68.99,173.17,42.1,191.64-30.27,20.79-137.15,4.53-137.15,4.53,0,0-3.44-16.67,1.57-24.68,5.01-8.01,85.6-20.45,89.34-24.14,3.74-3.69-45.93-72.77-45.85-83.92.08-11.15-14.83-90.17-14.83-90.17Z"/>
          <path class="cls-29" d="M2006.72,1188.02s-7.6,9.67-10.08,10.81c-2.48,1.14-4.07.84-4.07.84l5.14-9.1,9.01-2.55Z"/>
          <path class="cls-29" d="M2008.53,1178.02l-21.98,10.48s.92,1.53,3.62,1.43c2.7-.1,9.52-2.54,9.52-2.54l8.84-9.37Z"/>
        </g>
        <g>
          <g>
            <polygon class="cls-13" points="2001.33 1214.51 1828.04 1213.29 1776.83 1083.3 1949.85 1084.52 2001.33 1214.51"/>
            <polygon class="cls-28" points="1826.05 1208.23 2054.87 1209.84 2054.84 1214.89 1828.04 1213.29 1826.05 1208.23"/>
          </g>
          <path class="cls-23" d="M1872.24,1148.79c-1.27-4.57,1.39-8.24,5.94-8.21,4.56.03,9.28,3.76,10.56,8.33,1.27,4.57-1.39,8.24-5.94,8.21s-9.28-3.76-10.56-8.33Z"/>
        </g>
      </g>
      <g>
        <rect class="cls-30" x="1159.14" y="1412.69" width="104.67" height="526.5" transform="translate(-464.71 2887.08) rotate(-89.99)"/>
        <path class="cls-8" d="M948.21,1728.23l-77.38-33.1-45.01-19.25,46.07-19.69,76.35-32.63s10.19,25.49,10.34,49.45c.24,37.61-10.37,55.22-10.37,55.22Z"/>
        <path class="cls-8" d="M1535.93,1658.39v33.09c0,20.35-16.51,36.85-36.87,36.85h-24.35s.02-104.67.02-104.67h26.49c19.18,0,34.72,15.56,34.71,34.73Z"/>
        <path class="cls-16" d="M871.89,1656.18c1.92,10.58,3.58,26.78-1.06,38.94l-45.01-19.25,46.07-19.69Z"/>
      </g>
      <g>
        <path class="cls-13" d="M1061.41,1078.6s9.43,40.92,36.92,40.92c23.56,0,55.89-53.26,55.89-53.26l-92.81,12.34Z"/>
        <path class="cls-16" d="M1377.02,1682.99l-17.66,12.14s-84.94-90.54-105.45-177.32c-3.66-15.5-5.14-30.78-3.57-45.28,0,0-1.24-3.93-3.41-10.88-.1-.3-.19-.62-.29-.93-.95-3.05-2.09-6.64-3.35-10.7-4.12-13.11-9.78-31.06-16.22-51.49-14.85-47.02-48.8-153.06-63.31-197.16l104.28-37.73s11.84,27.01,28.86,100.42c2.62,9.58,5.25,20.18,7.7,31.72,2.78,13.08,5.38,27.37,7.54,42.82,3.66,26.17,6.1,55.61,6.25,87.9.06,13.14-.26,26.76-1.04,40.81-.57,10.31.96,24.04,3.83,39.66,13.14,71.42,55.84,176,55.84,176Z"/>
        <path class="cls-10" d="M1432.57,1726.62h-84.31s-3.15-13.45,2.38-22.6c4.9-8.1,3.02-12.71-.61-19.41,3.82,1.56,8.76,2.99,14.2,2.67,4.2-.24,8.64-2.15,12.54-4.41,3.63,4.14,19.17,21.75,24.02,25.23,5.51,3.96,30.08,2.55,31.77,18.5Z"/>
        <path class="cls-10" d="M1312.14,1338.61l-65.5,122.11c-.95-3.05-2.09-6.64-3.35-10.7-4.12-13.11-9.78-31.06-16.22-51.49-14.85-47.02-48.8-153.06-63.31-197.16l104.28-37.73s11.84,27.01,28.86,100.42c2.62,9.58,5.25,20.18,7.7,31.72,2.78,13.08,5.38,27.37,7.54,42.82Z"/>
        <path class="cls-10" d="M1162.06,1700.23s-5.84,14.32-.34,26.39h45.86s.95-10.89-15.69-23.51c-12.61-9.56-29.83-2.88-29.83-2.88Z"/>
        <path class="cls-2" d="M1211.96,768.06c.03-2.28,1.2-26.9,38.6-29.08,0,0-18.35,2.64-21.34,10.81,0,0,12.29-10.3,22.58-7.33,10.28,2.97,16.71,20.71,16.91,26.59.2,5.88-5.01,24.98-11.45,26.74-2.44.67-5.27.57-7.84.2,1.79,2.65,3.55,5.58,5.24,8.85,15.67,30.3,2.15,65.99-10.57,62.98-8.16-1.93-13.12,12.21-13.12,12.21l-78.48-67.49s27.49-60.57,59.48-44.48Z"/>
        <path class="cls-29" d="M1162.63,973.13c8.7,6.04,19.61,11.01,33.31,14.17,51.34,11.86,71.02-31.53,78.41-61.32-7-4.01-13.59-4.89-17.39-5.34-3.71-.44-7.61-.73-10.85-.89-5.77-4.42-14.36-22.49-16.25-50.55l-2.42.65-40.46,11.07s1.85,12.86,2.76,25.02c.7,9.51.81,18.61-.99,20.83-3.16.68-5.05,1.13-5.05,1.13,0,0,0,.01-.02.04-.54.89-12.28,20.2-21.04,45.18Z"/>
        <path class="cls-24" d="M1186.97,880.94s1.86,12.85,2.76,25.02c22.92-2.29,33.56-24.12,37.7-36.09l-40.47,11.07Z"/>
        <path class="cls-29" d="M1186.5,900.25s52.78-13.56,43.83-46.3c-8.95-32.74-8.17-56.54-42.25-49.26-34.08,7.27-37.18,21.55-36.85,33.2.33,11.65,21.31,65.04,35.27,62.36Z"/>
        <path class="cls-2" d="M1147.8,819.26c5.42-12.08,12.15-11.6,16.4-9.58,24.38-23.68,49.3-5.41,49.3-5.41,9.96,22.52,30.59,31.32,30.59,31.32,0,0-7.95,8.55-31.59,8.93-7.22.12-14.56-3.02-21.27-7.43,13.05,12.52,28.17,19.97,28.17,19.97-29.72-4.95-50.38-38.72-52.5-42.31-2.42,3.76-7.02,11.75-7.26,18.42-.33,9.05,3.2,26.53-1.96,27.32,0,0-18.01-23.12-9.88-41.23Z"/>
        <path class="cls-29" d="M1171.32,925.19s88.64-21.52,127.18,10.27l-19.26,268.63-173.36-41.88s4.88-17,38.12-62.2c33.24-45.2,18.78-111.5,27.32-174.82Z"/>
        <path class="cls-16" d="M1222.99,1174.19s-.1.91-.28,2.65c-.08.75-.18,1.65-.29,2.7-.75,6.96-2.16,20.32-3.98,37.69-4.76,45.56-12.22,118.73-17.31,176.49-3.98,45.16-6.51,80.9-5.14,86.64,4.1,17.27,0,223.71,0,223.71-14.73,7.07-37.07,0-37.07,0,0,0-39.25-186.04-33.75-211.89,5.49-25.86-3.67-47.93-3.67-47.93-30.47-141.91-27.14-220.57-21.08-258.22,1.76-10.95,3.75-18.43,5.21-22.99,1.23-3.88,2.09-5.65,2.09-5.65,67.22-18.09,115.29,16.81,115.29,16.81Z"/>
        <path class="cls-13" d="M1310.45,1012.08c-4.28,32.32-21.4,71.86-27.51,93.15,0,0,10.22,73.9.46,94.2-1.11,2.32-2.48,3.93-4.16,4.66-36.15,15.75-176.92.46-182.86-44.96-2.16-16.5,53.62-74.54,56.87-81.58,1.35-2.91,2.79-12.36-3.75-31.92-9.27,28.58-60.43,20.36-60.43,20.36,6-10.28,20.97-81.36,37.67-113.45,12.56-24.12,46.09-27.62,46.09-27.62,0,0,13.96,22.14,47.71,19,33.75-3.14,39.93-23.8,39.93-23.8,0,0,29.94,3.98,39.16,11.42,1.6,1.29,16.45,38.2,10.83,80.54Z"/>
        <path class="cls-28" d="M1282.94,1105.23s10.22,73.9.46,94.2c-26.34-13.22-47.09-48.98-42.3-88.81,3.54-29.45,8.81-36.16,24.56-53.01,11.58-12.38,38.34-13.08,36.24-7.19-6.24,17.54-15.74,43.58-18.97,54.82Z"/>
        <g>
          <polygon class="cls-27" points="1173.01 1017.84 1233.37 1114.67 1130.66 1114.67 1073.15 1019.93 1173.01 1017.84"/>
          <polygon class="cls-9" points="1230.23 1109.81 1231.27 1106.43 1174.15 1014.79 1173.01 1017.84 1230.23 1109.81"/>
          <polygon class="cls-8" points="1174.15 1014.79 1077.4 1017.54 1073.15 1019.93 1173.01 1017.84 1174.15 1014.79"/>
          <polygon class="cls-17" points="1073.15 1019.93 1018.88 990.55 1082.15 1089.91 1130.66 1114.67 1073.15 1019.93"/>
        </g>
        <path class="cls-29" d="M1360.38,1087.79c-5.81,2.66-20.74,20.23-26.06,22.02-23.95,8.01-125.87-13.31-125.87-13.31l3.16-17.85s100.04,2.66,111.03-.29c2.07-.56,12.88-17.47,17.04-19.89l20.71,29.32Z"/>
        <path class="cls-29" d="M1211.61,1078.64s-12.06-9.82-20.21-7.6c-8.15,2.22-20.15,12.53-24.6,14.97-4.45,2.44-16.55,11.17-10.42,16.45,6.13,5.28,25.23.75,32.79-3.3,7.56-4.05,19.29-2.67,19.29-2.67l3.16-17.86Z"/>
        <path class="cls-29" d="M1193.7,1070.73s-14.66-1.75-18.67-1.67c-4,.08-2.92.96-.71,4.07,2.21,3.11,9.84,4.3,10.19,5.38s9.18-7.78,9.18-7.78Z"/>
        <path class="cls-13" d="M1260.46,920.12s43.48,5.16,55.45,23.8c15.14,23.57,50.86,117.46,49.71,141.12,0,0-26.12,44.45-115.67,37.33,0,0-9.32-32.91,9.52-43.78,0,0,46-8.18,51.3-12.85l-37.5-68.16-12.79-77.47Z"/>
        <path class="cls-29" d="M1087.06,1055.33c-1.35-5.48-13.29-2.06-17.32,1.1-.98.77-2.03,2.07-3.06,3.6-.13-.92-.23-1.79-.29-2.48-.23-2.57-3.22-7.18-3.97-3.73-.74,3.45-1.97,17.95-1.97,17.95-.15,11.68,7.36,16.5,12.18,12.7,4.82-3.8,15.77-23.65,14.43-29.13Z"/>
      </g>
    </g>
  </g>
</svg>