<?xml version="1.0" encoding="UTF-8"?>
<svg id="_레이어_2" data-name="레이어_2" xmlns="http://www.w3.org/2000/svg" viewBox="0 0 628.68 428.19">
  <defs>
    <style>
      .cls-1 {
        fill: #ab5a44;
      }

      .cls-2 {
        fill: #b8c1ea;
      }

      .cls-3 {
        fill: #f4b298;
      }

      .cls-4 {
        stroke: #ed796a;
      }

      .cls-4, .cls-5, .cls-6, .cls-7, .cls-8, .cls-9 {
        fill: none;
      }

      .cls-4, .cls-7, .cls-9 {
        stroke-linecap: round;
        stroke-linejoin: round;
      }

      .cls-10 {
        fill: #fff;
      }

      .cls-11 {
        fill: #545dbf;
      }

      .cls-5 {
        stroke: #fff;
      }

      .cls-5, .cls-8 {
        stroke-miterlimit: 10;
      }

      .cls-12 {
        fill: #f9ca51;
      }

      .cls-13 {
        fill: #822c29;
      }

      .cls-14 {
        fill: #ed796a;
      }

      .cls-15 {
        fill: #d7d5f2;
      }

      .cls-7 {
        stroke: #822c29;
      }

      .cls-16 {
        fill: #26244a;
      }

      .cls-8 {
        stroke: #8c98e9;
      }

      .cls-17 {
        fill: #e7a5dd;
      }

      .cls-18 {
        fill: #a3a3d7;
      }

      .cls-9 {
        stroke: #2c2c2c;
        stroke-width: 3px;
      }

      .cls-19 {
        fill: #8f91c7;
      }

      .cls-20 {
        fill: #2c2c2c;
      }

      .cls-21 {
        fill: #8c98e9;
      }
    </style>
  </defs>
  <g id="OBJECTS_x0A_">
    <g>
      <g>
        <path class="cls-20" d="M329.44,426.83c-.56-3.04-1.12-6.08-1.68-9.12-1.35-7.34-2.71-14.69-4.06-22.03-1.63-8.85-3.26-17.69-4.89-26.54l-4.23-22.96-1.4-7.61c-.21-1.12-.24-2.55-.67-3.61-.02-.05-.02-.11-.03-.16-.09-.47-.81-.27-.72.2.56,3.04,1.12,6.08,1.68,9.12l4.06,22.03c1.63,8.85,3.26,17.69,4.89,26.54,1.41,7.65,2.82,15.31,4.23,22.96l1.4,7.61c.21,1.12.24,2.55.67,3.61.02.05.02.11.03.16.09.47.81.27.72-.2h0Z"/>
        <path class="cls-20" d="M224.37,426.39c.56-3,1.11-6,1.67-9,1.34-7.21,2.67-14.41,4.01-21.62,1.63-8.76,3.25-17.53,4.88-26.29,1.4-7.54,2.8-15.09,4.2-22.63l1.38-7.46c.21-1.14.61-2.39.66-3.55,0-.05.02-.11.03-.16.09-.47-.64-.67-.72-.2-.56,3-1.11,6-1.67,9-1.34,7.21-2.67,14.41-4.01,21.62-1.63,8.76-3.25,17.53-4.88,26.29-1.4,7.54-2.8,15.09-4.2,22.63l-1.38,7.46c-.21,1.14-.61,2.39-.66,3.55,0,.05-.02.11-.03.16-.09.47.64.67.72.2h0Z"/>
        <path class="cls-2" d="M316.77,335.81l-82.98.66c-1.69.01-3.07-1.35-3.09-3.04h0c-.01-1.69,1.35-3.08,3.04-3.09l82.98-.66c1.69-.01,3.08,1.35,3.09,3.04h0c.01,1.69-1.35,3.08-3.04,3.09Z"/>
      </g>
      <g>
        <g>
          <path class="cls-20" d="M252.42,164.11c-2.15-.61-3.96-2.17-5.28-4.02s-2.2-4-2.97-6.16c-1.5-4.21-2.62-8.89-1.22-13.11,1.24-3.71,4.23-6.45,7.2-8.87,3.59-2.91,7.38-5.65,11.66-7.29,2.38-.91,4.97-1.48,7.48-1s4.91,2.18,5.76,4.67c1.85-1.14,3.9-2.01,6.06-2.11s4.42.67,5.84,2.37c1.42,1.7,1.78,4.37.55,6.2,2.31,1.03,3.79,3.76,3.44,6.32-.35,2.56-2.51,4.73-5,5.02"/>
          <g>
            <g>
              <path class="cls-3" d="M274.93,173.69c.06.49,2.03,16.91,2.03,16.91l-20.5,2.46-2.97-24.74,21.44,5.37Z"/>
              <g>
                <path class="cls-3" d="M276.38,179.22s12.22-3.42,10.57-17.25c-.56-4.73-1.2-9.73-3.2-18.41-2.15-9.33-9.71-12.38-19.8-10.96l-1,.14c-10.73,2.12-16.83,8.8-14.47,18.81l2.39,9.62s1.67,21.44,25.5,18.06"/>
                <path class="cls-20" d="M282.37,154.05c.14.77-.41,1.52-1.22,1.68-.81.16-1.58-.33-1.72-1.1-.14-.77.41-1.52,1.22-1.68.81-.16,1.58.34,1.72,1.1Z"/>
                <path class="cls-20" d="M268.61,156.89c.14.77-.41,1.52-1.22,1.68-.81.16-1.58-.33-1.72-1.1-.14-.77.41-1.52,1.22-1.68.81-.16,1.58.34,1.72,1.1Z"/>
              </g>
              <path class="cls-20" d="M262.13,153.56c1.21-1.02,2.94-1.26,4.41-.69.19.07.41-.08.46-.26.06-.21-.07-.39-.26-.46-1.72-.67-3.73-.29-5.14.89-.37.31.16.84.53.53h0Z"/>
              <path class="cls-20" d="M277.43,151.11c1.21-1.02,2.94-1.26,4.41-.69.19.07.41-.08.46-.26.06-.21-.07-.39-.26-.46-1.72-.67-3.73-.29-5.14.89-.37.31.16.84.53.53h0Z"/>
              <path class="cls-9" d="M276.13,145.44c1.27-.39,2.61-.56,3.93-.49"/>
              <path class="cls-9" d="M261.39,148.72c1.27-.39,2.61-.56,3.93-.49"/>
              <path class="cls-3" d="M253.46,159.66c-1.73-.69-3.76-.86-5.33.13-1.61,1.02-2.42,3.18-2.04,5.13.38,1.95,1.88,3.59,3.67,4.21,1.8.62,3.84.25,5.4-.84"/>
              <path class="cls-14" d="M252.94,164.28c-.32-.85-1.05-1.49-1.87-1.84-.97-.41-2.06-.33-2.95.26-.4.27-.02.92.38.65.69-.46,1.51-.54,2.28-.22.6.25,1.21.74,1.44,1.35.07.19.25.32.46.26.18-.05.33-.27.26-.46h0Z"/>
              <path class="cls-14" d="M276.16,179.08c-3.59.84-7.41.08-10.41-2.05-.39-.28-.77.37-.38.65,3.16,2.24,7.22,3.01,10.99,2.13.47-.11.27-.83-.2-.72h0Z"/>
              <path class="cls-20" d="M273.16,154.95c.29.94.59,1.87.88,2.81.14.46.29.91.43,1.37.1.33.2.7.5.9.27.18.6.19.91.15.18-.02.78-.23.91,0,.1.17-.17.53-.25.66-.12.2-.24.41-.36.61-.26.43-.51.86-.77,1.28s.4.79.65.38c.27-.45.54-.9.81-1.35.23-.38.53-.78.65-1.22.21-.8-.47-1.26-1.19-1.19-.32.03-.84.27-1.02-.1-.21-.42-.3-.95-.44-1.39-.33-1.04-.65-2.07-.98-3.11-.14-.46-.87-.26-.72.2h0Z"/>
            </g>
            <path class="cls-14" d="M274.94,166.67c-.11-.18-.27-.31-.46-.39-1.27-.51-2.53-1.03-3.8-1.54-.38-.15-.79-.31-1.17-.17-.32.12-.53.41-.67.72-.46,1.04-.16,2.35.65,3.15.81.8,2.06,1.1,3.17.82.9-.23,1.7-.8,2.25-1.56.22-.3.22-.72.03-1.04Z"/>
          </g>
          <path class="cls-20" d="M250.34,136.51c2.97-3.4,7.21-5.55,11.62-6.49,4.42-.94,9.02-.72,13.46.09,2.4.44,4.83,1.07,6.85,2.45,2.02,1.38,3.58,3.62,3.58,6.07,0,1.4-.62,2.92-1.9,3.5-1.39.64-3.1-.06-4.1-1.21-1-1.15-1.46-2.67-1.9-4.14-1.11,1.27-2.8,2.03-4.49,2-1.69-.02-3.36-.82-4.44-2.13-.32,1.78-2.28,2.77-4.08,2.97-1.79.2-3.65-.09-5.39.42-2.23.65-3.94,2.59-4.66,4.79-.72,2.2-.55,4.63.11,6.85.46,1.54,1.14,3.02,1.36,4.61.22,1.59-.12,3.38-1.37,4.39-.89.71-2.15.9-3.21.49-1.06-.41-2.81-1.98-3.25-3.36l-1.99-8.79c-.79-4.44.81-9.14,3.78-12.54Z"/>
        </g>
        <g>
          <path class="cls-10" d="M236.09,192.58l19.71-5.77s7.61,3.39,12.96,3.39c5.35,0,7.36-2.23,7.36-2.23l23.15,7.16-2.75,30.97,4.14,58.16-75.37-1.19,12.9-68.23-2.1-22.26Z"/>
          <path class="cls-10" d="M238.06,192.15s-11.75,1.35-15.28,10.07c-3.33,8.22-15.61,37.33-15.61,48.86s6.56,17.23,11.17,18.15c4.61.92,33.43-10.35,33.43-10.35l-5.91-24.78-8.4,3.6,3.89-20.69-3.3-24.85Z"/>
          <path class="cls-10" d="M299.28,195.14s7.84,4.05,9.97,14.11c1.78,8.4,5.89,27.28,5.89,27.28l16.88-13.72,16.04,18.37s-18.75,16.35-26.16,21.28c-12.88,8.56-23.36-3.56-23.36-3.56l-4.2-61.19,4.94-2.56Z"/>
          <path class="cls-20" d="M297.63,276.27h-30.01c-.48,0-.48.75,0,.75h30.01c.48,0,.48-.75,0-.75h0Z"/>
          <path class="cls-20" d="M314.85,236.13c-3.26,3.75-4.92,8.74-4.51,13.7.04.48.79.48.75,0-.4-4.76,1.15-9.56,4.29-13.17.32-.36-.21-.9-.53-.53h0Z"/>
          <path class="cls-20" d="M237.68,238.28c1.73-7.38,3.47-14.75,5.2-22.13.11-.47-.61-.67-.72-.2-1.73,7.38-3.47,14.75-5.2,22.13-.11.47.61.67.72.2h0Z"/>
          <g>
            <g>
              <path class="cls-21" d="M255.77,248.38l16.29-49.87c.48-1.48,1.86-2.48,3.42-2.47l37.36.19c2.43.01,4.14,2.39,3.38,4.7l-16.33,49.67c-.48,1.47-1.85,2.46-3.4,2.46h-37.32c-2.43,0-4.16-2.37-3.4-4.68Z"/>
              <path class="cls-10" d="M269.47,207.98c3.79,2.6,8.89,2.09,12.7-.21,4.19-2.53,6.82-6.95,8.76-11.31.19-.44-.45-.82-.65-.38-1.81,4.07-4.18,8.16-7.95,10.7s-8.72,3.14-12.48.56c-.4-.27-.77.38-.38.65h0Z"/>
              <path class="cls-10" d="M261.95,230.26c3.51,1.74,7.49,2.31,11.35,1.57s7.09-2.82,9.88-5.44c3.01-2.83,5.45-6.18,8.08-9.34,2.99-3.59,6.19-7,9.59-10.2,1.9-1.79,3.94-3.53,6.37-4.53,2.62-1.08,5.46-1.11,8.14-.23.46.15.66-.57.2-.72-8.84-2.92-15.6,4.92-20.97,10.75-2.92,3.17-5.54,6.58-8.33,9.87-2.6,3.08-5.51,6.06-9.19,7.82-4.64,2.22-10.15,2.09-14.74-.19-.43-.21-.81.43-.38.65h0Z"/>
              <path class="cls-10" d="M284.08,253.14c2.91-6.67,9.62-10.87,16.9-10.53.48.02.48-.73,0-.75-7.52-.35-14.54,4-17.55,10.9-.19.44.46.82.65.38h0Z"/>
              <path class="cls-10" d="M272.93,243.76c1.67,1.56,4.05,1.63,6.08.75,2.87-1.25,4.66-3.98,7.23-5.65,4.51-2.93,11.18-1.7,14.79-6.21,1.04-1.3,2.13-4.01.05-4.95s-5.08.97-6.81,1.99c-2.59,1.54-5.03,3.33-7.96,4.19-1.44.42-2.92.69-4.31,1.26-.93.38-1.86.78-2.79,1.16-2.57,1.03-8.63,3.21-6.34,7.01.25.41.9.04.65-.38-1.88-3.12,3.69-5.02,5.76-5.86,1.68-.68,3.34-1.44,5.1-1.91,2.25-.6,4.29-1.23,6.32-2.4s3.83-2.49,5.89-3.48c1.03-.5,2.52-1.25,3.71-1.01,2.34.46.82,3.2-.12,4.23-3.17,3.45-8.42,3.06-12.46,4.75-2.47,1.03-4.18,2.95-6.16,4.67-2.16,1.87-5.58,3.67-8.09,1.32-.35-.33-.88.2-.53.53h0Z"/>
            </g>
            <g>
              <path class="cls-3" d="M245.8,235.15l8.43-7.33s2.84-6.72,5.47-9.62c2.63-2.9,5.16-3.88,7.27-4.68,2.12-.8,7.41-1.51,7.47,1.43.04,2.01-1.98,2.1-4.69,2.8-2.71.7-5.86,3.7-5.86,3.7,0,0,8.37.36,10.55,4.16,0,0,1.35,2.28-2.13,3.41,0,0,1.98,3.63-1.98,4.67,0,0-4.05-1.89-6.79-2.19l-1.46.06s5.18,2.96,5.54,4.51c.36,1.55.15,3.1-1.47,3.26s-2.92-2.22-5.05-2.41c0,0-1.54-.69-1.73.43-.04.22-1.32,6.78-1.49,7.26-1.21,3.28-1.02,3.4-3.6,5.77l-3.56,3.26-4.93-18.48Z"/>
              <path class="cls-14" d="M267.92,221.64c-2.53-1.16-5.61-.9-7.87.75-.39.28-.01.93.38.65,2.04-1.48,4.81-1.8,7.11-.75.44.2.82-.45.38-.65h0Z"/>
              <path class="cls-14" d="M272.15,229.03c-3.68-2.73-8.38-3.82-12.88-3.05-.47.08-.27.8.2.72,4.31-.73,8.8.37,12.3,2.98.39.29.76-.36.38-.65h0Z"/>
            </g>
          </g>
          <path class="cls-20" d="M228.58,242c5.83-2.05,11.56-4.37,17.17-6.95l-.55-.22c1.81,7.05,3.63,14.1,5.44,21.16l.77,2.99.26-.46c-3.88,1.41-7.76,2.82-11.64,4.23-.45.16-.26.89.2.72,3.88-1.41,7.76-2.82,11.64-4.23.19-.07.32-.25.26-.46-1.81-7.05-3.63-14.1-5.44-21.16l-.77-2.99c-.07-.25-.34-.32-.55-.22-5.56,2.55-11.23,4.84-16.99,6.87-.45.16-.26.88.2.72h0Z"/>
          <path class="cls-20" d="M235.01,193.07c5.83,1.47,9.62,7.08,8.89,13.03-.06.48.69.47.75,0,.78-6.28-3.32-12.21-9.44-13.75-.47-.12-.67.61-.2.72h0Z"/>
        </g>
        <g>
          <g>
            <path class="cls-20" d="M386.91,426.18s-.57-14.2-17.95-16.73l1.08-12.54-39.38-1.17-2.67,30.3,58.91.13Z"/>
            <path class="cls-11" d="M377.84,409.86c-2.93,1.22-5.75,2.67-8.45,4.35-.41.25-.03.9.38.65,2.64-1.64,5.4-3.07,8.27-4.27.44-.18.25-.91-.2-.72h0Z"/>
            <path class="cls-11" d="M373.9,408.62c-2.49,1.48-4.99,2.96-7.48,4.44-.41.25-.04.89.38.65,2.49-1.48,4.99-2.96,7.48-4.44.41-.25.04-.89-.38-.65h0Z"/>
          </g>
          <g>
            <path class="cls-20" d="M325.85,426.92s-.57-14.2-17.95-16.73l.61-16.12-39.54.64-1.6,32.22h58.48Z"/>
            <path class="cls-11" d="M316.78,410.6c-2.93,1.22-5.75,2.67-8.45,4.35-.41.25-.03.9.38.65,2.64-1.64,5.4-3.07,8.27-4.27.44-.18.25-.91-.2-.72h0Z"/>
            <path class="cls-11" d="M312.84,409.35c-2.49,1.48-4.99,2.96-7.48,4.44-.41.25-.04.89.38.65,2.49-1.48,4.99-2.96,7.48-4.44.41-.25.04-.89-.38-.65h0Z"/>
          </g>
          <path class="cls-20" d="M371.91,403.98s9.82-77.75,11.15-91.66-.99-26.15-19.53-27.48c-18.54-1.32-79.08-.79-79.08-.79l7,45.19,41.9.72-10.18,72.8,48.75,1.21Z"/>
          <path class="cls-20" d="M311.26,400.72v-91.78s2.07-24-25.37-25.05c-27.89-1.06-59.9-.32-59.9-.32,0,0-4.1,22.98-2.39,31.85.36,1.85,1.01,3.65,1.88,5.37,4.05,8,12.49,12.81,21.46,12.77l15.21-.06,2.34,68.14,46.78-.92Z"/>
          <path class="cls-2" d="M282.54,284.5c6.83-.41,14.03.84,19.66,4.94,3.67,2.68,6.64,6.68,7.46,11.21,1.16,6.4,1.08,13.13,1.25,19.61.26,10.11.3,20.22.29,30.33s-.08,20-.17,30c-.06,6.35-.17,12.71-.15,19.06,0,.36,0,.71,0,1.07l.38-.38c-5.26.1-10.52.21-15.78.31-8.39.16-16.79.33-25.18.49-1.94.04-3.88.08-5.83.11-.48,0-.48.76,0,.75,5.26-.1,10.52-.21,15.78-.31,8.39-.16,16.79-.33,25.18-.49,1.94-.04,3.88-.08,5.83-.11.2,0,.38-.17.38-.38-.07-5.84.06-11.68.11-17.52.09-10.03.18-20.06.19-30.08s0-20.8-.25-31.19c-.16-6.89-.15-13.95-1.2-20.78-1.64-10.71-12.41-16.51-22.34-17.35-1.87-.16-3.74-.16-5.61-.05-.48.03-.48.78,0,.75h0Z"/>
          <path class="cls-18" d="M262.7,338.8c-.16-10.87-1.01-21.72-1.16-32.6,0-.48-.76-.48-.75,0,.16,10.87,1.01,21.72,1.16,32.6,0,.48.76.48.75,0h0Z"/>
          <path class="cls-2" d="M371.63,403.84c-15.69-.44-31.38-.88-47.06-1.33-.48-.01-.48.74,0,.75,15.69.44,31.38.88,47.06,1.33.48.01.48-.74,0-.75h0Z"/>
        </g>
        <g>
          <path class="cls-3" d="M333.55,224.59l12.33-8.21,20.99,5.09s-20.92,17.45-20.68,17.61c.23.16-12.64-14.49-12.64-14.49Z"/>
          <path class="cls-17" d="M370.41,200.61c-7.89-3.29-17.09-3.31-25-.05l.49,3.81,11.49,2.12,12.29-3.11.73-2.77Z"/>
          <path class="cls-21" d="M368.16,229.53c-7,3.23-13.92,3.32-20.74.03-1.34-.65-2.18-2.02-2.18-3.5v-25.29c7.99,4.75,16.38,4.75,25.17,0v25.23c0,1.5-.87,2.9-2.25,3.53Z"/>
          <path class="cls-3" d="M345.13,223.83c2.56-2.59,3.69-6.52,2.89-10.08,3.09.3,6.29-.94,8.37-3.25.84-.93,1.46-2.49.54-3.34-.49-.45-1.22-.49-1.88-.51-2.24-.05-4.48-.09-6.72-.14-2.08-.04-4.29-.05-6.06,1.04-2.01,1.24-2.99,3.62-3.58,5.9-.6,2.28-1.09,5.01-.52,8.83,0,0,.65,2.19,3.17,2.27s3.81-.72,3.81-.72Z"/>
          <path class="cls-21" d="M369.68,210.73c.11-.12.22-.25.34-.36.07-.07.14-.12.21-.19.18-.18-.24.18-.23.17.16-.09.31-.22.47-.31.15-.09.39-.15.5-.26-.03.03-.59.22-.2.09.07-.02.13-.05.2-.07.16-.05.32-.1.48-.13.09-.02.19-.04.28-.06.21-.04.34.05-.24.03.19,0,.38-.03.57-.03.17,0,.33.02.5.03.32.02-.56-.11-.24-.03.07.02.14.03.21.04.18.04.36.1.54.16.08.03.32.13-.04-.02-.4-.17,0,0,.08.05.14.07.28.16.42.24.08.05.15.11.23.16.22.14-.24-.19-.23-.18.12.13.28.24.41.37.12.12.24.33.37.41-.03-.02-.36-.51-.14-.17.04.06.08.11.12.17.09.14.17.28.25.42.02.04.08.21.12.25-.03-.02-.22-.6-.09-.21.06.17.12.35.17.53.03.12.12.66.06.21-.06-.47,0,.12,0,.23,0,.19,0,.38-.02.57,0,.09-.04.35.01-.05.06-.45,0-.01-.03.09-.04.16-.08.32-.13.48-.03.09-.07.18-.09.27-.07.25.13-.28.12-.27-.1.16-.16.34-.26.51-.08.14-.28.33-.31.48,0-.04.4-.47.13-.17-.05.05-.09.11-.14.16-.11.12-.23.24-.35.35-.05.04-.18.13-.22.18.03-.04.5-.35.16-.14-.17.1-.33.21-.51.3-.09.04-.19.08-.27.13.09-.06.5-.19.18-.09-.22.06-.43.13-.65.18-.07.01-.15.02-.22.04.57-.18.38-.04.15-.03s-.45.02-.67,0c-.07,0-.15-.01-.22-.02-.31,0,.59.12.15.02-.19-.04-.39-.08-.58-.14-.1-.03-.19-.06-.28-.09-.42-.13.38.2.12.05-.2-.11-.39-.21-.58-.33-1.11-.7-2.81-.27-3.42.9-.65,1.23-.28,2.67.9,3.42,1.96,1.24,4.6,1.56,6.79.76,2.34-.86,4.05-2.67,4.86-5.02,1.54-4.47-1.68-9.48-6.31-10.1-2.54-.34-5.24.54-6.96,2.48-.87.98-1.04,2.58,0,3.54.95.87,2.61,1.05,3.54,0h0Z"/>
          <path class="cls-3" d="M370.48,210.3c-1.21-.01-2.43.64-2.99,1.71-.56,1.07-.37,2.52.53,3.32.96.86,2.48.85,3.61.22.78-.43,1.42-1.14,1.68-1.98s.14-1.83-.41-2.53c-.55-.7-1.53-1.05-2.38-.8"/>
          <path class="cls-3" d="M371.04,219.69c-1.21-.01-2.43.64-2.99,1.71-.56,1.07-.37,2.52.53,3.32.96.86,2.48.85,3.61.22.78-.43,1.42-1.14,1.68-1.98s.14-1.83-.41-2.53c-.55-.7-1.53-1.05-2.38-.8"/>
          <path class="cls-16" d="M345.05,201.09c3.85,2.57,8.49,3.75,13.1,3.64,4.32-.1,8.86-.98,12.49-3.44.4-.27.02-.92-.38-.65-3.52,2.38-7.92,3.24-12.11,3.33-4.49.1-8.97-1.03-12.72-3.54-.4-.27-.78.38-.38.65h0Z"/>
        </g>
      </g>
    </g>
    <g>
      <g>
        <path class="cls-20" d="M119.95,156.24c-.22-4.71-1.41-9.46-4.08-13.34-4.83-7.03-14.34-10.21-22.63-8.19s-15.06,8.79-17.81,16.87c-1.73,5.09-1.96,10.77-.11,15.81s5.89,9.36,10.99,11.04l27.78-5c4.61-4.23,6.16-10.94,5.86-17.19Z"/>
        <g>
          <path class="cls-1" d="M103.55,180.29v16.57h-18.94v-22.07l18.94,5.5Z"/>
          <g>
            <path class="cls-1" d="M105.03,185.55s12.2-1.89,12.21-15.43c0-4.63-.03-9.54-.95-18.15-.99-9.26-7.94-13.09-17.85-12.88l-.98.02c-10.61.8-17.27,6.55-16.15,16.49l1.19,9.57s-.87,20.9,22.54,20.4"/>
            <path class="cls-20" d="M113.54,162.14c.04.76-.57,1.42-1.38,1.48-.8.06-1.49-.51-1.53-1.26-.04-.76.57-1.42,1.37-1.48.8-.06,1.49.51,1.53,1.26Z"/>
            <path class="cls-20" d="M100.11,163.07c.04.76-.57,1.42-1.38,1.48-.8.06-1.49-.51-1.53-1.26-.04-.76.57-1.42,1.37-1.48.8-.06,1.49.51,1.53,1.26Z"/>
          </g>
          <path class="cls-20" d="M94.2,159.14c1.28-.83,2.97-.93,4.32-.21.43.23.81-.42.38-.65-1.58-.84-3.57-.77-5.08.21-.4.26-.03.91.38.65h0Z"/>
          <path class="cls-20" d="M109.26,158.55c1.28-.83,2.97-.93,4.32-.21.43.23.81-.42.38-.65-1.58-.84-3.57-.77-5.08.21-.4.26-.03.91.38.65h0Z"/>
          <path class="cls-9" d="M108.7,152.88c1.27-.23,2.58-.24,3.86-.01"/>
          <path class="cls-9" d="M94.08,154.35c1.27-.23,2.58-.24,3.86-.01"/>
          <path class="cls-20" d="M83.82,165.89c5.17.8,6.92-9.24,15.88-13.59,4.83-2.35,8.32-9.2,9.37-14.6,0,0-11.82-6.54-21.44.23-9.62,6.77-10.21,19.1-10.21,19.1l6.4,8.86Z"/>
          <path class="cls-1" d="M85.15,163.99c-1.59-.87-3.53-1.27-5.16-.49-1.67.79-2.71,2.79-2.56,4.72s1.39,3.68,3.06,4.49,3.68.69,5.31-.19l-.64-8.53Z"/>
          <path class="cls-7" d="M83.76,168.45c-.3-1.26-2.15-2.75-3.96-1.8"/>
          <path class="cls-7" d="M104.88,185.74c-3.62.43-7.41-.79-10.09-3.26"/>
          <path class="cls-20" d="M104.73,161.77c.17.92.34,1.84.51,2.76.09.47.18.95.26,1.42.07.37.13.73.46.96.25.17.55.21.85.2.19,0,.8-.13.81.17,0,.16-.25.43-.33.54-.12.16-.25.32-.37.48-.3.38-.59.77-.89,1.15s.24.91.53.53c.31-.4.62-.81.94-1.21.27-.35.6-.69.78-1.09.31-.71-.18-1.28-.89-1.34-.25-.02-.81.14-1.01-.05-.15-.14-.16-.59-.19-.77-.05-.26-.1-.53-.15-.79-.2-1.05-.39-2.1-.59-3.15-.09-.47-.81-.27-.72.2h0Z"/>
          <path class="cls-13" d="M99.14,171.34c.17-.29.43-.57.76-.65.4-.09.8.11,1.16.31,1.31.72,2.61,1.45,3.92,2.17l.38.84c-.66.95-1.7,1.65-2.85,1.79-1.15.14-2.37-.3-3.09-1.21-.72-.91-.86-2.26-.27-3.25Z"/>
        </g>
        <path class="cls-20" d="M72.85,139.59c-4.15-1.45-9.02-.58-12.41,2.22-1.87,1.54-3.32,3.75-3.42,6.17-.1,2.42,1.45,4.97,3.81,5.51-1.23.34-2.43.99-3.16,2.04-.73,1.05-.89,2.55-.16,3.6.73,1.06,2.21,1.43,3.46,1.12s2.29-1.2,3.08-2.21c-1.15,1.57-.32,4.16,1.53,4.77,1.85.61,4.05-.99,4.06-2.93-.22,1.32.73,2.65,1.99,3.1,1.26.45,2.7.1,3.79-.68,1.08-.78,1.84-1.94,2.37-3.16l3.39-10.07c-.9-4.3-4.17-8.02-8.32-9.47Z"/>
      </g>
      <path class="cls-10" d="M160.84,198.79c-.7.88-23.57,26.21-23.57,26.21l-22.96-26.21-14.09,26.26,22.72,23.53c3.63,3.76,8.64,5.89,13.87,5.89h0c6.5,0,12.56-3.27,16.13-8.71l24.44-37.29-16.53-9.67Z"/>
      <g>
        <path class="cls-21" d="M164.5,427.94s2.13-14.05-14.45-19.83l3.44-12.11-38.44-8.62-8.37,29.25,57.82,11.31Z"/>
        <path class="cls-11" d="M158.61,410.21c-3.07.64-6.09,1.52-9.02,2.65-.45.17-.25.9.2.72,2.93-1.12,5.95-2.01,9.02-2.65.47-.1.27-.82-.2-.72h0Z"/>
        <path class="cls-11" d="M155.08,408.22c-2.73.98-5.46,1.96-8.18,2.94-.45.16-.26.89.2.72,2.73-.98,5.46-1.96,8.18-2.94.45-.16.26-.89-.2-.72h0Z"/>
      </g>
      <g>
        <path class="cls-21" d="M81.03,420.19s10.6-9.48,1.49-24.49l10.36-7.14-24.15-31.13-25.08,17.22,37.37,45.54Z"/>
        <path class="cls-11" d="M87.82,402.79c-2.81-1.48-5.73-2.73-8.73-3.75-.46-.15-.66.57-.2.72,2.95.99,5.8,2.22,8.55,3.67.43.23.81-.42.38-.65h0Z"/>
        <path class="cls-11" d="M86.28,398.96c-2.73-.98-5.45-1.97-8.18-2.95-.45-.16-.65.56-.2.72,2.73.98,5.45,1.97,8.18,2.95.45.16.65-.56.2-.72h0Z"/>
      </g>
      <path class="cls-11" d="M124.46,321.62l-62.14,38.64c.23.68,25.91,35.26,25.91,35.26l48.14-35.01,13.68-37.47-25.59-1.42Z"/>
      <path class="cls-21" d="M109.25,267.12l1.7,14.13s50.39,2.89,59.18,6.55c8.78,3.66,11.5,8.56,10.77,21.74-.73,13.18-26.68,94.5-26.68,94.5l-46.4-8.53,23.45-69.73-53.38.03c-9.18,0-17.89-4.64-22.51-12.57-2.54-4.35-4.04-9.91-2.85-16.8,1.74-10.1,12.27-28.44,12.27-28.44l44.47-.89Z"/>
      <path class="cls-20" d="M81.25,280.11c18.71.16,37.39,1.27,55.98,3.35.48.05.48-.7,0-.75-18.59-2.07-37.28-3.19-55.98-3.35-.48,0-.48.75,0,.75h0Z"/>
      <path class="cls-2" d="M44.11,331.56h69.18c1.69,0,3.06-1.37,3.06-3.06h0c0-1.69-1.37-3.06-3.06-3.06H44.11c-1.69,0-3.06,1.37-3.06,3.06h0c0,1.69,1.37,3.06,3.06,3.06Z"/>
      <path class="cls-2" d="M30.9,220.12h0c1.75-.2,3.32,1.06,3.52,2.81l11.82,104.77c.2,1.75-1.06,3.32-2.81,3.52h0c-1.75.2-3.32-1.06-3.52-2.81l-11.82-104.77c-.2-1.75,1.06-3.32,2.81-3.52Z"/>
      <path class="cls-20" d="M46.26,331.83c-.67,3.13-1.34,6.25-2.01,9.38l-4.82,22.53-5.83,27.26-5.04,23.57-1.66,7.77c-.25,1.18-.72,2.49-.79,3.69,0,.05-.02.11-.03.16-.1.47.62.67.72.2.67-3.13,1.34-6.25,2.01-9.38l4.82-22.53,5.83-27.26,5.04-23.57,1.66-7.77c.25-1.18.72-2.49.79-3.69,0-.05.02-.11.03-.16.1-.47-.62-.67-.72-.2h0Z"/>
      <path class="cls-20" d="M124.41,426.2c-.58-3.15-1.16-6.3-1.74-9.45l-4.16-22.56c-1.68-9.14-3.37-18.27-5.05-27.41l-4.35-23.61-1.44-7.83c-.21-1.16-.25-2.62-.69-3.72-.02-.05-.02-.11-.03-.16-.09-.47-.81-.27-.72.2.58,3.15,1.16,6.3,1.74,9.45l4.16,22.56c1.68,9.14,3.37,18.27,5.05,27.41l4.35,23.61,1.44,7.83c.21,1.16.25,2.62.69,3.72.02.05.02.11.03.16.09.47.81.27.72-.2h0Z"/>
      <g>
        <path class="cls-1" d="M163.63,195.92s-.76-8.55,5.96-10.27c6.72-1.73,11.66-1.13,11.06,1.35,0,0,13.3-.48,15.14.42s1.36,2.93,1.36,2.93c0,0,3.95.78,1.4,3.84,0,0,.63,2.17-1.22,3.22-1.85,1.05-22.34,7.49-22.57,7.54s-3.84,6.7-3.84,6.7c0,0-9.99-1.02-12.19-8.83l4.88-6.89Z"/>
        <path class="cls-13" d="M190.02,196.88c-1.04-2.4-2.59-4.57-4.52-6.34-.35-.33-.89.2-.53.53,1.88,1.73,3.38,3.84,4.4,6.19.19.44.84.06.65-.38h0Z"/>
        <path class="cls-13" d="M177.19,190.07c-.66,2.54-2.38,4.72-4.69,5.96-.43.23-.05.88.38.65,2.48-1.33,4.33-3.69,5.04-6.41.12-.47-.6-.67-.72-.2h0Z"/>
        <path class="cls-13" d="M181.51,194.28c-1.65-.83-3.51-1.19-5.35-1-.2.02-.37.16-.38.38,0,.19.17.4.38.38,1.71-.18,3.43.12,4.97.9.43.22.81-.43.38-.65h0Z"/>
        <path class="cls-13" d="M180.34,186.79c-2.49.41-4.96.92-7.42,1.5-.47.11-.27.84.2.72,2.46-.59,4.93-1.09,7.42-1.5.48-.08.27-.8-.2-.72h0Z"/>
        <path class="cls-13" d="M187.43,191.39c3.29-.74,6.66-.97,10.02-.71.48.04.48-.71,0-.75-3.42-.27-6.87-.02-10.22.73-.47.11-.27.83.2.72h0Z"/>
        <path class="cls-13" d="M189.49,195.58c3.03-.85,6.16-1.27,9.31-1.24.48,0,.48-.75,0-.75-3.21-.03-6.42.4-9.51,1.27-.46.13-.27.85.2.72h0Z"/>
      </g>
      <g>
        <path class="cls-10" d="M112.4,260.84c-.07-.19-.14-.39-.21-.59l-1.25,3.63c-.32,2.07-2.1,3.6-4.2,3.6h-25.86c-4,3.79-11.05,9.32-18.71,10.03-11.8,1.09-13.08-9.28-12.81-15.89.27-6.6,3.83-41.52,8.64-53.77,4.81-12.25,25.29-13.81,25.83-13.8,7.76,4.45,17.55,5.93,19.67,1.25,0,0,6.09,1.07,8.99,2.16,0,0,5.46,3.03,7.23,10.1s-.33,36.63-7.52,52.7"/>
        <path class="cls-20" d="M77.57,244.83c1.43-9.88.78-19.91,2.2-29.78.07-.47-.65-.68-.72-.2-1.43,9.88-.78,19.91-2.2,29.78-.07.47.65.68.72.2h0Z"/>
        <g>
          <path class="cls-1" d="M77.24,245.06l11.21-4.77s5.53-4.76,9.18-6.18,6.34-1.17,8.6-.95c2.25.23,7.31,1.95,6.06,4.61-.86,1.82-2.71,1-5.45.42s-6.89.7-6.89.7c0,0,7.34,4.05,7.59,8.43,0,0,.19,2.64-3.43,2.1,0,0,.16,4.13-3.85,3.29,0,0-2.78-3.49-5.1-4.99l-1.34-.6s3.32,4.96,2.95,6.51c-.37,1.55-1.25,2.84-2.77,2.26-1.52-.58-1.62-3.29-3.44-4.41,0,0-1.62,2.17-2.3,3.09-.67.92-5.16,4.58-5.16,4.58,0,0-1.94-4.25-3.25-7.66-1.49-3.88-2.61-6.44-2.61-6.44Z"/>
          <path class="cls-13" d="M103.43,240.8c-1.76-2.18-4.66-3.23-7.41-2.76-.47.08-.27.8.2.72,2.49-.42,5.1.61,6.68,2.57.3.38.83-.16.53-.53h0Z"/>
          <path class="cls-13" d="M103.98,249.38c-2.06-4.07-5.79-7.17-10.15-8.48-.46-.14-.66.58-.2.72,4.19,1.26,7.73,4.24,9.71,8.14.22.43.87.05.65-.38h0Z"/>
        </g>
        <path class="cls-20" d="M60.93,251.71c5.09-3.03,10.67-4.92,16.41-6.29l-.46-.26c2.59,6.27,5.19,12.53,7.78,18.8.18.44.91.25.72-.2-2.59-6.27-5.19-12.53-7.78-18.8-.08-.19-.24-.31-.46-.26-5.8,1.39-11.45,3.31-16.59,6.37-.41.25-.04.9.38.65h0Z"/>
        <path class="cls-20" d="M110.21,265.74c7.77-16.13,11.07-34.22,9.47-52.05-.04-.48-.79-.48-.75,0,1.59,17.7-1.66,35.67-9.37,51.67-.21.43.44.81.65.38h0Z"/>
        <path class="cls-10" d="M107.87,190.24l-.75,5.55c-.09.64-.44,1.22-.98,1.58l-9.06,6.08c-.71.47-1.62.51-2.36.1l-13.34-7.4c-.75-.42-1.2-1.23-1.17-2.09l.21-4.74c.06-1.23,1.08-2.19,2.32-2.17l22.94.51c1.35.03,2.38,1.23,2.2,2.57Z"/>
        <path class="cls-20" d="M81.84,195.39c8.18,1.53,16.93,1.72,25.17.54.48-.07.27-.79-.2-.72-8.09,1.15-16.73.96-24.77-.54-.47-.09-.67.63-.2.72h0Z"/>
      </g>
    </g>
    <g>
      <g>
        <path class="cls-21" d="M409.6,50.2h83.16c.8,0,.81-1.25,0-1.25h-83.16c-.8,0-.81,1.25,0,1.25h0Z"/>
        <path class="cls-21" d="M409.6,57.28h83.16c.8,0,.81-1.25,0-1.25h-83.16c-.8,0-.81,1.25,0,1.25h0Z"/>
        <path class="cls-21" d="M409.6,64.36h83.16c.8,0,.81-1.25,0-1.25h-83.16c-.8,0-.81,1.25,0,1.25h0Z"/>
        <path class="cls-21" d="M409.6,71.45h12.79c.8,0,.81-1.25,0-1.25h-12.79c-.8,0-.81,1.25,0,1.25h0Z"/>
      </g>
      <g>
        <path class="cls-21" d="M409.6,97.12h83.16c.8,0,.81-1.25,0-1.25h-83.16c-.8,0-.81,1.25,0,1.25h0Z"/>
        <path class="cls-21" d="M409.6,104.2h83.16c.8,0,.81-1.25,0-1.25h-83.16c-.8,0-.81,1.25,0,1.25h0Z"/>
        <path class="cls-21" d="M409.6,111.29h83.16c.8,0,.81-1.25,0-1.25h-83.16c-.8,0-.81,1.25,0,1.25h0Z"/>
        <path class="cls-21" d="M409.6,118.37h12.79c.8,0,.81-1.25,0-1.25h-12.79c-.8,0-.81,1.25,0,1.25h0Z"/>
      </g>
      <g>
        <rect class="cls-8" x="330.99" y="109.05" width="52.09" height="39.9" rx="4.28" ry="4.28"/>
        <path class="cls-21" d="M331.16,127.99c4.21-1.15,8.7-.76,12.67,1.08,2.03.94,3.89,2.22,5.52,3.75s3.04,3.21,4.77,4.59c6.45,5.14,15.28,1.24,20.01-4.38,1.1-1.31,2.13-2.68,3.38-3.86,1.64-1.55,3.56-2.56,5.73-3.13.78-.2.45-1.41-.33-1.21-3.4.89-5.96,2.85-8.18,5.51-.99,1.18-1.93,2.42-3.04,3.5-1.45,1.42-3.23,2.51-5.06,3.37-2.06.96-4.37,1.57-6.66,1.36-2.44-.22-4.44-1.5-6.2-3.13-1.62-1.51-3.06-3.21-4.78-4.61-1.6-1.3-3.36-2.37-5.25-3.17-4.09-1.73-8.62-2.06-12.91-.89-.78.21-.45,1.42.33,1.21h0Z"/>
        <path class="cls-8" d="M355.74,120.88c-.32,2.56-2.65,4.38-5.21,4.07-2.56-.32-4.38-2.65-4.06-5.21.32-2.56,2.65-4.38,5.21-4.06,2.56.32,4.38,2.65,4.06,5.21Z"/>
      </g>
      <path class="cls-10" d="M508.89,170.01h-16.79c-6.14,0-12.27,0-18.41,0-7.65,0-15.3,0-22.95,0-8.53,0-17.06,0-25.59,0s-17.85,0-26.78,0-17.35,0-26.03,0c-7.94,0-15.88,0-23.82,0h-19.7c-4.67,0-9.35,0-14.02,0-2.23,0-4.45.01-6.68,0-3.39-.02-6.4-2.18-7.03-5.62-.15-.82-.1-1.69-.1-2.53v-10.57c0-6.22,0-12.44,0-18.66,0-7.98,0-15.97,0-23.95s0-17.7,0-26.55c0-8.69,0-17.37,0-26.06s0-15.31,0-22.96c0-5.6,0-11.21,0-16.81,0-2.65-.02-5.31,0-7.96.02-3.87,2.88-7.02,6.83-7.09.41,0,.82,0,1.23,0h24.45c6.97,0,13.94,0,20.91,0,8.2,0,16.39,0,24.59,0,8.78,0,17.57,0,26.35,0s17.78,0,26.66,0c8.35,0,16.69,0,25.04,0,7.29,0,14.57,0,21.86,0,5.69,0,11.37,0,17.06,0h10.42c.74,0,1.48,0,2.23,0,3.69.02,6.89,2.67,7.09,6.48.1,1.97,0,3.96,0,5.92v146.71c0,.85,0,1.69,0,2.54-.02,3.89-2.87,7.01-6.83,7.11-.8.02-.81,1.27,0,1.25,4.52-.1,8.01-3.66,8.08-8.17.01-.75,0-1.49,0-2.24V13.55c0-2.16.21-4.45-.08-6.6-.56-4.06-4.08-6.9-8.1-6.95-.63,0-1.26,0-1.89,0h-10.01c-5.59,0-11.18,0-16.77,0-7.31,0-14.63,0-21.94,0-8.43,0-16.86,0-25.29,0-8.96,0-17.93,0-26.89,0s-17.75,0-26.62,0c-8.28,0-16.56,0-24.84,0-7.06,0-14.13,0-21.19,0-5.26,0-10.53,0-15.79,0h-8.63c-.59,0-1.19-.02-1.78.03-4.25.37-7.32,3.98-7.38,8.16-.03,2.45,0,4.9,0,7.34v16.63c0,7.66,0,15.31,0,22.97,0,8.75,0,17.49,0,26.24,0,8.94,0,17.88,0,26.82s0,16.22,0,24.33c0,6.3,0,12.6,0,18.9v10.5c0,.99-.02,1.97.18,2.95.8,3.8,4.23,6.32,8.03,6.37,2.02.03,4.05,0,6.07,0h13.77c6.57,0,13.14,0,19.71,0,7.93,0,15.86,0,23.79,0h137.61c.8,0,.81-1.25,0-1.25Z"/>
      <g>
        <path class="cls-21" d="M354.94,66.98l30.31,3.76c-.33,2.64-1,5.22-1.99,7.69-6.28,15.53-24.23,23.15-39.76,16.87-15.53-6.28-23.15-24.23-16.87-39.76l28.31,11.45Z"/>
        <path class="cls-12" d="M355.58,63.09l.09-29.22c3.51.01,6.98.65,10.26,1.9,12.56,4.76,20.29,17.59,18.64,30.91l-28.99-3.59Z"/>
        <path class="cls-17" d="M350.68,60.43l-22.31-9.22c1.85-4.48,5.01-8.29,9.06-10.95,4.05-2.66,8.81-4.04,13.65-3.96l-.4,24.14Z"/>
      </g>
      <path class="cls-10" d="M301.23,17.1h214.23c.8,0,.81-1.25,0-1.25h-214.23c-.8,0-.81,1.25,0,1.25h0Z"/>
      <path class="cls-10" d="M327.2,78.94c3.77-.37,6.93-2.97,8.55-6.33,2.04-4.22,1.51-9.17.06-13.49-.15-.46-.88-.26-.72.2,1.36,4.03,1.94,8.66.14,12.66-1.46,3.22-4.42,5.86-8.02,6.21-.48.05-.48.8,0,.75h0Z"/>
      <path class="cls-10" d="M363.3,68.74c-6.35.14-9.17,6.72-11.92,11.38-1.8,3.05-4.07,5.53-7.47,6.75-3.16,1.13-6.57,1.26-9.9,1.29-.48,0-.48.75,0,.75,6.07-.05,12.39-.72,16.34-5.88,3.59-4.69,5.76-13.38,12.94-13.53.48-.01.48-.76,0-.75h0Z"/>
      <path class="cls-10" d="M375.11,70.36c-1.39,4.56-4.87,7.31-9.25,8.79-3.1,1.05-7.29,2.09-8.61,5.52-.58,1.5-.3,3.24,1.24,3.99,1.67.82,4.02.55,5.79.36,4.35-.48,8.52-2.2,11.92-4.97,3.7-3.02,6.33-7.19,7.58-11.79.13-.47-.6-.67-.72-.2-2.17,8-8.65,14.2-16.78,15.88-2.05.42-4.42.71-6.51.32-3.1-.58-2.05-3.79-.36-5.33,2.53-2.29,6.21-2.69,9.22-4.06,3.5-1.6,6.1-4.66,7.21-8.33.14-.46-.58-.66-.72-.2h0Z"/>
      <path class="cls-10" d="M341.27,76.61c.79-.53,1.82-.83,2.59-.19.58.49.93,1.34.79,2.09-.16.9-.99,1.55-1.85,1.71s-1.65-.31-1.99-1.09c-.38-.87-.22-1.96.53-2.57.16-.13.13-.4,0-.53-.16-.16-.37-.13-.53,0-.88.71-1.13,1.98-.82,3.03.33,1.13,1.31,1.96,2.51,1.93s2.33-.8,2.76-1.91c.39-1,.05-2.21-.65-2.98-.41-.45-.96-.73-1.57-.8-.77-.08-1.53.23-2.15.66-.4.27-.02.92.38.65h0Z"/>
      <path class="cls-10" d="M314.5,9.48c0,1.31-1.06,2.37-2.37,2.37s-2.37-1.06-2.37-2.37,1.06-2.37,2.37-2.37,2.37,1.06,2.37,2.37Z"/>
      <circle class="cls-10" cx="318.92" cy="9.48" r="2.37"/>
      <path class="cls-10" d="M328.08,9.48c0,1.31-1.06,2.37-2.37,2.37s-2.37-1.06-2.37-2.37,1.06-2.37,2.37-2.37,2.37,1.06,2.37,2.37Z"/>
    </g>
    <path class="cls-10" d="M40.36,175.74c5.7-7.7,5.98-18.44.43-26.3-4.9-6.94-13.41-10.56-21.8-9.29s-15.36,7.32-17.93,15.3-.26,17.32,5.97,23.19c7.74,7.3,19.73,8.05,28.41,1.93l-.76-.1c3.28,2.78,7.6,3.4,11.54,1.69.53-.23.31-.99-.15-1.14-2.73-.88-4.76-3.05-5.65-5.76-.25-.76-1.46-.44-1.21.33,1.02,3.14,3.36,5.61,6.52,6.63l-.15-1.14c-3.39,1.46-7.22.88-10.03-1.5-.2-.17-.52-.26-.76-.1-7.36,5.18-17.25,5.33-24.63.12-6.59-4.65-10.02-12.95-8.63-20.9s7.1-14.34,14.66-16.65c7.72-2.36,16.27-.05,21.76,5.86,6.97,7.51,7.37,19.01,1.32,27.19-.48.65.61,1.27,1.08.63Z"/>
    <g>
      <path class="cls-2" d="M604.88,334.7h-69.18c-1.69,0-3.06-1.37-3.06-3.06h0c0-1.69,1.37-3.06,3.06-3.06h69.18c1.69,0,3.06,1.37,3.06,3.06h0c0,1.69-1.37,3.06-3.06,3.06Z"/>
      <path class="cls-2" d="M618.09,223.25h0c-1.75-.2-3.32,1.06-3.52,2.81l-11.82,104.77c-.2,1.75,1.06,3.32,2.81,3.52h0c1.75.2,3.32-1.06,3.52-2.81l11.82-104.77c.2-1.75-1.06-3.32-2.81-3.52Z"/>
      <path class="cls-20" d="M602.01,335.17c.63,3.02,1.27,6.04,1.9,9.06l4.57,21.76c1.83,8.73,3.67,17.46,5.5,26.19,1.59,7.59,3.19,15.18,4.78,22.76l1.58,7.51c.23,1.11.31,2.51.75,3.57.02.05.02.11.03.16.1.47.82.27.72-.2-.63-3.02-1.27-6.04-1.9-9.06l-4.57-21.76c-1.83-8.73-3.67-17.46-5.5-26.19-1.59-7.59-3.19-15.18-4.78-22.76l-1.58-7.51c-.23-1.11-.31-2.51-.75-3.57-.02-.05-.02-.11-.03-.16-.1-.47-.82-.27-.72.2h0Z"/>
      <path class="cls-20" d="M525.88,426.38c.55-3.01,1.11-6.02,1.66-9.03,1.34-7.27,2.68-14.54,4.02-21.81l4.84-26.28c1.4-7.61,2.8-15.22,4.2-22.83l1.37-7.46c.21-1.15.62-2.41.66-3.59,0-.05.02-.11.03-.16.09-.47-.64-.67-.72-.2-.55,3.01-1.11,6.02-1.66,9.03-1.34,7.27-2.68,14.54-4.02,21.81l-4.84,26.28c-1.4,7.61-2.8,15.22-4.2,22.83l-1.37,7.46c-.21,1.15-.62,2.41-.66,3.59,0,.05-.02.11-.03.16-.09.47.64.67.72.2h0Z"/>
    </g>
    <g>
      <g>
        <path class="cls-18" d="M615.65,337.45c-4.12.41-7.81,4.09-10.49,7.64-6.45,8.55-10.62,18.37-11.84,27.89-.33,2.6-.44,5.24.43,7.46.87,2.22,2.88,3.95,5.53,3.93,5.29-.56,17.15-17.93,21.23-28.39,1.55-3.96,3.01-8.11,2.59-11.89-.42-3.78-3.31-7.06-7.45-6.65Z"/>
        <path class="cls-20" d="M594.34,411.24c-1.54-15.75,3.66-31.62,10.52-45.59,2.47-5.04,5.24-9.93,8.22-14.7.26-.41-.39-.79-.65-.38-9.23,14.78-17.05,31.4-18.79,48.95-.39,3.9-.43,7.83-.05,11.73.05.48.8.48.75,0h0Z"/>
        <g>
          <path class="cls-19" d="M571.01,371.58c-3.21-.13-6.45.93-8.96,2.93-2.51,2-4.26,4.93-4.85,8.08-.51,2.74-.1,5.73,1.52,8,1.62,2.27,4.55,3.68,7.28,3.1,2.82-.6,4.93-3.15,5.65-5.94.72-2.79.24-5.76-.64-8.5-.41-1.28-.91-2.55-1.04-3.89-.12-1.34.19-2.8,1.18-3.71"/>
          <path class="cls-18" d="M587.27,376.74c-1.49-3.08-3.61-5.99-6.62-7.61-4.28-2.31-9.76-1.56-13.91.99-4.15,2.55-7.57,5.6-9.1,10.94,1.22-2.71,4.49-4.14,7.34-4.27,2.86-.13,5.63,1.21,7.79,3.08s3.82,4.25,5.45,6.6c.94,1.36,1.98,2.79,3.53,3.37,1.38.51,2.99.22,4.22-.58,1.92-1.25,2.93-3.61,2.99-5.91.06-2.29-.71-4.54-1.71-6.6Z"/>
        </g>
        <path class="cls-20" d="M594.16,397.44c-2.62-4.94-4.84-10.09-7.99-14.74-3.41-5.03-7.8-9.27-13.5-11.57-.45-.18-.64.54-.2.72,11.27,4.55,15.75,16,21.04,25.96.23.43.87.05.65-.38h0Z"/>
      </g>
      <polygon class="cls-18" points="605.57 425.88 582.13 425.88 574.43 400.95 612.75 400.95 605.57 425.88"/>
      <rect class="cls-18" x="572.57" y="400.95" width="41.79" height="5.95"/>
      <path class="cls-20" d="M573.09,407.06h41.49c.48,0,.48-.75,0-.75h-41.49c-.48,0-.48.75,0,.75h0Z"/>
    </g>
    <g>
      <path class="cls-20" d="M413.43,267.22c7.76,20.47,15.51,40.94,23.27,61.41,8.12,21.43,16.24,42.86,24.36,64.29,4.23,11.15,8.45,22.3,12.68,33.46.17.45.89.25.72-.2-7.76-20.47-15.51-40.94-23.27-61.41s-16.24-42.86-24.36-64.29c-4.23-11.15-8.45-22.3-12.68-33.46-.17-.45-.89-.25-.72.2h0Z"/>
      <path class="cls-17" d="M425.68,271.31H126.39c-2.27,0-4.11-1.84-4.11-4.11h0c0-2.27,1.84-4.11,4.11-4.11h299.29c2.27,0,4.11,1.84,4.11,4.11h0c0,2.27-1.84,4.11-4.11,4.11Z"/>
      <path class="cls-20" d="M96.75,425.89c6.34-19.93,12.98-39.75,19.74-59.54s14.3-41.34,21.6-61.95c3.82-10.77,7.66-21.54,11.52-32.3.16-.46-.56-.65-.72-.2-7.06,19.68-14.06,39.39-20.97,59.12-7.22,20.64-14.34,41.32-21.26,62.06-3.62,10.84-7.17,21.7-10.64,32.6-.15.46.58.66.72.2h0Z"/>
    </g>
    <g>
      <rect class="cls-10" x="35.85" y="37.81" width="94.92" height="68.88" rx="6.05" ry="6.05"/>
      <path class="cls-17" d="M35.85,61.72c2.5,1,23.48,25.98,23.48,25.98l19.94-22.92,18.53,19.42,18.98-26.98,13.99-3.5h0v47.28c0,3.14-2.54,5.68-5.68,5.68H41.6c-3.17,0-5.75-2.57-5.75-5.75v-39.23"/>
      <path class="cls-15" d="M35.54,62.26c1.24.54,2.34,2.02,3.25,2.96,1.96,2.04,3.85,4.14,5.73,6.25,3.98,4.47,7.88,9.01,11.76,13.58.87,1.03,1.75,2.06,2.61,3.09.21.25.68.24.88,0,5.81-6.68,11.63-13.37,17.44-20.05.83-.96,1.67-1.91,2.5-2.87h-.88c5.4,5.66,10.79,11.31,16.19,16.97.78.82,1.56,1.63,2.34,2.45.3.31.76.19.98-.13,3.74-5.31,7.47-10.62,11.21-15.93l6.45-9.16c.09-.13,1.38-1.75,1.3-1.85.01.02-.4.17-.28.24.06.04.42-.1.5-.12l2.14-.54c3.76-.94,7.52-1.88,11.28-2.82.78-.19.45-1.4-.33-1.21-3.31.83-6.62,1.65-9.93,2.48-1.26.32-2.83.46-4.01,1-.5.23-.79.82-1.1,1.27l-13.7,19.47c-1.54,2.18-3.07,4.36-4.61,6.54l.98-.13c-5.4-5.66-10.79-11.31-16.19-16.97-.78-.82-1.56-1.63-2.34-2.45-.22-.23-.67-.25-.88,0-5.81,6.68-11.63,13.37-17.44,20.05-.83.96-1.67,1.91-2.5,2.87h.88c-6.39-7.6-12.8-15.25-19.65-22.45-1.1-1.16-2.44-2.97-3.96-3.63-.73-.32-1.37.76-.63,1.08h0Z"/>
      <path class="cls-15" d="M43.17,43.61c0,.99-.8,1.79-1.79,1.79s-1.79-.8-1.79-1.79.8-1.79,1.79-1.79,1.79.8,1.79,1.79Z"/>
      <path class="cls-15" d="M48.3,43.61c0,.99-.8,1.79-1.79,1.79s-1.79-.8-1.79-1.79.8-1.79,1.79-1.79,1.79.8,1.79,1.79Z"/>
      <path class="cls-15" d="M53.43,43.61c0,.99-.8,1.79-1.79,1.79s-1.79-.8-1.79-1.79.8-1.79,1.79-1.79,1.79.8,1.79,1.79Z"/>
      <path class="cls-12" d="M62.15,86.67c0,1.55-1.26,2.81-2.81,2.81s-2.81-1.26-2.81-2.81,1.26-2.81,2.81-2.81,2.81,1.26,2.81,2.81Z"/>
      <path class="cls-12" d="M100.74,83.81c0,1.55-1.26,2.81-2.81,2.81s-2.81-1.26-2.81-2.81,1.26-2.81,2.81-2.81,2.81,1.26,2.81,2.81Z"/>
      <path class="cls-12" d="M82.1,64.72c0,1.46-1.18,2.64-2.64,2.64s-2.64-1.18-2.64-2.64,1.18-2.64,2.64-2.64,2.64,1.18,2.64,2.64Z"/>
      <path class="cls-12" d="M119.43,57.22c0,1.46-1.18,2.64-2.64,2.64s-2.64-1.18-2.64-2.64,1.18-2.64,2.64-2.64,2.64,1.18,2.64,2.64Z"/>
      <path class="cls-15" d="M35.85,48.71h94.47c.8,0,.81-1.25,0-1.25H35.85c-.8,0-.81,1.25,0,1.25h0Z"/>
    </g>
    <g>
      <rect class="cls-10" x="143.23" y="116.9" width="80.62" height="52.58" rx="4.97" ry="4.97"/>
      <g>
        <path class="cls-15" d="M177.59,128.47h33.95c.48,0,.48-.75,0-.75h-33.95c-.48,0-.48.75,0,.75h0Z"/>
        <path class="cls-15" d="M177.59,133.29h33.95c.48,0,.48-.75,0-.75h-33.95c-.48,0-.48.75,0,.75h0Z"/>
        <path class="cls-15" d="M177.59,138.11h21.05c.48,0,.48-.75,0-.75h-21.05c-.48,0-.48.75,0,.75h0Z"/>
      </g>
      <g>
        <path class="cls-15" d="M177.59,149.72h33.95c.48,0,.48-.75,0-.75h-33.95c-.48,0-.48.75,0,.75h0Z"/>
        <path class="cls-15" d="M177.59,154.54h33.95c.48,0,.48-.75,0-.75h-33.95c-.48,0-.48.75,0,.75h0Z"/>
        <path class="cls-15" d="M177.59,159.36h21.05c.48,0,.48-.75,0-.75h-21.05c-.48,0-.48.75,0,.75h0Z"/>
      </g>
      <rect class="cls-15" x="153.26" y="125.59" width="14.65" height="14.65" rx="2.99" ry="2.99"/>
      <path class="cls-21" d="M158.3,132.18c1.42,1.31,2.84,2.63,4.26,3.94.97.9,2.2.59,2.94-.38,1.81-2.37,3.63-4.74,5.44-7.1l.78-1.02c.6-.78.15-2.13-.67-2.57-.99-.52-1.93-.16-2.57.67-1.81,2.37-3.63,4.74-5.44,7.1l-.78,1.02,2.94-.38c-1.42-1.31-2.84-2.63-4.26-3.94-.72-.67-1.95-.77-2.65,0-.67.72-.77,1.94,0,2.65h0Z"/>
      <rect class="cls-15" x="153.26" y="148.26" width="14.65" height="14.65" rx="2.99" ry="2.99"/>
      <path class="cls-21" d="M158.3,154.85c1.42,1.31,2.84,2.63,4.26,3.94.97.9,2.2.59,2.94-.38,1.81-2.37,3.63-4.74,5.44-7.1l.78-1.02c.6-.78.15-2.13-.67-2.57-.99-.52-1.93-.16-2.57.67-1.81,2.37-3.63,4.74-5.44,7.1l-.78,1.02,2.94-.38c-1.42-1.31-2.84-2.63-4.26-3.94-.72-.67-1.95-.77-2.65,0-.67.72-.77,1.94,0,2.65h0Z"/>
    </g>
    <g>
      <rect class="cls-5" x="208.49" y="47.2" width="39.97" height="40.32" rx="6.61" ry="6.61"/>
      <path class="cls-10" d="M248.46,68.27c-.87-1.42-3.54-4.04-4.85-5.16s-3.11-1.74-4.82-1.45c-1.93.33-3.46,1.74-4.82,3.11-3.47,3.49-6.68,7.21-9.89,10.93-1.52-2.35-3.58-6.6-6.86-6.27-1.17.12-1.89.66-2.95,1.74-1.33,1.36-2.57,3.37-4.09,5.68l-1.68,2.39v2.82c0,3.01,2.5,5.44,5.58,5.44h28.81c3.08,0,5.58-2.44,5.58-5.44v-13.81h0Z"/>
      <ellipse class="cls-10" cx="223.4" cy="59.06" rx="5.08" ry="4.96"/>
    </g>
    <g>
      <path class="cls-10" d="M520.7,242.85c2.63-1.73,4-4.47,5.83-6.92,1-1.34,2.24-2.64,3.78-3.33,1.93-.87,3.68-.19,5.56.42,3.05.98,5.71.24,7.95-2.05s3.4-5.73,5.78-8.08c2.59-2.55,6.46-3.59,9.97-2.64,3.78,1.02,5.89,3.85,7.7,7.12,1.45,2.61,3.06,5.35,5.89,6.64,1.2.55,2.5.72,3.79.46,1.95-.4,3.58-1.52,5.63-.85,1.88.62,3.35,2.14,4.67,3.54,1.17,1.26,2.32,2.54,3.48,3.81,1.94,2.12,3.87,4.24,5.81,6.36.54.6,1.43-.29.88-.88-1.82-1.99-3.63-3.98-5.45-5.96-2.08-2.27-4.05-4.84-6.52-6.7-1.17-.88-2.5-1.55-3.98-1.66-1.75-.13-3.21.8-4.87,1.12-4.08.8-6.63-3.56-8.27-6.52s-3.47-5.61-6.63-7.03c-2.92-1.32-6.23-1.4-9.2-.19-3.2,1.3-5.13,3.83-6.86,6.7-1.88,3.13-4.46,6.96-8.69,5.84-1.77-.47-3.42-1.33-5.29-1.11-1.59.18-3,1.02-4.18,2.06-2.9,2.57-4.14,6.61-7.43,8.78-.67.44-.04,1.52.63,1.08h0Z"/>
      <path class="cls-12" d="M520.33,232.5c2.13-3.49,4.43-6.87,6.87-10.16,2.21-2.97,4.83-6.59,9.02-6.06,3.75.47,6.6,3.53,8.22,6.74,1.82,3.61,2.56,7.65,4.25,11.31,1.24,2.68,3.29,5.48,6.31,6.23,3.31.82,6.35-1.17,8.55-3.46,2.49-2.59,4.38-5.71,6.97-8.22,2.75-2.68,6.18-4.17,10.06-3.82,9.35.83,14.98,9.4,19.37,16.7.41.69,1.5.06,1.08-.63-3.95-6.57-8.52-13.62-16.07-16.36-3.38-1.22-7.21-1.46-10.57-.05s-5.81,4.21-8.03,7.01-4.77,6.77-8.61,7.63c-4.31.97-7.1-3.38-8.45-6.79-2.58-6.5-4.16-16.01-12.49-17.47-4.06-.72-7.06,1.88-9.4,4.89-2.94,3.8-5.67,7.77-8.17,11.87-.42.69.66,1.32,1.08.63h0Z"/>
      <rect class="cls-5" x="519.3" y="210.97" width="81.19" height="36.76" rx="6.29" ry="6.29"/>
    </g>
    <g>
      <path class="cls-10" d="M17.43,162.32c0,1.33-1.07,2.4-2.4,2.4s-2.4-1.07-2.4-2.4,1.07-2.4,2.4-2.4,2.4,1.07,2.4,2.4Z"/>
      <path class="cls-10" d="M25.21,162.32c0,1.33-1.07,2.4-2.4,2.4s-2.4-1.07-2.4-2.4,1.07-2.4,2.4-2.4,2.4,1.07,2.4,2.4Z"/>
      <path class="cls-10" d="M32.99,162.32c0,1.33-1.07,2.4-2.4,2.4s-2.4-1.07-2.4-2.4,1.07-2.4,2.4-2.4,2.4,1.07,2.4,2.4Z"/>
    </g>
    <g>
      <path class="cls-10" d="M562.5,69.2c-5.39-7.29-5.76-17.25-.61-24.77,4.55-6.66,12.78-10.22,20.75-8.96s14.46,6.87,16.89,14.4.31,16.28-5.53,21.86c-7.35,7.03-18.75,7.67-27.01,1.85-.24-.17-.56-.07-.76.1-2.81,2.38-6.64,2.96-10.03,1.5l-.15,1.14c3.16-1.02,5.5-3.5,6.52-6.63.25-.77-.96-1.09-1.21-.33-.88,2.71-2.92,4.88-5.65,5.76-.46.15-.68.91-.15,1.14,3.95,1.71,8.26,1.09,11.54-1.69l-.76.1c7.78,5.48,18.43,5.56,26.16-.07,6.87-5.01,10.37-13.56,8.97-21.95-1.38-8.27-7.55-15.25-15.56-17.69s-17.32,0-23.09,6.3c-7.23,7.9-7.76,19.99-1.4,28.58.47.64,1.56.02,1.08-.63Z"/>
      <g>
        <path class="cls-10" d="M574.53,56.41c0,1.33-1.07,2.4-2.4,2.4s-2.4-1.07-2.4-2.4,1.07-2.4,2.4-2.4,2.4,1.07,2.4,2.4Z"/>
        <path class="cls-10" d="M582.31,56.41c0,1.33-1.07,2.4-2.4,2.4s-2.4-1.07-2.4-2.4,1.07-2.4,2.4-2.4,2.4,1.07,2.4,2.4Z"/>
        <path class="cls-10" d="M590.09,56.41c0,1.33-1.07,2.4-2.4,2.4s-2.4-1.07-2.4-2.4,1.07-2.4,2.4-2.4,2.4,1.07,2.4,2.4Z"/>
      </g>
    </g>
    <path class="cls-10" d="M418.82,263.1h-53.48c-2.24,0-4.06-1.82-4.06-4.06h0c0-2.24,1.82-4.06,4.06-4.06h53.48c2.24,0,4.06,1.82,4.06,4.06h0c0,2.24-1.82,4.06-4.06,4.06Z"/>
    <g>
      <path class="cls-6" d="M611.57,137.66s-.07-.05-.1-.07c-9.03-7.02-21.96-5.58-29.26,3.14-.14.17-.3.32-.43.5-3.01,3.83-4.47,8.38-4.52,12.9-.06,6.35,2.7,12.66,8.08,16.89,9.21,7.24,22.55,5.65,29.8-3.57,3.64-4.63,5.04-10.3,4.38-15.71-.66-5.36-3.36-10.48-7.94-14.08Z"/>
      <path class="cls-12" d="M619.51,151.74c.67,5.42-.74,11.09-4.38,15.71-7.24,9.21-20.58,10.81-29.8,3.57-5.38-4.23-8.14-10.54-8.08-16.89l-9.02-.27c-.14,9.11,3.82,18.17,11.54,24.24,13.12,10.32,32.12,8.04,42.44-5.08,5.5-6.99,7.42-15.65,6.03-23.77l-8.73,2.49Z"/>
      <path class="cls-10" d="M611.57,137.66c4.58,3.6,7.28,8.72,7.94,14.08l8.73-2.49c-1.22-7.13-4.98-13.85-11.11-18.67-.16-.12-.32-.24-.48-.35-1.42,2.14-3.57,5.14-5.19,7.36.03.03.07.05.1.07Z"/>
      <path class="cls-21" d="M611.47,137.59c1.62-2.23,3.77-5.23,5.19-7.36-12.93-9.77-31.26-7.59-41.54,4.92l7.09,5.58c7.3-8.72,20.23-10.16,29.26-3.14Z"/>
      <path class="cls-17" d="M581.77,141.23c.14-.18.29-.33.43-.5l-7.09-5.58c-.14.17-.28.33-.42.51-4.25,5.41-6.36,11.82-6.46,18.2l9.02.27c.04-4.52,1.5-9.07,4.52-12.9Z"/>
    </g>
    <g>
      <g>
        <polygon class="cls-21" points="502.54 195.83 543.2 394.9 500.19 401.25 471.26 245.22 481.35 402.89 435.03 402.89 430.41 196.37 502.54 195.83"/>
        <path class="cls-20" d="M460.34,228.47c1.56,7.41,5.61,14.33,11.46,19.17.37.31.9-.22.53-.53-5.76-4.76-9.72-11.54-11.26-18.84-.1-.47-.82-.27-.72.2h0Z"/>
      </g>
      <g>
        <path class="cls-3" d="M447.9,99.32c.03.5,1.05,17.2,1.05,17.2l20.85-1.27-1.53-25.16-20.36,9.23Z"/>
        <g>
          <path class="cls-3" d="M447.45,105.09s-12.78-1.19-13.65-15.24c-.3-4.81-.57-9.9-.15-18.9.44-9.68,7.42-14.08,17.72-14.5l1.02-.04c11.06.16,18.34,5.71,17.81,16.09l-.63,10.01s2.22,21.63-22.1,22.6"/>
          <path class="cls-20" d="M437.14,81.33c0,.79.68,1.44,1.52,1.45.83.01,1.51-.62,1.51-1.41,0-.79-.68-1.44-1.52-1.45-.84-.01-1.51.62-1.51,1.41Z"/>
          <path class="cls-20" d="M451.14,81.46c0,.79.68,1.44,1.52,1.45.83.01,1.51-.62,1.51-1.41,0-.79-.68-1.44-1.52-1.45-.84-.01-1.51.62-1.51,1.41Z"/>
        </g>
        <path class="cls-20" d="M457.39,76.33c-1.62-.92-3.68-.89-5.27.08-.41.25-.03.9.38.65,1.36-.83,3.12-.87,4.51-.08.42.24.8-.41.38-.65h0Z"/>
        <path class="cls-20" d="M441.72,76.67c-1.62-.92-3.68-.89-5.27.08-.41.25-.03.9.38.65,1.36-.83,3.12-.87,4.51-.08.42.24.8-.41.38-.65h0Z"/>
        <path class="cls-20" d="M441.05,70.35c-1.48-.18-2.97-.13-4.42.22-.45.11-.89.47-1.12.86s-.33.99-.19,1.44c.32,1,1.28,1.55,2.31,1.31.29-.07.59-.12.88-.17l-.5.07c1.01-.13,2.03-.1,3.04.02.44.05,1.02-.25,1.33-.55.33-.33.57-.86.55-1.33s-.18-.99-.55-1.33l-.38-.29c-.29-.17-.61-.25-.95-.26h0Z"/>
        <path class="cls-20" d="M456.85,70.15c-1.5-.18-3.04-.05-4.5.3-.45.11-.89.47-1.12.86s-.33.99-.19,1.44c.32,1,1.28,1.55,2.31,1.31.37-.09.74-.16,1.12-.21l-.5.07c.96-.12,1.92-.13,2.88-.02.44.05,1.02-.25,1.33-.55.33-.33.57-.86.55-1.33s-.18-.99-.55-1.33l-.38-.29c-.29-.17-.61-.25-.95-.26h0Z"/>
        <path class="cls-3" d="M466.72,81.47c1.59-1,3.58-1.54,5.32-.84,1.78.72,2.99,2.73,2.96,4.74s-1.21,3.91-2.89,4.85c-1.68.94-3.77.95-5.52.14"/>
        <path class="cls-4" d="M468.45,86c.23-1.33,2.06-2.99,4-2.12"/>
        <path class="cls-4" d="M447.61,105.28c3.78.22,7.64-1.29,10.27-4.02"/>
        <path class="cls-20" d="M445.51,80.32c-.13,1.05-.26,2.09-.39,3.14-.03.28-.07.55-.1.83-.03.21,0,.71-.14.88-.19.24-.77.11-1.05.15-.72.09-1.22.69-.86,1.41.2.41.57.75.87,1.09.35.4.7.8,1.05,1.2.32.36.85-.17.53-.53s-.63-.72-.94-1.08c-.14-.16-.28-.32-.42-.48-.15-.17-.41-.39-.43-.63,0-.21.17-.23.36-.24.16-.02.33,0,.49,0,.32-.02.65-.08.88-.3.27-.25.3-.61.35-.96.06-.5.12-.99.18-1.49.12-.99.25-1.98.37-2.98.06-.48-.69-.47-.75,0h0Z"/>
        <path class="cls-14" d="M452.43,89.86c-.19-.28-.46-.54-.8-.6-.4-.07-.79.16-1.14.38-1.26.8-2.51,1.6-3.77,2.4h0c0,.31,1.47,2.4,2.62,2.47,1.15.07,2.35-.44,3.01-1.39.66-.95.72-2.3.07-3.26Z"/>
        <path class="cls-20" d="M474.33,77.18c.22-.69.76-1.62,1.17-2.37,1.62-3.05,2.5-6.37,2.35-10.02-.12-3.15-1.84-6.2-4.48-7.94-1.91-1.26-7.57-.7-7.57-.7,0,0-3.88-5.7-6.49-7.5-2.9-2-6.2-3.55-9.71-3.84-3.51-.28-7.24.85-9.57,3.49-.6.68-1.12,1.46-1.87,1.97-1.37.93-3.16.76-4.81.79-3.53.07-7.23,1.4-9.29,4.27-2.06,2.87-1.87,7.41.97,9.52,1.18.87,2.83,1.48,3.12,2.92.19.94-.32,1.86-.57,2.78-.47,1.7-.02,3.63,1.15,4.95,1.13,1.27,3.01,1.78,4.73,1.6l-.05-2.35s.52-8.86,2.45-7.81c5.49,2.96,9.95-.15,12.57-2.16,1.44-1.11,3.23-1.4,5.05-1.52,4.41-.3,7.74,2.55,8.41,6.94.68,4.49.06,10.77.68,13.25.16.63.3,2.55,2.52,2.42,0,0,.84.47,1.49-1.62.65-2.09,1.54-4.31,6.06-3.3l1.68-3.76Z"/>
      </g>
      <path class="cls-3" d="M524.67,147.29s11.51,12.92,12.89,16.73c1.38,3.81,2.72,13.45-10.56,14.24l-15.1-6.22-8.58-12.36,21.35-12.39Z"/>
      <g>
        <g>
          <path class="cls-3" d="M540.22,125.18c-2.25-.76-5.01-3.11-6.91-5.82-1-1.43-1.73-2.96-1.95-4.68-.39-3.05-1.6-5.98-3.45-8.43-.64-.85-1.41-1.83-1.14-2.86.38-1.43,2.36-1.63,3.76-1.15,1.9.65,3.54,2,4.54,3.73.58,1.01.96,2.14,1.73,3.02,1.31,1.49,6.34,4.34,7.23,7.27"/>
          <path class="cls-3" d="M540.11,93.12c.13-1.12.29-2.3.95-3.21.66-.92,2-1.45,2.95-.84.88.56,1.04,1.77,1.07,2.81.11,3.45-.17,6.92-.83,10.31.7-2.47,1.4-4.93,2.09-7.4.27-.94.54-1.9,1.12-2.69s1.53-1.37,2.5-1.24c.97.13,1.79,1.18,1.45,2.1.51-.63,1.53-.68,2.21-.25.69.43,1.07,1.24,1.18,2.04.11.8-.01,1.62-.14,2.42-.4,2.59-.79,5.17-1.19,7.76.7-1.93,1.58-3.79,2.63-5.55.53-.89,1.35-1.87,2.38-1.71.76.12,1.29.89,1.38,1.66.1.77-.13,1.53-.37,2.27-1.7,5.36-2.72,18.82-8.93,24.42l-16.66-3.04c.69-5.79,5.51-24.08,6.2-29.87Z"/>
          <path class="cls-14" d="M544.45,120.49c.86-3.23-.31-6.64-2.94-8.69-1.35-1.06-3.2-1.72-4.23-3.13s-1.78-3.12-2.95-4.51c-.31-.37-.84.16-.53.53,1.11,1.31,1.79,2.88,2.77,4.27.86,1.22,2.16,1.86,3.39,2.66,1.44.94,2.67,2.05,3.38,3.65s.83,3.36.39,5.02c-.12.47.6.67.72.2h0Z"/>
          <path class="cls-14" d="M547.4,104.76c1.37-3.84,2.75-7.68,4.12-11.52.16-.46-.56-.65-.72-.2-1.37,3.84-2.75,7.68-4.12,11.52-.16.46.56.65.72.2h0Z"/>
        </g>
        <path class="cls-3" d="M533.95,122.33l16.77,3.19-4.52,46.87c-.46,3.47-2.07,6.69-4.57,9.14h0c-6.06,5.94-15.74,5.98-21.85.1l-7.88-9.59,10.61-10.53,11.44-39.18Z"/>
        <path class="cls-14" d="M533.08,124.82c-3.56,12.67-7.62,25.23-10.84,37.99-.08.33-1.07,3.18-.13,3.13.48-.02.48-.77,0-.75.92-.05.06.51.35.07.11-.17.1-.57.15-.76.17-.77.37-1.54.57-2.31.65-2.51,1.36-5,2.06-7.49,1.87-6.58,3.8-13.14,5.7-19.7.96-3.32,1.93-6.65,2.86-9.98.13-.47-.59-.66-.72-.2h0Z"/>
      </g>
      <g>
        <path class="cls-21" d="M484.84,428.19s-1.18-15.42,17.27-20.34l-2.76-13.41,42.39-6.25,6.72,32.4-63.63,7.61Z"/>
        <path class="cls-20" d="M492.42,410.18c3.25.93,6.42,2.12,9.49,3.56.43.2.82-.44.38-.65-3.12-1.47-6.35-2.68-9.67-3.63-.46-.13-.66.59-.2.72h0Z"/>
        <path class="cls-20" d="M496.32,408.26c2.88,1.28,5.76,2.56,8.64,3.84.44.19.82-.45.38-.65-2.88-1.28-5.76-2.56-8.64-3.84-.44-.19-.82.45-.38.65h0Z"/>
      </g>
      <path class="cls-3" d="M404.76,159.38s-7.21,15.73-7.4,19.78c-.19,4.05,1.35,13.65,14.28,10.5l12.6-10.38,6.58-13.44-26.06-6.46Z"/>
      <g>
        <g>
          <path class="cls-3" d="M356.18,127.68c.43-.97,2.09-2.07,2.93-1.31-.23-1.36-.11-2.49,1.05-3.22,1.16-.74,2.56-.33,3.69.46-.23-1.04.03-2.78.98-3.26.95-.48,2.52.35,3.21,1.16-1.98-3.67-3.85-7.4-5.61-11.17-.58-1.24-1.12-2.81-.25-3.88.98-1.21,3.27-1.12,4.25.08,2,2.43,3.67,5.05,5.57,7.82,5.7,8.32,13.81,19.06,18.84,27.74l-13.42,9.21s-2.46-3.75-3.55-4.66c-1.08-.91-3.18-.37-4.4-1.08-3.44-1.98-5.37-6.3-6.71-10.03-1.26,1.05-3.27.6-4.46-.53-1.18-1.14-1.73-2.76-2.24-4.32-.33-1.01-.31-2.02.12-2.99Z"/>
          <path class="cls-14" d="M358.72,126.35c.38,1.71.93,3.37,1.66,4.97.59,1.31,1.29,2.85,2.75,3.38,1.34.48,2.83,0,3.62-1.18.92-1.36.41-2.85-.28-4.18-.98-1.91-1.9-3.84-2.73-5.82-.18-.44-.91-.25-.72.2.74,1.79,1.55,3.56,2.43,5.29.44.86,1.06,1.79,1.06,2.79,0,.83-.46,1.64-1.19,2.05-.77.43-1.78.37-2.5-.13s-1.11-1.32-1.48-2.07c-.86-1.75-1.49-3.59-1.91-5.49-.11-.47-.83-.27-.72.2h0Z"/>
          <path class="cls-14" d="M366.67,130.88c.86.88,2.03.28,2.9-.26.92-.57,1.72-1.32,1.75-2.48.03-1.23-.67-2.48-1.19-3.56-.6-1.27-1.29-2.49-2.05-3.67-.26-.4-.91-.03-.65.38,1.13,1.76,2.21,3.66,2.9,5.64.35,1.02.31,1.94-.57,2.65-.57.46-1.88,1.47-2.57.77-.34-.34-.87.19-.53.53h0Z"/>
          <g>
            <path class="cls-3" d="M379.59,127.02c-2.01-2.41-5.41-4.05-8.49-3.43-3.07.63-5.3,2.63-7.95,4.29-.27.17-1.2,1.03-1.37,1.3-.52.83.32,1.87,1.17,2.35,2.65,1.48,6.25,1.02,8.44-1.09.34,3.72,1.03,6.74,7.21,7.27"/>
            <path class="cls-14" d="M379.86,126.75c-1.55-1.8-3.69-3.15-6.05-3.55s-4.81.48-6.9,1.75c-1.18.71-2.28,1.53-3.44,2.29-.7.45-1.47.98-1.95,1.68-1.3,1.91,1.81,3.39,3.22,3.69,2.46.53,5.08-.18,6.92-1.89l-.64-.27c.17,1.78.4,3.68,1.54,5.12,1.44,1.82,3.85,2.32,6.04,2.52.48.04.48-.71,0-.75-2-.19-4.3-.65-5.57-2.38-.94-1.29-1.12-2.97-1.27-4.52-.03-.32-.39-.5-.64-.27-1.84,1.7-4.54,2.29-6.92,1.5-1.19-.39-2.97-1.49-1.67-2.77.82-.81,1.84-1.38,2.79-2.03,2.17-1.48,4.58-3.12,7.33-3.05,2.59.07,5.01,1.52,6.66,3.45.32.37.84-.17.53-.53h0Z"/>
          </g>
        </g>
        <path class="cls-3" d="M388.56,138.25l-15.09,7.98,18.1,43.47c1.46,3.18,3.94,5.78,7.05,7.39h0c7.54,3.9,16.8,1.09,20.91-6.33l4.71-11.48-13.24-6.94-22.45-34.09Z"/>
        <path class="cls-14" d="M389.47,140.76c6.83,10.6,13.97,21,20.65,31.7.53.84,1.05,1.69,1.55,2.55.14.24.25.55.42.76.04.05.06.21.11.23.31.17-.84.01.28-.27-.47.12-.27.84.2.72.87-.22-.5-2.08-.68-2.38-1.24-2.08-2.55-4.12-3.87-6.15-3.93-6.1-7.93-12.14-11.91-18.2-2.04-3.11-4.08-6.22-6.1-9.35-.26-.4-.91-.03-.65.38h0Z"/>
      </g>
      <g>
        <path class="cls-21" d="M417.99,426.29s1.36-16.52,20.31-18.84l-.86-13.66,42.85-.3,2.15,33.02-64.45-.22Z"/>
        <path class="cls-20" d="M428.34,408.4c3.12,1.39,6.12,3.02,8.98,4.89.41.26.78-.38.38-.65-2.86-1.87-5.86-3.51-8.98-4.89-.44-.19-.82.45-.38.65h0Z"/>
        <path class="cls-20" d="M432.56,407.1c2.67,1.67,5.35,3.34,8.02,5.01.41.26.79-.39.38-.65-2.67-1.67-5.35-3.34-8.02-5.01-.41-.26-.79.39-.38.65h0Z"/>
      </g>
      <path class="cls-20" d="M434.94,403.14c5.24.01,10.48.03,15.71.04,8.31.02,16.61.05,24.92.07,1.92,0,3.85.01,5.77.02.48,0,.48-.75,0-.75-5.24-.01-10.48-.03-15.71-.04-8.31-.02-16.61-.05-24.92-.07-1.92,0-3.85-.01-5.77-.02-.48,0-.48.75,0,.75h0Z"/>
      <g>
        <g>
          <path class="cls-10" d="M500.87,187.97l-3.49-29.09,3.8,5.11,26.1-18.21s-9.12-14.42-13.42-20.51c-8.71-12.35-18.06-11.44-18.06-11.44l-23.55-1.63-3.11-7.44s-20.95,5.08-20.62,4.96l-.1,4.1s-5.33.61-10.23,1.57c-1.65.25-3.44.66-5.28,1.3-.43.14-.82.29-1.16.43h0c-3.55,1.43-7.14,3.76-9.9,7.59-3.46,4.8-18.04,36.71-18.04,36.71l26.97,5.48-.73,31.7c-1.24.64-3.04,2.16-3.18,5.58-.21,5.25,2.9,6.34,2.9,6.34,55.42,4.42,74.24-14.77,74.2-16.99-.08-4.38-3.12-5.55-3.12-5.55Z"/>
          <path class="cls-16" d="M431.6,198.15c-.16-6.49-.32-12.97-.48-19.46-.26-10.34-.52-20.67-.77-31.01-.06-2.37-.12-4.74-.18-7.11-.01-.48-.76-.48-.75,0,.16,6.49.32,12.97.48,19.46.26,10.34.52,20.67.77,31.01.06,2.37.12,4.74.18,7.11.01.48.76.48.75,0h0Z"/>
        </g>
        <path class="cls-16" d="M456.45,109.56c-2.86,23.15-3.82,46.52-2.81,69.82.28,6.56.72,13.12,1.31,19.66.04.48.79.48.75,0-2.08-23.23-2.25-46.62-.47-69.88.5-6.55,1.16-13.09,1.97-19.61.06-.48-.69-.47-.75,0h0Z"/>
        <path class="cls-16" d="M450.55,200.59c-2.12,3.55-.96,8.52,2.48,10.8.4.27.78-.38.38-.65-3.11-2.06-4.12-6.58-2.21-9.77.25-.42-.4-.79-.65-.38h0Z"/>
        <path class="cls-16" d="M495.49,138.32c-.6-3.82-.44-7.74.49-11.5.46-1.88,1.11-3.71,1.95-5.45.77-1.6,1.69-3.48,3.54-3.97.47-.12.27-.85-.2-.72-1.69.45-2.71,1.86-3.5,3.33-.99,1.87-1.77,3.86-2.33,5.9-1.13,4.11-1.34,8.41-.68,12.61.07.48.8.27.72-.2h0Z"/>
        <path class="cls-16" d="M429.76,130.01v-10.6c0-.48-.75-.48-.75,0v10.6c0,.48.75.48.75,0h0Z"/>
        <path class="cls-16" d="M435.14,200.93c6.86.74,14-.1,20.81-.92,8.14-.97,16.31-2.31,24.24-4.44,3.22-.86,6.5-1.83,9.46-3.39.43-.22.05-.87-.38-.65-2.62,1.38-5.51,2.27-8.36,3.06-3.67,1.02-7.39,1.83-11.13,2.54-8.08,1.53-16.27,2.62-24.48,3.08-3.37.19-6.8.32-10.17-.05-.48-.05-.48.7,0,.75h0Z"/>
        <path class="cls-16" d="M448.03,113.67c-.11,1.99.2,3.9.95,5.74.13.31.48.36.69.09,2.59-3.41,5.19-6.82,7.78-10.23h-.65c2.17,3.84,4.86,7.35,7.99,10.46.14.14.38.14.53,0,2.51-2.46,4.83-5.08,6.98-7.86.29-.38-.36-.76-.65-.38-2.11,2.73-4.4,5.3-6.86,7.71h.53c-3.09-3.07-5.73-6.52-7.88-10.31-.15-.27-.49-.21-.65,0-2.59,3.41-5.19,6.82-7.78,10.23l.69.09c-.72-1.78-1.03-3.62-.92-5.54.03-.48-.72-.48-.75,0h0Z"/>
        <path class="cls-16" d="M496.47,151.12c1.34,12.06,2.68,24.13,4.01,36.19.05.47.8.48.75,0-1.34-12.06-2.68-24.13-4.01-36.19-.05-.47-.8-.48-.75,0h0Z"/>
      </g>
      <path class="cls-20" d="M500.66,401.74c14.36-1.05,28.62-3.21,42.64-6.48.47-.11.27-.83-.2-.72-13.96,3.25-28.15,5.41-42.44,6.45-.48.03-.48.79,0,.75h0Z"/>
    </g>
    <g>
      <path class="cls-21" d="M145.43,262.99h35.62c1.38,0,2.49-1.12,2.49-2.49h0c0-1.38-1.12-2.49-2.49-2.49h-35.62c-1.38,0-2.49,1.12-2.49,2.49h0c0,1.38,1.12,2.49,2.49,2.49Z"/>
      <g>
        <path class="cls-21" d="M175.49,262.99h37.49c1.52,0,2.89-.89,3.51-2.28l15.17-34.01c1.13-2.54-.73-5.41-3.51-5.41h-37.49c-1.52,0-2.89.89-3.51,2.28l-15.17,34.01c-1.13,2.54.73,5.41,3.51,5.41Z"/>
        <path class="cls-16" d="M186.16,224.46c-3.11,7.48-6.54,14.82-9.72,22.27-1.94,4.54-4.18,8.93-6.19,13.44-.19.44.45.82.65.38,2.07-4.66,4.37-9.2,6.38-13.89,3.15-7.36,6.53-14.62,9.61-22.01.19-.45-.54-.64-.72-.2h0Z"/>
        <path class="cls-10" d="M203.02,237.66c2.14-.24,4.1,1.19,4.36,3.44.05.47.04.95-.05,1.43-.44,2.27-2.69,4.12-4.79,3.9-2.1-.22-3.66-2.51-3.21-4.77.33-1.64,1.49-3.75,3.69-4Z"/>
      </g>
    </g>
  </g>
</svg>