<?xml version="1.0" encoding="UTF-8"?>
<svg id="_레이어_2" data-name="레이어_2" xmlns="http://www.w3.org/2000/svg" viewBox="0 0 426.82 419.49">
  <defs>
    <style>
      .cls-1 {
        fill: #e8505b;
      }

      .cls-2 {
        fill: #fafafa;
      }

      .cls-3 {
        fill: #263238;
      }

      .cls-4 {
        opacity: .3;
      }

      .cls-5 {
        fill: #fff;
      }

      .cls-6 {
        opacity: .78;
      }

      .cls-7 {
        fill: #e0e0e0;
      }

      .cls-8 {
        fill: #7c3b29;
      }

      .cls-9 {
        fill: #455a64;
      }

      .cls-10 {
        fill: #ffd1bd;
      }

      .cls-11 {
        fill: #a36957;
      }

      .cls-12 {
        opacity: .2;
      }

      .cls-13 {
        fill: #ebebeb;
      }

      .cls-14 {
        fill: #f5f5f5;
      }

      .cls-15 {
        fill: #cc8f75;
      }
    </style>
  </defs>
  <g id="Background_Complete">
    <g>
      <rect class="cls-13" x="4.71" y="231.06" width="63.04" height="63.04" rx="6.37" ry="6.37" transform="translate(-54.16 13.4) rotate(-12.08)"/>
      <g>
        <path class="cls-5" d="M58.52,268.52c-.03-.49-.2-.92-.37-1.33-.05-.13-.11-.26-.17-.43-1.1-2.22-3.14-3.58-4.8-4.53-1.72-.94-3.61-1.67-5.76-2.22l-.24-.06c-.16-.04-.33.03-.42.17l-3.9,6.69-14.35-9.21,3.91-7.22c.05-.09.06-.2.03-.29-.03-.1-.1-.18-.19-.22l-3.3-1.58c-.54-.25-.87-.41-1.1-.48-.08-.05-.18-.1-.32-.17-.06-.02-.12-.06-.19-.09-.19-.1-.44-.22-.74-.32-.82-.31-2.18-.66-3.93-.6-1.22.05-3.6.41-5.85,2.22-2.28,1.81-3.59,4.6-3.52,7.45.04,1.65.83,3.35,2.12,4.54.64.62,1.41,1.11,2.08,1.53l21.84,13.98c.27.17.54.34.81.51.63.41,1.27.82,1.99,1.19,1.01.52,2.11.91,3.27,1.14.78.16,1.58.24,2.37.24,1.6,0,3.18-.33,4.61-.97,2.16-.94,3.97-2.66,5.1-4.84.23-.42.51-1,.68-1.63l.09-.29c.15-.46.3-.94.3-1.45l.07-.94-.12-.82ZM31.18,250.48l-4.1,7.22c-.1.17-.05.39.12.5l15.79,10.36c.09.06.19.08.29.05.1-.02.19-.09.24-.17l4.07-6.89c1.8.5,3.44,1.16,4.88,1.96,1.36.77,3.27,2.01,4.16,3.85.05.14.1.28.16.42.13.31.25.6.26.94l.11.66-.07.8c0,.35-.11.7-.23,1.08l-.1.31c-.11.4-.29.83-.58,1.38-.98,1.89-2.54,3.37-4.39,4.17-1.86.83-4.02,1.05-6.08.63-1.03-.21-2-.55-2.89-1-.63-.32-1.26-.72-1.87-1.12-.27-.18-.55-.35-.82-.52l-21.89-13.86c-.66-.41-1.35-.84-1.91-1.37-1.07-.97-1.7-2.29-1.75-3.62-.11-2.9,1.47-5.26,2.99-6.5,1.97-1.65,4.08-2.02,5.17-2.09.23-.01.45-.02.67-.02,2.01,0,3.26.52,3.82.76.13.06.24.1.33.12.2.13.51.3.99.56l2.63,1.39Z"/>
        <path class="cls-5" d="M37.9,252.68c.6,0,1.84-.17,4.39-.7.84,4.22,1.15,4.67,1.46,4.67.04,0,.08,0,.12-.02h0c.35-.07.63-.14-.27-4.93,4.89-1.06,4.85-1.34,4.78-1.69h0c-.02-.1-.09-.2-.17-.26-.28-.19-1.93.03-4.86.64-.57-2.85-1-4.4-1.28-4.59-.08-.06-.2-.08-.3-.06-.1.02-.2.09-.26.17-.19.28,0,1.89.53,4.76-4.49.98-4.67,1.3-4.74,1.42-.05.1-.06.23-.02.33.05.13.1.26.62.26Z"/>
      </g>
    </g>
    <g>
      <rect class="cls-7" x="317.61" y="17.22" width="109.21" height="180.77"/>
      <rect class="cls-13" x="313.98" y="17.22" width="109.21" height="180.77"/>
      <rect class="cls-2" x="318.63" y="20.89" width="99.91" height="173.44"/>
      <g>
        <rect class="cls-13" x="337.65" y="43.42" width="61.43" height="128.36"/>
        <path class="cls-7" d="M337.65,126.36c-.14-11.99,10.64-23.7,22.51-25.37,5.66-.8,11.68.33,16.97-1.84,9.44-3.87,12.45-16.42,21.95-20.14l.43,92.78h-61.87v-45.42Z"/>
      </g>
    </g>
    <g>
      <rect class="cls-7" x="202.41" y="16.88" width="84" height="87.57"/>
      <g>
        <rect class="cls-2" x="196.72" y="16.88" width="84" height="87.57"/>
        <path class="cls-7" d="M280.75,104.47h-84.05V16.85h84.05v87.62ZM196.74,104.42h83.95V16.9h-83.95v87.51Z"/>
      </g>
      <rect class="cls-2" x="208.01" y="28.65" width="61.42" height="64.02"/>
      <path class="cls-7" d="M208.01,93.1c.05.06-.53.73-1.52,1.76-.98,1.03-2.36,2.44-3.9,3.96-1.55,1.52-2.97,2.88-4.01,3.84-1.05.96-1.72,1.53-1.78,1.48-.05-.05.53-.72,1.51-1.75.98-1.03,2.36-2.44,3.91-3.97,1.55-1.53,2.97-2.89,4.02-3.85,1.05-.96,1.72-1.53,1.77-1.47Z"/>
      <path class="cls-7" d="M269.43,92.94c.06-.05.73.53,1.76,1.52,1.04.98,2.44,2.36,3.96,3.9,1.52,1.55,2.88,2.97,3.84,4.01.96,1.05,1.53,1.72,1.48,1.77-.05.05-.72-.53-1.75-1.51-1.03-.98-2.44-2.36-3.97-3.91-1.53-1.55-2.88-2.97-3.85-4.02-.96-1.05-1.53-1.72-1.47-1.77Z"/>
      <path class="cls-7" d="M269.26,28.82c-.05-.06.53-.73,1.52-1.76.98-1.04,2.36-2.44,3.9-3.96,1.55-1.52,2.97-2.88,4.01-3.84,1.05-.96,1.72-1.53,1.78-1.48.05.05-.53.72-1.51,1.75-.98,1.04-2.36,2.44-3.91,3.97-1.55,1.53-2.97,2.88-4.02,3.85-1.05.96-1.72,1.53-1.77,1.47Z"/>
      <path class="cls-7" d="M207.84,28.98c-.06.05-.73-.53-1.76-1.52-1.04-.98-2.44-2.36-3.96-3.9-1.52-1.55-2.88-2.97-3.84-4.01-.96-1.05-1.53-1.72-1.48-1.77.05-.05.72.53,1.75,1.51,1.04.98,2.44,2.36,3.97,3.91,1.53,1.55,2.89,2.97,3.85,4.02.96,1.05,1.53,1.72,1.47,1.77Z"/>
      <path class="cls-7" d="M269.26,92.67s0-.11-.01-.31c0-.22,0-.51-.01-.89,0-.8-.02-1.96-.03-3.46-.01-3.03-.04-7.45-.06-13.05-.03-11.21-.07-27.19-.12-46.31l.24.24c-17.88.01-38.88.02-61.24.04h0l.27-.27c-.01,23.5-.03,45.48-.04,64.02l-.23-.23c18.35.05,33.63.09,44.35.12,5.35.03,9.56.05,12.46.06,1.43.01,2.53.02,3.3.03.36,0,.64.01.85.01.19,0,.29,0,.3.01,0,0-.09,0-.27.01-.2,0-.47,0-.83.01-.76,0-1.84.02-3.25.03-2.88.01-7.07.03-12.4.06-10.75.03-26.08.07-44.5.12h-.23s0-.23,0-.23c-.01-18.54-.02-40.52-.04-64.02v-.27s.27,0,.27,0h0c22.37.01,43.36.02,61.24.03h.24v.24c-.05,19.19-.09,35.22-.12,46.47-.03,5.58-.05,9.97-.06,12.99-.01,1.48-.02,2.62-.03,3.41,0,.37-.01.66-.01.87,0,.19,0,.29-.01.28Z"/>
      <rect class="cls-13" x="228.47" y="50.41" width="20.49" height="20.49"/>
    </g>
    <g>
      <path class="cls-14" d="M269.98,367.58c15.51-15.53,15.44-39.22,11.06-59.75-.73-3.43-1-7.13-3.18-9.86-2.18-2.73-6.37-4.12-9.2-2.11-2.35,1.66-2.93,4.84-3.92,7.56-1.32,3.62-3.68,6.83-6.71,9.16-1.99,1.53-4.58,2.71-6.96,1.9-3.27-1.11-4.35-5.16-4.94-8.59-1.1-6.4-2.2-12.79-3.29-19.19-.59-3.43-1.2-6.93-2.85-10-1.65-3.06-4.54-5.67-7.96-6-3.42-.33-7.12,2.27-7.21,5.74-.04,1.45.5,2.85.66,4.29.16,1.44-.22,3.13-1.51,3.77-1.3.65-2.84-.08-4.05-.9-4.16-2.83-7.35-6.86-10.38-10.9-3.03-4.03-6.02-8.19-9.9-11.39-3.88-3.2-8.86-5.4-13.82-4.81-4.96.6-9.65,4.56-10.03,9.6-.38,5.06,3.31,9.46,7.08,12.82,5.59,4.99,11.89,9.17,18.64,12.35,1.22.57,2.54,1.19,3.18,2.39,1.15,2.15-.61,4.81-2.73,5.96-2.4,1.31-5.22,1.53-7.84,2.33-2.62.79-5.3,2.49-5.86,5.19-.78,3.75,2.8,6.91,6.12,8.8,6.63,3.79,13.9,6.42,21.4,7.74,2.69.47,5.48.81,7.83,2.22,2.35,1.41,4.13,4.27,3.33,6.91-.8,2.64-3.81,3.97-6.54,3.95-2.73-.02-5.35-1.03-8.03-1.53-5.03-.94-11.05.47-13.35,5.08-1.51,3.03-1.02,6.79.55,9.8,1.57,3.01,4.09,5.4,6.71,7.55,9.13,7.51,20.07,12.92,31.67,14.77,11.6,1.84,21.91,1.06,32.07-4.84"/>
      <path class="cls-7" d="M262.35,355.58c-4.9-9.88-11.16-20.27-18.09-30.9-1.74-2.65-3.46-5.27-5.16-7.86-1.7-2.57-3.38-5.13-5.18-7.52-3.58-4.81-7.39-9.16-11.14-13.17-3.75-4.02-7.45-7.7-10.93-11.11-3.5-3.41-6.81-6.52-9.96-9.23-6.28-5.44-11.85-9.23-15.78-11.67-1.96-1.23-3.52-2.13-4.58-2.73-.51-.28-.91-.5-1.21-.67-.27-.15-.42-.22-.42-.21,0,0,.13.1.39.27.29.18.68.42,1.18.73,1.04.63,2.57,1.57,4.51,2.83,3.88,2.5,9.39,6.33,15.61,11.8,3.12,2.72,6.41,5.85,9.88,9.27,3.47,3.43,7.15,7.11,10.88,11.13,3.73,4.02,7.51,8.36,11.07,13.15,1.79,2.39,3.45,4.92,5.16,7.5,1.69,2.58,3.41,5.2,5.15,7.85,6.92,10.63,13.18,20.98,18.09,30.82"/>
      <path class="cls-7" d="M233.73,309.31s.07-.54.07-1.52c.01-.98-.02-2.4-.08-4.15-.12-3.5-.46-8.33-.85-13.65-.39-5.32-.66-10.14-.73-13.63-.04-1.75-.06-3.16-.06-4.14,0-.98-.03-1.52-.07-1.52-.04,0-.1.54-.18,1.51-.08.98-.13,2.39-.15,4.15-.05,3.51.15,8.35.54,13.68.4,5.25.76,10,1.03,13.63.11,1.64.21,3.02.29,4.13.07.98.13,1.52.18,1.51Z"/>
      <path class="cls-7" d="M188.19,308.92s.65,0,1.8-.1c1.15-.1,2.81-.26,4.87-.38,4.11-.28,9.81-.48,16.11-.41,6.3.07,11.99.38,16.11.73,2.06.16,3.72.33,4.87.44,1.15.12,1.79.16,1.8.12,0-.04-.62-.17-1.76-.37-1.14-.19-2.8-.43-4.86-.65-4.11-.46-9.83-.84-16.14-.92-6.31-.06-12.03.2-16.15.6-2.06.18-3.72.41-4.86.59-1.14.19-1.77.31-1.76.35Z"/>
      <path class="cls-7" d="M261.66,354.87s.09-.2.21-.59c.13-.47.28-1.04.47-1.73.4-1.5.93-3.69,1.54-6.41,1.23-5.43,2.69-12.98,4.18-21.33,1.5-8.36,2.89-15.91,4-21.36.55-2.65,1-4.83,1.34-6.45.14-.7.26-1.28.35-1.76.07-.4.1-.62.08-.62-.02,0-.09.2-.21.59-.13.47-.28,1.04-.47,1.73-.4,1.5-.93,3.69-1.54,6.41-1.23,5.43-2.69,12.98-4.18,21.34-1.5,8.36-2.89,15.91-4,21.36-.55,2.65-1,4.83-1.34,6.45-.14.7-.26,1.28-.35,1.76-.07.4-.1.62-.08.62Z"/>
      <path class="cls-7" d="M199.72,346.42s.21.07.62.14c.49.07,1.08.16,1.8.27,1.66.23,3.91.54,6.63.92,5.6.77,13.33,1.93,21.86,3.22,8.54,1.29,16.28,2.38,21.9,3.04,2.81.33,5.09.57,6.66.71.73.06,1.33.11,1.82.15.42.03.64.03.64,0,0-.02-.21-.07-.62-.14-.48-.07-1.08-.16-1.8-.27-1.66-.23-3.9-.54-6.63-.92-5.6-.77-13.33-1.93-21.86-3.22-8.53-1.29-16.28-2.38-21.9-3.04-2.81-.33-5.09-.57-6.66-.71-.73-.06-1.33-.11-1.82-.15-.42-.03-.63-.03-.64,0Z"/>
    </g>
    <g>
      <g>
        <rect class="cls-7" x="10.55" y=".11" width="70.86" height="73.87" transform="translate(.09 -.11) rotate(.13)"/>
        <g>
          <rect class="cls-9" x="5.75" y=".1" width="70.86" height="73.87" transform="translate(.09 -.09) rotate(.13)"/>
          <path class="cls-14" d="M76.55,74.07l-70.9-.16L5.82,0l70.9.16-.17,73.91Z"/>
        </g>
        <rect class="cls-5" x="15.28" y="10.03" width="51.81" height="54.01" transform="translate(.09 -.09) rotate(.13)"/>
        <path class="cls-7" d="M15.22,64.34s-.45.61-1.28,1.48c-.83.87-2,2.05-3.3,3.33-1.31,1.28-2.51,2.42-3.39,3.23-.89.81-1.46,1.29-1.5,1.24-.04-.05.45-.61,1.27-1.48.83-.87,2-2.05,3.31-3.34,1.31-1.28,2.51-2.43,3.4-3.24.89-.81,1.45-1.29,1.49-1.24Z"/>
        <path class="cls-7" d="M67.02,64.33s.61.45,1.48,1.28c.87.83,2.05,1.99,3.33,3.3,1.28,1.31,2.42,2.51,3.23,3.39.81.89,1.29,1.46,1.24,1.5-.05.04-.61-.45-1.48-1.28-.87-.83-2.05-2-3.34-3.31-1.28-1.31-2.43-2.51-3.24-3.4-.81-.89-1.29-1.45-1.24-1.49Z"/>
        <path class="cls-7" d="M67.01,10.24s.45-.61,1.28-1.48c.83-.87,1.99-2.05,3.3-3.33,1.31-1.28,2.51-2.42,3.39-3.23.89-.81,1.46-1.29,1.5-1.24.04.05-.45.61-1.27,1.48-.83.87-2,2.05-3.31,3.34-1.31,1.28-2.51,2.43-3.4,3.24-.89.81-1.45,1.29-1.49,1.24Z"/>
        <path class="cls-7" d="M15.2,10.25s-.61-.45-1.48-1.28-2.05-1.99-3.33-3.3c-1.28-1.31-2.42-2.51-3.23-3.39-.81-.89-1.29-1.46-1.24-1.5.05-.04.61.45,1.48,1.27.87.83,2.05,2,3.34,3.31,1.28,1.31,2.43,2.51,3.24,3.4.81.89,1.29,1.45,1.24,1.49Z"/>
        <path class="cls-7" d="M66.88,64.1s0-.09-.01-.26c0-.18,0-.43,0-.75,0-.68,0-1.65-.02-2.92,0-2.56-.02-6.28-.03-11.01,0-9.46,0-22.93-.01-39.07l.2.2c-15.08-.03-32.79-.06-51.66-.09h0l.23-.23c-.06,19.82-.11,38.37-.16,54.01l-.2-.2c15.48.08,28.37.14,37.41.19,4.52.03,8.07.06,10.51.08,1.21.01,2.13.02,2.78.03.31,0,.54,0,.72.01.16,0,.25,0,.25.01,0,0-.07,0-.23.01-.17,0-.4,0-.7,0-.64,0-1.55,0-2.74.02-2.43,0-5.97.02-10.46.03-9.07,0-22,0-37.54.01h-.2v-.2c.03-15.64.06-34.18.09-54.01v-.23s.23,0,.23,0h0c18.87.05,36.58.1,51.66.15h.2s0,.2,0,.2c-.08,16.19-.14,29.71-.19,39.2-.03,4.71-.06,8.41-.08,10.96-.01,1.25-.02,2.21-.03,2.88,0,.31-.01.55-.01.73,0,.16,0,.24-.01.24Z"/>
      </g>
      <g>
        <path class="cls-14" d="M31.6,51.65c-3.9-3.93-4.12-10.91-.47-15.08,1.44-1.65,3.36-2.85,4.7-4.59,2.9-3.76,2.87-9.69,6.89-12.21,2.94-1.83,7.14-.77,9.28,1.95,2.13,2.73,2.3,6.68.91,9.85-1.03,2.34-2.82,4.32-3.56,6.77-.75,2.5-.33,5.25-1.12,7.74-.95,3.01-4.14,4.91-7.1,6-2.96,1.09-6.77.82-9.53-.44"/>
        <path class="cls-7" d="M46.23,26.8s-.15.52-.5,1.43c-.35.91-.9,2.21-1.62,3.79-1.43,3.17-3.62,7.47-6.43,11.98-2.81,4.51-5.7,8.37-7.92,11.06-1.11,1.34-2.03,2.41-2.69,3.12-.66.72-1.03,1.1-1.06,1.08-.02-.02.3-.45.92-1.2.62-.75,1.5-1.84,2.57-3.21,2.14-2.73,4.98-6.6,7.78-11.1,2.8-4.5,5.02-8.75,6.53-11.88.75-1.56,1.35-2.84,1.75-3.72.4-.88.64-1.37.67-1.35Z"/>
        <path class="cls-7" d="M35.49,36.14c.06,0,.21,1.03.41,2.73.2,1.7.45,4.08.7,6.77l-.35-.18c.36-.21.74-.43,1.12-.65,2.59-1.51,4.95-2.84,6.67-3.79,1.72-.95,2.8-1.51,2.83-1.45.03.06-.99.72-2.67,1.74-1.68,1.02-4.01,2.41-6.61,3.91-.38.22-.76.44-1.12.65l-.31.18-.03-.36c-.24-2.69-.44-5.07-.55-6.78-.12-1.71-.16-2.76-.1-2.76Z"/>
        <path class="cls-7" d="M49.11,32.17c.03.06-.64.43-1.75.97-1.1.55-2.64,1.28-4.36,2.05-.18.08-.36.16-.53.24l-.28.13-.05-.3c-.27-1.73-.48-3.27-.61-4.38-.13-1.11-.18-1.8-.12-1.81s.22.66.44,1.76c.22,1.1.48,2.63.76,4.36l-.33-.18c.17-.08.35-.16.53-.24,1.71-.78,3.27-1.46,4.41-1.93,1.14-.47,1.86-.73,1.88-.68Z"/>
      </g>
    </g>
  </g>
  <g id="Plant">
    <g>
      <g>
        <path class="cls-1" d="M110.37,330.4c4.71-2.43,10.26-2.75,15.49-1.88,2.81.46,5.74,1.3,7.65,3.41,1.91,2.11,2.27,5.82.08,7.64-1.31,1.08-3.13,1.24-4.82,1.22-4.09-.05-8.64-.77-11.91,1.69-1.87,1.41-3.11,3.74-5.34,4.43-2.18.68-4.65-.61-5.8-2.58-1.16-1.97-1.2-4.43-.66-6.65,0,0,.57-4.84,5.31-7.29Z"/>
        <path class="cls-1" d="M99.58,309.57c2.88,4.11,8.48,2.75,11.07.24,2.6-2.51,3.69-6.15,4.69-9.62,2.28-7.93,4.58-16.25,2.89-24.32-.51-2.41-1.41-4.82-3.11-6.61-1.7-1.79-4.3-2.86-6.69-2.23-2.82.75-4.58,3.51-5.84,6.14-3.73,7.73-5.7,16.3-5.73,24.88-.01,4.01.46,8.21,2.72,11.52"/>
        <path class="cls-1" d="M91.67,315.47c3.13-3.71,3.72-9.12,2.33-13.77-1.39-4.65-4.54-8.61-8.16-11.83-4.25-3.79-9.24-6.73-14.61-8.62-2.11-.74-4.34-1.33-6.57-1.12-2.23.21-4.47,1.35-5.51,3.34-1.54,2.93-.06,6.49,1.53,9.39,2.81,5.11,6.02,10,9.6,14.61,2.88,3.71,6.17,7.37,10.55,9.04,4.38,1.68,8.94,1.48,11.26-1.56"/>
        <path class="cls-3" d="M99.39,371.62c.05,0,.14-.66.26-1.87.13-1.36.3-3.07.5-5.1.24-2.15.55-4.7,1.15-7.48.59-2.77,1.52-5.78,2.72-8.83,1.24-3.03,2.75-5.79,4.51-7.99,1.75-2.21,3.79-3.82,5.7-4.74,1.91-.94,3.62-1.33,4.8-1.5,1.19-.12,1.86-.22,1.86-.27,0-.05-.67-.06-1.89-.03-1.21.08-3,.39-5.01,1.3-2.02.89-4.18,2.52-6.01,4.78-1.85,2.25-3.42,5.07-4.67,8.15-1.22,3.1-2.13,6.14-2.7,8.98-.57,2.83-.82,5.41-.99,7.58-.16,2.17-.22,3.92-.25,5.13-.03,1.21-.01,1.88.04,1.89Z"/>
        <path class="cls-3" d="M99.74,367.7s.04-.3.05-.87c0-.65,0-1.47,0-2.48,0-2.15,0-5.27.11-9.11.19-7.69.85-15.97,2.13-27.64,1.21-10.98,2.84-23.75,4.55-32.05.37-1.89.74-3.59,1.09-5.08.33-1.49.62-2.78.89-3.82.24-.98.43-1.78.58-2.41.12-.55.18-.85.15-.86-.03,0-.13.27-.3.81-.19.62-.43,1.41-.72,2.38-.32,1.03-.65,2.31-1.02,3.79-.39,1.48-.8,3.18-1.2,5.06-1.7,7.52-3.5,18.04-4.79,29.74-1.28,11.7-1.86,22.35-1.91,30.06-.05,3.86.04,6.98.13,9.13.06,1.01.11,1.83.15,2.48.04.57.08.86.11.86Z"/>
        <path class="cls-3" d="M99.79,347.16c.05,0,.04-.92-.02-2.59-.1-1.67-.32-4.07-.79-7.02-.5-2.94-1.19-6.43-2.28-10.23-.47-1.73-1.58-5.89-4.28-12.1-3.55-8.42-8.37-15.3-12.56-19.56-.98-1.13-2.08-1.95-2.95-2.75-.45-.38-.85-.77-1.26-1.07-.41-.28-.79-.55-1.15-.79-1.38-.94-2.15-1.44-2.18-1.4-.12.17,3.09,2.06,7.15,6.38,4.04,4.31,8.73,11.14,12.25,19.49,1.96,4.53,3.33,8.56,4.3,11.99,1.12,3.76,1.87,7.21,2.43,10.13.53,2.92.84,5.3,1.03,6.95.15,1.65.26,2.57.32,2.57Z"/>
      </g>
      <polygon class="cls-3" points="79.94 383.39 81.99 411.59 118.22 411.59 120.28 383.39 79.94 383.39"/>
      <rect class="cls-3" x="76.44" y="372.28" width="48.17" height="11.11"/>
      <polygon class="cls-9" points="76.44 410.51 76.44 413.59 78.7 413.59 123.81 413.59 123.81 410.51 76.44 410.51"/>
      <polygon class="cls-9" points="80.92 419.01 78.7 413.59 122.08 413.59 119.49 419.01 80.92 419.01"/>
      <path class="cls-7" d="M119.61,392.61s-.05.09-.17.26c-.14.19-.32.43-.54.72-.51.66-1.22,1.56-2.11,2.7l-.09.12-.09-.13c-1.33-1.83-3.1-4.29-5.18-7.17h.3c-1.54,2.18-3.26,4.62-5.1,7.23l-.16.23-.18-.21c-1.88-2.24-3.93-4.68-6.05-7.2h.35c-.1.13-.22.27-.33.41-1.88,2.35-3.69,4.63-5.41,6.79l-.18.23-.17-.24c-1.84-2.6-3.55-5.03-5.11-7.23h.3c-2.52,2.88-4.65,5.31-6.29,7.18l-.11.13-.09-.14c-.83-1.39-1.49-2.5-1.97-3.31-.21-.36-.37-.65-.51-.88-.11-.2-.16-.31-.15-.31,0,0,.08.09.21.28.15.22.33.5.56.85.5.79,1.2,1.88,2.07,3.25l-.2-.02c1.61-1.89,3.71-4.35,6.19-7.25l.16-.18.14.2c1.57,2.19,3.3,4.61,5.15,7.19h-.35c1.71-2.17,3.53-4.45,5.4-6.81.11-.14.23-.29.33-.42l.17-.22.18.21c2.12,2.53,4.16,4.97,6.04,7.22h-.34c1.86-2.59,3.6-5.01,5.16-7.18l.15-.21.15.21c2.04,2.92,3.78,5.39,5.08,7.25h-.18c.92-1.11,1.66-2,2.2-2.64.24-.28.43-.5.59-.68.14-.15.21-.23.22-.22Z"/>
      <path class="cls-9" d="M120.78,383.2c0,.12-9.08.23-20.27.23s-20.27-.1-20.27-.23,9.08-.23,20.27-.23,20.27.1,20.27.23Z"/>
      <path class="cls-3" d="M122.61,413.9c0,.12-9.87.23-22.03.23s-22.03-.1-22.03-.23,9.86-.23,22.03-.23,22.03.1,22.03.23Z"/>
    </g>
  </g>
  <g id="Character_2">
    <g>
      <g>
        <path class="cls-11" d="M389.93,199.04c-.78-3.39,3.22-15.1.63-15.36-3.29-.33-3.85,12.99-3.97,14.18-.11,1.16-1.84,1.02-1.68-.05.23-1.54,2.43-16.61-.89-16.65-1.84-.02-1.92,3.33-1.92,3.33,0,0-1.24,14.85-2.81,14.78-1.59-.07-.45-8.52-.29-11.66.15-3.01-1.36-4.74-2.47-3.44-1.64,1.91-1.63,9.56-1.83,12.58-.2,3.02-1.01,11.68-4.12,7.34-3.11-4.33-7.1-6.52-8.57-6.38-1.47.15-1.74,2.27-.32,3.1,1.15.67,2.74,2.38,3.89,3.71.94,1.1,1.57,2.4,2.24,3.68.48.91,1.26,2.73,1.63,5.25.43,2.92,2.11,5.51,4.58,7.13l-.17,23.79-.74,11.77,18.52,6.43-2.43-41.98c.91-8.07,4.46-18.27,5.76-23,2.07-7.54,1.1-7.87.18-7.91-2.04-.09-4.46,12.66-5.22,9.35Z"/>
        <path class="cls-8" d="M387.56,209.27c0,.08-.9,0-2.27.38-1.36.37-3.19,1.33-4.53,3.09-.36.47-.65.97-.9,1.47l-.12.24-.18-.19c-1.22-1.26-2.54-2.08-3.51-2.57-.98-.49-1.61-.69-1.59-.74,0-.04.67.08,1.7.51,1.02.43,2.4,1.23,3.67,2.52l-.3.06c.25-.52.55-1.05.93-1.54.7-.91,1.55-1.62,2.38-2.14.84-.51,1.68-.81,2.39-.98.71-.18,1.31-.19,1.71-.19.4.02.63.05.62.08Z"/>
        <path class="cls-8" d="M386.65,220.42c.03.09-1.74.66-4,.73-2.27.08-4.07-.38-4.04-.47.02-.11,1.81.17,4.03.09,2.22-.06,3.99-.46,4.02-.35Z"/>
      </g>
      <g>
        <path class="cls-3" d="M274.66,158.35c.37-6.09,5.37-11.57,11.39-12.51,1.58-.25,3.24-.22,4.7-.87,1.2-.54,2.15-1.48,3.26-2.19,3.55-2.26,8.68-1.56,11.5,1.55,2.65,2.93,3.33-1.46,9.32,1.54,4.96,2.49,2.76,6.59,2.76,6.59,4.89-.56,9.93,2.9,11.16,7.66.78,3.03.43,6.8,2.96,8.63,1.23.89,2.86,1.04,4.12,1.88,2.35,1.56,2.66,4.86,2.36,7.66-.3,2.8-.96,5.78.26,8.32,1.99,4.17,8.21,5.43,9.29,9.92.51,2.12-.21,4.76,1.4,6.23.65.59,1.53.83,2.34,1.15,3.29,1.33,5.71,4.59,6.04,8.12.33,3.53-1.45,7.18-4.44,9.1-.83.53-1.83,1.04-2.1,2-.3,1.06.47,2.09,1.03,3.04,2.06,3.48,1.52,8.29-1.27,11.22-2.78,2.93-7.57,3.72-11.14,1.83-1.59,3.4-4.57,6.13-8.09,7.43-1.62.6-3.41.9-5.09.5-1.35-.32-2.55-1.08-3.66-1.91-5.28-3.97-12.71-10.09-13.64-16.62"/>
        <path class="cls-11" d="M274.54,168.53l-.24-4.68,27.96-6.22c8.64-1.19,18.29,7.21,19.11,15.9.91,9.65,1.64,21.47.72,28.72-1.85,14.58-12.91,16.77-12.91,16.77l.39,14.4-32.07,1.4-2.95-66.28Z"/>
        <path class="cls-3" d="M316.11,184.06c.07.98-.71,1.85-1.74,1.93-1.02.09-1.9-.64-1.97-1.62-.07-.98.71-1.85,1.73-1.93,1.02-.09,1.91.64,1.97,1.62Z"/>
        <path class="cls-3" d="M318.49,179.78c-.22.25-1.66-.75-3.67-.68-2,.04-3.44,1.11-3.66.88-.11-.1.11-.55.74-1.04.62-.48,1.68-.97,2.92-1,1.25-.03,2.31.39,2.93.85.63.45.85.89.74,1Z"/>
        <path class="cls-3" d="M297.42,185c.07.98-.71,1.85-1.74,1.93-1.02.09-1.9-.64-1.97-1.62-.07-.98.71-1.85,1.73-1.93,1.02-.09,1.91.64,1.97,1.62Z"/>
        <path class="cls-3" d="M298.83,180.77c-.22.25-1.67-.75-3.67-.68-2,.04-3.44,1.11-3.66.88-.11-.11.11-.55.74-1.04.62-.48,1.68-.97,2.92-1,1.25-.03,2.31.39,2.93.85.63.45.85.89.74,1Z"/>
        <path class="cls-3" d="M306.55,195.39c-.01-.11,1.23-.37,3.23-.69.51-.07.99-.19,1.07-.54.11-.37-.12-.92-.39-1.5-.52-1.22-1.06-2.5-1.63-3.85-2.27-5.48-3.93-9.99-3.71-10.08.22-.09,2.24,4.28,4.51,9.75.55,1.35,1.07,2.64,1.57,3.87.21.58.56,1.22.33,2-.13.39-.49.68-.82.77-.32.11-.61.12-.86.15-2.03.17-3.28.22-3.3.11Z"/>
        <path class="cls-8" d="M309.17,219.05s-10.24.92-20.08-4.59c0,0,5.21,10,20.19,8.21l-.1-3.62Z"/>
        <path class="cls-8" d="M305.86,200.24c-.75-.93-2.03-1.41-3.28-1.24-.87.12-1.73.57-2.24,1.29-.51.72-.59,1.73-.08,2.39.56.74,1.7.88,2.64.58.95-.3,1.75-.96,2.51-1.61.21-.18.43-.37.55-.61.13-.24.15-.55-.03-.74"/>
        <path class="cls-3" d="M300.7,196.95c.32-.03.4,2.14,2.3,3.63,1.9,1.49,4.21,1.17,4.24,1.48.03.14-.5.44-1.48.49-.96.06-2.37-.2-3.54-1.11-1.16-.91-1.69-2.16-1.79-3.05-.11-.91.11-1.45.26-1.44Z"/>
        <path class="cls-3" d="M299.1,172.9c-.18.55-2.19.35-4.53.71-2.35.31-4.22,1.06-4.55.58-.15-.23.17-.75.92-1.3.74-.55,1.94-1.09,3.34-1.29,1.4-.2,2.7-.01,3.57.31.87.32,1.32.73,1.24,1Z"/>
        <path class="cls-3" d="M317.58,174.01c-.34.47-1.73.04-3.39.07-1.66-.03-3.05.4-3.39-.07-.15-.23.06-.69.66-1.14.59-.45,1.59-.83,2.73-.83,1.14,0,2.14.38,2.73.83.6.45.81.91.66,1.14Z"/>
        <path class="cls-3" d="M323.83,155.73c-1.96,5.23-6.64,13.13-12.15,14.08s-11.44-1.23-15.03-5.51c-.64,4.17-5.11,6.59-9.24,7.47-2.92.63-6.02.81-8.84-.17-2.82-.97-5.31-3.27-5.9-6.19-.59-2.92,3.25-10.36,6.15-11.05"/>
        <path class="cls-3" d="M284,232.89c.07,4.69-3.17,9.24-7.62,10.72.42,3.79-2.22,7.68-5.89,8.69-3.67,1.02-7.93-.97-9.52-4.43-.42-.91-.68-1.92-1.35-2.65-1.55-1.69-4.28-1.14-6.51-1.69-4.01-.99-6.05-5.67-5.9-9.79.03-.81.12-1.64-.06-2.43-.36-1.63-1.74-2.79-2.79-4.08-4.34-5.3-3.28-13.53.71-19.1,1.33-1.86,3.04-3.82,2.74-6.08-.17-1.27-.95-2.35-1.49-3.5-1.78-3.73-.95-8.55,1.98-11.47.45-.45.97-.9,1.09-1.52.08-.4-.02-.8-.09-1.2-1.14-6,3.28-12.5,9.29-13.63.36-.07.74-.12,1.05-.32.89-.55.83-1.83.88-2.88.13-2.77,1.88-8.06,3.86-10.01,5.48-5.41,11.43-1.75,13.58,0,0,0,5.42,19.53,4.91,23.27-.51,3.74-2.56,13.14-1.19,17.24,1.37,4.1,3.75,12.53,2.33,16.42-1.42,3.89,0,18.44,0,18.44Z"/>
      </g>
      <g>
        <g>
          <path class="cls-1" d="M319.17,395.55s42.34,11.72,44.04,12.32c2.55.9,2.12,10.24-1.85,10.1-1.88-.07-32.52,1.14-36.39.9s-15.55-4.85-15.55-4.85l9.76-18.47Z"/>
          <path class="cls-3" d="M336.81,411.7c.21.03.5-2.21,1.87-4.55,1.33-2.36,3.13-3.73,2.99-3.9-.07-.16-2.18,1.03-3.61,3.54-1.45,2.5-1.43,4.92-1.25,4.9Z"/>
          <path class="cls-3" d="M332.39,409.7c.21.04.64-1.97,1.76-4.18,1.11-2.22,2.46-3.76,2.31-3.9-.12-.14-1.77,1.25-2.94,3.59-1.18,2.33-1.31,4.48-1.13,4.5Z"/>
          <path class="cls-3" d="M328.25,408.59c.21-.01.05-2.13.99-4.47.9-2.36,2.45-3.8,2.31-3.96-.08-.16-1.98,1.15-2.97,3.7-1.01,2.54-.5,4.79-.33,4.73Z"/>
          <path class="cls-3" d="M329,403.12c.08.02.45-1.16.45-3.15,0-.99-.12-2.17-.43-3.45-.16-.64-.36-1.3-.63-1.97-.14-.34-.29-.72-.68-1.04-.39-.35-1.11-.28-1.45.07-.39.34-.51.82-.56,1.2-.04.39-.06.75-.06,1.12.01.73.1,1.43.26,2.07.31,1.29.82,2.38,1.3,3.24.99,1.72,1.84,2.6,1.9,2.55.1-.07-.61-1.05-1.46-2.78-.42-.86-.85-1.92-1.11-3.15-.13-.61-.2-1.26-.2-1.93.02-.65,0-1.46.39-1.78.2-.17.38-.18.56-.05.19.14.34.43.46.74.26.63.48,1.26.64,1.87.33,1.22.49,2.35.56,3.31.12,1.92-.07,3.12.05,3.13Z"/>
          <path class="cls-3" d="M328.95,402.69c.02-.08-1-.43-2.73-.44-.86,0-1.89.09-3,.37-.55.15-1.14.29-1.73.64-.58.29-1.19,1.1-.96,1.93.18.79.86,1.34,1.53,1.51.67.19,1.33.12,1.9,0,1.16-.27,2.07-.84,2.75-1.35,1.36-1.06,2.02-1.88,1.97-1.94-.07-.09-.88.61-2.26,1.53-.69.44-1.56.92-2.6,1.12-.51.1-1.07.13-1.57-.02-.5-.14-.91-.52-1.03-1.01-.12-.47.17-.91.63-1.18.45-.28,1.01-.44,1.54-.6,1.05-.3,2.03-.44,2.85-.5,1.66-.12,2.7.05,2.71-.06Z"/>
          <path class="cls-3" d="M343.31,412.16c.21-.02,0-1.83.83-3.82.79-2,2.21-3.15,2.07-3.31-.07-.17-1.84.83-2.73,3.05-.91,2.21-.35,4.16-.18,4.09Z"/>
          <path class="cls-3" d="M313.77,414.11s.56.32,1.64.77c1.09.41,2.68.99,4.71,1.46,4.05,1.02,9.82,1.6,16.16,1.53,6.35-.07,12.06-.36,16.21-.52,1.96-.1,3.61-.19,4.91-.26,1.16-.08,1.8-.14,1.8-.19,0-.05-.64-.08-1.8-.08-1.3,0-2.95.02-4.91.03-4.29.08-9.94.19-16.2.32-6.31.07-12.02-.43-16.05-1.31-4.05-.83-6.41-1.87-6.46-1.74Z"/>
          <path class="cls-3" d="M312.52,415.08c.06.1,1.22-.58,3.17-1.44,1.93-.83,4.83-1.82,8.01-1.33,3.19.49,5.45,2.63,6.93,4.12,1.48,1.54,2.35,2.56,2.44,2.49.06-.05-.66-1.18-2.07-2.83-.71-.82-1.62-1.77-2.81-2.62-1.17-.86-2.68-1.6-4.37-1.85-3.41-.52-6.42.62-8.33,1.58-1.94.99-3,1.82-2.96,1.89Z"/>
          <g class="cls-4">
            <path d="M319.17,395.55s42.34,11.72,44.04,12.32c2.55.9,2.12,10.24-1.85,10.1-1.88-.07-32.52,1.14-36.39.9s-15.55-4.85-15.55-4.85l9.76-18.47Z"/>
          </g>
        </g>
        <g>
          <g>
            <path class="cls-3" d="M272.13,346.92l-9.14,18.78s-48.87-14.86-61.19-14.18c-12.31.68-22.4,5.62-24.79,15.62s-2.72,23.8,11.64,33.38c14.37,9.58,85.76,14.87,85.76,14.87h28.25l46.18-60.89-7.44-6.03-69.27-1.55Z"/>
            <path class="cls-9" d="M287.5,388.12s-.32.02-.93-.02c-.6-.05-1.51-.05-2.65-.21-2.3-.23-5.61-.82-9.58-1.98-3.98-1.14-8.57-2.95-13.51-5.28-4.94-2.33-10.21-5.2-15.75-8.17-5.54-2.97-10.9-5.63-15.95-7.65-5.05-2.02-9.76-3.42-13.8-4.13-4.04-.73-7.38-.91-9.67-.84-1.15-.03-2.04.1-2.65.1-.61.03-.93.03-.93.01,0-.02.31-.07.92-.14.6-.05,1.49-.21,2.65-.22,2.31-.14,5.67-.02,9.76.66,4.09.66,8.85,2.03,13.94,4.03,5.09,2,10.48,4.67,16.03,7.64,5.54,2.98,10.8,5.85,15.7,8.2,4.9,2.35,9.45,4.19,13.39,5.38,3.93,1.2,7.2,1.86,9.48,2.15,1.13.2,2.03.23,2.63.32.6.07.92.12.92.14Z"/>
            <path class="cls-3" d="M320.89,410.42c9.08-3.57,58.99-19.45,76.66-39.87,4.9-5.67,5.81-11.58,4.84-16.95-2.46-13.62-14.99-22.7-27.98-17.55-1.85.73-6.09,2.38-7.87,3.33-4.85,2.61-83.37,52.41-83.37,52.41,0,0,13.68,26.68,13.34,27.71l24.38-9.07Z"/>
            <path class="cls-9" d="M345.48,351.21s-.07.07-.21.17c-.18.12-.39.27-.66.45-.63.41-1.48.97-2.56,1.67-2.29,1.46-5.51,3.51-9.48,6.04-8.08,5.08-19.16,12.04-31.4,19.74-6.05,3.77-11.81,7.36-17.06,10.64l.11-.35c3.63,8.74,6.73,16.19,8.94,21.52,1.06,2.61,1.91,4.69,2.51,6.18.27.69.48,1.23.65,1.65.14.38.21.57.19.58-.01,0-.11-.18-.28-.54-.19-.41-.43-.95-.73-1.62-.64-1.47-1.54-3.53-2.66-6.11-2.26-5.31-5.43-12.73-9.15-21.43l-.09-.22.21-.13c5.24-3.29,11-6.89,17.03-10.68,12.28-7.63,23.4-14.55,31.5-19.58,4.01-2.46,7.27-4.46,9.58-5.88,1.1-.66,1.98-1.19,2.62-1.57.28-.16.5-.29.69-.4.16-.09.24-.13.25-.12Z"/>
            <path class="cls-9" d="M276.51,374.76c-.03.07-.93-.22-2.32-.87-1.38-.65-3.24-1.69-5.13-3.07-1.89-1.38-3.44-2.84-4.48-3.96-1.04-1.12-1.59-1.9-1.53-1.95.14-.13,2.64,2.7,6.37,5.41,3.71,2.74,7.16,4.26,7.08,4.44Z"/>
            <path class="cls-9" d="M303.69,352.62c.09,0,.09,1.2.12,3.13.03,1.93.1,4.58.37,7.5.27,2.92.67,5.55.99,7.45.32,1.9.53,3.07.44,3.1-.08.02-.44-1.12-.87-3.01-.43-1.89-.9-4.53-1.17-7.48-.27-2.95-.27-5.63-.19-7.56.08-1.93.24-3.12.31-3.12Z"/>
            <path class="cls-9" d="M309.53,351.98s.23-.06.61.08c.38.13.89.48,1.3,1.09.38.61.69,1.53.37,2.52-.29,1.01-1.39,1.75-2.53,1.78-1.14.07-2.32-.56-2.68-1.56-.37-.99-.05-1.93.35-2.52.42-.61.97-.93,1.37-1.01.4-.1.62-.03.62,0,.04.1-.96.09-1.62,1.25-.31.54-.5,1.35-.19,2.08.29.74,1.18,1.21,2.12,1.16.95-.04,1.78-.6,2.03-1.36.28-.75.08-1.55-.21-2.11-.64-1.16-1.59-1.3-1.54-1.4Z"/>
            <path class="cls-9" d="M285.38,350s.21.3.43.93c.22.62.41,1.57.41,2.76,0,1.19-.26,2.61-.91,4.05-.65,1.44-1.74,2.87-3.26,3.92-1.54,1.02-3.28,1.49-4.86,1.54-1.58.06-3-.24-4.1-.69-1.1-.44-1.91-.98-2.4-1.42-.5-.43-.72-.72-.7-.75.08-.11,1.08,1.01,3.25,1.76,1.07.38,2.42.62,3.92.53,1.49-.08,3.11-.54,4.54-1.49,1.41-.97,2.45-2.3,3.09-3.65.65-1.35.93-2.69.99-3.83.12-2.29-.53-3.64-.41-3.67Z"/>
            <path class="cls-9" d="M331.96,359.3c0,.07-.74.12-1.85-.26-1.1-.37-2.56-1.26-3.56-2.79-1-1.53-1.23-3.23-1.12-4.38.1-1.17.44-1.83.51-1.8.1.03-.09.71-.07,1.81,0,1.09.29,2.64,1.2,4.03.91,1.39,2.21,2.27,3.21,2.72,1,.46,1.71.56,1.69.66Z"/>
          </g>
          <path class="cls-9" d="M356.37,396.64s.1-.06.3-.16c.22-.11.52-.25.9-.44.81-.39,1.97-.95,3.46-1.67,3-1.46,7.35-3.56,12.59-6.4,5.23-2.84,11.41-6.42,17.38-11.56,2.96-2.58,5.86-5.57,8.31-9.05,2.36-3.54,3.35-8.08,3.01-12.56-.19-2.25-.75-4.43-1.65-6.43-.45-1-.99-1.95-1.61-2.83-.63-.88-1.32-1.7-2.06-2.47-1.47-1.54-3.09-2.9-4.67-4.21-1.57-1.32-3.21-2.52-5.09-3.05-1.87-.55-3.8-.65-5.65-.63-1.86.03-3.66.24-5.36.59-3.43.68-6.43,2.02-9.05,3.42-5.2,2.88-9.42,5.22-12.35,6.85-1.45.8-2.58,1.42-3.37,1.85-.37.2-.67.36-.88.47-.2.1-.3.15-.31.15,0,0,.09-.07.29-.18.21-.12.5-.29.86-.51.78-.45,1.9-1.09,3.33-1.92,2.9-1.65,7.07-4.07,12.3-6.96,2.62-1.42,5.65-2.79,9.12-3.5,1.73-.36,3.54-.58,5.42-.62,1.87-.03,3.83.06,5.76.62,1.95.54,3.66,1.79,5.23,3.11,1.59,1.32,3.22,2.68,4.71,4.24.74.78,1.46,1.62,2.1,2.51.63.9,1.19,1.87,1.65,2.89.92,2.04,1.49,4.27,1.69,6.56.35,4.57-.67,9.18-3.08,12.81-2.5,3.53-5.41,6.52-8.4,9.11-6.02,5.16-12.23,8.72-17.49,11.53-5.27,2.81-9.64,4.87-12.66,6.29-1.5.69-2.68,1.22-3.49,1.6-.39.17-.69.3-.91.4-.21.09-.31.13-.32.12Z"/>
        </g>
        <g>
          <g>
            <path class="cls-1" d="M286.47,395.81s-42.48,11.19-44.19,11.77c-2.56.87-2.25,10.22,1.72,10.12,1.88-.05,32.51,1.54,36.38,1.35,3.87-.19,14.34-4.18,14.34-4.18l-8.26-19.06Z"/>
            <path class="cls-3" d="M268.63,411.75c-.21.03-.47-2.22-1.81-4.57-1.3-2.37-3.08-3.77-2.95-3.93.08-.16,2.16,1.06,3.56,3.59,1.42,2.52,1.37,4.93,1.19,4.91Z"/>
            <path class="cls-3" d="M273.07,409.8c-.21.03-.61-1.97-1.71-4.2-1.08-2.24-2.41-3.79-2.26-3.93.12-.14,1.76,1.27,2.89,3.62,1.16,2.35,1.26,4.5,1.08,4.51Z"/>
            <path class="cls-3" d="M277.22,408.74c-.21-.02-.02-2.13-.93-4.48-.87-2.37-2.41-3.84-2.26-3.99.09-.16,1.97,1.17,2.92,3.74.98,2.55.44,4.8.27,4.73Z"/>
            <path class="cls-3" d="M276.54,403.27c-.08.02-.44-1.17-.42-3.16.02-.99.14-2.17.47-3.45.16-.64.38-1.29.65-1.96.14-.33.3-.72.69-1.03.4-.35,1.12-.27,1.45.09.38.34.5.82.55,1.2.04.39.06.75.04,1.12-.02.73-.12,1.43-.29,2.07-.33,1.29-.85,2.37-1.34,3.22-1.01,1.71-1.87,2.57-1.93,2.53-.1-.07.63-1.05,1.49-2.76.43-.86.87-1.91,1.15-3.13.14-.61.22-1.26.23-1.93-.01-.65,0-1.46-.37-1.78-.2-.17-.38-.18-.56-.05-.19.14-.35.43-.47.73-.27.63-.49,1.25-.66,1.86-.35,1.21-.52,2.34-.6,3.3-.15,1.92.03,3.12-.09,3.13Z"/>
            <path class="cls-3" d="M276.6,402.84c-.02-.08,1.01-.42,2.74-.41.86,0,1.89.11,3,.41.55.15,1.13.3,1.72.66.58.3,1.17,1.11.93,1.95-.19.78-.87,1.33-1.54,1.49-.68.18-1.33.1-1.9-.03-1.16-.28-2.05-.86-2.73-1.39-1.34-1.08-2-1.9-1.94-1.96.08-.09.87.62,2.24,1.56.69.45,1.55.94,2.58,1.16.51.1,1.07.14,1.57,0,.5-.13.92-.51,1.04-.99.13-.47-.15-.91-.61-1.19-.45-.29-1.01-.46-1.53-.62-1.04-.31-2.02-.46-2.85-.53-1.66-.14-2.7.02-2.71-.09Z"/>
            <path class="cls-3" d="M262.12,412.12c-.21-.03.02-1.83-.79-3.83-.77-2.01-2.17-3.18-2.03-3.34.07-.17,1.83.85,2.69,3.08.89,2.22.3,4.17.13,4.09Z"/>
            <path class="cls-3" d="M291.64,414.44s-.57.31-1.65.75c-1.09.4-2.69.95-4.73,1.4-4.06.97-9.84,1.48-16.18,1.33-6.34-.15-12.06-.51-16.2-.73-1.96-.13-3.6-.24-4.9-.32-1.16-.09-1.8-.17-1.79-.21,0-.05.64-.07,1.81-.06,1.3.03,2.95.06,4.91.1,4.29.14,9.94.32,16.19.52,6.31.14,12.02-.28,16.07-1.11,4.06-.78,6.43-1.79,6.48-1.66Z"/>
            <path class="cls-3" d="M292.88,415.42c-.06.1-1.21-.59-3.15-1.48-1.92-.85-4.81-1.88-7.99-1.43-3.2.45-5.48,2.56-6.98,4.03-1.5,1.52-2.39,2.54-2.47,2.46-.06-.05.67-1.17,2.11-2.81.72-.81,1.64-1.75,2.84-2.59,1.18-.85,2.7-1.56,4.4-1.8,3.42-.48,6.41.7,8.31,1.68,1.93,1.02,2.98,1.86,2.94,1.93Z"/>
          </g>
          <path class="cls-3" d="M250.38,416.73c-.08-.05.29-.61.64-1.59.35-.97.63-2.42.36-3.97-.27-1.55-1.01-2.83-1.67-3.63-.65-.81-1.19-1.21-1.13-1.29.03-.06.66.23,1.44,1.02.77.77,1.64,2.11,1.93,3.8.29,1.69-.08,3.24-.55,4.23-.47,1-.96,1.48-1.02,1.44Z"/>
        </g>
      </g>
      <g>
        <g>
          <path class="cls-1" d="M284.51,230.81l-21.84,6.12,7.1,67.95s-4.08,24.26-4.08,30.64c0,8.28,6.45,11.39,6.45,11.39l69.77,2.11,3.57-3.09c1.83-2.15,2.68-4.98,2.33-7.78l-12.96-103.68-24.29-5.27-26.04,1.61Z"/>
          <path class="cls-3" d="M269.85,304.8s-.06-.17-.13-.51c-.08-.38-.17-.87-.29-1.49-.25-1.34-.59-3.2-1.01-5.48-.82-4.68-1.93-11.06-3.17-18.11-1.19-7.06-2.26-13.45-3.05-18.14-.37-2.29-.66-4.16-.88-5.51-.09-.62-.16-1.12-.22-1.5-.05-.34-.06-.53-.05-.53.01,0,.06.17.13.51.08.38.17.87.29,1.49.25,1.34.59,3.2,1.01,5.48.82,4.68,1.93,11.06,3.17,18.12,1.19,7.06,2.26,13.45,3.05,18.14.37,2.29.66,4.16.88,5.5.09.62.16,1.12.22,1.5.05.34.06.53.05.53Z"/>
          <path class="cls-3" d="M313.61,230.44s-.34.3-1,.8c-.34.24-.78.49-1.27.8-.52.26-1.1.61-1.79.89-1.35.6-3.04,1.16-4.96,1.55-1.92.39-4.07.6-6.32.66-2.25.05-4.4-.05-6.34-.2-1.94-.14-3.7-.35-5.14-.67-1.45-.32-2.58-.75-3.32-1.11-.37-.18-.65-.34-.84-.46-.18-.12-.28-.18-.27-.19.02-.03.42.19,1.17.51.76.31,1.88.69,3.31.97,1.43.28,3.17.46,5.11.58,1.94.13,4.07.22,6.31.16,2.23-.05,4.36-.26,6.26-.62,1.9-.36,3.57-.88,4.92-1.44,2.72-1.1,4.12-2.32,4.18-2.23Z"/>
          <path class="cls-3" d="M336.17,335.23s-.16.05-.47.1c-.36.05-.81.12-1.37.2-.6.09-1.33.18-2.18.25-.85.08-1.82.19-2.9.24-2.15.15-4.72.22-7.57.18-2.85-.07-5.98-.25-9.25-.63-3.27-.4-6.36-.96-9.14-1.56-2.78-.63-5.26-1.3-7.31-1.96-1.03-.3-1.95-.64-2.76-.92-.81-.27-1.5-.54-2.06-.76-.53-.21-.95-.38-1.29-.52-.29-.12-.44-.19-.44-.21,0-.01.17.03.47.13.34.12.78.26,1.31.44.57.2,1.26.44,2.08.69.81.26,1.73.57,2.77.86,2.06.62,4.54,1.26,7.31,1.87,2.78.59,5.86,1.13,9.11,1.53,3.26.38,6.37.58,9.21.66,2.84.06,5.4.02,7.54-.09,1.07-.03,2.04-.12,2.89-.18.85-.05,1.58-.12,2.18-.18.56-.05,1.02-.09,1.38-.12.32-.02.48-.03.49-.02Z"/>
          <path class="cls-3" d="M344.26,276.98s-.14-.33-.33-.94c-.19-.61-.44-1.51-.75-2.62-.6-2.22-1.38-5.3-2.14-8.72-.76-3.43-1.37-6.55-1.76-8.81-.2-1.13-.34-2.05-.43-2.69-.09-.64-.13-.99-.1-1,.03,0,.12.34.25.97.15.71.34,1.6.56,2.66.46,2.25,1.11,5.36,1.87,8.78.76,3.42,1.49,6.51,2.03,8.74.25,1.06.46,1.94.62,2.65.14.63.21.98.18.98Z"/>
        </g>
        <g>
          <g class="cls-4">
            <path d="M292.13,233.9c.87,3.04.06,7.46.49,10.18,1.72,10.88,2.54,21.94,1.75,32.93-.04.6-.09,1.22.11,1.78.18.52.55.94.89,1.38,2.21,2.92,2.78,6.83,2.33,10.46-.44,3.64-1.81,7.09-3.16,10.49-.08-2.93.08-7.32.31-10.25.05-.58.34-.21.36-.79.1-3.52-.49-6.78-2.96-9.29-.49-.5-1.06-.96-1.4-1.58-.31-.57-.4-1.23-.48-1.88-1.52-12.28-2.55-24.63-3.11-36.99-.03-.7-.04-1.47.4-2.02.35-.43.9-.63,1.36-.93.95-.62,1.54-1.73,2.56-2.21"/>
          </g>
          <path class="cls-1" d="M262.67,236.94s-19.94,4.7-15.11,34.59c1.7,10.51,4.97,26.12,11.9,42.44,3.27,7.69,10.67,12.98,18.95,11.9,3.62-.47,7.2.1,9.63-1.36,3.68-2.22,5.28-9.7,5.97-17.76.47-5.49.27-11.22,1-15.91,1.19-7.66-2.33-11.27-6.82-12.16l-17.63-3.51-1.01,9.32-6.89-47.54Z"/>
          <path class="cls-3" d="M276.71,296.42s.33.36,1.02.87c.67.51,1.79,1.11,3.29,1.31,1.49.22,3.33-.04,5.22-.74,1.88-.71,3.96-1.67,5.63-3.25,1.66-1.58,2.63-3.67,2.93-5.64.31-1.98-.05-3.8-.63-5.2-1.2-2.83-2.92-3.95-2.8-4.05.02-.03.45.21,1.1.81.64.6,1.49,1.59,2.16,3.05.67,1.44,1.11,3.38.81,5.49-.28,2.1-1.29,4.35-3.08,6.05-1.8,1.69-3.95,2.64-5.9,3.35-1.97.69-3.93.92-5.51.62-1.59-.28-2.74-.99-3.39-1.59-.66-.6-.87-1.07-.84-1.08Z"/>
          <path class="cls-3" d="M258.39,311.34c.06-.02.37.94,1.19,2.56.81,1.61,2.22,3.86,4.54,6.1,2.3,2.23,5.63,4.38,9.76,5.4,4.09,1.02,9.01.93,13.51-.95,2.26-.91,3.07-3.42,3.94-5.52.8-2.17,1.32-4.36,1.68-6.47.72-4.22.88-8.1,1.13-11.34.23-3.17.42-5.77.56-7.69.08-.84.14-1.53.19-2.09.05-.48.09-.73.11-.73.02,0,.03.25.03.73-.02.56-.03,1.25-.06,2.1-.08,1.92-.2,4.53-.34,7.7-.18,3.25-.29,7.14-.98,11.42-.34,2.14-.87,4.37-1.67,6.6-.42,1.11-.87,2.22-1.49,3.31-.59,1.09-1.6,2.1-2.8,2.6-4.71,1.97-9.74,2.02-13.96.94-4.25-1.08-7.64-3.34-9.95-5.67-2.33-2.34-3.69-4.67-4.44-6.34-.39-.83-.62-1.5-.77-1.96-.14-.46-.2-.7-.18-.71Z"/>
          <path class="cls-3" d="M265.03,298.38c-.1,0-.07-1.38.04-3.59.12-2.21.33-5.26.6-8.63.15-1.69.26-3.28.44-4.75.18-1.47.61-2.83,1.36-3.75.73-.92,1.63-1.36,2.26-1.48.64-.13.99,0,.99.03,0,.06-.35.03-.92.23-.56.19-1.32.65-1.93,1.51-1.31,1.73-1.15,4.92-1.49,8.26-.28,3.37-.56,6.41-.81,8.61-.24,2.2-.44,3.56-.54,3.55Z"/>
          <path class="cls-3" d="M271.26,266.63c-.18-.95-.46-2.31-.82-4-.72-3.37-1.76-8.01-2.96-13.13-.61-2.55-1.13-5.01-1.89-7.19-.75-2.18-1.77-4.04-2.92-5.37l-.39.31c1.06,1.32,1.99,3.13,2.69,5.27.71,2.13,1.22,4.58,1.82,7.14,1.19,5.12,2.31,9.75,3.16,13.09.42,1.67.78,3.02,1.04,3.95.26.93.43,1.44.47,1.43.05-.01-.03-.54-.21-1.49Z"/>
          <g class="cls-4">
            <path d="M271.44,273.06c-1.6-.05-3.15.62-4.49,1.52-2.91,1.95-5.01,5.03-5.94,8.4-.93,3.38-.71,7.04.46,10.34.36,1.03,1.07,2.2,2.16,2.15,1.28-.05,1.8-1.65,1.98-2.92.49-3.52.99-7.04,1.48-10.57.17-1.2.35-2.43.94-3.48.59-1.06,1.7-1.91,2.9-1.85.11-1.25.22-2.51.33-3.76"/>
          </g>
        </g>
        <g>
          <path class="cls-1" d="M390.13,289.14s3.73-5.59,4.12-13.83-1.96-15.21-1.96-15.21l-21.19-6.57-.13,7.07,19.16,28.53Z"/>
          <path class="cls-1" d="M370.97,260.6l-36.14-26.14v1.81l3.9,40.69s29.87,13.38,37.79,15.35,13.6-3.18,13.6-3.18l-19.16-28.53Z"/>
          <path class="cls-3" d="M381.69,280.36s-.31-.11-.82-.43c-.5-.32-1.2-.83-1.99-1.55-1.59-1.43-3.42-3.8-4.83-6.74-1.4-2.94-2.21-5.77-2.75-7.81-.27-1.02-.46-1.86-.59-2.44s-.18-.9-.14-.91c.07-.02.46,1.23,1.08,3.25.63,2.01,1.49,4.8,2.87,7.69,1.38,2.89,3.12,5.23,4.61,6.7,1.48,1.48,2.6,2.17,2.55,2.25Z"/>
          <path class="cls-3" d="M392.19,265.22s-.33.04-.94.01c-.6-.02-1.47-.11-2.53-.28-2.13-.33-5.04-1.09-8.03-2.47-2.99-1.39-5.45-3.13-7.07-4.54-.81-.7-1.44-1.31-1.84-1.76-.41-.44-.62-.7-.59-.72.06-.06,1,.87,2.67,2.2,1.67,1.32,4.11,2.98,7.06,4.35,2.95,1.36,5.79,2.16,7.88,2.58,2.09.42,3.41.54,3.4.63Z"/>
          <path class="cls-3" d="M372.57,276.97s-.58-.78-1.12-2.24c-.55-1.45-1.04-3.57-1.2-5.93-.17-2.36-.06-4.5.05-6.04.12-1.54.24-2.48.31-2.48.07,0,.08.96.06,2.49-.02,1.54-.06,3.66.1,5.98.16,2.32.58,4.39,1.03,5.85.45,1.46.85,2.32.77,2.36Z"/>
        </g>
        <path class="cls-3" d="M334.29,250.09s.17.39.38,1.11c.21.72.49,1.77.82,3.07.66,2.6,1.52,6.21,2.36,10.21.84,4.01,1.5,7.65,1.94,10.3.22,1.32.38,2.4.48,3.14.1.74.13,1.16.1,1.16-.04,0-.14-.4-.3-1.13-.17-.84-.39-1.88-.64-3.11-.56-2.74-1.28-6.31-2.09-10.26-.85-3.94-1.61-7.5-2.2-10.23-.26-1.23-.48-2.26-.66-3.11-.15-.74-.21-1.15-.18-1.15Z"/>
      </g>
      <g>
        <path class="cls-11" d="M270.35,278.83l4.43-49,14.67,5.79,1.89,49.84s-4.7,7.11-12.63,4.19c-7.93-2.92-8.36-10.82-8.36-10.82Z"/>
        <polygon class="cls-3" points="273.21 186.93 300.65 211.06 295.68 229.08 293.69 229.67 269.7 205.12 271.22 187.52 273.21 186.93"/>
        <polygon class="cls-9" points="271.22 187.52 298.65 211.65 293.69 229.67 267.71 205.71 271.22 187.52"/>
        <path class="cls-11" d="M290.08,237.2s2.82-2.96,2.76-6.74c-.06-3.69-1.08-12.58-1.08-12.58,0,0,4.77-10.03,4.65-11.37s-.34-1.31-2.05-.78c-1.71.54-7.02,9.68-7.02,9.68l-1.74-6.78s4.42-7.12,4.77-8.11c.35-.99.94-1.81-.17-1.91s-9.41,7.95-9.41,7.95l.67,7.43s-.17.59-1.36-.45c-1.19-1.05-.89-9.91-.89-9.91,0,0,2.83-5.25,2.76-6.01-.07-.76.52-1.58-.04-2.88-.56-1.29-2.18.2-2.18.2l-5.51,7.22-1.96-7.14s.08-1.52-1.9-1.54l.77,23.17,5.02,17.83,13.93,2.71Z"/>
        <path class="cls-8" d="M291.35,285.47s-.04-.3-.08-.87c-.03-.61-.08-1.46-.14-2.55-.1-2.28-.25-5.56-.43-9.73-.34-8.44-.81-20.48-1.39-35.06v-.14s.11-.1.11-.1c1.12-.96,2.08-2.28,2.65-3.75.6-1.48.66-3.12.55-4.82-.17-3.39-.6-6.92-1.07-10.53v-.1s.03-.09.03-.09c.9-1.91,1.79-3.87,2.67-5.89.43-1.01.87-2.03,1.26-3.07.2-.52.39-1.04.54-1.57l.1-.39c.01-.12.03-.2.03-.32-.02-.27-.07-.56-.14-.7.05-.16-.7,0-1.19.17-.32.09-.44.16-.65.33-.2.16-.4.35-.58.56-.75.83-1.43,1.78-2.09,2.73-1.32,1.92-2.57,3.94-3.78,5.99l-.43.73-.21-.82c-.55-2.15-1.14-4.46-1.74-6.78l-.04-.14.08-.13c.71-1.16,1.47-2.41,2.24-3.66.85-1.44,1.79-2.93,2.48-4.35.14-.4.34-.81.43-1.14.05-.18.02-.26.02-.25,0-.02-.22-.1-.33-.06-.04,0-.24.1-.4.2-.16.09-.33.22-.5.33-.33.24-.65.49-.97.75-2.54,2.09-4.92,4.34-7.24,6.56l.1-.28c.22,2.51.45,4.99.66,7.43v.07s-.01.05-.01.05c-.12.36-.46.43-.66.41-.21-.02-.34-.09-.48-.15-.26-.14-.47-.3-.67-.47-.5-.45-.59-1.03-.72-1.51-.21-1-.27-1.99-.33-2.97-.1-1.96-.1-3.88-.04-5.78v-.07s.04-.07.04-.07c.96-1.84,1.98-3.7,2.66-5.53.03-.11.06-.23.06-.27,0-.08,0-.29.01-.41.03-.28.09-.53.13-.77.09-.47.09-.91-.05-1.34-.15-.49-.3-.68-.67-.62-.37.07-.79.35-1.12.63l.04-.04c-1.92,2.5-3.75,4.9-5.52,7.21l-.36.47-.15-.57c-.67-2.47-1.32-4.86-1.95-7.15v-.04s0-.05,0-.05c0-.37-.2-.77-.5-.96-.31-.21-.72-.29-1.13-.29l.27-.27c.27,9.43.5,17.25.67,23.18v-.04c1.09,4.26,1.94,7.55,2.53,9.82.27,1.09.48,1.93.63,2.54.14.57.18.87.18.87,0,0-.11-.28-.27-.85-.17-.6-.41-1.44-.72-2.52-.62-2.26-1.52-5.54-2.69-9.78v-.02s0-.02,0-.02c-.22-5.93-.51-13.75-.86-23.17v-.28s.27,0,.27,0c.47,0,.97.08,1.43.38.45.31.75.83.74,1.44v-.09c.63,2.29,1.29,4.67,1.97,7.14l-.51-.1c1.76-2.31,3.59-4.72,5.49-7.23l.02-.03h.02c.41-.36.83-.67,1.43-.8.29-.06.7,0,.96.26.26.26.34.54.43.79.18.52.17,1.12.07,1.63-.05.26-.1.5-.13.72-.02.13,0,.17,0,.34,0,.21-.06.33-.09.47-.73,1.98-1.72,3.77-2.69,5.65l.04-.14c-.05,1.88-.05,3.79.06,5.72.06.96.13,1.93.33,2.86.11.46.22.91.49,1.14.18.15.37.29.55.38.09.04.18.08.22.08h.02s.02.06.02.07v.02s.02,0,.02,0h.02s.04.03.04.03h.01c.16.07-.21-.08-.17-.06v.02s-.02.12-.02.12c-.22-2.44-.45-4.92-.67-7.43v-.17s.1-.11.1-.11c2.33-2.23,4.7-4.48,7.29-6.61.32-.26.66-.52,1.01-.77.18-.12.34-.25.54-.36.21-.1.36-.24.74-.3.29-.01.52.01.84.26.32.32.23.73.17.93-.14.47-.32.82-.46,1.21-.78,1.61-1.67,2.98-2.54,4.46-.77,1.26-1.53,2.51-2.25,3.67l.04-.27c.6,2.33,1.19,4.63,1.74,6.78l-.64-.09c1.22-2.07,2.47-4.09,3.81-6.04.68-.97,1.35-1.92,2.16-2.81.2-.22.41-.44.66-.64.22-.2.64-.39.87-.45.28-.08.56-.17.87-.23.15-.03.33-.05.54-.02.22.02.49.21.58.41.18.38.18.67.22.96,0,.16-.02.36-.04.52l-.11.44c-.16.56-.36,1.1-.56,1.63-.41,1.05-.84,2.08-1.28,3.09-.88,2.02-1.78,3.99-2.69,5.91l.03-.19c.47,3.63.88,7.16,1.04,10.59.1,1.7.04,3.49-.61,5.07-.63,1.58-1.61,2.93-2.86,3.99l.11-.24c.48,14.58.87,26.63,1.14,35.07.12,4.17.21,7.46.27,9.73.02,1.09.04,1.94.05,2.56,0,.58-.01.88-.01.88Z"/>
        <path class="cls-8" d="M275.37,214.74c-.19.02-.57-2.82-.85-6.33-.28-3.52-.34-6.38-.15-6.39.19,0,.58,2.83.85,6.34.28,3.51.34,6.37.15,6.39Z"/>
      </g>
    </g>
  </g>
  <g id="Character_1">
    <g>
      <path class="cls-2" d="M238.25,222.95l-15.67-31.67c8.7-18.88,12.47-40.32,9.79-62.48-7.69-63.71-65.57-109.13-129.28-101.44C39.39,35.06-6.03,92.94,1.66,156.65c7.69,63.71,65.57,109.13,129.28,101.44,26.6-3.21,49.99-15.19,67.68-32.68l-.03.06,39.66-2.51Z"/>
      <path class="cls-3" d="M238.25,222.95c-.81.05-13.89.92-39.65,2.63h-.22s.11-.17.11-.17c0-.02.02-.04.03-.06l.18.14c-2.74,2.63-5.71,5.43-9.12,8.11-1.66,1.4-3.49,2.68-5.33,4.05-1.9,1.29-3.82,2.66-5.9,3.91-8.19,5.16-17.96,9.73-29.08,12.97-11.11,3.27-23.63,4.94-36.9,4.5-13.26-.48-27.27-3.39-40.88-9.17-13.6-5.77-26.76-14.49-38-26.03-11.27-11.49-20.44-25.92-26.21-42.15C1.49,165.48-.72,147.42,1.34,129.39c.19-2.26.63-4.5.96-6.75.38-2.25.9-4.48,1.37-6.72,1.13-4.44,2.36-8.9,4.01-13.23,1.54-4.37,3.5-8.61,5.56-12.81,2.19-4.13,4.49-8.24,7.17-12.13,2.65-4.04,5.66-7.8,8.74-11.45l2.41-2.65,1.2-1.32,1.26-1.26,2.52-2.52,2.63-2.4c7.01-6.38,14.79-11.74,22.95-16.12,2.02-1.15,4.13-2.09,6.2-3.09,2.08-.99,4.23-1.81,6.33-2.71,2.16-.75,4.28-1.61,6.46-2.27,2.18-.65,4.33-1.39,6.53-1.89,8.75-2.26,17.63-3.48,26.41-3.73,17.57-.51,34.62,3.17,49.61,9.73,15.03,6.55,27.97,16.07,38.22,27.01,10.28,10.94,17.91,23.28,22.9,35.72,2.52,6.22,4.41,12.45,5.8,18.57.3,1.54.61,3.06.9,4.57.32,1.51.47,3.03.71,4.52.11.75.22,1.49.33,2.23.08.74.15,1.49.23,2.22.17,1.47.28,2.94.36,4.39.75,11.61-.31,22.34-2.34,31.75-1.02,4.71-2.25,9.1-3.64,13.15-1.4,4.05-2.93,7.75-4.47,11.14v-.09c10.09,20.55,15.23,31.03,15.57,31.72-.34-.69-5.55-11.13-15.76-31.62l-.02-.05.02-.05c1.53-3.38,3.04-7.09,4.43-11.13,1.37-4.05,2.6-8.43,3.6-13.13,2-9.39,3.04-20.1,2.27-31.67-.09-1.45-.2-2.91-.37-4.37-.08-.73-.16-1.47-.23-2.22-.11-.74-.22-1.48-.33-2.23-.24-1.49-.39-3-.71-4.51-.3-1.51-.6-3.03-.91-4.56-1.39-6.1-3.29-12.3-5.81-18.5-4.99-12.39-12.61-24.68-22.86-35.56-10.22-10.88-23.12-20.36-38.09-26.87-14.93-6.52-31.91-10.18-49.4-9.66-8.74.25-17.59,1.47-26.3,3.72-2.2.5-4.33,1.24-6.5,1.88-2.16.66-4.28,1.51-6.43,2.27-2.09.9-4.23,1.71-6.3,2.7-2.06,1-4.17,1.94-6.17,3.08-8.13,4.36-15.87,9.7-22.85,16.05l-2.61,2.39-2.51,2.51-1.26,1.26-1.2,1.32-2.4,2.64c-3.07,3.64-6.07,7.38-8.71,11.4-2.67,3.87-4.97,7.96-7.14,12.07-2.05,4.18-4.01,8.39-5.54,12.75-1.64,4.31-2.87,8.75-3.99,13.17-.46,2.23-.99,4.45-1.36,6.69-.33,2.25-.77,4.47-.96,6.72-2.05,17.96.15,35.93,5.91,52.07,5.73,16.16,14.85,30.54,26.07,41.98,11.19,11.5,24.29,20.19,37.83,25.96,13.55,5.77,27.51,8.68,40.73,9.18,13.22.45,25.71-1.19,36.79-4.43,11.09-3.21,20.84-7.75,29.02-12.88,2.07-1.24,4-2.6,5.89-3.89,1.83-1.37,3.67-2.64,5.33-4.03,3.41-2.66,6.38-5.45,9.12-8.07l.6-.57-.42.71s-.02.04-.03.06l-.11-.17c25.77-1.56,38.86-2.35,39.67-2.4Z"/>
    </g>
    <path class="cls-9" d="M57.26,242.69l119.76-.19s-28.63,18.97-63.02,16.73c-29.88-1.95-56.74-16.54-56.74-16.54Z"/>
    <g>
      <g>
        <path class="cls-2" d="M109.69,162.35l6.83,24.99,24.95-33.69-5.87,88.34h-35.62l-10.39.5s1.54-13.92,2.17-21.78c.12-1.5.64-10.25,3.16-18.51,5.31-17.34,14.76-39.84,14.76-39.84Z"/>
        <path class="cls-3" d="M117.74,201.45c.09.11-3.94,3.36-8.99,7.24-5.05,3.89-9.22,6.94-9.3,6.83-.09-.11,3.93-3.36,8.99-7.24,5.05-3.89,9.22-6.94,9.3-6.83Z"/>
      </g>
      <g>
        <polygon class="cls-1" points="179.75 150.17 160.35 140.84 152.74 131.79 141.98 142.98 113.44 241.75 162.38 241.75 168.65 224.8 179.75 159.36 179.75 150.17"/>
        <path class="cls-1" d="M92.44,243.18l-1.31-20.96,59.12-10.02s10.1-48.78,16.32-56.78c5.74-7.38,13.23-4.82,13.23-4.82,0,0,6.75,4.62,5.13,22.31-.84,9.26-4.23,41.39-5.46,52.99-.29,2.78-1.21,5.46-2.69,7.83h0c-3.38,5.44-9.33,8.74-15.73,8.74l-68.6.69Z"/>
        <path class="cls-3" d="M159.9,224.38c-.09,0-.17-.93-.6-2.36-.42-1.43-1.27-3.35-2.73-5.09-1.47-1.74-3.22-2.9-4.56-3.56-1.34-.67-2.25-.91-2.23-.99.01-.06.96.06,2.38.66,1.41.59,3.27,1.74,4.8,3.55,1.53,1.81,2.35,3.84,2.69,5.33.35,1.5.3,2.46.24,2.46Z"/>
        <g class="cls-12">
          <path d="M158.83,142.26c-.56,6.17-1.74,12.28-3.52,18.21-1.48-.43-2.96-.87-4.45-1.3,1.83,2.61,2.05,6.08,1.33,9.19-.72,3.11-2.29,5.94-3.84,8.72-7.35,13.21-14.71,26.42-22.06,39.63l22.24-50.5-.58-9.33,4.28-.92,6.6-13.7Z"/>
        </g>
        <g class="cls-12">
          <path d="M150.06,211.62c2.69-.16,5.42.64,7.61,2.22,2.18,1.58,3.79,3.93,4.49,6.53.17.62.28,1.3.04,1.9-.24.6-.95,1.05-1.54.79-.45-.2-.67-.7-.87-1.15-1.93-4.41-5.74-7.96-10.28-9.58"/>
        </g>
        <path class="cls-3" d="M126.44,216.24s.09-.29.3-.81c.24-.56.55-1.33.95-2.28.87-2.02,2.09-4.86,3.6-8.36,3.1-7.08,7.35-16.78,12.05-27.49,1.72-3.89,3.39-7.65,4.95-11.18l-.02.12c-.2-3.32-.38-6.45-.55-9.34v-.19s.18-.04.18-.04c1.51-.32,2.93-.61,4.29-.9l-.14.11c2.22-4.49,4.04-8.17,5.33-10.79.63-1.24,1.13-2.23,1.49-2.95.16-.31.3-.56.4-.76.09-.17.15-.26.16-.25,0,0-.03.1-.1.28-.09.21-.21.47-.35.79-.34.73-.81,1.73-1.39,3-1.25,2.63-3.02,6.34-5.17,10.86l-.04.09-.1.02c-1.35.29-2.77.61-4.28.93l.18-.23c.19,2.89.39,6.02.6,9.33v.06s-.02.06-.02.06c-1.55,3.53-3.21,7.29-4.93,11.19-4.75,10.69-9.05,20.37-12.19,27.43-1.57,3.47-2.84,6.29-3.75,8.29-.44.94-.79,1.69-1.04,2.24-.24.51-.38.78-.4.77Z"/>
        <path class="cls-3" d="M92.4,242.49s-.03-.12-.05-.35c-.02-.26-.05-.6-.09-1.02-.07-.94-.16-2.26-.29-3.94-.23-3.46-.56-8.4-.96-14.5v-.17s.15-.03.15-.03c11.1-2.04,26.18-4.81,42.76-7.86,5.48-.99,10.8-1.96,15.77-2.86l-.2.18c3.47-13.17,6.47-24.6,8.63-32.77,1.08-4.04,1.95-7.28,2.56-9.54.3-1.09.54-1.94.71-2.55.08-.27.14-.48.19-.66.05-.15.07-.22.08-.22,0,0,0,.08-.04.23-.04.17-.09.39-.15.67-.15.62-.36,1.47-.63,2.57-.57,2.27-1.39,5.52-2.42,9.57-2.11,8.19-5.05,19.63-8.45,32.82l-.04.16-.16.03c-4.97.91-10.28,1.88-15.76,2.88-16.6,2.99-31.68,5.71-42.79,7.72l.15-.2c.33,6.1.6,11.05.79,14.51.08,1.69.14,3.01.19,3.95.01.43.03.77.04,1.03,0,.23,0,.35,0,.35Z"/>
      </g>
      <path class="cls-3" d="M176.77,148.53c.02.09-.99.24-2.5.8-1.51.55-3.5,1.62-5.29,3.29-1.79,1.68-2.98,3.6-3.63,5.07-.66,1.47-.87,2.46-.97,2.44-.04,0,0-.26.08-.71.07-.46.26-1.1.55-1.87.58-1.54,1.77-3.57,3.62-5.31,1.86-1.73,3.95-2.78,5.53-3.26.79-.24,1.44-.38,1.9-.43.46-.05.71-.06.72-.03Z"/>
      <g>
        <path class="cls-10" d="M65,126.31c1.75-3.23.98-16.27,3.68-15.81,3.44.59.26,14.29.05,15.54-.21,1.21,1.59,1.56,1.72.42.19-1.63,2.2-17.58,5.59-16.68,1.88.5,1.01,3.93,1.01,3.93,0,0-2.92,15.46-1.3,15.83,1.64.38,2.85-8.54,3.57-11.79.69-3.11,2.71-4.45,3.48-2.81,1.13,2.4-1.04,10.19-1.68,13.31-.64,3.12-2.26,12.17,2.13,8.63,4.39-3.53,9.06-4.64,10.51-4.08,1.45.57,1.14,2.8-.55,3.24-1.36.36-3.46,1.65-5,2.68-1.27.85-2.27,2-3.32,3.12-.75.79-2.05,2.42-3.14,4.88-1.25,2.85-3.7,5.01-6.67,5.97h0l-2.56,12.18-16.58-3.55,3.7-12.89c1.34-8.46.6-19.84.61-25.02.02-8.25,1.09-8.32,2.04-8.1,2.1.48.97,14.13,2.68,10.98Z"/>
        <path class="cls-15" d="M64.54,137.39c-.02.08.92.25,2.2,1.03,1.27.76,2.87,2.26,3.74,4.42.24.58.39,1.17.5,1.74l.06.28.24-.14c1.6-.94,3.17-1.4,4.29-1.62,1.13-.22,1.83-.24,1.83-.3,0-.04-.7-.11-1.87.04-1.16.15-2.79.58-4.45,1.53l.29.14c-.11-.6-.27-1.23-.51-1.83-.45-1.13-1.12-2.09-1.82-2.85-.71-.75-1.48-1.3-2.15-1.67-.68-.38-1.28-.56-1.69-.68-.42-.09-.65-.12-.66-.09Z"/>
        <path class="cls-15" d="M62.33,148.99c-.06.08,1.58,1.16,3.87,1.87,2.29.72,4.24.76,4.25.66.01-.12-1.89-.34-4.13-1.04-2.24-.69-3.93-1.59-3.99-1.49Z"/>
      </g>
      <polygon class="cls-10" points="122.36 136.99 109.69 162.35 116.53 187.34 134.71 168.12 152.64 134.81 122.36 136.99"/>
      <g>
        <path class="cls-1" d="M110.44,139.37s-18,6.4-18,7.59c0,0,0,0,0,0-3.18,2.5-13.77,28.1-17.14,32.94l-9.63,14.19h0s0,0,0,0l8.08-31.53-17.77-5.23s-15.18,36.68-17.02,44.83c-1.84,8.16.29,14.63.29,14.63l.1-.08c1.29,3.95,3.79,7.12,6.66,8.95,7.54,4.83,14.57,5.74,21.77.42,4.08-3.02,8.74-6.65,13.01-10.05l1.12,26.48h9.81c0-1.49-.3-19.63-.3-19.63,0,0,2.08-6.84,2.97-13.09s15.51-47.23,15.51-47.23l11.35-21.86.26-8.09-11.07,6.74Z"/>
        <path class="cls-3" d="M81.69,242.29s-.05-.28-.08-.82c-.04-.59-.09-1.38-.15-2.37-.11-2.11-.26-5.1-.45-8.78-.34-7.48-.8-17.8-1.32-29.35v-.03s0-.03,0-.03c.21-1.09.44-2.26.66-3.44,2.38-12.14,4.53-23.14,6.1-31.15.8-3.95,1.45-7.15,1.91-9.43.23-1.08.41-1.93.54-2.56.06-.27.11-.48.15-.66.04-.15.06-.22.07-.22s0,.08-.02.23c-.03.18-.06.4-.1.67-.11.63-.26,1.49-.45,2.58-.42,2.28-1.01,5.5-1.75,9.46-1.53,8.02-3.63,19.02-5.95,31.18-.23,1.18-.45,2.34-.67,3.44v-.06c.46,11.56.87,21.88,1.16,29.36.12,3.69.22,6.67.29,8.79.02,1,.04,1.79.05,2.38,0,.54,0,.83-.02.83Z"/>
        <path class="cls-3" d="M91.75,218.79s.01-.29.09-.83c.09-.59.21-1.37.36-2.36.34-2.1.82-5.05,1.41-8.68,1.25-7.36,2.97-17.45,4.86-28.59,1.27-7.29,2.46-14.13,3.48-19.96v-.03s.02-.02.02-.02c2.5-5.66,4.58-10.39,6.07-13.77.73-1.62,1.31-2.91,1.74-3.85.19-.41.35-.74.47-1.01.11-.23.17-.34.18-.34s-.03.13-.12.36c-.11.27-.24.61-.41,1.03-.39.95-.94,2.25-1.62,3.9-1.44,3.39-3.47,8.15-5.9,13.84l.02-.05c-1,5.83-2.17,12.67-3.41,19.97-1.95,11.13-3.72,21.21-5.01,28.56-.66,3.61-1.2,6.55-1.58,8.65-.19.98-.34,1.76-.45,2.35-.11.54-.18.82-.19.81Z"/>
        <path class="cls-3" d="M57.26,215.85c-.07-.05.7-1.15,1.78-3.03,1.08-1.87,2.43-4.55,3.61-7.64,1.18-3.09,1.98-5.97,2.48-8.08.5-2.11.73-3.43.81-3.42.04,0,.02.34-.05.95-.06.61-.2,1.48-.4,2.55-.41,2.14-1.16,5.08-2.35,8.19-1.19,3.11-2.61,5.8-3.78,7.64-.58.92-1.09,1.65-1.47,2.13-.38.48-.6.74-.63.72Z"/>
        <g class="cls-12">
          <path d="M58.62,214.39c-.67.06-1.05.94-.76,1.55.29.61,1.05.89,1.72.79.67-.1,1.25-.5,1.75-.96,1.53-1.4,2.43-3.36,3.06-5.34,1.52-4.82,1.59-9.96,1.65-15.01-1.41,6.58-3.92,12.92-7.38,18.68"/>
        </g>
        <g class="cls-12">
          <path d="M80.48,216.74c-3.05-4.84-4.03-10.5-3.63-16.21.54-7.7,4.28-14.73,7.07-21.92-1.61,7.56-2.52,15.07-3.98,22.34,0,0,.78,10.8.8,15.6"/>
        </g>
        <g class="cls-12">
          <path d="M92.9,211.92c.78-11.52,1.57-23.06,3.6-34.42,2.04-11.36,5.99-23.14,11.6-33.23-1.45,4.56-5.92,14.15-5.92,14.15,0,0-6.46,34.02-9.25,51.15"/>
        </g>
      </g>
      <g>
        <path class="cls-10" d="M91.45,225.16l1.61,17.86-8.43-.03c-.22,0-3.67-.06-7.46-.12-2.79.36-7.22.37-8.56.23-.24-.02-.38-.06-.4-.09,0,0-.64-.08-1.3-.31-.02,0-.04,0-.04,0h0c-.76-.29-1.55-.78-1.43-1.62.37-2.56,1.89-2.77,1.89-2.77,0,0,.29-.02.76-.05l.06-.22c-1.16,0-2.13-.03-2.65-.08-.24-.02-.38-.06-.4-.09,0,0-2.99-.35-2.76-1.94.37-2.56,1.89-2.77,1.89-2.77,0,0,1.03-.07,2.46-.17-1.2,0-2.21-.03-2.74-.08-.24-.03-.38-.06-.4-.09,0,0-2.99-.35-2.76-1.94.37-2.56,1.89-2.77,1.89-2.77,0,0,.83-.06,2.04-.14-.97,0-1.77-.04-2.22-.08-.24-.03-.38-.06-.4-.09,0,0-2.99-.35-2.76-1.94.37-2.56,1.89-2.77,1.89-2.77,0,0,4.71-.34,7.93-.47,0,0,3.66-3.3,5.11-3.15,2.16.23,14.7,4.86,14.7,4.86l2.45.83Z"/>
        <g>
          <path class="cls-15" d="M75.62,237.78c-.01.15-1.88.33-4.18.4-2.3.07-4.15.01-4.14-.13.01-.15,1.88-.33,4.18-.4,2.3-.07,4.15-.01,4.14.13Z"/>
          <path class="cls-15" d="M75.65,232.71c0,.15-2.66.36-5.94.48-3.29.12-5.96.09-5.96-.06,0-.15,2.66-.36,5.94-.48,3.29-.12,5.96-.09,5.96.06Z"/>
          <g class="cls-6">
            <path class="cls-15" d="M75.23,227.57c0,.15-2.66.36-5.94.48-3.29.12-5.96.09-5.96-.06,0-.15,2.66-.36,5.94-.48,3.29-.12,5.96-.09,5.96.06Z"/>
          </g>
        </g>
        <path class="cls-15" d="M67.85,222.73c0,.06.73.11,1.89.15,1.34.04,2.88.09,4.57.15,1.69.06,3.23.12,4.57.16,1.17.04,1.9.04,1.9-.02,0-.06-.71-.17-1.88-.29-1.17-.12-2.78-.23-4.57-.29-1.79-.06-3.41-.06-4.58-.02-1.17.04-1.9.1-1.9.16Z"/>
      </g>
      <g>
        <path class="cls-3" d="M160.93,77.26c2.12-5.15,8.83-7.5,14.06-5.58s8.73,7.29,9.36,12.82c.31,2.72-.03,5.63-1.6,7.88-1.65,2.37-4.47,3.72-7.33,4.12-5.1.72-10.51-1.51-13.63-5.6-3.12-4.1-3.84-9.9-1.8-14.63"/>
        <path class="cls-9" d="M182.22,77.94s-.1.27-.38.68c-.28.42-.72.99-1.34,1.64-1.23,1.3-3.27,2.85-5.89,3.75-2.62.9-5.18.93-6.95.66-.89-.13-1.59-.31-2.07-.47-.48-.16-.73-.28-.72-.31.02-.09,1.08.25,2.83.41,1.74.17,4.21.08,6.74-.79,2.53-.87,4.53-2.31,5.8-3.52,1.28-1.2,1.91-2.12,1.98-2.06Z"/>
        <path class="cls-9" d="M184.44,83.82s-.18.22-.57.54c-.39.33-.98.76-1.74,1.25-1.52.97-3.78,2.16-6.52,2.74-1.37.28-2.7.36-3.91.31-1.21-.07-2.28-.27-3.16-.52-.87-.26-1.56-.52-2.01-.75-.46-.22-.7-.36-.68-.39.04-.09,1.06.38,2.79.79.87.2,1.91.36,3.08.4,1.17.02,2.46-.07,3.78-.34,2.65-.56,4.89-1.66,6.44-2.54,1.55-.9,2.45-1.55,2.5-1.48Z"/>
        <path class="cls-3" d="M106.85,92.65c-12.38-27.23,17.07-40.9,33.13-36.37,15.1,4.26,21.54,11.78,24.02,21.88,2.49,10.1,2.37,21.05-1.59,30.67-1.95,4.74-5.47,9.57-10.56,10.16"/>
        <path class="cls-10" d="M121.64,159.94c-.21-13.01-.36-30.88-.37-30.8,0,0-11.18-1.86-13.5-16.45-1.15-7.26-.79-19.15-.18-28.87.55-8.75,6.35-19.49,15.07-18.57l27.23,6.88c2.65.28,4.64,2.54,4.59,5.2h0l-1.77,56.32"/>
        <path class="cls-3" d="M114.27,94.18c-.05.98.75,1.83,1.77,1.9,1.02.07,1.89-.67,1.94-1.65.05-.98-.75-1.83-1.77-1.9-1.02-.07-1.89.67-1.94,1.66Z"/>
        <path class="cls-3" d="M134.45,94.18c-.05.98.75,1.83,1.77,1.9,1.02.07,1.89-.67,1.94-1.65.05-.98-.75-1.83-1.77-1.9-1.02-.07-1.89.67-1.94,1.66Z"/>
        <path class="cls-3" d="M122.37,104.51c0-.11-1.24-.33-3.27-.59-.51-.05-1-.16-1.09-.51-.12-.37.09-.93.34-1.52.48-1.24.99-2.55,1.52-3.91,2.11-5.57,3.64-10.16,3.41-10.24-.22-.08-2.12,4.37-4.23,9.94-.51,1.37-.99,2.68-1.46,3.94-.19.58-.53,1.25-.27,2.02.14.38.52.66.85.75.33.1.62.11.87.12,2.04.11,3.31.12,3.31,0Z"/>
        <path class="cls-15" d="M121.24,129.2s9.81.63,19.54-5.21c0,0-4.94,10.15-19.54,8.78v-3.57Z"/>
        <path class="cls-10" d="M151.7,95.74c.21-.1,7.81-3.46,7.9,5.27.09,8.73-8.7,7.02-8.72,6.77-.02-.25.82-12.04.82-12.04Z"/>
        <path class="cls-15" d="M153.52,104.45s.15.1.41.22c.25.11.68.19,1.14.01.92-.35,1.68-1.82,1.71-3.4.01-.8-.16-1.55-.45-2.17-.27-.64-.69-1.08-1.16-1.16-.46-.1-.79.18-.89.43-.11.25-.06.42-.1.43-.02.02-.19-.14-.12-.51.03-.17.13-.38.34-.55.21-.17.52-.26.84-.23.67.04,1.29.65,1.6,1.34.35.69.57,1.54.55,2.43-.04,1.76-.92,3.42-2.18,3.79-.61.17-1.13-.01-1.39-.22-.27-.21-.32-.41-.29-.42Z"/>
        <g>
          <path class="cls-15" d="M122.97,110.12c.29.74.59,1.5,1.08,2.13.49.63,1.21,1.13,2.01,1.17.85.04,1.67-.46,2.14-1.17.47-.71.64-1.59.6-2.44-.03-.77-.39-1.69-1.15-1.78-.32-.04-.63.09-.93.21-1.34.54-2.68,1.09-4.02,1.63"/>
          <path class="cls-3" d="M124.57,113.44c.02-.13.9.23,2.14-.26.6-.24,1.26-.72,1.62-1.47.36-.74.43-1.75.05-2.63-.09-.22-.22-.42-.35-.6-.16-.17-.13-.16-.3-.13-.16.04-.43.17-.64.25-.22.09-.44.18-.66.27-.86.35-1.64.65-2.3.9-1.32.49-2.15.75-2.19.66-.04-.09.72-.51,1.99-1.12.63-.31,1.39-.66,2.24-1.04.21-.09.43-.19.65-.29.23-.1.41-.2.73-.3.16-.04.38-.07.6.02.21.09.34.23.44.35.18.24.34.48.45.76.47,1.1.36,2.31-.12,3.21-.49.92-1.33,1.44-2.04,1.65-.72.22-1.34.17-1.74.07-.4-.11-.59-.24-.57-.28Z"/>
        </g>
        <path class="cls-9" d="M161.5,89.76c-.9-.06-8.11.87-7.54,14.28.53,12.52,9.32,9.77,12.12,5.05,2.66-4.47,4.19-18.72-4.58-19.33Z"/>
        <path class="cls-9" d="M165.96,91.35s-.02-.12-.03-.35c-.01-.26-.02-.6-.04-1.02-.03-.93-.06-2.22-.11-3.82-.07-3.29-.16-7.87-.26-13.15l.16.16c-1.19,0-2.44,0-3.72,0l.17-.17c.03,1,.06,2.05.08,3.12.12,5.03.24,9.72.34,13.64v.12s-.11.03-.11.03c-1.67.39-3,1.37-3.83,2.47-.85,1.1-1.27,2.27-1.53,3.24-.26.97-.34,1.76-.39,2.29-.02.27-.04.47-.04.61,0,.14-.01.21-.02.21,0,0-.02-.07-.02-.21,0-.14,0-.35,0-.62.02-.54.08-1.34.32-2.32.24-.98.64-2.18,1.5-3.33.84-1.15,2.22-2.18,3.95-2.6l-.11.14c-.11-3.92-.25-8.61-.39-13.64-.03-1.07-.06-2.12-.08-3.12v-.17s.17,0,.17,0c1.28,0,2.53,0,3.72,0h.16s0,.16,0,.16c.06,5.28.11,9.86.14,13.15,0,1.6,0,2.89.01,3.82,0,.42,0,.76-.01,1.02,0,.23-.01.35-.02.35Z"/>
        <path class="cls-9" d="M161.49,73s-3.77-8.83-12.76-13.19c-4.35-2.11-7.61-3.2-10.77-3.99,0,0,5.24-1.25,13.73,2.53,3.86,1.72,7.74,3.95,10.31,7.3,1.63,2.13,3.67,6.28,3.67,7.35h-4.18Z"/>
        <path class="cls-3" d="M160.53,112.84s-.09-.01-.25-.07c-.16-.06-.39-.17-.67-.35-.55-.35-1.29-.99-1.89-2.02-.61-1.02-1.01-2.39-1.16-3.93-.15-1.54-.15-3.24,0-5.01.15-1.77.45-3.45.83-4.94.38-1.49.83-2.83,1.44-3.84.61-1.01,1.34-1.66,1.9-2.01.28-.17.51-.28.67-.34.16-.06.25-.08.25-.07.01.03-.33.15-.85.52-.52.37-1.21,1.02-1.77,2.02-.57.99-.99,2.31-1.35,3.79-.36,1.48-.65,3.14-.8,4.89-.14,1.75-.15,3.44-.02,4.95.13,1.51.5,2.85,1.06,3.85.55,1,1.24,1.66,1.76,2.03.52.38.86.5.85.53Z"/>
        <g>
          <path class="cls-9" d="M125.03,111.45h7.04c.94,0,1.7.76,1.7,1.7v.53c0,.94-.76,1.7-1.7,1.7h-7.04c-.94,0-1.7-.76-1.7-1.7v-.53c0-.94.76-1.7,1.7-1.7Z" transform="translate(-19.43 26.88) rotate(-11.1)"/>
          <path class="cls-9" d="M132.74,111.83l30.65-9.62c.76-.24,1.57.18,1.81.94h0c.25.79-.2,1.62-1,1.84l-31.35,8.47-.12-1.63Z"/>
          <path class="cls-3" d="M155.4,107.6s.36-.15,1.02-.36c.72-.22,1.66-.51,2.8-.85,1.18-.36,2.62-.75,4.15-1.25.37-.14.73-.33,1-.62.27-.28.44-.67.43-1.07,0-.39-.25-.75-.63-.88-.38-.13-.84-.07-1.28.04-3.56,1.15-6.79,2.18-9.19,2.96-1.14.35-2.08.64-2.8.86-.66.2-1.03.3-1.04.27s.35-.16,1-.4c.71-.25,1.64-.57,2.77-.97,2.35-.8,5.56-1.9,9.18-3.06.47-.11.98-.19,1.47-.03.5.16.86.68.85,1.19,0,.5-.2.96-.53,1.3-.33.33-.73.53-1.12.68-1.58.5-3,.85-4.19,1.19-1.15.31-2.11.56-2.83.75-.67.17-1.04.25-1.05.23Z"/>
        </g>
        <path class="cls-15" d="M139.32,89.9c-.23.37-2.33-.77-4.94-.31-2.61.43-4.2,2.22-4.55,1.95-.17-.12,0-.76.7-1.55.68-.78,1.95-1.65,3.58-1.94,1.63-.28,3.12.11,4.02.62.92.51,1.3,1.06,1.18,1.22Z"/>
        <path class="cls-3" d="M139.02,90.23c-.04.07-.56-.16-1.44-.36-.87-.2-2.13-.32-3.45-.02-1.33.3-2.41.94-3.11,1.49-.71.55-1.08.99-1.14.94-.05-.03.22-.56.9-1.22.67-.65,1.81-1.4,3.24-1.72,1.43-.32,2.78-.13,3.67.17.9.3,1.37.66,1.34.72Z"/>
        <path class="cls-3" d="M140.37,84.36c-.21.7-2.44.65-5.09.77-2.65.08-4.89.28-5.14-.4-.11-.33.34-.85,1.25-1.3.9-.46,2.26-.84,3.79-.9,1.53-.06,2.92.22,3.85.61.94.39,1.43.88,1.34,1.22Z"/>
        <path class="cls-15" d="M118.38,91.44c-.2.11-.6-.26-1.23-.7-.63-.44-1.54-.9-2.66-1.07-2.26-.37-4.08.67-4.34.3-.12-.16.19-.67.99-1.18.79-.49,2.12-.9,3.59-.67,1.47.22,2.65,1.06,3.2,1.83.57.78.62,1.39.45,1.48Z"/>
        <path class="cls-3" d="M118.63,92.52c-.07.05-.41-.46-1.11-1.08-.7-.62-1.82-1.35-3.21-1.65-1.39-.3-2.72-.11-3.61.17-.9.27-1.42.59-1.46.52-.04-.05.42-.48,1.34-.86.91-.38,2.33-.66,3.84-.33,1.51.33,2.69,1.17,3.36,1.89.68.73.91,1.32.86,1.35Z"/>
        <path class="cls-3" d="M119.53,85.24c-.13.72-2.26.92-4.79.95-2.53.01-4.66-.16-4.8-.88-.14-.69,1.98-1.71,4.78-1.73,2.8-.03,4.94.96,4.81,1.65Z"/>
        <path class="cls-3" d="M143.08,64.55c-1.58,2.37-3.18,4.79-3.99,7.53-.82,2.73-.75,5.87.86,8.23,1.54,2.26,4.17,3.44,6.57,4.75s4.85,3.11,5.45,5.77c.19.83-.17,3.75.46,4.33.86.8,2.37.31,3.02-.67.65-.97,1.08-4.18,1.09-5.35l.15-10.9c.04-3.08,0-6.27-1.33-9.04-1.86-3.88-5.73-5.12-11.37-4.85"/>
        <path class="cls-3" d="M107.26,86.43c.48-3.68,1.82-7.29,4.14-10.19,2.32-2.9,5.66-5.03,9.33-5.59,3.68-.55,7.4.47,11.11.68,3.72.21,7.95-.7,9.89-3.87.6-.99.89-2.38.12-3.24-.29-.33-.69-.53-1.09-.72-4.93-2.32-10.51-3.37-15.9-2.57-5.39.8-10.54,3.52-13.93,7.79-3.39,4.27-4.86,10.09-3.53,15.38"/>
        <path class="cls-9" d="M105.04,80.95s-.08-.16-.17-.48c-.1-.32-.21-.8-.3-1.42-.17-1.24-.19-3.13.5-5.3.67-2.16,2.07-4.61,4.38-6.54,2.29-1.95,5.39-3.39,8.8-3.96,3.42-.57,6.76-.24,9.66.44,1.45.34,2.81.76,4.05,1.22,1.25.46,2.36.96,3.42,1.25,2.15.44,3.99.71,5.19.46,1.22-.25,1.65-.89,1.69-.83,0,0-.09.16-.34.38-.25.23-.69.49-1.31.65-1.27.32-3.1.11-5.32-.3-1.11-.27-2.24-.77-3.48-1.2-1.23-.44-2.58-.83-4.01-1.16-2.86-.64-6.13-.95-9.47-.39-3.33.55-6.34,1.94-8.58,3.81-2.26,1.86-3.65,4.2-4.34,6.29-.71,2.1-.75,3.93-.65,5.16.11,1.24.32,1.9.27,1.92Z"/>
        <path class="cls-9" d="M121.18,58.01s.32-.11.92-.18c.6-.07,1.47-.1,2.55,0,2.13.19,5.15,1.02,7.76,3.1,1.29,1.03,2.37,2.14,3.52,2.92,1.12.78,2.35,1.13,3.37,1.36,1.03.22,1.89.24,2.46.17.58-.07.87-.23.9-.18.02.02-.26.25-.86.38-.6.14-1.49.17-2.56,0-1.06-.19-2.35-.5-3.57-1.32-1.21-.79-2.32-1.91-3.57-2.91-2.52-2.01-5.4-2.87-7.48-3.15-2.1-.28-3.42-.09-3.43-.19Z"/>
        <path class="cls-9" d="M165.34,84.79s-.2-.35-.62-.91c-.43-.54-1.18-1.27-2.32-1.78-1.13-.53-2.61-.88-4.26-.86-1.66.02-3.47.39-5.39.75-1.91.37-3.81.59-5.52.42-1.71-.15-3.21-.57-4.4-1.06-1.2-.48-2.09-1.04-2.68-1.44-.59-.41-.88-.69-.86-.71.06-.09,1.3.93,3.68,1.81,1.18.44,2.65.81,4.31.93,1.66.14,3.48-.09,5.39-.45,1.91-.35,3.76-.72,5.48-.71,1.73,0,3.27.41,4.43,1,1.18.59,1.93,1.39,2.32,2,.19.31.32.56.38.74.07.18.1.27.08.28Z"/>
        <path class="cls-9" d="M163.76,77.79s-.19-.34-.62-.88c-.43-.52-1.2-1.19-2.33-1.64-1.13-.46-2.6-.63-4.21-.45-1.62.16-3.36.65-5.25,1-1.88.35-3.8.44-5.44-.09-1.63-.5-2.9-1.43-3.78-2.34-.89-.92-1.39-1.84-1.66-2.49-.14-.33-.22-.59-.26-.77-.05-.18-.06-.28-.05-.28.11-.06.46,1.55,2.23,3.28.87.85,2.11,1.7,3.66,2.14,1.54.47,3.36.38,5.2.03,1.85-.34,3.62-.83,5.3-.97,1.67-.16,3.23.05,4.4.59,1.18.52,1.95,1.28,2.35,1.86.4.6.48.99.46,1Z"/>
        <path class="cls-3" d="M126.28,177.8s.06-.06.19-.16c.12-.1.32-.24.56-.44.49-.39,1.19-1,2.03-1.85.85-.85,1.82-1.96,2.87-3.33,1.05-1.37,2.18-3,3.41-4.82,2.46-3.65,5.34-8.08,8.4-13.2,1.53-2.56,3.11-5.28,4.7-8.16.4-.72.8-1.45,1.2-2.19.4-.74.81-1.5,1.37-2.18.55-.68,1.28-1.25,2.12-1.54.42-.15.88-.24,1.35-.15.23.05.46.17.64.35.18.18.27.42.34.65v.05s0,.05,0,.05c-.11.29-.24.58-.47.82-.22.24-.55.4-.88.42-.66.04-1.24-.26-1.73-.6-1.08-.66-1.56-2.17-1.11-3.41.21-.63.69-1.16,1.27-1.45.58-.3,1.25-.4,1.89-.26.63.13,1.28.5,1.54,1.2.13.34.05.8-.22,1.06-.26.27-.57.4-.9.49-1.15.28-2.39-.3-2.93-1.34-.27-.52-.33-1.16-.17-1.72.14-.57.46-1.07.89-1.45.43-.38.98-.62,1.56-.61.57.02,1.14.27,1.47.78.17.25.24.58.18.88-.05.31-.25.59-.49.75-.49.34-1.09.39-1.63.2-.55-.21-.9-.71-1.09-1.21-.19-.51-.25-1.06-.25-1.58.02-1.04.19-2.12.79-3.01.31-.43.71-.81,1.25-.95.53-.13,1.07,0,1.51.27.43.27.82.76.76,1.35-.04.57-.51,1.03-1,1.16-.49.16-1.05.08-1.47-.24-.41-.31-.65-.8-.74-1.28-.1-.49-.01-1.02.12-1.45.13-.45.27-.9.5-1.32.21-.42.54-.81.95-1.05.4-.24.84-.39,1.29-.44.22-.02.47-.02.71.1.22.11.39.28.53.47.14.19.24.4.29.64.06.23.05.5-.08.73-.26.47-.83.55-1.24.48-.44-.06-.83-.3-1.14-.59-.61-.6-.94-1.43-.98-2.25-.05-.82.16-1.65.61-2.3.23-.32.51-.61.85-.8.34-.19.71-.29,1.09-.3.37,0,.76.07,1.06.32.3.24.49.63.45,1.02-.09.78-.77,1.31-1.44,1.4-.71.09-1.32-.39-1.64-.93-.34-.54-.46-1.18-.41-1.78.12-1.2.73-2.14,1.09-3.05.4-.91.76-1.73,1.09-2.48.66-1.48,1.17-2.63,1.52-3.42.17-.38.31-.67.4-.89.09-.2.15-.3.15-.3,0,0-.03.11-.12.31-.09.22-.21.52-.37.9-.34.8-.83,1.96-1.46,3.45-.32.75-.68,1.58-1.06,2.49-.36.92-.95,1.87-1.05,3-.04.56.08,1.15.39,1.65.3.49.85.9,1.45.82.58-.07,1.18-.57,1.23-1.2.03-.31-.12-.62-.37-.81-.25-.2-.58-.27-.92-.26-.33.01-.68.1-.98.28-.3.17-.55.44-.76.73-.41.6-.61,1.37-.55,2.13.04.76.35,1.53.91,2.07.28.26.61.46,1,.51.37.06.79-.03.95-.34.18-.3.03-.74-.19-1.05-.12-.16-.26-.3-.43-.38-.15-.08-.35-.08-.56-.07-.81.09-1.63.53-2,1.33-.2.39-.35.82-.47,1.26-.14.45-.2.87-.11,1.31.08.43.29.84.63,1.09.33.26.79.32,1.19.19.41-.12.75-.46.78-.89.05-.42-.25-.81-.61-1.05-.38-.23-.85-.34-1.27-.23-.42.1-.8.44-1.06.82-.53.79-.71,1.83-.72,2.82,0,.5.05,1,.23,1.46.17.44.48.87.9,1.02.42.16.95.1,1.32-.16.39-.25.47-.79.22-1.17-.25-.38-.74-.61-1.21-.62-.47,0-.96.19-1.33.52-.75.65-1.12,1.84-.64,2.74.46.9,1.58,1.42,2.56,1.17.27-.07.55-.2.74-.39.19-.19.24-.45.15-.7-.19-.52-.74-.86-1.29-.97-1.12-.25-2.42.38-2.78,1.49-.39,1.09.02,2.43.99,3.01.46.32,1,.58,1.52.54.53-.02.89-.49,1.06-1.02v.1c-.1-.39-.37-.69-.74-.76-.38-.07-.79,0-1.18.14-.78.27-1.46.79-1.98,1.43-.53.64-.94,1.39-1.34,2.12-.41.74-.81,1.47-1.21,2.19-1.6,2.88-3.19,5.6-4.73,8.16-3.08,5.11-5.98,9.54-8.47,13.17-1.24,1.82-2.38,3.44-3.45,4.8-1.07,1.36-2.06,2.47-2.92,3.31-1.73,1.69-2.86,2.36-2.86,2.36Z"/>
      </g>
    </g>
  </g>
</svg>