<?xml version="1.0" encoding="UTF-8"?>
<svg id="_레이어_2" data-name="레이어_2" xmlns="http://www.w3.org/2000/svg" viewBox="0 0 446.61 464.17">
  <defs>
    <style>
      .cls-1 {
        opacity: .6;
      }

      .cls-2 {
        fill: #fafafa;
      }

      .cls-3 {
        fill: #263238;
      }

      .cls-4 {
        opacity: .3;
      }

      .cls-5 {
        fill: #eb996e;
      }

      .cls-6 {
        fill: #fff;
      }

      .cls-7 {
        fill: #e0e0e0;
      }

      .cls-8 {
        fill: #455a64;
      }

      .cls-9 {
        fill: #ffbe9d;
      }

      .cls-10 {
        fill: #ebebeb;
      }

      .cls-11 {
        fill: #f5f5f5;
      }

      .cls-12 {
        fill: #ff725e;
      }
    </style>
  </defs>
  <g id="Background_Complete">
    <path class="cls-7" d="M270.23,452.25c0,2.74-17.44,4.96-38.96,4.96s-38.96-2.22-38.96-4.96,17.44-4.96,38.96-4.96,38.96,2.22,38.96,4.96Z"/>
    <path class="cls-11" d="M154.58,131.18c3.26-1.97,6.73-3.46,10.31-4.48l2.12-10.21,17.24-.3,2.48,10.12c3.61.89,7.14,2.26,10.46,4.12l8.71-5.71,12.41,11.98-5.4,8.91c1.97,3.26,3.46,6.73,4.48,10.31l10.21,2.12.3,17.24-10.12,2.48c-.89,3.61-2.26,7.13-4.12,10.46l5.71,8.72-11.98,12.41-8.91-5.4c-3.26,1.97-6.73,3.46-10.31,4.48l-2.12,10.21-17.24.3-2.48-10.13c-3.61-.89-7.13-2.26-10.46-4.12l-8.72,5.71-12.41-11.98,5.4-8.91c-1.97-3.26-3.46-6.73-4.48-10.31l-10.21-2.12-.3-17.24,10.12-2.48c.89-3.61,2.26-7.13,4.12-10.46l-5.71-8.72,11.98-12.41,8.91,5.4h0ZM163.78,154.15c-7.1,7.35-6.89,19.06.46,26.16,7.35,7.1,19.06,6.89,26.16-.46,7.1-7.35,6.89-19.06-.46-26.16-7.35-7.1-19.06-6.89-26.16.46Z"/>
    <path class="cls-10" d="M256.01,161.27c2.74-.95,5.57-1.51,8.4-1.7l3.21-7.27,12.9,2.52.24,7.94c2.55,1.24,4.96,2.82,7.15,4.73l7.41-2.87,7.34,10.91-5.44,5.78c.95,2.74,1.51,5.57,1.7,8.4l7.27,3.21-2.52,12.9-7.94.24c-1.24,2.55-2.82,4.96-4.73,7.14l2.87,7.41-10.9,7.34-5.78-5.44c-2.74.95-5.57,1.51-8.4,1.7l-3.21,7.27-12.9-2.52-.24-7.94c-2.55-1.24-4.96-2.82-7.15-4.73l-7.41,2.87-7.34-10.9,5.44-5.78c-.95-2.74-1.51-5.57-1.7-8.4l-7.27-3.21,2.52-12.9,7.94-.24c1.24-2.55,2.82-4.96,4.73-7.14l-2.87-7.41,10.9-7.34,5.78,5.45h0ZM259.2,179.85c-6.46,4.35-8.17,13.12-3.82,19.58,4.35,6.46,13.12,8.17,19.58,3.82,6.46-4.35,8.17-13.12,3.82-19.58-4.35-6.46-13.12-8.17-19.58-3.82Z"/>
    <g>
      <path class="cls-7" d="M301.22,22.07s.08.05.24.18c.15.12.37.31.67.53.6.46,1.5,1.11,2.74,1.83,1.24.72,2.83,1.48,4.77,2.07,1.94.59,4.25.98,6.81.9,2.56-.06,5.33-.55,8.32-1,2.98-.47,6.25-.72,9.64-.31,3.39.4,6.89,1.35,10.23,2.97,3.34,1.62,6.51,3.93,9.12,6.88,2.62,2.95,4.57,6.34,5.8,9.85,1.24,3.5,1.72,7.13,1.56,10.53-.12,3.41-.6,6.61-.69,9.61-.12,3.01.25,5.82,1.07,8.24.8,2.43,1.94,4.47,3.14,6.11,1.19,1.65,2.43,2.9,3.52,3.83.53.48,1.06.84,1.49,1.18.46.31.84.58,1.16.78.31.19.56.34.74.44.16.1.25.16.25.16,0,0-.09-.04-.26-.13-.18-.1-.43-.24-.75-.42-.33-.19-.71-.45-1.18-.75-.44-.33-.98-.69-1.52-1.17-1.1-.92-2.37-2.17-3.59-3.82-1.22-1.64-2.39-3.69-3.21-6.14-.85-2.44-1.23-5.29-1.13-8.32.07-3.03.54-6.24.66-9.62.14-3.38-.33-6.95-1.57-10.41-1.22-3.46-3.15-6.82-5.74-9.73-2.58-2.92-5.71-5.2-9.02-6.81-3.31-1.61-6.77-2.56-10.12-2.96-3.36-.41-6.59-.18-9.57.28-2.98.44-5.77.92-8.35.96-2.58.07-4.92-.34-6.87-.95-1.95-.62-3.55-1.4-4.78-2.14-1.24-.74-2.13-1.41-2.72-1.89-.3-.24-.51-.43-.65-.56-.14-.13-.22-.2-.21-.2Z"/>
      <path class="cls-7" d="M318.33,0s1.23,1.05,3.19,3.24c.97,1.1,2.12,2.48,3.25,4.23,1.13,1.74,2.28,3.87,2.87,6.45.15.64.25,1.31.31,2,.04.69.04,1.39.03,2.11-.03,1.43-.05,2.91-.08,4.45-.07,3.07-.17,6.36-.11,9.81.07,3.44.7,7.05,2.04,10.54,1.33,3.49,3.37,6.88,6.16,9.7,2.79,2.82,6.17,4.9,9.69,6.13,3.53,1.23,7.21,1.6,10.62,1.12,3.41-.46,6.56-1.47,9.6-2.01,1.52-.27,3.01-.44,4.45-.42,1.44.03,2.81.17,4.1.45,2.57.55,4.78,1.53,6.57,2.58,1.8,1.07,3.18,2.24,4.2,3.29,1.03,1.04,1.72,1.96,2.16,2.59.2.31.36.56.48.74.11.17.15.26.15.26,0,0-.07-.08-.18-.24-.12-.17-.29-.41-.5-.71-.46-.62-1.16-1.51-2.2-2.53-1.03-1.03-2.41-2.18-4.2-3.22-1.79-1.03-3.97-1.98-6.52-2.51-1.27-.27-2.63-.4-4.05-.42-1.42,0-2.89.16-4.4.44-3.02.54-6.16,1.56-9.61,2.04-3.45.5-7.19.13-10.77-1.11-3.58-1.24-7-3.35-9.83-6.21-2.83-2.86-4.89-6.29-6.23-9.82-1.34-3.54-1.98-7.19-2.04-10.66-.05-3.46.06-6.75.14-9.82.04-1.54.07-3.02.1-4.45.02-.71.02-1.41-.02-2.09-.06-.67-.14-1.33-.29-1.96-.57-2.54-1.69-4.65-2.8-6.4-1.11-1.75-2.24-3.14-3.19-4.25-.95-1.11-1.74-1.92-2.27-2.48-.26-.27-.46-.47-.61-.63-.14-.14-.2-.22-.2-.22Z"/>
      <path class="cls-7" d="M327.85,16.88c.07.06-1.93,2.57-4.47,5.61-2.54,3.04-4.66,5.45-4.73,5.39-.07-.06,1.93-2.57,4.47-5.61,2.54-3.04,4.66-5.45,4.73-5.39Z"/>
      <path class="cls-7" d="M326.14,10.51c.07.07-3.42,3.71-7.8,8.15-4.37,4.43-7.97,7.97-8.04,7.91-.07-.07,3.42-3.71,7.8-8.15,4.37-4.43,7.97-7.97,8.04-7.91Z"/>
      <path class="cls-7" d="M322.57,4.6c.07.07-4.17,4.41-9.46,9.7-5.29,5.29-9.63,9.53-9.7,9.46s4.17-4.41,9.46-9.7c5.29-5.29,9.63-9.53,9.7-9.46Z"/>
      <path class="cls-7" d="M360.54,50.36c.06.07-2.41,2.3-5.52,4.97-3.11,2.68-5.68,4.79-5.74,4.71-.06-.07,2.41-2.3,5.52-4.97,3.11-2.67,5.68-4.79,5.74-4.71Z"/>
      <path class="cls-7" d="M357.24,41.61s-.19.25-.57.64c-.38.4-.95.97-1.66,1.66-1.42,1.38-3.43,3.25-5.7,5.25-2.27,2-4.39,3.74-5.94,4.98-.78.62-1.41,1.11-1.86,1.44-.44.33-.7.51-.71.49s.21-.23.63-.59c.47-.4,1.07-.91,1.79-1.52,1.51-1.28,3.6-3.05,5.87-5.05,2.27-1.99,4.29-3.83,5.76-5.17.69-.63,1.28-1.16,1.74-1.58.41-.37.65-.57.67-.55Z"/>
      <path class="cls-7" d="M352.18,34.88s-.24.24-.72.64c-.53.43-1.21.99-2.03,1.66-1.72,1.4-4.07,3.35-6.61,5.58-2.54,2.23-4.78,4.31-6.38,5.84-.77.73-1.41,1.34-1.9,1.81-.45.43-.71.65-.73.64s.21-.28.63-.73c.42-.46,1.05-1.1,1.83-1.88,1.57-1.57,3.78-3.69,6.33-5.92,2.54-2.23,4.93-4.16,6.68-5.51.88-.68,1.6-1.21,2.1-1.57.5-.36.79-.55.8-.53Z"/>
      <path class="cls-7" d="M343.81,30.33s-.17.21-.52.54c-.41.37-.9.83-1.49,1.37-1.26,1.15-3,2.75-4.88,4.56-1.88,1.8-3.56,3.46-4.77,4.67-.57.56-1.05,1.04-1.44,1.43-.34.33-.54.51-.56.49-.02-.02.15-.22.46-.59.31-.36.78-.88,1.36-1.5,1.17-1.25,2.82-2.94,4.71-4.75,1.89-1.8,3.65-3.38,4.96-4.49.65-.56,1.19-1,1.56-1.29.38-.3.59-.45.61-.43Z"/>
      <path class="cls-7" d="M337.33,26.74c.06.07-1.98,2.07-4.55,4.47-2.58,2.4-4.72,4.29-4.79,4.22-.06-.07,1.97-2.07,4.55-4.47,2.58-2.4,4.72-4.29,4.79-4.22Z"/>
      <path class="cls-7" d="M373.02,57.49s-.15.19-.46.49c-.37.35-.81.76-1.33,1.24-1.2,1.1-2.73,2.52-4.42,4.08-1.68,1.58-3.2,3-4.39,4.11-.52.48-.97.9-1.34,1.24-.32.29-.5.44-.52.42-.02-.02.14-.2.43-.52.29-.32.72-.77,1.26-1.32,1.08-1.1,2.6-2.59,4.32-4.19,1.72-1.6,3.32-3.01,4.49-4.01.59-.5,1.07-.9,1.41-1.16.34-.27.53-.41.55-.39Z"/>
      <path class="cls-7" d="M381.18,60.57c.06.07-4.02,3.98-9.13,8.74-5.11,4.76-9.3,8.56-9.36,8.49s4.02-3.98,9.13-8.74c5.1-4.76,9.29-8.56,9.36-8.49Z"/>
      <path class="cls-7" d="M386.8,63.71c.07.07-4.33,4.52-9.83,9.95-5.5,5.43-10,9.78-10.07,9.71-.07-.07,4.33-4.52,9.83-9.96,5.49-5.43,10-9.78,10.07-9.71Z"/>
    </g>
    <g>
      <g>
        <path class="cls-7" d="M394.57,358.1s.06-.14.19-.41c.03-.07.07-.14.11-.22.04-.08.06-.18.1-.29.07-.21.16-.45.2-.73.03-.14.06-.29.08-.45.01-.16.02-.33.04-.51.02-.18.01-.36,0-.56-.01-.19,0-.4-.04-.61-.07-.84-.32-1.79-.7-2.82-.75-2.07-2.15-4.4-4.08-6.85-1.92-2.46-4.41-5.02-7.36-7.63-2.95-2.6-6.39-5.21-10.25-7.75-3.87-2.53-8.16-5-12.87-7.21-2.35-1.1-4.81-2.14-7.37-3.06-2.56-.93-5.22-1.74-7.98-2.36-2.76-.6-5.62-1.03-8.54-.93-1.45.06-2.92.25-4.31.74-.69.25-1.35.58-1.95,1.01-.59.45-1.1.99-1.49,1.62-.36.64-.59,1.35-.7,2.08-.08.73-.06,1.47.06,2.2.23,1.45.79,2.83,1.43,4.13,1.32,2.6,3.09,4.9,4.95,7.02,1.87,2.12,3.87,4.05,5.93,5.84,2.05,1.79,4.15,3.44,6.25,4.96,4.21,3.05,8.45,5.61,12.54,7.77,4.09,2.15,8.04,3.89,11.75,5.21,3.7,1.32,7.15,2.25,10.23,2.74,3.08.5,5.8.59,7.97.25,1.08-.17,2.03-.42,2.81-.76.2-.07.37-.18.55-.26.17-.09.34-.17.49-.27.15-.1.29-.19.43-.28.13-.1.24-.2.35-.29.23-.18.4-.37.54-.53.07-.08.15-.15.2-.22.05-.08.1-.14.14-.2.17-.24.26-.36.26-.36,0,0-.08.13-.25.38-.04.06-.09.13-.14.21-.06.07-.13.15-.2.23-.15.16-.31.36-.54.54-.11.09-.22.2-.35.3-.14.09-.28.18-.43.28-.15.11-.31.19-.49.28-.18.08-.35.2-.55.27-.78.35-1.73.6-2.82.78-2.18.35-4.91.27-8-.22-3.09-.48-6.55-1.41-10.26-2.72-3.71-1.31-7.67-3.05-11.77-5.2-4.1-2.15-8.35-4.71-12.57-7.76-2.11-1.53-4.21-3.18-6.27-4.97-2.06-1.79-4.06-3.73-5.94-5.85-1.87-2.13-3.64-4.44-4.97-7.06-.65-1.31-1.21-2.7-1.45-4.18-.12-.74-.15-1.5-.06-2.25.11-.75.34-1.48.72-2.15.4-.65.93-1.21,1.53-1.67.62-.44,1.29-.78,2-1.03,1.41-.51,2.9-.69,4.36-.75,2.94-.1,5.82.33,8.58.93,2.77.62,5.44,1.43,8,2.37,2.56.93,5.02,1.97,7.38,3.07,4.71,2.22,9.01,4.69,12.88,7.23,3.86,2.55,7.31,5.17,10.25,7.78,2.94,2.61,5.43,5.19,7.35,7.66,1.92,2.47,3.32,4.81,4.07,6.89.37,1.04.61,1.99.68,2.84.03.21.02.42.03.61,0,.2.01.38,0,.56-.01.18-.03.35-.04.51-.02.16-.06.31-.09.45-.04.29-.14.53-.21.74-.04.1-.07.2-.1.29-.04.08-.08.16-.11.22-.14.26-.21.4-.21.4Z"/>
        <path class="cls-7" d="M399.99,330.93s-.05-.15-.13-.43c-.02-.07-.04-.15-.07-.24-.03-.09-.07-.18-.12-.28-.09-.2-.18-.44-.34-.68-.08-.12-.15-.26-.24-.39-.1-.13-.2-.26-.31-.4-.1-.15-.23-.28-.37-.42-.14-.14-.27-.3-.43-.43-.62-.58-1.43-1.13-2.4-1.64-1.94-1.04-4.53-1.85-7.61-2.4-3.07-.56-6.64-.81-10.57-.8-3.93.02-8.24.36-12.81,1.04-4.57.68-9.42,1.7-14.4,3.18-2.49.74-5.01,1.61-7.54,2.62-2.53,1.01-5.05,2.17-7.52,3.55-2.46,1.39-4.88,2.98-6.99,4.99-1.04,1.01-2.02,2.13-2.72,3.42-.35.65-.62,1.34-.78,2.05-.14.72-.16,1.47-.03,2.2.16.72.46,1.4.87,2.02.43.6.94,1.14,1.51,1.6,1.14.93,2.47,1.59,3.82,2.13,2.72,1.06,5.57,1.6,8.37,1.95,2.81.33,5.59.45,8.31.41,2.72-.03,5.38-.19,7.97-.46,5.17-.53,10.04-1.44,14.53-2.55,4.49-1.12,8.59-2.45,12.24-3.93,3.64-1.48,6.83-3.08,9.46-4.77,2.63-1.68,4.72-3.42,6.11-5.12.69-.85,1.24-1.67,1.59-2.44.1-.19.16-.38.23-.56.07-.18.14-.35.18-.53.05-.17.09-.34.13-.49.03-.16.05-.31.07-.45.06-.28.05-.54.05-.76,0-.11,0-.21,0-.3-.01-.09-.02-.17-.03-.25-.03-.29-.05-.45-.05-.45,0,0,.03.15.07.44.01.07.02.16.03.25,0,.09,0,.19,0,.3,0,.22,0,.48-.04.76-.02.14-.04.3-.07.46-.04.16-.08.32-.13.5-.04.18-.11.35-.18.53-.08.18-.13.38-.23.57-.35.78-.89,1.6-1.58,2.46-1.39,1.72-3.48,3.47-6.11,5.16-2.63,1.7-5.82,3.31-9.47,4.8-3.64,1.49-7.76,2.83-12.25,3.96-4.49,1.12-9.37,2.04-14.55,2.57-2.59.27-5.26.43-7.98.46-2.73.03-5.51-.08-8.33-.41-2.81-.35-5.67-.89-8.41-1.96-1.36-.54-2.7-1.21-3.87-2.15-.58-.47-1.1-1.02-1.54-1.64-.42-.63-.73-1.33-.89-2.08-.14-.75-.11-1.52.03-2.26.17-.74.45-1.44.8-2.1.71-1.32,1.7-2.44,2.75-3.47,2.12-2.03,4.56-3.63,7.02-5.02,2.48-1.38,5.01-2.55,7.54-3.56,2.53-1.01,5.06-1.88,7.55-2.62,4.99-1.48,9.85-2.5,14.43-3.17,4.58-.67,8.89-1.01,12.83-1.02,3.94-.01,7.5.26,10.58.82,3.08.56,5.68,1.38,7.62,2.43.97.53,1.79,1.08,2.4,1.67.17.13.29.3.43.44.14.14.27.28.37.43.11.14.21.28.31.41.09.14.16.27.24.4.16.24.25.49.33.69.04.1.08.19.11.28.02.09.04.17.06.24.08.29.11.44.11.44Z"/>
        <path class="cls-7" d="M380.01,302.41s-.14-.05-.42-.16c-.07-.03-.15-.06-.23-.09-.09-.03-.19-.05-.29-.08-.21-.05-.46-.13-.75-.15-.14-.02-.29-.04-.46-.05-.16,0-.33,0-.51,0-.18,0-.36.01-.56.03-.19.03-.4.03-.6.08-.84.13-1.77.44-2.77.89-2.01.89-4.24,2.45-6.55,4.54-2.32,2.09-4.71,4.75-7.1,7.86-2.39,3.12-4.76,6.73-7.03,10.76-2.26,4.03-4.43,8.49-6.31,13.33-.94,2.42-1.8,4.95-2.55,7.56-.75,2.61-1.38,5.33-1.8,8.12-.41,2.79-.64,5.68-.33,8.58.16,1.44.45,2.9,1.04,4.25.3.67.68,1.31,1.14,1.88.48.55,1.06,1.03,1.71,1.37.67.32,1.39.5,2.13.55.74.03,1.47-.05,2.19-.21,1.43-.33,2.77-.98,4.02-1.71,2.5-1.5,4.68-3.42,6.67-5.42,1.98-2.02,3.78-4.14,5.42-6.31,1.64-2.17,3.14-4.37,4.52-6.58,2.75-4.41,5.02-8.82,6.88-13.05,1.86-4.23,3.33-8.29,4.39-12.08,1.06-3.79,1.75-7.29,2.03-10.4.28-3.11.19-5.82-.3-7.97-.24-1.07-.56-2-.95-2.75-.08-.19-.21-.36-.3-.53-.1-.17-.19-.33-.31-.47-.11-.14-.21-.28-.31-.41-.11-.12-.22-.23-.32-.33-.19-.22-.4-.37-.57-.51-.09-.07-.16-.13-.24-.19-.08-.05-.15-.09-.21-.13-.25-.15-.38-.24-.38-.24,0,0,.13.07.39.22.06.04.14.08.22.13.08.05.15.12.24.18.17.14.38.29.58.5.1.1.21.21.32.33.1.13.2.26.31.41.12.14.21.3.31.47.1.17.22.34.31.53.4.75.72,1.69.97,2.76.5,2.15.6,4.88.33,7.99-.27,3.12-.95,6.63-2.01,10.42-1.05,3.79-2.52,7.86-4.38,12.1-1.86,4.24-4.13,8.65-6.88,13.07-1.38,2.21-2.88,4.42-4.52,6.59-1.64,2.18-3.44,4.31-5.43,6.33-1.99,2.01-4.18,3.94-6.7,5.45-1.26.74-2.61,1.4-4.07,1.73-.73.17-1.48.25-2.24.22-.75-.06-1.5-.24-2.19-.57-.68-.35-1.27-.84-1.77-1.41-.48-.58-.87-1.24-1.17-1.92-.6-1.37-.89-2.84-1.05-4.3-.31-2.92-.07-5.83.34-8.63.42-2.8,1.05-5.52,1.81-8.14.75-2.62,1.62-5.15,2.56-7.57,1.89-4.85,4.06-9.31,6.33-13.35,2.28-4.03,4.65-7.64,7.06-10.76,2.4-3.12,4.8-5.77,7.13-7.86,2.33-2.09,4.57-3.64,6.59-4.53,1.01-.44,1.95-.75,2.79-.88.21-.05.41-.05.61-.07.19-.02.38-.04.56-.03.18,0,.35,0,.51,0,.16.01.31.04.46.06.29.02.54.1.75.16.11.03.21.05.29.08.08.04.16.07.23.1.27.12.41.18.41.18Z"/>
        <path class="cls-7" d="M327.23,361.54c.66.44.83,1.33.39,1.98-.44.66-1.33.83-1.98.39-.66-.44-.83-1.33-.39-1.98.44-.66,1.33-.83,1.98-.39Z"/>
        <path class="cls-7" d="M397.66,302.45c.15.77-.35,1.53-1.12,1.68-.77.15-1.53-.35-1.68-1.12-.15-.77.35-1.53,1.12-1.68.77-.15,1.53.35,1.68,1.12Z"/>
        <path class="cls-7" d="M336.99,364.39c.04.2-.09.39-.29.43-.2.04-.39-.09-.43-.29-.04-.2.09-.39.29-.43.2-.04.39.09.43.29Z"/>
        <path class="cls-7" d="M336.8,323.63c.04.2-.09.39-.29.43-.2.04-.39-.09-.43-.29-.04-.2.09-.39.29-.43s.39.09.43.29Z"/>
        <path class="cls-7" d="M396.14,331.69c.04.2-.09.39-.29.43-.2.04-.39-.09-.43-.29-.04-.2.09-.39.29-.43.2-.04.39.09.43.29Z"/>
        <path class="cls-7" d="M397.8,314.11c.04.2-.09.39-.29.43-.2.04-.39-.09-.43-.29s.09-.39.29-.43c.2-.04.39.09.43.29Z"/>
      </g>
      <path class="cls-7" d="M369.04,337.03c.75,3.77-1.7,7.43-5.47,8.17s-7.43-1.7-8.17-5.47c-.75-3.77,1.7-7.43,5.47-8.17s7.43,1.7,8.17,5.47Z"/>
    </g>
    <path class="cls-11" d="M317.22,115.81c-3.04-7.95-7.64-15.15-13.63-21.26-10.32-10.53-22.07-19.86-35.36-26.39-13.3-6.54-34.98-12.34-50.77-12.26-8.15-.31-12.27.2-19.69,3.06-4.64,1.79-8.53,5.92-8.85,10.81-.3,4.53,2.5,10.1,6.24,12.74,16.08,11.33,28.26,11.93,43.86,16.92,15.59,4.99,31.64,12.38,40.05,26.26,4.56,7.53,7.17,17.16,15.09,21.16,7.68,3.87,17.81.11,22.51-7.01s3.59-16.07.55-24.03Z"/>
    <path class="cls-7" d="M103.41,258.1s-.39.23-1.16.65c-.77.43-1.94,1.02-3.42,1.9-2.98,1.7-7.33,4.32-12.58,8.19-5.24,3.87-11.41,8.98-17.75,15.74-3.17,3.38-6.37,7.16-9.5,11.37-3.15,4.19-6.11,8.91-8.63,14.16-1.21,2.64-2.33,5.41-3.21,8.32-.85,2.92-1.49,5.97-1.78,9.13-.27,3.16-.12,6.41.51,9.64.28,1.62.8,3.2,1.32,4.79.6,1.56,1.29,3.11,2.15,4.58,3.38,5.93,8.72,10.91,15.03,14.51,6.32,3.62,13.62,5.81,21.19,7.07,3.8.63,7.67,1.06,11.61,1.36,1.97.17,3.95.23,5.94.32,1.99.09,4,.17,6.01.26,2.01.13,4.04.08,6.08.08,2.04,0,4.09-.01,6.14-.02,2.06.04,4.12-.13,6.2-.21,2.08-.1,4.16-.19,6.25-.29,16.74-1.01,33.96-3.68,51.29-7.7,34.7-8.06,66.41-20.62,94.33-33.65,13.98-6.47,27.07-13.23,38.09-21.39,5.51-4.06,10.44-8.52,14.66-13.27.52-.6,1.05-1.19,1.56-1.78.51-.59.97-1.23,1.46-1.83.48-.61.96-1.22,1.43-1.83.44-.63.88-1.26,1.31-1.89,1.8-2.46,3.27-5.06,4.47-7.71,2.37-5.29,3.72-10.8,3.5-16.03-.22-5.21-2.21-10.06-5.54-13.26-3.3-3.25-7.48-4.88-11.34-5.6-3.9-.72-7.56-.54-10.76,0-3.21.54-5.99,1.38-8.36,2.2-2.37.83-4.33,1.64-5.92,2.3-1.57.68-2.77,1.19-3.59,1.54-.81.35-1.23.52-1.23.52,0,0,.4-.2,1.2-.57.8-.36,1.99-.91,3.57-1.59,1.58-.68,3.54-1.51,5.91-2.35,2.37-.84,5.15-1.7,8.38-2.26,3.21-.57,6.91-.76,10.84-.05,3.89.72,8.13,2.35,11.5,5.64,3.4,3.24,5.44,8.18,5.67,13.46.24,5.3-1.12,10.87-3.5,16.2-1.2,2.67-2.68,5.3-4.48,7.77-.44.63-.87,1.26-1.31,1.9-.48.61-.95,1.22-1.44,1.84-.49.61-.95,1.25-1.47,1.85-.52.59-1.04,1.19-1.57,1.79-4.23,4.78-9.18,9.26-14.71,13.35-11.05,8.21-24.16,15-38.14,21.48-27.93,13.07-59.67,25.65-94.41,33.73-34.67,8.11-69.09,10.38-99.72,6.15-7.61-1.28-14.96-3.48-21.34-7.15-6.36-3.63-11.76-8.67-15.18-14.69-.87-1.49-1.57-3.06-2.17-4.65-.53-1.61-1.05-3.21-1.33-4.86-.63-3.27-.78-6.56-.5-9.75.3-3.19.95-6.26,1.81-9.2.89-2.93,2.03-5.71,3.25-8.37,2.54-5.27,5.52-10,8.7-14.2,3.15-4.22,6.37-8,9.56-11.37,6.37-6.76,12.57-11.86,17.84-15.7,5.28-3.85,9.65-6.44,12.65-8.11,3-1.68,4.63-2.45,4.63-2.45Z"/>
    <g>
      <path class="cls-10" d="M393.82,169.57l-12.52,46.04-38.01,10.51c-1.23.34-1.99,1.68-1.73,3.07h0l41.58-10.7,1.47-.46,49.3-13.2,5.47-21.83,7.11-25.6c.52-1.56-.77-3.15-2.22-2.75l-49.13,13.49c-.64.18-1.14.72-1.32,1.43Z"/>
      <polygon class="cls-2" points="396.38 171.06 384.99 212.98 429.65 200.72 439.65 159.4 396.38 171.06"/>
      <path class="cls-7" d="M444.27,154.65s0,.08-.04.24c-.04.19-.09.42-.16.71-.16.65-.37,1.56-.65,2.71-.6,2.39-1.44,5.8-2.5,10.03-2.17,8.54-5.18,20.38-8.59,33.75l-.04.15-.15.04c-2.29.62-4.7,1.27-7.15,1.93-15.02,4.01-28.61,7.63-38.49,10.27-4.9,1.28-8.88,2.32-11.68,3.05-1.35.34-2.42.61-3.18.81-.34.08-.62.15-.83.2-.19.04-.29.06-.29.05s.09-.04.27-.1c.21-.06.48-.15.82-.25.76-.22,1.81-.52,3.16-.9,2.78-.77,6.75-1.87,11.64-3.21,9.87-2.67,23.45-6.35,38.45-10.42,2.45-.66,4.86-1.31,7.15-1.92l-.18.18c3.47-13.36,6.54-25.18,8.75-33.71,1.12-4.21,2.02-7.61,2.65-9.99.31-1.14.56-2.04.74-2.69.08-.28.15-.51.2-.69.05-.16.08-.23.08-.23Z"/>
    </g>
    <g>
      <g>
        <circle class="cls-10" cx="95.99" cy="331.46" r="18.88" transform="translate(-154.47 94.08) rotate(-30.39)"/>
        <g class="cls-4">
          <path class="cls-6" d="M89.64,332.08c-1.5.8-3.37.24-4.17-1.26s-.24-3.37,1.26-4.17c1.5-.8,3.37-.24,4.17,1.26s.24,3.37-1.26,4.17Z"/>
        </g>
        <g class="cls-4">
          <path class="cls-6" d="M95.41,324.03c-.87.47-1.96.14-2.42-.73-.47-.87-.14-1.96.73-2.42.87-.47,1.96-.14,2.42.73.47.87.14,1.96-.73,2.43Z"/>
        </g>
      </g>
      <path class="cls-7" d="M83.29,317.48c-.25.23-21.66-6.73-22.61-1.47-.95,5.26,14.88,16.76,32.66,24.27,17.78,7.51,37.24,12.65,38.9,7.5,1.66-5.15-17.37-16.24-17.37-16.24l-.2,2.65s11.77,6.56,10.98,11.06c-.8,4.5-15.35.69-31.46-7.06s-29.22-16.55-27.7-19.83c1.52-3.27,14.84,1.19,14.84,1.19l1.96-2.07Z"/>
      <g class="cls-4">
        <path class="cls-6" d="M102.8,316c-.09.22-1.65-.39-4.26-.64-2.58-.26-6.29,0-9.8,1.79-3.51,1.8-5.91,4.65-7.21,6.89-1.33,2.26-1.75,3.88-1.98,3.82-.16-.02-.11-1.77,1.06-4.31.58-1.26,1.47-2.68,2.71-4.05,1.23-1.37,2.84-2.67,4.75-3.66,1.92-.97,3.91-1.51,5.75-1.7,1.84-.2,3.51-.08,4.87.19,2.74.54,4.19,1.52,4.11,1.67Z"/>
      </g>
    </g>
    <g>
      <g>
        <path class="cls-11" d="M75.66,32.87l.97,4.48c.38,1.77-.18,3.61-1.5,4.86l-30.06,28.47c-3.65,3.46-2.95,9.45,1.39,11.98l19,11.05c4.64,2.7,10.56.13,11.77-5.1l9.27-40.19c.42-1.84,1.82-3.31,3.64-3.82l3.83-1.08-18.32-10.65Z"/>
        <path class="cls-7" d="M81.32,64.51c-2.12-.66-4.07-1.85-5.62-3.43-1.5-1.53-2.61-3.4-4.03-5.01-1.42-1.61-3.3-3-5.44-3.09l-18.75,18.36c-3.02,2.96-2.39,7.98,1.26,10.1l17.03,9.9c3.65,2.12,8.31.2,9.4-3.88l6.15-22.95Z"/>
        <g class="cls-4">
          <path class="cls-6" d="M52.17,80.6c-.04.06-.48-.11-1.03-.74-.53-.63-1.06-1.79-1.07-3.29,0-.74.11-1.57.42-2.4.29-.82.74-1.64,1.3-2.43,1.11-1.58,2.59-2.98,4.05-4.51,5.93-6.07,10.95-10.78,11.21-10.52.26.26-4.33,5.38-10.26,11.45-1.47,1.53-2.96,2.9-4.02,4.3-.53.7-.96,1.41-1.26,2.11-.3.69-.45,1.39-.5,2.03-.1,1.3.22,2.33.56,2.97.35.64.66.95.6,1.03Z"/>
        </g>
        <path class="cls-2" d="M78.89,67.35s-.26,0-.73-.06c-.47-.06-1.14-.15-1.97-.33-.82-.18-1.81-.44-2.82-.96-.5-.26-1-.59-1.47-.99-.47-.4-.89-.89-1.28-1.4-.78-1.04-1.39-2.1-2.04-2.99-.64-.89-1.35-1.61-2.02-2.09-.67-.49-1.32-.72-1.77-.83-.45-.1-.72-.1-.72-.12,0,0,.06-.01.19-.02.13,0,.31,0,.55.04.47.08,1.15.29,1.85.77.71.48,1.44,1.19,2.11,2.1.67.9,1.29,1.96,2.05,2.98.39.5.79.97,1.24,1.36.45.39.93.71,1.41.97.97.52,1.93.79,2.74,1,.81.2,1.48.32,1.95.41.46.09.72.14.71.16Z"/>
      </g>
      <path class="cls-11" d="M115.12,27.9c-.31-1.99-1.63-3.68-3.1-5.07-2.55-2.42-5.75-4.25-9.23-4.73-3.7-.51-7.6.58-10.5,2.94-2.9,2.36-4.53,5.58-4.78,9.31-.34,2.35,2.12,4.34,4.49,4.47s4.6-1.02,6.74-2.07c2.13-1.05,4.48-2.05,6.82-1.62,2.37.44,4.6,2.33,6.91,1.65,1.94-.57,2.96-2.88,2.65-4.87Z"/>
      <path class="cls-11" d="M130.8,24.01c-.14-1.85-1.57-4.78-4.97-4.36-1.4-.03-2.91,1.73-3.28,3.09-.36,1.36.18,2.88,1.25,3.79,1.07.91,2.58,1.23,3.96.93,1.64-.35,3.17-1.79,3.04-3.46Z"/>
    </g>
    <g>
      <path class="cls-7" d="M.72,173.48l-.52,1.39c-.32.87-.26,1.83.17,2.65l28.3,54.15c.42.81,1.17,1.41,2.05,1.64l1.6.43c.36.1.74.13,1.11.1l33.04-2.6c1.63-.13,2.92-1.44,3.01-3.08h0c.03-.6-.1-1.2-.38-1.73l-29.96-55.93c-.61-1.14-1.85-1.82-3.14-1.72l-32.46,2.55c-1.27.1-2.37.93-2.81,2.12Z"/>
      <polygon class="cls-2" points="2.79 172.71 32.81 228.83 66.83 226.16 37.04 170.02 2.79 172.71"/>
      <g>
        <path class="cls-7" d="M36.27,215.29c2.56-1.09,5.53.1,6.62,2.66,1.09,2.56-.1,5.53-2.66,6.62-2.56,1.09-5.53-.09-6.62-2.66-1.09-2.56.09-5.53,2.66-6.62Z"/>
        <path class="cls-6" d="M38.31,217.57l-.14.91c-.02.11.05.22.15.27l.17.07s.31.08.21.36c-.07.2-.58,1.45-.58,1.45,0,0-.13.33-.38.22l-.25-.1c-.09-.03-.18,0-.24.06l-.64.8c-.07.08-.06.21.02.28l.23.23s.09.07.15.09c.11.04.3.06.48.01.3-.09,1.19-.72,1.76-2.36.54-1.57.03-2.16-.09-2.31-.07-.09-.3-.2-.42-.2-.04,0-.12,0-.19,0-.12,0-.22.09-.24.21Z"/>
      </g>
      <g>
        <path class="cls-7" d="M49.48,221.71c-2.12-1.81-2.37-4.99-.56-7.11,1.81-2.12,4.99-2.37,7.11-.56,2.12,1.81,2.37,4.99.56,7.11-1.81,2.12-4.99,2.37-7.11.56Z"/>
        <path class="cls-6" d="M50.62,218.88l.88-.28c.11-.03.18-.14.17-.25v-.19s-.08-.31.22-.35c.21-.03,1.56-.12,1.56-.12,0,0,.35-.03.37.25l.02.27c0,.09.07.17.16.19l1,.22c.11.02.21-.04.25-.14l.1-.31c.02-.06.02-.12.02-.18-.02-.12-.07-.3-.2-.44-.21-.23-1.17-.75-2.89-.52-1.64.21-1.95.93-2.03,1.11-.05.11-.05.36,0,.47.02.04.05.1.09.17.05.11.18.16.29.12Z"/>
      </g>
      <path class="cls-10" d="M34.95,193.67c1.27-.89,1.65-2.68.79-4.6-1.14-2.51-3.98-4.27-6.34-3.94-2.36.34-3.35,2.64-2.21,5.15.88,1.93,2.77,3.41,4.67,3.84-6.1,1.95-2.52,9.03-2.52,9.03l16.73-1.31s-4.16-8.14-11.11-8.17Z"/>
      <path class="cls-10" d="M54.71,207.53c.02.26-6,.95-13.45,1.54-7.45.59-13.51.85-13.53.58-.02-.26,6-.95,13.46-1.54,7.45-.59,13.51-.85,13.53-.58Z"/>
    </g>
    <path class="cls-10" d="M62.69,399.38l1.1,1.82c1.23,2.04,3.02,3.69,5.16,4.75l1.9.94-1.82,1.1c-2.04,1.23-3.69,3.02-4.75,5.16l-.94,1.9-1.1-1.82c-1.23-2.04-3.02-3.69-5.16-4.75l-1.9-.94,1.82-1.1c2.04-1.23,3.69-3.02,4.75-5.16l.94-1.9Z"/>
    <path class="cls-10" d="M415.42,41.61l1.1,1.82c1.23,2.04,3.02,3.69,5.16,4.75l1.9.94-1.82,1.1c-2.04,1.23-3.69,3.02-4.75,5.16l-.94,1.9-1.1-1.82c-1.23-2.04-3.02-3.69-5.16-4.75l-1.9-.94,1.82-1.1c2.04-1.23,3.69-3.02,4.75-5.16l.94-1.9Z"/>
    <path class="cls-10" d="M427.95,69.86l.95,1.58c1.07,1.78,2.62,3.21,4.48,4.13l1.66.82-1.58.95c-1.78,1.07-3.21,2.62-4.13,4.48l-.82,1.66-.95-1.58c-1.07-1.78-2.62-3.21-4.48-4.13l-1.66-.82,1.58-.95c1.78-1.07,3.21-2.62,4.13-4.48l.82-1.66Z"/>
    <path class="cls-10" d="M41.55,378.81l.78,1.29c.87,1.45,2.14,2.61,3.65,3.36l1.35.67-1.29.78c-1.45.87-2.61,2.14-3.36,3.65l-.67,1.35-.78-1.29c-.87-1.45-2.14-2.61-3.65-3.36l-1.35-.67,1.29-.78c1.45-.87,2.61-2.14,3.36-3.65l.67-1.35Z"/>
    <path class="cls-10" d="M372.37,392.94l.78,1.29c.87,1.45,2.14,2.61,3.65,3.36l1.35.67-1.29.78c-1.45.87-2.61,2.14-3.36,3.65l-.67,1.35-.78-1.29c-.87-1.45-2.14-2.61-3.65-3.36l-1.35-.67,1.29-.78c1.45-.87,2.61-2.14,3.36-3.65l.67-1.35Z"/>
    <path class="cls-10" d="M31.9,24.23l.78,1.29c.87,1.45,2.14,2.61,3.65,3.36l1.35.67-1.29.78c-1.45.87-2.61,2.14-3.36,3.65l-.67,1.35-.78-1.29c-.87-1.45-2.14-2.61-3.65-3.36l-1.35-.67,1.29-.78c1.45-.87,2.61-2.14,3.36-3.65l.67-1.35Z"/>
    <path class="cls-10" d="M416.29,259.63l.78,1.29c.87,1.45,2.14,2.61,3.65,3.36l1.35.67-1.29.78c-1.45.87-2.61,2.14-3.36,3.65l-.67,1.35-.78-1.29c-.87-1.45-2.14-2.61-3.65-3.36l-1.35-.67,1.29-.78c1.45-.87,2.61-2.14,3.36-3.65l.67-1.35Z"/>
    <path class="cls-10" d="M28.61,117.16l.78,1.29c.87,1.45,2.14,2.61,3.65,3.36l1.35.67-1.29.78c-1.45.87-2.61,2.14-3.36,3.65l-.67,1.35-.78-1.29c-.87-1.45-2.14-2.61-3.65-3.36l-1.35-.67,1.29-.78c1.45-.87,2.61-2.14,3.36-3.65l.67-1.35Z"/>
  </g>
  <g id="Stars">
    <g>
      <path class="cls-12" d="M81.35,133.59l.72,1.2c.81,1.35,1.99,2.43,3.4,3.13l1.25.62-1.2.72c-1.35.81-2.43,1.99-3.13,3.4l-.62,1.25-.72-1.2c-.81-1.35-1.99-2.43-3.4-3.13l-1.25-.62,1.2-.72c1.35-.81,2.43-1.99,3.13-3.4l.62-1.25Z"/>
      <path class="cls-12" d="M340.92,265.29l.72,1.2c.81,1.35,1.99,2.43,3.4,3.13l1.25.62-1.2.72c-1.35.81-2.43,1.99-3.13,3.4l-.62,1.25-.72-1.2c-.81-1.35-1.99-2.43-3.4-3.13l-1.25-.62,1.2-.72c1.35-.81,2.43-1.99,3.13-3.4l.62-1.25Z"/>
      <path class="cls-12" d="M199.93,17.97l.72,1.2c.81,1.35,1.99,2.43,3.4,3.13l1.25.62-1.2.72c-1.35.81-2.43,1.99-3.13,3.4l-.62,1.25-.72-1.2c-.81-1.35-1.99-2.43-3.4-3.13l-1.25-.62,1.2-.72c1.35-.81,2.43-1.99,3.13-3.4l.62-1.25Z"/>
      <path class="cls-12" d="M368.72,130.98l.72,1.2c.81,1.35,1.99,2.43,3.4,3.13l1.25.62-1.2.72c-1.35.81-2.43,1.99-3.13,3.4l-.62,1.25-.72-1.2c-.81-1.35-1.99-2.43-3.4-3.13l-1.25-.62,1.2-.72c1.35-.81,2.43-1.99,3.13-3.4l.62-1.25Z"/>
      <path class="cls-12" d="M108.69,179.8l.53.87c.59.98,1.45,1.77,2.48,2.28l.92.45-.87.53c-.98.59-1.77,1.45-2.28,2.48l-.45.92-.53-.87c-.59-.98-1.45-1.77-2.48-2.28l-.92-.45.87-.53c.98-.59,1.77-1.45,2.28-2.48l.45-.92Z"/>
      <path class="cls-12" d="M132.61,291.87l.53.87c.59.98,1.45,1.77,2.48,2.28l.92.45-.87.53c-.98.59-1.77,1.45-2.28,2.48l-.45.92-.53-.87c-.59-.98-1.45-1.77-2.48-2.28l-.92-.45.87-.53c.98-.59,1.77-1.45,2.28-2.48l.45-.92Z"/>
      <path class="cls-12" d="M360.87,97.04l.53.87c.59.98,1.45,1.77,2.48,2.28l.92.45-.87.53c-.98.59-1.77,1.45-2.28,2.48l-.45.92-.53-.87c-.59-.98-1.45-1.77-2.48-2.28l-.92-.45.87-.53c.98-.59,1.77-1.45,2.28-2.48l.45-.92Z"/>
      <path class="cls-12" d="M61.87,156.16l.53.87c.59.98,1.45,1.77,2.48,2.28l.92.45-.87.53c-.98.59-1.77,1.45-2.28,2.48l-.45.92-.53-.87c-.59-.98-1.45-1.77-2.48-2.28l-.92-.45.87-.53c.98-.59,1.77-1.45,2.28-2.48l.45-.92Z"/>
      <path class="cls-12" d="M386.16,102.42l.3.5c.34.56.83,1.02,1.42,1.31l.52.26-.5.3c-.56.34-1.02.83-1.31,1.42l-.26.52-.3-.5c-.34-.56-.83-1.02-1.42-1.31l-.52-.26.5-.3c.56-.34,1.02-.83,1.31-1.42l.26-.52Z"/>
      <path class="cls-12" d="M367.46,246.39l.3.5c.34.56.83,1.02,1.42,1.31l.52.26-.5.3c-.56.34-1.02.83-1.31,1.42l-.26.52-.3-.5c-.34-.56-.83-1.02-1.42-1.31l-.52-.26.5-.3c.56-.34,1.02-.83,1.31-1.42l.26-.52Z"/>
      <path class="cls-12" d="M238.15,6.73l.3.5c.34.56.83,1.02,1.42,1.31l.52.26-.5.3c-.56.34-1.02.83-1.31,1.42l-.26.52-.3-.5c-.34-.56-.83-1.02-1.42-1.31l-.52-.26.5-.3c.56-.34,1.02-.83,1.31-1.42l.26-.52Z"/>
      <path class="cls-12" d="M180.87,32.26l.3.5c.34.56.83,1.02,1.42,1.31l.52.26-.5.3c-.56.34-1.02.83-1.31,1.42l-.26.52-.3-.5c-.34-.56-.83-1.02-1.42-1.31l-.52-.26.5-.3c.56-.34,1.02-.83,1.31-1.42l.26-.52Z"/>
      <path class="cls-12" d="M139.01,305.01l.3.5c.34.56.83,1.02,1.42,1.31l.52.26-.5.3c-.56.34-1.02.83-1.31,1.42l-.26.52-.3-.5c-.34-.56-.83-1.02-1.42-1.31l-.52-.26.5-.3c.56-.34,1.02-.83,1.31-1.42l.26-.52Z"/>
    </g>
  </g>
  <g id="Light_Bulb">
    <g>
      <path class="cls-8" d="M286.15,378.83l-123.98-.29c-5.14-.01-9.3-3.63-9.29-8.08h0c0-4.45,4.18-8.04,9.32-8.03l123.98.29c5.14.01,9.3,3.63,9.29,8.08h0c-.01,4.45-4.18,8.05-9.32,8.03Z"/>
      <path class="cls-8" d="M286.15,359.27l-123.98-.29c-5.14-.01-9.3-3.63-9.29-8.08h0c0-4.45,4.18-8.04,9.32-8.03l123.98.29c5.14.01,9.3,3.63,9.29,8.08h0c-.01,4.45-4.18,8.05-9.32,8.03Z"/>
      <path class="cls-8" d="M281.17,381.75l-113.52-.26c-4.71-.01-8.53,3.79-8.54,8.5-.01,4.7,3.79,8.53,8.5,8.54l12.46.03,16.46,31.5c1.88,3.6,5.61,5.86,9.67,5.88l40.56.09c4.11,0,7.87-2.28,9.75-5.93l16.14-31.33,8.47.02c4.7.01,8.53-3.79,8.54-8.5.01-4.71-3.79-8.53-8.5-8.54Z"/>
      <path class="cls-3" d="M320.16,249.68s0,0,.01,0h0s-.31.47-.91,1.37c-.61.9-1.52,2.23-2.7,3.98-.6.87-1.26,1.85-2,2.93-.72,1.09-1.43,2.34-2.25,3.66-.8,1.33-1.67,2.76-2.6,4.3-.95,1.52-1.77,3.25-2.75,5.03-.48.89-.97,1.81-1.47,2.76-.25.47-.51.95-.77,1.44-.23.5-.47,1-.71,1.51-.96,2.04-1.96,4.19-3.02,6.44-.94,2.3-1.92,4.69-2.94,7.19-.93,2.53-1.85,5.18-2.8,7.93-1.72,5.56-3.43,11.58-4.64,18.11-1.2,6.52-2.14,13.55-2.02,20.95v.17s-.16,0-.16,0c-35.99.02-80.95.04-132.35.07h-.21s-.02-.21-.02-.21c-1.22-14.77-5.26-30.03-11.94-44.75-3.33-7.37-7.28-14.61-11.77-21.67-2.24-3.53-4.62-7.01-7.15-10.41-2.48-3.43-5.29-6.66-8.04-9.99l-.33-.4h.53l-.2.4c-11.91-15.29-20.79-34.02-24.69-54.41-.54-2.54-.87-5.12-1.26-7.7-.16-1.29-.28-2.6-.43-3.9l-.2-1.95-.13-1.96c-.07-1.31-.19-2.62-.23-3.94-.03-1.32-.06-2.64-.08-3.96-.06-1.32.04-2.64.05-3.97.04-1.32.05-2.65.12-3.98.61-10.61,2.48-21.27,5.7-31.61,9.29-29.61,29.33-54.67,54.09-70.12,6.18-3.89,12.62-7.23,19.23-10,6.6-2.79,13.42-4.88,20.25-6.47,13.68-3.21,27.59-3.94,40.94-2.75,6.67.66,13.23,1.73,19.56,3.33,6.33,1.64,12.45,3.68,18.32,6.12,5.84,2.51,11.42,5.37,16.71,8.53,5.24,3.25,10.21,6.74,14.83,10.51,9.18,7.61,17.09,16.12,23.45,25.19,6.45,9.01,11.35,18.53,15.01,27.98.98,2.34,1.69,4.75,2.51,7.08.77,2.35,1.37,4.72,2.05,7.04.53,2.35,1.11,4.66,1.57,6.97.21,1.16.41,2.3.61,3.44.2,1.14.42,2.27.54,3.41,1.26,9.05,1.54,17.7,1.06,25.73-.93,16.11-4.75,29.64-8.94,40.14-2.08,5.27-4.38,9.76-6.42,13.62-2.12,3.81-4.06,6.96-5.71,9.44-.84,1.23-1.58,2.32-2.22,3.25-.67.9-1.24,1.66-1.69,2.27-.89,1.19-1.29,1.72-1.4,1.86.1-.14.49-.67,1.34-1.86.45-.62,1.01-1.4,1.68-2.31.63-.94,1.36-2.03,2.2-3.27,1.64-2.49,3.56-5.64,5.67-9.45,2.02-3.86,4.3-8.35,6.36-13.62,4.16-10.5,7.93-24.01,8.83-40.09.46-8.02.18-16.65-1.1-25.67-.12-1.13-.34-2.26-.54-3.4-.2-1.14-.41-2.28-.62-3.43-.46-2.3-1.04-4.6-1.57-6.94-.68-2.31-1.28-4.67-2.05-7.01-.82-2.33-1.53-4.73-2.51-7.06-3.66-9.42-8.56-18.9-15-27.88-6.35-9.03-14.23-17.51-23.39-25.09-4.61-3.75-9.57-7.23-14.79-10.47-5.28-3.15-10.84-5.99-16.66-8.49-5.85-2.43-11.96-4.46-18.26-6.09-6.32-1.6-12.85-2.66-19.49-3.31-13.3-1.18-27.16-.44-40.78,2.76-6.81,1.59-13.59,3.67-20.17,6.45-6.58,2.76-13,6.09-19.15,9.96-24.66,15.4-44.61,40.36-53.86,69.85-3.21,10.3-5.07,20.92-5.68,31.48-.07,1.32-.08,2.64-.12,3.96-.01,1.32-.11,2.64-.05,3.95.03,1.32.06,2.63.08,3.94.03,1.31.15,2.62.23,3.92l.12,1.96.2,1.95c.14,1.3.26,2.59.42,3.88.39,2.57.72,5.14,1.26,7.67,3.88,20.31,12.72,38.97,24.58,54.2l.31.4h-.51l.2-.4c2.73,3.31,5.54,6.54,8.04,10,2.54,3.41,4.92,6.9,7.17,10.44,4.49,7.08,8.46,14.34,11.79,21.73,6.7,14.77,10.75,30.09,11.96,44.91l-.23-.21c51.41.03,96.36.05,132.35.07l-.16.17c-.11-7.46.84-14.48,2.06-21.02,1.23-6.55,2.96-12.57,4.69-18.13.96-2.75,1.89-5.41,2.83-7.94,1.03-2.5,2.01-4.9,2.96-7.2,1.06-2.25,2.07-4.39,3.04-6.43.24-.51.48-1.02.71-1.51.26-.49.52-.96.77-1.44.51-.94,1-1.86,1.48-2.76.99-1.77,1.82-3.5,2.77-5.02.94-1.53,1.81-2.96,2.62-4.29.82-1.32,1.54-2.57,2.27-3.65.74-1.08,1.42-2.05,2.02-2.92,1.2-1.74,2.12-3.06,2.74-3.96.62-.89.95-1.34.95-1.34h0-.01Z"/>
      <path class="cls-3" d="M108.31,214.6s-.05-.09-.11-.28c-.07-.22-.17-.5-.29-.84-.25-.78-.61-1.87-1.06-3.26-.23-.71-.48-1.5-.75-2.36-.25-.87-.47-1.83-.73-2.85-.49-2.06-1.17-4.38-1.59-7.01-.24-1.31-.5-2.68-.76-4.11-.26-1.43-.39-2.94-.6-4.49-.47-3.1-.62-6.45-.86-9.97-.25-7.04-.01-14.81,1.04-22.88,1.14-8.06,2.98-15.61,5.1-22.33,1.16-3.33,2.2-6.51,3.48-9.38.62-1.44,1.15-2.86,1.78-4.17.64-1.31,1.25-2.56,1.83-3.76,1.11-2.42,2.38-4.48,3.4-6.33.53-.92.99-1.78,1.47-2.56.49-.76.95-1.45,1.36-2.07.81-1.22,1.44-2.18,1.89-2.86.21-.3.37-.55.5-.74.12-.16.18-.25.19-.24,0,0-.04.1-.14.27-.12.2-.27.45-.46.76-.43.7-1.04,1.67-1.81,2.91-.4.63-.84,1.33-1.32,2.09-.46.78-.91,1.65-1.43,2.57-1,1.86-2.24,3.92-3.33,6.35-.57,1.2-1.17,2.45-1.8,3.76-.62,1.31-1.14,2.73-1.74,4.17-1.26,2.86-2.28,6.04-3.42,9.36-2.08,6.7-3.9,14.23-5.04,22.26-1.05,8.04-1.29,15.77-1.08,22.79.22,3.5.36,6.84.8,9.93.2,1.55.32,3.05.57,4.48.25,1.43.5,2.8.73,4.1.4,2.63,1.05,4.95,1.51,7.01.25,1.03.45,1.99.69,2.86.26.86.5,1.65.71,2.37.41,1.4.73,2.5.97,3.29.1.35.18.64.24.86.05.19.07.3.06.3Z"/>
      <path class="cls-3" d="M146.5,80.03c.09.11-2.99,2.92-6.88,6.28-3.9,3.36-7.13,6-7.22,5.89-.09-.11,2.99-2.92,6.88-6.28,3.89-3.36,7.13-6,7.22-5.89Z"/>
      <path class="cls-3" d="M321.53,229.11s.02-.08.09-.23c.08-.17.18-.39.3-.65.29-.6.69-1.42,1.19-2.46.26-.54.55-1.13.87-1.77.31-.65.61-1.38.95-2.15.66-1.55,1.49-3.28,2.22-5.28.38-.99.78-2.03,1.2-3.1.41-1.08.76-2.23,1.17-3.41.84-2.35,1.53-4.92,2.3-7.62,1.41-5.42,2.65-11.47,3.46-17.89.75-6.43.98-12.6.91-18.2-.11-2.8-.16-5.46-.42-7.95-.11-1.24-.18-2.44-.32-3.59-.15-1.15-.29-2.25-.42-3.3-.23-2.11-.62-3.99-.89-5.65-.15-.83-.27-1.6-.41-2.31-.15-.7-.3-1.34-.42-1.93-.24-1.13-.43-2.02-.57-2.67-.05-.28-.1-.51-.14-.7-.03-.16-.04-.24-.03-.24s.04.08.08.23c.05.18.11.41.19.69.16.65.39,1.53.67,2.65.14.58.3,1.22.47,1.92.16.71.29,1.48.45,2.31.3,1.66.72,3.54.97,5.65.15,1.05.3,2.16.46,3.31.15,1.15.23,2.36.35,3.6.28,2.49.35,5.16.47,7.97.1,5.62-.12,11.82-.87,18.27-.81,6.45-2.07,12.51-3.51,17.95-.79,2.7-1.5,5.28-2.36,7.63-.42,1.18-.78,2.33-1.2,3.41-.43,1.08-.84,2.11-1.23,3.1-.75,1.99-1.6,3.72-2.29,5.26-.36.77-.67,1.49-.99,2.13-.33.64-.64,1.22-.91,1.75-.54,1.02-.97,1.83-1.28,2.42-.14.25-.25.46-.34.62-.08.14-.12.21-.13.2Z"/>
    </g>
  </g>
  <g id="Robot">
    <g>
      <path class="cls-12" d="M280.07,106.69c-6.84-3.92-13.99-7.49-21.68-9.19-1.08-.24-2.19-.44-3.28-.27-1.09.17-2.17.77-2.65,1.76-.66,1.37-.02,3,.82,4.27,1.85,2.79,4.62,4.83,7.41,6.68,7.64,5.07,15.86,9.2,24.05,13.31-1.04-5.83-3.08-10.85-4.65-16.56"/>
      <path class="cls-12" d="M332.52,121.76c2.23,7.56,4.93,15.08,9.31,21.63.61.92,1.28,1.83,2.18,2.47.9.63,2.1.95,3.14.56,1.42-.53,2.09-2.16,2.36-3.65.59-3.3,0-6.68-.74-9.95-2.02-8.94-5.1-17.61-8.17-26.25-3.28,4.93-5.27,9.97-8.08,15.18"/>
      <g>
        <path class="cls-12" d="M279.97,106.54s.54,52.35,29.92,53.38c29.38,1.02,30.61-53,30.61-53.38,0,0-3.47-7.81-30.26-7.5-26.79.31-30.26,7.5-30.26,7.5Z"/>
        <g>
          <g>
            <path class="cls-3" d="M319,127.33c-.41,5.58-5.26,9.77-10.84,9.36-5.58-.41-9.77-5.26-9.36-10.84.41-5.58,5.26-9.77,10.84-9.36s9.77,5.26,9.36,10.84Z"/>
            <path class="cls-6" d="M316.26,127.13c-.3,4.07-3.83,7.12-7.9,6.82-4.07-.3-7.12-3.83-6.82-7.9.3-4.07,3.83-7.12,7.9-6.82s7.12,3.83,6.82,7.9Z"/>
          </g>
          <path class="cls-12" d="M312.7,128.47s-.05-.45-.07-1.22c-.02-.76-.03-1.85-.03-3.18l.08.15c-1.11-.64-2.39-1.4-3.8-2.22h.21c-1.19.67-2.48,1.4-3.83,2.16-.1.17.14-.23.11-.19h0s0,0,0,0h0s0,.03,0,.03v.04s0,.07,0,.07v.14s0,.29,0,.29v.57c-.02.38-.02.75-.03,1.12-.01.73-.03,1.45-.04,2.13l-.1-.19c1.39.85,2.65,1.62,3.75,2.29h-.17c1.17-.63,2.14-1.14,2.82-1.48.68-.35,1.08-.53,1.1-.52.03.02-.31.24-.96.63-.65.39-1.6.96-2.8,1.65l-.08.05-.09-.05c-1.11-.65-2.39-1.4-3.8-2.22l-.1-.06v-.12c0-.69.02-1.4.02-2.13,0-.37,0-.74.01-1.12v-.57s.01-.29.01-.29v-.14s0-.07,0-.07v-.04s0-.02,0-.02h0s0-.01,0-.01h0s.22-.37.12-.2c1.35-.75,2.65-1.47,3.84-2.13l.11-.06.1.06c1.39.85,2.66,1.62,3.75,2.29l.08.05v.09c-.04,1.38-.09,2.49-.13,3.25-.04.76-.07,1.16-.1,1.15Z"/>
        </g>
        <path class="cls-3" d="M279.85,106.49s.05.01.15.05c.11.04.26.09.44.15.4.14.97.34,1.7.6.37.13.78.28,1.23.44.45.15.95.29,1.48.46,1.07.32,2.27.73,3.63,1.05.68.17,1.39.36,2.13.55.74.19,1.53.33,2.33.5,1.61.37,3.35.62,5.18.92,3.67.5,7.73.84,12.01.86,4.28-.02,8.34-.36,12.01-.86,1.83-.3,3.57-.55,5.18-.91.8-.17,1.59-.31,2.33-.5.74-.19,1.45-.37,2.13-.55,1.36-.32,2.57-.73,3.63-1.05.53-.17,1.03-.31,1.48-.46.45-.16.86-.31,1.23-.44.73-.26,1.3-.46,1.7-.6.19-.06.34-.11.44-.15.1-.03.15-.05.15-.04,0,0-.05.03-.15.06-.11.04-.25.1-.44.17-.4.15-.96.36-1.69.64-.37.14-.78.29-1.22.46-.45.16-.95.3-1.48.48-1.06.33-2.26.75-3.63,1.08-.68.18-1.39.37-2.13.56-.74.19-1.53.33-2.33.51-1.61.38-3.35.63-5.18.94-3.68.51-7.75.86-12.04.87-4.28-.02-8.36-.37-12.03-.88-1.83-.3-3.58-.56-5.18-.94-.81-.18-1.59-.32-2.33-.51-.74-.19-1.45-.38-2.13-.56-1.36-.33-2.56-.75-3.63-1.08-.53-.17-1.03-.32-1.48-.48-.45-.17-.85-.32-1.22-.46-.73-.27-1.29-.49-1.69-.64-.18-.07-.33-.13-.44-.17-.1-.04-.15-.06-.15-.06Z"/>
        <g class="cls-4">
          <path d="M279.97,106.54s3.47-7.2,30.26-7.5c26.79-.31,30.26,7.5,30.26,7.5,0,0-27.03,13.33-60.53,0Z"/>
        </g>
        <path class="cls-6" d="M289.18,143.79s-.02-.02-.05-.08c-.04-.06-.08-.14-.13-.24-.12-.23-.28-.53-.48-.92-.1-.2-.22-.42-.34-.67-.12-.25-.24-.52-.38-.81-.27-.58-.58-1.24-.87-1.99-.15-.37-.31-.76-.48-1.17-.15-.41-.31-.84-.48-1.28-.34-.88-.63-1.85-.98-2.86-.63-2.03-1.24-4.29-1.78-6.69-.53-2.4-.93-4.7-1.25-6.81-.29-2.11-.53-4.01-.65-5.61-.08-.8-.12-1.53-.16-2.16-.04-.64-.07-1.19-.09-1.64-.01-.44-.03-.78-.03-1.04,0-.11,0-.2,0-.27,0-.06,0-.09,0-.09s0,.03.02.09c0,.07.01.16.02.27.02.25.04.6.07,1.03.03.45.07,1,.12,1.63.05.64.11,1.36.19,2.16.15,1.6.39,3.5.7,5.6.33,2.1.74,4.4,1.26,6.79.54,2.39,1.14,4.64,1.76,6.68.34,1.01.62,1.98.96,2.86.16.44.31.87.46,1.29.16.41.32.8.47,1.17.29.75.58,1.41.84,1.99.13.29.25.56.36.81.12.24.23.47.33.67.19.39.34.7.45.93.04.1.08.18.11.24.02.06.04.09.03.09Z"/>
        <path class="cls-6" d="M303.34,156.38s-.17,0-.47-.06c-.3-.05-.73-.15-1.25-.3-.52-.15-1.13-.38-1.78-.68-.65-.31-1.34-.7-2.02-1.17-.68-.48-1.28-1-1.79-1.5-.5-.51-.93-1-1.25-1.44-.32-.44-.56-.81-.71-1.07-.15-.26-.22-.41-.21-.42.03-.02.37.56,1.03,1.4.33.42.76.9,1.26,1.4.51.49,1.11,1,1.77,1.47.67.47,1.35.85,1.98,1.17.64.31,1.23.55,1.74.72,1.02.34,1.68.46,1.67.5Z"/>
        <path class="cls-6" d="M309.46,137.91s-.1.02-.28.03c-.18,0-.46.04-.81.02-.7,0-1.72-.11-2.93-.47-.6-.18-1.24-.44-1.91-.77-.65-.35-1.34-.75-1.98-1.28-1.31-1.03-2.52-2.47-3.3-4.24-.76-1.78-.98-3.65-.84-5.31.06-.83.23-1.61.42-2.32.22-.71.46-1.35.74-1.92.56-1.13,1.17-1.95,1.65-2.46.22-.27.44-.44.57-.57.13-.13.21-.19.21-.18.02.02-.27.28-.72.81-.46.53-1.04,1.35-1.58,2.47-.27.56-.5,1.2-.71,1.9-.18.71-.34,1.47-.39,2.29-.13,1.63.1,3.47.84,5.21.77,1.73,1.95,3.15,3.23,4.17.63.52,1.3.92,1.94,1.28.65.33,1.28.6,1.87.78,1.18.37,2.19.51,2.89.53.69.03,1.08,0,1.08.03Z"/>
        <g>
          <path class="cls-12" d="M308.2,52.1s-25.61-.31-29.67,21.88c-4.05,22.18,17.61,22.6,23.84,23.02,2.83.19,8.87.21,14.2.12,11.81-.2,20.15-2.49,22.99-13.44.33-1.28.55-2.59.64-3.92.75-12.01-7.38-28.24-32-27.65Z"/>
          <path class="cls-3" d="M326.78,85.89l-37.21.58c-3.9.06-7.11-3.05-7.17-6.95h0c-.06-3.9,3.05-7.11,6.95-7.17l37.21-.58c3.9-.06,7.11,3.05,7.17,6.95h0c.06,3.9-3.05,7.11-6.95,7.17Z"/>
          <path class="cls-6" d="M297.29,78.75c-.24,1.23-1.43,2.03-2.66,1.79-1.23-.24-2.03-1.43-1.79-2.66.24-1.23,1.43-2.03,2.66-1.79s2.03,1.43,1.79,2.66Z"/>
          <path class="cls-6" d="M323.29,78.33c-.24,1.23-1.43,2.03-2.66,1.79-1.23-.24-2.03-1.43-1.79-2.66.24-1.23,1.43-2.03,2.66-1.79s2.03,1.43,1.79,2.66Z"/>
          <path class="cls-6" d="M303.8,77.7c.17.02.08.81.58,1.86.24.52.64,1.1,1.2,1.58.56.49,1.31.86,2.13.94.82.07,1.63-.17,2.27-.54.64-.38,1.14-.87,1.47-1.34.68-.95.74-1.74.91-1.73.07,0,.13.2.13.58,0,.37-.11.92-.41,1.53-.3.61-.83,1.26-1.59,1.77-.75.51-1.77.86-2.87.77-1.09-.11-2.03-.64-2.68-1.27-.66-.64-1.06-1.38-1.24-2.03-.19-.65-.2-1.21-.13-1.58.07-.37.17-.55.24-.54Z"/>
          <path class="cls-6" d="M304.96,53.76s-.03,0-.09.02c-.07,0-.16.01-.27.02-.24.02-.59.03-1.04.09-.9.08-2.2.26-3.78.63-1.58.36-3.42.96-5.36,1.85-1.94.9-3.96,2.12-5.87,3.69-1.9,1.58-3.49,3.33-4.74,5.07-1.25,1.74-2.18,3.43-2.84,4.91-.66,1.48-1.08,2.72-1.33,3.59-.14.43-.21.78-.28,1-.03.1-.05.19-.08.26-.02.06-.03.09-.03.09s0-.03.01-.09c.01-.07.03-.16.06-.27.06-.23.12-.58.24-1.02.23-.88.63-2.14,1.28-3.63.64-1.49,1.57-3.21,2.82-4.96,1.25-1.75,2.85-3.53,4.76-5.12,1.92-1.58,3.97-2.81,5.93-3.7,1.96-.9,3.82-1.48,5.41-1.82,1.59-.35,2.9-.51,3.81-.56.45-.04.81-.04,1.05-.05.11,0,.2,0,.27,0,.06,0,.09,0,.09,0Z"/>
          <path class="cls-6" d="M279.89,84.49s-.18-.29-.36-.8c-.19-.51-.39-1.23-.52-2.05-.13-.82-.15-1.57-.13-2.11.02-.54.08-.87.1-.87.07,0-.03,1.34.23,2.95.25,1.61.74,2.86.68,2.88Z"/>
          <path class="cls-6" d="M320.63,70.47c0,.06-4.9.1-10.95.1s-10.95-.05-10.95-.1,4.9-.1,10.95-.1,10.95.05,10.95.1Z"/>
          <path class="cls-6" d="M301.95,95.43s-.06.02-.18.03c-.15.01-.32.03-.53.05-.23.02-.52.04-.85.04-.33,0-.71.03-1.12.01-.83,0-1.82-.06-2.92-.18-1.09-.13-2.29-.32-3.53-.61-1.24-.3-2.4-.66-3.43-1.03-1.03-.39-1.95-.78-2.69-1.15-.38-.17-.71-.36-1-.51-.29-.15-.54-.3-.74-.42-.18-.11-.33-.2-.46-.28-.1-.07-.16-.1-.15-.11s.06.02.17.07c.13.07.29.15.48.24.2.11.46.24.75.38.3.14.63.32,1.01.48.75.35,1.66.73,2.69,1.1,1.03.36,2.19.71,3.42,1.01,1.23.29,2.42.48,3.51.62,1.09.13,2.07.2,2.9.22.41.02.79.01,1.12.02.33,0,.61,0,.85,0,.21,0,.39,0,.53,0,.12,0,.19,0,.19.01Z"/>
        </g>
        <path class="cls-6" d="M333.27,109.73s-.03.02-.1.04c-.08.03-.17.06-.29.11-.27.1-.64.23-1.11.4-.48.17-1.07.38-1.77.58-.7.21-1.48.47-2.37.69-.44.12-.91.24-1.39.37-.48.13-.99.23-1.52.35-1.05.25-2.18.45-3.37.68-2.39.4-5.03.74-7.82.92-2.79.16-5.46.15-7.88.04-1.21-.08-2.36-.14-3.43-.26-.54-.06-1.05-.1-1.55-.16-.49-.07-.97-.13-1.42-.19-.91-.11-1.72-.27-2.44-.39-.72-.12-1.33-.25-1.83-.36-.49-.11-.87-.19-1.15-.26-.12-.03-.22-.05-.3-.07-.07-.02-.1-.03-.1-.03,0,0,.04,0,.1.01.08.01.18.03.3.05.28.05.67.13,1.16.22.5.1,1.12.22,1.83.32.72.11,1.53.26,2.44.36.45.06.93.12,1.42.18.49.06,1.01.1,1.55.15,1.07.12,2.22.17,3.42.24,2.41.1,5.07.1,7.86-.06,2.78-.18,5.42-.51,7.8-.9,1.19-.22,2.32-.41,3.37-.66.52-.12,1.03-.22,1.52-.34.48-.12.95-.24,1.39-.35.89-.21,1.68-.46,2.38-.66.7-.19,1.3-.39,1.78-.55.48-.15.85-.27,1.12-.36.12-.04.22-.06.29-.09.07-.02.1-.03.1-.02Z"/>
      </g>
    </g>
  </g>
  <g id="Rocket">
    <g>
      <g>
        <path class="cls-12" d="M89.94,281.87l.07,13.87s23.03-13.04,16.27-25.45l-16.34,11.58Z"/>
        <path class="cls-12" d="M92.19,249.83s-16.57-6.07-29.17,5.21l12.92,7.29,16.25-12.5Z"/>
        <g>
          <path class="cls-11" d="M75.93,262.33c.53.69,14.01,19.54,14.01,19.54l35.22-24.96c6.15-4.36,7.25-13.05,2.38-18.8h0c-4.44-5.25-12.22-6.08-17.67-1.89l-33.94,26.12Z"/>
          <path class="cls-3" d="M75.93,262.33s.09-.08.28-.24c.22-.17.51-.41.88-.7.81-.63,1.96-1.54,3.44-2.7,3.04-2.36,7.39-5.75,12.76-9.93,2.71-2.1,5.67-4.4,8.85-6.86,1.59-1.23,3.24-2.51,4.94-3.82.85-.66,1.71-1.32,2.59-2,.9-.65,1.86-1.29,2.93-1.71.52-.25,1.08-.39,1.63-.59.57-.12,1.13-.29,1.72-.34,1.16-.18,2.37-.16,3.56,0,2.38.32,4.74,1.33,6.65,2.95.98.78,1.78,1.78,2.51,2.82.69,1.07,1.24,2.24,1.62,3.48.73,2.48.72,5.22-.09,7.75-.79,2.41-2.25,4.59-4.19,6.13-1.96,1.5-3.93,2.82-5.85,4.2-3.85,2.72-7.57,5.35-11.12,7.86-7.1,5.01-13.53,9.55-19,13.4l-.16.11-.11-.15c-4.29-6.06-7.77-10.97-10.2-14.4-1.18-1.67-2.09-2.98-2.74-3.9-.3-.43-.53-.76-.7-1.01-.15-.23-.23-.34-.22-.34,0,0,.1.12.27.35.18.25.43.58.75,1.01.67.91,1.62,2.21,2.84,3.88,2.45,3.38,5.96,8.22,10.3,14.19l-.26-.04c5.45-3.88,11.86-8.44,18.94-13.49,3.55-2.52,7.26-5.16,11.1-7.88,1.9-1.38,3.92-2.72,5.82-4.18,1.87-1.48,3.27-3.57,4.03-5.89.78-2.43.79-5.06.09-7.45-.36-1.19-.89-2.31-1.56-3.34-.7-1-1.47-1.96-2.41-2.71-1.83-1.56-4.09-2.54-6.39-2.85-1.15-.15-2.3-.18-3.43,0-.57.05-1.11.21-1.66.32-.53.18-1.07.32-1.57.56-2.06.83-3.68,2.36-5.4,3.62-1.69,1.29-3.33,2.55-4.92,3.77-3.18,2.43-6.14,4.69-8.85,6.76-5.42,4.12-9.81,7.46-12.88,9.79-1.52,1.14-2.7,2.04-3.53,2.67-.39.29-.7.52-.93.69-.21.16-.33.24-.34.23Z"/>
        </g>
        <path class="cls-12" d="M92.81,261.25l-22.01,15.83s.95,2.42,1.55,2.17c.51-.21,17.08-11.5,22.46-15.16.88-.6,1.01-1.84.28-2.61h0c-.6-.64-1.57-.73-2.28-.22Z"/>
        <g>
          <path class="cls-6" d="M115.65,251.32c.26,4.06-2.81,7.56-6.87,7.82-4.06.26-7.56-2.81-7.82-6.87s2.81-7.56,6.87-7.82,7.56,2.81,7.82,6.87Z"/>
          <path class="cls-3" d="M115.65,251.32c-.06,0-.07-.65-.44-1.75-.36-1.07-1.21-2.63-2.94-3.75-.85-.55-1.91-.99-3.1-1.12-1.18-.12-2.5,0-3.72.57-1.22.53-2.36,1.46-3.13,2.7-.8,1.22-1.19,2.74-1.11,4.28.11,1.54.7,3,1.65,4.11.92,1.12,2.17,1.9,3.45,2.27,1.28.4,2.6.36,3.76.09,1.17-.28,2.16-.85,2.93-1.51,1.57-1.34,2.21-2.99,2.43-4.1.23-1.13.15-1.79.21-1.79.02,0,.04.16.06.47.03.31.02.77-.08,1.36-.17,1.15-.78,2.89-2.39,4.33-.8.7-1.84,1.33-3.06,1.64-1.22.3-2.62.37-3.99-.05-1.37-.38-2.71-1.2-3.7-2.4-1.02-1.18-1.65-2.74-1.77-4.39-.09-1.65.34-3.28,1.19-4.58.83-1.31,2.05-2.3,3.36-2.86,1.31-.59,2.7-.7,3.95-.56,1.26.15,2.37.64,3.25,1.24,1.79,1.22,2.61,2.87,2.93,3.99.17.57.24,1.03.25,1.34.02.31.02.47,0,.47Z"/>
        </g>
      </g>
      <path class="cls-12" d="M126.81,255.51c11.83-11.06,9.72-23.87,9.72-23.87-15.91-4.18-26.65,4.58-26.65,4.58,10.59,1.49,16.26,7.9,16.93,19.3Z"/>
    </g>
  </g>
  <g id="Character">
    <g>
      <g>
        <path class="cls-9" d="M252.46,208.43l4.08,37.77,24.32,8.11.99,11.76-34.33-2.3s-10.58.26-12.88-13.68l-.56-36.64,18.38-5.01Z"/>
        <g>
          <path class="cls-9" d="M302.94,265.87c-.45.51-1.17.73-1.82.5-.13-.05-.26-.11-.39-.19-.86-.55-.27-2.43-.27-2.43l-4.29-1.92s-6.82,2.22-9.55,4.16c-2.73,1.94-7.49-1.47-7.49-1.47l.69-10.04,10.22-5.28s-.62.31.31-.93c.94-1.25,3.39-.03,3.39-.03.59-.58,2.34-.38,2.34-.38l7.02,2.75c1.45.57,2.56,1.76,3.02,3.24l1.78,5.65s.7,3.92.22,4.66c-.72,1.12-1.94.51-1.94.51,0,0-.96,2.2-1.58,2.12-.62-.08-1.68-.9-1.68-.9h0Z"/>
          <path class="cls-5" d="M288.62,264.87s.18-.06.52-.21c.38-.17.86-.38,1.47-.65,1.29-.54,3.19-1.3,5.62-2.02h-.11c1.28.57,2.72,1.23,4.28,1.94l-.1-.23c-.11.36-.18.73-.21,1.12-.02.38,0,.81.22,1.21.12.2.33.35.52.43.19.1.4.18.62.2.44.05.9-.07,1.28-.32.09-.06.18-.14.26-.21l.06-.06.03-.03v-.02s.02,0,.02,0c.06,0-.55.05-.29.03h0s0,0,0,0l.13.1c.17.12.34.24.52.36.18.11.37.22.57.32.1.05.21.09.32.12.11.03.24.07.44.03.3-.11.45-.3.6-.48.14-.18.27-.37.39-.56.23-.38.43-.78.62-1.19l-.31.11c.55.26,1.28.3,1.82-.13.25-.2.48-.47.55-.82.07-.32.07-.61.07-.91-.02-1.18-.19-2.35-.38-3.55h0s0-.03,0-.03c-.3-.96-.62-1.98-.95-3.02-.2-.64-.4-1.28-.6-1.91-.21-.62-.36-1.29-.72-1.89-.34-.59-.8-1.11-1.34-1.51-.53-.42-1.18-.65-1.74-.87-2.33-.9-4.55-1.76-6.62-2.57h-.03s-.03-.01-.03-.01c-.44-.04-.86-.04-1.28,0-.42.05-.86.12-1.23.45h.27c-.68-.53-1.57-.77-2.36-.5-.79.27-1.29.9-1.63,1.53l.08-.08c-2.93,1.5-5.33,2.73-7.04,3.61-.79.42-1.43.75-1.9,1.01-.43.24-.66.37-.65.38,0,.02.25-.09.7-.29.49-.23,1.14-.54,1.95-.92,1.73-.84,4.15-2.02,7.11-3.47l.05-.02.03-.06c.31-.55.79-1.13,1.43-1.32.64-.22,1.41,0,1.98.43l.14.11.13-.12c.22-.2.61-.29.99-.33.38-.04.79-.03,1.19.01h-.05c2.07.8,4.28,1.68,6.61,2.59.59.23,1.15.44,1.63.82.49.36.9.83,1.21,1.37.32.53.46,1.16.67,1.79.2.63.4,1.27.6,1.91.33,1.03.65,2.05.95,3.02v-.03c.19,1.17.35,2.34.38,3.47,0,.28,0,.56-.06.8-.03.21-.19.41-.38.56-.36.3-.91.28-1.33.09l-.22-.1-.09.21c-.18.39-.37.78-.59,1.14-.21.34-.49.75-.72.84-.01,0-.09,0-.19-.03-.09-.02-.18-.06-.27-.1-.18-.08-.35-.18-.53-.28-.17-.11-.34-.22-.5-.34l-.12-.09h0s0,0,0,0c.26-.02-.35.03-.29.03h0s-.01.01-.01.01l-.02.02-.05.05c-.07.06-.13.12-.21.17-.29.2-.65.3-.99.26-.17-.02-.33-.07-.49-.16-.17-.07-.28-.15-.36-.28-.31-.56-.16-1.37,0-2l.04-.17-.15-.06c-1.57-.69-3.02-1.32-4.3-1.89l-.06-.02-.05.02c-2.45.77-4.33,1.57-5.61,2.17-.63.3-1.12.55-1.44.73-.32.18-.48.28-.48.29Z"/>
        </g>
        <path class="cls-5" d="M294.31,251.11s.74.6,2.14,1.31c1.39.7,3.44,1.51,5.85,2.01l-.2-.23c.03.39.06.8.11,1.21.34,2.75,1.29,5.1,2.17,6.66.44.79.86,1.38,1.16,1.78.31.4.5.6.53.58.07-.05-.59-.94-1.38-2.52-.79-1.58-1.66-3.89-1.99-6.56-.05-.4-.08-.8-.11-1.18v-.19s-.2-.04-.2-.04c-2.37-.47-4.4-1.21-5.81-1.83-1.42-.61-2.24-1.07-2.28-1.01Z"/>
        <path class="cls-5" d="M300.06,257.14c-.12,0-.18,2.11.72,4.53.88,2.43,2.29,4.01,2.37,3.93.12-.09-1.07-1.75-1.91-4.1-.86-2.33-1.03-4.37-1.18-4.36Z"/>
        <path class="cls-5" d="M278.48,261.23s.06.08.19.19c.14.12.35.28.64.46.58.37,1.5.84,2.76,1.08,1.25.24,2.85.24,4.49-.4,1.63-.63,3.27-1.89,4.3-3.73l-.31.1c1.53.74,3.29,1.32,5.17,1.63.67.11,1.34.18,2.01.22.66.03,1.33.07,2.01-.12.31-.09.7-.26.91-.61.21-.33.25-.72.16-1.08-.09-.35-.33-.67-.65-.85-.26-.14-.52-.29-.78-.43-2.06-1.11-3.96-2.02-5.58-2.73-1.62-.71-2.95-1.23-3.88-1.57-.93-.34-1.45-.49-1.47-.46-.01.03.49.25,1.39.64.91.39,2.21.96,3.81,1.7,1.59.75,3.47,1.69,5.5,2.82.25.14.51.29.77.43.21.12.36.32.42.56.06.24.03.5-.1.7-.13.21-.35.31-.64.4-.56.16-1.2.13-1.84.09-.65-.04-1.3-.11-1.96-.22-1.83-.3-3.55-.86-5.05-1.57l-.2-.1-.11.2c-.96,1.74-2.5,2.96-4.04,3.59-1.55.64-3.08.68-4.29.48-1.22-.19-2.14-.61-2.73-.93-.6-.32-.9-.55-.92-.52Z"/>
      </g>
      <g>
        <path class="cls-3" d="M307.82,402.37s.07-.34-.03-.94c-.1-.6-.34-1.47-.95-2.4-.16-.23-.31-.47-.57-.69-.24-.22-.66-.39-1.07-.24-.2.07-.4.25-.47.47-.08.23-.04.45.02.64.13.38.33.65.5.96.37.62.67,1.24,1.15,1.94.24.36.77.65,1.26.57.48-.06.87-.29,1.22-.54.68-.49,1.28-1.06,1.79-1.65.26-.3.49-.61.71-.92.2-.31.44-.63.53-1.06.09-.42-.07-.96-.54-1.15-.48-.17-.87.07-1.14.26-.54.45-.87.91-1.2,1.36-.63.89-.98,1.71-1.18,2.28-.19.57-.24.91-.2.92.1.04.42-1.29,1.7-2.96.32-.4.71-.88,1.15-1.22.22-.16.51-.26.68-.18.18.06.28.33.22.59-.06.27-.26.56-.47.85-.21.29-.44.58-.68.87-.49.56-1.07,1.09-1.71,1.56-.31.22-.64.4-.96.44-.31.04-.56-.09-.77-.35-.39-.57-.77-1.28-1.13-1.86-.17-.31-.38-.6-.47-.86-.1-.27-.04-.44.14-.52.43-.18.85.31,1.14.72,1.21,1.72,1.2,3.14,1.31,3.11Z"/>
        <g>
          <polygon class="cls-9" points="283.4 403.21 271.28 429.48 251.72 420.44 264.26 387.93 283.4 403.21"/>
          <g>
            <path class="cls-12" d="M273.57,427.73l-7.08,13.51s18.13,18.74,16.43,22.93l-42.62-20.43,11.71-27.09,21.57,11.08Z"/>
            <path class="cls-7" d="M254.2,433.07c-.93-.17-1.95.48-2.16,1.41-.21.93.45,1.96,1.38,2.15.93.19,2.17-.56,2.27-1.5.1-.94-.73-2.12-1.68-2.08"/>
            <g class="cls-1">
              <path class="cls-6" d="M240.3,443.73l1.77-3.4,40.2,20.86s1.5,1.74.65,2.97l-42.62-20.43Z"/>
            </g>
            <path class="cls-3" d="M267.28,441.35c-.11.21-1.19-.2-2.54-.02-1.35.14-2.31.79-2.46.62-.17-.13.73-1.23,2.37-1.41,1.63-.2,2.77.65,2.63.82Z"/>
            <path class="cls-3" d="M270.87,445.34c-.05.22-1.12.15-2.25.69-1.14.51-1.78,1.37-1.98,1.27-.21-.06.23-1.35,1.65-2,1.41-.66,2.68-.16,2.59.04Z"/>
            <path class="cls-3" d="M270.84,451.9c-.21-.05,0-1.22,1.08-2.11,1.07-.89,2.27-.87,2.28-.65.04.23-.89.54-1.77,1.27-.89.72-1.37,1.57-1.59,1.49Z"/>
            <path class="cls-3" d="M269.32,436.14c-.18.15-1-.6-2.21-1.08-1.2-.51-2.31-.55-2.33-.78-.05-.21,1.21-.55,2.64.04,1.43.58,2.09,1.71,1.9,1.82Z"/>
          </g>
          <path class="cls-3" d="M277.56,424.22l31.95-79.96s-.72-13.64-3.23-17.95c-2.51-4.31-78.63-29.44-78.63-29.44,0,0-19.39-4.67-32.31,0-12.93,4.67-22.62,20.82-20.82,29.8,1.8,8.98,10.05,16.25,10.05,16.25l55.3.98,30.51,11.13-20.55,58.88,27.74,10.31Z"/>
          <polygon class="cls-9" points="305.98 369.58 306.7 398.5 285.16 399.03 282.06 364.32 305.98 369.58"/>
          <g>
            <path class="cls-12" d="M307.99,395.92l-.39,15.24s24.54,8.82,24.86,13.33l-47.26.48-1.45-29.48,24.24.42Z"/>
            <path class="cls-7" d="M292.96,409.26c-.91.26-1.53,1.29-1.31,2.22.22.92,1.27,1.56,2.19,1.32.92-.24,1.7-1.46,1.38-2.35-.32-.89-1.59-1.58-2.43-1.12"/>
            <g class="cls-1">
              <path class="cls-6" d="M285.2,424.97l.09-3.83,45.28.97s2.11.89,1.89,2.38l-47.26.48Z"/>
            </g>
            <path class="cls-3" d="M308.36,410.91c0,.23-1.16.35-2.29,1.1-1.15.72-1.72,1.73-1.94,1.64-.21-.04.12-1.43,1.5-2.31,1.37-.9,2.77-.64,2.72-.43Z"/>
            <path class="cls-3" d="M313.33,412.91c.05.22-.94.63-1.71,1.61-.8.96-.99,2.02-1.22,2.01-.22.04-.39-1.31.6-2.52.97-1.21,2.33-1.32,2.34-1.1Z"/>
            <path class="cls-3" d="M316.21,418.82c-.21.05-.54-1.1.04-2.37.57-1.27,1.65-1.78,1.75-1.59.13.19-.56.87-1.02,1.92-.48,1.04-.54,2.01-.77,2.04Z"/>
            <path class="cls-3" d="M307.88,405.35c-.09.21-1.16-.1-2.46,0-1.31.08-2.32.52-2.44.33-.14-.17.85-1.03,2.38-1.13,1.54-.11,2.63.61,2.51.8Z"/>
          </g>
          <path class="cls-3" d="M293.41,289.28s12.91-1.03,14.34,12.97c1.44,14,2.85,79.35,2.85,79.35l-30.16,2.51-4.67-66.78-48.11-20.47s57.13-9.38,65.75-7.59Z"/>
          <path class="cls-3" d="M240.21,270.38s7.83,21.96,6.34,24.41c-1.49,2.45-21.63,12.52-21.63,12.52l-50.4,19.36s-5.18-8.23-5.18-20.88,17.53-35.4,17.53-35.4h53.34Z"/>
          <path class="cls-8" d="M225.27,295.74s.08.05.24.13c.18.09.42.19.72.33.66.3,1.6.71,2.79,1.24,2.47,1.08,6.03,2.63,10.48,4.56,8.99,3.87,21.59,9.29,36.17,15.57l-.16-.23c.46,6.6.95,13.72,1.46,21.09,1.23,17.23,2.36,33.12,3.25,45.69l.02.23.23-.02c9.17-.81,16.7-1.47,21.97-1.93,2.59-.24,4.63-.43,6.05-.56.67-.07,1.19-.12,1.58-.16.36-.04.54-.07.54-.08,0-.01-.19,0-.54.01-.39.02-.91.06-1.59.1-1.42.1-3.46.25-6.06.44-5.27.42-12.81,1.01-21.99,1.73l.24.21c-.86-12.57-1.95-28.46-3.14-45.69-.52-7.37-1.02-14.49-1.49-21.09v-.17s-.16-.06-.16-.06c-14.61-6.2-27.24-11.56-36.25-15.39-4.47-1.88-8.05-3.38-10.54-4.42-1.21-.5-2.15-.88-2.83-1.16-.3-.12-.54-.21-.73-.29-.17-.06-.25-.09-.26-.08Z"/>
          <path class="cls-8" d="M185.19,297.94s.52-.1,1.41-.39c1-.32,2.27-.73,3.79-1.22,3.2-1.02,7.64-2.43,12.7-3.21,5.06-.78,9.73-.54,13,.17,3.28.68,5.17,1.62,5.21,1.51.01-.03-.44-.29-1.31-.66-.87-.38-2.16-.84-3.81-1.23-3.29-.82-8.05-1.13-13.17-.34-5.12.79-9.57,2.27-12.74,3.39-1.59.56-2.86,1.05-3.74,1.39-.88.35-1.35.56-1.34.59Z"/>
          <path class="cls-8" d="M192.31,286.36c.01.09,1.69-.24,4.41-.02,1.36.09,2.97.3,4.77.51,1.8.21,3.77.46,5.81.84,4.09.73,7.62,2.16,9.88,3.66,2.28,1.48,3.35,2.84,3.42,2.76.02-.02-.21-.38-.73-.95-.52-.57-1.33-1.35-2.47-2.14-2.25-1.63-5.85-3.15-9.99-3.89-2.07-.39-4.05-.62-5.85-.8-1.8-.18-3.43-.35-4.81-.39-1.38-.05-2.5.03-3.26.15-.76.12-1.17.24-1.17.28Z"/>
        </g>
      </g>
      <g>
        <path class="cls-3" d="M214.57,109.89c-5.8-.99-10.9,1.25-15.79,4.52-4.89,3.27-8.57,8.2-10.7,13.69-2.24,5.78-2.78,12.28-1.06,18.23,1.72,5.95,5.8,11.28,11.32,14.09,7.54,3.83,17.19,2.5,23.94-2.61,6.75-5.1,10.61-13.54,10.93-21.99.22-5.82-1.17-11.78-4.42-16.62-3.25-4.84-8.45-8.45-14.22-9.3"/>
        <g>
          <path class="cls-3" d="M198.08,129.61c.85-2.22.52-4.7.85-7.05.74-5.18,4.91-9.33,9.74-11.35,4.49-1.88,9.97-1.47,15.38.28,3.71,1.2,7.2,3.29,9.67,6.3,3.28,4,4.44,9.64,2.99,14.61l-26.49-3.86c-2.48,2.05-5.02,4.14-8.03,5.28-.88.34-1.83.59-2.77.44-.93-.15-1.84-.78-2.06-1.7-.24-1,.35-1.99.72-2.95Z"/>
          <path class="cls-9" d="M224.62,118.81l-23.13,4.9c-2.24.15-3.99,1.99-4.03,4.23l.28,50.05c.02,3.42,1.16,6.74,3.26,9.44l2.21,2.84c5.03,6.49,15.22,5.83,19.06-1.42.27-.51.45-.95.53-1.31.08-.45.2-.75.22-1.13l.44-4.88c.23-4.46.26-8.98.26-8.94,0,0,9.47-1.2,11.89-13.39,1.21-6.06,1.29-16.08,1.09-24.28-.18-7.38-4.7-16.6-12.07-16.11Z"/>
          <g>
            <g>
              <path class="cls-3" d="M232.79,145.14c0,.83-.71,1.52-1.58,1.53-.87.01-1.57-.65-1.57-1.48,0-.83.71-1.52,1.58-1.53.87-.01,1.57.65,1.57,1.48Z"/>
              <path class="cls-3" d="M234.32,140.04c-.2.2-1.36-.73-3.05-.79-1.69-.09-2.97.74-3.14.52-.09-.1.13-.46.68-.83.55-.37,1.47-.72,2.53-.67,1.05.05,1.93.47,2.42.89.5.42.67.8.57.89Z"/>
            </g>
            <g>
              <path class="cls-3" d="M217.15,144.33c0,.83-.71,1.52-1.58,1.53-.87.01-1.57-.65-1.57-1.48,0-.83.71-1.52,1.58-1.53.87-.01,1.57.65,1.57,1.48Z"/>
              <path class="cls-3" d="M218.23,139.62c-.2.2-1.36-.73-3.06-.79-1.69-.09-2.97.74-3.14.52-.09-.1.12-.46.68-.83.55-.37,1.47-.72,2.53-.67,1.05.05,1.93.47,2.42.89.5.42.67.8.57.89Z"/>
            </g>
            <path class="cls-3" d="M223.32,152.5c0-.1,1.06-.24,2.77-.39.43-.03.85-.1.93-.39.11-.31-.05-.78-.24-1.29-.37-1.06-.75-2.18-1.15-3.34-1.59-4.76-2.73-8.66-2.54-8.72.19-.06,1.64,3.74,3.23,8.5.38,1.17.75,2.29,1.1,3.36.14.5.4,1.07.16,1.71-.13.32-.46.54-.74.6-.28.07-.52.07-.74.07-1.72.03-2.79,0-2.79-.1Z"/>
            <path class="cls-5" d="M223.71,172.59s-8.28.21-16.26-5.02c0,0,3.8,8.65,16.13,7.98l.14-2.96Z"/>
            <path class="cls-5" d="M222.44,156.56c-.58-.83-1.63-1.31-2.69-1.24-.74.05-1.49.38-1.96.96-.47.58-.6,1.43-.21,2.01.43.66,1.38.85,2.2.65.82-.2,1.53-.7,2.21-1.21.19-.14.38-.29.5-.48.12-.2.16-.46.02-.63"/>
            <path class="cls-3" d="M218.29,153.48c.28,0,.21,1.83,1.73,3.2,1.52,1.37,3.49,1.24,3.49,1.5.02.12-.45.34-1.28.33-.81,0-1.99-.31-2.92-1.15-.93-.84-1.3-1.92-1.33-2.68-.04-.77.18-1.22.31-1.2Z"/>
          </g>
          <path class="cls-3" d="M218.14,134.6c-.18.45-1.87.17-3.86.33-2,.12-3.62.64-3.87.22-.11-.2.19-.62.85-1.04.66-.42,1.7-.8,2.9-.89,1.2-.08,2.28.15,2.99.47.72.32,1.07.7.99.91Z"/>
          <path class="cls-3" d="M234.11,132.61c-.31.37-1.46-.07-2.87-.15-1.4-.12-2.6.16-2.86-.26-.11-.2.09-.58.62-.92.53-.34,1.39-.61,2.36-.54.96.07,1.78.45,2.26.86.48.41.63.82.49,1Z"/>
          <path class="cls-3" d="M193.84,126.04c2.4-7.04,12.87-16.64,20.28-15.97l11.71,7.34c-.8,4.02-3.99,7.48-7.93,8.59-2.11.6-4.63.72-5.92,2.5-1.31,1.81-.62,4.51-1.84,6.38-1.69,2.6-6.18,2.38-7.46,5.2-.56,1.23-.31,2.72-.9,3.94-.78,1.63-4.98,3.63-6.69,3.05-1.71-.58-1.66-3.51-2.19-5.05-.91-2.64-.49-3.99-.14-5.45.82-3.45-.06-7.17,1.08-10.53Z"/>
          <path class="cls-9" d="M200.14,148.63c.03-.91-.94-3.11-1.84-3.29-2.4-.47-6.75-.44-7.02,5.67-.38,8.36,8.1,7.02,8.12,6.78.02-.19.62-6.01.74-9.17Z"/>
          <path class="cls-5" d="M196.99,154.51s-.15.1-.4.2c-.25.1-.66.16-1.09-.03-.87-.36-1.55-1.8-1.52-3.31.01-.76.21-1.48.5-2.07.28-.6.7-1.01,1.15-1.07.45-.08.75.2.84.44.1.24.04.4.08.42.02.02.19-.13.13-.48-.03-.17-.12-.37-.31-.54-.19-.17-.48-.27-.8-.25-.65.02-1.25.58-1.58,1.23-.36.65-.6,1.45-.61,2.31-.02,1.69.77,3.3,1.96,3.71.58.18,1.08.03,1.34-.16.27-.19.32-.38.29-.4Z"/>
        </g>
        <path class="cls-3" d="M192.05,123.87h0c.03-2.62-3.24-4.33-5.79-4.92-2.55-.59-5.24.18-7.54,1.44-1.34.74-2.69,1.78-3,3.28-.3,1.5,1.14,3.29,2.58,2.75-2.75.94-4.14,4.61-2.71,7.13,1.43,2.53,5.29,3.22,7.51,1.35-.72,2.4-2.28,4.53-4.35,5.94,4.3.61,8.87-1.22,11.55-4.65,2.68-3.42,3.37-8.3,1.74-12.33Z"/>
        <path class="cls-12" d="M186.24,137.17c-.06,0-.28-.94-.31-2.51-.03-1.57.2-3.75.96-6.04.77-2.28,1.91-4.16,2.89-5.39.97-1.23,1.73-1.85,1.77-1.81.15.11-2.65,2.89-4.13,7.38-1.54,4.47-.99,8.38-1.18,8.37Z"/>
        <path class="cls-3" d="M223.4,114.88c.77,3.41,5.95,7.77,8.22,10.42,4.33,5.06,5.19,6.74,5.15,18.05,2.05-3.91,3.61-7.73,3.46-12.14-.16-4.41-1.78-8.82-4.84-11.99-3.06-3.17-7.61-4.97-11.98-4.34"/>
      </g>
      <g>
        <path class="cls-12" d="M258.87,207.94s-9.02-15.03-11.52-18.07c-2.35-2.85-5.37-4.53-7.38-5.41-1.12-.49-2.3-.83-3.51-1.04l-12.96-2.87s-.02,8.85-9.3,9.4c-9.27.55-17.08-12.37-17.08-12.37,0,0-14.98,2.32-18.56,4.16-3.58,1.84-9.22,4.19-12.32,19.71l-2.18,15.18,25.83,2.39,2.47,38.38,12.81,8.92s35.51,9.23,37.78,9.84c2.27.61,3.02-57.14,3.02-57.14,0,0,9.12-5.9,12.9-11.07Z"/>
        <path class="cls-3" d="M241.87,201.49s.21.38.5,1.11c.3.72.67,1.79,1.09,3.12.84,2.66,1.76,6.43,2.29,10.67.51,4.24.53,8.12.35,10.91-.08,1.39-.19,2.52-.31,3.29-.11.77-.18,1.2-.22,1.19-.04,0-.03-.44.02-1.21.05-.78.1-1.9.14-3.29.08-2.78,0-6.62-.5-10.83-.52-4.2-1.38-7.95-2.12-10.63-.37-1.34-.69-2.42-.93-3.16-.23-.74-.34-1.16-.31-1.17Z"/>
      </g>
      <g>
        <path class="cls-9" d="M240.77,264.36l-48.63-10.59-2.25-34.76-21.63-2s.8,23.76,1.63,30.83c1.2,10.16,7.2,24.02,10.72,26.79,3.51,2.77,62.34,1.52,62.34,1.52l-2.18-11.8Z"/>
        <path class="cls-9" d="M268.38,270.66c-.34.68-1.05,1.12-1.81,1.05-.15-.01-.31-.04-.47-.1-1.08-.35-.97-2.54-.97-2.54l-5.15-.84s-6.7,4.32-9.09,7.19c-2.38,2.86-8.47.54-8.47.54l-2.11-10.98,9.49-8.58s-.58.51.07-1.09c.65-1.6,3.64-1,3.64-1,.46-.79,2.41-1.08,2.41-1.08l8.32.96c1.71.2,3.25,1.16,4.17,2.62l3.52,5.57s1.86,4.01,1.56,4.94c-.45,1.41-1.94,1.09-1.94,1.09,0,0-.41,2.64-1.1,2.73s-2.06-.49-2.06-.49h0Z"/>
        <path class="cls-5" d="M250.67,262.77c0,.09,1.12-.01,2.89.06,1.77.09,4.23.4,6.79,1.27,1.28.43,2.46.95,3.5,1.5,1.01.57,2.05,1.03,2.38,1.76.16.36.09.72-.09.99-.18.27-.42.44-.63.53-.44.18-.72.06-.73.11-.02.01.26.23.8.09.26-.07.56-.24.8-.55.25-.29.39-.82.2-1.3-.18-.49-.59-.86-1.04-1.17-.45-.3-.93-.6-1.46-.88-1.05-.58-2.25-1.13-3.56-1.57-2.62-.89-5.15-1.15-6.95-1.14-1.81.02-2.91.26-2.9.31Z"/>
        <path class="cls-5" d="M250.08,268.07c0,.16,3.4.02,7.56.26,4.16.23,7.51.75,7.54.6.01-.07-.81-.29-2.17-.53-1.35-.24-3.24-.48-5.34-.6-2.1-.12-4-.09-5.37,0-1.37.08-2.22.21-2.21.28Z"/>
        <path class="cls-5" d="M268.33,270.44s.06-.31.1-.89c.03-.57.07-1.4,0-2.44-.04-.52-.09-1.08-.23-1.69-.13-.61-.42-1.25-.82-1.81-.75-1.13-1.79-2.31-3.12-3.19-1.32-.87-2.64-1.61-3.98-2.01-1.33-.4-2.57-.5-3.59-.55-1.03-.04-1.86-.01-2.43,0-.57.02-.89.05-.89.09,0,.09,1.27.13,3.3.28,1.01.09,2.21.23,3.47.64,1.25.4,2.55,1.14,3.82,1.98,1.28.86,2.25,1.93,3.02,3.03.8,1.05.95,2.25,1.08,3.26.2,2.01.15,3.29.26,3.29Z"/>
        <path class="cls-5" d="M256.31,255.35c0,.08,1.24.11,3.23.34,1.91.29,4.98.43,6.72,3.07,1.89,2.4,3.5,4.67,4.2,6.53.74,1.85.68,3.12.79,3.11.03,0,.08-.31.05-.88-.02-.57-.15-1.4-.48-2.36-.64-1.96-2.24-4.31-4.14-6.73-.48-.61-1.01-1.18-1.62-1.63-.61-.46-1.31-.73-1.96-.92-1.31-.37-2.52-.48-3.53-.56-2.02-.14-3.27-.03-3.27.03Z"/>
        <path class="cls-5" d="M252.7,273.65s.18-.12.49-.38c.36-.29.82-.66,1.39-1.12,1.23-.95,3.06-2.3,5.47-3.77l-.12.02c1.54.26,3.27.56,5.15.88l-.18-.22c-.01.42.01.83.1,1.26.09.42.22.87.58,1.24.19.18.46.29.68.31.23.06.48.08.72.04.49-.07.95-.33,1.28-.71.08-.09.16-.2.22-.3l.05-.08.02-.04v-.02s.01,0,.01,0c.07-.03-.58.21-.3.11h0s.01,0,.01,0l.16.07c.22.09.44.16.67.24.23.07.46.13.71.18.12.02.25.04.38.04.13,0,.28,0,.48-.09.29-.21.39-.45.5-.68.1-.23.19-.47.26-.71.14-.48.25-.96.33-1.46l-.3.21c.67.12,1.46-.04,1.92-.65.21-.28.38-.63.35-1.04-.02-.36-.1-.68-.18-1-.36-1.26-.87-2.48-1.42-3.71h0s0-.03,0-.03c-.6-.95-1.23-1.95-1.88-2.97-.4-.63-.8-1.26-1.19-1.88-.4-.6-.75-1.28-1.3-1.82-.53-.54-1.18-.96-1.87-1.24-.69-.3-1.45-.37-2.12-.44-2.76-.31-5.39-.61-7.84-.88h-.03s-.03,0-.03,0c-.48.08-.93.19-1.38.36-.43.17-.89.37-1.19.84l.29-.09c-.88-.36-1.9-.37-2.67.15-.77.51-1.13,1.33-1.32,2.11l.06-.11c-2.72,2.45-4.95,4.45-6.54,5.88-.73.68-1.32,1.22-1.76,1.62-.4.38-.6.58-.59.6.01.01.24-.16.66-.51.46-.39,1.07-.9,1.83-1.54,1.62-1.4,3.88-3.35,6.65-5.75l.04-.04.02-.07c.17-.68.53-1.43,1.17-1.83.62-.42,1.52-.41,2.25-.1l.18.08.11-.17c.18-.28.57-.49.97-.63.4-.15.84-.26,1.28-.33h-.06c2.46.29,5.08.6,7.84.93.7.08,1.36.14,1.99.41.62.25,1.2.64,1.69,1.13.49.47.82,1.11,1.23,1.74.39.62.79,1.25,1.19,1.88.64,1.02,1.28,2.02,1.88,2.97l-.02-.03c.54,1.2,1.05,2.42,1.4,3.62.08.3.16.61.17.88.03.24-.09.49-.25.71-.3.42-.9.56-1.41.47l-.26-.04-.04.25c-.08.47-.18.95-.31,1.39-.12.42-.31.94-.54,1.11-.01,0-.1.03-.21.02-.1,0-.21-.02-.31-.03-.21-.04-.43-.09-.65-.16-.21-.07-.43-.14-.63-.22l-.15-.06h0s0,0,0,0c.27-.1-.37.13-.31.11h0s0,.02,0,.02l-.02.03-.04.07c-.05.08-.11.17-.17.24-.26.3-.62.51-.99.56-.19.03-.38.02-.57-.03-.21-.03-.34-.09-.47-.2-.49-.51-.56-1.42-.56-2.15v-.19s-.18-.03-.18-.03c-1.88-.29-3.62-.57-5.16-.81h-.07s-.05.02-.05.02c-2.41,1.52-4.21,2.92-5.41,3.92-.6.5-1.04.91-1.34,1.19-.29.28-.44.44-.43.45Z"/>
      </g>
      <g>
        <g>
          <path class="cls-7" d="M321.64,238.7l-64.05.52c-2.08,0-4.06,1-4.37,3.05l-7,46.68h-32.99c-1.06,0-1.92.86-1.92,1.92s.86,1.92,1.92,1.92h105.37l7.2-49.27c.39-2.54-1.58-4.83-4.16-4.83Z"/>
          <path class="cls-3" d="M321.64,238.7s.35-.04,1.01.09c.64.15,1.65.54,2.45,1.62.4.53.7,1.23.79,2.04.1.82-.13,1.69-.24,2.63-.27,1.89-.58,4.06-.92,6.5-1.41,9.79-3.44,23.89-5.94,41.24l-.02.17h-.17c-27.27.02-63.1.04-102.23.06h-2.75c-.42.02-1.02,0-1.46-.28-.45-.25-.81-.67-.99-1.16-.38-.98.07-2.17.99-2.66.44-.27,1.02-.29,1.44-.27h1.36c3.61,0,7.18,0,10.71,0,7.05,0,13.92,0,20.54,0l-.25.21c2.52-16.72,4.87-32.32,6.98-46.31.07-.89.47-1.84,1.18-2.44.7-.62,1.58-.94,2.45-1.08.89-.14,1.74-.06,2.58-.09.85,0,1.68-.01,2.51-.02,3.33-.02,6.54-.04,9.64-.06,6.2-.04,11.93-.08,17.14-.11,10.4-.05,18.69-.1,24.4-.13,2.84,0,5.03,0,6.53-.01.73,0,1.29,0,1.69,0,.38,0,.57.02.57.02,0,0-.19.02-.57.03-.39,0-.95.02-1.68.04-1.5.02-3.69.05-6.53.09-5.71.06-14,.16-24.4.27-5.21.05-10.94.11-17.14.17-3.1.03-6.32.06-9.64.09-.83,0-1.67.02-2.51.02-.84.03-1.71-.04-2.52.09-.81.13-1.62.44-2.23.99-.63.55-.96,1.31-1.04,2.19-2.09,13.99-4.41,29.59-6.91,46.32l-.03.21h-.21c-6.62,0-13.49,0-20.54,0-3.53,0-7.1,0-10.71,0h-1.36c-.48-.01-.83,0-1.19.21-.7.37-1.05,1.28-.76,2.03.13.37.4.69.75.88.36.2.72.22,1.2.21.92,0,1.83,0,2.75,0,39.13.02,74.96.04,102.23.06l-.2.17c2.57-17.33,4.66-31.43,6.11-41.21.37-2.44.69-4.61.98-6.49.11-.94.36-1.81.26-2.6-.08-.79-.36-1.47-.74-1.99-.76-1.06-1.74-1.47-2.37-1.63-.65-.16-1-.13-1-.15Z"/>
        </g>
        <path class="cls-6" d="M282.88,265.16c0,2.21,1.8,4.01,4.01,4.01s4.01-1.8,4.01-4.01-1.8-4.01-4.01-4.01-4.01,1.8-4.01,4.01Z"/>
        <path class="cls-3" d="M248.81,292.37c.09.02,2.13-11.87,4.55-26.55,2.42-14.68,4.32-26.59,4.23-26.6-.09-.01-2.13,11.87-4.55,26.55-2.42,14.68-4.32,26.59-4.23,26.6Z"/>
      </g>
    </g>
  </g>
</svg>