<svg width="48" height="48" viewBox="0 0 48 48" fill="none" xmlns="http://www.w3.org/2000/svg">
<mask id="mask0_295_11" style="mask-type:alpha" maskUnits="userSpaceOnUse" x="0" y="0" width="48" height="48">
<rect width="48" height="48" fill="#D9D9D9"/>
</mask>
<g mask="url(#mask0_295_11)">
<path d="M2 39.999V34.399C2 33.2657 2.29167 32.224 2.875 31.274C3.45833 30.324 4.23333 29.599 5.2 29.099C7.26667 28.0657 9.36667 27.2907 11.5 26.774C13.6333 26.2574 15.8 25.999 18 25.999C20.2 25.999 22.3667 26.2574 24.5 26.774C26.6333 27.2907 28.7333 28.0657 30.8 29.099C31.7667 29.599 32.5417 30.324 33.125 31.274C33.7083 32.224 34 33.2657 34 34.399V39.999H2ZM38 39.999V33.999C38 32.5324 37.5917 31.124 36.775 29.774C35.9583 28.424 34.8 27.2657 33.3 26.299C35 26.499 36.6 26.8407 38.1 27.324C39.6 27.8074 41 28.399 42.3 29.099C43.5 29.7657 44.4167 30.5074 45.05 31.324C45.6833 32.1407 46 33.0324 46 33.999V39.999H38ZM18 23.999C15.8 23.999 13.9167 23.2157 12.35 21.649C10.7833 20.0824 10 18.199 10 15.999C10 13.799 10.7833 11.9157 12.35 10.349C13.9167 8.78236 15.8 7.99902 18 7.99902C20.2 7.99902 22.0833 8.78236 23.65 10.349C25.2167 11.9157 26 13.799 26 15.999C26 18.199 25.2167 20.0824 23.65 21.649C22.0833 23.2157 20.2 23.999 18 23.999ZM38 15.999C38 18.199 37.2167 20.0824 35.65 21.649C34.0833 23.2157 32.2 23.999 30 23.999C29.6333 23.999 29.1667 23.9574 28.6 23.874C28.0333 23.7907 27.5667 23.699 27.2 23.599C28.1 22.5324 28.7917 21.349 29.275 20.049C29.7583 18.749 30 17.399 30 15.999C30 14.599 29.7583 13.249 29.275 11.949C28.7917 10.649 28.1 9.46569 27.2 8.39902C27.6667 8.23236 28.1333 8.12402 28.6 8.07402C29.0667 8.02402 29.5333 7.99902 30 7.99902C32.2 7.99902 34.0833 8.78236 35.65 10.349C37.2167 11.9157 38 13.799 38 15.999Z" fill="#1F4298"/>
</g>
</svg>
